<svg xmlns="http://www.w3.org/2000/svg" xmlns:xlink="http://www.w3.org/1999/xlink" viewBox="0 0 309.44 346.45"><defs><style>.cls-1{mask:url(#mask);}.cls-2,.cls-4{mix-blend-mode:multiply;}.cls-2{fill:url(#linear-gradient);}.cls-3{isolation:isolate;}.cls-4{opacity:0.72;}.cls-5,.cls-57,.cls-65{fill:#fff;}.cls-5{opacity:0;}.cls-6{fill:#fdfdfd;opacity:0.02;}.cls-7{fill:#fafafa;opacity:0.04;}.cls-8{fill:#f8f8f8;opacity:0.06;}.cls-9{fill:#f6f6f6;opacity:0.08;}.cls-10{fill:#f4f4f4;opacity:0.1;}.cls-11{fill:#f1f1f1;opacity:0.12;}.cls-12{fill:#efefef;opacity:0.14;}.cls-13{fill:#ededed;opacity:0.16;}.cls-14{fill:#ebebeb;opacity:0.18;}.cls-15{fill:#e8e8e8;opacity:0.2;}.cls-16{fill:#e6e6e6;opacity:0.22;}.cls-17{fill:#e4e4e4;opacity:0.24;}.cls-18{fill:#e2e2e2;opacity:0.25;}.cls-19{fill:#dfdfdf;opacity:0.27;}.cls-20{fill:#ddd;opacity:0.29;}.cls-21{fill:#dbdbdb;opacity:0.31;}.cls-22{fill:#d9d9d9;opacity:0.33;}.cls-23{fill:#d6d6d6;opacity:0.35;}.cls-24{fill:#d4d4d4;opacity:0.37;}.cls-25{fill:#d2d2d2;opacity:0.39;}.cls-26{fill:#d0d0d0;opacity:0.41;}.cls-27{fill:#cdcdcd;opacity:0.43;}.cls-28{fill:#cbcbcb;opacity:0.45;}.cls-29{fill:#c9c9c9;opacity:0.47;}.cls-30{fill:#c7c7c7;opacity:0.49;}.cls-31{fill:#c4c4c4;opacity:0.51;}.cls-32{fill:#c2c2c2;opacity:0.53;}.cls-33{fill:silver;opacity:0.55;}.cls-34{fill:#bebebe;opacity:0.57;}.cls-35{fill:#bbb;opacity:0.59;}.cls-36{fill:#b9b9b9;opacity:0.61;}.cls-37{fill:#b7b7b7;opacity:0.63;}.cls-38{fill:#b5b5b5;opacity:0.65;}.cls-39{fill:#b2b2b2;opacity:0.67;}.cls-40{fill:#b0b0b0;opacity:0.69;}.cls-41{fill:#aeaeae;opacity:0.71;}.cls-42{fill:#acacac;opacity:0.73;}.cls-43{fill:#a9a9a9;opacity:0.75;}.cls-44{fill:#a7a7a7;opacity:0.76;}.cls-45{fill:#a5a5a5;opacity:0.78;}.cls-46{fill:#a3a3a3;opacity:0.8;}.cls-47{fill:#a0a0a0;opacity:0.82;}.cls-48{fill:#9e9e9e;opacity:0.84;}.cls-49{fill:#9c9c9c;opacity:0.86;}.cls-50{fill:#9a9a9a;opacity:0.88;}.cls-51{fill:#979797;opacity:0.9;}.cls-52{fill:#959595;opacity:0.92;}.cls-53{fill:#939393;opacity:0.94;}.cls-54{fill:#919191;opacity:0.96;}.cls-55{fill:#8e8e8e;opacity:0.98;}.cls-56{fill:#8c8c8c;}.cls-57{opacity:0.15;}.cls-58{fill:url(#Безымянный_градиент_50);}.cls-59{fill:url(#Безымянный_градиент_43);}.cls-60{fill:url(#Безымянный_градиент_52);}.cls-61{mask:url(#mask-2);}.cls-62{fill:url(#Безымянный_градиент_20);}.cls-63{fill:url(#Безымянный_градиент_33);}.cls-64{fill:#3668ad;}.cls-64,.cls-65,.cls-66{fill-rule:evenodd;}.cls-66{fill:#c2111a;}.cls-67{filter:url(#luminosity-noclip-2);}.cls-68{filter:url(#luminosity-noclip);}</style><filter id="luminosity-noclip" x="209.3" y="-8343.8" width="100.45" height="32766" filterUnits="userSpaceOnUse" color-interpolation-filters="sRGB"><feFlood flood-color="#fff" result="bg"/><feBlend in="SourceGraphic" in2="bg"/></filter><mask id="mask" x="209.3" y="-8343.8" width="100.45" height="32766" maskUnits="userSpaceOnUse"><g class="cls-68"/></mask><linearGradient id="linear-gradient" x1="137.39" y1="195.78" x2="137.39" y2="323.41" gradientTransform="translate(0.16 129.91) rotate(-36.23)" gradientUnits="userSpaceOnUse"><stop offset="0"/><stop offset="0.22" stop-color="#444"/><stop offset="0.51" stop-color="#939393"/><stop offset="0.74" stop-color="#cdcdcd"/><stop offset="0.91" stop-color="#f1f1f1"/><stop offset="1" stop-color="#fff"/></linearGradient><linearGradient id="Безымянный_градиент_50" x1="121.7" y1="155.42" x2="152.82" y2="155.42" gradientTransform="translate(0.16 129.91) rotate(-36.23)" gradientUnits="userSpaceOnUse"><stop offset="0" stop-color="#54b5be" stop-opacity="0.7"/><stop offset="0.33" stop-color="#fff"/><stop offset="0.36" stop-color="#f3fafa"/><stop offset="0.42" stop-color="#d2ecee"/><stop offset="0.49" stop-color="#9dd5da"/><stop offset="0.58" stop-color="#55b6be"/><stop offset="0.58" stop-color="#54b5be"/><stop offset="0.63" stop-color="#7dbfc5"/><stop offset="0.74" stop-color="#d1d3d4"/><stop offset="1" stop-color="#54b5be" stop-opacity="0.7"/></linearGradient><linearGradient id="Безымянный_градиент_43" x1="126.75" y1="171.62" x2="147.77" y2="171.62" gradientTransform="translate(0.16 129.91) rotate(-36.23)" gradientUnits="userSpaceOnUse"><stop offset="0" stop-color="#54b5be" stop-opacity="0.7"/><stop offset="0.24" stop-color="#fff"/><stop offset="0.28" stop-color="#f4fafb" stop-opacity="0.98"/><stop offset="0.35" stop-color="#d8eef0" stop-opacity="0.93"/><stop offset="0.45" stop-color="#aadadf" stop-opacity="0.85"/><stop offset="0.57" stop-color="#6bbfc7" stop-opacity="0.74"/><stop offset="0.61" stop-color="#54b5be" stop-opacity="0.7"/><stop offset="0.71" stop-color="#8bc2c8" stop-opacity="0.83"/><stop offset="0.84" stop-color="#d1d3d4"/><stop offset="1" stop-color="#54b5be" stop-opacity="0.7"/></linearGradient><linearGradient id="Безымянный_градиент_52" x1="122.19" y1="250.9" x2="152.48" y2="250.9" gradientTransform="translate(0.16 129.91) rotate(-36.23)" gradientUnits="userSpaceOnUse"><stop offset="0" stop-color="#54b5be" stop-opacity="0.7"/><stop offset="0.04" stop-color="#68bbc3" stop-opacity="0.74"/><stop offset="0.17" stop-color="#a9d0d4" stop-opacity="0.88"/><stop offset="0.26" stop-color="#d2ddde" stop-opacity="0.97"/><stop offset="0.31" stop-color="#e2e2e2"/><stop offset="0.32" stop-color="#dfe1e1" stop-opacity="0.99"/><stop offset="0.4" stop-color="#bad5d8" stop-opacity="0.92"/><stop offset="0.48" stop-color="#9bcbd0" stop-opacity="0.85"/><stop offset="0.57" stop-color="#81c3c9" stop-opacity="0.8"/><stop offset="0.66" stop-color="#6dbdc4" stop-opacity="0.75"/><stop offset="0.76" stop-color="#5fb8c1" stop-opacity="0.72"/><stop offset="0.86" stop-color="#57b6bf" stop-opacity="0.71"/><stop offset="1" stop-color="#54b5be" stop-opacity="0.7"/></linearGradient><filter id="luminosity-noclip-2" x="209.3" y="189.6" width="100.45" height="123.69" filterUnits="userSpaceOnUse" color-interpolation-filters="sRGB"><feFlood flood-color="#fff" result="bg"/><feBlend in="SourceGraphic" in2="bg"/></filter><mask id="mask-2" x="209.3" y="189.6" width="100.45" height="123.69" maskUnits="userSpaceOnUse"><g class="cls-67"><g transform="translate(0)"><g class="cls-1"><path class="cls-2" d="M307.77,300.91l-15.62,11.44a4.83,4.83,0,0,1-6.77-1L210.23,208.75a4.84,4.84,0,0,1,1.05-6.77l15.61-11.44a4.84,4.84,0,0,1,6.77,1l75.15,102.56A4.85,4.85,0,0,1,307.77,300.91Z"/></g></g></g></mask><linearGradient id="Безымянный_градиент_20" x1="137.5" y1="195.15" x2="137.5" y2="323.55" gradientTransform="translate(0.16 129.91) rotate(-36.23)" gradientUnits="userSpaceOnUse"><stop offset="0" stop-color="#bcbec0"/><stop offset="0.14" stop-color="#aabcc0" stop-opacity="0.95"/><stop offset="0.54" stop-color="#7cb8bf" stop-opacity="0.81"/><stop offset="0.84" stop-color="#5fb6be" stop-opacity="0.73"/><stop offset="1" stop-color="#54b5be" stop-opacity="0.7"/></linearGradient><linearGradient id="Безымянный_градиент_33" x1="243.43" y1="-35.7" x2="13.58" y2="281.55" gradientTransform="translate(21.14 -28.23) rotate(5.39)" gradientUnits="userSpaceOnUse"><stop offset="0" stop-color="#54b5be"/><stop offset="0.15" stop-color="#9fcdd1"/><stop offset="0.26" stop-color="#cfdcdd"/><stop offset="0.31" stop-color="#e2e2e2"/><stop offset="0.36" stop-color="#ccdbdc"/><stop offset="0.44" stop-color="#a7cfd3"/><stop offset="0.54" stop-color="#89c6cb"/><stop offset="0.64" stop-color="#72bec6"/><stop offset="0.74" stop-color="#61b9c1"/><stop offset="0.85" stop-color="#57b6bf"/><stop offset="1" stop-color="#54b5be"/></linearGradient></defs><title>Ресурс 1</title><g class="cls-3"><g id="Слой_2" data-name="Слой 2"><g id="Слой_1-2" data-name="Слой 1"><g class="cls-4"><path class="cls-5" d="M29,180.21C-33.24,85.07,97-4,164,81.31,226.28,176.46,96.06,265.54,29,180.21ZM259.29,328.35c-8-6.8-76.94-114.76-81.91-103.61,2.2.29-16.2-22.62-15.92-22.91C258.08,102.61,112.8-30.37,22.25,69.47-35,141.25,26.7,238.82,111.46,225.85c44.73-8.38,23.92-23.51,49.74,10.75l.56-.42c-11.77,1.12,58,83.74,70.88,104.93C237.58,357,264.39,333,259.29,328.35Z" transform="translate(0)"/><path class="cls-6" d="M30,179.54c-66.32-92.37,71.69-187,135-98.9C231.3,173,93.28,267.69,30,179.54ZM260.27,327.68c-8-6.8-76.95-114.77-81.92-103.61,2.2.28-16.19-22.6-15.92-22.9C252.74,99.34,112.48-29.53,26.52,70.42c-57.65,67,2.9,164,84.47,151.41,42.49-6.57,22.84-19.74,49.84,13.91,1.39-.05,1.26-1,1.9-.23-11.77,1.12,60.68,82.34,70.88,104.93C240.44,355.57,265.36,332.3,260.27,327.68Z" transform="translate(0)"/><path class="cls-7" d="M31,178.87C-35.35,86.5,102.66-8.18,166,80,232.27,172.34,94.25,267,31,178.87ZM261.24,327c-8-6.8-77-114.77-81.92-103.61,2.2.28-16.18-22.57-15.91-22.9,83.83-104.18-48-226.36-132.63-129.13C-25,135.51,31.92,228.6,110.51,217.8c40.12-5.52,21.77-16,50,17.08,2.79-.11,1.95-1.6,3.24,0-11.77,1.12,60.68,82.34,70.88,104.93C241.41,354.89,266.33,331.63,261.24,327Z" transform="translate(0)"/><path class="cls-8" d="M31.94,178.2c-66.32-92.37,71.69-187,135-98.9C233.24,171.67,95.22,266.35,31.94,178.2ZM262.21,326.34c-8-6.8-76.95-114.77-81.92-103.61,2.2.28-16.17-22.54-15.91-22.9,77.67-105.9-46.1-222-129.33-127.5-53.94,61.24-.61,150.47,75,141.44,37.78-4.44,20.69-12.19,50.07,20.25,4.17-.16,2.64-2.2,4.57.15-11.77,1.12,60.68,82.34,70.88,104.93C242.38,354.22,267.3,331,262.21,326.34Z" transform="translate(0)"/><path class="cls-9" d="M32.91,177.53c-66.32-92.37,71.7-187,135-98.9C234.21,171,96.19,265.68,32.91,177.53ZM263.18,325.67c-8-6.8-77-114.77-81.92-103.61,2.2.28-16.09-22.48-15.91-22.9,90-92.35-44.14-217.62-126-125.88C-12.77,131.64,37,216.8,109.56,209.74c35.42-3.45,19.61-8.41,50.17,23.42,5.57-.21,3.34-2.79,5.91.34-11.77,1.12,60.68,82.34,70.88,104.93C243.35,353.55,268.27,330.29,263.18,325.67Z" transform="translate(0)"/><path class="cls-10" d="M33.88,176.86c-66.32-92.37,71.7-187,135-98.9C235.18,170.33,97.16,265,33.88,176.86ZM264.15,325c-8-6.8-76.95-114.77-81.92-103.61,2.2.27-16.07-22.44-15.91-22.9C254.66,107.86,124.15-14.73,43.58,74.24c-50.24,55.47-4.09,136.57,65.5,131.47,33.1-2.43,18.54-4.64,50.29,26.59,6.95-.26,4-3.39,7.24.53-11.77,1.12,60.68,82.34,70.88,104.93C244.32,352.88,269.24,329.61,264.15,325Z" transform="translate(0)"/><path class="cls-11" d="M34.85,176.19c-66.32-92.37,71.7-187,135-98.9C236.15,169.66,98.13,264.34,34.85,176.19ZM265.12,324.32c-8-6.79-77-114.76-81.92-103.6,2.2.27-16-22.4-15.9-22.9C254,108.91,127.11-11,47.85,75.19c-48.4,52.61-5.8,129.57,60.75,126.49,30.8-1.43,17.46-.86,50.4,29.76,8.35-.31,4.72-4,8.59.72-11.78,1.12,60.67,82.34,70.87,104.93C245.29,352.21,270.21,328.94,265.12,324.32Z" transform="translate(0)"/><path class="cls-12" d="M35.82,175.52c-66.32-92.37,71.7-187,135-98.9C237.12,169,99.1,263.66,35.82,175.52ZM266.09,323.65c-8-6.79-76.95-114.76-81.92-103.6,2.2.27-16-22.37-15.9-22.9,85-87.19-38.17-204.33-116.16-121-46.56,49.74-7.29,116.83,56,121.5,28.44,2.1,16.38,2.92,50.5,32.93,9.74-.36,5.42-4.57,9.93.91-11.78,1.12,60.67,82.34,70.87,104.93C246.26,351.54,271.18,328.27,266.09,323.65Z" transform="translate(0)"/><path class="cls-13" d="M36.79,174.85c-66.32-92.37,71.7-187,135-98.9C238.09,168.31,100.07,263,36.79,174.85ZM267.06,323c-8-6.79-76.95-114.76-81.92-103.6,2.2.27-16-22.33-15.9-22.89C252.61,111,133.1-3.35,56.38,77.1,11.65,124,47.9,185,107.65,193.62c26,3.75,15.31,6.7,50.62,36.1,11.13-.41,6.11-5.17,11.26,1.1-11.78,1.12,60.67,82.33,70.87,104.92C247.23,350.87,272.15,327.6,267.06,323Z" transform="translate(0)"/><path class="cls-14" d="M37.76,174.18c-66.32-92.37,71.7-187,135-98.91C239.06,167.64,101.05,262.32,37.76,174.18ZM268,322.31c-8-6.79-76.95-114.76-81.92-103.6,2.2.27-16-22.3-15.9-22.89C251.92,112.05,136.14.52,60.64,78.05c-42.9,44.06-9.27,98.69,46.54,111.54,23.5,5.41,14.22,10.47,50.72,39.27,12.53-.46,6.8-5.76,12.6,1.29-11.78,1.12,60.67,82.33,70.87,104.92C248.2,350.2,273.12,326.93,268,322.31Z" transform="translate(0)"/><path class="cls-15" d="M38.73,173.51c-66.32-92.37,71.7-187,135-98.91C240,167,102,261.65,38.73,173.51ZM269,321.64c-8-6.79-76.95-114.76-81.92-103.61,2.2.27-15.93-22.25-15.9-22.88C251.24,113.1,139.21,4.43,64.91,79,23.83,120.24,52.83,179.59,106.7,185.56c21.94,2.43,13.15,14.25,50.84,42.44,13.91-.51,7.49-6.35,13.93,1.48-11.77,1.12,60.67,82.33,70.87,104.92C249.17,349.53,274.1,326.26,269,321.64Z" transform="translate(0)"/><path class="cls-16" d="M39.7,172.84c-66.32-92.37,71.7-187,135-98.91C241,166.3,103,261,39.7,172.84ZM270,321c-8-6.79-76.94-114.76-81.92-103.61,2.2.27-15.9-22.22-15.89-22.88C250.55,114.15,142.32,8.4,69.17,80c-39.27,38.43-13.4,93,37.05,101.57,19.9,3.37,12.08,18,50.95,45.61,15.31-.56,8.19-6.95,15.27,1.67-11.77,1.12,60.67,82.33,70.87,104.92C250.14,348.86,275.07,325.59,270,321Z" transform="translate(0)"/><path class="cls-17" d="M40.67,172.17c-66.31-92.37,71.7-187.06,135-98.91C242,165.63,104,260.31,40.67,172.17ZM270.94,320.3c-8-6.79-76.94-114.76-81.91-103.61,2.19.27-15.89-22.18-15.9-22.88C249.87,115.2,145.46,12.44,73.44,80.92,36,116.56,57.66,174.75,105.75,177.5c16.91,7.41,11,21.8,51.05,48.78,16.7-.62,8.88-7.54,16.61,1.86-11.77,1.12,60.67,82.33,70.87,104.92C251.11,348.19,276,324.92,270.94,320.3Z" transform="translate(0)"/><path class="cls-18" d="M41.64,171.5c-66.31-92.37,71.7-187.06,135-98.91C243,165,104.93,259.64,41.64,171.5ZM271.91,319.63C263.91,312.84,195,204.87,190,216c2.19.27-15.86-22.15-15.9-22.88,75.09-76.89-25.45-176.58-96.39-111.27-35.71,32.87-17.47,87.55,27.56,91.6,14.6,8.73,9.92,25.58,51.17,51.95,18.09-.67,9.57-8.14,17.94,2.05-11.77,1.12,60.67,82.33,70.87,104.92C252.08,347.52,277,324.25,271.91,319.63Z" transform="translate(0)"/><path class="cls-19" d="M42.61,170.83c-66.31-92.37,71.7-187.06,135-98.91C243.92,164.29,105.9,259,42.61,170.83ZM272.88,319c-8-6.79-76.94-114.76-81.91-103.61,2.18.27-15.83-22.11-15.9-22.88C248.5,117.3,151.89,20.77,82,82.82,48,113,62.82,164.08,104.79,169.44c12.28,10.05,8.85,29.36,51.28,55.12,19.48-.72,10.27-8.73,19.28,2.23-11.77,1.12,60.68,82.34,70.87,104.93C253.05,346.85,278,323.58,272.88,319Z" transform="translate(0)"/><path class="cls-20" d="M43.59,170.15c-66.32-92.37,71.69-187,135-98.9C244.89,163.62,106.87,258.3,43.59,170.15ZM273.86,318.29c-8-6.79-77-114.76-81.92-103.61,2.18.26-15.81-22.07-15.9-22.87,71.78-73.46-20.85-166.71-89.8-108-32.23,27.43-20.84,75,18.08,81.64,10,11.36,7.76,33.13,51.39,58.28,20.87-.77,10.95-9.32,20.61,2.42-11.77,1.12,60.68,82.34,70.88,104.93C254,346.18,279,322.91,273.86,318.29Z" transform="translate(0)"/><path class="cls-21" d="M44.56,169.48c-66.32-92.37,71.69-187,135-98.9C245.86,163,107.84,257.63,44.56,169.48ZM274.83,317.62c-8-6.79-76.95-114.76-81.92-103.61,2.18.26-15.78-22-15.89-22.87C247.13,119.4,158.55,29.57,90.5,84.73,60,109.49,68,153.4,103.84,161.39c7.65,12.67,6.69,36.9,51.5,61.45,22.26-.82,11.65-9.92,21.95,2.61-11.77,1.12,60.68,82.34,70.88,104.93C255,345.51,279.92,322.24,274.83,317.62Z" transform="translate(0)"/><path class="cls-22" d="M45.53,168.81c-66.32-92.37,71.69-187,135-98.9C246.83,162.28,108.81,257,45.53,168.81ZM275.8,317c-8-6.8-77-114.76-81.92-103.61,2.18.26-15.75-22-15.89-22.87,68.46-70-16-156.26-83.22-104.78-28.9,22.13-24.21,62.37,8.59,71.67C108.69,171.35,109,198,155,222c23.66-.87,12.35-10.51,23.29,2.8-11.77,1.12,60.68,82.34,70.88,104.93C256,344.84,280.89,321.57,275.8,317Z" transform="translate(0)"/><path class="cls-23" d="M46.5,168.14c-66.32-92.37,71.7-187,135-98.9C247.8,161.61,109.78,256.29,46.5,168.14ZM276.77,316.28c-8-6.8-76.95-114.77-81.92-103.61,2.18.26-15.72-22-15.89-22.87C245.77,121.5,165.47,39.07,99,86.64c-27.32,19.56-25.9,56.08,3.85,66.69,3,15.31,4.53,44.46,51.72,67.79,25-.92,13-11.1,24.62,3-11.77,1.12,60.68,82.34,70.88,104.93C256.94,344.17,281.86,320.9,276.77,316.28Z" transform="translate(0)"/><path class="cls-24" d="M47.47,167.47c-66.32-92.37,71.7-187,135-98.9C248.77,160.94,110.75,255.62,47.47,167.47ZM277.74,315.61c-8-6.8-77-114.77-81.92-103.61,2.18.25-15.7-21.93-15.89-22.87,65.15-66.59-21.08-157.38-76.63-101.54-28.74,11.47-27.58,49.79-.89,61.71.69,16.62,3.46,48.23,51.83,71,26.44-1,13.73-11.7,26,3.18-11.77,1.12,60.68,82.34,70.88,104.93C257.91,343.49,282.83,320.23,277.74,315.61Z" transform="translate(0)"/><path class="cls-25" d="M48.44,166.8c-66.32-92.37,71.7-187,135-98.9C249.74,160.27,111.72,255,48.44,166.8ZM278.71,314.94c-8-6.8-76.95-114.77-81.92-103.61,2.18.25-15.67-21.9-15.88-22.87C244.4,123.59,161.28,35,107.57,88.55c-27.24,8.29-29.27,43.5-5.64,56.72-1.62,17.94,2.38,52,51.95,74.13,27.83-1,14.42-12.29,27.29,3.37-11.77,1.12,60.68,82.34,70.88,104.93C258.88,342.82,283.8,319.56,278.71,314.94Z" transform="translate(0)"/><path class="cls-26" d="M49.41,166.13c-66.32-92.37,71.7-187,135-98.9C250.71,159.6,112.69,254.28,49.41,166.13ZM279.68,314.27c-8-6.8-77-114.77-81.92-103.61,2.18.25-15.64-21.86-15.88-22.87,61.84-63.15-18.18-149.5-70-98.29-25.73,5.12-30.95,37.21-10.37,51.74-3.94,19.26,1.3,55.79,52.05,77.3,29.22-1.08,15.12-12.88,28.64,3.56C170.37,223.22,242.82,304.44,253,327,259.85,342.15,284.77,318.88,279.68,314.27Z" transform="translate(0)"/><path class="cls-27" d="M50.38,165.46c-66.32-92.37,71.7-187,135-98.9C251.68,158.93,113.66,253.61,50.38,165.46ZM280.65,313.6c-8-6.8-76.95-114.77-81.92-103.61,2.18.25-15.62-21.83-15.88-22.86C243,125.69,166.12,41.56,116.1,90.46,91.86,92.4,83.46,121.37,101,137.21c-6.26,20.57.23,59.57,52.16,80.46,30.62-1.12,15.81-13.47,30,3.76-11.78,1.12,60.67,82.34,70.87,104.93C260.82,341.48,285.74,318.21,280.65,313.6Z" transform="translate(0)"/><path class="cls-28" d="M51.35,164.79c-66.32-92.37,71.7-187,135-98.9C252.65,158.26,114.64,252.93,51.35,164.79ZM281.62,312.92c-8-6.79-77-114.76-81.92-103.6,2.18.25-15.59-21.79-15.88-22.86,58.53-59.72-15.27-141.63-63.46-95.05C97.63,90.18,86,116,100.5,133.18c-8.57,21.89-.85,63.34,52.28,83.63,32-1.17,16.5-14.06,31.31,3.95-11.78,1.12,60.67,82.34,70.87,104.93C261.79,340.81,286.71,317.54,281.62,312.92Z" transform="translate(0)"/><path class="cls-29" d="M52.32,164.12c-66.32-92.37,71.7-187,135-98.9C253.62,157.59,115.61,252.26,52.32,164.12ZM282.59,312.25c-8-6.79-76.95-114.76-81.92-103.6,2.18.24-15.56-21.75-15.88-22.86,56.87-58-13.82-137.69-60.16-93.43-21.23-4.4-36,18.33-24.6,36.79-10.89,23.21-1.93,67.12,52.38,86.8,33.4-1.22,17.2-14.66,32.65,4.14-11.78,1.12,60.67,82.34,70.87,104.92C262.76,340.14,287.68,316.87,282.59,312.25Z" transform="translate(0)"/><path class="cls-30" d="M53.29,163.45C-13,71.08,125-23.6,188.28,64.54,254.59,156.91,116.58,251.59,53.29,163.45ZM283.56,311.58c-8-6.79-76.94-114.76-81.92-103.6,2.18.24-15.53-21.72-15.87-22.86C241,128.84,173.39,51.37,128.9,93.32c-19.74-7.58-37.7,12-29.35,31.8-13.21,24.53-3,70.9,52.49,90,34.79-1.27,17.89-15.25,34,4.33-11.77,1.12,60.67,82.33,70.87,104.92C263.73,339.47,288.66,316.2,283.56,311.58Z" transform="translate(0)"/><path class="cls-31" d="M54.26,162.78c-66.31-92.37,71.7-187,135-98.91C255.56,156.24,117.55,250.92,54.26,162.78ZM284.53,310.91c-8-6.79-76.94-114.76-81.91-103.6,2.17.24-15.52-21.68-15.88-22.86,53.56-54.56-10.92-129.81-53.58-90.18C114.93,83.52,93.78,100,99.08,121.09c-15.53,25.84-4.09,74.67,52.6,93.14,36.18-1.32,18.58-15.84,35.32,4.52-11.77,1.12,60.67,82.33,70.87,104.92C264.7,338.8,289.63,315.53,284.53,310.91Z" transform="translate(0)"/><path class="cls-32" d="M55.23,162.11c-66.31-92.37,71.7-187,135-98.91C256.54,155.57,118.52,250.25,55.23,162.11ZM285.5,310.24c-8-6.79-76.94-114.76-81.91-103.61,2.17.25-15.49-21.64-15.88-22.85,51.9-52.84-9.47-125.87-50.28-88.55C120.7,81.3,96.36,94.68,98.6,117.06,80.75,144.22,92,225.68,151.31,213.37c36.81-7.63,19.28-16.44,36.66,4.71C176.2,219.2,248.64,300.41,258.84,323,265.67,338.13,290.6,314.86,285.5,310.24Z" transform="translate(0)"/><path class="cls-33" d="M56.2,161.44c-66.31-92.37,71.7-187.06,135-98.91C257.51,154.9,119.49,249.58,56.2,161.44ZM286.47,309.57c-8-6.79-76.94-114.76-81.91-103.61,2.17.25-15.46-21.6-15.88-22.85,50.25-51.12-8-121.93-47-86.93C126.46,79.08,98.94,89.34,98.12,113,78,141.51,90.61,224.56,151,212.51c38.23-7.63,20-17,38,4.9-11.77,1.12,60.67,82.33,70.87,104.92C266.64,337.46,291.57,314.19,286.47,309.57Z" transform="translate(0)"/><path class="cls-34" d="M57.18,160.77c-66.32-92.37,71.69-187.06,135-98.91C258.48,154.23,120.46,248.91,57.18,160.77ZM287.45,308.9c-8-6.79-76.95-114.76-81.92-103.61,2.17.24-15.44-21.57-15.87-22.84,48.58-49.41-6.57-118-43.7-85.32C132.23,76.86,101.52,84,97.65,109c-22.48,29.78-8.45,114.43,52.93,102.64,39.66-7.61,20.66-17.62,39.33,5.09-11.77,1.12,60.68,82.33,70.88,104.92C267.62,336.79,292.54,313.52,287.45,308.9Z" transform="translate(0)"/><path class="cls-35" d="M58.15,160.1C-8.17,67.73,129.84-27,193.13,61.19,259.45,153.56,121.43,248.24,58.15,160.1ZM288.42,308.23c-8-6.79-77-114.76-81.92-103.61,2.17.24-15.41-21.53-15.87-22.84,46.93-47.7-5.12-114.07-40.4-83.69C138,74.64,104.1,78.66,97.17,105c-24.8,31.1-9.39,117.35,53,105.81,41.08-7.58,21.36-18.22,40.67,5.27-11.77,1.12,60.68,82.34,70.88,104.93C268.59,336.12,293.51,312.85,288.42,308.23Z" transform="translate(0)"/><path class="cls-36" d="M59.12,159.43C-7.2,67.05,130.81-27.63,194.1,60.52,260.42,152.89,122.4,247.57,59.12,159.43ZM289.39,307.56c-8-6.79-76.95-114.76-81.92-103.61,2.17.24-15.38-21.5-15.87-22.84,45.28-46-3.66-110.13-37.11-82.07-10.73-26.62-43.16-23.56-57.8,1.91-21.06,36.64-10.34,120.26,53.16,109,42.5-7.54,22.05-18.81,42,5.46-11.77,1.12,60.68,82.34,70.88,104.93C269.56,335.45,294.48,312.18,289.39,307.56Z" transform="translate(0)"/><path class="cls-37" d="M60.09,158.75c-66.32-92.37,71.7-187,135-98.9C261.39,152.22,123.37,246.9,60.09,158.75ZM290.36,306.89c-8-6.79-77-114.76-81.92-103.61,2.17.24-15.35-21.46-15.87-22.84,43.62-44.26-2.21-106.19-33.81-80.44-9.23-29.8-45.4-29.79-62.54-3.08C72,134.6,84.91,220.1,149.48,209.07c43.92-7.49,22.74-19.41,43.34,5.65-11.77,1.12,60.68,82.34,70.88,104.93C270.53,334.78,295.45,311.51,290.36,306.89Z" transform="translate(0)"/><path class="cls-38" d="M61.06,158.08c-66.32-92.37,71.7-187,135-98.9C262.36,151.55,124.34,246.23,61.06,158.08ZM291.33,306.22c-8-6.8-76.95-114.76-81.92-103.61,2.17.23-15.33-21.42-15.87-22.84,42-42.54-.76-102.25-30.52-78.82-7.72-33-47.58-36.09-67.28-8.06C68.54,131.58,83.46,219,149.12,208.21c45.34-7.44,23.43-20,44.67,5.84C182,215.17,254.47,296.39,264.67,319,271.5,334.11,296.42,310.84,291.33,306.22Z" transform="translate(0)"/><path class="cls-39" d="M62,157.41c-66.32-92.37,71.7-187,135-98.9C263.33,150.88,125.31,245.56,62,157.41ZM292.3,305.55c-8-6.8-77-114.77-81.92-103.61,2.17.23-15.3-21.39-15.86-22.84,40.3-40.82.69-98.31-27.23-77.19-6.23-36.15-49.71-42.45-72-13-30.12,39.69-13.25,129,53.49,118.49,46.77-7.37,24.13-20.59,46,6-11.77,1.12,60.68,82.34,70.88,104.93C272.47,333.44,297.39,310.17,292.3,305.55Z" transform="translate(0)"/><path class="cls-40" d="M63,156.74c-66.32-92.37,71.7-187,135-98.9C264.3,150.21,126.28,244.89,63,156.74ZM293.27,304.88c-8-6.8-76.95-114.77-81.92-103.61,2.17.23-15.27-21.35-15.86-22.84,38.65-39.1,2.14-94.37-23.94-75.57-4.72-39.33-51.79-48.84-76.76-18-33,40.69-14.25,131.94,53.59,121.66,48.19-7.29,24.82-21.19,47.36,6.22-11.78,1.12,60.67,82.34,70.87,104.93C273.44,332.76,298.36,309.5,293.27,304.88Z" transform="translate(0)"/><path class="cls-41" d="M64,156.07C-2.35,63.7,135.67-31,199,57.17,265.27,149.54,127.25,244.22,64,156.07ZM294.24,304.21c-8-6.8-77-114.77-81.92-103.61,2.17.23-15.25-21.32-15.86-22.83,37-37.39,3.59-90.44-20.64-74-3.22-42.5-53.83-55.26-81.51-23C58.53,122.5,79.07,215.66,148,205.63c49.6-7.21,25.51-21.78,48.69,6.41-11.78,1.12,60.67,82.34,70.87,104.93C274.41,332.09,299.33,308.83,294.24,304.21Z" transform="translate(0)"/><path class="cls-42" d="M64.94,155.4c-66.32-92.37,71.7-187,135-98.9C266.24,148.87,128.23,243.55,64.94,155.4ZM295.21,303.54c-8-6.8-76.95-114.77-81.92-103.61,2.17.23-15.22-21.28-15.86-22.83,35.34-35.67,5-86.5-17.34-72.33-1.73-45.68-55.85-61.71-86.26-28-38.52,42.71-16.23,137.78,53.82,128,51-7.12,26.21-22.37,50,6.6-11.78,1.12,60.67,82.34,70.87,104.93C275.38,331.42,300.3,308.15,295.21,303.54Z" transform="translate(0)"/><path class="cls-43" d="M65.91,154.73c-66.32-92.37,71.7-187,135-98.9C267.21,148.2,129.2,242.88,65.91,154.73ZM296.18,302.87c-8-6.8-77-114.77-81.92-103.61,2.17.22-15.19-21.25-15.85-22.83,33.68-34,6.49-82.56-14.06-70.71-.22-48.85-57.82-68.17-91-33-41.22,43.73-17.25,140.7,53.93,131.17,52.44-7,26.89-23,51.36,6.79-11.78,1.12,60.67,82.34,70.87,104.93C276.35,330.75,301.27,307.48,296.18,302.87Z" transform="translate(0)"/><path class="cls-44" d="M66.88,154.06c-66.32-92.37,71.7-187,135-98.9C268.18,147.53,130.17,242.21,66.88,154.06ZM297.15,302.19c-8-6.79-76.95-114.76-81.92-103.6,2.17.22-15.16-21.21-15.85-22.83,32-32.23,7.94-78.62-10.76-69.08,1.28-52-59.78-74.64-95.74-38-43.88,44.76-18.26,143.63,54,134.34,53.86-6.91,27.59-23.56,52.7,7-11.78,1.12,60.67,82.34,70.87,104.93C277.32,330.08,302.25,306.81,297.15,302.19Z" transform="translate(0)"/><path class="cls-45" d="M67.85,153.39c-66.31-92.37,71.7-187,135-98.9C269.15,146.86,131.14,241.53,67.85,153.39ZM298.12,301.52c-8-6.79-76.94-114.76-81.91-103.6,2.16.22-15.15-21.18-15.86-22.83,30.37-30.52,9.4-74.68-7.47-67.46,2.79-55.2-61.72-81.11-100.48-42.95-46.5,45.81-19.27,146.55,54.15,137.51,55.28-6.8,28.29-24.16,54,7.17-11.77,1.12,60.67,82.34,70.87,104.93C278.29,329.41,303.22,306.14,298.12,301.52Z" transform="translate(0)"/><path class="cls-46" d="M68.82,152.72c-66.31-92.37,71.7-187,135-98.91C270.13,146.18,132.11,240.86,68.82,152.72ZM299.09,300.85c-8-6.79-76.94-114.76-81.91-103.6,2.16.22-15.12-21.14-15.86-22.83,28.72-28.8,10.85-70.74-4.17-65.84C201.43,50.21,133.51,21,91.93,60.65c-49.11,46.86-20.3,149.48,54.26,140.68,56.69-6.69,29-24.75,55.37,7.36-11.77,1.12,60.67,82.33,70.87,104.92C279.26,328.74,304.19,305.47,299.09,300.85Z" transform="translate(0)"/><path class="cls-47" d="M69.79,152.05c-66.31-92.37,71.7-187,135-98.91C271.1,145.51,133.08,240.19,69.79,152.05ZM300.06,300.18c-8-6.79-76.94-114.76-81.91-103.6,2.15.22-15.09-21.1-15.86-22.83,27.06-27.08,12.31-66.8-.88-64.21,5.79-61.55-65.54-94.09-110-52.91C39.76,104.54,70.12,209,145.82,200.47c58.11-6.56,29.67-25.34,56.71,7.55-11.77,1.12,60.67,82.33,70.87,104.92C280.23,328.07,305.16,304.8,300.06,300.18Z" transform="translate(0)"/><path class="cls-48" d="M70.77,151.38c-66.32-92.37,71.69-187,135-98.91C272.07,144.84,134.05,239.52,70.77,151.38ZM301,299.51c-8-6.79-76.94-114.76-81.91-103.61,2.15.22-15.06-21.06-15.85-22.81,25.4-25.37,13.75-62.87,2.41-62.6C213,45.77,138.24,9.92,91,52.6c-54.25,49-22.38,155.32,54.48,147,59.52-6.43,30.36-25.94,58,7.74-11.77,1.12,60.68,82.33,70.88,104.92C281.21,327.4,306.13,304.13,301,299.51Z" transform="translate(0)"/><path class="cls-49" d="M71.74,150.71C5.42,58.34,143.43-36.35,206.72,51.8,273,144.17,135,238.85,71.74,150.71ZM302,298.84c-8-6.79-76.95-114.76-81.92-103.61,2.15.22-15-21-15.85-22.81,23.75-23.65,15.2-58.93,5.71-61C218.73,43.55,140.63,4.38,90.5,48.57,33.71,98.62,67.09,206.82,145.09,198.75c60.94-6.3,31.06-26.53,59.38,7.93C192.7,207.8,265.15,289,275.35,311.6,282.18,326.73,307.1,303.46,302,298.84Z" transform="translate(0)"/><path class="cls-50" d="M72.71,150C6.39,57.67,144.4-37,207.69,51.13,274,143.5,136,238.18,72.71,150ZM303,298.17c-8-6.79-77-114.76-81.92-103.61,2.15.22-15-21-15.85-22.81,22.09-21.93,16.66-55,9-59.35C224.5,41.33,143-1.16,90,44.54c-59.31,51.13-24.46,161.18,54.7,153.35,62.36-6.16,31.75-27.12,60.72,8.12-11.77,1.12,60.68,82.33,70.88,104.92C283.15,326.06,308.07,302.79,303,298.17Z" transform="translate(0)"/><path class="cls-51" d="M73.68,149.37C7.36,57,145.37-37.69,208.66,50.46,275,142.83,137,237.51,73.68,149.37ZM304,297.5C296,290.71,227,182.74,222,193.89c2.15.22-15-20.95-15.85-22.81,20.44-20.21,18.11-51.05,12.3-57.73,11.79-74.24-73.1-120.1-128.93-72.84C27.67,92.67,64,204.62,144.36,197c63.77-6,32.44-27.72,62,8.31-11.77,1.11,60.68,82.33,70.88,104.92C284.12,325.39,309,302.12,304,297.5Z" transform="translate(0)"/><path class="cls-52" d="M74.65,148.7c-66.32-92.38,71.7-187.06,135-98.91C276,142.16,137.93,236.84,74.65,148.7ZM304.92,296.83c-8-6.79-77-114.76-81.92-103.61,2.15.21-15-20.92-15.84-22.81,18.77-18.49,19.55-47.12,15.58-56.1C236,36.89,147.84-12.24,89.07,36.48,24.74,89.8,62.5,203.52,144,196.17c65.18-5.87,33.14-28.31,63.39,8.49-11.77,1.12,60.68,82.34,70.88,104.93C285.09,324.72,310,301.45,304.92,296.83Z" transform="translate(0)"/><path class="cls-53" d="M75.62,148c-66.32-92.37,71.7-187,135-98.9C276.92,141.49,138.9,236.17,75.62,148ZM305.89,296.16c-8-6.79-76.95-114.76-81.92-103.61,2.15.21-14.93-20.88-15.84-22.81,17.12-16.77,21-43.18,18.88-54.48,14.79-80.59-76.75-133-138.42-82.81-66.82,54.42-27.62,170,55,162.86,66.59-5.72,33.82-28.91,64.72,8.68-11.77,1.12,60.68,82.34,70.88,104.93C286.06,324.05,311,300.78,305.89,296.16Z" transform="translate(0)"/><path class="cls-54" d="M76.59,147.35c-66.32-92.37,71.7-187,135-98.9C277.89,140.82,139.87,235.5,76.59,147.35ZM306.86,295.49c-8-6.8-77-114.76-81.92-103.61,2.15.21-14.9-20.85-15.84-22.81,15.47-15,21-39.28,22.18-52.85,7.29-85-78.59-139.54-143.16-87.8-69.31,55.53-28.69,172.9,55.14,166,68-5.57,34.52-29.5,66.06,8.87-11.77,1.12,60.68,82.34,70.88,104.93C287,323.38,312,300.11,306.86,295.49Z" transform="translate(0)"/><path class="cls-55" d="M77.56,146.68c-66.32-92.37,71.7-187,135-98.9C278.86,140.15,140.84,234.83,77.56,146.68ZM307.83,294.82c-8-6.8-76.95-114.76-81.92-103.61,2.15.21-14.87-20.81-15.84-22.8,13.81-13.34,23.08-35.41,25.47-51.24,13.23-87.75-80.42-146-147.9-92.78C15.86,81,57.88,200.22,142.89,193.59c69.41-5.41,35.22-30.09,67.41,9.06C198.52,203.77,271,285,281.17,307.58,288,322.71,312.92,299.44,307.83,294.82Z" transform="translate(0)"/><path class="cls-56" d="M78.53,146c-62.27-95.14,67.95-184.23,135-98.9C275.78,142.26,145.56,231.34,78.53,146ZM308.8,294.15c-8-6.8-77-114.77-81.92-103.61,2.15.21-14.85-20.77-15.84-22.8,12.16-11.63,25.37-31.37,28.77-49.62C259.1,28,158.29-33.45,87.16,20.36c-73.46,58.75-31,169.08,55.37,172.37,71-2.6,35.9-30.69,68.74,9.25-11.78,1.12,58,83.74,70.87,104.93C287.09,322.75,313.89,298.77,308.8,294.15Z" transform="translate(0)"/></g><path class="cls-57" d="M218.61,43.38c67,102-72.91,198.36-145.16,106.36C6.43,47.77,146.36-48.63,218.61,43.38Z" transform="translate(0)"/><path class="cls-58" d="M216.23,170.87c-8.23,4.94-27.12,25.8-26.8,6.42C197.66,172.34,216.56,151.48,216.23,170.87Z" transform="translate(0)"/><path class="cls-59" d="M227.46,190.12l-16.75,12.27c-19.27-25.13-13.19-15.24,3.65-30.15Z" transform="translate(0)"/><path class="cls-60" d="M307.77,300.91c-15.88,11.38-18.78,16.54-24.42,7.63L216,216.6c-12.84-10.51-2.11-22.32,16.25-26.32,3.56,2.6,5.57,7.63,15.51,20.52C271.9,247,317.56,297.73,307.77,300.91Z" transform="translate(0)"/><g class="cls-61"><path class="cls-62" d="M307.77,300.91C292.71,311.64,289,317.47,283.69,309l-72.08-98.37c-8.88-5.48,14.18-22.36,20.63-20.35,3.55,2.64,4.58,6.25,13.16,17.33C268.83,242.92,317.81,297.92,307.77,300.91Z" transform="translate(0)"/></g><path class="cls-63" d="M202.94,174.22C93.76,245.82-9.25,96.34,89.13,18.89,198.3-52.7,301.32,96.78,202.94,174.22ZM96.58,29.06c-88,72,9.27,196.16,98.91,135C283.53,92.09,186.21-32.1,96.58,29.06Z" transform="translate(0)"/><path class="cls-64" d="M114.46,77.52c7.31,1.41,7,7.79,1.59,12.35a27.4,27.4,0,0,1,10.85-3.35V98.61c-12.68-.89,1.27,22.71-23.85,18.63C75,118.75,96.28,99.89,80.18,98.61V86.52A26.54,26.54,0,0,1,91.29,90c-9.15-5.78-1.05-18.74,6.83-8.8a6,6,0,0,1,10.89,0C109.61,79.9,111.05,78.13,114.46,77.52Zm-17.7,10c5,2.08,6.54,4.52,13.65,0A6.2,6.2,0,0,1,109,85.5a6,6,0,0,1-10.89,0,5.79,5.79,0,0,1-1.36,2Z" transform="translate(0)"/><path class="cls-65" d="M81.33,87.81c4.28.28,12.1,2.7,10,9.65,8.92-.47,7.25,12.51,7.27,18.62-17.38.85-4.72-17.9-17.23-18.62V87.81Z" transform="translate(0)"/><path class="cls-66" d="M125.74,87.81c-4.42.22-11.79,2.75-9.69,9.65-8.92-.47-7.25,12.51-7.27,18.62,17,.65,4.52-17.94,17-18.62V87.81Z" transform="translate(0)"/><path class="cls-65" d="M92.68,78.68c4.89-.07,6.87,8.46,0,9.38C87.79,88.12,85.81,79.59,92.68,78.68Z" transform="translate(0)"/><path class="cls-66" d="M114.46,78.68c4.89-.07,6.87,8.46,0,9.38C109.57,88.12,107.58,79.59,114.46,78.68Z" transform="translate(0)"/><path class="cls-64" d="M130.21,78.33c28.52-2.74,29,8.24,6.16,6.09v9.67c19.47-2.11,17.29,8.36,0,5.83v11.22c-.05.13,10-.1,13.79,0,12.71,7.51-21.42,8.42-21.83,3.83C129.45,112.53,125.84,78.05,130.21,78.33Z" transform="translate(0)"/><path class="cls-64" d="M160.07,78.33c27.31-2.71,27.48,8.23,6.16,6.09-1.1,10.81,4.52,41.55-8,31.26C159.28,108.57,155.73,78.34,160.07,78.33Z" transform="translate(0)"/><path class="cls-64" d="M204,94.09c-25.52-2.28-22.56,8.78-.08,6.09-.46,10.82-9.24,13.6-19.55,8.19-6.81,12.32,29.51,14.32,28.27-9.49C215,64.63,170.68,82,186.78,85.9,192.16,82.74,203.41,83.76,204,94.09Z" transform="translate(0)"/></g></g></g></svg>