<svg xmlns="http://www.w3.org/2000/svg" viewBox="0 0 1922.62 1135.13"><defs><style>.cls-1{fill:#f7e85c;}.cls-2{opacity:0.35;}.cls-10,.cls-11,.cls-12,.cls-14,.cls-15,.cls-16,.cls-17,.cls-18,.cls-19,.cls-20,.cls-21,.cls-22,.cls-3,.cls-4,.cls-5,.cls-6,.cls-7,.cls-8,.cls-9{fill:none;stroke:#fff;stroke-linecap:round;stroke-linejoin:round;}.cls-3{stroke-width:125.8px;}.cls-20,.cls-21,.cls-22,.cls-3,.cls-4{opacity:0.15;}.cls-4{stroke-width:85.7px;}.cls-5{stroke-width:6.01px;}.cls-6{stroke-width:6.8px;}.cls-7{stroke-width:4.52px;}.cls-8{stroke-width:8.65px;}.cls-9{stroke-width:9.37px;}.cls-10{stroke-width:5.76px;}.cls-11{stroke-width:4.88px;}.cls-12{stroke-width:5.7px;}.cls-13{opacity:0.3;}.cls-14{stroke-width:12.53px;}.cls-15{stroke-width:13.38px;}.cls-16{stroke-width:12.19px;}.cls-17{stroke-width:9.97px;}.cls-18{stroke-width:5.4px;}.cls-19{stroke-width:12.14px;}.cls-20{stroke-width:42.43px;}.cls-21{stroke-width:30.6px;}.cls-22{stroke-width:23.8px;}</style></defs><title>sign-bg</title><g id="Слой_2" data-name="Слой 2"><g id="Слой_1-2" data-name="Слой 1"><g id="signin_signup" data-name="signin/signup"><rect class="cls-1" x="0.62" y="0.26" width="1922" height="1080"/><g class="cls-2"><path class="cls-3" d="M690.44,1072q41.37-19.74,83.65-37.53t85.32-33.57q24.15-8.85,48.54-17.07"/><path class="cls-3" d="M361.17,652.05q47.19-18.46,94.76-36t95.48-34q27-9.29,54-18.25c-2.27,19.85-19.91,32.4-36.54,40.5-10.26,5-21.06,8.74-31.75,12.7l-40,14.78c-26.14,9.67-52.33,19.21-78.42,29C399.84,668,380.93,676,364.14,687.44c-15.69,10.68-29.56,24.86-35.76,43.15a68.69,68.69,0,0,0-1.93,6.87q38.76-10.41,77-22.76t75.75-26.56q37.38-14.16,74-30.17c24-10.48,47.38-22.4,71.39-32.85,21.15-9.19,46.21-17.64,69-9.5a52.35,52.35,0,0,1,7.89,3.57c-15.59,27.95-43.83,45.44-71.61,59.53-34.9,17.69-70.65,33.83-106,50.63C487.35,746.76,450.67,764,414.17,781.6c-16.86,8.13-33.61,16.55-49.69,26.16-8,4.79-15.85,9.87-23.42,15.33-6.29,4.54-14.46,9.64-17.16,17.34-5.3,15.19,14.84,19.83,25.58,20a277,277,0,0,0,49.63-4.08c32.91-5.54,64.71-16.23,95.51-28.86,31.5-12.91,62.1-27.85,93-42.22s62-28.23,94.34-38.84c13.74-4.5,33-13.09,47.21-6.11,1.72.84,3.17,1.48,3.46,3.23s-.56,4.16-.88,5.76a67.33,67.33,0,0,1-2.82,10.06,77.32,77.32,0,0,1-9.75,18.21c-17.14,24-44.35,39.33-70,52.61Q594.64,858.39,540,886.41L430.57,942.82c-13,6.7-29.72,14.89-34.47,30-5.67,18.08,16.62,23.43,29.69,25.27,38,5.38,75.73-8.9,110.2-23.36,37.61-15.77,75.06-31.95,112.59-47.93s75.2-32.34,113-48.11c14.39-6,32.55-10,42.26,5.61,7.37,11.83,5.8,26.83-1.4,38.28-8.79,14-23.58,23.12-37.36,31.52a476.87,476.87,0,0,1-45.88,24.5c-31.55,14.82-64.35,26.76-97.26,38.19s-66.29,22.43-98.83,35.29c-15.64,6.18-31.11,12.8-46.25,20.11"/><path class="cls-4" d="M1196,541.16q31.29-82.69,67-163.62c11.68,13.25,5.72,33.76-.84,50.16l-34.44,86.09c-10.87,27.18-21.22,60-4.34,83.91a1095.85,1095.85,0,0,0,75.76-190.28c6.26-21.34,14.66-46,35.74-53.12,8.46,24.88.93,52-6.6,77.22q-19.6,65.51-39.22,131c-7.09,23.71-14.23,47.64-16.19,72.31-.4,5-.22,10.88,3.78,13.95,5.94,4.54,14.25-.91,19.32-6.42,57.42-62.31,62.2-155.82,99.79-231.74,3.43-6.91,8.14-14.44,15.76-15.71,19.59,21.34,13.4,54.87,6,82.87L1373.1,645.38c-3.08,11.63-2.57,28.9,9.41,30.06,4.09.4,8-1.62,11.43-3.87,25.56-16.81,37.1-47.8,47.07-76.7l52.13-151.1c2.41-7,5.3-14.59,11.73-18.29,9.56-5.5,22.5,1.09,27.43,10.95s3.93,21.56,2.14,32.44c-13.21,80.2-62.3,150.57-79.19,230.08-1.52,7.14-1.76,16.48,4.83,19.63,2.81,1.34,6.1,1,9.16.52a81,81,0,0,0,56.43-39.55c7.65-13.62,11.13-29.11,14.78-44.29a1327.66,1327.66,0,0,1,73.17-218.6"/><path class="cls-5" d="M1699.45,273c1.11,4.47,6.57,6.86,11,5.7s7.78-5,9.59-9.27a24.13,24.13,0,0,0,1.83-11.81c-.49-5-2.49-9.62-4.47-14.19q-3.9-9-7.79-18"/><path class="cls-5" d="M1723.52,219.47c7.54,15.61,12.6,32.28,17.64,48.87.61,2,1.21,4.24.31,6.14"/><path class="cls-5" d="M1693.74,239.19a12,12,0,0,1-2-9.19c1.31-6.66,8-10.9,14.52-12.77s13.53-2.2,19.72-5,11.57-9.3,9.94-15.89"/><path class="cls-5" d="M1753.73,226.42l18.09-7.57"/><path class="cls-5" d="M1759.93,239.29a22.58,22.58,0,0,1,14.71-8,3.27,3.27,0,0,0,2.17-.77c.52-.59.19-1.82-.59-1.73"/><path class="cls-5" d="M1790,198.6a31.66,31.66,0,0,1,15.94-11.77,3.55,3.55,0,0,1,2.82-.07,3.37,3.37,0,0,1,1.34,1.88,19.7,19.7,0,0,1-3.45,19.58c1.74-5.46,9.37-7.38,14.29-4.44s7.07,9.21,6.58,14.92c-.41,4.87-2.71,9.83-6.94,12.29s-10.44,1.59-13-2.58"/><path class="cls-5" d="M1843.72,222.54a6.77,6.77,0,0,1,2.25,8.15"/><path class="cls-5" d="M1855.54,169.31c8.25,9.11,10.53,22,12.48,34.09q1.17,7.22,2.32,14.45"/><path class="cls-5" d="M1882.16,160.68c2.46,1.59,2,5.24,1.33,8.09a100.06,100.06,0,0,0-2.51,24.57,1.74,1.74,0,0,0,2.82,1.81l15.65-6.57c.43-.18.91-.42,1-.87s-.63-.89-.82-.47"/><path class="cls-5" d="M1883.32,162c9.13,13.65,10.18,32,21.17,44.18"/><path class="cls-6" d="M17.56,974c1.25,5.05,7.44,7.76,12.48,6.44s8.82-5.69,10.87-10.49A27.45,27.45,0,0,0,43,956.6c-.55-5.61-2.82-10.89-5.06-16.06L29.1,920.17"/><path class="cls-6" d="M44.81,913.36c8.54,17.68,14.27,36.55,20,55.33.69,2.28,1.36,4.8.35,6.95"/><path class="cls-6" d="M11.1,935.68a13.53,13.53,0,0,1-2.25-10.4c1.49-7.54,9-12.34,16.45-14.46s15.31-2.49,22.32-5.65,13.11-10.54,11.25-18"/><path class="cls-6" d="M79,921.23l20.49-8.57"/><path class="cls-6" d="M86,935.8a25.65,25.65,0,0,1,16.65-9.12,3.68,3.68,0,0,0,2.46-.87c.59-.67.21-2.06-.67-1.95"/><path class="cls-6" d="M120.06,889.73a35.77,35.77,0,0,1,18-13.33,4.05,4.05,0,0,1,3.2-.08,3.91,3.91,0,0,1,1.51,2.13,22.32,22.32,0,0,1-3.9,22.17c2-6.18,10.61-8.36,16.18-5s8,10.43,7.45,16.89c-.47,5.52-3.07,11.12-7.86,13.91s-11.83,1.81-14.71-2.92"/><path class="cls-6" d="M180.91,916.83a7.68,7.68,0,0,1,2.55,9.23"/><path class="cls-6" d="M194.3,856.57c9.33,10.31,11.92,24.86,14.13,38.59q1.32,8.18,2.63,16.36"/><path class="cls-6" d="M224.44,846.79c2.79,1.8,2.24,5.94,1.5,9.16a113.21,113.21,0,0,0-2.84,27.82,2.6,2.6,0,0,0,.82,2.24,2.63,2.63,0,0,0,2.38-.18L244,878.38c.49-.2,1-.47,1.14-1s-.72-1-.94-.52"/><path class="cls-6" d="M225.75,848.3c10.34,15.46,11.53,36.21,24,50"/><path class="cls-6" d="M602.46,268.43c-.25,5.2,4.9,9.58,10.11,9.76s10.08-2.94,13.42-6.94A27.41,27.41,0,0,0,631.81,259c1.08-5.53.43-11.24-.23-16.84q-1.3-11-2.6-22"/><path class="cls-6" d="M646,218.13c3.1,19.38,3.17,39.11,3.24,58.74,0,2.37-.07,5-1.65,6.76"/><path class="cls-6" d="M607.28,229.86a13.61,13.61,0,0,1,.83-10.61c3.59-6.8,12.22-9.23,19.91-9.14s15.39,2,23,1,15.58-6.34,16-14"/><path class="cls-6" d="M676.49,235.48l22.09-2.34"/><path class="cls-6" d="M679,251.45a25.55,25.55,0,0,1,18.57-4,3.72,3.72,0,0,0,2.6-.13c.76-.48.8-1.92-.08-2.07"/><path class="cls-6" d="M724.86,217.06A35.81,35.81,0,0,1,746,209.47a4.05,4.05,0,0,1,3.09.83,3.91,3.91,0,0,1,.83,2.48,22.31,22.31,0,0,1-10.11,20.12c3.66-5.36,12.57-5,17-.18S761.4,245,759,251c-2,5.15-6.14,9.78-11.53,11.08s-11.85-1.66-13.25-7"/><path class="cls-6" d="M775.37,260.47a7.67,7.67,0,0,1-.21,9.57"/><path class="cls-6" d="M805.5,206.57c6,12.56,4.28,27.24,2.45,41q-1.08,8.22-2.18,16.43"/><path class="cls-6" d="M837.18,205.85c2.16,2.52.44,6.33-1.19,9.2a113.15,113.15,0,0,0-10.71,25.84,2,2,0,0,0,2.47,2.88l19.11-2.05c.52-.05,1.13-.16,1.37-.62s-.4-1.16-.74-.77"/><path class="cls-6" d="M838,207.67c5.47,17.77.65,38,8.61,54.79"/><path class="cls-6" d="M1532.23,1071.92c-.07-10.69-2.15-21.56-3.4-32.17"/><path class="cls-6" d="M1545.83,1037.73a267.87,267.87,0,0,1,2.94,34.06"/><path class="cls-6" d="M1507.13,1049.45a13.53,13.53,0,0,1,.83-10.61c3.59-6.79,12.22-9.23,19.91-9.13s15.38,2,23,1,15.58-6.34,15.94-14"/><path class="cls-6" d="M1576.34,1055.07l22.08-2.34"/><path class="cls-6" d="M1578.89,1071a25.63,25.63,0,0,1,18.56-4,3.7,3.7,0,0,0,2.61-.13c.76-.47.8-1.91-.08-2.06"/><path class="cls-6" d="M1624.7,1036.66c6.62-4.4,14.63-9.4,22.64-7.4,5,2,3,7,1,11s-3,10-8.71,12.24c3.64-5.3,3.55-2.26,0,0,3.64-5.3,11.95-4.83,16.34-.79,5.52,5.08,5.29,14,2.26,20.36"/><path class="cls-6" d="M1705.35,1026.17c6.79,14.26,3.8,30.81,1.81,45.81"/><path class="cls-6" d="M1737,1025.44c2.15,2.52.44,6.33-1.2,9.21a113.12,113.12,0,0,0-10.7,25.84,2,2,0,0,0,2.46,2.88l19.12-2a1.68,1.68,0,0,0,1.37-.63c.25-.46-.4-1.16-.75-.77"/><path class="cls-6" d="M1737.85,1027.26c4.47,14.55,2.06,30.06,5.27,44.81"/><path class="cls-7" d="M935.93,442.73c-.17,3.46,3.25,6.37,6.72,6.49s6.7-2,8.93-4.62a18.18,18.18,0,0,0,3.87-8.12c.72-3.68.28-7.48-.16-11.2q-.85-7.33-1.72-14.66"/><path class="cls-7" d="M964.88,409.27c2.06,12.9,2.11,26,2.16,39.07,0,1.58,0,3.32-1.11,4.5"/><path class="cls-7" d="M939.13,417.07a9,9,0,0,1,.56-7.05c2.39-4.52,8.12-6.14,13.24-6.08s10.23,1.34,15.3.65,10.36-4.21,10.61-9.32"/><path class="cls-7" d="M985.17,420.81l14.68-1.56"/><path class="cls-7" d="M986.86,431.43a17,17,0,0,1,12.35-2.63,2.44,2.44,0,0,0,1.73-.09c.51-.31.53-1.27-.05-1.37"/><path class="cls-7" d="M1017.33,408.56a23.8,23.8,0,0,1,14-5.05,2.69,2.69,0,0,1,2.06.56,2.54,2.54,0,0,1,.55,1.64,14.86,14.86,0,0,1-6.72,13.39c2.43-3.57,8.36-3.3,11.27-.12s3.11,8.17,1.52,12.18c-1.35,3.43-4.08,6.51-7.66,7.37s-7.88-1.11-8.82-4.67"/><path class="cls-7" d="M1050.93,437.43a5.13,5.13,0,0,1-.14,6.37"/><path class="cls-7" d="M1071,401.59c4,8.35,2.84,18.11,1.63,27.28q-.74,5.46-1.45,10.93"/><path class="cls-7" d="M1092,401.11c1.43,1.67.29,4.2-.8,6.12a75.26,75.26,0,0,0-7.12,17.18,1.31,1.31,0,0,0,1.64,1.92l12.71-1.37a1.09,1.09,0,0,0,.92-.41c.16-.31-.27-.77-.5-.51"/><path class="cls-7" d="M1092.58,402.32c3.64,11.81.43,25.26,5.72,36.44"/><path class="cls-8" d="M1385.53,622a638.53,638.53,0,0,1,13.4-76.56"/><path class="cls-8" d="M1399.35,548c2.73,6.74,9.41,10.94,13.78,16.75,3.19,4.24,5.1,9.27,7,14.23l12.69,33.65"/><path class="cls-8" d="M1389,590.86q16.85.51,33.7-.29"/><path class="cls-8" d="M1443.71,575.67a277.44,277.44,0,0,0,44.18-1.55c.62-.07,1.39-.26,1.53-.87s-1.14-.84-1-.24"/><path class="cls-8" d="M1463.5,555.67q2.76,21.12,7.18,42"/><path class="cls-8" d="M1509.2,544.15c6.2,10.13,6.39,22.69,6.4,34.57q0,17.32,0,34.66"/><path class="cls-8" d="M1511.42,547.11a27,27,0,0,1,31.09,7.25,10.42,10.42,0,0,1,2.4,4.5c.69,3.52-1.58,6.94-4.15,9.44a33.39,33.39,0,0,1-24.63,9.36"/><path class="cls-8" d="M1517.67,578c7.78-2.16,16.15-3.73,23.83-1.25s14.16,10.27,12.57,18.18c-1.31,6.51-7.4,11-13.52,13.54a51.62,51.62,0,0,1-26.11,3.65"/><path class="cls-8" d="M1580.93,563.41l20.19-1.07"/><path class="cls-8" d="M1581.73,580.67a121.49,121.49,0,0,1,26.12-1.46"/><path class="cls-8" d="M1652.23,544c-6.18-5.93-17.16-3.78-22.89,2.57s-7.27,15.47-7.28,24c0,4.81.42,9.73,2.33,14.15a22.36,22.36,0,0,0,38.94,3.85"/><path class="cls-8" d="M1664.84,527.84a6.27,6.27,0,0,1,9.94-7.1c3.59,3.17,2.43,9.13-.22,13.11s-6.47,7.3-7.92,11.85l21.4-2.87c1.43-.19,3.27-1.77,2.07-2.57"/><path class="cls-8" d="M1553.73,527.84a6.27,6.27,0,0,1,9.94-7.1c3.58,3.17,2.42,9.13-.22,13.11s-6.48,7.3-7.93,11.85l21.4-2.87c1.43-.19,3.27-1.77,2.07-2.57"/><path class="cls-9" d="M341.55,211.44a690.81,690.81,0,0,1-4.33-84.09"/><path class="cls-9" d="M338.26,129.85c4.51,6.46,12.58,9.29,18.6,14.38,4.39,3.71,7.62,8.56,10.79,13.35q10.77,16.24,21.53,32.48"/><path class="cls-9" d="M337.67,177.67q17.91-3.51,35.52-8.42"/><path class="cls-9" d="M391.8,148.44a299.63,299.63,0,0,0,46.3-12.28c.64-.22,1.4-.61,1.4-1.28s-1.4-.62-1.07,0"/><path class="cls-9" d="M407.88,122.55q8,21.64,17.72,42.61"/><path class="cls-9" d="M453.37,99.37c9,9.21,12.23,22.43,15.11,35q4.18,18.3,8.39,36.6"/><path class="cls-9" d="M456.43,102c9.87-7.49,24.79-7.42,34.59.17a11.36,11.36,0,0,1,3.63,4.17c1.58,3.55,0,7.71-2.11,11a36.17,36.17,0,0,1-23.75,15.82"/><path class="cls-9" d="M470.5,133.12c7.69-4.16,16.16-7.83,24.87-7.06s17.44,7.43,17.67,16.17c.19,7.19-5.17,13.36-11,17.56a56,56,0,0,1-26.69,10.15"/><path class="cls-9" d="M533.79,102.43l21.07-6"/><path class="cls-9" d="M538.8,120.47A131.57,131.57,0,0,1,566,112.64"/><path class="cls-9" d="M604.42,64.78c-8-4.78-19,.13-23.56,8.23s-3.94,18.08-1.88,27.12c1.16,5.09,2.79,10.18,5.87,14.4a24.24,24.24,0,0,0,42.07-5.32"/><path class="cls-9" d="M613.84,44.64a6.79,6.79,0,0,1,8.79-9.89c4.54,2.48,4.76,9,2.93,13.9s-5.08,9.27-5.51,14.42L642,54.89c1.46-.55,3-2.66,1.57-3.22"/><path class="cls-9" d="M496.47,71.42a6.79,6.79,0,0,1,8.78-9.9c4.55,2.48,4.76,9.06,2.94,13.9s-5.09,9.27-5.51,14.43l21.9-8.19c1.47-.54,3-2.66,1.57-3.22"/><path class="cls-6" d="M1049.27,227.06A502,502,0,0,1,1074,171.21"/><path class="cls-6" d="M1073.89,173.17c.8,5.66,5.09,10.13,7.32,15.39,1.63,3.84,2.13,8,2.61,12.18q1.65,14,3.29,28.07"/><path class="cls-6" d="M1057.83,203.93q12.75,3.6,25.75,6.17"/><path class="cls-6" d="M1102.45,202.72a218,218,0,0,0,34,7.2c.49.06,1.1.06,1.33-.38s-.71-.85-.69-.36"/><path class="cls-6" d="M1121.35,191.22q-1.9,16.64-2.5,33.38"/><path class="cls-6" d="M1158.39,191.1c2.81,8.9.57,18.52-1.68,27.58l-6.57,26.44"/><path class="cls-6" d="M1159.53,193.78a21.22,21.22,0,0,1,22.33,11.42,8.23,8.23,0,0,1,1,3.89c-.14,2.81-2.53,5-5,6.41a26.23,26.23,0,0,1-20.56,2.47"/><path class="cls-6" d="M1158.42,218.55c6.34-.18,13,.21,18.41,3.56s8.85,10.52,6.14,16.25c-2.24,4.72-7.73,7-12.89,7.76a40.56,40.56,0,0,1-20.61-2.16"/><path class="cls-6" d="M408.94,748.94a500.83,500.83,0,0,1,10.53-60.17"/><path class="cls-6" d="M419.8,690.71c2.14,5.3,7.39,8.6,10.83,13.17,2.5,3.33,4,7.28,5.47,11.18q5,13.23,10,26.45"/><path class="cls-6" d="M411.65,724.43q13.25.42,26.48-.22"/><path class="cls-6" d="M454.66,712.5a217.79,217.79,0,0,0,34.73-1.22c.49,0,1.09-.2,1.2-.68s-.9-.66-.76-.19"/><path class="cls-6" d="M470.22,696.78q2.17,16.59,5.64,33"/><path class="cls-6" d="M506.14,687.72c4.87,8,5,17.84,5,27.18q0,13.62,0,27.23"/><path class="cls-6" d="M507.88,690.05a21.25,21.25,0,0,1,24.44,5.7,8.21,8.21,0,0,1,1.89,3.53c.54,2.77-1.25,5.46-3.26,7.43a26.28,26.28,0,0,1-19.36,7.35"/><path class="cls-6" d="M512.8,714.35c6.11-1.7,12.69-2.93,18.72-1s11.14,8.08,9.89,14.29c-1,5.12-5.82,8.61-10.64,10.64a40.55,40.55,0,0,1-20.51,2.87"/><path class="cls-6" d="M1779.39,471c-.36.29-.37-.73.08-.61s.52.73.5,1.19a17.56,17.56,0,0,0,.78,7.15,7.07,7.07,0,0,0,5.16,4.62c3.22.48,6.24-2.15,7.33-5.2s.74-6.42.36-9.64l3.69,32.51a25.51,25.51,0,0,1,.07,7.8,12.68,12.68,0,0,1-2.23,5c-1.61,2.16-4.33,3.85-6.92,3.12-2.38-.67-3.82-3.19-4.2-5.63-.67-4.37,1.25-8.7,3.46-12.53a73.86,73.86,0,0,1,18.8-21.45"/><path class="cls-6" d="M1819,476.6a47.66,47.66,0,0,0,12.56-.69"/><path class="cls-6" d="M1813.71,465.22a68.39,68.39,0,0,0,19.27-.55"/><path class="cls-6" d="M1864.2,415.84q-1.23,18.2-.8,36.46c0,.52.09,1.14.54,1.39s1.11-.51.65-.76"/><path class="cls-6" d="M1848.09,470.68h40.36"/><path class="cls-6" d="M1856.47,489.37a41.17,41.17,0,0,0,31.32,15.12"/><path class="cls-6" d="M1872.46,486.52c1.2,6-1.25,12.35-5.12,17.15s-9,8.37-14.09,11.86"/><path class="cls-6" d="M1512.2,3.4q-1.23,18.2-.8,36.46c0,.52.09,1.14.55,1.38s1.1-.5.65-.75"/><path class="cls-6" d="M1496.09,58.24h40.36"/><path class="cls-6" d="M1504.48,76.93a41.14,41.14,0,0,0,31.32,15.12"/><path class="cls-6" d="M1520.46,74.08c1.2,6-1.25,12.35-5.12,17.15s-9,8.37-14.09,11.86"/><path class="cls-6" d="M445.5,476.28c-.36.29-.37-.74.08-.61s.52.72.5,1.19a17.39,17.39,0,0,0,.79,7.15,7,7,0,0,0,5.16,4.61c3.21.49,6.23-2.14,7.33-5.19s.73-6.42.35-9.64l3.69,32.51a25.14,25.14,0,0,1,.07,7.79,12.42,12.42,0,0,1-2.23,5c-1.6,2.16-4.32,3.86-6.92,3.13-2.38-.68-3.82-3.19-4.2-5.63-.66-4.37,1.25-8.7,3.46-12.53a73.73,73.73,0,0,1,18.8-21.45"/><path class="cls-6" d="M485.09,481.88a47.24,47.24,0,0,0,12.56-.69"/><path class="cls-6" d="M479.82,470.51a68,68,0,0,0,19.27-.56"/><path class="cls-6" d="M530.31,421.13q-1.23,18.19-.79,36.45c0,.53.08,1.14.54,1.39s1.11-.5.65-.75"/><path class="cls-6" d="M514.2,476h40.36"/><path class="cls-6" d="M522.59,494.65a41.12,41.12,0,0,0,31.32,15.13"/><path class="cls-6" d="M538.57,491.81c1.2,6-1.25,12.35-5.11,17.15s-9,8.37-14.1,11.86"/><path class="cls-6" d="M990.7,637.55c-.36.3-.37-.73.08-.61s.52.73.5,1.2a17.41,17.41,0,0,0,.79,7.15,7,7,0,0,0,5.16,4.61c3.21.49,6.23-2.14,7.33-5.2s.73-6.42.35-9.64l3.69,32.51a25.2,25.2,0,0,1,.07,7.8,12.54,12.54,0,0,1-2.23,5c-1.6,2.16-4.32,3.86-6.92,3.12-2.38-.67-3.82-3.18-4.2-5.63-.66-4.37,1.25-8.7,3.46-12.52a73.77,73.77,0,0,1,18.8-21.46"/><path class="cls-6" d="M1030.29,643.16a47.21,47.21,0,0,0,12.56-.69"/><path class="cls-6" d="M1025,631.78a68.39,68.39,0,0,0,19.27-.55"/><path class="cls-6" d="M1075.51,582.4q-1.23,18.21-.79,36.46c0,.52.08,1.14.54,1.39s1.11-.51.65-.76"/><path class="cls-6" d="M1059.4,637.25h40.36"/><path class="cls-6" d="M1067.79,655.93a41.15,41.15,0,0,0,31.32,15.13"/><path class="cls-6" d="M1083.77,653.08c1.2,6-1.25,12.35-5.11,17.15s-9,8.37-14.1,11.86"/><path class="cls-10" d="M1183.45,756.8a40,40,0,0,0,10.64-.58"/><path class="cls-10" d="M1179,747.16a57.66,57.66,0,0,0,16.33-.47"/><path class="cls-10" d="M1208.13,751.79h268.11"/><path class="cls-10" d="M1145.68,747.46a34.86,34.86,0,0,0,26.55,12.82"/><path class="cls-10" d="M1159.23,745.05c1,5.12-1.06,10.46-4.33,14.54s-7.65,7.09-12,10"/><path class="cls-10" d="M1221,735.5a34.23,34.23,0,0,1,12.9-1"/><path class="cls-10" d="M1244.69,735.77a35.53,35.53,0,0,0,6.39-14.65c.61-3.28.64-7-1.51-9.55-.91-1.08-2.74-1.79-3.63-.69a3,3,0,0,0-.47,1.55c-.86,7.84-1.69,15.93.62,23.47,1.32,4.3,4.49,8.8,9,8.79a2.46,2.46,0,0,0,1.62-.46,2.89,2.89,0,0,0,.78-1.91c.34-2.49.33-5.18-1-7.31a6.82,6.82,0,0,0-10.12-1.11"/><path class="cls-10" d="M1321,735.77a35.64,35.64,0,0,0,6.38-14.65c.61-3.28.64-7-1.51-9.55-.91-1.08-2.74-1.79-3.62-.69a2.89,2.89,0,0,0-.48,1.55c-.86,7.84-1.69,15.93.62,23.47,1.32,4.3,4.49,8.8,9,8.79a2.5,2.5,0,0,0,1.63-.46,3,3,0,0,0,.78-1.91c.33-2.49.32-5.18-1-7.31a6.84,6.84,0,0,0-10.13-1.11"/><path class="cls-10" d="M1269.78,719.64a56.48,56.48,0,0,1,16.31-.81"/><path class="cls-10" d="M1276.91,709.79q1,9,2,17.9"/><path class="cls-10" d="M1272.64,736.53,1290,737"/><path class="cls-10" d="M1298.86,716.57A88.11,88.11,0,0,1,1307,738q.66-15.15,1.31-30.3c.07-1.67.25-3.56,1.57-4.6a5.91,5.91,0,0,1,3.43-.88c42.15-2,108.41-2.48,150.56-4.44"/><path class="cls-10" d="M1338.65,714.24a4.18,4.18,0,0,1,6.63-4.73c2.38,2.11,1.61,6.08-.15,8.73s-4.32,4.87-5.28,7.9l14.26-1.91c1-.13,2.18-1.18,1.38-1.72"/><path class="cls-10" d="M1369.14,728.26c.36-1.47,2.29-1.78,3.8-1.76a123.16,123.16,0,0,1,19.82,1.89"/><path class="cls-10" d="M1410.16,708c1.42,1.67.29,4.2-.8,6.11a75.08,75.08,0,0,0-7.11,17.16,1.71,1.71,0,0,0,.09,1.58,1.77,1.77,0,0,0,1.55.33l12.69-1.36a1.12,1.12,0,0,0,.92-.42c.16-.3-.27-.77-.5-.51"/><path class="cls-10" d="M1410.7,709.22c3.63,11.8.43,25.23,5.71,36.39"/><path class="cls-10" d="M1436.24,729.92c-.18-.59-.89-.82-1.51-.85a5.89,5.89,0,0,0-4.66,2.31,10.39,10.39,0,0,0-2,4.94c-.35,2.09-.09,4.63,1.75,5.68s4.15,0,5.29-1.73a12.3,12.3,0,0,0,1.56-5.84c.16-1.66.11-3.73-1.37-4.5"/><path class="cls-10" d="M1436,729.72a29.18,29.18,0,0,0,4.84,10.13,9.15,9.15,0,0,0,3.25,3c2,1,4.41.57,6.62.16"/><path class="cls-10" d="M1344.25,781.47a1.54,1.54,0,0,0-1.51-.85,5.86,5.86,0,0,0-4.66,2.31,10.45,10.45,0,0,0-2,4.94c-.34,2.08-.08,4.63,1.75,5.68s4.15,0,5.29-1.73a12.3,12.3,0,0,0,1.56-5.84c.16-1.66.12-3.73-1.37-4.5"/><path class="cls-10" d="M1344,781.27a29,29,0,0,0,4.84,10.12,9.17,9.17,0,0,0,3.25,3c2,1,4.41.57,6.62.16"/><path class="cls-10" d="M1461.67,726.28a4.28,4.28,0,0,0-4-.17,7,7,0,0,0-3,2.75,9.46,9.46,0,0,0-1.15,7.68A8.15,8.15,0,0,0,1459,742a7.12,7.12,0,0,0,7.26-2.18"/><path class="cls-10" d="M1309.53,771.91a4.52,4.52,0,0,1,2.2-4.83,7.63,7.63,0,0,1,5.54-.65,6.33,6.33,0,0,1,4,2.39,5.77,5.77,0,0,1,.32,5.08,19.78,19.78,0,0,1-2.69,4.52,90.78,90.78,0,0,0-11.21,21.28l26.67-2.49"/><path class="cls-11" d="M48.13,263.53a33.55,33.55,0,0,0,9-.5"/><path class="cls-11" d="M44.34,255.37a48.86,48.86,0,0,0,13.82-.4"/><path class="cls-11" d="M69,259.29H295.84"/><path class="cls-11" d="M16.17,255.62a29.52,29.52,0,0,0,22.47,10.85"/><path class="cls-11" d="M27.64,253.58c.86,4.33-.9,8.86-3.67,12.3s-6.47,6-10.11,8.51"/><path class="cls-11" d="M79.91,245.5a28.94,28.94,0,0,1,10.92-.85"/><path class="cls-11" d="M99.94,245.73a30.07,30.07,0,0,0,5.4-12.39c.52-2.78.54-5.93-1.28-8.08-.77-.91-2.32-1.52-3.06-.59a2.45,2.45,0,0,0-.41,1.32c-.72,6.63-1.43,13.48.53,19.85,1.12,3.64,3.8,7.45,7.61,7.44a2.12,2.12,0,0,0,1.37-.39,2.51,2.51,0,0,0,.66-1.61,9.31,9.31,0,0,0-.86-6.19,5.78,5.78,0,0,0-8.57-.94"/><path class="cls-11" d="M164.48,245.73a30.07,30.07,0,0,0,5.4-12.39c.52-2.78.54-5.93-1.28-8.08-.77-.91-2.32-1.52-3.07-.59a2.53,2.53,0,0,0-.4,1.32c-.72,6.63-1.43,13.48.53,19.85,1.12,3.64,3.8,7.45,7.61,7.44a2.12,2.12,0,0,0,1.37-.39,2.51,2.51,0,0,0,.66-1.61c.28-2.11.27-4.39-.87-6.19a5.77,5.77,0,0,0-8.56-.94"/><path class="cls-11" d="M121.17,232.08A48,48,0,0,1,135,231.4"/><path class="cls-11" d="M127.2,223.76q.83,7.56,1.66,15.14"/><path class="cls-11" d="M123.58,246.37l14.71.39"/><path class="cls-11" d="M145.77,229.49a74.64,74.64,0,0,1,6.92,18.08l1.11-25.63c.06-1.41.21-3,1.32-3.89a5,5,0,0,1,2.9-.74c35.67-1.66,91.73-2.11,127.39-3.76"/><path class="cls-11" d="M179.43,227.52a3.54,3.54,0,0,1,5.61-4c2,1.78,1.36,5.14-.13,7.38s-3.65,4.12-4.47,6.68L192.51,236c.8-.11,1.84-1,1.17-1.45"/><path class="cls-11" d="M205.23,239.37c.3-1.24,1.93-1.5,3.21-1.48a104.87,104.87,0,0,1,16.77,1.6"/><path class="cls-11" d="M239.93,222.25c1.2,1.42.24,3.56-.68,5.17a63.75,63.75,0,0,0-6,14.52,1.43,1.43,0,0,0,.08,1.34,1.47,1.47,0,0,0,1.3.28l10.74-1.15a.92.92,0,0,0,.77-.35c.14-.26-.22-.66-.42-.44"/><path class="cls-11" d="M240.39,223.27c3.07,10,.36,21.35,4.83,30.79"/><path class="cls-11" d="M262,240.78c-.16-.5-.76-.69-1.29-.72a5,5,0,0,0-3.94,2,8.85,8.85,0,0,0-1.69,4.18c-.29,1.76-.07,3.92,1.48,4.8s3.51,0,4.48-1.46a10.44,10.44,0,0,0,1.32-4.94c.13-1.41.09-3.15-1.16-3.81"/><path class="cls-11" d="M261.78,240.61a24.43,24.43,0,0,0,4.1,8.57,7.72,7.72,0,0,0,2.75,2.52c1.72.81,3.73.48,5.6.13"/><path class="cls-11" d="M184.17,284.39c-.16-.5-.76-.69-1.28-.72a5,5,0,0,0-3.94,2,8.87,8.87,0,0,0-1.7,4.18c-.29,1.76-.07,3.92,1.49,4.8s3.51,0,4.47-1.46a10.32,10.32,0,0,0,1.32-4.94c.14-1.41.1-3.15-1.15-3.81"/><path class="cls-11" d="M184,284.23a24.62,24.62,0,0,0,4.09,8.56,7.8,7.8,0,0,0,2.75,2.52c1.72.81,3.73.48,5.6.13"/><path class="cls-11" d="M283.51,237.71a3.63,3.63,0,0,0-3.36-.15,5.87,5.87,0,0,0-2.54,2.32,8,8,0,0,0-1,6.5,6.89,6.89,0,0,0,4.59,4.61,6,6,0,0,0,6.14-1.84"/><path class="cls-11" d="M154.8,276.31a3.82,3.82,0,0,1,1.86-4.09,6.42,6.42,0,0,1,4.68-.54,5.23,5.23,0,0,1,3.36,2A4.88,4.88,0,0,1,165,278a16.65,16.65,0,0,1-2.28,3.82,76.75,76.75,0,0,0-9.48,18l22.56-2.11"/><path class="cls-12" d="M77.87,1069.11a34,34,0,0,1,12.77-1"/><path class="cls-12" d="M114,1071.83c-.66-5.18-7.1-8.25-11.11-4.3"/><path class="cls-12" d="M101.29,1069.38c4.44-7.12,11.45-19.12,2.44-25.12-5,9-3,19-.15,27.6"/><path class="cls-12" d="M189.5,1071.83c-.66-5.18-7.09-8.25-11.11-4.3"/><path class="cls-12" d="M176.77,1069.38c5-5.12,6-12.12,7-18.12,0-2-1-7-5-7-4,9-2,19,.25,27.6"/><path class="cls-12" d="M126.12,1053.42a55.55,55.55,0,0,1,16.12-.8"/><path class="cls-12" d="M133.17,1043.68q1,8.86,1.94,17.71"/><path class="cls-12" d="M128.94,1070.13l17.2.45"/><path class="cls-12" d="M154.89,1050.38a87.26,87.26,0,0,1,8.09,21.16l1.29-30c.08-1.66.25-3.53,1.56-4.55a5.85,5.85,0,0,1,3.39-.87c41.7-1.94,107.26-2.46,149-4.4"/><path class="cls-12" d="M194.25,1048.08a4.14,4.14,0,0,1,6.56-4.68c2.36,2.09,1.59,6-.15,8.64s-4.27,4.81-5.22,7.81l14.1-1.89c1-.12,2.16-1.16,1.37-1.69"/><path class="cls-12" d="M224.42,1062c.35-1.46,2.26-1.76,3.76-1.74a121.57,121.57,0,0,1,19.6,1.87"/><path class="cls-12" d="M265,1041.92c1.41,1.66.29,4.16-.79,6a74.13,74.13,0,0,0-7,17,1.67,1.67,0,0,0,.09,1.56,1.73,1.73,0,0,0,1.53.33l12.56-1.35c.34,0,.74-.1.9-.41s-.26-.76-.49-.5"/><path class="cls-12" d="M265.54,1043.12c2.86,9.35,1.42,19.29,3.33,28.79"/><path class="cls-12" d="M290.81,1063.59c-.18-.58-.89-.81-1.5-.84a5.82,5.82,0,0,0-4.61,2.29,10.24,10.24,0,0,0-2,4.89c-.34,2.06-.08,4.58,1.74,5.62s4.1,0,5.23-1.71,1.35-3.78,1.54-5.78c.16-1.65.11-3.69-1.35-4.45"/><path class="cls-12" d="M290.56,1063.4a28.71,28.71,0,0,0,3.78,8.57"/><path class="cls-12" d="M316,1060a4.23,4.23,0,0,0-3.93-.18,7,7,0,0,0-3,2.72,9.38,9.38,0,0,0-1.13,7.61,8,8,0,0,0,5.36,5.38,7.06,7.06,0,0,0,7.19-2.15"/><path class="cls-6" d="M932.27,287a38.53,38.53,0,0,0,9.79,2.63"/><path class="cls-6" d="M931.09,277a55.11,55.11,0,0,0,14.9,4.42"/><path class="cls-6" d="M956.05,289.84l242.22,79.61"/><path class="cls-6" d="M900.93,267.38a33.14,33.14,0,0,0,20.17,19.47"/><path class="cls-6" d="M913.89,269.22c-.61,4.93-4.08,9.14-8.25,11.85s-9,4.14-13.79,5.53"/><path class="cls-6" d="M972.54,278.94a32.54,32.54,0,0,1,12,2.92"/><path class="cls-6" d="M993.85,286.21A33.78,33.78,0,0,0,1004,274.88c1.53-2.78,2.66-6.14,1.48-9.08-.51-1.24-2-2.43-3.07-1.7a2.84,2.84,0,0,0-.9,1.27c-3.1,6.82-6.26,13.88-6.41,21.38-.09,4.27,1.43,9.28,5.5,10.61a2.35,2.35,0,0,0,1.61.06,2.8,2.8,0,0,0,1.27-1.49c1-2.14,1.83-4.58,1.25-6.9a6.5,6.5,0,0,0-8.82-4"/><path class="cls-6" d="M1062.77,308.86a33.78,33.78,0,0,0,10.13-11.33c1.52-2.78,2.66-6.14,1.47-9.08-.5-1.24-1.94-2.43-3.07-1.7a2.83,2.83,0,0,0-.89,1.27c-3.11,6.82-6.27,13.89-6.42,21.38-.08,4.27,1.44,9.28,5.51,10.61a2.33,2.33,0,0,0,1.6.06,2.76,2.76,0,0,0,1.27-1.49c1.05-2.14,1.84-4.58,1.26-6.9a6.5,6.5,0,0,0-8.82-4"/><path class="cls-6" d="M1021.32,279.09a54.13,54.13,0,0,1,15,4.11"/><path class="cls-6" d="M1030.69,272.32q-1.79,8.37-3.55,16.75"/><path class="cls-6" d="M1018.87,295.2l15.58,5.57"/><path class="cls-6" d="M1048.51,285a83.9,83.9,0,0,1,1,21.75l10.2-27c.56-1.49,1.29-3.14,2.78-3.68a5.55,5.55,0,0,1,3.36.22c38.67,10.74,98.69,29.94,137.35,40.69"/><path class="cls-6" d="M1085.14,294.67a4,4,0,0,1,7.39-2.31c1.53,2.61-.35,6-2.73,7.84s-5.34,3.12-7.12,5.57l13.45,2.51c.9.16,2.32-.42,1.76-1.14"/><path class="cls-6" d="M1108.52,316.38c.76-1.22,2.59-.93,4-.46a117.7,117.7,0,0,1,17.34,7.59"/><path class="cls-6" d="M1151.59,310.27c.79,1.94-1,3.88-2.54,5.29A71.56,71.56,0,0,0,1137.52,329a1.65,1.65,0,0,0-.38,1.46c.2.48.79.65,1.3.76l11.87,2.53a1,1,0,0,0,1-.1c.24-.23,0-.77-.3-.61"/><path class="cls-6" d="M1151.72,311.53c-.23,11.73-7.11,22.92-5.66,34.57"/><path class="cls-6" d="M1168.64,337.81c0-.59-.56-1-1.11-1.22a5.6,5.6,0,0,0-4.9.7,9.94,9.94,0,0,0-3.28,3.87c-.93,1.78-1.45,4.16-.1,5.65s3.75,1.2,5.29,0a11.77,11.77,0,0,0,3.15-4.81c.63-1.45,1.21-3.33.1-4.47"/><path class="cls-6" d="M1168.47,337.55a27.78,27.78,0,0,0,1.36,10.59,8.74,8.74,0,0,0,2.05,3.65c1.56,1.47,3.82,1.82,5.94,2.11"/><path class="cls-6" d="M1070.2,357.06c0-.59-.56-1-1.12-1.22a5.58,5.58,0,0,0-4.89.71,9.94,9.94,0,0,0-3.28,3.87c-.93,1.78-1.45,4.16-.1,5.65s3.75,1.2,5.29,0a11.8,11.8,0,0,0,3.15-4.82c.63-1.45,1.21-3.33.1-4.46"/><path class="cls-6" d="M1070,356.81a27.71,27.71,0,0,0,1.36,10.58,8.78,8.78,0,0,0,2,3.66c1.55,1.46,3.82,1.82,5.94,2.1"/><path class="cls-6" d="M1192.7,342.07a4.12,4.12,0,0,0-3.54-1.34,6.68,6.68,0,0,0-3.53,1.6,9,9,0,0,0-3.32,6.6,7.75,7.75,0,0,0,3.28,6.53,6.8,6.8,0,0,0,7.21.19"/><path class="cls-6" d="M1041.68,338.12a4.27,4.27,0,0,1,3.42-3.71,7.24,7.24,0,0,1,5.19,1.06,6,6,0,0,1,2.89,3.33,5.51,5.51,0,0,1-1.22,4.69,18.28,18.28,0,0,1-3.78,3.28,87,87,0,0,0-16.46,15.9l24.84,5.67"/><path class="cls-6" d="M1820.72,74.85a104.22,104.22,0,0,1,9.65,25.22q.78-17.86,1.54-35.74c.09-2,.3-4.2,1.85-5.42,1.12-.87,4.09.37,4-1,0,0,77.24-2.36,77.25-2.31"/><path class="cls-6" d="M1898.08,88c-.21-.7-1-1-1.78-1a6.93,6.93,0,0,0-5.5,2.72,12.38,12.38,0,0,0-2.36,5.83c-.4,2.46-.1,5.47,2.07,6.7s4.89,0,6.24-2,1.61-4.5,1.84-6.89c.19-2,.13-4.39-1.61-5.3"/><path class="cls-6" d="M1897.79,87.73a34.14,34.14,0,0,0,5.71,11.94,10.82,10.82,0,0,0,3.83,3.51c2.4,1.13,5.2.67,7.81.18"/><path class="cls-6" d="M1857.13,76.68a5.33,5.33,0,0,1,2.59-5.7,9,9,0,0,1,6.53-.75,7.35,7.35,0,0,1,4.69,2.81,6.8,6.8,0,0,1,.39,6,23.28,23.28,0,0,1-3.18,5.33,108,108,0,0,0-13.23,25.11l31.47-2.94"/><g class="cls-13"><path class="cls-6" d="M430.08,679.89a104.69,104.69,0,0,1,20.51,17.58L434.9,665.31c-.86-1.77-1.74-3.83-.95-5.64.56-1.3,3.77-1.62,3.06-2.84,0,0,66.79-38.83,66.81-38.79"/><path class="cls-6" d="M504.35,654.6a1.84,1.84,0,0,0-2.05,0,6.93,6.93,0,0,0-3.53,5,12.37,12.37,0,0,0,.7,6.25c.82,2.36,2.52,4.85,5,4.91s4.28-2.37,4.51-4.76-.73-4.73-1.67-6.94c-.77-1.81-2-3.93-3.95-3.9"/><path class="cls-6" d="M504,654.54a34.16,34.16,0,0,0,10.71,7.78,10.87,10.87,0,0,0,5,1.27c2.64-.15,4.89-1.89,7-3.56"/><path class="cls-6" d="M463,664.18a5.33,5.33,0,0,1-.43-6.25,9,9,0,0,1,5.37-3.77,7.37,7.37,0,0,1,5.47.24,6.8,6.8,0,0,1,3.2,5.08,23.06,23.06,0,0,1-.25,6.2,107.36,107.36,0,0,0,.34,28.37l26.26-17.55"/></g><path class="cls-6" d="M700.63,355.1a103.65,103.65,0,0,1,9.65,25.22q.78-17.86,1.54-35.74c.09-2,.3-4.2,1.86-5.42,1.11-.87,4.08.37,4-1,0,0,77.25-2.36,77.25-2.31"/><path class="cls-6" d="M739.54,398.44c5.36-9.75,10.54-20.52,8.88-31.51-.56-3.69-2.08-7.5-5.23-9.5s-8.14-1.21-9.57,2.23c-1.76,4.23,2.83,8.66,7.35,9.4,2.52.41,5.75-.32,6.37-2.79"/><path class="cls-6" d="M1653.41,400a104.29,104.29,0,0,1,9.65,25.23q.76-17.88,1.54-35.75c.09-2,.3-4.2,1.85-5.42,1.12-.87,4.09.38,4-1,0,0,77.24-2.35,77.24-2.31"/><path class="cls-6" d="M1692.32,443.38c5.36-9.74,10.53-20.52,8.87-31.51-.55-3.68-2.08-7.5-5.23-9.49s-8.14-1.22-9.57,2.22c-1.75,4.23,2.83,8.66,7.36,9.4,2.52.41,5.75-.31,6.37-2.78"/><path class="cls-14" d="M576.12,601.46A192.23,192.23,0,0,1,593.9,648q1.43-32.94,2.84-65.88c.16-3.63.55-7.74,3.41-10,2.06-1.61,7.54.69,7.46-1.92,0-.07,142.36-4.34,142.36-4.26"/><path class="cls-14" d="M647.82,681.33c9.88-18,19.42-37.81,16.36-58.07-1-6.8-3.83-13.82-9.64-17.5s-15-2.24-17.63,4.1c-3.24,7.8,5.21,16,13.55,17.33,4.64.75,10.6-.58,11.73-5.14"/><path class="cls-6" d="M1290.83,883.87a104.19,104.19,0,0,1,9.64,25.22q.78-17.87,1.55-35.74c.08-2,.29-4.2,1.85-5.42,1.11-.87,4.08.37,4-1,0,0,77.25-2.36,77.25-2.31"/><path class="cls-6" d="M1329.73,927.21c5.36-9.75,10.54-20.52,8.88-31.51-.56-3.69-2.08-7.5-5.23-9.5s-8.14-1.21-9.57,2.23c-1.76,4.23,2.83,8.66,7.35,9.4,2.52.41,5.75-.31,6.37-2.79"/><g class="cls-13"><path class="cls-6" d="M1544.9,294.29a104.63,104.63,0,0,1,9.65,25.22q.77-17.86,1.54-35.74c.09-2,.3-4.2,1.85-5.42,1.12-.87,4.09.37,4-1,0,0,77.24-2.36,77.24-2.31"/><path class="cls-6" d="M1583.81,337.63c5.36-9.75,10.53-20.52,8.87-31.51-.55-3.69-2.08-7.5-5.23-9.5s-8.14-1.21-9.57,2.23c-1.75,4.23,2.83,8.66,7.36,9.4,2.51.41,5.75-.31,6.36-2.79"/></g><g class="cls-13"><path class="cls-6" d="M52.22,807.2a104,104,0,0,1,9.64,25.22q.78-17.86,1.55-35.74c.08-2,.29-4.2,1.85-5.42,1.11-.87,4.08.37,4-1,0-.05,77.25-2.36,77.25-2.32"/><path class="cls-6" d="M91.12,850.53C96.48,840.79,101.66,830,100,819c-.56-3.68-2.08-7.49-5.23-9.49s-8.14-1.22-9.57,2.23c-1.76,4.23,2.83,8.66,7.35,9.4,2.52.41,5.75-.32,6.37-2.79"/></g><path class="cls-6" d="M1348.33,1002.27a41.12,41.12,0,0,0,31.32,15.13"/><path class="cls-6" d="M1364.31,999.43c1.2,6-1.25,12.35-5.11,17.15s-9,8.37-14.1,11.86"/><path class="cls-6" d="M649.29,473.63c-.36.3-.37-.73.08-.61s.52.73.5,1.2a17.58,17.58,0,0,0,.78,7.15,7.06,7.06,0,0,0,5.17,4.61c3.21.49,6.23-2.14,7.32-5.2s.74-6.41.36-9.64l3.69,32.52a25.45,25.45,0,0,1,.07,7.79,12.68,12.68,0,0,1-2.23,5c-1.6,2.16-4.33,3.86-6.92,3.12-2.38-.67-3.82-3.18-4.2-5.63-.67-4.36,1.25-8.7,3.46-12.52A73.77,73.77,0,0,1,676.17,480"/><path class="cls-6" d="M676.11,460.75a4.93,4.93,0,0,1,7.81-5.58c2.82,2.49,1.91,7.18-.17,10.31s-5.09,5.73-6.23,9.31l16.82-2.25c1.12-.15,2.57-1.4,1.63-2"/><path class="cls-15" d="M25.29,51.76c-.72.58-.74-1.44.15-1.2s1,1.43,1,2.35C26.21,57.66,26.25,62.55,28,67s5.45,8.36,10.15,9.07c6.32,1,12.27-4.21,14.42-10.22s1.44-12.63.7-19l7.26,64c.58,5.11,1.15,10.31.14,15.34A24.81,24.81,0,0,1,56.25,136c-3.16,4.25-8.51,7.59-13.61,6.15-4.69-1.32-7.52-6.27-8.26-11.08-1.31-8.59,2.45-17.11,6.8-24.64a144.89,144.89,0,0,1,37-42.2"/><path class="cls-15" d="M78.05,26.43a10,10,0,0,1,3.31-11.6,10,10,0,0,1,12.06.62c5.54,4.89,3.74,14.11-.34,20.26S83.06,47,80.83,54l33.08-4.44c2.21-.29,5.06-2.73,3.21-4"/><path class="cls-16" d="M1810.07,295.16c-.78.32-.28-1.45.44-1s.53,1.5.26,2.3c-1.37,4.11-2.56,8.4-2.17,12.71s2.68,8.69,6.63,10.49c5.29,2.42,11.8-.62,15.19-5.35s4.43-10.7,5.37-16.45q-4.85,28.93-9.67,57.87c-.78,4.61-1.58,9.31-3.73,13.47a22.62,22.62,0,0,1-6.3,7.52c-3.84,2.93-9.36,4.52-13.47,2-3.78-2.33-5-7.37-4.46-11.78,1-7.85,6.44-14.38,12.13-19.88a132.34,132.34,0,0,1,43-27.73"/><path class="cls-16" d="M1862.65,286.16a8.84,8.84,0,0,1,16.22-5.78c3.63,5.67-.26,13.3-5.38,17.67s-11.6,7.39-15.33,13l30.1,4.39c2,.3,5.12-1.13,3.81-2.68"/><path class="cls-16" d="M275,921.75c-.78.33-.28-1.45.44-1s.53,1.51.26,2.3c-1.37,4.11-2.56,8.4-2.17,12.72s2.68,8.68,6.63,10.48c5.29,2.43,11.8-.62,15.19-5.35s4.43-10.7,5.37-16.44q-4.85,28.93-9.67,57.86c-.78,4.61-1.58,9.31-3.73,13.47a22.42,22.42,0,0,1-6.3,7.52c-3.84,2.94-9.36,4.52-13.47,2-3.78-2.33-5-7.37-4.46-11.77,1-7.86,6.44-14.38,12.13-19.89a132.34,132.34,0,0,1,43-27.73"/><path class="cls-16" d="M327.62,912.75A8.84,8.84,0,0,1,343.84,907c3.63,5.67-.26,13.3-5.38,17.68s-11.6,7.38-15.33,13l30.1,4.39c2,.29,5.12-1.14,3.81-2.69"/><path class="cls-6" d="M1611.87,34.85a193.93,193.93,0,0,1,3.29,42.34"/><path class="cls-6" d="M1634.37,54.12c1.37-1.54,3.7-1.65,5.77-1.65l30.63.07"/><path class="cls-6" d="M1647.73,37.57a118.59,118.59,0,0,1,6.16,31.65"/><path class="cls-6" d="M1684.45,42.55a41.12,41.12,0,0,0,31.32,15.13"/><path class="cls-6" d="M1700.43,39.71c1.2,6-1.25,12.35-5.12,17.15s-9,8.37-14.09,11.86"/><path class="cls-6" d="M1596.23,17.52c-8.85,11.65-10,27.29-9.84,41.91.15,13.13,1.88,27.85,12.11,36.08"/><path class="cls-6" d="M1712.27,18.18a76,76,0,0,1,16.41,42.6c.56,9.36-1.09,19.7-8.14,25.89"/><path class="cls-6" d="M1732.11,13.94a5.06,5.06,0,0,1,1.68-5.89,5.08,5.08,0,0,1,6.13.31c2.81,2.49,1.9,7.17-.17,10.3s-5.1,5.74-6.23,9.32l16.81-2.26c1.13-.15,2.58-1.39,1.63-2"/><path class="cls-6" d="M262.79,407a193.08,193.08,0,0,1-16.47,39.15"/><path class="cls-6" d="M274,434.41c1.93-.75,4,.22,5.88,1.17l27.21,14.06"/><path class="cls-6" d="M293.44,425.8a118.91,118.91,0,0,1-9,30.95"/><path class="cls-6" d="M323.79,447a41.09,41.09,0,0,0,20.92,27.77"/><path class="cls-6" d="M339.31,451.8c-1.7,5.92-6.78,10.41-12.41,12.91s-11.85,3.32-18,4.1"/><path class="cls-6" d="M256.83,384.43c-13.21,6.3-21.4,19.68-27.95,32.76-5.88,11.74-11.1,25.62-5.76,37.61"/><path class="cls-6" d="M359.7,438.08a75.93,75.93,0,0,1-4.94,45.38c-3.78,8.57-10,17-19.09,19.29"/><path class="cls-6" d="M379.28,443.38a4.93,4.93,0,0,1,9.5-1.39c1.36,3.5-1.6,7.25-4.87,9.08s-7.16,2.77-9.81,5.43l16,5.69c1.07.38,2.93-.06,2.38-1.05"/><g class="cls-13"><path class="cls-6" d="M561.86,354.11a193,193,0,0,1-16.48,39.14"/><path class="cls-6" d="M573,381.53c1.92-.74,4.05.23,5.88,1.17l27.2,14.06"/><path class="cls-6" d="M592.5,372.92a118.6,118.6,0,0,1-9,31"/><path class="cls-6" d="M622.86,394.15a41.07,41.07,0,0,0,20.91,27.77"/><path class="cls-6" d="M638.37,398.93c-1.7,5.92-6.77,10.4-12.4,12.9s-11.86,3.32-18,4.1"/><path class="cls-6" d="M555.9,331.55c-13.21,6.31-21.4,19.68-28,32.76-5.88,11.74-11.09,25.62-5.75,37.61"/><path class="cls-6" d="M658.77,385.2a75.93,75.93,0,0,1-4.94,45.38c-3.79,8.57-10,17-19.1,19.29"/><path class="cls-6" d="M678.34,390.5a4.93,4.93,0,0,1,9.51-1.38c1.36,3.49-1.6,7.24-4.88,9.07s-7.15,2.78-9.8,5.44l16,5.68c1.07.38,2.92-.06,2.38-1.05"/></g><g class="cls-13"><path class="cls-6" d="M1556.61,947A193.21,193.21,0,0,1,1571.09,987"/><path class="cls-6" d="M1583.45,959.6c.91-1.85,3.13-2.58,5.12-3.13l29.53-8.1"/><path class="cls-6" d="M1591.91,940.08A118.93,118.93,0,0,1,1606.29,969"/><path class="cls-6" d="M1628.62,935.11a41.14,41.14,0,0,0,34.22,6.23"/><path class="cls-6" d="M1643.27,928.11c2.77,5.5,2.08,12.23-.36,17.89s-6.45,10.47-10.42,15.19"/><path class="cls-6" d="M1536.92,934.49c-5.43,13.58-2.36,29,1.7,43,3.65,12.61,9.25,26.34,21.31,31.54"/><path class="cls-6" d="M1648.93,904.2a76,76,0,0,1,27.19,36.69c3,8.87,4.2,19.28-.93,27.12"/><path class="cls-6" d="M1666.92,894.84a4.92,4.92,0,0,1,6-7.46c3.37,1.64,3.74,6.4,2.58,10s-3.38,6.89-3.52,10.64l15.61-6.66c1-.44,2.11-2,1-2.38"/></g><g class="cls-13"><path class="cls-6" d="M1524.85,175A192.8,192.8,0,0,1,1539.33,215"/><path class="cls-6" d="M1551.69,187.59c.91-1.85,3.13-2.58,5.12-3.12l29.53-8.1"/><path class="cls-6" d="M1560.15,168.08a119,119,0,0,1,14.38,28.86"/><path class="cls-6" d="M1596.86,163.1a41.14,41.14,0,0,0,34.22,6.24"/><path class="cls-6" d="M1611.51,156.1c2.77,5.51,2.09,12.24-.35,17.9s-6.46,10.46-10.42,15.18"/><path class="cls-6" d="M1505.16,162.48c-5.42,13.59-2.36,29,1.7,43,3.65,12.61,9.25,26.34,21.31,31.54"/><path class="cls-6" d="M1617.17,132.2a76,76,0,0,1,27.19,36.69c3,8.86,4.21,19.27-.93,27.11"/><path class="cls-6" d="M1635.16,122.83a4.92,4.92,0,0,1,6-7.46c3.37,1.65,3.74,6.41,2.58,10s-3.38,6.89-3.52,10.64l15.61-6.65c1-.45,2.11-2,1-2.39"/></g><g class="cls-13"><path class="cls-6" d="M1298.12,195.23a194.08,194.08,0,0,1-40.29,13.53"/><path class="cls-6" d="M1284.91,221.74c1.84.95,2.51,3.18,3,5.18q3.7,14.85,7.42,29.69"/><path class="cls-6" d="M1304.25,230.64A119.18,119.18,0,0,1,1275,244.33"/><path class="cls-6" d="M1308.37,267.42a41,41,0,0,0-7,34"/><path class="cls-6" d="M1315,282.21c-5.58,2.64-12.3,1.8-17.9-.77s-10.33-6.69-15-10.76"/><path class="cls-6" d="M1311.13,175.85c-13.47-5.73-28.94-3-43.09.7-12.7,3.35-26.58,8.62-32.06,20.55"/><path class="cls-6" d="M1338.83,288.42a76,76,0,0,1-37.35,26.3c-9,2.83-19.39,3.75-27.12-1.56"/><path class="cls-6" d="M1347.78,306.6a4.93,4.93,0,0,1,7.33,6.21c-1.73,3.33-6.5,3.59-10,2.35s-6.82-3.54-10.57-3.76l6.3,15.74c.42,1.05,2,2.15,2.36,1.08"/></g><g class="cls-13"><path class="cls-6" d="M778.51,590.1A193.58,193.58,0,0,1,793,630"/><path class="cls-6" d="M805.35,602.68c.91-1.85,3.12-2.58,5.12-3.13l29.53-8.1"/><path class="cls-6" d="M813.8,583.16A118.6,118.6,0,0,1,828.19,612"/><path class="cls-6" d="M850.52,578.19a41.14,41.14,0,0,0,34.22,6.23"/><path class="cls-6" d="M865.17,571.19c2.76,5.5,2.08,12.23-.36,17.89s-6.45,10.47-10.42,15.19"/><path class="cls-6" d="M758.82,577.57c-5.43,13.58-2.36,29,1.7,43,3.65,12.61,9.25,26.34,21.31,31.54"/><path class="cls-6" d="M870.83,547.28A76,76,0,0,1,898,584c3,8.87,4.2,19.28-.94,27.12"/><path class="cls-6" d="M888.81,537.92a4.92,4.92,0,0,1,6-7.46c3.38,1.64,3.75,6.4,2.59,10s-3.38,6.89-3.52,10.64l15.61-6.66c1-.44,2.1-2,1-2.38"/></g><g class="cls-13"><path class="cls-6" d="M940.32,1009.78a193.08,193.08,0,0,1-16.47,39.15"/><path class="cls-6" d="M951.5,1037.21c1.93-.75,4,.22,5.89,1.17l27.2,14.06"/><path class="cls-6" d="M971,1028.6a118.91,118.91,0,0,1-9,31"/><path class="cls-6" d="M1001.32,1049.82a41.14,41.14,0,0,0,13.11,22.4"/><path class="cls-6" d="M1016.84,1054.6c-1.7,5.92-6.78,10.41-12.41,12.91s-11.85,3.32-18,4.1"/><path class="cls-6" d="M934.36,987.23c-13.21,6.3-21.4,19.68-28,32.76-5.88,11.73-11.09,25.62-5.76,37.61"/><path class="cls-6" d="M1037.23,1040.87a75.66,75.66,0,0,1-.29,31.11"/><path class="cls-6" d="M1056.81,1046.18a4.93,4.93,0,0,1,9.5-1.39c1.36,3.5-1.59,7.25-4.87,9.08s-7.16,2.77-9.81,5.43l16,5.69c1.07.38,2.93-.06,2.38-1"/></g><g class="cls-13"><path class="cls-6" d="M548.34,582.14A192.45,192.45,0,0,1,561,622.68"/><path class="cls-6" d="M574.59,595.91c1-1.81,3.24-2.44,5.25-2.9l29.87-6.77"/><path class="cls-6" d="M583.91,576.79A118.39,118.39,0,0,1,597,606.27"/><path class="cls-6" d="M620.81,573.46a41.14,41.14,0,0,0,33.91,7.76"/><path class="cls-6" d="M635.76,567.12c2.52,5.63,1.54,12.32-1.16,17.86s-6.92,10.17-11.09,14.71"/><path class="cls-6" d="M529.23,568.74c-6,13.32-3.66,28.83-.23,43,3.08,12.76,8.06,26.73,19.87,32.46"/><path class="cls-6" d="M642.49,543.49A76,76,0,0,1,668,581.37c2.64,9,3.34,19.44-2.14,27"/><path class="cls-6" d="M660.88,534.94a4.92,4.92,0,0,1,6.37-7.18c3.3,1.8,3.45,6.57,2.13,10.08s-3.68,6.73-4,10.47l15.89-5.95c1.06-.4,2.19-1.93,1.13-2.33"/></g><path class="cls-6" d="M123.13,717.93a193.23,193.23,0,0,1-8.28,41.65"/><path class="cls-6" d="M139.59,742.56c1.73-1.12,4-.59,6,0l29.47,8.33"/><path class="cls-6" d="M156.93,730.23a118.39,118.39,0,0,1-2.64,32.13"/><path class="cls-6" d="M190.93,744.94A41.08,41.08,0,0,0,217,768"/><path class="cls-6" d="M207.09,746.52c-.48,6.14-4.55,11.55-9.57,15.13s-11,5.62-16.78,7.61"/><path class="cls-6" d="M112.77,697c-11.68,8.83-17,23.57-20.81,37.7-3.41,12.67-5.73,27.32,1.9,38"/><path class="cls-6" d="M224.32,729a76,76,0,0,1,4.26,45.45c-2,9.15-6.38,18.67-14.84,22.72"/><path class="cls-6" d="M244.56,730.27a4.93,4.93,0,0,1,9-3.27c2,3.16-.11,7.42-3,9.87s-6.45,4.15-8.51,7.29l16.8,2.37c1.12.16,2.85-.64,2.11-1.51"/><path class="cls-6" d="M673.52,732.35a5.31,5.31,0,0,1,2.59-5.69,8.94,8.94,0,0,1,6.53-.76,7.4,7.4,0,0,1,4.7,2.81,6.84,6.84,0,0,1,.38,6,22.93,22.93,0,0,1-3.18,5.33,107.64,107.64,0,0,0-13.22,25.11l31.46-2.94"/><path class="cls-6" d="M1803.21,685.14c-.37.29-.37-.73.08-.61s.52.73.5,1.2a17.59,17.59,0,0,0,.78,7.15,7.06,7.06,0,0,0,5.16,4.61c3.22.49,6.24-2.14,7.33-5.2s.73-6.42.36-9.64l3.69,32.51a25.51,25.51,0,0,1,.07,7.8,12.68,12.68,0,0,1-2.23,5c-1.61,2.16-4.33,3.86-6.92,3.12-2.38-.67-3.82-3.18-4.2-5.63-.67-4.37,1.25-8.7,3.46-12.52a73.62,73.62,0,0,1,18.8-21.46"/><path class="cls-6" d="M1766.57,668.9a5.33,5.33,0,0,1,2.59-5.7,9,9,0,0,1,6.53-.76,7.4,7.4,0,0,1,4.69,2.82,6.77,6.77,0,0,1,.38,6,22.89,22.89,0,0,1-3.17,5.33,108,108,0,0,0-13.23,25.1l31.47-2.93"/><path class="cls-17" d="M967.59,161.78c-.53.43-.54-1.07.12-.89s.76,1.07.73,1.75c-.16,3.54-.13,7.18,1.15,10.48s4.06,6.23,7.57,6.76c4.71.72,9.14-3.14,10.74-7.62s1.07-9.4.52-14.13q2.7,23.84,5.41,47.66c.43,3.8.86,7.68.1,11.43a18.43,18.43,0,0,1-3.26,7.33c-2.36,3.16-6.34,5.65-10.14,4.58-3.5-1-5.61-4.67-6.16-8.26-1-6.4,1.83-12.75,5.07-18.36A108.11,108.11,0,0,1,1007,171.06"/><path class="cls-17" d="M913.89,138c-.89-3.17,1-6.66,3.79-8.35a13.25,13.25,0,0,1,9.57-1.12c2.68.59,5.37,1.84,6.88,4.13,1.68,2.54,1.6,5.92.56,8.78a33.94,33.94,0,0,1-4.65,7.82A157.67,157.67,0,0,0,910.65,186l46.12-4.3"/><path class="cls-6" d="M1500.15,887.28c-.17.44-.69-.44-.24-.56s.82.36,1,.78a17.68,17.68,0,0,0,4.28,5.78,7.06,7.06,0,0,0,6.79,1.39c3-1.19,4.31-5,3.71-8.17s-2.6-5.91-4.55-8.51l19.57,26.24a25,25,0,0,1,4,6.7,12.57,12.57,0,0,1,.6,5.44c-.3,2.68-1.8,5.51-4.41,6.18-2.4.62-4.91-.83-6.46-2.76-2.78-3.43-3.31-8.14-3.32-12.56a73.43,73.43,0,0,1,5.44-28"/><path class="cls-6" d="M1460.31,891.66a5.29,5.29,0,0,1-.63-6.22,9,9,0,0,1,5.25-3.94,7.41,7.41,0,0,1,5.48.07,6.81,6.81,0,0,1,3.34,5,22.6,22.6,0,0,1,0,6.2,107.65,107.65,0,0,0,1.21,28.34l25.71-18.35"/><path class="cls-6" d="M1881.19,1071.88a73.8,73.8,0,0,1,5.32-23.43"/><path class="cls-6" d="M1860.09,1056.49c-.88-.87.41-.07,1.05.71,1.06,1.28,1.63,2.91,2.81,4.15,2.14,2.27,5.62,3.89,8.61,2.23,6.66-3.69,1.67-12.26-1.45-16.38q9.17,12.27,18.32,24.56"/><path class="cls-6" d="M1820.24,1060.87c-5.46-5.46,4.81-12.73,10.11-10.09,3.21,1.6,3.64,5.53,3.5,8.7-.2,4.22-.66,8.4-.64,12.64"/><path class="cls-6" d="M52.46,361.16c-.17.43-.69-.45-.24-.57s.81.37,1,.78a17.43,17.43,0,0,0,4.28,5.78,7.08,7.08,0,0,0,6.78,1.4c3-1.2,4.31-5,3.72-8.18s-2.6-5.91-4.55-8.51L83.05,378.1a25.21,25.21,0,0,1,4,6.7,12.62,12.62,0,0,1,.6,5.45c-.3,2.67-1.8,5.5-4.41,6.17-2.4.62-4.91-.83-6.47-2.75-2.77-3.44-3.3-8.15-3.32-12.56a73.55,73.55,0,0,1,5.45-28"/><path class="cls-6" d="M12.61,365.54a5.34,5.34,0,0,1-.63-6.23,9.09,9.09,0,0,1,5.26-3.94,7.41,7.41,0,0,1,5.48.08,6.79,6.79,0,0,1,3.34,5,23,23,0,0,1,0,6.2A107.72,107.72,0,0,0,27.22,395l25.71-18.35"/><path class="cls-6" d="M1575.53,779.5c2.78,4.52-1.35,11.47,2.34,15.29,1.23,1.28,3,1.79,4.65,2.57a13.58,13.58,0,0,1,1.61,23.48c-3.88,2.6-10,2.56-12.46-1.43"/><path class="cls-6" d="M1572.86,780.77l22.92.67"/><path class="cls-6" d="M1273.82,7.56c2.78,4.52-1.35,11.48,2.33,15.29,1.24,1.29,3,1.79,4.65,2.57a13.58,13.58,0,0,1,1.62,23.48c-3.88,2.6-10,2.56-12.46-1.43"/><path class="cls-6" d="M1271.15,8.83l22.92.67"/><path class="cls-6" d="M1486,381a41.12,41.12,0,0,0,31.32,15.12"/><path class="cls-6" d="M1501.94,378.12c1.19,6-1.26,12.35-5.12,17.15s-9,8.37-14.1,11.86"/><path class="cls-6" d="M1372.15,383.61a41.12,41.12,0,0,0,31.32,15.13"/><path class="cls-6" d="M1388.13,380.77c1.2,6-1.25,12.34-5.12,17.15s-9,8.36-14.09,11.86"/><path class="cls-6" d="M1443.68,372.79a5.33,5.33,0,0,1,2.59-5.7,9,9,0,0,1,6.53-.76,7.45,7.45,0,0,1,4.7,2.82,6.83,6.83,0,0,1,.38,6,22.89,22.89,0,0,1-3.17,5.33,107,107,0,0,0-13.23,25.1l31.46-2.93"/><path class="cls-6" d="M1411.92,452.11a5.32,5.32,0,0,1,2.6-5.7,9,9,0,0,1,6.52-.76,7.37,7.37,0,0,1,4.7,2.81,6.84,6.84,0,0,1,.38,6,22.89,22.89,0,0,1-3.17,5.33,107.29,107.29,0,0,0-13.23,25.11l31.46-2.94"/><path class="cls-6" d="M1412.3,387.57a159.14,159.14,0,0,1,24.69-1"/><path class="cls-6" d="M1317.87,425.38c60.72.73,160.35-2.79,220.59-10.53"/><path class="cls-6" d="M1340,367.06c2.78,4.51-1.34,11.47,2.34,15.29,1.23,1.28,3,1.79,4.65,2.57a13.58,13.58,0,0,1,1.61,23.48c-3.88,2.6-10,2.56-12.46-1.43"/><path class="cls-6" d="M1337.31,368.33l22.92.67"/><path class="cls-6" d="M1390.25,448.13c1.53.65,1.76,2.69,1.76,4.35l0,31.86"/><path class="cls-6" d="M1216,952a41.12,41.12,0,0,0,31.32,15.13"/><path class="cls-6" d="M1232,949.19c1.2,6-1.25,12.35-5.11,17.16s-9,8.36-14.1,11.86"/><path class="cls-6" d="M1102.19,954.69a41.17,41.17,0,0,0,31.32,15.12"/><path class="cls-6" d="M1118.18,951.84c1.2,6-1.26,12.35-5.12,17.15s-9,8.37-14.1,11.86"/><path class="cls-6" d="M1173.73,943.86a5.33,5.33,0,0,1,2.59-5.7,9,9,0,0,1,6.53-.75,7.35,7.35,0,0,1,4.69,2.81,6.8,6.8,0,0,1,.39,6,23.28,23.28,0,0,1-3.18,5.33,107.85,107.85,0,0,0-13.23,25.11l31.47-2.94"/><path class="cls-6" d="M1142,1023.18a5.33,5.33,0,0,1,2.59-5.7,9,9,0,0,1,6.53-.76,7.39,7.39,0,0,1,4.69,2.81,6.81,6.81,0,0,1,.39,6,23.34,23.34,0,0,1-3.18,5.34,107.37,107.37,0,0,0-13.22,25.1l31.46-2.93"/><path class="cls-6" d="M1142.35,958.65a157.74,157.74,0,0,1,24.68-1"/><path class="cls-6" d="M1047.92,996.45c60.72.73,160.35-2.79,220.58-10.53"/><path class="cls-6" d="M1070,938.13c2.78,4.52-1.35,11.48,2.33,15.29,1.24,1.29,3.05,1.79,4.65,2.57a13.58,13.58,0,0,1,1.62,23.48c-3.88,2.6-10,2.56-12.46-1.43"/><path class="cls-6" d="M1067.36,939.4l22.92.67"/><path class="cls-6" d="M1120.29,1019.21c1.54.65,1.77,2.68,1.77,4.35l0,31.86"/><g class="cls-13"><path class="cls-6" d="M542.32,987.82a41.12,41.12,0,0,0,24.21,25"/><path class="cls-6" d="M558.31,990.63c-.95,6.09-5.43,11.17-10.71,14.35s-11.35,4.76-17.32,6.3"/><path class="cls-6" d="M434.54,951.22a41.12,41.12,0,0,0,24.21,25"/><path class="cls-6" d="M450.53,954c-.95,6.09-5.43,11.17-10.7,14.35s-11.35,4.76-17.32,6.3"/><path class="cls-6" d="M505.44,965.62a5.33,5.33,0,0,1,4.4-4.46,9,9,0,0,1,6.39,1.53,7.39,7.39,0,0,1,3.44,4.25,6.82,6.82,0,0,1-1.7,5.76,23.43,23.43,0,0,1-4.82,3.92,107.93,107.93,0,0,0-21.06,19l30.56,8.05"/><path class="cls-6" d="M448.32,1029.2a5.33,5.33,0,0,1,4.4-4.46,8.94,8.94,0,0,1,6.39,1.53,7.33,7.33,0,0,1,3.44,4.25,6.83,6.83,0,0,1-1.7,5.76,22.81,22.81,0,0,1-4.82,3.91,107.67,107.67,0,0,0-21.06,19l30.56,8"/><path class="cls-6" d="M470.89,968.73a157.8,157.8,0,0,1,23.53,7.5"/><path class="cls-6" d="M369.2,971.8C426,993.34,520.74,1024.25,580,1037.67"/><path class="cls-6" d="M410,924.63c1,5.19-5.22,10.31-3.07,15.16.72,1.63,2.24,2.72,3.48,4a13.58,13.58,0,0,1-6.56,22.6c-4.54,1.11-10.3-1-11.21-5.62"/><path class="cls-6" d="M407.09,924.91l21.29,8.49"/><path class="cls-6" d="M429.34,1018c1.21,1.14.73,3.13.15,4.7l-11,29.9"/></g><g class="cls-13"><path class="cls-6" d="M169.15,98.75a41.15,41.15,0,0,0,34.67,2.83"/><path class="cls-6" d="M183,90.34c3.3,5.2,3.29,12,1.42,17.84s-5.39,11-8.86,16.14"/><path class="cls-6" d="M64,142.23a41.15,41.15,0,0,0,34.67,2.82"/><path class="cls-6" d="M77.85,133.82c3.3,5.2,3.29,12,1.42,17.84s-5.39,11.05-8.87,16.14"/><path class="cls-6" d="M126.78,106.36a5.32,5.32,0,0,1,.36-6.25A9,9,0,0,1,133,97.05a7.44,7.44,0,0,1,5.4.93,6.79,6.79,0,0,1,2.51,5.45,22.87,22.87,0,0,1-1,6.12,107.49,107.49,0,0,0-3.27,28.18l28.28-14.08"/><path class="cls-6" d="M125.8,191.78a5.32,5.32,0,0,1,.36-6.25,9,9,0,0,1,5.81-3.06,7.44,7.44,0,0,1,5.4.93,6.83,6.83,0,0,1,2.52,5.45,22.89,22.89,0,0,1-1,6.12,107.49,107.49,0,0,0-3.27,28.18l28.29-14.08"/><path class="cls-6" d="M102.85,131.45a159.56,159.56,0,0,1,22.65-9.85"/><path class="cls-6" d="M28.43,200.75c56.9-21.21,148.54-60.39,201.93-89.31"/><path class="cls-6" d="M28,138.39c4.23,3.2,2.89,11.18,7.7,13.42,1.62.75,3.49.56,5.26.71a13.59,13.59,0,0,1,10,21.32c-2.68,3.83-8.43,6-12.14,3.16"/><path class="cls-6" d="M26,140.53l21.62-7.63"/><path class="cls-6" d="M104.15,195.89c1.66.05,2.61,1.87,3.21,3.42L118.85,229"/></g><g class="cls-13"><path class="cls-6" d="M469.69,282.6a41.15,41.15,0,0,0,32.13,13.34"/><path class="cls-6" d="M485.49,278.86c1.54,6-.55,12.4-4.14,17.41s-8.53,8.86-13.4,12.64"/><path class="cls-6" d="M356.22,291.66A41.12,41.12,0,0,0,388.35,305"/><path class="cls-6" d="M372,287.92c1.54,6-.55,12.39-4.14,17.41s-8.53,8.86-13.4,12.63"/><path class="cls-6" d="M427,276.82A5.33,5.33,0,0,1,429.3,271a9,9,0,0,1,6.47-1.12,7.39,7.39,0,0,1,4.85,2.54,6.82,6.82,0,0,1,.72,6,22.78,22.78,0,0,1-2.87,5.51,107.39,107.39,0,0,0-11.79,25.81L457.93,305"/><path class="cls-6" d="M399.81,357.8a5.31,5.31,0,0,1,2.26-5.84,9,9,0,0,1,6.48-1.12,7.39,7.39,0,0,1,4.84,2.54,6.82,6.82,0,0,1,.72,6,22.78,22.78,0,0,1-2.87,5.51,107.36,107.36,0,0,0-11.78,25.81L430.7,386"/><path class="cls-6" d="M396.54,293.35a158.3,158.3,0,0,1,24.58-2.43"/><path class="cls-6" d="M304.39,336.42c60.67-2.7,159.94-11.83,219.64-22.95"/><path class="cls-6" d="M323.17,277c3,4.35-.69,11.53,3.2,15.13,1.31,1.21,3.14,1.61,4.79,2.3a13.58,13.58,0,0,1,2.94,23.35c-3.73,2.82-9.87,3.12-12.52-.72"/><path class="cls-6" d="M320.58,278.36l22.92-.62"/><path class="cls-6" d="M377.94,355.06c1.57.56,1.91,2.58,2,4.24l1.77,31.81"/></g><path class="cls-6" d="M943.64,742.94a41.07,41.07,0,0,0,21.88,27"/><path class="cls-6" d="M959.31,747.17c-1.49,6-6.4,10.63-11.94,13.33s-11.73,3.73-17.81,4.73"/><path class="cls-6" d="M839.56,696.88a41.06,41.06,0,0,0,21.88,27"/><path class="cls-6" d="M855.23,701.11c-1.49,6-6.4,10.64-11.94,13.34s-11.73,3.73-17.82,4.73"/><path class="cls-6" d="M908.89,717.55a5.34,5.34,0,0,1,4.78-4.06,9,9,0,0,1,6.22,2.1,7.34,7.34,0,0,1,3.05,4.54,6.81,6.81,0,0,1-2.21,5.58,23.1,23.1,0,0,1-5.14,3.47,107.69,107.69,0,0,0-22.68,17.08L922.63,757"/><path class="cls-6" d="M846.32,775.78a5.33,5.33,0,0,1,4.78-4,9,9,0,0,1,6.23,2.09,7.38,7.38,0,0,1,3,4.54,6.81,6.81,0,0,1-2.21,5.58,23,23,0,0,1-5.15,3.48,107.38,107.38,0,0,0-22.67,17.08l29.71,10.74"/><path class="cls-6" d="M874.2,717.56A159.4,159.4,0,0,1,897,727.13"/><path class="cls-6" d="M772.64,711.56c54.62,26.51,146.26,65.74,204,84.38"/><path class="cls-6" d="M817.52,668.22c.59,5.27-6.11,9.8-4.41,14.82.57,1.69,2,2.92,3.11,4.31a13.57,13.57,0,0,1-8.55,21.92c-4.62.71-10.16-1.95-10.66-6.59"/><path class="cls-6" d="M814.56,668.23,835,678.59"/><path class="cls-6" d="M828.41,763c1.11,1.24.45,3.18-.26,4.69l-13.62,28.81"/><path class="cls-6" d="M1152.56,415.09a5.32,5.32,0,0,1,2.59-5.7,9,9,0,0,1,6.53-.76,7.43,7.43,0,0,1,4.69,2.82,6.77,6.77,0,0,1,.38,6,22.89,22.89,0,0,1-3.17,5.33,108,108,0,0,0-13.23,25.1l31.46-2.93"/><path class="cls-18" d="M776.2,495.05c1.81-.68,3.38,1.37,4.23,3.1l56.34,115.26"/><path class="cls-18" d="M835.71,613.33c20.53-6.79,39.84-16.72,59-26.64q79.15-40.89,158-82.41"/><path class="cls-18" d="M777.32,495.73c38.45-8.13,78.36,1,117.61-1.06,8.13-.43,16.26-1.34,24.4-1,7.82.3,15.55,1.75,23.33,2.64,9.34,1.07,18.76,1.34,28.16,1.6l87.39,2.47"/><path class="cls-18" d="M788.09,513.32a18.11,18.11,0,0,0,12.46-19.49"/><path class="cls-18" d="M1020.19,521.86a25.38,25.38,0,0,1-4.92-20.11,1.64,1.64,0,0,1,.68-1.25c.44-.22,1.12.27.84.68"/><path class="cls-18" d="M837.55,629.91c.43-.78,1.55.12,1.91.93q6.1,14,12.22,28"/><path class="cls-18" d="M838,629.94a160.48,160.48,0,0,1,33.28,15.71"/><path class="cls-18" d="M857.23,617.45A165.54,165.54,0,0,0,873,646.53"/><path class="cls-18" d="M742.19,461.17a126.42,126.42,0,0,1,15.07,23.41"/><path class="cls-18" d="M740.79,462.64a137.69,137.69,0,0,1,20.72,6.93"/><path class="cls-18" d="M760.29,468.75a89.37,89.37,0,0,0,.41-21.62"/><path class="cls-18" d="M760.89,450a131.47,131.47,0,0,1,17.77,23.8"/><path class="cls-18" d="M1069,504.68c-2.5,5.64-3,12.55.28,17.76s11.15,7.55,16,3.73a11.14,11.14,0,0,0,3.84-6.61,13.85,13.85,0,0,0-22.26-13.48"/><path class="cls-18" d="M806.55,510.44a130.15,130.15,0,0,1,7.68,15.07,6.89,6.89,0,0,1,.8,4.43,3.84,3.84,0,0,1-3.76,2.71,4.34,4.34,0,0,1-3.8-2.79c-.86-2.28.31-5,2.23-6.45a12.49,12.49,0,0,1,6.88-2.19,29.29,29.29,0,0,1,9.94,1"/><path class="cls-18" d="M961.6,510.41a41.59,41.59,0,0,1,7.46,8.06c2,3.09,3.15,6.89,2.35,10.47a10.68,10.68,0,0,1-7.09,7.7"/><path class="cls-18" d="M963.1,514.76a10.31,10.31,0,0,1,4-5.72c2-1.24,5-1.14,6.5.71s.4,5.29-2,5.45c2.13-1.47,4.41-3,7-3.14s5.47,1.75,5.39,4.34c-.06,2-1.73,3.51-3.37,4.65A35.56,35.56,0,0,1,970.32,526"/><path class="cls-18" d="M907.45,464.05c-2-1.14-4.48.37-5.83,2.2a7.69,7.69,0,0,0-1.69,5.55,4.46,4.46,0,0,0,3.9,3.87c2.43.11,4.34-2.38,4.51-4.81s-.9-4.75-2-6.95c1.42,3.91,4.4,7.58,8.48,8.37s8.86-2.51,8.42-6.64"/><path class="cls-18" d="M959.82,584.38c-4.36.35-7.64,5.65-5.67,9.54s8.67,4.08,10.55.15"/><path class="cls-18" d="M784.33,578.16a19.35,19.35,0,0,0-.61-19.34c-1.28-2-4-3.89-5.82-2.38-1.29,1.07-1.1,3.07-.67,4.69A31.94,31.94,0,0,0,787.12,577c2.69,2.33,7.1,4.07,9.49,1.44,2.12-2.34.3-6.56-2.73-7.45s-6.33.79-8.37,3.2"/><path class="cls-18" d="M829.65,599.65q7.3-2.94,14.34-6.5l8.45,15.7"/><path class="cls-6" d="M18.17,487.85c.65,79,3.84,157.93,7,236.85l3,75.1"/><path class="cls-6" d="M9.17,509.88l8.67-20.08"/><path class="cls-6" d="M17.68,490.29a142.12,142.12,0,0,1,9,18.3"/><path class="cls-6" d="M585.08,427.55c79.07-.64,158.09-3.83,237.1-7l75.18-3"/><path class="cls-6" d="M607.14,436.54,587,427.88"/><path class="cls-6" d="M587.53,428a143,143,0,0,1,18.32-9"/><path class="cls-6" d="M595.13,741.66c.65,79,3.84,157.93,7,236.85l3,75.1"/><path class="cls-6" d="M586.13,763.69l8.67-20.08"/><path class="cls-6" d="M594.64,744.1a142.12,142.12,0,0,1,9,18.3"/><path class="cls-6" d="M751.8,897.11c-79.07.65-158.1,3.83-237.1,7l-75.18,3"/><path class="cls-6" d="M729.74,888.12l20.1,8.66"/><path class="cls-6" d="M749.35,896.62a141.67,141.67,0,0,1-18.32,9"/><path class="cls-6" d="M596.31,856c11.69,1.17,23.18,5.78,31.74,13.82s14,19.61,13.62,31.35c-.45,14.92-10,28.48-22.31,37A40.26,40.26,0,0,1,607.67,944c-7.24,2.06-15.07,1.19-22.21-1.18-15.86-5.28-29.26-18.77-32.35-35.18s5.52-34.89,20.94-41.33"/><path class="cls-6" d="M701.3,863.31a21.71,21.71,0,0,0,15.4,19.05"/><path class="cls-6" d="M713.68,862.89a6.12,6.12,0,0,1,.44,2.57,10.38,10.38,0,0,1-1.84,4.83,36.89,36.89,0,0,1-18.67,15.07"/><path class="cls-6" d="M617.48,749.62a25.6,25.6,0,0,0,1.19,10.28c.61,1.85,2,4,3.92,3.68a3.53,3.53,0,0,0,1.86-1c4-3.75,3.11-10.29,1.48-15.55"/><path class="cls-6" d="M624.54,747.7q3.8,11.61,7.61,23.22c1.68,5.15,3.24,11.26,0,15.62a13.21,13.21,0,0,1-6.14,4.14c-1.47.56-3.15,1-4.56.28-1.65-.81-2.29-2.87-2.23-4.71.11-3.15,1.72-6,3.29-8.76l12.77-22.21"/><path class="cls-6" d="M1404.43,51.92c47.24,17.67,67.44,48.94,71.22,74.23s-2.61,52.37-19.06,72c-20.92,24.91-55.59,35.21-88.08,33.15-9.51-.61-19-2.18-27.87-5.8-15.15-6.23-27.36-18.27-36.36-32-20-30.4-24.69-71.53-7.81-103.76S1364.2,33.19,1399.27,43"/><path class="cls-6" d="M1376,139.05a1.42,1.42,0,0,0,1.23,1.49c.69.06,1.47-.38,2,0s-.88,1-.46.44"/><path class="cls-6" d="M1389.13,149a36,36,0,0,1,11.19,8.84"/><path class="cls-6" d="M1409.05,162.31q5.45,3.83,10.9,7.64"/><path class="cls-6" d="M1430.06,176.87a46.83,46.83,0,0,1,13.4,8.79"/><path class="cls-6" d="M1449,192.85l16,11"/><path class="cls-6" d="M213.28,500C242.65,541,242,578.21,231,601.32s-31.37,42-56,49.15c-31.27,9-65.8-1.69-91.63-21.49-7.57-5.79-14.61-12.4-19.91-20.32C54.42,595.05,51,578.27,51.14,561.89c.35-36.37,19.39-73.14,51.38-90.52s87.79-9.28,111.47,18.36"/><path class="cls-6" d="M141.1,556.59a1.41,1.41,0,0,0,.2,1.92c.53.44,1.43.51,1.65,1.16s-1.29.33-.63.11"/><path class="cls-6" d="M146.41,572.18a36,36,0,0,1,4.36,13.57"/><path class="cls-6" d="M155.55,594.29q2.4,6.19,4.79,12.41"/><path class="cls-6" d="M164.89,618.07a46.64,46.64,0,0,1,6.21,14.76"/><path class="cls-6" d="M171.69,641.87q3.59,9.06,7.18,18.1"/><path class="cls-6" d="M887.75,382.57c5.36-9.74,10.54-20.51,8.88-31.51-.56-3.68-2.08-7.5-5.23-9.49s-8.14-1.22-9.57,2.22c-1.76,4.23,2.83,8.67,7.35,9.4,2.52.42,5.75-.31,6.37-2.78"/><path class="cls-6" d="M1117.59,79c.94-.57,1.75.93,1.82,2a59,59,0,0,1-10.67,37.57"/><path class="cls-6" d="M1104.93,88.17a51.09,51.09,0,0,0,30.25,16.09"/><path class="cls-6" d="M1148.4,82.12q11.77-3.51,23.2-8.06"/><path class="cls-6" d="M1151.8,68.5l12.37,23.78"/><path class="cls-6" d="M1180.41,55.41c2,3,4.32,6.23,7.77,7.4a8.42,8.42,0,0,0,7.1-15.17"/><path class="cls-6" d="M1196.24,47.15a406.36,406.36,0,0,1,26,43.13c1.39,2.66,2.78,5.44,3,8.44s-1.11,6.3-3.84,7.56c-3.45,1.6-7.7-.78-9.48-4.14s-1.74-7.35-1.62-11.15q.73-24.54,3.28-49"/><path class="cls-6" d="M355.54,21.82c1.07-.24,1.37,1.43,1.09,2.5a59,59,0,0,1-21.94,32.32"/><path class="cls-6" d="M340.62,26.59a51,51,0,0,0,23.67,24.77"/><path class="cls-6" d="M383.8,34.49q12.27.38,24.56-.37"/><path class="cls-6" d="M391.31,22.63l4.26,26.46"/><path class="cls-6" d="M422.59,19.18c1,3.51,2.14,7.27,5.05,9.47a8.73,8.73,0,0,0,11.21-.94,8.7,8.7,0,0,0,.3-11.24"/><path class="cls-6" d="M440.21,16.31a405.84,405.84,0,0,1,11.12,49.1c.48,3,.92,6,.16,9s-3,5.63-6,6c-3.78.43-7.07-3.16-7.7-6.9s.66-7.53,2-11.1q8.43-23.07,18.53-45.48"/><path class="cls-6" d="M660.23,1032.54a47.9,47.9,0,0,0,6.94,33.82c1.87,2.89,4.22,5.7,7.46,6.87s7.5.08,8.85-3.09a8,8,0,0,0,.19-4.87c-.95-4.33-4.19-8.46-8.58-9.08s-9.15,3.67-7.91,7.92"/><path class="cls-6" d="M690.25,1038.05a93,93,0,0,0,24.92,13.17c1.85.64,4.09,1.16,5.63,0"/><path class="cls-6" d="M703.85,1028.78c1.7,0,2.49,2.11,2.78,3.79a76.22,76.22,0,0,1-2.32,35.31"/><path class="cls-6" d="M729.17,1029.24l24.27-11.39"/><path class="cls-6" d="M769.73,990.06c-2.45-3.94-.52-9.73,3.61-11.83s9.61-.57,12.47,3.08A12.93,12.93,0,0,1,787,994.47"/><path class="cls-6" d="M787.71,992.88c4-5,12.46-6.06,17.08-1.59s4,12.58-.33,17.29-11.24,6.32-17.57,5.53"/><path class="cls-6" d="M814.16,977a21.15,21.15,0,0,0,9.87,6.67c1,.32,2.3.48,3-.36a2.84,2.84,0,0,0,.42-1.55c.34-5.3-.21-12-5.17-13.89A152.7,152.7,0,0,1,856,995.44a7.29,7.29,0,0,1,2.17,3.61c.41,2.76-2.37,5.05-5.11,5.61-7.77,1.59-14.88-5.91-16.42-13.69s.67-15.73,1.72-23.59"/><path class="cls-6" d="M855.23,952.72q8.49-6.91,17.46-13.18"/><path class="cls-6" d="M856.65,938.28c.59-1.25,2.48-.26,3.36.81l13.12,16"/><path class="cls-6" d="M890,912.61a52.81,52.81,0,0,0,15.2-10.36,81.78,81.78,0,0,0,17.41,40.4"/><path class="cls-6" d="M896.83,929.72a60,60,0,0,0,18.49-13"/><path class="cls-6" d="M1528.31,683.56a48,48,0,0,0,6.94,33.81c1.87,2.89,4.23,5.7,7.47,6.87s7.5.08,8.85-3.09a8.08,8.08,0,0,0,.19-4.87c-1-4.33-4.19-8.46-8.58-9.08s-9.16,3.67-7.91,7.92"/><path class="cls-6" d="M1558.34,689.06a92.89,92.89,0,0,0,24.92,13.17c1.85.64,4.08,1.17,5.62-.05"/><path class="cls-6" d="M1571.93,679.79c1.71.05,2.5,2.11,2.78,3.79a76,76,0,0,1-2.32,35.32"/><path class="cls-6" d="M1597.26,680.25l24.26-11.38"/><path class="cls-6" d="M1637.82,641.07c-2.46-3.94-.53-9.73,3.61-11.83s9.61-.57,12.47,3.08a12.93,12.93,0,0,1,1.21,13.16"/><path class="cls-6" d="M1655.8,643.89c4-5,12.46-6.06,17.07-1.59s4,12.58-.33,17.3-11.23,6.32-17.57,5.52"/><path class="cls-6" d="M1682.24,628a21.11,21.11,0,0,0,9.88,6.67c1,.32,2.3.48,2.94-.35a2.74,2.74,0,0,0,.42-1.56c.35-5.3-.2-12-5.17-13.89A152.75,152.75,0,0,1,1724,646.45a7.28,7.28,0,0,1,2.16,3.61c.42,2.76-2.36,5.05-5.1,5.61-7.77,1.6-14.89-5.91-16.43-13.69s.68-15.73,1.73-23.59"/><path class="cls-6" d="M1723.32,603.73q8.48-6.91,17.46-13.18"/><path class="cls-6" d="M1724.74,589.29c.59-1.25,2.48-.26,3.35.81l13.13,16"/><path class="cls-6" d="M1758.09,563.62a52.79,52.79,0,0,0,15.19-10.35,81.8,81.8,0,0,0,17.42,40.39"/><path class="cls-6" d="M1764.91,580.73a59.8,59.8,0,0,0,18.49-13"/><path class="cls-6" d="M1143.72,575.09c3-2.69,6.09-5.46,9.91-6.73s8.58-.66,11,2.53,1,8.93-3,9.58"/><path class="cls-6" d="M1162,580.93c2.83-2.83,5.75-5.73,9.4-7.39s8.25-1.84,11.44.6c4.44,3.38,4.27,10.58.91,15s-8.93,6.65-14.36,7.94"/><path class="cls-6" d="M1166.6,617.85c7.81-.55,14.32-5.91,20.24-11L1212.15,585"/><path class="cls-6" d="M1199,617.4q.43,10.76.89,21.51a4.76,4.76,0,0,0,.69,2.76c1,1.31,3,1.2,4.62.74a17.93,17.93,0,0,0,10.26-7.87"/><path class="cls-6" d="M1199.21,618.05l31.91,35.52c.44.5,1.1,1,1.69.74s-.31-1.42-.5-.79"/><path class="cls-6" d="M1214.31,563.1a51.6,51.6,0,0,0,35.63,7.91"/><path class="cls-6" d="M1227.81,551.15a51.3,51.3,0,0,1,.5,42.86"/><path class="cls-6" d="M1259,549.72a51.68,51.68,0,0,1,11-7.39"/><path class="cls-6" d="M1282.91,530.16a72.84,72.84,0,0,0-4-33"/><path class="cls-6" d="M1280.9,499a73,73,0,0,1,10,9.77l35.2,39.17"/><path class="cls-6" d="M259.76,622.68c3-2.69,6.09-5.46,9.9-6.74s8.58-.65,11,2.54,1,8.93-3,9.57"/><path class="cls-6" d="M278.05,628.52c2.84-2.84,5.75-5.73,9.41-7.39s8.25-1.84,11.44.6c4.43,3.38,4.26,10.58.9,15s-8.92,6.65-14.35,7.94"/><path class="cls-6" d="M282.63,665.44c7.81-.55,14.32-5.91,20.25-11q12.64-10.92,25.31-21.82"/><path class="cls-6" d="M315,665q.45,10.75.89,21.51a4.77,4.77,0,0,0,.7,2.76c1,1.31,3,1.2,4.61.74a18,18,0,0,0,10.27-7.87"/><path class="cls-6" d="M315.25,665.64l31.9,35.52c.44.5,1.1,1,1.69.73s-.31-1.42-.5-.78"/><path class="cls-6" d="M330.34,610.69A51.61,51.61,0,0,0,366,618.6"/><path class="cls-6" d="M343.85,598.74a51.3,51.3,0,0,1,.5,42.86"/><path class="cls-6" d="M375,597.31a51.68,51.68,0,0,1,11-7.39"/><path class="cls-6" d="M398.94,577.75a72.76,72.76,0,0,0-4-33"/><path class="cls-6" d="M396.93,546.55a72.47,72.47,0,0,1,10,9.77l35.19,39.17"/><path class="cls-6" d="M709.48,65.68a6.81,6.81,0,1,1,8.35,5.55"/><path class="cls-6" d="M717.09,70.55c3.78-1,7.74-1.87,11.53-1s7.32,4.19,7.11,8.08c-.16,3-2.53,5.6-5.29,6.88s-5.86,1.54-8.89,1.77"/><path class="cls-6" d="M714.47,100.14l40.59-7.91"/><path class="cls-6" d="M732.86,114.32a21.65,21.65,0,0,1,5.61,12.2"/><path class="cls-6" d="M738.13,128.29c.43-1.46,2-2.19,3.52-2.62,4.62-1.36,9.78-1.63,14.1.49s7.45,7.07,6.39,11.76c-.86,3.77-4.25,6.67-8,7.58a16.79,16.79,0,0,1-11.27-1.65"/><path class="cls-6" d="M730.26,115.64l23.92-5.76"/><path class="cls-6" d="M775.27,84.09l17-7.28"/><path class="cls-6" d="M807.4,28.81q-2.71,12-5.44,24a3.83,3.83,0,0,0-.07,2.17c.7,1.92,3.5,1.55,5.41.81L835.14,45"/><path class="cls-6" d="M804.41,29.32c1.62.22,2.81,1.58,3.85,2.85L830,58.71"/><path class="cls-6" d="M817.67,79.79A189.06,189.06,0,0,0,854,67.9"/><path class="cls-6" d="M835.27,92a85.11,85.11,0,0,0,20.67-9"/><path class="cls-6" d="M854.07,84.24a147.11,147.11,0,0,0,7.63,49.38"/><path class="cls-6" d="M847.51,109.15a44,44,0,0,0,15.65-7.53"/><path class="cls-6" d="M200.54,128.3A619.08,619.08,0,0,1,294,89"/><path class="cls-6" d="M294,92.05A533.73,533.73,0,0,0,261.89,7.18"/><path class="cls-6" d="M201.05,131.75c10.13-44.25,48.9-77,62.08-120.49"/><path class="cls-6" d="M271.59,98.21q-4.53-9.46-8.13-19.35a3,3,0,0,1-.23-2,3,3,0,0,1,1.58-1.41l18.06-9.59"/><path class="cls-6" d="M339.34,794.9A619.7,619.7,0,0,1,398.86,877"/><path class="cls-6" d="M395.85,877.65a534.77,534.77,0,0,0,75.48-50.46"/><path class="cls-6" d="M336.1,796.18c45.43-.16,86.19,30.14,131.53,33.14"/><path class="cls-6" d="M384.76,857.23q8.22-6.56,17-12.29a2.27,2.27,0,0,1,3.67.53l13.44,15.41"/><path class="cls-6" d="M1287,650.58a119,119,0,0,0,18.58-1.15"/><path class="cls-6" d="M1321.42,648.18a73.78,73.78,0,0,0,15.93-.43"/><path class="cls-6" d="M1351.42,646.45a27.54,27.54,0,0,0,13.27-1.6"/><path class="cls-6" d="M1379.64,644.78a91.6,91.6,0,0,0,15-1.08"/><path class="cls-6" d="M1412.28,643.85a79.32,79.32,0,0,0,20.42-3.1"/><path class="cls-6" d="M501,21.34a117.83,117.83,0,0,0,18.58-1.15"/><path class="cls-6" d="M535.38,18.94a73.78,73.78,0,0,0,15.93-.42"/><path class="cls-6" d="M565.38,17.21a27.42,27.42,0,0,0,13.27-1.6"/><path class="cls-6" d="M593.6,15.54a90.39,90.39,0,0,0,15-1.08"/><path class="cls-6" d="M626.24,14.61a78.75,78.75,0,0,0,20.41-3.1"/><path class="cls-6" d="M3.4,439.07A119,119,0,0,0,22,437.92"/><path class="cls-6" d="M37.82,436.67a73.18,73.18,0,0,0,15.93-.43"/><path class="cls-6" d="M67.82,434.94a27.5,27.5,0,0,0,13.26-1.6"/><path class="cls-6" d="M96,433.27a90.39,90.39,0,0,0,15-1.08"/><path class="cls-6" d="M128.68,432.34a78.81,78.81,0,0,0,20.41-3.1"/><path class="cls-6" d="M1718.4,150.89a118.84,118.84,0,0,0,18.57-1.15"/><path class="cls-6" d="M1752.82,148.49a73.08,73.08,0,0,0,15.92-.43"/><path class="cls-6" d="M1782.82,146.76a27.5,27.5,0,0,0,13.26-1.6"/><path class="cls-6" d="M1811,145.09a90.39,90.39,0,0,0,15-1.08"/><path class="cls-6" d="M1843.68,144.16a79.24,79.24,0,0,0,20.41-3.1"/><path class="cls-6" d="M662.4,946.69A119,119,0,0,0,681,945.54"/><path class="cls-6" d="M696.83,944.29a73.08,73.08,0,0,0,15.92-.43"/><path class="cls-6" d="M726.82,942.56a27.54,27.54,0,0,0,13.27-1.6"/><path class="cls-6" d="M755,940.89a90.51,90.51,0,0,0,15-1.08"/><path class="cls-6" d="M787.69,940a78.81,78.81,0,0,0,20.41-3.1"/><path class="cls-6" d="M569.77,177.33a119,119,0,0,0,18.58-1.15"/><path class="cls-6" d="M604.2,174.93a73.71,73.71,0,0,0,15.92-.43"/><path class="cls-6" d="M634.19,173.2a27.42,27.42,0,0,0,13.27-1.61"/><path class="cls-6" d="M662.41,171.53a91.6,91.6,0,0,0,15-1.08"/><path class="cls-6" d="M695.05,170.6a79.25,79.25,0,0,0,20.42-3.1"/><path class="cls-6" d="M965.78,851.13c14.17,2.18,25.93,13.24,31.63,26.38s6,28.07,3.9,42.23"/><path class="cls-6" d="M989.86,903.58a24.9,24.9,0,0,1,11.33,15.23"/><path class="cls-6" d="M1013.42,900.35a27.84,27.84,0,0,1-15.17,23.18"/><path class="cls-19" d="M1257.8,401.45c2.6,25.43-11.23,50.69-31.38,66.44s-45.81,23-71.25,25.74"/><path class="cls-19" d="M1178,466.61a44.38,44.38,0,0,1-21.24,26.4"/><path class="cls-19" d="M1194.16,505.8a49.8,49.8,0,0,1-46.92-15.74"/><path class="cls-6" d="M990,59.66c4.19-13.7,16.84-23.74,30.67-27.49s28.67-1.93,42.4,2.2"/><path class="cls-6" d="M1045.43,43.37a25,25,0,0,1,16.72-9"/><path class="cls-6" d="M1045.61,19.61a27.85,27.85,0,0,1,20.79,18.33"/><path class="cls-6" d="M480.49,324.76c-9.15-11-10.58-27.11-6.1-40.71s14.15-25,25.16-34.16"/><path class="cls-6" d="M497.35,269.57A24.92,24.92,0,0,1,499,250.66"/><path class="cls-6" d="M477.59,256.35a27.9,27.9,0,0,1,26.76-7.26"/><path class="cls-6" d="M1500.77,262.87c6.26,12.89,3.85,28.84-3.73,41s-19.68,20.92-32.55,27.22"/><path class="cls-6" d="M1471.29,312.5a24.88,24.88,0,0,1-6.1,18"/><path class="cls-6" d="M1487.35,330a27.93,27.93,0,0,1-27.72.72"/><path class="cls-6" d="M1895.11,638.3c6.27,12.88,3.85,28.84-3.73,41s-19.68,20.92-32.55,27.23"/><path class="cls-6" d="M1865.63,687.92a24.9,24.9,0,0,1-6.1,18"/><path class="cls-6" d="M1881.69,705.44a27.91,27.91,0,0,1-27.72.72"/><path class="cls-6" d="M1135.48,837.55a38.14,38.14,0,0,0-7.84-1.56,181.69,181.69,0,0,0-21.06-1.17c-8.65.13-19.15,1.24-28.77,6.59-2.32,1.38-4.86,2.76-6.43,5.14a7.35,7.35,0,0,0,.29,8,13.48,13.48,0,0,0,6.8,5.1,67.32,67.32,0,0,0,8.36,2.46,109.53,109.53,0,0,0,34,2.12c5.44-.46,10.67-1.21,15.59-2.12,2.45-.47,4.84-.95,7.13-1.47a30.1,30.1,0,0,0,6.51-2c4-1.67,6.56-6.08,5.14-9.51a9,9,0,0,0-3.21-3.7,41.66,41.66,0,0,0-3.55-2.29,41,41,0,0,0-5.32-2.56c-1.27-.5-2-.72-2-.72"/><path class="cls-6" d="M1068.8,846.13s2.41-6.23,6-15.58,8.42-21.81,13.52-34.16,10.59-24.54,15.08-33.51,7.77-14.78,7.77-14.78"/><path class="cls-6" d="M1115.06,748.77a104.73,104.73,0,0,1,8.31,15.13l16.12,34.42c5.91,12.49,11.82,25,14.06,35.23,1.48,5,2.38,9.19,3.16,12.11s1.16,4.61,1.16,4.61"/><path class="cls-6" d="M1111.79,722.92a16.34,16.34,0,0,0,1.09,7.1"/><path class="cls-6" d="M1112.31,736.79a41.54,41.54,0,0,1-.1,12.06"/><path class="cls-6" d="M1112.07,762.44a33.62,33.62,0,0,1,.4,4.95,32.62,32.62,0,0,1-.39,4.94"/><path class="cls-6" d="M1112.87,780.34s.25,2.65.28,5.31S1113,791,1113,791"/><line class="cls-6" x1="1112.75" y1="798.94" x2="1112.87" y2="808.84"/><line class="cls-6" x1="1113.23" y1="817.86" x2="1113.54" y2="826.04"/><path class="cls-6" d="M1114.3,845a15.28,15.28,0,0,1,.08,6.41"/><line class="cls-6" x1="1115.26" y1="859.54" x2="1115.54" y2="876.18"/><line class="cls-6" x1="1116.48" y1="886.24" x2="1116.16" y2="896.82"/><line class="cls-6" x1="1116.54" y1="906.32" x2="1117" y2="916.6"/><path class="cls-6" d="M1110.31,701.47a20.58,20.58,0,0,1,1.7,12.43"/><path class="cls-6" d="M1877.17,842s-.52-1.84-1.78-5.18a86,86,0,0,0-22-32.46,86,86,0,0,0-26.34-16.42,82.29,82.29,0,0,0-36.2-5.7c-13.21.89-26,7.61-37.17,16.4a101.17,101.17,0,0,0-27.78,33.77,82,82,0,0,0-8.81,44,134,134,0,0,0,4.16,22.42c2,7.32,3.8,14.73,7.29,21.4A37.81,37.81,0,0,0,1744,935.94a64.7,64.7,0,0,0,20.56,6.87,143.4,143.4,0,0,0,21,1.83,63.85,63.85,0,0,0,20-2.16,96.5,96.5,0,0,0,17.63-7.28c5.47-2.84,10.71-5.7,15.55-8.75,9.72-6,17.62-13.27,22.65-21.11a223.45,223.45,0,0,0,11.57-21.08,92.11,92.11,0,0,0,5.8-14.34,49.47,49.47,0,0,0,1.29-5.32"/><line class="cls-6" x1="1879.86" y1="856.95" x2="1811.91" y2="864.1"/><path class="cls-6" d="M1813.69,861.72a66.93,66.93,0,0,1-6.57,1.38c-3.31.53-6.67.69-6.67.69"/><line class="cls-6" x1="1798.72" y1="863.99" x2="1797.92" y2="941.78"/><line class="cls-6" x1="1876.85" y1="869.49" x2="1854.79" y2="861.55"/><path class="cls-6" d="M1873.64,882.17A191.57,191.57,0,0,0,1835.29,861"/><path class="cls-6" d="M1864.13,892.86l-30.88-12.66L1812,871.5a54.66,54.66,0,0,1-6.85-3.18,20.36,20.36,0,0,1-2.39-1.58"/><path class="cls-6" d="M1859.3,903.82l-9.07-3.14c-5.42-1.94-12.6-4.66-19.68-7.63-14.2-5.87-27.84-12.94-27.84-12.94"/><path class="cls-6" d="M1852.39,913.08l-25.68-8.79-17.65-6c-4.81-1.66-8-2.7-8-2.87"/><path class="cls-6" d="M1839.79,922.75A203.66,203.66,0,0,0,1820.7,913c-9.74-4.44-20.18-7.36-19.71-8.27"/><path class="cls-6" d="M1826.83,930.64s-7.2-3.67-14-8-13.21-9.26-13.21-9.26"/><polyline class="cls-6" points="1814.7 936.97 1797.38 926.52 1797.38 926.52 1798.32 926.53"/><path class="cls-20" d="M850.66,199.87a74.52,74.52,0,0,1-3.21-57.59c8.6,1.72,10,13.09,11,21.79a72.56,72.56,0,0,0,26.08,47.29c8.1-2.05,12.35-11.44,12-19.78s-4.12-16.09-6.73-24a91.46,91.46,0,0,1,.51-58.21c1.38-3.95,3.56-8.28,7.62-9.29,6.92-1.73,11.43,7,13,14,7.62,34.48,10.62,70.32,24.07,103,2.08,5.06,6.78,11,11.72,8.65,12.58-22.59,3.75-50.37-.66-75.85A208.92,208.92,0,0,1,957.11,39.05"/><path class="cls-21" d="M1696,856.53a53.67,53.67,0,0,1-5.35-41.25c6.27.78,7.87,8.88,9.07,15.08A52.37,52.37,0,0,0,1721,863c5.72-1.91,8.28-8.88,7.57-14.86s-3.82-11.36-6.11-16.92a65.92,65.92,0,0,1-2.7-41.89c.78-2.91,2.12-6.14,5-7.09,4.88-1.6,8.59,4.45,10.06,9.37,7.3,24.4,11.35,50,22.74,72.79,1.76,3.53,5.46,7.54,8.89,5.61,7.85-16.92,0-36.43-4.47-54.52a150.58,150.58,0,0,1,2.13-80.24"/><path class="cls-21" d="M1687.31,154.21A53.78,53.78,0,0,1,1705.84,117c4.78,4.14,1.6,11.76-.86,17.58a52.25,52.25,0,0,0-.52,38.93c5.81,1.6,11.83-2.77,14.56-8.13s3.16-11.56,4.35-17.46a66,66,0,0,1,21.08-36.31c2.28-2,5.19-3.93,8.09-3.12,5,1.38,4.67,8.47,3.15,13.38-7.52,24.33-18.42,47.87-21.64,73.13-.5,3.9.33,9.3,4.26,9.59,16-9.69,20.33-30.24,26.65-47.79a150.77,150.77,0,0,1,46.46-65.48"/><path class="cls-21" d="M183.88,562.52A53.7,53.7,0,0,1,174.29,522c6.32.13,8.75,8,10.59,14.07a52.33,52.33,0,0,0,24.51,30.28c5.49-2.49,7.32-9.69,6-15.56s-5-10.91-7.83-16.2a66,66,0,0,1-7-41.39c.48-3,1.48-6.33,4.23-7.56,4.7-2.1,9,3.53,11,8.28,9.78,23.51,16.46,48.57,30.15,70.05,2.12,3.32,6.21,6.94,9.42,4.66,6.06-17.64-3.73-36.24-10.09-53.77a150.67,150.67,0,0,1-6.17-80"/><path class="cls-21" d="M261.87,194.49a113.28,113.28,0,0,1,15.79-63.21q-2.06,23.94-4.12,47.88c-.71,8.15-.24,18.42,7.26,21.73l7.44-45.14c.55-3.33,1.68-7.32,5-8.13,4.17-1,7.25,4.28,7,8.57s-2.15,8.61-1,12.76c2,7.46,11.63,9.2,19.35,9.52"/><path class="cls-22" d="M725,334.61a113.18,113.18,0,0,1,15.8-63.2q-2.07,23.93-4.13,47.87c-.7,8.15-.23,18.43,7.26,21.73q3.72-22.56,7.45-45.13c.54-3.33,1.67-7.33,5-8.14,4.18-1,7.25,4.28,7,8.57s-2.14,8.61-1,12.76c2,7.46,11.63,9.21,19.35,9.52"/><path class="cls-22" d="M911.52,849c22.31-53.61,69.67-96.18,125.38-112.7,5.54,7.19,3.64,17.93-1.55,25.37s-13,12.56-20,18.29a127.26,127.26,0,0,0-35.71,46.54l8,4.92,34.44-38.8c4.84-5.46,9.77-11,15.9-14.95,16.35-10.57,37.81-8.05,56.58-2.88"/><path class="cls-22" d="M56.67,410.16C79,356.55,126.34,314,182.05,297.46c5.54,7.19,3.64,17.93-1.55,25.37s-13,12.56-20,18.29a127.23,127.23,0,0,0-35.7,46.54l8,4.93,34.44-38.81c4.84-5.46,9.77-11,15.9-14.95,16.35-10.57,37.8-8.05,56.58-2.88"/><path class="cls-22" d="M1755.61,1072.22c6.85-10,14.86-20,26.87-25,14-5,29-5,43.8-2.4"/><path class="cls-22" d="M1689.91,1070.23c19.49-24,44.52-44,72.55-56,5-2,6,5,7,8,1,7-1,14-5,20-7,8-13,16-22,23-2,2-3,5-4.92,6.67"/></g></g></g></g></svg>