<svg xmlns="http://www.w3.org/2000/svg" viewBox="0 0 112.18 112.18"><defs><style>.cls-1{fill:#edf5f9;fill-rule:evenodd;}</style></defs><title>Ресурс 2</title><g id="Слой_2" data-name="Слой 2"><g id="Слой_1-2" data-name="Слой 1"><path class="cls-1" d="M112.18,54.65c0,30.18-24.65,54.64-55.07,54.64a55.08,55.08,0,0,1-26.62-6.8L0,112.18,9.94,82.87A54.06,54.06,0,0,1,2,54.65C2,24.47,26.7,0,57.11,0a54.86,54.86,0,0,1,55.07,54.65ZM57.11,8.7a46.18,46.18,0,0,0-46.3,46,45.45,45.45,0,0,0,8.82,26.94L13.85,98.65,31.64,93a46.35,46.35,0,0,0,71.77-38.35A46.18,46.18,0,0,0,57.11,8.7ZM84.92,67.24c-.34-.56-1.24-.9-2.58-1.57s-8-3.91-9.23-4.35-2.14-.67-3,.66-3.49,4.36-4.28,5.26-1.57,1-2.92.33A37.19,37.19,0,0,1,52,60.93a40.78,40.78,0,0,1-7.51-9.28c-.78-1.34-.07-2.06.59-2.73s1.36-1.57,2-2.35a8.85,8.85,0,0,0,1.35-2.24A2.43,2.43,0,0,0,48.36,42c-.34-.67-3-7.26-4.17-10s-2.24-2.57-3-2.57a19.8,19.8,0,0,0-2.25.23S36.21,30,35,31.38a15,15,0,0,0-4.72,11.16c0,6.6,4.83,13,5.51,13.86s9.33,14.86,23.06,20.22S72.54,80.2,75,80s8-3.24,9.11-6.37,1.13-5.81.79-6.36Z"/></g></g></svg>