<svg xmlns="http://www.w3.org/2000/svg" xmlns:xlink="http://www.w3.org/1999/xlink" viewBox="0 0 286.45 388.37"><defs><style>.cls-1{fill:none;}.cls-2{fill:#e7e36a;}.cls-3{fill:#e6feff;}.cls-4{clip-path:url(#clip-path);}.cls-5{fill:#808394;}.cls-6{fill:#000016;}.cls-7{fill:#7071ab;}.cls-8{fill:#b2b2d6;}.cls-9{fill:#676a9c;}.cls-10{fill:#8485a4;}.cls-11{fill:#6e70a9;}.cls-12{fill:#9194b4;}.cls-13{fill:#000017;}.cls-14{fill:#a7a7ca;}.cls-15{fill:#5c628f;}.cls-16{fill:#a6a6c8;}.cls-17{fill:#8586a7;}.cls-18{fill:#5f6491;}.cls-19{fill:#5b618d;}.cls-20{fill:#8586a1;}.cls-21{fill:#595e8c;}.cls-22{fill:#6d70a8;}.cls-23{fill:#5d6390;}.cls-24{fill:#343947;}.cls-25{fill:#dfe0e1;}.cls-26{fill:#5e5f6d;}.cls-27{fill:#242431;}.cls-28{fill:#c0ab6e;}.cls-29{fill:#7072aa;}.cls-30{fill:#aaabcf;}.cls-31{fill:#6b6ea3;}.cls-32{fill:#6b6fa5;}.cls-33{fill:#666a9b;}.cls-34{fill:#65699a;}.cls-35{fill:#d8be75;}.cls-36{fill:#8e806c;}.cls-37{fill:#aa9f74;}.cls-38{fill:#c8b77f;}.cls-39{fill:#d1bb76;}.cls-40{fill:#bbad83;}.cls-41{fill:#a5a288;}.cls-42{fill:#9b8c6f;}.cls-43{fill:#928b84;}.cls-44{fill:#282c37;}.cls-45{fill:#2b2f39;}.cls-46{fill:#54555f;}.cls-47{fill:#b5aa8c;}.cls-48{fill:#cab787;}.cls-49{fill:#cdcebf;}.cls-50{fill:#aeafb4;}.cls-51{fill:#cecae5;}.cls-52{fill:#b6a06f;}.cls-53{font-size:38.39px;font-family:AnvylRegular, Anvyl;}</style><clipPath id="clip-path"><path class="cls-1" d="M143.67,12.25a129.52,129.52,0,0,1,93.06,219.58l0,0-1.48,1.48a128.66,128.66,0,0,1-91.38,37.92h-.41A129.5,129.5,0,0,1,14.14,141.77V12.25Z"/></clipPath></defs><title>пингвин хедер</title><g id="Слой_2" data-name="Слой 2"><g id="Слой_1-2" data-name="Слой 1"><path class="cls-2" d="M0,143.23V0H143.22a143.23,143.23,0,0,1,.24,286.45H143A143.23,143.23,0,0,1,0,143.23"/><path class="cls-3" d="M143.42,272.74a128.66,128.66,0,0,0,91.38-37.92l1.47-1.48,0-.05A129.52,129.52,0,0,0,143.23,13.71H13.71V143.23A129.5,129.5,0,0,0,143,272.74Z"/><g class="cls-4"><path class="cls-5" d="M179.11,370.63c-.3-1.17-1.39-1.53-2.26-1.9a30.36,30.36,0,0,1-11.51-8.86,7.6,7.6,0,0,0-.75-.71c-.31,1,.51,1.84,0,2.72A85.87,85.87,0,0,0,150.36,351a8.44,8.44,0,0,0-3.59-1.25c-6.52-.76-13-1.33-19.61-.5a49.47,49.47,0,0,1-6.56.05c-.43,0-1.13.15-.72-.79.23-.53-.33-.43-.56-.38-2.91.66-5.35-1-8-1.59-.37-.09-.74-.21-1.11-.31-.48.38-1,.19-1.45,0-3-1.05-6-2.13-9-3.35-2.63-1.08-4.48-2.86-4.85-5.71-.2-1.51-1.56-1.87-2.14-2.93,1.71.2,2-.42,1.45-2a21,21,0,0,1-.38-4.45c-.44,1.45-.79,2.59-1.2,3.92-1.65-3.87-.55-7.47.63-10.89,2.62-7.6,3.89-15.61,7.08-23a6,6,0,0,0,.23-1.13c.94-4.09,2.84-7.84,4.21-11.79.19-.55.78-.94-.33-1.51-.79-.41-.07-1.67.39-2.41,1-1.59,2.12-3.07,3.06-4.69,2.28-3.89,3.56-7.88,2.4-12.52a50.73,50.73,0,0,1-1.45-10.91c0,.77-.24,1.31-1.05.62a2.51,2.51,0,0,1-.79-1.52,20.51,20.51,0,0,1,.08-9.35c.59-.9,1.21-.3,1.81,0,2.25,1.05,4.3,2.48,6.53,3.56,5.08,2.51,10.33,4.65,15.42,7.14a99.53,99.53,0,0,1,14.45,8.14c.32.23.66.41,1,.61,1.86,1.08,2.41,1,3.28-1s1.89-4,2.69-6A222.81,222.81,0,0,0,161.56,226c.67-2.73,1.06-5.55,1.53-8.35,1.62-6.59,3.53-13.1,5.68-19.53.36-1.1.66-2.21,1-3.29s.52-2.16,1.62-2.73c.69-.15,1.09.31,1.42.77a38.9,38.9,0,0,1,3.89,5.91,46.44,46.44,0,0,0,8.19,12.64c.64-.78.15-2.53,2-2.27a2.4,2.4,0,0,1,1.16,1.25c.49,1.06,1,1.74,1.93.35s1.57-.56,2.18.3a18.59,18.59,0,0,0,5.09,5.44c-.92-1.93.85-3.26,1.17-4.92.13-.73.93-.34,1.32.18a18.58,18.58,0,0,1,2,3.1c.06-3.22,1.41-6,2.87-8.71.56-1,1.46-2.1.25-3.45-.53-.59,1-4.52,1.75-4.93a23.21,23.21,0,0,0,2,5.1c.71,1.21.63,2.64,1.07,3.92,1.74,3.94,3,8.06,5,11.91,3.49,6.9,8,7.29,13.71,6.37,1.14-.19,1.82-1.18,2.48-2.05a12.9,12.9,0,0,0,2.7-7.29c0-.68-.24-1.61.88-1.8a7.3,7.3,0,0,1,.19,6.35c-2.39,6.38-8.47,10.78-15.64,9.14a2.26,2.26,0,0,0-.52,0c0,3.32,2,6.23,2.4,9.66-1.52-.44-1.95-1.75-3.1-2.6.4,3.56,1.5,6.71,2.16,10,1.83,8.94,4.74,17.65,5.68,26.76a89.74,89.74,0,0,1,.52,10.76c-.07,3.71.36,7.44.66,11.15a69.4,69.4,0,0,1-.46,14.41c-.73,5.8-1,11.66-2,17.43-.95,5.57-1.85,11.15-3.3,16.64a37.59,37.59,0,0,1-13.6,20.32c-.67.54-1.33,1-1.24,2a21.85,21.85,0,0,0-3.44,2.44c-.36.28-.68.6-1.06.84-.73.45-1.64,1-2.28.27s.34-1.32.73-1.91a3.06,3.06,0,0,1,.54-.59,19.32,19.32,0,0,1-4.91,4.44,5.93,5.93,0,0,1-4,.91c-2.54-.34-5.12-.38-7.49-1.55-.18-.09-.43-.42-.63-.12-1.55,2.43-3,.37-4.54-.05"/><path class="cls-6" d="M184.9,212c-3.53-3.22-5.79-7.35-7.87-11.52a54,54,0,0,0-5.26-8.26,3.33,3.33,0,0,1-2.37-2.56c-1.3-4.07-2.27-8.19-1.41-12.52a7.24,7.24,0,0,0,0-2.5c-.62-4.19.11-8.33.42-12.48a2.87,2.87,0,0,1,1.79-2.8,38.16,38.16,0,0,0,1.33-11.1,4.64,4.64,0,0,1,.55-2.8c1.2-7.24,2.45-14.42-.71-21.6-1.36-3.08-1.93-6.52-3.75-9.46-.15-.23-1.54-1.72.52-1.73.23,0,0-.58-.16-.83-.53-.81-1.12-1.57-1.61-2.41-.24-.41-1.07-1,.24-1.31.58-.16,0-1-.14-1.51-1.53-4.3-3.54-8.43-4.57-12.91a19.64,19.64,0,0,1-.53-3.81,2.2,2.2,0,0,1,1.19-2.24,2.24,2.24,0,0,1,2.7.3c1.18,1.09,2.32,2.23,3.49,3.34,8.29,7.88,14.77,17.1,20.49,27,3.87,6.69,5.5,13.91,6.72,21.36.06.36.13.73.21,1.14,1.21-.43.58-2,1.86-2.58v10c0,2.49.95,4.85,1,7.32a3.58,3.58,0,0,1,.17.62c.24,1.35-.11,2.74.33,4.06.64,6.59,1.68,13.11,2.8,19.63.6,3.49,1.86,6.8,2.77,10.21a7.36,7.36,0,0,1,.09,4.45c-.22.28.25.24,0,.16-.05,0,0-.07.05-.19.19-.42.43-.79,1-.77,1.31,1.1.82,2.44.49,3.75l-.26.23a28.33,28.33,0,0,0-1,3.67c0,.2-1.94,1.9.52,1.38a1,1,0,0,1,.15.5,3.05,3.05,0,0,1-.21.94c-1.49,3.92-4.11,7.44-4.11,12-.65-1.87-2-3.08-2.89-4.62-.72.35-.45,1-.64,1.51s.69,1.67-.84,1.66c-.34,0-.22.81,0,1.21a10.3,10.3,0,0,1,.72,1.73c-3.16-1.74-5.28-4.48-7.31-7.48a13.79,13.79,0,0,1-.83,1.39c-1,1.29-1.43,1.25-2-.23a5.35,5.35,0,0,0-1.29-1.88c-1.08-.47-1.26.1-1.33,1-.05.54.53,1.37-.54,1.58"/><path class="cls-6" d="M101.25,220.49a50.92,50.92,0,0,1-5.58-9.31c-.11.43-.19.73-.31,1.17a2.13,2.13,0,0,1-1.09-1.62c-.44-5.1-4.08-8.4-6.83-12.19-3.17-4.36-5.83-8.95-6.66-14.39-.62-1.11.18-1.67.89-2.21a101.11,101.11,0,0,1,16.62-10.76c.17-.09.35-.16.52-.23,3.43-1.31,6.84-2.69,10.38-3.69a4.24,4.24,0,0,0,2.8-2.42c1.63-3.36,2.88-6.89,4.9-10.07,2.42-3.81,5-7.53,7.38-11.34a6.13,6.13,0,0,1,1.38-1.1,32.07,32.07,0,0,1,6.52-2.4,60,60,0,0,0,6.23-1.19,27.26,27.26,0,0,1,12-.44,20.44,20.44,0,0,1,6.17,5.16c.43.48,1,1.12.88,1.67-.24,1.32.76,1.74,1.41,2.43,3.83,2.91,6,7.14,8.59,11a5.48,5.48,0,0,1,.82,2.14c0,2.79-1.41,5.19-2.23,7.75a87.31,87.31,0,0,1-4.55,11.29c-.37.76-.66,1.55-1.57,1.83-1-.14-1.37-.9-1.78-1.63-.65-1.18-1.3-2.37-1.89-3.59a8.41,8.41,0,0,0-3.65-3.6c-1.4-.8-1.35-1.15.09-2-1.25-1.14-2.6-2.11-3.89-3.18-1.57-1.29-3.28-2.33-4.17-4.41-.67-1.57-2.47-2.38-3.9-3.38a20.8,20.8,0,0,0-12.84-4.07c-.2,0-.42.07-.58,0-3.36-2-5.69.25-7.55,2.33-5.39,6-5.94,12.38-2.1,19.48a26.17,26.17,0,0,1,1.17,2.66,4.48,4.48,0,0,0,4.23,3.12c4.4.19,7.51,2.84,10.45,5.67,1.67,1.61,1.44,3-.49,5.3a4.6,4.6,0,0,1-1.29,1.16c-.85.47-1.84.8-.92,2.09.23.33-.14.72-.44,1a3.79,3.79,0,0,1-1,.64,17.5,17.5,0,0,0-7.64,5.62c-.46.61-1.17,1.11-2,.29a.56.56,0,0,0-.53-.19c-2.24.81-3.84-1.13-5.84-1.37a1.79,1.79,0,0,1-1.54-1.74c-.56-3.35-2.12-6.52-1.82-10a3.41,3.41,0,0,0-.68-2.18,21.77,21.77,0,0,0-10.82-8.37c-2.22-.83-7.26,1.66-8.65,4.05a11.83,11.83,0,0,0-1,2.09c-.31.89-1.24,1.86.24,2.66.28.15.25.71.24,1.1-.11,3.72,1.64,6.71,3.78,9.51,1.22,1.58,2.41,3.18,3.48,4.89.3-.36-.09-1.15.68-1.16.5,0,.77.42,1,.82a9.29,9.29,0,0,1,.85,2.56,13.24,13.24,0,0,0,2,4.77c.35.52.45,2,1.82.79.42-.37,1,.46,1.22,1a15.81,15.81,0,0,0,2.34,3.53c.72.78,1.14,2.2,2.71,1.24.28-.18.74.18,1,.47a2.51,2.51,0,0,0,2.23.94c1.79,0,.72,1.46.78,2.35a1.34,1.34,0,0,1-.53.75c-2.93.74-5.83.05-8.7-.38a3.67,3.67,0,0,1-2.85-2.58"/><path class="cls-6" d="M107.47,242.57c-.9,3.5-.4,9.19,1.06,11.07.07-.65.12-1.19.18-1.73l.23,0c.85,5.31,2,10.6,2.42,15.94.25,3.64-1.88,6.88-3.75,10-1.08,1.79-2.64,3.31-3.23,5.7l2.09-1.21c-2.23,5-3.62,9.84-5.88,14.37-.18-.3.06-1.45-.77-.45-1.27,1.52-2.44,3.12-3.66,4.67-.29.37-.44,1-1.08.18-.47-.59-.78.26-1.08.51-10,8.46-21.59,13.6-34.22,16.61-1.25.3-2.64.65-3.69-.76s-.52-2.11.49-3.12c4.25-4.23,9.21-7.69,13.25-12.13C78.23,293,86,283.26,90.51,271.45c.51-1.32,1.23-2.55,1.84-3.82,0,0,0-.12-.09-.23l-1.5,1.65c1.84-5.93,5.62-11,7-17.24l-1.36.53a39.79,39.79,0,0,0,6-12.93,6.33,6.33,0,0,1,5.07,3.16"/><path class="cls-7" d="M88.48,130.71a49.51,49.51,0,0,1,6.26-3.84c3.65-.17,7.28-.51,10.82.93a23.56,23.56,0,0,1,4.59,2.41,96.16,96.16,0,0,1,12.3,9.55,3.72,3.72,0,0,1,1.54,2.56c-.16.75-.79,1-1.37,1.23-6.45,3.1-13.2,5.47-19.9,7.94a5.27,5.27,0,0,0-1.76.77c-2.63,2.25-6,2.61-9.12,3.45A4.4,4.4,0,0,1,86.65,154a3,3,0,0,1,.34,1.95c-.2.78-.65,1.22-1.35.56s-2-.37-1.81-1.9c0-.32-1.39.19-1.43-.89.3-1.3.36-2.39-1.16-3.18a3.21,3.21,0,0,1-1.38-2.83c.44-2.53,1.57-4.9,1.68-7.51a3.5,3.5,0,0,1,1-2.05,81.85,81.85,0,0,1,5.85-6.89.64.64,0,0,0,.13-.54"/><path class="cls-8" d="M210.07,134.62l5-11.24c1.5-1.45,1.82-3.6,3.08-5.22,1-1.25,1.9-2.45,3.49-2.88a5.33,5.33,0,0,1,6.9,4.37c1.37,6.92,1.58,13.8-.92,20.57a39.77,39.77,0,0,1-7.78,12.57,28.42,28.42,0,0,0-2.31,2.6c-1.32,2-3.47,2.58-5.48,3.41a1.43,1.43,0,0,1-1.75-.44,5.26,5.26,0,0,1-.4-2.42,4.77,4.77,0,0,0-2.58-4.19c-1.71-.83-3,.06-4.39.95s-2.4,2.62-4.14,3.21h0a2.58,2.58,0,0,1,.84-2.94c4.51-4.73,7.25-10.53,9.9-16.38.28-.62.76-1.2.53-2"/><path class="cls-9" d="M82.73,153.49c.1.33.07.91.66.55s.78-.85,1.44-.66c.28.51-.17.71-.35,1-.43.8-.58,1.41.69,1,1.06-.34.36,1,1.15,1,1.24-1.09-.83-2.16-.34-3.28a1,1,0,0,1,1.15.65c1.06,2.05,2.84,1.8,4.61,1.53,4.29-.65,7.91-3,11.87-4.56,6.45-2.47,12.93-4.87,19.23-7.72a8.1,8.1,0,0,0,.93-.64c.94,0,1.11.44.81,1.23a68.21,68.21,0,0,1-5.17,8.07,78.13,78.13,0,0,0-7,13.45,4.24,4.24,0,0,1-2.86,2.59c-3.65,1.17-7.26,2.47-10.89,3.72-.59-.94.27-1.23.78-1.61s1.33-.47,1.88-.84c-.17.06-.38.18-.6.26-.82.28-1.74.54-2.23-.41s.24-1.44.85-1.94a13.72,13.72,0,0,1,1.87-1.36,3.76,3.76,0,0,0,.68-.39,24.64,24.64,0,0,0,6.12-8,3.07,3.07,0,0,0-.72-3.41c-.89-.9-1.91-.32-2.91-.11-5.24,1.08-9.09,4.71-13.49,7.33-1,.6-1.55,1.72-2.47,2.44a.93.93,0,0,0-.22,1.37,2.64,2.64,0,0,1-.25,3.53c-.46.55-.27,1.07.13,1.57a6.58,6.58,0,0,1,1.44,3.53c.12,1.15.78,1.38,1.76.78,1.59-1,3.41-1.51,4.93-2.65a1.76,1.76,0,0,1,2.46-.06A118.49,118.49,0,0,0,83,181.48c-.93.69-2.22,1.17-2.23,2.67-.76-.62-1.14.14-1.59.49a23,23,0,0,0-6.5,8c-1.27.1-1.37-.56-1.11-1.58a13.68,13.68,0,0,1,4.36-6.93c2.55-2.25,4.42-4.82,4.86-8.28.06-.45.23-.94-.06-1.31-1.07-1.39-.68-2.77-.13-4.21.47-1.24-.5-4.51-1.66-5.15-2.26-1.24-2.25-3.51-2.77-5.55-.17-.71.36-1.55-.42-2.14-.59-7.18.09-14.11,4.69-20a29.94,29.94,0,0,1,8-6.73c.37.07.86.12.39.66a63.13,63.13,0,0,0-4.16,4.83c-1.16,1.64-2.89,2.86-2.87,5.39,0,2-1,4.12-1.64,6.18-1-.09-.83-1.17-1.37-1.71-2.45,4.63-2.48,8.83,2.18,12.26a23.83,23.83,0,0,1,.4-2.95c.28-.74.24-1.7,1.32-1.88"/><path class="cls-10" d="M198.79,155.91a19.91,19.91,0,0,1,4-3.76c1.52-1.18,3.15-1.8,5-.83a5.29,5.29,0,0,1,2.65,4.59c.06.76,0,1.53,0,2.3.27.95.75,1.3,1.83,1a13,13,0,0,1,6.88.08,3.64,3.64,0,0,0,3.85-1,38.1,38.1,0,0,0,12-29.34c-.15-6.2-2.92-11.4-7.49-15.63a3.79,3.79,0,0,0-3.24-.74c-.85.08-2,1-2.64-.39,3.48-2.21,6.75-1.42,9.46,1.17a20.84,20.84,0,0,1,6.59,14.7,47.31,47.31,0,0,1-3.65,21.6,58.18,58.18,0,0,1-7.91,13.65c-1.24,1.52-.46,3.07-.14,4.59.14.64.87.39,1.35.39,2,0,3.94-.48,6-.39,2.95.12,5.78.94,7.7,3a9.57,9.57,0,0,1,2.18,8.11c-1.69,10.78-8.44,17.07-18.33,20.54l-.9.32s-.06.11-.13.23c2.88,2.94,6.23,5.5,8.31,9.18-.11.86-.61.39-.9.21a8.61,8.61,0,0,1-2.12-2,12.41,12.41,0,0,0-5.29-3.41,2,2,0,0,0-2.5.28c-3.06,3.49-6.82,4.06-11.07,2.73a4.2,4.2,0,0,0-.95-.17c-.73-1.19-.17-2.76-1.16-3.88,1-.59,1.85.15,2.76.34,3,.63,5.88.77,8.08-2a3.54,3.54,0,0,0,.71-3.58,12.13,12.13,0,0,0-6-7.25c-.34-.18-.7-.34-1-.54-1.76-1.14-1.71-2.27.16-3.26a21.61,21.61,0,0,0,10.56-12.93,10,10,0,0,0,.24-5.72c-1-3.9-5.55-6.27-10-5.33-1.34.29-2.55.9-3.85,1.28-.8.23-1.66.64-2.38,0s-.44-1.56-.21-2.37a11.34,11.34,0,0,0,.44-5.33c-.22-1.13-.6-2.15-1.82-2.5a3,3,0,0,0-3,.95,14.81,14.81,0,0,0-2.76,3.94c-.27.5-.34,1.12-.86,1.47a14.33,14.33,0,0,1-.38-4.28"/><path class="cls-11" d="M131.89,140.43a46.43,46.43,0,0,0-6.13,2.36c-.84.39-1.15-.33-1.54-.78-4.86-5.54-10.78-9.72-17.12-13.35A16.79,16.79,0,0,0,98,126.81c-.74,0-1.56.34-2.16-.4A51.44,51.44,0,0,1,111,120c2.5.09,4.94-.57,7.45-.49a48.79,48.79,0,0,1,8.61,1c3.57.74,5.83,3.43,8.34,5.69a21.27,21.27,0,0,1,4.41,6.52c1.56,3.09-.47,5.42-3.52,6.65a32,32,0,0,1-4.42,1.06"/><path class="cls-6" d="M92.78,334.27c1.8.17,2.46,1.27,2.64,3,.28,2.47,1.87,3.93,4,4.93a106.38,106.38,0,0,0,10.75,4.07,13.56,13.56,0,0,0-2.9,5.31c-.79,3.16-3.4,3.64-6.1,1.26-4.36-3.85-9.61-5.87-15-7.52-2.71-.83-5.34-.28-8,.33-3.5.81-4,.61-6-2.42-.44-.65-.93-.5-1.5-.47-1.76.1-3.4-.23-4.28-2s-.27-3.55.91-5c3.11-3.83,7.41-5,12.08-4.82a34.68,34.68,0,0,1,13.38,3.33"/><path class="cls-12" d="M158.59,147.76c-1.07-.76-.94-.8-1.34-2.15-.49-1.65-1.81-2.79-3-3.94s-2.29-1.86-3.44-2.78c-1.4-1.1-2.13-2.73-3.17-4.11a37.43,37.43,0,0,0-6.69-6.91c-.56-.44-1.43-.73-1.32-1.73-.34-2.68-1.45-5.26-1.16-8a3.57,3.57,0,0,1,.74-2.47c.2,0,.46,0,.56-.12,1.66-2.19,3.76-1.84,6.09-1.33,3.36.74,6.36,1.94,8.68,4.6.88,1,2.1,1.68,3,2.67a8.31,8.31,0,0,1,1.89,2.66c2.05,5.53,4.49,11,4.32,17.06a23.94,23.94,0,0,1-.72,4.94c-.71,3-1.92,3.45-4.46,1.66"/><path class="cls-13" d="M179.11,370.63a4.17,4.17,0,0,1,2.39.54c1.7.62,2,.36,1.64-1.57,3.1,2.07,6.64,2.21,10.06,2.34,2,.07,3.56-1.68,5.07-2.95,1.33-1.14,2.44-2.53,3.81-3.66-.41,1.69-2.11,2.45-2.84,4.13,2.38,0,3.41-1.91,5-2.83.6-.35,1-1.37,1.93-.68a18.76,18.76,0,0,0,3.46,6.84,3.91,3.91,0,0,1,.05,5.29c-1.28,1.42-3.35,1.6-5.3.55a16.25,16.25,0,0,1-4.55-3.52,6.34,6.34,0,0,0-2.48-1.82,7.87,7.87,0,0,0,.19,4c.45,1.82,1.12,3.58,1.5,5.4s.65,3.47-1.13,4.73a4.58,4.58,0,0,1-5.57.09c-2.36-1.43-3.44-3.75-4.28-6.22-.3-.9-.48-1.84-.78-3a16.1,16.1,0,0,0-3.06,5c-1.41,3.33-4.83,3.84-6.92.84-3.89-5.54-2.82-8.14,1.8-13.43"/><path class="cls-14" d="M209.27,207a1.54,1.54,0,0,1,1.79-.24,8.34,8.34,0,0,0,9.82-2.66,1.8,1.8,0,0,1,2.33-.64c2,.8,4,1.39,5.57,3.07,1,1,1.7,2.49,3.32,2.79a17.3,17.3,0,0,1,2.32,4.65c-.67.55-.37,1.32-.39,2a12.45,12.45,0,0,1-3,7.7,6.29,6.29,0,0,1-4.13,2.19c-6.16,1.11-10.86-2.54-12.93-7.28-1.67-3.83-3.12-7.72-4.72-11.57"/><path class="cls-15" d="M107.47,242.57a21.44,21.44,0,0,0-5.07-3.16,1.93,1.93,0,0,1-.57-3.18c.88-1,.12-2.69,1.68-3.22a.21.21,0,0,0,0-.18c-1.57-1.63-.85-3.18,0-4.84.17-.33-.77-.82-1.32-.88-2.06-.23-2.55-1.37-2-3.21.31-1.15-.3-2.59,1.07-3.41,3.32,3.41,7.62,2.52,11.68,2.67a2.94,2.94,0,0,1,2.8-.26c.14,1,.07,1.19-1,1.24-3.21.15-6.41.87-9.63.27-.59.52-1.88.79-1.25,1.85s1.75.82,2.73.23a23.23,23.23,0,0,0,5.91,1.81c3.21.8,6.2,2.37,9.68,2.19a16.47,16.47,0,0,0,7.33-2c1.63-.9,3.28-1.72,5-2.47a10.18,10.18,0,0,0,5.14-5.55,2,2,0,0,1,.4-1.34c1.94-2.82,4.6-5,6.58-7.81a11.83,11.83,0,0,0,1.74-2,10.69,10.69,0,0,0,2.28-3.93,2,2,0,0,1,1.81-1.71.74.74,0,0,1,.56.6,11.17,11.17,0,0,1-2,4.35c-2.87,4.56-6.2,8.83-8.7,13.64a5.5,5.5,0,0,1-2,2.11c-3.94,2.41-7.51,5.37-11.66,7.47a17.28,17.28,0,0,1-8.22,1.52c-.45,0-.9,0-1.35,0a47.83,47.83,0,0,0-4.93-.22,1.62,1.62,0,0,1-.85-.39c-.37-.28-.5-1.29-1.26-.52-.53.54-1.11,1.18-.44,2,.44.53,1,1.17,1.73.43s1.11-.45,1.49.29a3.93,3.93,0,0,0,3.32,2,42.6,42.6,0,0,1,5.51,1,62.42,62.42,0,0,0,8.2,1.12c4.94.34,7.77-2.2,10-6,.51-.88.73-2,1.65-2.57a1,1,0,0,1,.6,0,.81.81,0,0,1,.36.47c.15,1.05-.51,1.89-.73,2.84-2.34,3.48-4.4,7.3-9.27,7.75-3.7.05-7.41.13-11.21-.08a5.82,5.82,0,0,0,3.46,1.87,8.5,8.5,0,0,1,4.84,2.2c1,.91,1.27,1.78,0,2.66-1.92.5-3.3-1-5-1.33l-1.06-.37c-5.2-2-9.68-5.31-14.44-8.12-1.21-.72-2.45-1.42-3.67-2.12a4.78,4.78,0,0,0-3-.72.88.88,0,0,0-.81.71c-.06.31.16.45.38.6,3.77,2.47,6.8,5.93,10.8,8.09a1.93,1.93,0,0,1,1.09,1.06c.18.65-.13.83-.72.49-2.5-.92-4.62-2.55-7-3.7-.26-.13-.45-.49-.79-.14"/><path class="cls-16" d="M221.62,112.15a3.73,3.73,0,0,0,2.92-.17,3.2,3.2,0,0,1,3.49,1c6.74,6.55,8.8,14.62,7,23.62a40.17,40.17,0,0,1-6.86,16.58,43,43,0,0,1-5.43,6,3,3,0,0,1-3.18.73,13,13,0,0,0-7.59-.13c-.54.16-1.12.6-1.64.18-.68-.55.13-1.17.1-1.77a7.25,7.25,0,0,0,6.3-2.69c3.07-3.44,6.15-6.87,8.37-11A33.59,33.59,0,0,0,229,131.36c.34-3.8-.35-7.54-.82-11.29-.27-2.15-2.43-4.51-4.1-4.69a6.07,6.07,0,0,0-5.54,3.12,41.08,41.08,0,0,0-2.63,5.11c-.11.27-.18.87-.73.51-.13-.09-.07-.48-.1-.74A28.26,28.26,0,0,1,220,113.32c.42-.54.85-1.16,1.67-1.17"/><path class="cls-17" d="M158.59,147.76c2.92,1.16,3.18,1,4-2,1.38-5.2.58-10.17-1.31-15.05-1-2.55-1.23-5.43-3.05-7.62-3.95-4.73-8.6-8.34-15-8.92a2.39,2.39,0,0,0-2.34,1.05c-.42.62-.82,1.26-1.63.44,2.36-2.82,4.82-3.23,8.35-2.44,8.52,1.89,12.21,8.53,15.62,15.42,2.88,5.81,3.51,12.17,3.87,18.55,0,.62-.28,1.45.42,1.76s1.06-.55,1.53-.92a23.82,23.82,0,0,1,3.1-2.56c.12,4.84.09,9.67-1.52,14.33-1.24-1-1.65,1-2.69.75a45.85,45.85,0,0,0-9.3-12.75"/><path class="cls-18" d="M139.63,126.14a45.61,45.61,0,0,1,8.78,8.83,29.82,29.82,0,0,1,2.4,3.92,26.32,26.32,0,0,0-12.32.4,41,41,0,0,1-6.6,1.14,16.73,16.73,0,0,1,4.38-1.35c2.3-.32,4.14-3.69,3.21-5.89a24.33,24.33,0,0,0-7.42-9.35c-5.28-4.3-11.45-4.09-17.68-3.69-1.13.07-2.27.44-3.36-.18,10.46-2.19,20.08-.52,28.61,6.17"/><path class="cls-19" d="M75.76,157.48c.15-.4.33-1.09.73-.23.22.48,0,1.16.09,1.72.4,2.23.48,4.58,2.88,5.89.68.37,1.65,1,1.06,2.17-.06.11-.08.32,0,.37,1.89,1.54.44,3.08,0,4.63-.11.41-.21,1.08,0,1.3,2.11,2.06.32,4.16-.19,6a10.45,10.45,0,0,1-3.69,4.85,14.74,14.74,0,0,0-4.7,7.06c-.33,1,.39,1,.72,1.4-.43,1-.9.6-1.42.06-1.1-1.15-.88-2.48-.53-3.8a90.91,90.91,0,0,1,4.79-13.62,12.34,12.34,0,0,0,.82-7.64,39.63,39.63,0,0,1-.59-10.15"/><path class="cls-20" d="M210.07,134.62c.38-.14.83-.35.53.39-2.73,6.68-5.72,13.21-10.81,18.5a3.51,3.51,0,0,0-1,2.4,28.14,28.14,0,0,1-.75-7.76c.83,1-.09,2.25.69,3.5,4.5-5.31,8.55-10.74,11.33-17"/><path class="cls-21" d="M95.81,126.41c3.79,0,7.59,0,11.09,1.75,4.1,2,7.66,4.87,11.27,7.63a49.33,49.33,0,0,1,6.79,6.53,2.77,2.77,0,0,0,.8.47l-1.18.78a1.32,1.32,0,0,0-.81-1.23c-1.18-2.4-3.32-3.89-5.34-5.42a96.65,96.65,0,0,0-10.12-7.22,18.73,18.73,0,0,0-10.62-2.51c-1,0-2,.41-3-.32a1.48,1.48,0,0,1,1.07-.46"/><path class="cls-8" d="M199.17,160.2a10.15,10.15,0,0,1,4-6.38c2.09-1.62,4.53-.42,5,2.23a12,12,0,0,1-.58,6c-.18.55-.44,1.15,0,1.64s1.06.14,1.62,0c1.85-.49,3.54-1.59,5.51-1.62,7.85-.12,11.29,4.78,9.1,12.28-1.37,4.7-4.5,8.26-8.17,11.38a7.25,7.25,0,0,1-2.33,1.34c-.68.25-1.48.45-1.51,1.26s.8,1.1,1.43,1.39a12.54,12.54,0,0,1,4.05,2.9,11.58,11.58,0,0,1,2.31,3.5c1.89,4.58-.45,8-5.45,8.14a19.84,19.84,0,0,1-6-1.22,10.56,10.56,0,0,1-1.6-5.44v0c.47-2.12.38-3.12-.35-3.92-.26.44-.52.88-.79,1.31a6.34,6.34,0,0,1-1,1.26c1.74-3.23.3-6.21-.62-9.18-2.71-8.78-3.65-17.85-4.57-26.92"/><path class="cls-22" d="M126.49,246.39c1.81.06,3.18,1.53,5,1.57.54-.41,1.12-.2,1.67-.08a22,22,0,0,1,11,5.62c1,1,1.76,1.24,2.45-.26a1.73,1.73,0,0,1,1.7-1.05c.52,0,1,.36,1.46.28s.46-.68.66-1,0-.69-.39-.91c-.51-.33-1.14-.54-1.33-1.23,1-2.84,2.33-5.55,3.61-8.27a62.9,62.9,0,0,0,2.29-6.13c2-5.69,4.45-11.23,5.47-17.23a1.24,1.24,0,0,1,.38-.65c1.43-.12-.11-.85.24-1.2,1-5.06,1.19-10.23,1.95-15.32a31.08,31.08,0,0,1,3-9.15c.46-.94,1.06-1.91,2.31-1.63s1.54,1.42,1.57,2.57a28.12,28.12,0,0,1-1.84,9.6c-1.63,4.79-3,9.67-4.18,14.58a1.43,1.43,0,0,0,.07,1.29A134.6,134.6,0,0,1,159,237.36a188.27,188.27,0,0,1-8.83,23.76c-1.25,2.64-1.7,2.95-4.07,1.28-7.55-5.31-16-8.89-24.25-12.85-2.19-1.05-4.59-1.65-6.57-3.14.58-.07.71-.35.19-.65A30.71,30.71,0,0,1,107,239.2a.63.63,0,0,0-.48-.2c-1.34.16-1.47.18-1.59-.93-.06-.63-.2-.69-.74-.77s-1.62-.18-1.24-1.22a1.8,1.8,0,0,1,2.12-1.23c2,.31,3.68,1.46,5.37,2.47,5,3,9.85,6.4,15.27,8.75.08.82-1.43,1.13-.59,2.16a1.47,1.47,0,0,0,1.34-1.84"/><path class="cls-23" d="M163.6,217.75a2,2,0,0,1-.29-2.18c1.24-4.36,2.16-8.82,3.8-13.06A33.51,33.51,0,0,0,169,192.12c0-.91-.13-1.78-1.06-2.06s-1.43.62-1.8,1.36c-2.55,5-3.27,10.44-3.76,16-.26,3-.25,6-1.44,8.85a.56.56,0,0,1-.18.8,49.41,49.41,0,0,1-2.75,10.13c-2.88,7.49-5.13,15.25-9.14,22.27.17.43,0,.53-.43.5-.65-1.18-.06-2.28.4-3.29.89-2,1.56-4.09,2.58-6a6.36,6.36,0,0,0,.51-2.23,7.81,7.81,0,0,1,.57-1.71,17.89,17.89,0,0,0,2.74-8.26,2.61,2.61,0,0,1,.19-1.13c1.59-2.53,2.09-5.47,3.12-8.2.34-.13.5-.32.19-.65-.12-.73.57-1.08.79-1.66.35-.92.22-1.59-1-1.29-.68.17-1.36.26-2,.37-2.54,3.11-5.39,6-7,9.77a20,20,0,0,1-3.29,4.46c-.5.61-1.11,1.11-2,.51l-.4-.05c-.52-.79,0-1.37.5-1.81a12.52,12.52,0,0,0,3.82-6.3,24.57,24.57,0,0,1,2.91-6c3.77-5.89,7.29-11.91,9.28-18.68a44.07,44.07,0,0,1,2.48-5.41,6.36,6.36,0,0,1,.79-1.13c1-1.79,2.86-3.12,3.26-5.6a20.09,20.09,0,0,0-2.68,2.73,25.89,25.89,0,0,1-3.1,3.43,11.25,11.25,0,0,0-3.15,4.8c-.91,2.73-2.94,4.81-4.23,7.32a.77.77,0,0,1-1,.42l-.39-.4a2,2,0,0,1,.21-2c2.94-4.15,3.57-9.29,5.89-13.71a42.56,42.56,0,0,1,2.1-4.5c.73-1.09-1-1-1-1.74a.52.52,0,0,1,.16-.5c1.82-2.41,2.8-5.24,3.89-8,1.45-3.68,2.73-7.43,4-11.16a7.41,7.41,0,0,0,.16-1.71c.89-.28,1.2-2.62,2.69-.75v1.39l-1-1.11a2.59,2.59,0,0,0-.58,1.81c-.29,4.29-.9,8.54-.47,12.88.23,2.34-.38,4.76-.19,7.11.31,3.68.73,7.42,3.43,10.35-1.09.61-1.18,1.84-1.49,2.8-1.94,6.08-3.77,12.2-5.59,18.32-.44,1.46-.73,3-1.09,4.44"/><path class="cls-24" d="M184.9,212c.7-.62.38-1.38.25-2.09-.08-.46-.24-.84.38-1s1.12-.39,1.24.51c-1.66.24-.86,1.53-1.05,2.41-.06.27.32.7-.17.79-.3.05-.55-.27-.65-.6"/><path class="cls-5" d="M206.16,193.73c.23-.31.68-.37.69,0,.05,1.32.59,2.7-.34,3.93-.2-1.29.61-2.68-.35-3.91"/><path class="cls-25" d="M159.8,181.38c0,.14,0,.29,0,.43-.72,2.8-2.33,5.2-3.75,7.64-.73,1.26-1,3-2.45,3.77-1.11.16-2.16.12-2.91,1.42-.56,1-2,.94-3.18,1.11a25.22,25.22,0,0,1-4,.06c1.44.24,1.34,1.76,2.36,2.4.56.36-.27.93-.87,1a8.88,8.88,0,0,1-4-.44c-1.2-.36-2.19-.5-2.18,1.26,0,.68-.47.91-1.17,1-1,.1-2,.75-3.06.75a.53.53,0,0,0-.53.48c0,1.32-1.12,2.15-1.42,3.33-.15.61-.26,1.38-1,1.47s-.91-.75-1.22-1.23c-1.51,1.66-2.25,3.94-4.46,4.94-.28.13-.36.52-.52.79-1.19,2-1.2,2-2.83.32-.76,1.06-.94,2.41-1.74,3.42-.56.71-1.09,1.67-1.87,1.9-2.18.62-2.75,2.59-3.9,4.09-.51.65-.89,1.7-2.09,1.15l.24-1.85c-.94-.38-1.2.61-2,.89-.14-1.14-1-1.68-1.93-2.36-.36.39.11,1-.45,1.4a16,16,0,0,1-5.44-7.49c-.88.62.22,1.33-.64,2a13.09,13.09,0,0,1-3.35-5c-.81-1.83-.56-4.06-2.08-5.72-.5.9.43,1.6-.11,2.63-3.28-5.56-9-9.69-8.17-17.08-.75-.14-.8.73-1.36.68.55-4.85,3.31-8.66,8.32-9.64,4.65-.91,7.34,2,10.22,4.2s4.92,5.1,4.54,9.42c-.22,2.57,1.24,5.28,1.9,7.93.12.5.52.24.62.34.92.88,2.91-.32,3.23,1.66.82-.23,1.69.42,2.52-.17.27-.2.82-.62,1-.16.84,2.43,1.62.19,1.82-.15,2-3.49,6-4.06,9.1-6.32l-1.67-1.21c.43-.69,1.15-.79,1.7-1.15,1.08-.69,2.49-1.17,2.19-3-.17-1,1.08-.71,1.49-1.46-3.34-3.71-6.83-7.06-12.34-7.16-2.24,0-3.27-1.86-4-3.65-.56-1.3-1.23-2.53-1.83-3.81a16.7,16.7,0,0,1-.26-14.22,12.72,12.72,0,0,1,10.23-7.84c1.39-.19,1.48.18.54,1.25a19.08,19.08,0,0,1,16.51,5.87,125.25,125.25,0,0,0,10.93,10.14c-1.21.16-1.94-.34-3,.28,4.43,1.21,5.61,5,7.42,8.29a13.36,13.36,0,0,0,1,1.37"/><path class="cls-13" d="M112.93,222.45c1.88-.81,2.43-2.69,3.44-4.22.17-.26-.1-2.64,1.36-.65.22.3.53-.18.73-.37a9.37,9.37,0,0,0,3.16-4.73c.13-.59.2-1.52.84-1.6.91-.12.88.92,1.19,1.51.09.17.19.32.38.62,1.2-3.4,5.12-4.65,6.05-8.34.52.8,1,1.5,1.4,2.2.18-1.89,2.2-3,1.86-5-.07-.42.19-.52.56-.57,1.26-.17,2.52-.46,3.79-.53.71,0,1-.19.73-.85s.15-1.45.15-2.22c2.43.52,4.7,1.51,7.22.83-1.68-.41-1.64-2.74-3.52-2.93,2.17-.47,4.39.14,6.42-.66.56-.22,2.37.55,1.51-1.35,1.09-.35,2.06-1.43,3.34-.53A15.6,15.6,0,0,1,149,200.2a2.25,2.25,0,0,1-.51.2c-1.71,1.33-3.89,0-5.74.92.27.63,1.25.52,1.09,1.23s-.83.74-1.38.87a7.28,7.28,0,0,1-3.44-.15c-1.41-.34-2.37-.13-2.56,1.59a8.35,8.35,0,0,1-1.13,2.86c-.39.76-.39.75-1.72,1-.31.06-.11.34-.16.5a6.9,6.9,0,0,1-2.77,3.83c-.43.28-.94.52-1.43.13s-.32-.82-.19-1.25c.33-1,.34-2.15.72-3.18a18.48,18.48,0,0,1-1.41,3.49,3.54,3.54,0,0,1-2,1.76c-.2.07-.69-1.23-.61.11a9.22,9.22,0,0,1-.68,3.78c-.35.92-1,1.69-2,.54-.6-.7-.89-.44-1.24.21-.69,1.23-1.49,2.41-2.06,3.71-.49.93-1.13,1.6-2.17.73-.64-.53-1.15-.19-1.71,0l-3,0v-.71"/><path class="cls-26" d="M114.46,198.52c-.29-.16-1.07-.07-.84-.46,1-1.81-.38-3.35-.47-5-.15-2.46,1-4.39,3.49-4.67s5.21-.49,7.82-.62c1.43-.07.6.84.47,1.42-.35.67-.42,1.5-1.07,2-1.88,1.45-2,3.43-1.83,5.57s-.62,3-2.63,2.45a30.86,30.86,0,0,0-4.94-.67"/><path class="cls-26" d="M125.35,190.38c1.85,3.9,1.53,6.4-1.22,9.27-1.59,1.67-5.31,1.43-6.51-.4.4-.49.88-.38,1.41-.25,2.24.56,2.25.54,4.3-.67.26,0-.07-.28,0,0,0,.09-.06,0-.17.08-.66.25-.75-.21-.92-.65a4.87,4.87,0,0,1,1.5-5.7c.6-.5.92-1.25,1.61-1.65"/><path class="cls-27" d="M125.35,190.38a3.66,3.66,0,0,1-1.67,2.32,3.9,3.9,0,0,0-1.34,3.53,12.42,12.42,0,0,0,.35,1.88c.79.2.62-.91,1.3-.93,0,.16.14.38.07.5-1.2,2.12-2.63,2.63-4.93,1.75a3.53,3.53,0,0,0-1.51-.18c-.88-1-2.24.11-3.16-.73a20.29,20.29,0,0,1,5.16.19c1.77.38,2.12-.08,1.88-1.82-.32-2.38-.2-4.6,2-6.17a9.42,9.42,0,0,0,1.39-1.55c0,.44-.08.93.42,1.21"/><path class="cls-28" d="M82.73,153.49c-1.41,1.78-1,4-1.37,6.49A58.86,58.86,0,0,1,77,154.39c-1.41-2,.14-4.32.52-6.48a24.18,24.18,0,0,1,1-3.08c1.48.59.87,2.18,1.75,2.94.24,1,.57,2.17,1.5,2.57,1.71.73,1.89,1.7,1,3.15"/><path class="cls-29" d="M98.66,171.4a3.59,3.59,0,0,0-2.67.73,44,44,0,0,1-5.34,3c-1.06.53-1.45-.35-1.52-1.12A6.43,6.43,0,0,0,87,169.39c-.65-.55,0-.93.32-1.24,1.19-1.1,1.51-2.21.19-3.43-.81-.75-.14-1.16.34-1.72,1.91-2.22,4.6-3.4,6.81-5.19a29.34,29.34,0,0,1,9.95-4.89c1.16-.37,2.48-.78,3.29.54a4.44,4.44,0,0,1,.34,4.57c-1.12,2.14-3.09,3.67-4.19,5.8-.89,1.71-2.91,1.82-4.07,3.12-.49.54-1.63.8-1.2,1.69s1.35.28,2.07.1a4.79,4.79,0,0,1,.84-.08c-.59,1.49-2.8,1-3.06,2.74Z"/><path class="cls-30" d="M241.36,177.27c.07,3.48-1.58,7.14-4.46,10.42a24.12,24.12,0,0,1-10.67,7.24c-3,1-4.07.59-6-1.9a23.28,23.28,0,0,0-3.11-3.17c-.82-.72-.74-1.25.07-1.8,4.53-3.08,6.61-7.72,8.11-12.73a6.84,6.84,0,0,0,.21-.74c.59-3.51,1.09-4,4.64-4.39,1.39-.18,2.76-.67,4.15-.73,4.86-.23,7.12,2,7.08,7.8"/><path class="cls-31" d="M148.51,200l.39-.06a5.15,5.15,0,0,0,2.86-3.18c.39-1,1.1-1.6,2-1.08s.24,1.35-.15,2c-2.12,3.51-4.5,6.88-5.72,10.88a5.23,5.23,0,0,1-.58,1,2.39,2.39,0,0,1-2.25,1.3c-.37.14-.59-.12-.85-.3s-.53-.42-.82-.09c-.13.14-.23.44-.17.52.24.32.52,0,.8,0a1.2,1.2,0,0,1,1.11.61c.06,1-.64,1.65-1.18,2.34a62.48,62.48,0,0,0-3.58,5.41c-.46.28-.37.74-.39,1.16-1.78,2.58-3.43,5.3-7,5.67a2.25,2.25,0,0,0-.9.31c-4.28,2.42-8.89,3-13.73,2.8a24.33,24.33,0,0,1-5.84-.65,10.22,10.22,0,0,1-6.22-2c-.57-.89-2.09-1.27-1.52-2.78a21,21,0,0,0,6.28,0c1.65-.14,3.41.27,4.9-.8.44-.94.75-2.25,1.89-.45.67,1.07,1.12.22,1.57-.3a14.07,14.07,0,0,0,9.22-2.6c2.5-1.92,5.06-3.74,7.5-5.75a41.28,41.28,0,0,0,6.6-7.25,69.79,69.79,0,0,1,5.75-6.74"/><path class="cls-22" d="M152.78,204.26c1.61-2.4,3.54-4.65,4.54-7.37a16.28,16.28,0,0,1,4.36-6.39c.82-.78,1.55-1.66,2.32-2.5,1.38-.21,1.28.64.92,1.43s-.6,1.37-.94,2l-.75.79a4.49,4.49,0,0,1-1.36,1.35,4.1,4.1,0,0,0-2,3.36c-.14,1.48-.75,2.86-.93,4.33a1,1,0,0,1-.14.55c-2.1,2.19-2.9,5.07-4.21,7.68s-3.05,5.23-4.33,7.95c-2.23,4.74-5.89,8.37-9,12.4a18.26,18.26,0,0,0-1.83,2.94,9,9,0,0,1-1.23,1.95,6.38,6.38,0,0,1-3.11,1.84c-1.85.55-1.3-1.54-2.18-2.09a3.35,3.35,0,0,1-.47-.82c-.15-.32,0-.85-.52-.89a.7.7,0,0,0-.68.56c-.18.58.21.79.66,1s1.23.47,1.13,1.13-.79.53-1.29.6c-.94.12-1.36.91-1.9,1.51a2.27,2.27,0,0,1-2.55.74c-2.41-.61-4.91-.8-7.38-1.19a6.79,6.79,0,0,1-3.51-1.41,1.6,1.6,0,0,1-.55-1.9c.28-.7.86-.57,1.46-.5a2.61,2.61,0,0,0,1.83-.41c1.91-.14,3.81,0,5.75-.23a16,16,0,0,0,5.94-2.48c3.14-1.81,6.11-4,9.1-6a6,6,0,0,0,2.08-2.23c2.37-4.78,5.7-8.94,8.57-13.4.86-1.35,1.48-2.84,2.21-4.27"/><path class="cls-32" d="M144.28,230.58c.86,0,1.34-.5,1.9-1.09,2.55-2.63,3.66-6.18,5.86-9,1.4-1.8,3.09-3.38,4.24-5.39.92,1.15,1.78,2.35,2.73,3.48a1.54,1.54,0,0,1,.11.3s-.09.07-.14.1c-.43.27-.94.45-1,1-.55,3.82-2.74,7.12-3.41,10.9a19.26,19.26,0,0,1-1.77,5.84,2.54,2.54,0,0,1-.39,1.54,35.93,35.93,0,0,1-3.84,7.28c-.77,1.22-1.6,1.53-2.84.66a21,21,0,0,1-3.08-2.26,4,4,0,0,0-4.36-1.23,4.45,4.45,0,0,1-3.38-.08c-.84-.39-1.33-.9-.29-1.65,4.59-.46,6.4-4.22,8.76-7.34a7,7,0,0,1,4,.57,8.08,8.08,0,0,1,.55-1.66c-1.15-.59-2.37-1-3.52-1.53,0-.16,0-.31-.07-.47"/><path class="cls-33" d="M134.6,241c-.34.6-.35.93.45,1.26a4.74,4.74,0,0,0,3.56-.14c2.14-.78,3.61.4,4.68,1.79.93,1.21,2.47,1.24,3.39,2.36.39.49,1-.14,1.3-.7,1.13-2.13,2.72-4,3.55-6.31a1.61,1.61,0,0,1,.86-1c-.12,3-1.87,5.36-2.87,8a12.5,12.5,0,0,0-1,3.68c.36.86-.22,1.74,0,2.61a1.51,1.51,0,0,0-1.68,1.2c-.34,1-1.13,2.17-2.35.81-3.13-3.47-7.14-5.24-11.58-6.25-.5-.12-1-.26-1.48-.39,1.63-1.66-.36-2.52-1.06-2.79-1.5-.58-2.9-2-4.79-1.18a.73.73,0,0,1-.65-.25c-.7-1.22-2-1.7-3.48-3,4.7.45,8.89.26,13.08.31"/><path class="cls-33" d="M119.13,232.89a1.71,1.71,0,0,1-1.73,1c-.49-.07-1.08-.82-1.29.2a1.41,1.41,0,0,0,.91,1.53,9.71,9.71,0,0,0,3.23,1.12c2.63.43,5.34.35,7.87,1.37.68.27.82-.35,1.16-.72.89-1,1.57-2.37,3.43-2l-1.2-.88c.49-.6,1-.47,1.56-.09.86-.46.86.33.87.73,0,1.49.46,1.19,1.61.75a6.06,6.06,0,0,0,3.55-3.53,23.68,23.68,0,0,1,4.91-6.62,47.18,47.18,0,0,0,6.48-9.7c1.77-3.19,3.84-6.26,4.91-9.8a2.34,2.34,0,0,1,.93-1.16c.55-.44,1-1.07.55-1.67-.84-1.15-.14-1.41.75-1.33.7.06,1-.07.94-.75-.13-1.71.84-3.2.9-4.9.09-2.34,2-3.28,3.76-4.2-1.16,2.83-2.33,5.66-3.48,8.5-1,2.47-1.68,5.05-3.18,7.35-2.15,3.3-4,6.79-6,10.16a9.32,9.32,0,0,0-1.37,3c-.5,2.51-2,4.56-3.07,6.79-.5,1-2.34.92-2.2,2.53-1.11,2.38-2.84,4.37-4.22,6.57s-3.48,2-5.39,2.3c-4.78.68-9.38-.67-14-1.69-1.64-.36-3.37-.06-4.92-1.24a1.76,1.76,0,0,1-.87-1.64c.53-.76-.86-1.19-.36-2,1.67-.7,3.34.07,5,0"/><path class="cls-34" d="M140.4,219.33a25.83,25.83,0,0,1,3.24-5.75c.47-.68.91-1.38,1.36-2.07a.47.47,0,0,1,0-.68v-1.15c.39,1.16.85,1,1.5.24a11.9,11.9,0,0,0,2-4.24c1-3,3.24-5.23,4.51-8,.24-.54,1.1-.81.73-1.61-.14-.29-.44-.1-.68-.08-.88.08-.82.68-.94,1.33A4.26,4.26,0,0,1,148.9,200a66.54,66.54,0,0,0,4.64-6.9,13.4,13.4,0,0,0,1.26-3.13c.16-.91,1.27-1.82,1.9-2.74,1.17-1.73,1.46-3.94,3.06-5.37,1.61.61,2.1,1.09.86,3a33.79,33.79,0,0,0-4.28,10.31,29.44,29.44,0,0,1-2,4.67,26.7,26.7,0,0,0-2,4.11,2.48,2.48,0,0,0-1.45,1.89c-.21,1.71-1.35,2.77-2.42,3.91-1,.3-1.18,1.18-1.54,1.94Z"/><path class="cls-34" d="M112.54,228.62c5,.21,10,.55,15-.76a12,12,0,0,0,3.88-1.62c.32-.22.68-.54,1-.54,3.46,0,5.17-2.43,7-4.76a2.57,2.57,0,0,1,.62-.44.67.67,0,0,1,0,1.14c-2.18,1.78-3.3,4.76-6.57,5.35-1.37.24-2.59,1.35-3.89,2a14.68,14.68,0,0,1-13.06.93c-1.29-.53-2.86-.18-3.92-1.34"/><path class="cls-35" d="M144.35,231.05c1.75-.76,2.66,1.42,4.57,1-.84,1-1.63,1.74-.52,3l-5-1.37,1-2.62"/><path class="cls-36" d="M114.12,232.88c-.08.69,1.87,1,.36,2-.16-.09-.35-.27-.46-.23-.59.21-.33,1.7-1.35,1.11-.78-.45-1.89-1-2-1.91-.1-1.11,1-1.87,1.72-2.66.32-.34.75-.11.82.37s.23,1.13.88,1.36"/><path class="cls-37" d="M104.8,223.89c.33.66.24,1.57,1.4,1.68,1,.09.21.71.12,1.1-.24,1-.68,1.27-1.7.74-2.35-1.23-2.38-1.2-.39-3l.57-.52"/><path class="cls-38" d="M126.49,246.39l.92,1.4a8.22,8.22,0,0,0-1.43.51,10.69,10.69,0,0,0-1.31,1.17c-.06-1.48-.76-2.83,1.07-3.4l.75.32"/><path class="cls-23" d="M147,211.6c-.08-1.12.08-2,1.54-1.94-.52.64-.75,1.52-1.54,1.94"/><path class="cls-8" d="M232,138.29a14.84,14.84,0,0,1-2.22,7.44c-2.23,3.79-4.47,7.62-8.36,10-.45.28-1,.82-1.55.22s0-1,.28-1.55c3.4-5.4,7-10.71,9.49-16.61.3-.72.43-1.55,1.44-1.49.44,0,1,1.19.92,2"/><path class="cls-39" d="M148.59,252.59c-1.44-.86-.06-1.74,0-2.61l.35-.55a3.62,3.62,0,0,1,1,.48c.44.44,1.65.29,1.42,1a8.67,8.67,0,0,1-.87,2.33c-.62.83-1.11-.79-1.9-.61"/><path class="cls-40" d="M165.79,199.8c0-.91-2.33.52-1.32-1.26.23-.41-.27-1.38,1-1,1.72.55-.07,1.52.34,2.24"/><path class="cls-41" d="M160.8,217l.18-.8a1,1,0,0,1,1.06,1.06.52.52,0,0,1-.31.4c-.57.17-.77-.23-.93-.66"/><path class="cls-33" d="M152.78,236.75c.89-3.77,1.34-7.64,3.13-11.19a20.11,20.11,0,0,0,1.39-5.33c.2-1.09.69-1.41,1.68-1.27-.33,1.16-.73,2.31-1,3.49a8.45,8.45,0,0,1-1.54,3.64,6.78,6.78,0,0,0-.71,2.86c-.49,2.75-.85,5.64-3,7.8"/><path class="cls-42" d="M159,218.56a4.58,4.58,0,0,1-2.73-3.48c.68.06,1.33.4,2,0,.53-.31,1.2-.75,1.7,0a2.21,2.21,0,0,1-.05,2.21c-.22.51-1,.6-1,1.33"/><path class="cls-34" d="M164,191.46a4.68,4.68,0,0,1,.62-2c.24-.63.39-1.3-.6-1.46a12.54,12.54,0,0,1,2.54-2.8c.33-.2.72-.41,1.06-.1s0,.63-.1,1c-.71,2.1-2.34,3.59-3.52,5.37"/><path class="cls-34" d="M163.14,186.13c-.35.47-.51,1.24-1.27,1.4-.36.07-.56-.29-.38-.64.31-.59.06-1.61,1.1-1.66.36,0,.65.35.55.9"/><path class="cls-43" d="M163.33,182.46c.2.8.72,1.63-.08,2.27-.13.11-.76-.11-.82-.29-.28-.85.52-1.31.9-2"/><path class="cls-44" d="M125.31,169.81a2.23,2.23,0,0,1,1.54-1.55c1.47-.31,2.89-1,4.43,0,2,1.3,2.84,3.44,1.89,5.46s-3.16,2.87-5.73,2c-.62-.42-.34-1.7-1.52-1.61-1.54-1.23-.94-2.77-.61-4.27"/><path class="cls-45" d="M99.36,191.05a3,3,0,0,1,3.13-1.36c-.42.61-1.37.87-.69,1.76.48.63.78,0,1.16,0,.19,0,.44.08.51-.33.23-1.33.42-1.38,1.44-.49a3.84,3.84,0,0,1,1.47,3.94c-1.59,2.38-2.88,2.48-5.12.66-1.38-1.12-2.88-2.06-1.9-4.19"/><path class="cls-46" d="M125.31,169.81c.12,1.48-.51,3.16,1.12,4.24.48.25.33.92.8,1.18,2.66.88,4.69.21,5.57-1.84s-.15-4.11-2.37-5.23c-1.24-.62-2.38.42-3.58.1,2-1,3.94-1.29,5.71.34,2.09,1.92,2.44,4.28,1,6.15-1.61,2.12-4.83,3.06-6.7,2-2.36-1.38-2.93-3.91-1.57-6.92"/><path class="cls-46" d="M99.36,191.05c.07,1.73,2.12,4.46,3.69,4.95s2.27-.84,3.33-1.42a3.5,3.5,0,0,1-2.25,3.48c-1.42.72-2.47-.15-3.5-.93a4.45,4.45,0,0,1-1.27-6.08"/><path class="cls-5" d="M148.51,200c-.08.37,0,.88-.26,1.08-3.83,3.47-6.25,8.14-10,11.69a107.09,107.09,0,0,1-10.58,8.31c-2,1.49-4.86,1.45-7.35,2.05-.56.14-.79-.3-.89-.79.37-2.16,2.26-3.54,2.88-5.79.64.86,1.17,1.55,1.81,2.4,1.43-2.13.7-4.84,2.06-6.89.66.55-.3,1.12.19,1.68,2-1.38,2.27-3.77,3.43-5.8.42,1.81-.08,3.4-.64,5.32,2.71-1.19,3.59-3.39,4.39-5.68.59.34,0,1,.5,1.48a14.12,14.12,0,0,0,2.13-5.32c.18-1,.37-1.51,1.69-1.18a9.14,9.14,0,0,0,5.78,0c-.29-.52-.92-.49-1.3-.8s.43-.59.18-1.12.35-.34.61-.33c1.8.06,3.64.73,5.36-.34"/><path class="cls-47" d="M145,210.83l0,.68a4.16,4.16,0,0,0-1.1-.15c-1.07.11-1.19-.05-1.14-.08.74-.5-1-1.22.11-1.52.57-.16,1.4-.56,1.81.41a6,6,0,0,0,.35.66"/><path class="cls-48" d="M133.07,234.43l-1.57.09c-1.29.25-.9-1-.93-1.38-.09-1.21,1.43-.33,1.81-1.69l.69,3"/><path class="cls-49" d="M127.43,168.77c1.72-.62,2.85-.06,3.19,1.95-1.12-.58-2.94.12-3.19-1.95"/><path class="cls-50" d="M127.23,175.23c-1.48.43-.44-.85-.8-1.18.25-.3.32-1,.9-.7s.11.62,0,1a7,7,0,0,0-.13.92"/><path class="cls-51" d="M76.86,144.27a4.7,4.7,0,0,1,.74-.18,5.78,5.78,0,0,1,2.38.06c.25.07.49.14.72.23a3.14,3.14,0,0,1,.57.24,6.61,6.61,0,0,1,1.74,1.2c.19.18.19.19.34,0l0,0c.24-.33.24-.41-.06-.59h0a7.21,7.21,0,0,0-1.82-1.25l-.4-.17a.67.67,0,0,0-.18-.07,6.43,6.43,0,0,0-2.83-.42l-.57.09-.36.08Z"/><path class="cls-52" d="M86.41,151.6A10.39,10.39,0,0,1,85.08,158a8.13,8.13,0,0,1-.86,1.2c-.08.09-.13.11-.15-.05a.11.11,0,0,0,0,0,.87.87,0,0,1,.18-1,9,9,0,0,0,1.51-3.84,9.34,9.34,0,0,0,.1-1.84,9.48,9.48,0,0,0-2.12-5.79.61.61,0,0,1,0-.64c0-.06.06-.1.08-.16s.07-.08.13,0A10,10,0,0,1,86,149.63a9,9,0,0,1,.34,1.56,4.07,4.07,0,0,1,.06.41"/><path class="cls-51" d="M79.9,161.48a6.23,6.23,0,0,1-3.34-.52l-.4-.18a.33.33,0,0,1-.17-.27c0-.13,0-.26,0-.39s0-.24.18-.15a6.1,6.1,0,0,0,2,.74,5,5,0,0,0,1.16.09,4.87,4.87,0,0,0,.54,0,5.94,5.94,0,0,0,2.51-.9,6.15,6.15,0,0,0,1-.79h0c.15-.14.32-.18.38-.1a.63.63,0,0,1,0,.72,7,7,0,0,1-2.4,1.47c-.13,0-.26.1-.4.13a4.34,4.34,0,0,1-1,.18"/></g><text class="cls-53" transform="translate(18.97 43.89)">s</text><text class="cls-53" transform="translate(35.29 43.89)">c</text><text class="cls-53" transform="translate(51.62 43.89)">h</text><text class="cls-53" transform="translate(68.23 43.89)">o</text><text class="cls-53" transform="translate(84.55 43.89)">o</text><text class="cls-53" transform="translate(100.86 43.89)">l</text><text class="cls-53" transform="translate(117.17 43.89)">o</text><text class="cls-53" transform="translate(133.05 43.61) rotate(4.02)">f</text><text class="cls-53" transform="translate(148.48 44.63) rotate(11.55)">s</text><text class="cls-53" transform="translate(163.64 47.67) rotate(19.18)">c</text><text class="cls-53" transform="translate(178.26 52.7) rotate(26.85)">i</text><text class="cls-53" transform="matrix(0.82, 0.57, -0.57, 0.82, 192.07, 59.63)">e</text><text class="cls-53" transform="translate(204.87 68.35) rotate(41.99)">n</text><text class="cls-53" transform="translate(216.41 78.67) rotate(49.4)">c</text><text class="cls-53" transform="matrix(0.55, 0.84, -0.84, 0.55, 226.53, 90.38)">e</text><text class="cls-53" transform="translate(235.01 103.31) rotate(64.58)">s</text></g></g></svg>