<svg xmlns="http://www.w3.org/2000/svg" viewBox="0 0 123.35 123.01"><defs><style>.cls-1{fill:#edf5f9;}</style></defs><title>instagram</title><g id="Слой_2" data-name="Слой 2"><g id="Слой_1-2" data-name="Слой 1"><path class="cls-1" d="M88.24,123H35.11A35.1,35.1,0,0,1,0,88V35A35.1,35.1,0,0,1,35.11,0H88.24a35.1,35.1,0,0,1,35.11,35V88A35.1,35.1,0,0,1,88.24,123ZM35.11,10.54A24.54,24.54,0,0,0,10.57,35V88a24.54,24.54,0,0,0,24.54,24.47H88.24A24.54,24.54,0,0,0,112.78,88V35A24.54,24.54,0,0,0,88.24,10.54Z"/><path class="cls-1" d="M61.68,93A31.5,31.5,0,1,1,93.26,61.51,31.58,31.58,0,0,1,61.68,93Zm0-52.45a21,21,0,1,0,21,21A21,21,0,0,0,61.68,40.55Z"/><path class="cls-1" d="M102.21,28.21a7.59,7.59,0,1,1-7.59-7.57A7.58,7.58,0,0,1,102.21,28.21Z"/></g></g></svg>