<?xml version="1.0" encoding="utf-8"?>
<!-- Generator: Adobe Illustrator 22.1.0, SVG Export Plug-In . SVG Version: 6.00 Build 0)  -->
<svg version="1.1" id="Слой_1" xmlns="http://www.w3.org/2000/svg" xmlns:xlink="http://www.w3.org/1999/xlink" x="0px" y="0px"
	 viewBox="0 0 125.9 5890.1" style="enable-background:new 0 0 125.9 5890.1;" xml:space="preserve">
<style type="text/css">
	.st0{opacity:0.51;}
	.st1{opacity:0.5;}
	.st2{fill:none;stroke:#FFFFFF;stroke-width:6.8;stroke-linecap:round;stroke-linejoin:round;stroke-miterlimit:10;}
	.st3{fill:none;stroke:#FFFFFF;stroke-width:4.8771;stroke-linecap:round;stroke-linejoin:round;stroke-miterlimit:10;}
	.st4{fill:none;stroke:#FFFFFF;stroke-width:5.7035;stroke-linecap:round;stroke-linejoin:round;stroke-miterlimit:10;}
	.st5{opacity:0.3;}
	.st6{opacity:0.15;fill:none;stroke:#FFFFFF;stroke-width:23.8;stroke-linecap:round;stroke-linejoin:round;stroke-miterlimit:10;}
	.st7{opacity:0.15;fill:none;stroke:#FFFFFF;stroke-width:30.6;stroke-linecap:round;stroke-linejoin:round;stroke-miterlimit:10;}
	.st8{fill:none;stroke:#FFFFFF;stroke-width:9.3738;stroke-linecap:round;stroke-linejoin:round;stroke-miterlimit:10;}
	.st9{fill:none;stroke:#FFFFFF;stroke-width:12.191;stroke-linecap:round;stroke-linejoin:round;stroke-miterlimit:10;}
	.st10{fill:none;stroke:#FFFFFF;stroke-width:8.56;stroke-linecap:round;stroke-linejoin:round;stroke-miterlimit:10;}
	.st11{fill:none;stroke:#FFFFFF;stroke-width:12.5324;stroke-linecap:round;stroke-linejoin:round;stroke-miterlimit:10;}
	.st12{fill:none;stroke:#FFFFFF;stroke-width:5.4029;stroke-linecap:round;stroke-linejoin:round;stroke-miterlimit:10;}
	.st13{fill:none;stroke:#FFFFFF;stroke-width:4.5225;stroke-linecap:round;stroke-linejoin:round;stroke-miterlimit:10;}
	.st14{fill:none;stroke:#FFFFFF;stroke-width:9.9676;stroke-linecap:round;stroke-linejoin:round;stroke-miterlimit:10;}
	
		.st15{opacity:0.15;fill:none;stroke:#FFFFFF;stroke-width:42.433;stroke-linecap:round;stroke-linejoin:round;stroke-miterlimit:10;}
	.st16{fill:none;stroke:#FFFFFF;stroke-width:5.7647;stroke-linecap:round;stroke-linejoin:round;stroke-miterlimit:10;}
	.st17{fill:none;stroke:#FFFFFF;stroke-width:12.1359;stroke-linecap:round;stroke-linejoin:round;stroke-miterlimit:10;}
</style>
<g id="formules" class="st0">
	<g class="st1">
		<g>
			<path class="st2" d="M26.3,776.7c1.3,5.2,7.7,8.1,12.9,6.7c5.2-1.4,9.1-5.9,11.3-10.9c1.9-4.3,2.6-9.2,2.1-13.9
				c-0.6-5.8-2.9-11.3-5.2-16.7c-3-7-6.1-14.1-9.1-21.1"/>
			<path class="st2" d="M54.5,713.7c8.8,18.3,14.8,37.9,20.7,57.4c0.7,2.4,1.4,5,0.4,7.2"/>
			<path class="st2" d="M19.6,736.9c-2.2-3.1-3.1-7.1-2.3-10.8c1.5-7.8,9.4-12.8,17.1-15c7.7-2.2,15.9-2.6,23.1-5.9
				c7.3-3.3,13.6-10.9,11.7-18.7"/>
			<path class="st2" d="M90,721.9c7.1-3,14.2-5.9,21.2-8.9"/>
			<path class="st2" d="M97.3,737c3.7-4.5,8.9-7.7,14.6-9"/>
		</g>
		<g>
			<path class="st3" d="M58,39.4c3.1,0.2,6.3,0.1,9.3-0.5"/>
			<path class="st3" d="M54,31c4.8,0.5,9.6,0.4,14.3-0.4"/>
			<path class="st3" d="M79.6,35c11.2,0,21.2,0,32.3,0"/>
			<g>
				<path class="st3" d="M24.8,31.2c5.6,6.9,14.4,11.2,23.3,11.3"/>
				<path class="st3" d="M36.7,29.1c0.9,4.5-0.9,9.2-3.8,12.8s-6.7,6.2-10.5,8.8"/>
			</g>
			<path class="st3" d="M90.9,20.7c3.7-1,7.5-1.3,11.3-0.9"/>
			<path class="st3" d="M112.1,2.4c-0.5,5.1-0.9,10.4,0,15.5"/>
		</g>
		<g>
			<path class="st4" d="M50.3,897.2c3.6,0.3,7.3,0.1,10.9-0.6"/>
			<path class="st4" d="M45.7,887.3c5.6,0.6,11.2,0.5,16.8-0.5"/>
			<path class="st4" d="M75.6,892.1c12.2-0.1,24.2-0.1,36.6,0"/>
			<g>
				<path class="st4" d="M11.5,887.6c6.5,8.1,16.8,13.1,27.2,13.2"/>
				<path class="st4" d="M25.4,885.1c1,5.3-1.1,10.7-4.4,14.9c-3.4,4.2-7.8,7.3-12.3,10.3"/>
			</g>
			<path class="st4" d="M88.8,875.3c4.3-1.2,8.8-1.5,13.2-1"/>
		</g>
		<g class="st5">
			<path class="st2" d="M62.2,603.6c4.4,8.2,7.8,17.1,10,26.2c0.4-10.3,0.9-20.6,1.3-30.9c0.2-3.8-1.8-9.8,2.2-10.8
				c11-5,24-3,36.2-3.1"/>
			<path class="st2" d="M102.5,648.5c5.6-10.1,10.9-21.3,9.2-32.7c-0.6-3.8-2.2-7.8-5.4-9.8c-3.3-2.1-8.4-1.3-9.9,2.3
				c-1.8,4.4,2.9,9,7.6,9.8c2.6,0.4,6-0.3,6.6-2.9"/>
		</g>
		<g>
			<path class="st2" d="M112.1,504.8c-5.2,9.6-8.4,20.5-10.5,31.2c-2.1,10.6-2.8,22.6,3.8,31.8"/>
		</g>
		<g>
			<path class="st2" d="M62.5,140.7c-0.2,0.5-0.7-0.5-0.2-0.6c0.5-0.1,0.8,0.4,1.1,0.8c1.2,2.2,2.5,4.4,4.4,6c2,1.6,4.7,2.4,7,1.4
				c3.1-1.2,4.5-5.2,3.9-8.5c-0.6-3.3-2.7-6.1-4.7-8.8c6.8,9.1,13.5,18.2,20.3,27.2c1.6,2.2,3.3,4.4,4.1,7c0.6,1.8,0.8,3.7,0.6,5.6
				c-0.3,2.8-1.9,5.7-4.6,6.4c-2.5,0.6-5.1-0.9-6.7-2.9c-2.9-3.6-3.4-8.5-3.4-13c0-9.9,1.9-19.9,5.6-29"/>
			<path class="st2" d="M21.2,145.3c-1.7-1.6-1.8-4.4-0.7-6.5c1.1-2,3.2-3.4,5.5-4.1c1.8-0.6,3.9-0.8,5.7,0.1c1.9,1,3.1,3.1,3.5,5.2
				c0.4,2.1,0.1,4.3-0.1,6.4c-0.9,9.8-0.5,19.7,1.3,29.4c8.9-6.3,17.8-12.7,26.7-19"/>
		</g>
		<g>
			<path class="st2" d="M67.8,1028.6c-1.7-1.6-1.8-4.4-0.7-6.5c1.1-2,3.2-3.4,5.5-4.1c1.8-0.6,3.9-0.8,5.7,0.1
				c1.9,1,3.1,3.1,3.5,5.2c0.4,2.1,0.1,4.3-0.1,6.4c-0.9,9.8-0.5,19.7,1.3,29.4c8.9-6.3,17.8-12.7,26.7-19"/>
		</g>
		<g>
			<path class="st2" d="M26.9,272.2c0.7,82,4,163.9,7.3,245.8c1,26,2.1,51.9,3.1,77.9"/>
			<path class="st2" d="M17.6,295.1c3-6.9,6-13.9,9-20.8"/>
			<path class="st2" d="M26.4,274.7c3.5,6.1,6.6,12.4,9.3,19"/>
		</g>
		<g>
			<path class="st2" d="M111.9,429.9c-12.8-7-25.2-16.1-34.4-27.5c-9.4-11.6-14.2-26-15.8-40.8c-2.8-26.3,4.1-53.7,19-75.6
				c8.2-12,18.8-22.3,31.3-29.6"/>
		</g>
		<g>
			<path class="st2" d="M11.6,221.6c6.4,0.1,12.9-0.3,19.3-1.2"/>
			<path class="st2" d="M47.3,219.1c5.5,0.5,11,0.3,16.5-0.4"/>
			<path class="st2" d="M78.4,217.3c4.6,0.6,9.4,0,13.8-1.7"/>
			<path class="st2" d="M107.6,215.6c1.4,0,2.7,0,4.1,0"/>
		</g>
		<path class="st6" d="M66.8,191.6c9.9-25.6,25.9-47.6,45.1-66.4"/>
		<path class="st7" d="M74.8,1032.2c2.9-30.2,14.9-58.2,35.8-79.9"/>
	</g>
	<g class="st1">
		<g>
			<g>
				<path class="st8" d="M32.2,1022c-3.2-27.9-4.6-56-4.3-84.1"/>
				<path class="st8" d="M28.9,940.3c4.5,6.5,12.6,9.3,18.6,14.4c4.4,3.7,7.6,8.6,10.8,13.4c7.2,10.8,14.3,21.7,21.5,32.5"/>
				<path class="st8" d="M28.3,988.2c11.9-2.3,23.8-5.1,35.5-8.4"/>
				<path class="st8" d="M82.4,958.9c9.6-1.7,19.1-4,28.5-6.6"/>
				<path class="st8" d="M98.5,933c5.3,14.4,11.3,28.7,17.7,42.6"/>
			</g>
			<g>
				<path class="st2" d="M99.5,1559.7c2.3-20.3,5.8-40.4,10.5-60.2"/>
				<path class="st2" d="M102.2,1535.2c2.8,0.1,5.6,0.1,8.4,0.2"/>
			</g>
			<g>
				<path class="st9" d="M24,1750c5,0.7,10,1.5,15,2.2c0.9,0.1,11.1,1.7,8.6-2"/>
				<path class="st9" d="M24.1,1714.2c6.3-2.2,12.3,3.2,11.8,9.5c-0.6,6.9-6.3,11.7-11.6,15.4"/>
			</g>
			<g>
				<g>
					<path class="st2" d="M24.1,1276.7c3.2,3.5,7,6.5,11.2,8.7"/>
					<path class="st2" d="M29.9,1262.4c-1,3.5-3.2,6.4-5.9,8.8"/>
				</g>
				<path class="st2" d="M50.3,1248.7c3.1,15.2,1.3,31.3-4.9,45.4c-3.8,8.6-10,17-19.1,19.3"/>
				<path class="st2" d="M69.9,1254c0.2-2.2,2-4.2,4.2-4.5c2.2-0.3,4.5,1,5.3,3.1c1.4,3.5-1.6,7.2-4.9,9.1c-3.3,1.8-7.2,2.8-9.8,5.4
					c5.3,1.9,10.6,3.8,16,5.7c1.1,0.4,2.9-0.1,2.4-1.1"/>
			</g>
			<g>
				<path class="st2" d="M24,2032c5.6,0,11.1,0,16.7,0"/>
				<path class="st2" d="M17.7,2017.1c3.5,10.2,5.6,20.9,6.2,31.7"/>
				<g>
					<path class="st2" d="M54.4,2022.1c7.5,9.3,19.3,15.1,31.3,15.1"/>
					<path class="st2" d="M70.4,2019.2c1.2,6-1.3,12.4-5.1,17.2c-3.9,4.8-9,8.4-14.1,11.9"/>
				</g>
				<path class="st2" d="M82.2,1997.7c9.7,12.1,15.5,27.2,16.4,42.6c0.6,9.4-1.1,19.7-8.1,25.9"/>
				<path class="st2" d="M111,1995.6c-1.6,4.5-6,7.3-7.5,11.9c2.5-0.3,4.9-0.7,7.4-1"/>
				<path class="st2" d="M102,1993.4c-2.3-5.6,6.1-9.5,8.9-4.2"/>
			</g>
			<g class="st5">
				<path class="st2" d="M59.8,1782.6c16.9,6.4,34,12.5,51.2,18.4"/>
				<g>
					<path class="st2" d="M100.6,1735.4c1.1,5.2-5.2,10.3-3.1,15.2c0.7,1.6,2.2,2.7,3.5,4c3.3,3.4,4.6,8.6,3.3,13.2
						c-1.3,4.6-5.2,8.3-9.8,9.4c-4.5,1.1-10.3-1-11.2-5.6"/>
					<path class="st2" d="M97.7,1735.7c4.3,1.7,8.6,3.4,12.9,5.2"/>
				</g>
				<path class="st2" d="M111,1858.3c-0.6,1.7-1.3,3.5-1.9,5.2"/>
			</g>
			<g class="st5">
				<g>
					<path class="st2" d="M46.8,1102.2c8,8.9,20.1,13.9,32.1,13.3"/>
					<path class="st2" d="M62.6,1098.5c1.5,6-0.6,12.4-4.1,17.4c-3.6,5-8.5,8.9-13.4,12.6"/>
				</g>
				<path class="st2" d="M90.4,1168.4c-2.9-9,19.7-10.2,13.6,3.3c-2.2,4.9-5.6,9.4-8,14.3c-2.4,4.9-4.4,10.1-6,15.3
					c6.8-1,13.6-2,20.4-3.1"/>
				<path class="st2" d="M87.1,1103.9c8.1-1.4,16.3-2.3,24.6-2.4"/>
				<path class="st2" d="M24.1,1145.4c28.9-1.5,57.8-4,86.6-7.2"/>
				<g>
					<path class="st2" d="M24,1106.2c7.8,5.3,8.2,17.5,0,22.6"/>
					<path class="st2" d="M24.4,1088.6c3.2-0.1,6.5-0.2,9.7-0.3"/>
				</g>
				<path class="st2" d="M68.5,1165.6c1.6,0.6,1.9,2.6,2,4.2c0.6,10.6,1.2,21.2,1.8,31.8"/>
			</g>
			<g>
				<path class="st2" d="M46.2,832.3c1.1-0.2,1.4,1.4,1.1,2.5c-3.4,12.8-11.2,24.5-21.9,32.3"/>
				<path class="st2" d="M31.3,837c4.7,10.7,13.2,19.6,23.6,24.8"/>
				<path class="st2" d="M74.4,844.9c8.2,0.2,16.4,0.1,24.5-0.4"/>
				<path class="st2" d="M81.9,833.1c1.4,8.8,2.8,17.6,4.3,26.5"/>
			</g>
			<g>
				<path class="st2" d="M24.4,1497c3.1,3.4,6.2,6.9,9.2,10.3c1.2,1.4,2.8,3.9,4.3,4.8c1.5,0.8,2.2-0.1,1-0.2"/>
				<path class="st2" d="M21,1421.4c10.4,6.9,23.3,9.7,35.6,7.9"/>
				<path class="st2" d="M34.5,1409.4c6.4,13.3,6.6,29.4,0.5,42.9"/>
				<path class="st2" d="M65.6,1408c3.3-2.9,7-5.4,11-7.4"/>
				<path class="st2" d="M89.5,1388.4c1.2-11.1-0.1-22.5-4-33"/>
				<path class="st2" d="M87.5,1357.2c8.9,6.7,16,16.5,23.4,24.7"/>
			</g>
			<g>
				<path class="st2" d="M30,1605.7c22,25.7,41.9,53.2,59.5,82.1"/>
				<path class="st2" d="M86.4,1688.4c7.2-4,14.3-8.1,21.3-12.4"/>
				<path class="st2" d="M26.7,1606.9c30,0.1,57,13.1,84,22"/>
				<path class="st2" d="M75.4,1668c5.5-4.4,11.2-8.5,17-12.3c0.6-0.4,1.2-0.8,1.9-0.7c0.7,0.1,1.3,0.7,1.7,1.2
					c4.5,5.1,9,10.3,13.4,15.4"/>
			</g>
		</g>
		<g>
			<g>
				<path class="st2" d="M24.2,2329.9c3.9-0.4,7.8-0.8,11.7-1.2"/>
				<path class="st2" d="M16.5,2347c5.4-3.6,12.2-5.1,18.6-4c0.9,0.2,1.8,0.3,2.6-0.1c0.8-0.5,0.8-1.9-0.1-2.1"/>
				<path class="st2" d="M62.2,2312.6c6-4.7,13.5-7.4,21.1-7.6c1.1,0,2.3,0,3.1,0.8c0.6,0.6,0.8,1.6,0.8,2.5
					c0.6,7.9-3.4,15.9-10.1,20.1c3.7-5.4,12.6-5,16.9-0.2c4.4,4.8,4.7,12.3,2.3,18.3c-2,5.1-6.1,9.8-11.5,11.1
					c-5.4,1.3-11.8-1.7-13.2-7"/>
				<path class="st2" d="M112.7,2356c2.2,2.7,2.1,7-0.2,9.6"/>
			</g>
			<g>
				<path class="st10" d="M21.1,3332.6c6.7,4.4,15.9,4.8,22.9,0.9"/>
				<path class="st10" d="M53.8,3289.1c-2.2-6-8.7-9-14.7-9c-7.3,0-13.6,4.5-18,10.1"/>
				<path class="st10" d="M72.1,3280.3c0.2-2.8,2.5-5.3,5.2-5.7c2.7-0.4,5.7,1.2,6.7,3.8c1.8,4.4-1.9,9.2-6,11.5
					c-4.1,2.4-9,3.6-12.2,7c6.7,2.3,13.5,4.6,20.2,6.9c1.4,0.5,3.7-0.1,3-1.4"/>
			</g>
			<g>
				<path class="st2" d="M38,2450.7c4.3,7.9,7.5,16.5,9.6,25.2c0.3-6.6,0.6-13.3,0.9-19.9c1.2-7-1.8-15,2.2-21c20-3,40-2,60.1-3"/>
				<path class="st2" d="M76.9,2494c5.4-9.7,10.5-20.5,8.9-31.5c-0.6-3.7-2.1-7.5-5.2-9.5c-3.1-2-8.1-1.2-9.6,2.2
					c-1.8,4.2,2.8,8.7,7.3,9.4c2.5,0.4,5.7-0.3,6.4-2.8"/>
			</g>
			<g>
				<path class="st11" d="M24,2663.4c20.7-0.4,42.7-2.4,63.3-1.8"/>
			</g>
			<g>
				<path class="st2" d="M24.3,2569.2c1.3-0.2,10.6-0.6,9-3"/>
			</g>
			<g class="st5">
				<path class="st2" d="M24,2504c0.9,0.3,5.2,2.2,4.9-0.1"/>
				<path class="st2" d="M24.2,2483.1c2,2,1.5,5,0,7.2"/>
			</g>
			<g class="st5">
				<path class="st2" d="M96.2,2673.2c-6.4,22.8-0.4,49.8,14.7,68.8"/>
			</g>
			<path class="st2" d="M24.5,2859.4c5.2-0.5,10.5-1,15.7-1.5"/>
			<path class="st2" d="M24.1,2823.7c2.5,2.5,1.6,6.3-0.1,9"/>
			<g>
				<path class="st12" d="M79.6,2556.8c5.9,7.2,10.9,15.1,15.1,23.4"/>
				<path class="st12" d="M78.2,2558.3c7.1,1.8,14,4.1,20.7,6.9"/>
				<path class="st12" d="M97.6,2564.4c1-7.2,1.2-14.4,0.4-21.6"/>
				<path class="st12" d="M98.2,2545.6c6.8,7.2,12.8,15.2,17.8,23.8"/>
			</g>
			<g>
				<path class="st2" d="M24.6,2521.1c28.6-1.3,57.3-2.4,85.9-3.4"/>
			</g>
			<g>
				<g>
					<path class="st2" d="M89.2,2992.9c-22.6,0.2-45.2,0.6-67.8,1.1"/>
					<path class="st2" d="M67.1,2983.9c6.7,2.9,13.4,5.8,20.1,8.7"/>
					<path class="st2" d="M86.7,2992.4c-5.9,3.4-12,6.4-18.3,9"/>
				</g>
				<path class="st2" d="M38.7,2959.1c0.5,8.7,7,16.7,15.4,19.1"/>
				<path class="st2" d="M51.1,2958.7c0.3,0.8,0.5,1.7,0.4,2.6c-0.1,1.7-0.9,3.4-1.8,4.8c-4.3,6.9-11,12.3-18.7,15.1"/>
			</g>
			<g>
				<path class="st2" d="M21.1,3165.4c0.4-1.4,0.3-2.9,0-4.3"/>
				<path class="st2" d="M27.7,3133.9c7.6,5.6,16,10.1,24.9,13.2c1.9,0.6,4.1,1.2,5.6,0"/>
				<path class="st2" d="M41.2,3124.6c1.7,0,2.5,2.1,2.8,3.8c2,11.7,1.2,24-2.3,35.3"/>
				<path class="st2" d="M66.5,3125.1c8.1-3.8,16.2-7.6,24.3-11.4"/>
				<path class="st2" d="M107.1,3085.9c-2.5-4-0.5-9.7,3.6-11.8"/>
			</g>
			<g>
				<path class="st2" d="M46.9,2161.2c-0.5-3.5,2-7.1,5.5-7.8c3.4-0.6,7.2,1.8,7.9,5.3c0.7,3.4-1.6,7.2-5,8"/>
				<path class="st2" d="M54.5,2166c3.8-1,7.7-1.9,11.5-1c3.8,0.9,7.3,4.2,7.1,8.1c-0.2,3-2.5,5.6-5.3,6.9c-2.8,1.3-5.9,1.5-8.9,1.8
					"/>
				<path class="st2" d="M51.9,2195.6c13.5-2.6,27-5.3,40.6-7.9"/>
				<path class="st2" d="M70.2,2209.8c3.1,3.3,5.1,7.7,5.6,12.2"/>
				<path class="st2" d="M75.5,2223.8c0.4-1.5,2.1-2.2,3.5-2.6c4.6-1.4,9.8-1.6,14.1,0.5c4.3,2.1,7.4,7.1,6.4,11.8
					c-0.9,3.8-4.2,6.7-8,7.6c-3.8,0.9-7.8,0.1-11.3-1.7"/>
				<path class="st2" d="M67.6,2211.1c8-1.9,15.9-3.8,23.9-5.8"/>
			</g>
			<g>
				<path class="st2" d="M34.2,3040.1c5.3,0.4,10.6,0.3,15.9-0.4"/>
				<path class="st2" d="M64.2,3038.4c4.5,0.6,9.1,0,13.3-1.6"/>
				<path class="st2" d="M92.4,3036.7c5,0.1,10-0.3,15-1.1"/>
			</g>
			<g>
				<path class="st2" d="M32.5,2266.1c6.9-0.1,13.8-1.2,20.4-3.1"/>
			</g>
			<path class="st6" d="M62.4,2430.2c-1.1-22,4.5-44.3,15.8-63.2c-1.2,14.3-2.5,28.7-3.7,43c-0.7,8.3-2.8,22.4,6.8,26.6
				c2.5-15.3,4.5-30.8,7.6-46c0.9-4.4,4.9-10.7,9.5-5.5c4.6,5.1,0.5,11.6,0.9,17.5c0.4,6.3,5.9,9.4,11.5,10.6"/>
		</g>
		<g>
			<g>
				<path class="st13" d="M50.2,3818.3c-0.2,3.5,3.3,6.4,6.7,6.5c3.5,0.1,6.7-2,8.9-4.6c1.9-2.3,3.3-5.2,3.9-8.1
					c0.7-3.7,0.3-7.5-0.2-11.2c-0.6-4.9-1.1-9.8-1.7-14.7"/>
				<path class="st13" d="M79.1,3784.9c2.1,12.9,2.1,26,2.2,39.1c0,1.6,0,3.3-1.1,4.5"/>
				<path class="st13" d="M53.4,3792.7c-0.8-2.3-0.6-4.9,0.6-7.1c2.4-4.5,8.1-6.1,13.2-6.1c5.1,0.1,10.2,1.3,15.3,0.7
					c5.1-0.7,10.4-4.2,10.6-9.3"/>
				<path class="st13" d="M99.4,3796.4c4.9-0.5,9.8-1,14.7-1.6"/>
				<path class="st13" d="M101.1,3807c3.6-2.4,8.1-3.4,12.3-2.6c0.6,0.1,1.2,0.2,1.7-0.1c0.5-0.3,0.5-1.3-0.1-1.4"/>
			</g>
			<g>
				<path class="st13" d="M17,4627.7c1.4,1.8,1.4,4.6-0.1,6.4"/>
				<path class="st13" d="M37,4591.8c4,8.4,2.8,18.1,1.6,27.3c-0.5,3.6-1,7.3-1.4,10.9"/>
				<path class="st13" d="M58.1,4591.3c1.4,1.7,0.3,4.2-0.8,6.1c-3.1,5.4-5.5,11.2-7.1,17.2c-0.1,0.5-0.3,1.2,0.1,1.6
					c0.4,0.4,1,0.4,1.5,0.3c4.2-0.5,8.5-0.9,12.7-1.4c0.3,0,0.7-0.1,0.9-0.4c0.2-0.3-0.3-0.8-0.5-0.5"/>
				<path class="st13" d="M58.6,4592.6c3.6,11.8,0.4,25.3,5.7,36.5"/>
			</g>
			<g>
				<path class="st2" d="M21.2,4492.2c3.4,1.7,8.1,5.1,8.4,9.2c0.4,4.7-4.7,8.5-8.2,10.6"/>
				<path class="st2" d="M21.3,4514c7.2,0.3,15.6,5.2,15.6,13.3c0,8.1-8.9,12.4-15.6,14.3"/>
			</g>
			<g>
				<path class="st2" d="M110.7,4056.8c-2.2-3.6-1.4-8.2,0.2-11.8"/>
				<path class="st2" d="M104.9,4013.2c1.8,4.8,0.8,9.8,6,12.3"/>
			</g>
			<g>
				<path class="st2" d="M46.5,3662.6c3.1,1.3,6.4,2.2,9.8,2.6"/>
				<path class="st2" d="M45.3,3652.6c4.7,2.2,9.8,3.7,14.9,4.4"/>
				<path class="st2" d="M70.3,3665.4c13.5,5.6,27.5,8.6,40.4,13.3"/>
				<g>
					<path class="st2" d="M15.2,3642.9c3.4,9,11,16.4,20.2,19.5"/>
					<path class="st2" d="M28.1,3644.8c-0.6,4.5-3.4,8.3-6.9,10.9"/>
				</g>
				<path class="st2" d="M86.8,3654.5c4.1,0.2,8.2,1.2,12,2.9"/>
				<path class="st2" d="M110.9,3652.9c-1.6,5.2-2.8,11.6,0,16.6"/>
				<path class="st2" d="M108.1,3661.8c0.9-0.7,1.8-1.4,2.7-2.1"/>
			</g>
			<g class="st5">
				<path class="st2" d="M21.3,3921.1c1-0.4,5.3-1.9,3.5-3.4"/>
			</g>
			<g class="st5">
				<path class="st2" d="M54.6,4385.6c-4,13.6-9.6,26.8-16.5,39.2"/>
				<path class="st2" d="M65.7,4413.1c1.9-0.7,4,0.2,5.9,1.2c9.1,4.7,18.1,9.4,27.2,14.1"/>
				<path class="st2" d="M85.2,4404.5c-1.6,10.7-4.6,21.1-9,31"/>
				<g>
					<path class="st2" d="M110.8,4445.9c-3.3,0.7-6.7,1.2-10.1,1.6"/>
				</g>
				<path class="st2" d="M48.6,4363.1c-13.2,6.3-21.4,19.7-27.9,32.8c-5.9,11.7-11.1,25.6-5.8,37.6"/>
			</g>
			<g>
				<path class="st14" d="M81.8,3537.3c-0.7-1,0.5-0.9,0.8,0.9c0.5,2.5-0.1,5.2,0.4,7.8c0.9,4.3,3.7,8.8,8.3,9.4
					c11.8,1.8,12.1-14.3,11.3-21.8c1.1,10.1,2.3,20.3,3.4,30.4c1.7,14,8.7,37-9.3,40c-6,1-9-7-8-13c3-14,13-25,22.2-35.4"/>
				<path class="st14" d="M28.1,3513.5c-0.9-3.2,1-6.7,3.8-8.4c2.8-1.7,6.4-1.8,9.6-1.1c2.7,0.6,5.4,1.8,6.9,4.1
					c1.7,2.5,1.6,5.9,0.6,8.8c-1,2.9-2.9,5.3-4.6,7.8c-8,11.3-14.6,23.8-19.4,36.8c15.4-1.4,30.7-2.9,46.1-4.3"/>
			</g>
			<g>
				<g>
					<path class="st2" d="M57.9,4118.7c2.8,11.6,11.1,21.9,21.9,27"/>
					<path class="st2" d="M73.5,4122.9c-1.5,6-6.4,10.6-11.9,13.3c-5.5,2.7-11.7,3.7-17.8,4.7"/>
				</g>
				<path class="st2" d="M21.4,4127.1c5.2,1.9,10.3,3.7,15.5,5.6"/>
				<path class="st2" d="M23.2,4093.3c1.5-7.6,13.5-3.2,14.1,2.9c0.6,6.8-11.2,10.9-15.8,14"/>
				<path class="st2" d="M21.1,4146.1c22.7,8.9,46.7,17.9,69.8,25.6"/>
			</g>
			<g>
				<path class="st12" d="M21.4,3956c29.4-15,57.4-30,86.4-45"/>
				<path class="st12" d="M21.4,3869.5c4.4-1.5,9.4-0.5,13.4-0.5c26,4,51,4,76.2,5.7"/>
				<path class="st12" d="M75.8,3886.1c2.7,2.5,5.5,5,7.5,8.1c2,3.1,3.1,6.9,2.3,10.5c-0.8,3.6-3.6,6.6-7.1,7.7"/>
				<path class="st12" d="M77.3,3890.4c0.8-2.3,2-4.5,4-5.7c2-1.2,5-1.1,6.5,0.7c1.5,1.9,0.4,5.3-2,5.5c2.1-1.5,4.4-3,7-3.1
					c2.6-0.1,5.5,1.7,5.4,4.3c-0.1,2-1.7,3.5-3.4,4.7c-3.1,2.2-6.7,3.9-10.3,4.9"/>
				<path class="st12" d="M21.7,3839.7c-2-1.1-4.5,0.4-5.8,2.2c-1.2,1.6-2,3.6-1.7,5.6c0.3,2,1.9,3.8,3.9,3.9
					c2.4,0.1,4.3-2.4,4.5-4.8c0.2-2.4-0.9-4.8-1.9-6.9c1.4,3.9,4.4,7.6,8.5,8.4c4.1,0.8,8.9-2.5,8.4-6.6"/>
				<path class="st12" d="M74,3960.1c-4.4,0.3-7.6,5.6-5.7,9.5s8.7,4.1,10.5,0.2"/>
			</g>
			<g>
				<path class="st2" d="M21,4286.2c2.8,11.7,8.3,22.9,15.9,32.2"/>
				<path class="st2" d="M21.4,4299.6c2.9-2.1,5.6-4.4,8.1-7"/>
			</g>
			<g>
				<path class="st2" d="M101.6,4546.7c-0.5-3.5,2-7.1,5.5-7.8c3.4-0.6,7.2,1.8,7.9,5.3c0.7,3.4-1.6,7.2-5,8"/>
				<path class="st2" d="M106.6,4581.2c1.4-0.3,2.7-0.5,4.1-0.8"/>
			</g>
			<g>
				<path class="st2" d="M80,4226.9c13.8,2.1,25.1,12.6,31,25"/>
				<path class="st2" d="M104.1,4279.4c5.6,3.3,9.8,8.9,11.3,15.2"/>
			</g>
			<g>
				<path class="st2" d="M104.2,3435.1c0.8-2.8,2-5.4,3.5-7.8"/>
			</g>
			<path class="st15" d="M21.2,3480c0.5,2,2.5,4,3.5,6c3,14,5,27,7,41c4,23,8,44,17,65c2,4,4,8,9,10c1,0,3-1,4-2c7-13,7-27,5-41
				c-3-18-7-36-9-54c-1-14-1-28,1-42c1-5,2-9,2-14c3-12,5-23,10.6-34.5"/>
			<path class="st6" d="M110.7,4174.7c-2,2.3-4,4.3-5,7.3c-1,1-2,2-3,3c-3,6-5,12-9,17c2,3,5,5,8,4c4,0,6-6,9.2-9.1"/>
			<path class="st6" d="M25.8,4224.8c13-31.2,34.4-58.6,61-79.4c7.6-5.9,15.6-11.3,23.9-16.1"/>
		</g>
		<g>
			<g>
				<path class="st13" d="M18.1,5049.2c4,8.4,2.8,18.1,1.6,27.3c-0.5,3.6-1,7.3-1.4,10.9"/>
				<path class="st13" d="M39.2,5048.7c1.4,1.7,0.3,4.2-0.8,6.1c-3.1,5.4-5.5,11.2-7.1,17.2c-0.1,0.5-0.3,1.2,0.1,1.6
					c0.4,0.4,1,0.4,1.5,0.3c4.2-0.5,8.5-0.9,12.7-1.4c0.3,0,0.7-0.1,0.9-0.4c0.2-0.3-0.3-0.8-0.5-0.5"/>
				<path class="st13" d="M39.7,5049.9c3.6,11.8,0.4,25.3,5.7,36.5"/>
			</g>
			<g>
				<path class="st2" d="M21,4820.7c0.8,5.7,5.1,10.1,7.3,15.4c1.6,3.8,2.1,8,2.6,12.2c1.1,9.4,2.2,18.7,3.3,28.1"/>
				<path class="st2" d="M21.4,4855.6c3.1,0.7,6.2,1.4,9.3,2"/>
				<path class="st2" d="M49.6,4850.2c11.1,3.3,22.5,5.7,34,7.2c0.5,0.1,1.1,0.1,1.3-0.4c0.2-0.4-0.7-0.9-0.7-0.4"/>
				<path class="st2" d="M68.5,4838.7c-1.3,11.1-2.1,22.2-2.5,33.4"/>
				<path class="st2" d="M105.5,4838.6c2.8,8.9,0.6,18.5-1.7,27.6c-2.2,8.8-4.4,17.6-6.6,26.4"/>
				<path class="st2" d="M110.6,4866.5c-2.1-0.1-4.2-0.4-6.2-1"/>
				<path class="st2" d="M106.6,4841.3c1.3-0.2,2.6-0.3,4-0.3"/>
				<path class="st2" d="M110.9,4894.1c-4.9,0-9.7-0.9-14.3-2.6"/>
				<path class="st2" d="M105.5,4866.1c1.7,0,3.5-0.1,5.2,0"/>
			</g>
			<g>
				<path class="st2" d="M22.7,5230.1c-0.8,12.1-1.1,24.3-0.8,36.5c0,0.5,0.1,1.1,0.5,1.4c0.5,0.2,1.1-0.5,0.6-0.8"/>
				<path class="st2" d="M24.7,5284.9c7.4,0,14.8,0,22.3,0"/>
				<path class="st2" d="M24.2,5312c6.5,4.3,14.2,6.7,22.1,6.8"/>
				<path class="st2" d="M30.9,5300.8c1.4,7-2,13.9-6.7,19"/>
			</g>
			<g>
				<g>
					<path class="st16" d="M92.8,5395.2c4.6,5.7,10.9,9.7,17.9,11.6"/>
					<path class="st16" d="M106.3,5392.8c1,5.1-1.1,10.5-4.3,14.5c-3.3,4.1-7.6,7.1-11.9,10.1"/>
				</g>
			</g>
			<g>
				<path class="st2" d="M24.6,4977.2c29.2,8.8,57.2,19.8,86,28.3"/>
				<path class="st2" d="M21.1,4942.9c1-2.3,1.5-5.5,0-7.7"/>
				<path class="st2" d="M21,4926.1c29.7,8.9,59.7,17.9,89.4,26.8"/>
				<path class="st2" d="M32.3,4942.2c-0.1-1.8,1.1-3.6,2.8-4.1c1.7-0.5,3.7,0.2,4.6,1.8c1.5,2.6-0.4,6-2.7,7.8
					c-2.4,1.9-5.3,3.1-7.1,5.6c4.5,0.8,9,1.7,13.4,2.5c0.9,0.2,2.3-0.4,1.8-1.1"/>
				<path class="st2" d="M55.7,4963.9c0.8-1.2,2.6-0.9,3.9-0.5c6,2.1,11.8,4.6,17.3,7.6"/>
				<g>
					<path class="st2" d="M98.7,4957.8c0.8,1.9-1,3.9-2.5,5.3c-4.4,4-8.3,8.5-11.5,13.4c-0.3,0.4-0.6,1-0.4,1.5
						c0.2,0.5,0.8,0.7,1.3,0.8c4,0.8,7.9,1.7,11.9,2.5c0.3,0.1,0.7,0.1,0.9-0.1c0.2-0.2,0-0.8-0.3-0.6"/>
					<path class="st2" d="M98.8,4959.1c-0.2,11.7-7.1,22.9-5.7,34.6"/>
				</g>
				<g>
					<path class="st2" d="M115.7,4985.4c0-0.6-0.6-1-1.1-1.2c-1.6-0.6-3.5-0.2-4.9,0.7s-2.5,2.4-3.3,3.9c-0.9,1.8-1.5,4.2-0.1,5.7
						c1.3,1.4,3.8,1.2,5.3,0c1.5-1.2,2.4-3,3.1-4.8c0.6-1.5,1.2-3.3,0.1-4.5"/>
				</g>
				<g>
					<path class="st2" d="M17.2,5004.4c-0.2,3.6,0.2,7.2,1.4,10.6c0.4,1.3,1,2.7,2.1,3.7c1.5,1.5,3.8,1.8,5.9,2.1"/>
				</g>
			</g>
			<g>
				<g>
					<path class="st2" d="M49.3,5602.5c7.5,9.3,19.3,15.1,31.3,15.1"/>
					<path class="st2" d="M65.3,5599.7c1.2,6-1.3,12.4-5.1,17.2c-3.9,4.8-9,8.4-14.1,11.9"/>
				</g>
				<path class="st2" d="M89.1,5671c-2.4-9.2,20.2-9.1,13.4,4c-2.5,4.8-6.2,9-8.8,13.8c-2.7,4.8-4.9,9.8-6.8,14.9
					c6.8-0.6,13.7-1.3,20.5-1.9"/>
				<path class="st2" d="M89.5,5606.5c8.2-1,16.4-1.3,24.7-1"/>
				<path class="st2" d="M24.2,5644.3c28.9,0.3,57.8-0.6,86.6-2.2"/>
				<g>
					<path class="st2" d="M24.2,5603.8c9.6,4.7,10.3,19.8,0.1,24.3"/>
					<path class="st2" d="M24.2,5587.5c4.4,0.1,8.8,0.3,13.2,0.4"/>
				</g>
				<path class="st2" d="M67.4,5667.1c1.5,0.6,1.8,2.7,1.8,4.4c0,10.6,0,21.2,0,31.9"/>
			</g>
			<path class="st2" d="M110.7,5070.4c-5.5,7.7-9.9,16.2-13.2,25.1c4.3-0.4,8.7-0.8,13-1.2"/>
			<path class="st2" d="M99.7,5062.7c-1.7-6.3,7-7.6,11.1-5.8"/>
			<g>
				<path class="st12" d="M24.1,5175.4c7.1,1.7,12.5-4,12.4-10.9c-0.1-7-5.4-13-12.4-13.7"/>
			</g>
			<g>
				<path class="st2" d="M51,5747c19.8-0.2,39.6-0.5,59.4-0.9"/>
				<path class="st2" d="M73,5756c-6.7-2.9-13.4-5.8-20.1-8.7"/>
				<path class="st2" d="M53.4,5747.5c5.9-3.4,12-6.4,18.3-9"/>
			</g>
			<g>
				<path class="st2" d="M64.7,4726.4c0.9-0.6,1.7,0.9,1.8,2c0.9,13.3-3,26.8-10.7,37.6"/>
				<path class="st2" d="M52.1,4735.6c7.8,8.6,18.7,14.4,30.2,16.1"/>
				<path class="st2" d="M95.5,4729.6c5.1-1.5,10.1-3.2,15.1-5"/>
				<path class="st2" d="M98.9,4716c4.1,7.9,8.2,15.9,12.4,23.8"/>
			</g>
			<g>
				<path class="st2" d="M90.8,5222.8c3-2.7,6.1-5.5,9.9-6.7c3.8-1.3,8.6-0.7,11,2.5c2.4,3.2,1,8.9-3,9.6"/>
			</g>
			<g>
				<path class="st2" d="M32.4,5781.8c-1.8,8-3.6,16-5.4,24c-0.2,0.7-0.3,1.5-0.1,2.2c0.7,1.9,3.5,1.5,5.4,0.8
					c9.3-3.6,18.5-7.2,27.8-10.8"/>
				<path class="st2" d="M29.5,5782.3c1.6,0.2,2.8,1.6,3.8,2.9c7.2,8.9,14.5,17.7,21.7,26.6"/>
				<path class="st2" d="M42.7,5832.8c12.5-2.7,24.7-6.7,36.3-11.9"/>
				<path class="st2" d="M60.3,5845c7.2-2.1,14.2-5.1,20.7-9"/>
				<path class="st2" d="M79.1,5837.3c-0.3,16.7,2.3,33.5,7.6,49.4"/>
				<path class="st2" d="M72.5,5862.2c5.6-1.4,11-4,15.6-7.5"/>
			</g>
			<g>
				<path class="st17" d="M110.6,5140.2c-2.8,0.4-5.5,0.8-8.3,1"/>
				<path class="st17" d="M110.9,5135.8c-2.2,1.8-4.6,3.4-7.1,4.8"/>
				<path class="st17" d="M110.8,5149.9c-6.2-2.9-11.9-7-16.4-12.2"/>
			</g>
			<g>
				<g>
					<path class="st2" d="M82.6,5485.3c0,0-2.8-1-7.8-1.6c-5.1-0.5-12.3-1.3-21-1.2c-8.6,0.1-19.1,1.2-28.8,6.6
						c-2.3,1.4-4.9,2.8-6.4,5.1c-1.6,2.4-1.3,5.7,0.3,8c1.5,2.5,4.1,4,6.8,5.1c2.7,1,5.5,1.8,8.4,2.5c11.3,2.7,23.1,3,34,2.1
						c5.4-0.5,10.7-1.2,15.6-2.1c2.5-0.5,4.8-1,7.1-1.5c2.3-0.5,4.5-1,6.5-2c4-1.7,6.6-6.1,5.1-9.5c-0.7-1.7-2-2.8-3.2-3.7
						c-1.2-0.9-2.4-1.7-3.5-2.3c-2.2-1.3-4.1-2.1-5.3-2.6c-1.3-0.5-2-0.7-2-0.7"/>
				</g>
				<g>
					<path class="st2" d="M16,5493.9c0,0,2.4-6.2,6-15.6c3.6-9.3,8.4-21.8,13.5-34.2c5.1-12.4,10.6-24.6,15.1-33.5
						c4.5-9,7.8-14.8,7.8-14.8"/>
				</g>
				<g>
					<path class="st2" d="M62.2,5396.5c0,0,4,5.7,8.3,15.1c4.4,9.4,10.2,21.9,16.1,34.4c5.9,12.5,11.8,25,14.1,35.2
						c1.5,5,2.4,9.2,3.2,12.1c0.7,2.9,1.2,4.6,1.2,4.6"/>
				</g>
				<g>
					<path class="st2" d="M58.9,5370.7c0,0-0.2,1.8,0.1,3.6c0.3,1.8,0.9,3.5,0.9,3.5"/>
				</g>
				<g>
					<path class="st2" d="M59.4,5384.5c0,0,0.4,3,0.4,6c0,3-0.5,6-0.5,6"/>
				</g>
				<g>
					<path class="st2" d="M59.2,5410.2c0,0,0.4,2.5,0.4,4.9c0,2.5-0.4,4.9-0.4,4.9"/>
				</g>
				<g>
					<path class="st2" d="M60,5428.1c0,0,0.3,2.7,0.3,5.3c0,2.7-0.1,5.3-0.1,5.3"/>
				</g>
				<g>
					<line class="st2" x1="59.9" y1="5446.7" x2="60" y2="5456.6"/>
				</g>
				<g>
					<line class="st2" x1="60.4" y1="5465.6" x2="60.7" y2="5473.8"/>
				</g>
				<g>
					<path class="st2" d="M61.4,5492.8c0,0,0.4,1.6,0.4,3.2c0,1.6-0.3,3.2-0.3,3.2"/>
				</g>
				<g>
					<line class="st2" x1="62.4" y1="5507.3" x2="62.7" y2="5524"/>
				</g>
				<g>
					<line class="st2" x1="63.6" y1="5534" x2="63.3" y2="5544.6"/>
				</g>
				<g>
					<line class="st2" x1="63.7" y1="5554.1" x2="64.1" y2="5564.4"/>
				</g>
				<g>
					<path class="st2" d="M57.4,5349.2c0,0,1.4,2.9,1.8,6.1c0.5,3.2-0.1,6.4-0.1,6.4"/>
				</g>
			</g>
			<path class="st6" d="M24.2,5418.9c5.9,0.8,11.7,2.1,17.5,3.7"/>
		</g>
	</g>
</g>
</svg>
