<?xml version="1.0" encoding="utf-8"?>
<!-- Generator: Adobe Illustrator 22.1.0, SVG Export Plug-In . SVG Version: 6.00 Build 0)  -->
<svg version="1.1" id="Слой_1" xmlns="http://www.w3.org/2000/svg" xmlns:xlink="http://www.w3.org/1999/xlink" x="0px" y="0px"
	 viewBox="0 0 283.5 283.5" style="enable-background:new 0 0 283.5 283.5;" xml:space="preserve">
<style type="text/css">
	.st0{fill:#0E0F0F;}
</style>
<g>
	<g>
		<g>
			<g>
				<path class="st0" d="M36.7,87.9C36.7,87.9,36.7,87.9,36.7,87.9c-0.9,0-1.6-0.7-1.6-1.6l0-4.9c0-0.6,0.3-1.1,0.8-1.4l4.2-2.5
					c0.8-0.5,1.8-0.2,2.2,0.6c0.5,0.8,0.2,1.8-0.6,2.2l-3.4,2l0,3.9C38.4,87.1,37.6,87.9,36.7,87.9z"/>
			</g>
			<g>
				<path class="st0" d="M49.7,75.4c-0.6,0-1.1-0.3-1.4-0.8c-0.5-0.8-0.2-1.8,0.6-2.2l8.7-5.1c0.8-0.5,1.8-0.2,2.2,0.6
					c0.5,0.8,0.2,1.8-0.6,2.2l-8.7,5.1C50.2,75.3,50,75.4,49.7,75.4z M67.2,65.1c-0.6,0-1.1-0.3-1.4-0.8c-0.5-0.8-0.2-1.8,0.6-2.2
					l8.7-5.1c0.8-0.5,1.8-0.2,2.2,0.6c0.5,0.8,0.2,1.8-0.6,2.2L68,64.9C67.7,65.1,67.4,65.1,67.2,65.1z M84.6,54.9
					c-0.6,0-1.1-0.3-1.4-0.8c-0.5-0.8-0.2-1.8,0.6-2.2l8.7-5.1c0.8-0.5,1.8-0.2,2.2,0.6c0.5,0.8,0.2,1.8-0.6,2.2l-8.7,5.1
					C85.2,54.8,84.9,54.9,84.6,54.9z M102.1,44.6c-0.6,0-1.1-0.3-1.4-0.8c-0.5-0.8-0.2-1.8,0.6-2.2l8.7-5.1c0.8-0.5,1.8-0.2,2.2,0.6
					c0.5,0.8,0.2,1.8-0.6,2.2l-8.7,5.1C102.7,44.5,102.4,44.6,102.1,44.6z M119.6,34.3c-0.6,0-1.1-0.3-1.4-0.8
					c-0.5-0.8-0.2-1.8,0.6-2.2l8.7-5.1c0.8-0.5,1.8-0.2,2.2,0.6c0.5,0.8,0.2,1.8-0.6,2.2l-8.7,5.1C120.2,34.2,119.9,34.3,119.6,34.3
					z M137.1,24c-0.6,0-1.1-0.3-1.4-0.8c-0.5-0.8-0.2-1.8,0.6-2.2l8.7-5.1c0.8-0.5,1.8-0.2,2.2,0.6c0.5,0.8,0.2,1.8-0.6,2.2
					l-8.7,5.1C137.6,24,137.4,24,137.1,24z"/>
			</g>
			<g>
				<path class="st0" d="M158.8,16.2L158.8,16.2c-0.9,0-1.6-0.7-1.6-1.6v-2l-1.7,1c-0.8,0.4-1.8,0.2-2.2-0.6
					c-0.5-0.8-0.2-1.8,0.6-2.2l4.2-2.5c0.5-0.3,1.1-0.3,1.6,0c0.5,0.3,0.8,0.8,0.8,1.4l0,4.9C160.4,15.4,159.7,16.2,158.8,16.2z"/>
			</g>
			<g>
				<path class="st0" d="M158.7,137.8L158.7,137.8c-0.9,0-1.6-0.7-1.6-1.6l0-10.1c0-0.9,0.7-1.6,1.6-1.6l0,0c0.9,0,1.6,0.7,1.6,1.6
					l0,10.1C160.3,137.1,159.5,137.8,158.7,137.8z M158.7,117.6L158.7,117.6c-0.9,0-1.6-0.7-1.6-1.6l0-10.1c0-0.9,0.7-1.6,1.6-1.6
					l0,0c0.9,0,1.6,0.7,1.6,1.6l0,10.1C160.3,116.8,159.6,117.6,158.7,117.6z M158.7,97.3L158.7,97.3c-0.9,0-1.6-0.7-1.6-1.6l0-10.1
					c0-0.9,0.7-1.6,1.6-1.6l0,0c0.9,0,1.6,0.7,1.6,1.6l0,10.1C160.3,96.5,159.6,97.3,158.7,97.3z M158.7,77L158.7,77
					c-0.9,0-1.6-0.7-1.6-1.6l0-10.1c0-0.9,0.7-1.6,1.6-1.6l0,0c0.9,0,1.6,0.7,1.6,1.6l0,10.1C160.3,76.3,159.6,77,158.7,77z
					 M158.7,56.7L158.7,56.7c-0.9,0-1.6-0.7-1.6-1.6l0-10.1c0-0.9,0.7-1.6,1.6-1.6l0,0c0.9,0,1.6,0.7,1.6,1.6l0,10.1
					C160.3,56,159.6,56.7,158.7,56.7z M158.7,36.4L158.7,36.4c-0.9,0-1.6-0.7-1.6-1.6l0-10.1c0-0.9,0.7-1.6,1.6-1.6l0,0
					c0.9,0,1.6,0.7,1.6,1.6l0,10.1C160.4,35.7,159.6,36.4,158.7,36.4z"/>
			</g>
			<g>
				<path class="st0" d="M154.4,155.3c-0.6,0-1.1-0.3-1.4-0.8c-0.5-0.8-0.2-1.8,0.6-2.2l3.4-2l0-3.9c0-0.9,0.7-1.6,1.6-1.6l0,0
					c0.9,0,1.6,0.7,1.6,1.6l0,4.9c0,0.6-0.3,1.1-0.8,1.4l-4.2,2.5C155,155.2,154.7,155.3,154.4,155.3z"/>
			</g>
			<g>
				<path class="st0" d="M49.6,216.9c-0.6,0-1.1-0.3-1.4-0.8c-0.5-0.8-0.2-1.8,0.6-2.2l8.7-5.1c0.8-0.5,1.8-0.2,2.2,0.6
					c0.5,0.8,0.2,1.8-0.6,2.2l-8.7,5.1C50.1,216.9,49.8,216.9,49.6,216.9z M67,206.7c-0.6,0-1.1-0.3-1.4-0.8
					c-0.5-0.8-0.2-1.8,0.6-2.2l8.7-5.1c0.8-0.5,1.8-0.2,2.2,0.6c0.5,0.8,0.2,1.8-0.6,2.2l-8.7,5.1C67.6,206.6,67.3,206.7,67,206.7z
					 M84.5,196.4c-0.6,0-1.1-0.3-1.4-0.8c-0.5-0.8-0.2-1.8,0.6-2.2l8.7-5.1c0.8-0.5,1.8-0.2,2.2,0.6c0.5,0.8,0.2,1.8-0.6,2.2
					l-8.7,5.1C85.1,196.3,84.8,196.4,84.5,196.4z M102,186.1c-0.6,0-1.1-0.3-1.4-0.8c-0.5-0.8-0.2-1.8,0.6-2.2l8.7-5.1
					c0.8-0.5,1.8-0.2,2.2,0.6c0.5,0.8,0.2,1.8-0.6,2.2l-8.7,5.1C102.6,186,102.3,186.1,102,186.1z M119.5,175.8
					c-0.6,0-1.1-0.3-1.4-0.8c-0.5-0.8-0.2-1.8,0.6-2.2l8.7-5.1c0.8-0.5,1.8-0.2,2.2,0.6c0.5,0.8,0.2,1.8-0.6,2.2l-8.7,5.1
					C120,175.8,119.8,175.8,119.5,175.8z M137,165.6c-0.6,0-1.1-0.3-1.4-0.8c-0.5-0.8-0.2-1.8,0.6-2.2l8.7-5.1
					c0.8-0.5,1.8-0.2,2.2,0.6c0.5,0.8,0.2,1.8-0.6,2.2l-8.7,5.1C137.5,165.5,137.2,165.6,137,165.6z"/>
			</g>
			<g>
				<path class="st0" d="M36.6,224.5c-0.3,0-0.6-0.1-0.8-0.2c-0.5-0.3-0.8-0.8-0.8-1.4l0-4.9c0-0.9,0.7-1.6,1.6-1.6l0,0
					c0.9,0,1.6,0.7,1.6,1.6v2l1.7-1c0.8-0.5,1.8-0.2,2.2,0.6c0.5,0.8,0.2,1.8-0.6,2.2l-4.2,2.5C37.2,224.5,36.9,224.5,36.6,224.5z"
					/>
			</g>
			<g>
				<path class="st0" d="M36.6,209.5L36.6,209.5c-0.9,0-1.6-0.7-1.6-1.6l0-10.1c0-0.9,0.7-1.6,1.6-1.6l0,0c0.9,0,1.6,0.7,1.6,1.6
					l0,10.1C38.3,208.8,37.5,209.5,36.6,209.5z M36.6,189.2L36.6,189.2c-0.9,0-1.6-0.7-1.6-1.6l0-10.1c0-0.9,0.7-1.6,1.6-1.6l0,0
					c0.9,0,1.6,0.7,1.6,1.6l0,10.1C38.3,188.5,37.5,189.2,36.6,189.2z M36.7,169L36.7,169c-0.9,0-1.6-0.7-1.6-1.6l0-10.1
					c0-0.9,0.7-1.6,1.6-1.6l0,0c0.9,0,1.6,0.7,1.6,1.6l0,10.1C38.3,168.2,37.6,169,36.7,169z M36.7,148.7L36.7,148.7
					c-0.9,0-1.6-0.7-1.6-1.6l0-10.1c0-0.9,0.7-1.6,1.6-1.6l0,0c0.9,0,1.6,0.7,1.6,1.6l0,10.1C38.3,148,37.6,148.7,36.7,148.7z
					 M36.7,128.4L36.7,128.4c-0.9,0-1.6-0.7-1.6-1.6l0-10.1c0-0.9,0.7-1.6,1.6-1.6l0,0c0.9,0,1.6,0.7,1.6,1.6l0,10.1
					C38.3,127.7,37.6,128.4,36.7,128.4z M36.7,108.1L36.7,108.1c-0.9,0-1.6-0.7-1.6-1.6l0-10.1c0-0.9,0.7-1.6,1.6-1.6l0,0
					c0.9,0,1.6,0.7,1.6,1.6l0,10.1C38.3,107.4,37.6,108.1,36.7,108.1z"/>
			</g>
		</g>
		<g>
			<path class="st0" d="M124.7,275c-0.3,0-0.6-0.1-0.8-0.2c-0.5-0.3-0.8-0.8-0.8-1.4l0.1-141.5c0-0.6,0.3-1.1,0.8-1.4l122-71.7
				c0.5-0.3,1.1-0.3,1.6,0c0.5,0.3,0.8,0.8,0.8,1.4l-0.1,141.5c0,0.6-0.3,1.1-0.8,1.4l-122,71.7C125.3,274.9,125,275,124.7,275z
				 M126.5,132.8l-0.1,137.8l118.8-69.8L245.3,63L126.5,132.8z"/>
		</g>
		<g>
			<path class="st0" d="M124.9,133.5c-0.3,0-0.6-0.1-0.8-0.2L35.9,82.8c-0.5-0.3-0.8-0.8-0.8-1.4c0-0.6,0.3-1.1,0.8-1.4l122-71.7
				c0.5-0.3,1.1-0.3,1.6,0l88.1,50.5c0.5,0.3,0.8,0.8,0.8,1.4c0,0.6-0.3,1.1-0.8,1.4l-122,71.7C125.4,133.4,125.2,133.5,124.9,133.5
				z M40,81.4l84.9,48.6l118.8-69.8l-84.9-48.6L40,81.4z"/>
		</g>
		<g>
			<path class="st0" d="M124.7,275c-0.3,0-0.6-0.1-0.8-0.2l-88.1-50.5c-0.5-0.3-0.8-0.8-0.8-1.4l0.1-141.5c0-0.6,0.3-1.1,0.8-1.4
				c0.5-0.3,1.1-0.3,1.6,0l88.1,50.5c0.5,0.3,0.8,0.8,0.8,1.4l-0.1,141.5c0,0.6-0.3,1.1-0.8,1.4C125.3,274.9,125,275,124.7,275z
				 M38.2,222l84.9,48.6l0.1-137.8L38.4,84.2L38.2,222z"/>
		</g>
	</g>
	<g>
		<path class="st0" d="M246.8,203.3c-0.3,0-0.6-0.1-0.8-0.2l-3.7-2.1c-0.8-0.4-1-1.4-0.6-2.2c0.4-0.8,1.4-1,2.2-0.6l3.7,2.1
			c0.8,0.4,1,1.4,0.6,2.2C247.9,203,247.3,203.3,246.8,203.3z M234.6,196.4c-0.3,0-0.6-0.1-0.8-0.2l-8.4-4.8c-0.8-0.4-1-1.4-0.6-2.2
			c0.4-0.8,1.4-1,2.2-0.6l8.4,4.8c0.8,0.4,1,1.4,0.6,2.2C235.8,196.1,235.2,196.4,234.6,196.4z M217.8,186.7c-0.3,0-0.6-0.1-0.8-0.2
			l-8.4-4.8c-0.8-0.4-1-1.4-0.6-2.2c0.4-0.8,1.4-1,2.2-0.6l8.4,4.8c0.8,0.4,1,1.4,0.6,2.2C218.9,186.4,218.3,186.7,217.8,186.7z
			 M200.9,177c-0.3,0-0.6-0.1-0.8-0.2l-8.4-4.8c-0.8-0.4-1-1.4-0.6-2.2c0.4-0.8,1.4-1,2.2-0.6l8.4,4.8c0.8,0.4,1,1.4,0.6,2.2
			C202,176.7,201.4,177,200.9,177z M184,167.3c-0.3,0-0.6-0.1-0.8-0.2l-8.4-4.8c-0.8-0.4-1-1.4-0.6-2.2c0.4-0.8,1.4-1,2.2-0.6
			l8.4,4.8c0.8,0.4,1,1.4,0.6,2.2C185.1,167.1,184.5,167.3,184,167.3z M167.1,157.7c-0.3,0-0.6-0.1-0.8-0.2l-8.4-4.8
			c-0.8-0.4-1-1.4-0.6-2.2c0.4-0.8,1.4-1,2.2-0.6l8.4,4.8c0.8,0.4,1,1.4,0.6,2.2C168.2,157.4,167.7,157.7,167.1,157.7z"/>
	</g>
</g>
</svg>
