<svg xmlns="http://www.w3.org/2000/svg" viewBox="0 0 560.92 496.25"><defs><style>.cls-1{fill:#e76650;opacity:0.3;}.cls-2{fill:#8d90a1;}.cls-3{fill:#010218;}.cls-4{fill:#05061c;}.cls-5{fill:#e7e7e8;}.cls-6{fill:#817e9e;}.cls-7{fill:#7f7d9c;}.cls-8{fill:#8380a0;}.cls-9{fill:#8582a1;}.cls-10{fill:#111227;}.cls-11{fill:#9997b5;}.cls-12{fill:#817f9e;}.cls-13{fill:#0d0e23;}.cls-14{fill:#131328;}.cls-15{fill:#0e0f24;}.cls-16{fill:#1b1c30;}.cls-17{fill:#555664;}.cls-18{fill:#b9bac0;}.cls-19{fill:#1f2033;}.cls-20{fill:#4b4c5b;}.cls-21{fill:#252639;}.cls-22{fill:#cbcbd0;}.cls-23{fill:#5b5d6c;}.cls-24{fill:#cecfd3;}.cls-25{fill:#404152;}.cls-26{fill:#9498a9;}.cls-27{fill:#c3bfdf;}.cls-28{fill:#25273c;}.cls-29{fill:#38394d;}.cls-30{fill:#4d4f62;}.cls-31{fill:#17192e;}.cls-32{fill:#e9e9e9;}.cls-33{fill:#aaa7c7;}.cls-34{fill:#5e5c6a;}.cls-35{fill:#575564;}.cls-36{fill:#a3a3aa;}.cls-37{fill:#111226;}.cls-38{fill:#242538;}.cls-39{fill:#c7c7ca;}.cls-40{fill:#d4d5d6;}.cls-41{fill:#dadbdc;}.cls-42{fill:#3c3c49;}.cls-43{fill:#2c2d3f;}.cls-44{fill:#7f7c9d;}.cls-45{fill:#9894b5;}.cls-46{fill:#827fa0;}.cls-47{fill:#5b5b69;}.cls-48{fill:#393947;}.cls-49{fill:#b8b7a5;}.cls-50{fill:#d5d4b6;}.cls-51{fill:#3c2a34;}.cls-52{fill:#50d861;}.cls-53{fill:#05d627;}.cls-54{fill:#fff9ef;}.cls-55{fill:#061d3a;}</style></defs><title>payment-suc-img_1</title><g id="Слой_2" data-name="Слой 2"><g id="Слой_1-2" data-name="Слой 1"><ellipse class="cls-1" cx="248.44" cy="481.05" rx="248.44" ry="15.2"/><path class="cls-2" d="M458.2,262.67c2.31,7.9,8.71,12.39,15.07,16.13,13.42,7.88,28.11,13.82,37.48,27.23,1.27,1.82,3.49.83,5.1,1.66-.56,3.83.84,7.37,1.86,10.89,2.83,9.81,1.32,18.9-3.86,27.52l-1.48,1.54c-2.41,1.32-5,2.34-7.15,4.09-2.41,1.28-5.18,1.92-7.16,4l.14-.17c-1.1,2.1-3.1,3.09-5.1,4.08-2.91,1.56-6.18,2.28-9.06,3.89s-6.35,2.06-9.5,3.17c-11.06,3.16-14.76,7.22-14.85,16.3,3.38,4.65,5.18,10.33,9.39,14.44.44,15.11-2.39,19-17.54,23.92-1.33,0-2.78-.35-4,.07-26.93,9.59-52.91,4.43-78.63-5-7.87-2.87-14.58-7.69-21-12.95-26.44-21.77-49.27-47-71-73.37-5.38-6.52-10.38-13.55-17.88-18-11.42-14.61-23.45-28.88-27.37-47.79-.53-2.56-2.18-5.46,0-7.58,2.59-2.58,5.44.07,8.11.78a10.56,10.56,0,0,1,4.84,2.63c.6,6.57,6.12,4.36,9.78,5.44a7.57,7.57,0,0,1,3,1.06c2,4.13,5.66,3.51,9.21,3.32,17.32-2.16,34.82-2.6,52-5.77a64.15,64.15,0,0,1,15-.61c1.51.12,3.76.13,4.2,1.24,1.94,4.9,4.25,1.79,6.51.6a29.82,29.82,0,0,1,3.8-2,11.92,11.92,0,0,1,2-.69c3.08-.39,6.08-1,8.19-3.6,3.55-3.61,7.42-6.92,10.19-11.23,3.51-5.47,3.4-10.77-1.79-15-8.77-7.12-16.91-15.37-28.88-17.24-2.77-.44-5.45-2.21-4.9-5.29.5-2.74,4.13-.79,5.12-1.55,4.84-3.7,10.7-2.52,15.9-4.15,3.3,3.92,7.24,6.63,12.6,6.63-.3,1,.56-.23.27.77s-1.06,1.15-1.62,1.67a7.5,7.5,0,0,1,2.32-.07,20.11,20.11,0,0,1,6.91,1.85c25,12.82,51.39,23.06,73.2,41.45a13,13,0,0,0,5.58,2.9c1.84.56,3.77,1,4.92,2.75"/><path class="cls-3" d="M354,204.72c-5.89,5.63-14,3.21-20.76,5.73.4,1.69,1.75,3.29,3.08,3.27,14.53-.2,22.41,11,32.41,18.56,6.18,4.69,5.84,9.94,2,16a56.37,56.37,0,0,1-11.68,13c-3,2.24-6.88,1.44-10,3.15l.08,0c-2,1.46-4.09-.92-6.13.05-2.11,1.43-4.74-.07-6.87,1.23-24.05,1.33-47.83,5.78-71.94,6.43-.34-4.24-4.87-2.41-6.64-4.59l-3.09-.2c-4.33-.37-7.34-2.85-9.82-6.16-4-1.32-7.95-2.62-12.47-4.11,1.18,10.45,5,19.53,10.2,28.33,5.33,9.1,12.73,16.89,16.7,26.81-2.69-.21-5.58,1.08-8-1.09-1.28-1.2-.66-4.39-3.15-4-8.94,1.25-15.5-7.18-24.4-5.75-17.05-6.54-31.64-17.26-46.08-28-24.75-18.37-49-37.44-73.41-56.21l-4.82-3.72c4.42-3.45,8.58-.69,12,.44,19.4,6.37,38.54,13.5,55.82,24.71,8.7,5.65,17.79,10.38,28,12.72,5.84-1.33,11.31,2.85,18,.89-3.4-4.18-7.92-5.34-12.39-6.33-3.69-.81-7.23-1.73-10.27-4.06L168.7,234.3c4.64-4.32,9.47-4,13.78-5.27,2.3-2.72,5.5-.64,8.14-1.57,3.7-.51,7.65-.26,10.46-3.49,1.55-.8,2.83-.11,4.12.67.64.38,1.25.8,1.88,1.2,10,2.47,19.34,1.51,27.5-5.4a3.78,3.78,0,0,1,2.21,0c2,1.27,1.94,5.4,5.5,4.18,3.13-1.07,3.4-4.12,3.72-6.93a20.25,20.25,0,0,1,.51-3.21c-2.11-5.9-10.3-11.3-15.83-10-2.45.57-4.12.72-5-2-.83-9.89-4.16-19.2-6.6-28.71a24.59,24.59,0,0,0-3.18-7.3c-5.06-7.81-13.1-7.29-17.56.92-1.33,2.43-.24,6.75-4.84,6.94a52.51,52.51,0,0,1-.05-19.36c6.09-24.46,21.24-40.38,44.64-49.66,21-8.32,41.76-3.39,62.7-1.42,1.15,1.83-.67,2.25-1.49,3.15.86,3.5,4.56,1.67,6.36,3.4,1.89,2.09,5.57,1.22,6.93,4.2-.29,2-4.49,0-3.53,3.37,17.88,17.54,24.85,39.67,27,63.87,1,11.39,6.84,19.22,17.9,22.84"/><path class="cls-4" d="M513.85,346.1c-.34-1.23-1.37-2.94-.9-3.64,6.62-9.82,3.85-19.9.78-29.86-.86-2.79.1-3.84,2.13-4.91,9.3.19,16.44-5.17,24-9.45,2.89-1.65,5.88-3.38,8.56-.32s1.59,6.22-.57,9.37a35.9,35.9,0,0,1-13,11.32c-.73,2.47,1.08,2.44,2.58,2.47,4.67.09,9.33,0,14,0,8.06.42,8.06.42,7.75,10.73C555,339,547.28,336,541.35,338.06c-2.11,1.36-4.68,0-6.85,1.2s.56,1.24.38,1.94l6.51,2.95c2.44,1.33,5.07,2.39,6.54,5-5,8.2-11.77,9.93-21.43,4.95-4.41-2.27-8.44-5.3-12.65-8"/><path class="cls-5" d="M194.9,174.33c-.15-6.48,2.08-12.16,7.93-14.93,5.68-2.69,11.49-.85,14.26,4.87,5.87,12.14,9.81,24.94,9.71,38.67-.32,2.14-.1,4.37-1,6.42-1.75,5.71-3.15,11.44-1.38,17.44a32.84,32.84,0,0,1-19.31.09,2.73,2.73,0,0,0-.55-1.18c-2.9-4.39-4-9.38-5-14.42-.24-2.21-1.51-4.08-2.09-6.18-.18-3.54-1.61-7-.76-10.6,0-.92-.05-1.83-.08-2.75-2.71-5.59-4.47-11.29-1.76-17.43"/><path class="cls-4" d="M451.53,421.33c.05-.26,0-.71.17-.76,10.58-4.12,16-12.15,17.37-23.16,4.07,6.63,3.46,14.81,7.86,21.58a27.87,27.87,0,0,0,16.15,12c4.13,1.28,10.55,1.58,9.26,7.56-1,4.47-6.43,6.4-11.34,6.78-12,.93-20.58-5.89-28.79-13.22-3.76-3.37-7.12-7.17-10.68-10.77"/><path class="cls-6" d="M458.2,262.67c-1.73-.23-3.67.26-5-1.43,3.45-4.18,8.81-4.65,13.29-6.82,6.35-3.07,12.32-6.51,15.2-13.4,1.25-3,2.09-6.27,0-9.16-2.29-3.12-5.65-2.24-8.83-1.72-5.75,1-11.16,3.7-17.19,3.22-3.58-1-5.32-3.26-4.6-7.08,10.81-9.92,16.44-22.66,19.85-36.6a46.75,46.75,0,0,0,.67-17.48c-.25-1.81-.64-3.94-2.78-4.47-1.78-.44-2.85,1.12-3.83,2.37-6.45,8.2-14.33,15-21.6,22.47-2.8,2.87-4.3,5.38-2.66,9.81,3.8,10.31-.24,18.59-8.16,25.4a3.55,3.55,0,0,1-3.85-2.07c-.08-.52-.23-1.17.05-1.53,7.37-9.37,7.87-18.93.95-28.76a14.39,14.39,0,0,1,.71-4.74c3.42-8.07,3.93-17.23,9.12-24.65,2.84.79.82,3.63,2.14,5.07a77.62,77.62,0,0,1-7.09,20.22c4.07,1.85,5.77-1.67,7.76-3.76,7.33-7.7,14.36-15.68,21.67-23.4,5.38-5.69,7.27-5.23,10.78,1.92,3.61,7.34,3.35,15.09,1.49,22.6-3.65,14.74-8.58,29-21.33,40.08,6.95-.29,12.34-2.59,17.95-3.9,4.45-1,8.91-1.87,12.54,2.27,3.85,4.37,3.74,9.15,1.77,14.17-5.18,13.21-17.07,17.33-29,21.37"/><path class="cls-7" d="M196.74,194.51c1.8,3.37,3.23,6.82,2,10.75-10.07-.94-17.43-7-24.67-13.18-2.82-2.41-5.21-5.36-8.56-7.09-3.51-1.8-5-.36-4.71,3.33a10.77,10.77,0,0,0,1.59,5.31c7.62,10.71,12.18,23.82,24.24,31.06,1.58.95,3.1,2.12,3.55,4.11-2.49,2.82-5.15-.4-7.71.24-9.25-7.44-15.82-17-21.4-27.32a65.88,65.88,0,0,1-3.88-7.86c-2.07-5.37-3.95-11.7,1.72-15.24s10.22,1.93,13.64,5.48c4.89,5.08,10.59,8.71,16.24,12.66,4.18,2.92,6.42,2.51,7.94-2.25"/><path class="cls-8" d="M414.46,135.33c2.16-11.18,4.48-22.32,8.27-33.1,1.47-4.19,3.64-8.37,8.19-9,4.9-.64,8.27,3,10.78,6.94a40.07,40.07,0,0,1,6.56,22.66c-.23,8.7,1.26,17.51-1.4,26.08-4.16-4.49-1.09-10.39-3-15.3-1.46-7.27.06-14.89-2.6-22-1.86-5-3.53-11.66-9.28-11.62-5.35,0-5.39,7-6.8,11.37-1.95,6.06-3,12.37-4.51,18.55-.73,3-1.46,6.28-4.64,8-1.49-.28-2.29-1-1.53-2.58"/><path class="cls-9" d="M414.46,135.33l1.73,2.17c2.57,3.7.24,7.21-.58,10.67-4.66,19.52-15.44,35.55-29,49.88-3.67,3.88-6.48,8.49-10.51,12-2.61,2.29-5.26,4.57-9.06,4.52-5.14-.47-.41-2.15-.4-3.25,21.93-20,40.37-42.21,46.47-72.38a24,24,0,0,1,1.37-3.64"/><path class="cls-10" d="M459.69,383c-3.36-2.59-4-5.56-.84-8.68,4.32-4.25,8.46-8.9,15.19-9.21.86,2-.63,2.73-2,3.18s-2.13.73-.68,2c3.23,3.3,6.81.48,11,.46-5.77,8.34-14.44,9.89-22.66,12.27"/><path class="cls-11" d="M190.38,241.69c6.27,1.46,12.77,1.35,18.82,4.55a16,16,0,0,1,8.32,9.55c-7.82-2-15.62-.59-22.46-4.6l-4.68-9.5"/><path class="cls-12" d="M445.37,132.7c2.87,5.2.67,10.86,1.49,16.25l-5.19,22.15c-1.64-1.35-1.24-3.29-1.46-5-2.31-2.47-1.89-5.45-1.25-8.28,1.91-8.41,1.38-17.46,6.41-25.08"/><path class="cls-13" d="M223.55,301.23c5.65.09,12-3.69,16.3,3.87.72,1.28,5,.95,7.59.67,4.81-.5,4.51,2.06,3.66,5.25a2.58,2.58,0,0,0-.76.22c-5,3.38-1.49-5.14-5.49-3.87-3.17,1-6.64,1.08-10,1.57.22-8.45-8.69-3.46-11.32-7.71"/><path class="cls-14" d="M194.9,174.33q.89,8.71,1.76,17.43c-1-.15-2.42.25-2.64-1.07-1.94-11.87-4.77-23.74-.55-35.72.94,6.42-1.52,13.09,1.43,19.36"/><path class="cls-15" d="M471.36,370.24c-.62-.61-3.43.44-1.69-1.87,1.06-1.4,2.88-2.21,4.37-3.29l9.44-3.18c2.46-.49,5.36-2.69,6.57,1.68l-18.69,6.66"/><path class="cls-16" d="M559.11,331.84c-1.25-4.72-.25-11.31-8.49-10.22-.36-.55-.22-.93.39-1.14,10.13-.07,11.81,2.27,8.1,11.36"/><path class="cls-17" d="M551,320.48l-.39,1.14c-5,.11-10,.41-15,.27-3-.09-5-1.12-.78-3.29,5,3.73,10.93.24,16.22,1.88"/><path class="cls-18" d="M309.08,118c-3.54-5.43,2.48-1.54,3-3.05.79-1.21,2.43-.59,3.35-1.54,1.56-.18,3.58-.5,4,1.32.34,1.59-1.6,1.51-2.84,1.82-2.46.62-5.3-.69-7.46,1.45"/><path class="cls-19" d="M490.05,363.58c-1.72-2.39-4.37-1.19-6.57-1.68,3.09-1.47,6.08-3.23,9.66-3.24,1.65-.81,1.83.07,1.62,1.4-1.58,1.17-3.14,2.35-4.71,3.52"/><path class="cls-20" d="M315.41,113.42c-.57,1.71-1.83,1.92-3.35,1.54-1.87-1.88-5.16-1.73-6.38-4.52,3.68-.45,6.31,2.55,9.73,3"/><path class="cls-21" d="M504.47,350.75c2.35-1.75,4.31-4.51,7.9-3.11-1.15,2.8-3.66,3.82-6.22,4.78-1.73.62-2-.21-1.68-1.67"/><path class="cls-22" d="M534.88,341.2a3.72,3.72,0,0,1-3.92-1.43,19.78,19.78,0,0,1,10.39-1.71l-6.47,3.14"/><path class="cls-23" d="M504.47,350.75l1.68,1.67c-2.44,1.71-4.82,3.6-8.09,3.29,1.16-2.92,4-3.7,6.41-5"/><path class="cls-24" d="M299.32,107c.5-1.05,1-2.1,1.49-3.15h4.69c-1.83,1.72-3.45,3.63-6.18,3.15"/><path class="cls-16" d="M547.93,349.14l-6.53-5c3.28.21,6.12,1,6.53,5"/><path class="cls-25" d="M494.76,360.06l-1.62-1.4,5.06-3.13c3.07,4.71-1.33,3.75-3.44,4.53"/><path class="cls-26" d="M347.07,299.61c22.33-1.25,41.06,6.13,60.27,12.61,19.82,6.7,31.7,21.36,43.26,37,1.6,2.17,1.87,4.89,2.72,7.38,3.89,11.49-.19,18.54-10.82,23.58-5.4,2.55-9.87,7-15.54,9.51C404.1,400,382.33,398.2,362.51,383c-14.26-11-29.23-21.32-38.92-37.33-6.16-10.18-6.74-19.89-.88-30.11.26-.46.85-.82.93-1.29,2.59-14.7,12.47-17,23.43-14.63"/><path class="cls-27" d="M445.37,132.7q-2.58,16.68-5.16,33.36-4,12.83-8.08,25.65c-5.52,1.49-12-1.08-16.66,4-2.2,1.49-4.13,3.33-6.16,5-2.92,2.44-5.45,4.8-7.64-.74-.8-2-2.43-1.53-3.76-.14-2.58,2.67-5.28,5.23-6.86,8.48,1.35-1.53,2.2-3.63,3.8-5.25,4.54-4.65,5.38-4.51,8.67,2.23,4.93-2.63,8.21-7.39,13-10.1s9.41-6.07,14,.18c9.37,12.07,9.14,17.06-1.42,30.26,1.21,3.79,4,2.22,6.48,2a5.09,5.09,0,0,1,5.82,4.21c.52,2.18-.1,2.77-4.51,5.22,5.77-2.36,10.51-8.5,17.84-5.18L472.54,228c3.92-.86,8-2.07,11.06,1.73,2.88,3.56,1.82,7.47.52,11.36-1.9,5.67-6,9.3-11,12.1a73.43,73.43,0,0,1-19.89,8c-1.45.25-2.73,1.71-4.37.15-23.46-22.28-53.64-32.81-81.85-46.8,24-20.86,43.58-44.5,49.18-77.09,2.92-11,5.65-22,8.86-32.87,1-3.37,1.9-8.08,6.27-8.35s6.67,3.85,8.79,7.16c5.75,9,5,19.24,5.26,29.26"/><path class="cls-28" d="M336.16,265.6l6.42-3a6.92,6.92,0,0,1,3.71,3.49c-2.77,3-5.92,5.07-9.92,4.34-2.63-1.83,5.16-3.14-.21-4.86"/><path class="cls-29" d="M244.67,261.08c4.9-.53,5.59,5.62,9.82,6.16-3.53.81-6.73-.67-9.92-1.7-4.36-1.4.15-3,.1-4.46"/><path class="cls-30" d="M257.58,267.45c3,.36,8.38-2.67,6.63,4.58-3-.32-8.11,2.3-6.63-4.58"/><path class="cls-31" d="M346.29,266.12a6.65,6.65,0,0,1-3.71-3.49c3.14-3.13,4.23,1.74,6.57,1.69l-2.86,1.8"/><path class="cls-31" d="M349.08,264.36c2.83-2.64,6.51-2.58,10-3.15-2.61,3.33-6.34,3.11-10,3.15"/><path class="cls-32" d="M301.45,187c7,5.4,6.61,14.83,11.63,21.39,1.71,2.23-.21,4-2.85,4.1-2.88.13-5.78,0-9.54,0,4.38,4.84,9.28,5.37,14.5,5.43-6.18,7.52-25,8.86-43.82,3.26l2.36,4.47c-2.57.23-6.05,3.22-6.77-2.21-2.74-2.06-9.51-2.24-3.39-8.3,1.42-1.41-1-3.28-2.71-4-14.84-5.79-17.69-17.78-17.75-32.06a111.53,111.53,0,0,1,2-19.66c2-11.77,4.86-15.65,14.77-16.72,9.35-1,18.44.39,24.78,9.11,5.63,7.75,6,17.47,10.23,25.67.37.69.8,1.33,1.2,2,.63,3.32,2.07,6,5.37,7.45"/><path class="cls-33" d="M190.19,228.8A41.67,41.67,0,0,1,170,209.1c-3.28-6.66-9.59-11.55-11.07-19.27-.56-2.94-1.46-6,1.36-8.1s5.18.35,7,2c9.52,8.63,19.53,16.48,31.48,21.53,1,1.44,3.57,1.83,2.8,4.38-2.72,4.88,2.71,9.65.2,14.52.08,3.69-.67,6.15-5.37,4.68-1.88-.59-4.11-.06-6.18,0"/><path class="cls-34" d="M205.13,226.89c4.38.24,8.76.75,13.11.58,2.08-.08,5.6,1.21,5.7-3.07-3.47-5.48,1.56-10.77.33-16.2.81-1.77.48-4.09,2.52-5.26,9.3-1.18,11.53-.56,22.12,6.95,2.52,1.8-1.06,2.73-1.06,4.26C245,218.7,240,219.26,235.58,221c-8.48,8.59-20.33,10.9-30.45,5.93"/><path class="cls-35" d="M247.94,217.84a36.51,36.51,0,0,1-.79,4.58c-1,3.38-3.22,5.12-7,4.85-4.59-.34-3.08-3.93-3.66-6.43,4.07,0,6.88-4.75,11.41-3"/><path class="cls-36" d="M220.06,251c3.52,1,7.83.7,8.41,5.51.16,1.38-.72,3.28-1.78,3.06-4.31-.87-4.26-5.7-6.63-8.57"/><path class="cls-37" d="M247.94,217.84c-3.69,1.43-6.53,6.06-11.4,3a4,4,0,0,1-1,.12c3.34-3.63,8-4.84,12.29-6.81,0,1.23,0,2.46.08,3.69"/><path class="cls-38" d="M201.74,224.16c-.43-4.83-4.57-9.61-.21-14.52q1.53,8,3.05,16.07l-2.84-1.55"/><path class="cls-39" d="M262.46,227.26l-11.46.6c2.59-5.87,6.47-4,9.91-3.51,1.08.67,2.5,1.16,1.55,2.91"/><path class="cls-40" d="M262.46,227.26l-1.55-2.91,6-.88c1.55,2.9,4.38,1.87,6.77,2.21-3.41,3-7.48,1.32-11.27,1.58"/><path class="cls-41" d="M301.45,187c-6.5.91-6.8-2.65-5.37-7.45a14.54,14.54,0,0,1,5.37,7.45"/><path class="cls-42" d="M216,185.57c2.58,4.09,3.9,8.53,2.71,13.28-.56,2.24-1.95,4.63-4.63,4.83-2.33.18-3.53-1.78-4.58-3.72-2.44-4.5-2.25-9.48-1-13.86s4.64-5.73,7.51-.48l-.49.44Z"/><path class="cls-43" d="M224.27,208.2c3.36,5.47-1.9,10.77-.34,16.2-1.35.24-3.41,1.52-2.82-1.54.94-4.91.83-10.05,3.16-14.66"/><path class="cls-27" d="M432.43,227.27,439,215.42c1.78-3.23,2.75-7.65.9-10-6.18-7.81-.41-11.37,4.17-16.13,7-7.29,14.84-13.85,20.74-22.22,3.69-5.27,6-3.28,8,1.62,1.64,3.91,1.63,7.92,1.2,11.82-2,18.17-7.15,34.93-22.43,46.78a6.26,6.26,0,0,1-8.76,2.82c-3.39-1.64-7.06-1.48-10.4-2.85"/><path class="cls-44" d="M432.43,227.27c6.39-2,12.77,4.24,19.16,0q1.57,2.31,3.13,4.64c-7.77-.46-13.31,6.88-21.31,6.83.35-2.32,1.74-2.63,2.89-3,2.07-.66,4.41-1.19,3.58-4.06-.72-2.51-2.84-2.55-5.16-2.25-2.8.37-7.21,2.54-5.63-3.8l3.34,1.6"/><path class="cls-45" d="M430.51,195.41c-5.1-3.17-9.76-2-14.2,1.41-.66-.52-1.65-.72-1.78-1.78,5.2-4.64,11.14-5.4,17.6-3.33l-1.62,3.7"/><path class="cls-46" d="M414.53,195c.6.59,1.19,1.19,1.78,1.78-3.1,2.87-6.13,5.83-9.34,8.57-1.5,1.28-2.6,4.06-5,3.07-2.56-1.07-1.31-3.57-1-5.62.09-.61-.53-1.33-1-2.37-5.88,3-7.13,10.5-14,12.21,3.93-5.07,7.26-10.81,11.93-15.06,5.6-5.1,5,1.6,6.46,4.7L414.53,195"/><path class="cls-47" d="M267.24,169.77c7.52,3.33,11.44,14.89,6.58,20.9-4.24,5.24-8.21,3.38-11.12-1.92a17.63,17.63,0,0,0,5.79-10.37c.2-1.93-1.45-2.44-2.59-3.35-1.56-2.26.54-3.6,1.34-5.26"/><path class="cls-48" d="M270.41,177.86c-2.22,3.88.64,11.36-7.71,10.89-3-4.55-2.21-9.57-1.23-14.35.51-2.49,1.6-5.92,5.77-4.63,2,2.37-.92,3.16-1.52,4.69,1.13,1.73,3.87,1.24,4.69,3.4"/><path class="cls-49" d="M216,185.57c.92,2.64.12,4.08-2.8,3.82-1.13-.1-2-1-1.68-2.1.71-2.4,2.74-1.83,4.52-1.67Z"/><path class="cls-50" d="M270.41,177.86c-2-.51-5.15.52-4.69-3.4,1.94.62,6.6-2.52,4.69,3.4"/><polygon class="cls-51" points="124.15 152.43 131.04 284.98 115.96 284.98 111.32 152.43 124.15 152.43"/><polygon class="cls-52" points="73.67 162.77 26.69 81.39 73.67 0 167.65 0 214.64 81.39 167.65 162.77 73.67 162.77"/><path class="cls-53" d="M66,29.5A101.57,101.57,0,0,1,68,9.79L26.63,81.39l47,81.38h94l20-34.6A100.87,100.87,0,0,1,66,29.5Z"/><path class="cls-54" d="M163.42,154.22H77.9L35.11,81.39,77.9,8.55h85.52l42.8,72.84ZM80.89,149h79.54l39.74-67.61L160.43,13.77H80.89L41.16,81.39Z"/><path class="cls-55" d="M159,68.56c.68-8.63-4.91-20.48-13.2-20.65s-11.84,8-13.2,11.34-3.89,9.14-6.26,8.12c-2-.84-1.19-4.2.68-8,1.69-3.38,9.31-15.06,10.49-19.63s-.85-6.94-5.58-5.58c-5.53,1.58-8.46,11-10,15.23-1.1,3.06-4.56,16.51-5.07,18.41s-5.18,3.26-4.6.65,11.45-27.89,11.53-32.6c.17-9.14-9.13-7.11-10.83,1.18-.63,3.1-8.87,32.57-9.19,33.46s-2.21,2.14-2.22.74,3.14-18.19,2.11-23.37c-1.14-5.68-6.77-4.73-7.45.68-.33,2.69-1,10-1.52,13.2-.31,1.93-1.16,10.92-1.8,18.39-.84,7-2.14,17-2.43,20.7a67.65,67.65,0,0,0,0,9.32c-.86.15-1.4.31-1.5.49-1.19,2-1.87,15.91-.85,17.6s28.77.17,31.13-3.72c1.82-3,2.2-12.86.17-14.22a1.72,1.72,0,0,0-.49-.19c.06-2.41.16-4.87.36-7.31,1.07-6.2,3.65-8.35,6.73-9.08,3.56-.85,6.77,5.75,13.37,5.41s13.73-5.83,16.25-11.33c2.2-4.84,1.48-9.33-2-10C155.79,77.34,158.44,75.39,159,68.56ZM128.69,39.28c.68-1.8,4.37-4.35,5.75-3.89,2.54.85,1,4.57-.33,5.42S128.18,40.64,128.69,39.28Zm-10.32-6.09c2.37-.51,3.72,2.54,2.88,5.25s-6.6,2.37-6.6.84S116,33.7,118.37,33.19ZM91.24,117.4c-2.38.34-.9-4.06.9-3.61S92.82,117.18,91.24,117.4Zm8.68-71.35c1.7.34,2.37,3.22,1.87,4.23s-3.56,1.36-4.23,0C97.1,49.37,98.23,45.71,99.92,46.05Zm7.79,45.18c-2,3.27-7.56,2.93-9.82.9s-2.7-6.54-1.12-9.58,6.76-4.07,9.36-2S109.74,88,107.71,91.23ZM123.61,81c-1.57,1.91-4.4,4.4-4.51,5.3-.15,1.2,1,2.82,1.92,4.06a1.65,1.65,0,0,1-2.48,2.14c-1.92-1.35-2.71-3.38-3.72-3.27s-1.13,3.39-1.36,4.74a1.5,1.5,0,0,1-2.93-.57c-.11-2.25.22-14.77.34-17.25.08-1.81,2.3-2.87,2.7-1.25.57,2.26,1,5,1.47,7.34.32,1.69,2,.62,2.82-.12,1.69-1.46,3.73-2.87,4.63-3.61C123.73,77.47,125.29,78.93,123.61,81Zm15.74,6.37c-5.58,0-9.47-3.55-9.14-10.49S137.64,64.42,140,64c3.72-.68,5.38.54,6.43,5.41.92,4.33,2.13,7.94,4.78,8.54l-.38.09C145.1,79.56,144.94,87.34,139.35,87.34Zm14.38-6.26c2.2,1.52.85,5.08-.33,6.26s-5.93-1.35-5.25-3.55C148.67,82.1,151.53,79.56,153.73,81.08Zm-1.35-5.59c-1.82.41-3.55-1.35-3.21-3.89s5.92-2.87,6.93-1.52S155.43,74.82,152.38,75.49Z"/><path class="cls-55" d="M101.62,83.11c-2.37.56-2.94,4.51-1.47,6.09,1.79,1.93,4.63.9,5-1.8C105.37,85.33,104.22,82.49,101.62,83.11Z"/></g></g></svg>