<svg xmlns="http://www.w3.org/2000/svg" viewBox="0 0 1800.94 407.47"><defs><style>.cls-1{opacity:0.26;}.cls-10,.cls-11,.cls-12,.cls-2,.cls-3,.cls-4,.cls-5,.cls-6,.cls-8,.cls-9{fill:none;stroke:#fff;stroke-linecap:round;stroke-linejoin:round;}.cls-2{stroke-width:85.7px;}.cls-11,.cls-12,.cls-2{opacity:0.15;}.cls-3{stroke-width:6.01px;}.cls-4{stroke-width:4.52px;}.cls-5{stroke-width:8.65px;}.cls-6{stroke-width:6.8px;}.cls-7{opacity:0.3;}.cls-8{stroke-width:5.4px;}.cls-9{stroke-width:12.14px;}.cls-10{stroke-width:5.76px;}.cls-11{stroke-width:30.6px;}.cls-12{stroke-width:23.8px;}</style></defs><title>reviews-slider-bg</title><g id="Слой_2" data-name="Слой 2"><g id="Слой_1-2" data-name="Слой 1"><g class="cls-1"><path class="cls-2" d="M475.09,364.46c15-61.64,37-120.64,61.39-179.55"/><path class="cls-2" d="M375,364.62c20.08-53.8,36.08-107.8,56.08-161.8,2-5,6-10,12-12,9-1,17,4,21,12,7,14,2,30-1,45-1,3-2,5-3,8-9,35-24,67-38,100-1,3-1,6-3,8.73"/><path class="cls-2" d="M270.34,364.44a197.3,197.3,0,0,0,17.78-31.62c1-2,0-3,1-5,14-30,21-61,31-92,8-22,14-43,26-64a43.49,43.49,0,0,1,7-6c2-1,5,1,6,3,5,8,8,15,9,24,1,8,0,17-1,25-12,51-25,98-38.56,146.79"/><path class="cls-2" d="M164.27,296c18.85-49.16,37.85-98.16,59.68-146,8.19,9.31-4.7,10.67,0,0,8.19,9.31,6.44,22.68,3.19,33.64-4.16,14-10.5,27.56-15.93,41.13q-8.84,22.1-17.66,44.21c-4.87,12.17-9.56,24.53-11.72,37.52-2.28,13.67-1.4,28.26,6.82,39.92a978.74,978.74,0,0,0,42-94.33c10.43-27.28,19.43-54.28,27.43-83.28,5-17,13-33,29.9-39.54,10,29.34-13.66,4.62,0,0,10,29.34-3.79,61.88-12.18,89.93q-14,46.92-28.06,93.84c-5.05,16.9-10.2,33.84-13.12,51.27"/><path class="cls-3" d="M613,56.78c1.46,5.71,8.79,6.45,13,3.61,5.42-3.64,7.57-11.11,7-17.33"/><path class="cls-3" d="M647.23,43.07c1.21,3.9,5,11,3.19,15"/><path class="cls-4" d="M5,177.69a21.27,21.27,0,0,1,12.52-4.51,2.43,2.43,0,0,1,1.83.5,2.35,2.35,0,0,1,.49,1.47,13.25,13.25,0,0,1-6,11.94c2.17-3.18,7.45-3,10.05-.11s2.76,7.29,1.35,10.87c-1.21,3.06-3.64,5.8-6.83,6.57s-7-1-7.85-4.16"/><path class="cls-4" d="M35,203.44a4.56,4.56,0,0,1-.12,5.68"/><path class="cls-4" d="M52.85,171.47c3.54,7.44,2.53,16.16,1.45,24.33L53,205.55"/><path class="cls-4" d="M71.62,171c1.28,1.49.26,3.75-.71,5.46a67.37,67.37,0,0,0-6.34,15.33,1.54,1.54,0,0,0,.08,1.41,1.57,1.57,0,0,0,1.38.3l11.33-1.22c.31,0,.67-.1.81-.37s-.23-.69-.44-.46"/><path class="cls-4" d="M72.11,172.12c3.24,10.54.38,22.54,5.1,32.51"/><path class="cls-5" d="M333.2,368.14a568.53,568.53,0,0,1,11.93-68.3"/><path class="cls-5" d="M345.51,302c2.43,6,8.39,9.76,12.28,14.95,2.84,3.78,4.54,8.27,6.21,12.69l11.31,30"/><path class="cls-5" d="M336.27,340.32q15,.46,30-.25"/><path class="cls-5" d="M385,326.77a246.68,246.68,0,0,0,39.38-1.38c.56-.06,1.23-.23,1.36-.77s-1-.75-.86-.22"/><path class="cls-5" d="M402.68,308.93q2.47,18.84,6.4,37.45"/><path class="cls-5" d="M443.41,298.65c5.53,9,5.7,20.25,5.7,30.85q0,15.45,0,30.91"/><path class="cls-5" d="M445.39,301.3a24.07,24.07,0,0,1,27.71,6.46,9.29,9.29,0,0,1,2.14,4c.62,3.14-1.41,6.18-3.7,8.42a29.74,29.74,0,0,1-22,8.35"/><path class="cls-5" d="M451,328.88c6.92-1.93,14.38-3.33,21.23-1.11s12.62,9.16,11.2,16.21c-1.16,5.81-6.59,9.78-12,12.08a46,46,0,0,1-23.27,3.26"/><path class="cls-5" d="M507.34,315.83l18-.95"/><path class="cls-5" d="M508.05,331.24a108,108,0,0,1,23.28-1.31"/><path class="cls-5" d="M570.88,298.54c-5.51-5.29-15.28-3.38-20.4,2.29S544,314.63,544,322.26c0,4.3.37,8.69,2.07,12.64a19.93,19.93,0,0,0,34.71,3.43"/><path class="cls-5" d="M582.13,284.11a5.59,5.59,0,0,1,8.86-6.34c3.19,2.82,2.15,8.14-.2,11.69S585,296,583.73,300l19.07-2.56c1.27-.17,2.91-1.58,1.85-2.3"/><path class="cls-5" d="M483.1,284.11a5.58,5.58,0,0,1,8.85-6.34c3.2,2.82,2.16,8.14-.19,11.69S486,296,484.7,300l19.06-2.56c1.28-.17,2.92-1.58,1.85-2.3"/><path class="cls-6" d="M56.89,332.78q-1.1,16.25-.7,32.53c0,.46.07,1,.48,1.24s1-.46.58-.68"/><path class="cls-6" d="M3.4,89.19l39.2,12.9,41.1,13.52,37.93,12.48,29.06,9.56,15,4.94.62.2"/><path class="cls-6" d="M45.54,88.74a30.31,30.31,0,0,0,9-10.11c1.35-2.48,2.37-5.48,1.31-8.1-.45-1.11-1.73-2.17-2.73-1.52a2.47,2.47,0,0,0-.8,1.13c-2.77,6.09-5.59,12.39-5.72,19.08-.08,3.81,1.28,8.28,4.91,9.47a2.07,2.07,0,0,0,1.43,0,2.45,2.45,0,0,0,1.13-1.33c.93-1.91,1.64-4.09,1.11-6.16a5.78,5.78,0,0,0-7.85-3.58"/><path class="cls-6" d="M8.6,62.18a48,48,0,0,1,13.34,3.67"/><path class="cls-6" d="M17,56.14q-1.59,7.47-3.17,14.94"/><path class="cls-6" d="M6.42,76.55l13.88,5"/><path class="cls-6" d="M32.83,67.41a75.07,75.07,0,0,1,.91,19.4l9.09-24.08c.5-1.32,1.15-2.8,2.48-3.28a5,5,0,0,1,3,.19c34.45,9.59,87.94,26.72,122.4,36.3"/><path class="cls-6" d="M65.48,76.07a3.54,3.54,0,0,1,6.59-2c1.36,2.33-.32,5.32-2.44,7s-4.76,2.77-6.34,5l12,2.24c.8.15,2.07-.38,1.57-1"/><path class="cls-6" d="M86.31,95.45c.68-1.09,2.31-.83,3.52-.41a103.62,103.62,0,0,1,15.46,6.77"/><path class="cls-6" d="M124.7,90c.71,1.72-.88,3.46-2.26,4.71a64.09,64.09,0,0,0-10.28,12,1.46,1.46,0,0,0-.34,1.3c.18.43.7.58,1.16.68l10.58,2.26a.94.94,0,0,0,.84-.09c.22-.2,0-.69-.26-.54"/><path class="cls-6" d="M124.82,91.12c-.21,10.47-6.35,20.44-5,30.84"/><path class="cls-6" d="M139.9,114.56c0-.52-.51-.9-1-1.08a5,5,0,0,0-4.36.62,9,9,0,0,0-2.93,3.45c-.82,1.6-1.29,3.72-.09,5s3.35,1.07,4.72,0a10.5,10.5,0,0,0,2.81-4.3c.56-1.3,1.07-3,.09-4"/><path class="cls-6" d="M139.75,114.34a24.41,24.41,0,0,0,1.21,9.44,7.75,7.75,0,0,0,1.83,3.26c1.38,1.31,3.4,1.62,5.28,1.88"/><path class="cls-6" d="M52.16,131.74c0-.52-.5-.9-1-1.09a5,5,0,0,0-4.37.63,8.89,8.89,0,0,0-2.92,3.45c-.83,1.59-1.29,3.72-.09,5.05s3.35,1.06,4.71,0a10.46,10.46,0,0,0,2.81-4.3c.57-1.3,1.08-3,.09-4"/><path class="cls-6" d="M52,131.51A24.82,24.82,0,0,0,53.22,141a7.86,7.86,0,0,0,1.83,3.26c1.38,1.31,3.4,1.62,5.29,1.88"/><path class="cls-6" d="M161.34,118.37a3.64,3.64,0,0,0-3.15-1.2,5.94,5.94,0,0,0-3.15,1.42,8,8,0,0,0-3,5.9,6.88,6.88,0,0,0,2.92,5.82,6,6,0,0,0,6.42.17"/><path class="cls-6" d="M26.74,114.84a3.83,3.83,0,0,1,3.05-3.31,6.41,6.41,0,0,1,4.63,1,5.27,5.27,0,0,1,2.57,3,4.91,4.91,0,0,1-1.09,4.18,16,16,0,0,1-3.36,2.93,77.29,77.29,0,0,0-14.67,14.18L40,141.8"/><g class="cls-7"><path class="cls-6" d="M475.23,75.74a93.54,93.54,0,0,1,8.6,22.5q.69-15.94,1.37-31.89c.08-1.76.27-3.75,1.65-4.83,1-.78,3.65.33,3.61-.93,0,0,68.84-2.1,68.84-2.06"/><path class="cls-6" d="M509.9,114.4c4.78-8.69,9.39-18.3,7.92-28.11-.5-3.29-1.86-6.69-4.67-8.47s-7.25-1.09-8.53,2c-1.56,3.77,2.53,7.72,6.56,8.38,2.24.37,5.12-.28,5.67-2.48"/></g><g class="cls-7"><path class="cls-6" d="M264.43,51.77a36.62,36.62,0,0,0-6.27,30.36"/><path class="cls-6" d="M270.37,65c-5,2.36-11,1.61-16-.68s-9.21-6-13.33-9.6"/><path class="cls-6" d="M291.57,70.51A67.81,67.81,0,0,1,258.28,94c-8,2.52-17.28,3.34-24.16-1.4"/><path class="cls-6" d="M299.55,86.72a4.39,4.39,0,0,1,6.53,5.54c-1.54,3-5.79,3.21-8.95,2.1s-6.07-3.16-9.41-3.36l5.61,14c.37.94,1.76,1.92,2.1,1"/></g><path class="cls-6" d="M422.69,153.07a36.64,36.64,0,0,0,27.91,13.49"/><path class="cls-6" d="M436.94,150.53c1.07,5.39-1.12,11-4.56,15.3s-8,7.47-12.57,10.58"/><path class="cls-6" d="M321.27,155.43a36.64,36.64,0,0,0,27.91,13.49"/><path class="cls-6" d="M335.51,152.89c1.07,5.39-1.12,11-4.56,15.3s-8,7.46-12.56,10.58"/><path class="cls-6" d="M385,145.77a4.76,4.76,0,0,1,2.31-5.08,8,8,0,0,1,5.82-.68,6.58,6.58,0,0,1,4.18,2.51,6.08,6.08,0,0,1,.34,5.35,20.26,20.26,0,0,1-2.82,4.75A95.74,95.74,0,0,0,383.06,175l28-2.62"/><path class="cls-6" d="M356.72,216.54a4.74,4.74,0,0,1,2.31-5.09,8,8,0,0,1,5.81-.68,6.6,6.6,0,0,1,4.19,2.51,6.09,6.09,0,0,1,.34,5.35,20.71,20.71,0,0,1-2.83,4.76,96.23,96.23,0,0,0-11.79,22.39l28-2.62"/><path class="cls-6" d="M357.06,159a140.49,140.49,0,0,1,22-.92"/><path class="cls-6" d="M272.89,192.69c54.12.65,142.92-2.49,196.6-9.39"/><path class="cls-6" d="M292.6,140.66c2.48,4-1.2,10.24,2.08,13.64,1.1,1.15,2.72,1.6,4.15,2.29a12.12,12.12,0,0,1,1.44,20.95c-3.46,2.32-8.94,2.28-11.11-1.27"/><path class="cls-6" d="M290.22,141.79l20.43.6"/><path class="cls-6" d="M337.4,213c1.36.58,1.57,2.4,1.57,3.88q0,14.22,0,28.43"/><path class="cls-6" d="M125.56,183.51a4.76,4.76,0,0,1,2.31-5.08,8,8,0,0,1,5.82-.68,6.58,6.58,0,0,1,4.18,2.51,6.08,6.08,0,0,1,.34,5.35,20,20,0,0,1-2.83,4.75,96.08,96.08,0,0,0-11.78,22.4l28-2.62"/><path class="cls-8" d="M3.29,280.6q16.65-8.75,33.29-17.52"/><path class="cls-8" d="M3.23,258.51l38.24,1.08"/><path class="cls-8" d="M7.59,278.76a22.63,22.63,0,0,1-4.38-17.94,1.46,1.46,0,0,1,.6-1.11c.39-.2,1,.25.75.61"/><path class="cls-8" d="M51.11,263.44c-2.23,5-2.7,11.2.25,15.85s9.94,6.73,14.26,3.33A10,10,0,0,0,69,276.71a12.34,12.34,0,0,0-19.83-12"/><path class="cls-6" d="M634.24,351.81q7.56-6.17,15.56-11.76"/><path class="cls-6" d="M635.51,338.92c.52-1.11,2.2-.22,3,.73l11.69,14.25"/><path class="cls-6" d="M665.23,316a46.79,46.79,0,0,0,13.54-9.23,73.13,73.13,0,0,0,15.52,36"/><path class="cls-6" d="M671.31,331.29a53.54,53.54,0,0,0,16.48-11.57"/><path class="cls-6" d="M117.69,326.26c2.66-2.41,5.42-4.88,8.83-6s7.64-.58,9.82,2.26.87,8-2.67,8.54"/><path class="cls-6" d="M134,331.47c2.53-2.53,5.13-5.11,8.38-6.59s7.36-1.64,10.2.53c4,3,3.8,9.44.81,13.41s-8,5.94-12.8,7.09"/><path class="cls-6" d="M138.08,364.41c6.95-.49,12.76-5.27,18-9.83l22.56-19.46"/><path class="cls-6" d="M180.6,315.56a46,46,0,0,0,31.75,7.06"/><path class="cls-6" d="M192.63,304.9a45.85,45.85,0,0,1,.45,38.24"/><path class="cls-6" d="M220.41,303.63a45.84,45.84,0,0,1,9.77-6.6"/><path class="cls-6" d="M241.73,286.17a65,65,0,0,0-3.54-29.43"/><path class="cls-6" d="M239.94,258.34a65.25,65.25,0,0,1,8.88,8.71L280.19,302"/><path class="cls-9" d="M219.35,171.34c2.33,22.69-10,45.23-28,59.28s-40.82,20.55-63.5,23"/><path class="cls-9" d="M148.21,229.48A39.67,39.67,0,0,1,129.27,253"/><path class="cls-9" d="M162.64,264.44a44.35,44.35,0,0,1-41.81-14"/><path class="cls-6" d="M435.9,47.71c5.58,11.49,3.43,25.73-3.33,36.57S415,103,403.56,108.57"/><path class="cls-6" d="M409.62,92a22.24,22.24,0,0,1-5.43,16"/><path class="cls-6" d="M423.94,107.61a24.84,24.84,0,0,1-24.71.64"/><path class="cls-2" d="M1413.52,43.32c-4.4,15.5-11.4,31.5-12.4,48.5a10.8,10.8,0,0,0,3,7c7,5,15,1,22-1,13-4,23-12,32-22,8-10,12-21,15.86-32.9"/><path class="cls-2" d="M1327.8,42.85c-.68,9,1.32,21,13.32,19,10-3,16-11,23-18.7"/><path class="cls-10" d="M1160.09,134.37a35.52,35.52,0,0,0,9.49-.52"/><path class="cls-10" d="M1156.11,125.77a51.49,51.49,0,0,0,14.56-.42"/><path class="cls-10" d="M1182.09,129.9h239"/><path class="cls-10" d="M1126.43,126a31.08,31.08,0,0,0,23.67,11.44"/><path class="cls-10" d="M1138.51,123.89c.91,4.56-1,9.33-3.86,13s-6.82,6.32-10.66,9"/><path class="cls-10" d="M1193.57,115.37a30.61,30.61,0,0,1,11.51-.91"/><path class="cls-10" d="M1214.68,115.6a31.82,31.82,0,0,0,5.69-13.06c.54-2.93.57-6.25-1.35-8.52-.81-1-2.44-1.6-3.23-.62a2.65,2.65,0,0,0-.43,1.39c-.76,7-1.5,14.21.56,20.93,1.18,3.84,4,7.86,8,7.85a2.16,2.16,0,0,0,1.45-.42,2.53,2.53,0,0,0,.69-1.69c.3-2.23.29-4.63-.91-6.53a6.08,6.08,0,0,0-9-1"/><path class="cls-10" d="M1282.66,115.6a31.55,31.55,0,0,0,5.69-13.06c.55-2.93.57-6.25-1.35-8.52-.81-1-2.44-1.6-3.22-.62a2.56,2.56,0,0,0-.43,1.39c-.76,7-1.5,14.21.56,20.93,1.17,3.84,4,7.86,8,7.85a2.18,2.18,0,0,0,1.45-.42,2.58,2.58,0,0,0,.69-1.69c.3-2.23.29-4.63-.91-6.53a6.08,6.08,0,0,0-9-1"/><path class="cls-10" d="M1237,101.21a50.22,50.22,0,0,1,14.53-.71"/><path class="cls-10" d="M1243.39,92.43q.87,8,1.75,16"/><path class="cls-10" d="M1239.58,116.29l15.5.4"/><path class="cls-10" d="M1263,98.48a78.43,78.43,0,0,1,7.29,19.07l1.17-27c.06-1.49.22-3.18,1.4-4.1a5.24,5.24,0,0,1,3-.79c37.57-1.74,96.63-2.21,134.19-4"/><path class="cls-10" d="M1298.42,96.4a3.72,3.72,0,0,1,5.9-4.22c2.13,1.88,1.44,5.43-.13,7.79s-3.85,4.34-4.71,7l12.71-1.71c.85-.11,1.94-1,1.23-1.53"/><path class="cls-10" d="M1325.59,108.9c.32-1.31,2-1.58,3.38-1.56a109.11,109.11,0,0,1,17.67,1.69"/><path class="cls-10" d="M1362.14,90.85c1.27,1.49.26,3.75-.71,5.45a66.92,66.92,0,0,0-6.33,15.31,1.54,1.54,0,0,0,.08,1.41,1.57,1.57,0,0,0,1.38.3l11.31-1.22a1,1,0,0,0,.81-.37c.15-.27-.23-.69-.44-.45"/><path class="cls-10" d="M1362.63,91.93c3.23,10.52.38,22.5,5.09,32.46"/><path class="cls-10" d="M1385.39,110.39c-.16-.53-.8-.74-1.35-.76a5.21,5.21,0,0,0-4.15,2.06,9.37,9.37,0,0,0-1.79,4.41c-.3,1.86-.07,4.13,1.57,5.07s3.69,0,4.71-1.54a11,11,0,0,0,1.39-5.22c.15-1.48.1-3.32-1.22-4"/><path class="cls-10" d="M1385.17,110.21a25.84,25.84,0,0,0,4.31,9,8.09,8.09,0,0,0,2.9,2.65c1.81.85,3.93.51,5.9.14"/><path class="cls-10" d="M1303.41,156.38a1.38,1.38,0,0,0-1.35-.76,5.24,5.24,0,0,0-4.16,2.06,9.46,9.46,0,0,0-1.78,4.41c-.3,1.86-.07,4.13,1.56,5.06s3.7,0,4.72-1.54a10.92,10.92,0,0,0,1.39-5.21c.14-1.48.1-3.32-1.22-4"/><path class="cls-10" d="M1303.18,156.2a26,26,0,0,0,4.32,9,8.17,8.17,0,0,0,2.89,2.66c1.81.85,3.93.5,5.9.14"/><path class="cls-10" d="M1408.06,107.14a3.82,3.82,0,0,0-3.54-.15,6.21,6.21,0,0,0-2.68,2.45,8.48,8.48,0,0,0-1,6.86,7.25,7.25,0,0,0,4.83,4.85,6.35,6.35,0,0,0,6.48-1.93"/><path class="cls-10" d="M1272.46,147.85a4,4,0,0,1,2-4.31,6.78,6.78,0,0,1,4.93-.57,5.53,5.53,0,0,1,3.55,2.12,5.14,5.14,0,0,1,.29,4.53,17.24,17.24,0,0,1-2.4,4,81.21,81.21,0,0,0-10,19l23.77-2.22"/><path class="cls-6" d="M1255.79,247.74a93,93,0,0,1,8.6,22.5q.69-15.94,1.37-31.89c.08-1.76.27-3.75,1.65-4.83,1-.78,3.65.33,3.61-.93,0,0,68.84-2.1,68.84-2.07"/><path class="cls-6" d="M1290.46,286.4c4.78-8.69,9.4-18.3,7.92-28.11-.5-3.29-1.86-6.69-4.67-8.47s-7.25-1.09-8.52,2c-1.57,3.78,2.52,7.73,6.55,8.39,2.24.37,5.12-.28,5.68-2.49"/><path class="cls-6" d="M1307,353.37a36.65,36.65,0,0,0,27.91,13.5"/><path class="cls-6" d="M1321.28,350.83c1,4.9-.74,9.93-3.53,13.93"/><g class="cls-7"><path class="cls-6" d="M1492.67,304.08a172.76,172.76,0,0,1,12.9,35.62"/><path class="cls-6" d="M1516.59,315.3c.8-1.65,2.78-2.3,4.56-2.79l26.32-7.23"/><path class="cls-6" d="M1524.12,297.89a105.73,105.73,0,0,1,12.82,25.75"/><path class="cls-6" d="M1556.84,293.45a36.68,36.68,0,0,0,30.51,5.56"/><path class="cls-6" d="M1569.9,287.2c2.47,4.92,1.86,10.92-.32,16s-5.75,9.34-9.28,13.55"/><path class="cls-6" d="M1475.12,292.9c-4.84,12.12-2.11,25.84,1.52,38.37,3.25,11.25,8.23,23.5,19,28.14"/><path class="cls-6" d="M1574.94,265.88a67.7,67.7,0,0,1,24.23,32.73c2.71,7.91,3.75,17.2-.83,24.19"/><path class="cls-6" d="M1591,257.52a4.39,4.39,0,0,1,5.39-6.65c3,1.46,3.34,5.71,2.3,8.89s-3,6.15-3.13,9.49l13.9-5.93c.93-.4,1.88-1.81.92-2.13"/></g><path class="cls-6" d="M1712.44,70.44c-.32.26-.33-.65.07-.54s.47.64.45,1.06a15.59,15.59,0,0,0,.7,6.38,6.31,6.31,0,0,0,4.6,4.12c2.86.43,5.56-1.92,6.53-4.64s.65-5.73.32-8.6q1.64,14.5,3.28,29a22.27,22.27,0,0,1,.07,7,11.3,11.3,0,0,1-2,4.46c-1.43,1.93-3.85,3.44-6.16,2.79-2.13-.6-3.41-2.85-3.75-5-.59-3.89,1.11-7.76,3.08-11.17a65.81,65.81,0,0,1,16.76-19.14"/><path class="cls-6" d="M1679.79,56a4.73,4.73,0,0,1,2.31-5.08,8,8,0,0,1,5.82-.68,6.61,6.61,0,0,1,4.18,2.51,6.06,6.06,0,0,1,.34,5.34,20.5,20.5,0,0,1-2.83,4.76,96.3,96.3,0,0,0-11.79,22.4l28-2.62"/><path class="cls-6" d="M1442.35,250.78c-.15.39-.62-.4-.22-.5s.73.32.92.69a15.68,15.68,0,0,0,3.82,5.16,6.27,6.27,0,0,0,6,1.25c2.7-1.07,3.85-4.45,3.32-7.3s-2.32-5.27-4.06-7.59l17.44,23.41a22.56,22.56,0,0,1,3.55,6,11.27,11.27,0,0,1,.53,4.86c-.27,2.38-1.6,4.91-3.93,5.51-2.13.55-4.37-.74-5.76-2.46-2.47-3.07-2.94-7.27-3-11.21a65.77,65.77,0,0,1,4.85-25"/><path class="cls-6" d="M1406.84,254.69a4.73,4.73,0,0,1-.57-5.55,8,8,0,0,1,4.69-3.52,6.58,6.58,0,0,1,4.88.07,6,6,0,0,1,3,4.44,20.16,20.16,0,0,1,0,5.54,96.12,96.12,0,0,0,1.08,25.29l22.92-16.38"/><path class="cls-6" d="M1509.53,154.62c2.48,4-1.2,10.24,2.08,13.65,1.1,1.14,2.72,1.59,4.14,2.29a12.11,12.11,0,0,1,1.44,20.94c-3.45,2.33-8.93,2.29-11.1-1.27"/><path class="cls-6" d="M1507.15,155.76l20.42.59"/><path class="cls-6" d="M1189.1,308.56A36.67,36.67,0,0,0,1217,322.05"/><path class="cls-6" d="M1203.35,306c1.07,5.39-1.12,11-4.56,15.3s-8,7.46-12.57,10.58"/><path class="cls-6" d="M1087.67,310.92a36.69,36.69,0,0,0,27.92,13.49"/><path class="cls-6" d="M1101.92,308.38c1.07,5.39-1.12,11-4.56,15.3s-8,7.46-12.56,10.58"/><path class="cls-6" d="M1151.43,301.26a4.73,4.73,0,0,1,2.31-5.08,8,8,0,0,1,5.82-.68,6.58,6.58,0,0,1,4.18,2.51,6.06,6.06,0,0,1,.34,5.34,20,20,0,0,1-2.83,4.76,95.88,95.88,0,0,0-11.78,22.4l28-2.62"/><path class="cls-6" d="M1123.47,314.45a140.49,140.49,0,0,1,22-.92"/><path class="cls-6" d="M1039.3,348.18c54.12.65,142.91-2.49,196.59-9.39"/><path class="cls-6" d="M1059,296.15c2.48,4-1.2,10.23,2.08,13.64,1.1,1.14,2.72,1.59,4.14,2.29a12.12,12.12,0,0,1,1.45,20.95c-3.46,2.32-8.94,2.28-11.11-1.28"/><path class="cls-6" d="M1056.63,297.28l20.43.6"/><path class="cls-6" d="M1467.45,69a42.78,42.78,0,0,0,6.18,30.17c1.67,2.58,3.77,5.09,6.66,6.13s6.68.07,7.88-2.75a7.17,7.17,0,0,0,.17-4.35c-.85-3.86-3.73-7.55-7.64-8.1s-8.16,3.27-7,7.07"/><path class="cls-6" d="M1494.21,73.94a82.64,82.64,0,0,0,22.2,11.74c1.66.58,3.65,1,5,0"/><path class="cls-6" d="M1506.32,65.67c1.52,0,2.22,1.88,2.48,3.38a67.89,67.89,0,0,1-2.07,31.5"/><path class="cls-6" d="M1528.89,66.08l21.63-10.16"/><path class="cls-6" d="M1598.54,43.12c-2.36,7.58-11,10.36-18.21,9.46"/><path class="cls-6" d="M1642,42.88c-2.79,2.11-6.69,1.73-9.62.13"/><path class="cls-6" d="M1797.54,43.25c-.12,21.7-17.39,37.37-35.52,46.26"/><path class="cls-6" d="M1768.08,72.92a22.25,22.25,0,0,1-5.44,16"/><path class="cls-6" d="M1782.39,88.55a24.82,24.82,0,0,1-24.7.64"/><path class="cls-6" d="M1778.36,210.37s-.47-1.64-1.58-4.62a75.94,75.94,0,0,0-6.07-12.39,75.08,75.08,0,0,0-13.52-16.56,76.84,76.84,0,0,0-23.48-14.66,73.45,73.45,0,0,0-32.26-5.09c-11.78.8-23.18,6.8-33.13,14.64a90.22,90.22,0,0,0-24.76,30.13,73.18,73.18,0,0,0-7.85,39.29,119.82,119.82,0,0,0,3.7,20c1.75,6.53,3.4,13.14,6.5,19.09a33.75,33.75,0,0,0,13.74,14,57.75,57.75,0,0,0,18.32,6.13,127.34,127.34,0,0,0,18.69,1.63,56.76,56.76,0,0,0,17.8-1.92,86.64,86.64,0,0,0,15.71-6.5c4.88-2.53,9.54-5.08,13.86-7.81,8.66-5.36,15.7-11.83,20.18-18.83a196.87,196.87,0,0,0,10.32-18.81,81.87,81.87,0,0,0,5.17-12.79,45.16,45.16,0,0,0,1.15-4.74"/><line class="cls-6" x1="1780.76" y1="223.72" x2="1720.2" y2="230.1"/><path class="cls-6" d="M1721.78,228a59.07,59.07,0,0,1-5.85,1.24c-3,.47-6,.61-6,.61"/><line class="cls-6" x1="1708.45" y1="230" x2="1707.73" y2="299.4"/><line class="cls-6" x1="1778.07" y1="234.91" x2="1758.41" y2="227.82"/><path class="cls-6" d="M1775.21,246.22a180.62,180.62,0,0,0-16.54-10.41,177.74,177.74,0,0,0-17.64-8.45"/><path class="cls-6" d="M1766.74,255.75l-27.52-11.29-18.92-7.76a47.87,47.87,0,0,1-6.11-2.84,18.93,18.93,0,0,1-2.13-1.41"/><path class="cls-6" d="M1762.43,265.54l-8.08-2.81c-4.83-1.72-11.23-4.15-17.54-6.8-12.65-5.24-24.81-11.55-24.81-11.55"/><path class="cls-6" d="M1756.28,273.8,1733.39,266l-15.73-5.4c-4.29-1.48-7.18-2.4-7.11-2.56"/><path class="cls-6" d="M1745,282.43a177.71,177.71,0,0,0-17-8.67c-8.68-4-18-6.57-17.56-7.39"/><path class="cls-6" d="M1733.49,289.47s-6.41-3.28-12.47-7.17-11.78-8.26-11.78-8.26"/><polyline class="cls-6" points="1722.68 295.11 1707.25 285.79 1707.25 285.79 1708.09 285.8"/><path class="cls-11" d="M1616.91,223.35a48,48,0,0,1-4.77-36.81c5.59.7,7,7.93,8.09,13.46a46.67,46.67,0,0,0,18.94,29.12c5.09-1.69,7.38-7.92,6.74-13.25s-3.4-10.13-5.44-15.1a58.91,58.91,0,0,1-2.41-37.37c.7-2.6,1.89-5.48,4.45-6.32,4.35-1.43,7.65,4,9,8.36,6.51,21.76,10.12,44.61,20.27,64.94,1.57,3.14,4.87,6.73,7.93,5,7-15.09,0-32.5-4-48.64a134.46,134.46,0,0,1,1.9-71.58"/><path class="cls-12" d="M1010.28,173.08c7.84-9.26,15.84-19.26,27.84-24.26,14-5,29-2,42.72,1.64"/><path class="cls-12" d="M1010.28,123.12c6.84-1.3,12.84-6.3,19.84-6.3,5,9,1,20-6,27-2,1-3,3-5,5-3,2-6,4-8.87,6.25"/><path class="cls-12" d="M1674.61,364.8c1.87-.86,3.38-2.23,4.62,0"/></g></g></g></svg>