<svg xmlns="http://www.w3.org/2000/svg" viewBox="0 0 393.53 437.93"><defs><style>.cls-1{fill:#cf9c52;}.cls-2{fill:#e5b563;}.cls-3{fill:#000018;}.cls-4{fill:#8b8e9f;}.cls-5{fill:#02061b;}.cls-6{fill:#9397a7;}.cls-7{fill:#06061d;}.cls-8{fill:#787594;}.cls-9{fill:#9296a7;}.cls-10{fill:#807f9c;}.cls-11{fill:#8b88a6;}.cls-12{fill:#605e6c;}.cls-13{fill:#8a87a5;}.cls-14{fill:#090b20;}.cls-15{fill:#8c8fa0;}.cls-16{fill:#7e7c9a;}.cls-17{fill:#807f9b;}.cls-18{fill:#7d7a97;}.cls-19{fill:#8a87a3;}.cls-20{fill:#777882;}.cls-21{fill:#1b1c2f;}.cls-22{fill:#303046;}.cls-23{fill:#18192d;}.cls-24{fill:#dddce4;}.cls-25{fill:#d2d2db;}.cls-26{fill:#e7e7e7;}.cls-27{fill:#6d7080;}.cls-28{fill:#7f7e9a;}.cls-29{fill:#111228;}.cls-30{fill:#d8d8d9;}.cls-31{fill:#6f7181;}.cls-32{fill:#7a7c8c;}.cls-33{fill:#66687a;}.cls-34{fill:#0e1025;}.cls-35{fill:#2f3145;}.cls-36{fill:#7f8092;}.cls-37{fill:#7e7f90;}.cls-38{fill:#202134;}.cls-39{fill:#7f8091;}.cls-40{fill:#6a6d7e;}.cls-41{fill:#808395;}.cls-42{fill:#0e0e24;}.cls-43{fill:#2a2b40;}.cls-44{fill:#d7d8d9;}.cls-45{fill:#686a7d;}.cls-46{fill:#838597;}.cls-47{fill:#3f4054;}.cls-48{fill:#4f5165;}.cls-49{fill:#c1bddd;}.cls-50{fill:#a8a5c5;}.cls-51{fill:#7b7997;}.cls-52{fill:#a8a5c4;}.cls-53{fill:#82809f;}.cls-54{fill:#908eac;}.cls-55{fill:#787b8b;}.cls-56{fill:#8582a2;}.cls-57{fill:#7d7a99;}.cls-58{fill:#60606d;}.cls-59{fill:#3b3b47;}.cls-60{fill:#848798;}.cls-61{fill:#c0bcdc;}.cls-62{fill:#8a8d9e;}</style></defs><title>reviews-right-penguin</title><g id="Слой_2" data-name="Слой 2"><g id="Слой_1-2" data-name="Слой 1"><path class="cls-1" d="M298.48,84.14c-8.32,0-16.64,0-25-.08-12.48-.07-24.95-.19-37.43-.27-12.92-.08-25.85-.2-38.77-.13-2,0-2.88-.86-3.86-2.26Q166.05,42.16,138.59,3c-.61-.87-1.22-1.71-2.16-3a1,1,0,0,0-.13.45c0-.14-.2-.26-.31-.39-.57,1.47-1,2.45-1.33,3.45q-16.09,45.08-32.14,90.16c-.57,1.62-1.21,2.69-3.14,3.21-12.48,3.36-24.91,6.9-37.35,10.41-12,3.38-24,6.8-36,10.18-8,2.25-16,4.45-24,6.68-.5.14-1,.37-2,.75,1.13.95,1.92,1.72,2.82,2.35q39.27,27.69,78.59,55.28a5.65,5.65,0,0,1,2.71,5.61c-1,20.13-1.73,40.28-2.57,60.42q-.73,17.47-1.5,34.95a19.82,19.82,0,0,0,.17,2c1.27-.78,2.25-1.35,3.18-2q40.46-27.6,80.84-55.27a7.73,7.73,0,0,1,2.66-1.15,7.51,7.51,0,0,1,2.8.42q46.26,16,92.52,31.87c1.07.36,2.16.64,3.59,1.07-.18-1-.22-1.53-.37-2q-5.35-16.65-10.71-33.31c-6.16-19.19-12.23-38.41-18.5-57.57a5.65,5.65,0,0,1,1.13-6.13q30.63-37,61.12-74.13c.7-.85,1.26-1.8,2.1-3C299.51,84.23,299,84.14,298.48,84.14Z"/><path class="cls-2" d="M300.58,84.33c-.84,1.22-1.4,2.17-2.1,3q-30.53,37.1-61.12,74.13a5.65,5.65,0,0,0-1.13,6.13c6.27,19.16,12.34,38.38,18.5,57.57q5.32,16.66,10.71,33.31c.15.49.19,1,.37,2-1.43-.43-2.52-.71-3.59-1.07-30.88-10.6-61.66-21-92.5-31.72a6.29,6.29,0,0,0-2.75-.26l-.34,0L136,.31c0,.06.21.09.22.15,0-.13.12-.29.19-.45.94,1.27,1.58,2.1,2.19,3Q166,42.19,193.45,81.4c1,1.41,1.87,2.27,3.87,2.26,12.93-.07,25.85.06,38.78.14,12.48.07,25,.19,37.43.26,8.31,0,16.63,0,25,.08C299,84.14,299.51,84.23,300.58,84.33Z"/><path class="cls-3" d="M180.57,198.59A105.46,105.46,0,0,1,184,170c4.31-17.54,17.49-25.3,33.21-30.39,3.37-1.09,6.82-.8,10.21-1.34,6.24,2.08,13,2.22,19.14,4.56a47.05,47.05,0,0,0,5.67,2.41c.87.46,1.74.92,2.63,1.31a41.83,41.83,0,0,1,3.49,2.43c1.37.91,3,1.42,4.13,2.7,3.06,3.38,7.34,5.93,7.6,11.21.32,2,2.77,2.75,2.68,4.93a7.4,7.4,0,0,0,.58,4.81,23.5,23.5,0,0,1,1.27,2.91c2.59,8,.64,16.26,1.44,24.36a9.29,9.29,0,0,0,.42,1.52c1,2.47,1.57,5.09,2.89,7.38.35-1.17-.79-1.8-.92-2.77-2.41-4.66-2.21-9.68-2.28-14.72S277,180.9,275,175.9c-.29-1-.77-2.31-.19-3.13,2.29-3.21.58-5.18-1.86-7a7,7,0,0,1-2-2.19c1.16-1.54,2.51-2.87-.23-4.45-3.09-1.78-5.33-4.67-7.89-7.13-1-1.24-2.55-1.93-3.7-3.05-1-.88-2.33-1.33-3.43-2.1-.75-.57-1.71-.76-2.48-1.29-1.56-.77-3.24-1.26-4.78-2.12-6.63-3.18-14-3.45-21-5.06-8.56-13.41-18.05-26.26-25.06-40.63-.79-1.63-1.45-3.32-2.33-4.89-1-1.77-.4-3.14.85-4.38,1.4-1.4,3-1.1,4.47-.21a11.65,11.65,0,0,1,2.59,1.89C221.7,104.83,236,118.86,253.73,129a53.63,53.63,0,0,1,18.17,16.16c1.69,2.5,5.39-.41,5.83,3.19.71,1.46.07,3.55,2,4.45,5.86,20.41,11.65,40.85,17.65,61.22,1.42,4.81,3.58,9.41,5.39,14.11,1.2,2-.22,2.67-1.72,3.29a8.9,8.9,0,0,1-8.12-2c-3.71-3-5.76-7.75-10-10.29,1,.6.8,1.48.53,2.37-1.39,1.28-2.77.61-4.13,0a4.52,4.52,0,0,1-1-.8c-.44-.66-.84-1-1,.19a7.69,7.69,0,0,1-4,3.9c-4.5,1.15-8.72,3.48-13.5,3.48-1.72,0-2.18.77-2,2.33.13,1.26.16,2.55-1.23,3.27a32.62,32.62,0,0,1-6.12-4.15c1.44,2,3.54,2.33,4.8,3.73,1.25,1.06,4.25.31,3.85,2.81-.35,2.16-2.8,1.82-4.53,2a23.71,23.71,0,0,1-8.54-1c-2.92-.86-2.86.9-2.66,2.87-.65,2.19-2.51,2.51-4.31,2.54a83.71,83.71,0,0,0-9.08,1.13c-2.61.07-5.24,0-7.86.05-2.1.06-4.12.3-5.31,2.4-3.69,2.41-3.56,5-2.31,9.29,2.91,10,2,20.33-1.83,30.19a5.65,5.65,0,0,1-3.39,3.32,10.38,10.38,0,0,1-3.92.45l-.78-.08c-12.47,4.51-23.39,11.92-34.72,18.56-1.37.85-1.55-.91-2.45-1.11-4.2,1.28-8.34,2.81-12.61,3.76a13.73,13.73,0,0,1-12.38-2.71c1.32-1.2,3.12-.15,5.09-1.07.14,0-1-.56-.6.08.11.2,0,.33-.43.31-1.39-.07-2.85.46-4.14-.47a192.08,192.08,0,0,1-40.48-15.33c-7.65-3.89-14.88-8.09-19.27-16.22,1.09-.07,2.33-.57,3.06-.16,10.69,6,22.34,3.83,33.62,3.63,4.49-.09,8.86.54,13.31.57,18.2.12,31.7-9.9,45.07-20.33,1.43-1.11,2.86-2.23,4.24-3.4,1.58-1.36,4.29-1.77,3.29-5.17-.4-1.37,1.79-2.73,3.26-3.31,5.47-2.14,4.72-4.66.71-7.58-.75-2.16-5.22-2.63-2.83-6.21a2.94,2.94,0,0,1,1.5-.25c1.74.48,2.77,2,4.12,3,1.5,1,1.52-.16,1.66-1.15.24-1.28.61-2.46,2.11-2.74,2.21,0,4,1.62,7.36,1.48-2-6.69-3-13.4-.36-20,6-12,3.4-24.08-.09-35.94-1.82-6.17-6.81-6.8-11.91-2.24a12.33,12.33,0,0,0-4.13,9.19c-.12,7.94-2.1,15.86-.49,23.84a4.5,4.5,0,0,1-.25,2.14,2.6,2.6,0,0,1-1.83,1.71c-3-.28-4-2.45-3.93-4.94,0-2.88-.42-5.82.48-8.66"/><path class="cls-4" d="M242.76,239.08c-1.15-1.14-2.84-2.46-1.75-4,.9-1.3,2.6,0,4,.35,4.41,1.14,8.84,2.56,13.46,1-.4-2.54-3.34-.71-3.67-2.81a.83.83,0,0,1,1.19-.16c1.26-4.63,2.15-5.48,8.35-7.22,2.94-.82,5.65-2.5,8.85-2.32a30.45,30.45,0,0,0,7.66-1c.78-.49,1.77-.66,2.22-1.59.22-1-1.24-2.1-.2-2.84s2.45-.07,3.26.93c2.34,2.88,4.58,5.84,6.85,8.77-.59,3.18-3.28,2.17-5.15,2.35-3.37.31-4.92,2.22-5.14,5.26-.32,4.42,4,10,8.74,11.66,1.92,1.12,5.48,1.15,3.34,5-5.55,1.29-3.41,5.24-3,8.6,2,9.91,8.06,17.26,14.89,24.19,1.68,1.7,4.25,3.23,2.86,6.4-3.33,1.15-5.72-.63-8.08-2.54-1-2.13-2.91-3.11-4.82-4.21a169.68,169.68,0,0,1-22.89-15.67,90.42,90.42,0,0,0-28.26-16c-6.34-2.15-9.72.28-8.92,6.82,1.09,8.95,6,16.69,8.5,25.2,1.68,5.72,3.43,11.51,5.52,17,3.82,10,5.67,21.4,15.31,28.38a40,40,0,0,0,4.52,3c.91.48,2,1.3,3,.38s.63-2,.41-3.08-.77-2-.9-3.13c-.25-2.31,1-3.48,2.78-2,6.35,5.33,14.05,9,19.3,15.68,3,7.65,9.07,11.87,16.5,14.52,2.15.76,4.75.9,5.51,3.74.45,3.51-.53,6.88-1.21,10.24-.84,4.2-.12,8.27.31,12.38-1.91,6.31-4.42,12.31-9,17.19-3-.22-2.95-2.84-3.66-4.74-1.36-3.59-3.53-5.85-7.64-5.75-4.33.1-5.83,3.07-7,6.52a24,24,0,0,0-.81,8.64c.08,1.75,1,3.61-.51,5.21-10.62-4.07-18.83-11.33-26.07-19.85-2.65-2.84-2.32-6.77-3.66-10.08-4.32-10.67-9.92-20.71-18.25-28.61-10.16-9.64-17.45-21.12-24-33.24q-5.44-14.13-10.9-28.27l-.25-.19.14-.29c1.11-.74,2.6,1.23,3.57-.52,5.74-3.33,5.6-9.47,5.89-14.65.4-7.32,2.63-15.12-2.55-22-.82-1.08-.42-3.07-.6-4.82,1.63-.75,5.61,2.89,4.72-2.35,7-1.2,14.2-.05,21.21-1.61,1.89-.42,3.91-.45,5.82-.85,3-.61.7-1.94.22-3"/><path class="cls-4" d="M346.61,307.74c5.45,5.68,10.2,12,16.13,17.26,5.17,4.61,5.76,11.2,5.54,17.78-.25,7.13-6,13.33-14.18,15.25l-17.35,1.12a1.93,1.93,0,0,1-3.09-.93c-1.09-2.41-3.32-3.09-5.42-4-1.27-2.21.71-2.68,1.88-2.65,9,.2,15.07-6.49,22.77-8.85a98.29,98.29,0,0,1-26.41-24.18,2,2,0,0,1,1.15-1.7c6.33-2.12,12-5.51,17.45-9.23a1.55,1.55,0,0,1,1.53.16"/><path class="cls-5" d="M287.46,409.39c-1.4-5.52-1.53-10.89.63-16.39,1.79-4.56,4.89-5.82,9.33-5.6s6.3,3.22,7.51,6.75c.62,1.83.6,3.88,2.12,5.36,1.22,5.74,4.43,10.22,8.82,14a4.63,4.63,0,0,1,.81.71c2,2.66,7.22,4.82,3.52,8.7-3.22,3.38-6.32-.67-9.1-2.63-.54-.37-1-.83-2.09-1.72.21,3.53,2,5.61,3,8s.93,4.19-1.1,5.85c-2.31,1.89-3.66-.11-5.11-1.3-4.24-3.5-5.43-8.82-8-14.35-1.15,5.35-1.47,9.83.8,14,1.63,3,1.35,5.39-1.68,6.78-3.31,1.51-4.55-1.34-5.59-3.61-3.56-7.79-3.44-16.2-3.82-24.51"/><path class="cls-6" d="M215.49,317.61c3.76,3.24,6.07,7.63,8.46,11.77a76.18,76.18,0,0,0,14,17.82c9.12,8.55,15.34,19.08,20.58,30.29,1.8,3.86,1.36,8.17,2.86,12.05-4-4.2-8.75-7.46-13.29-11-7.85-6.14-13-14.67-17.4-23.34-6.09-12.05-12.82-24-15.21-37.57"/><path class="cls-7" d="M354.1,358c6.46-3.48,11.8-8,14.18-15.25,4.16.23,7.66-1.72,11.28-3.36,2-.93,4.28-2.92,6.45-1s.71,4.32-.28,6.61c2.76.85,6.65-1.07,7.64,2.5.83,3-1.77,4.83-4.3,6.14-2.06.52-3.87,2.52-5.83,1.5,1.57.54,3.81.81,5.83,1.72,1.7,3.52,0,5.37-3.18,6.53-5.36,2-10.75.84-16-.33-5.38-1.22-10.56-3.34-15.83-5.07"/><path class="cls-8" d="M309.35,291.42c-1.63-5.05-6.05-8-9.41-11.56-5.22-5.51-7.79-11.87-9.14-19-.68-1.61-1.17-3.2.46-4.57,2.86,2.19,3.8,5.76,4.75,8.74a27.52,27.52,0,0,0,8.69,12.74,18.88,18.88,0,0,1,3.2,3.7,18.34,18.34,0,0,0,2.38,3,22.68,22.68,0,0,0,13.66,8.25c2.18.47,5,.2,3.14-2.68-3.88-6-6.21-13.26-13-17.05a4.5,4.5,0,0,1-2.37-2.07c-.55-1.14-1.09-2.27-1.68-3.39-.77-1.45-3.06-2.78-1.34-4.63,1.41-1.5,3.43-.5,5.12,0,2,.66,4.26.88,6,2.26,1.18.95.81,2.67,1.83,3.69,1.38,1.53,3.75,2,4.39,4.31a2,2,0,0,1-1.22,1.46c-.35.15-.88,0-1,.51a2,2,0,0,1,.94.32,26,26,0,0,1,6.1,11.18c1.41,5.14,3.72,8.57,9.31,9,2,1,5.88-3.06,6.36,2.28l-.64.65c-10.94,1.09-21.95,2.71-32.17-3.32-1.7-1-3.67-1.68-4.36-3.83"/><path class="cls-9" d="M327.54,353.44c5.18-1.51,6.33,3.49,9.21,5.72-1.89,1.48-4.13.85-6.23,1a12.38,12.38,0,0,0-11.32,10.34c-.57,4.07-1.09,8.14-3.11,11.83-4.84-6-1.18-12.32-.82-18.52.1-1.59.43-3.17.66-4.75,1.9-1.73,4.06-1,6.27-.67-1.14-1.44-3.85-1.57-3.4-4.21a3.41,3.41,0,0,1,2.71-1.79c2.1-.19,4.22-.43,6,1.06"/><path class="cls-10" d="M320.36,269.54c-1.85-1-.39-2.11-.1-3.18,2.17-2.17,4.67-.63,7-.6,3.11,0,6.19.08,6.83-4,.29-1.39.58-2.79,2.06-3.47,3.12-.13,6.21-.13,8.91,1.83.9.88.66,1.79.06,2.68-1.93.93.25,1.7.13,2.56,5.43,3.89,11.14,7.41,15.91,12.15,2.59,2.58,5.91,5.77,3.23,9.28a8.37,8.37,0,0,1-10.63,2.63c.86-1.45,2.61-1.48,3.8-2.41,2.59-1.49,3.17-3.48,1.14-5.76-5.12-5.74-11.82-9.46-17.93-13.93a2,2,0,0,0-2.55-.15c-5.36,5.44-11.76,2.83-17.88,2.41"/><path class="cls-11" d="M344.26,262.75l1.11-1.89c2-1.54,3.81-.11,5.58.55,5.24,1.95,10.32,4.42,15.67,6,3.58,1.07,8.54,2.44,10.61-.88,2.2-3.51-2.39-6.2-4.72-8.67a37.54,37.54,0,0,0-10.09-7.24c-1.71-.89-3.78-1.48-4.26-3.81a2.5,2.5,0,0,1,1.61-1.72c8.19,3.8,15.5,8.69,20.77,16.27,3.58,5.17,1.73,9.18-4.51,10.51-5.75,1.22-10.74-.78-15.81-2.72-4.23-1.61-8.41-3.4-12.6-5.11-.86-1.09-2.69.26-3.36-1.32"/><path class="cls-12" d="M180.57,198.59c1.72,2.45.9,5.18.71,7.77-.16,2.39.34,4.2,2.55,5.34,3.17,2.74-.35,4.13-1.22,6.06a7.09,7.09,0,0,1-4.24,2.68c-2.31-1.23-2.48-4.92-5.9-5-1.15,0-1.1-1.14-.76-2.07,2-5.49,3.39-11.38,8.86-14.81"/><path class="cls-13" d="M305.18,231.33c11,.68,21.38,4.65,32.06,7,6.12,1.35,12.11,3.27,18.17,4.93a4.31,4.31,0,0,1-2.9,2.07c-9.8-1-19.07-4.32-28.6-6.48-5-1.13-9.85-2.5-14.87-3.36-2-.34-4.48-.29-5.53-2.78.08-1,.38-1.8,1.67-1.39"/><path class="cls-14" d="M178.37,220.43l3.32-3.24c1-.32,1.45.28,1.85,1a5,5,0,0,1,.23,3.16c-.76,2.68-.9,4.84,1.95,6.74a4.89,4.89,0,0,1,1.52,5.38c-2.56,3,2.4,3.58,1.92,5.91-2.55-.2-3.45-2.27-4.61-4.09-1.6.75-.15,2.56-1.29,3.48-5.7-5-5-11.76-4.89-18.35"/><path class="cls-15" d="M340.16,295.64c-2,0-3.93.09-5.9.12-1.55,0-2.86-.3-3-2.23-.46-7-4.78-12.49-7.73-18.51,2.79-1.22,4.57.21,6.1,2.3.86,1.34.93,2.92,1.38,4.39,2.87,4.76,5.38,9.76,9.14,13.93"/><path class="cls-16" d="M346.61,307.74c-5.81,5-12.57,8.31-19.76,10.8-1.36.95-2.68.21-4-.07-2.26-1.26-5.92.74-7.11-3,1.38-1.51,3.26-1.53,5-1.4,8.86.67,16.18-2.67,22.65-8.39a7,7,0,0,1,2.28-1.41,1.74,1.74,0,0,1,1.92,1.37l-1,2.13"/><path class="cls-17" d="M329,278.18c-1.2-2.11-3.24-2.79-5.45-3.16-.49-2,2.16-.65,2.18-2.08,1.58-.8,2.76.23,4,.94,4.78,2.86,9.38,6.05,14.63,8.08,1.34.53,2.6,1.33,2.62,3.08-.5,1.3-1.27,1.81-2.55.91-4.09-1.64-8.31-3-11.95-5.62a5.62,5.62,0,0,1-3.44-2.15"/><path class="cls-18" d="M347.6,305.61l-1.12-1.08c-.7-2.2-1.37-4.41,0-6.61h0c5.42,1.86,3.86,4.69,1.08,7.69"/><path class="cls-10" d="M344.38,286a2.19,2.19,0,0,0,2.11-1.15c2.66-1.66,4.77-.65,6.69,1.35.35,1.87-1.53,2-2.33,2.92-2.15-1.06-4.94-.79-6.47-3.12"/><path class="cls-19" d="M353,244.45c.51-1,1.43-1.08,2.38-1.18a4.4,4.4,0,0,1,4.36,1.85l-1.32,1.53c-2.65,1.36-4.24.08-5.42-2.2"/><path class="cls-20" d="M389.07,356.9l-6.81-1,0-.8,6.85-1.42c-2.29,1.07-.77,2.15,0,3.22"/><path class="cls-21" d="M279.77,152.75c-.79.21-1.84,1.39-2.29.49a4.5,4.5,0,0,1,.25-4.94c2.26.76,2.1,2.62,2,4.45"/><path class="cls-22" d="M305.18,231.33l-1.37.81c-.62,1.29-1.68,1.18-2.8.87a1.78,1.78,0,0,1-.94-1.27,1.91,1.91,0,0,1,.56-1.48,2.25,2.25,0,0,0,2.18-2.18,3.29,3.29,0,0,1,2.37,3.25"/><path class="cls-17" d="M350.85,289.07a2,2,0,0,1,2.27-2.06,5,5,0,0,1,5.35,1c-1.19,1.76-3.11.94-4.69,1.33l-2.93-.31"/><path class="cls-23" d="M167.42,306.8c1.56-1.25,1.38,1.31,2.45,1.11a4.86,4.86,0,0,1-3.75,2.31c-.58-1.79,1.28-2.2,1.3-3.42"/><path class="cls-24" d="M344.26,262.75c1.16.33,2.51.2,3.36,1.32-.94.13-1.87.28-2.35,1.25-1.11-.54-2.64-.91-2.72-2.26-.06-1,1.16.08,1.71-.31"/><path class="cls-25" d="M329,278.18a4.55,4.55,0,0,1,3.44,2.15L331,281.71a3.82,3.82,0,0,1-2-3.53"/><path class="cls-26" d="M187.24,233.48c-2.14-1.06-.24-6.21-5-4.84-.72.21-.59-1.51-.51-2.28.29-2.63.74-5.24,1.13-7.86,0-2.89,4-4.74,2.18-8.13-2-8.78-.74-17.61-.05-26.38a14.4,14.4,0,0,1,8.29-12.38c4-2.07,6.43-.93,8.92,1.84a14.66,14.66,0,0,1,3.38,7.87c1.5,11,4.56,22.1-1.76,32.67-2.93,4.24-2.5,9.1-2.41,13.84.08,3.81-1.47,5.31-5.22,4.29-3.42.07-2,2-1.36,3.6.51,1.2.51,2.64-.74,3a2.49,2.49,0,0,1-2.64-1.87,4.82,4.82,0,0,0-3.29-3.28,4.9,4.9,0,0,1-.94-.06"/><path class="cls-27" d="M275.53,201.86c-1.87-3.4-.67-7.07-.83-10.61-.26-5.59.36-11.23-1.31-16.71a1.84,1.84,0,0,1,1.11-.59,1.68,1.68,0,0,1,1.1.58c2,2.82,1.89,6.06,1.91,9.3.06,7.84-.86,15.79,2.46,23.29.55,1.28.8,2.41-1.21,2.41-2-2.15-2.36-5-3.24-7.67,1.37-6,0-12.15.71-18.19-.58,6.05.52,12.17-.7,18.19"/><path class="cls-28" d="M300.63,230.26c0,.36,0,.73,0,1.09-2.31,2.16-5.35,1.05-8,1.83-2.26.75-5.52-1.65-6.84,1.35s.63,5.8,2.56,8.28c1.14,1.46,3.22,2.51,2.47,4.94-.12.92-.41,2.11-1.52,1.06-2.33-2.22-5-4.2-6.44-7.22Q277.18,230,290,229.17c1.09-.07,2.18,0,2.93-1a10.11,10.11,0,0,0,7.69,2.11"/><path class="cls-29" d="M242.76,239.08c1.54.43,2.87,1.5,5.13.88-4.77,4.6-10.86,5.37-32.38,4.57,1.47-1.7,3.57-1.79,5.55-2.2a14.64,14.64,0,0,0,8.62-.07c3.5-.45,6.93-1.5,10.52-1.12a2.12,2.12,0,0,0,2.56-2.06"/><path class="cls-30" d="M195.9,231.26c2.9.61,4.34.31,4.31-3.54-.05-4.73-.86-10.05,3.63-13.73-1.35,5.8-2.37,11.58.13,17.37.53,1.23,1.52,2.94.51,3.88-1.28,1.2-3,.1-4.5-.5s-3-1.08-4.12-2.39a.68.68,0,0,1-.23-.73q.13-.36.27-.36"/><path class="cls-31" d="M247.17,143.94c-6.48-2.25-13.93-1.1-19.75-5.65l0,.06a38.13,38.13,0,0,1,22.06,4.48,2.34,2.34,0,0,1-2.29,1.11"/><path class="cls-32" d="M269.68,163.64c-.27-5.28-5.87-7.36-7.19-12l-.07.07c5.77,1.68,8.56,7,13.09,10.05-1,2.46-3.39-.21-4.14,1.8a1,1,0,0,1-1.69.09"/><path class="cls-33" d="M275.6,174.53l-1.38-.07a4.14,4.14,0,0,1-1-1.78c-.18-1-.39-1.3-1-.24a3.1,3.1,0,0,1,0-4.49c1.68-.58-.23-2.43,1.1-3.14,1,.75,2,1.46,2.92,2.27,2,1.76,4,3.51-.33,5-.34.11-.21,1.63-.3,2.49"/><path class="cls-34" d="M282,223.83c-2.94,2.23-5.88,1.06-8.82,0,1.28-1.37,3.15-2.29,3.44-4.43,1.31-.82,1.61.48,2.26,1.06l-.1-.08a10.23,10.23,0,0,1,3.22,3.45"/><path class="cls-35" d="M256,233.37l-1.19.16c-2.61-.66-5.34-1.17-6.45-4.11-.22-.57-.18-1.72.77-1.63,2.74.27,4.11,2.81,6.25,4.12.36.23.42,1,.62,1.46"/><path class="cls-36" d="M273.31,164.81c-.56,1.6,2.29,2.48,1,4-.51.6-1.62,0-2.1-.89-.16-1.84-2.84-2.2-2.54-4.31l1.7-.09a2,2,0,0,1,1.94,1.26"/><path class="cls-37" d="M247.17,143.94l2.29-1.11c1.37.58,3.54,0,3.58,2.5l0-.07c-2.35,1.28-4.19.24-5.9-1.32"/><path class="cls-38" d="M185.06,210.37c3.09,3.73-.18,5.76-2.18,8.13-.39-.44-.79-.88-1.19-1.31.3-2,3.88-2.71,2.14-5.49l1.23-1.33"/><path class="cls-39" d="M258.42,148.58c2.47-.42,3.76.68,4,3.12l.07-.07c-1.9-.32-4.23-.07-4.05-3.1Z"/><path class="cls-40" d="M278.76,209.53c1-.51,1.11-1.45,1.21-2.41a8.32,8.32,0,0,1,1.16,1.71c.47,1.23,1.54,3.07-.21,3.58s-1.69-1.68-2.16-2.88"/><path class="cls-41" d="M258.42,148.58v-.05c-1.76,1.14-2.77.28-3.5-1.33a1.65,1.65,0,0,1,.95-1c1.31.31,2.94.28,2.54,2.41"/><path class="cls-42" d="M196.67,248.62h-6.13c0-.18,0-.37,0-.55h6.22c0,.18-.05.37-.08.55"/><path class="cls-43" d="M229.68,242.26a8.25,8.25,0,0,1-8.62.07l8.62-.07"/><path class="cls-44" d="M188.18,233.54c4.14-2,3.64.73,3.29,3.28l-3.29-3.28"/><path class="cls-44" d="M195.9,231.26c0,.36,0,.73,0,1.09-1.46.78-.22,2.38-1,3.37-1.05-1.82-3.34-3.93,1.06-4.46"/><path class="cls-45" d="M282,223.83c-2.07-.22-2.28-2.17-3.22-3.45l4.28.91c-.35.84-.71,1.69-1.06,2.54"/><path class="cls-36" d="M272.21,172.44l.54-1.33a3.41,3.41,0,0,1,1.47,3.35l-.83.08c-.39-.7-.78-1.4-1.18-2.1"/><path class="cls-46" d="M255.88,146.17l-.95,1c-1-.27-2.18-.38-1.86-1.94l0,.07a2.12,2.12,0,0,1,2.84.84"/><path class="cls-47" d="M208.05,288.34c-.48,5.09-2.53-.7-3.57.52,1-1.23,2.34-.63,3.57-.52"/><path class="cls-48" d="M278.85,220.46l-2.26-1.06c-.07-.7-1.38-1.88.1-2s2.3,1.38,2.16,3"/><path class="cls-49" d="M346.51,297.92c.37,2.21,1.63,4.41,0,6.61-8.13,9.31-18.64,12.05-30.51,11a2.83,2.83,0,0,1-2.47.9c-9.62-1.54-18.41-5.39-27-9.74a3,3,0,0,1-1.83-3.59c2.18-6.89-2.24-11.42-5.9-16a40.32,40.32,0,0,0-12.06-10.06c-2-1.12-3.37-2.4-.67-4.41,2.38-1.76.69-3.16-.73-4.31A32.42,32.42,0,0,0,251.24,262a34.33,34.33,0,0,1,11.53,4.61c1.76,1.08,4.47,2.11,4,4.62s-3.21,2.47-5.49,3c9.37,4.78,17.65,10.68,22.51,20.48,1.92,3.88,2,7.3-.66,10.61s-7.89,4.41-12,2.82a29.14,29.14,0,0,1-4.78-2.61,40.88,40.88,0,0,0-4-2.74c.64,4.63.12,5.22-3.71,3.92-1.36-.47-2.59-1.33-4.14-1.05a9.27,9.27,0,0,1-2.41-.12c-.92-.2-2.12-.61-2-1.51.65-6.88-3.66-12.29-5.33-18.48-2.31-8.53-7.12-16.26-8.46-25.11-1-6.65,3.14-9.77,9.82-7.5a81.41,81.41,0,0,1,21.61,11.28c10.68,7.75,20.72,16.42,32.66,22.34a3,3,0,0,1,1.31,1.67,25.18,25.18,0,0,0,7.7,3.22c11.32,8.25,24.4,6.47,37.16,6.5"/><path class="cls-50" d="M290.81,247.75c-1.75-2.07-3.81-3.95-5.16-6.24-1.51-2.56-3.16-5.6-1.23-8.53s4.93-.82,7.48-.6a20.36,20.36,0,0,1,9-.11l2.92-.13c5.55,3.24,12,2.73,18,4.5,10.28,3.05,20.81,5.25,31.24,7.81l5.42,2.2c7.38,4.51,15.3,8.32,20.08,16.11.85,1.39,2.3,2.48,1.24,4.31s-2.54,2.32-4.51,2.53c-5.44.59-10.34-1-15.24-3.06s-9.76-3.8-14.65-5.68c-2.73-1.43-6.09-.4-8.74-2.2a44.3,44.3,0,0,0-24.26-11.07,2.38,2.38,0,0,1-2.2-2c-1.49-6.52-1.53-6.51-9.36-6.6,2.3.26,4.46-.26,6.52.71,1.82.87,3.43,2.07,2.71,4.1-1.26,3.58.46,3.76,3.32,4.09a46.27,46.27,0,0,1,15.9,5.29,11.06,11.06,0,0,1,6.3,8.79c.79,4.15-2.15,4.75-5.1,5.36-3.5.74-6.74-1.28-10.2-.94l-11.53-3.62c1.07,3.32,4.74,4.61,3.87,7.88-1.4,1.61-3.16,1.07-4.21.93,1.74-.28,4.06,1.27,6.51.27,3.49.29,4.28,3.66,6,5.72,2.93,3.57,5.19,7.7,7.58,11.69.67,1.12,2,2.5.78,3.91a4,4,0,0,1-4.39,1.39c-5.85-2.08-12.23-3.37-15.45-9.67-.14-1.32-1.48-1.46-2.18-2.23-2.1-2.25-4.08-4.64-6.32-6.73-5.66-5.27-7.29-12.35-9.06-19.39-1.25-2.49.15-3.62,2.25-4.4,1.53-3.45-3.26-2.1-3.29-4.35"/><path class="cls-3" d="M323.49,317.39l3.36,1.15c4.56,2.8,7,7.67,11,11,1.78,1.51,3.71,2.85,5.51,4.33,1.22,1,5.84-.06,2.39,3.84a10.9,10.9,0,0,0,6.77,2.35c1.26,0,3-1.63,3.52.67.41,1.76-1.48,2.41-2.69,3-8.37,3.85-15.9,10-25.81,9.69l-6,.07c-1.22-.29-2.79-1.25-2.47,1.33,1.45,2.27,4.45,1.9,6.51,3.61-3.29,2.62-6.6,0-9.7.6-4.65-2.2-9.79-3.19-14-6.49-3.79-3-6.87-6.26-8.18-11,1.59-2.85,3.75-1,5.57-.53,4.56,1.23,9,2.78,13.85,2.4,3-.22,5.76-.74,7.78-3.19,1.55-3.71-1.77-4.72-3.7-6.2-4.16-3.17-9.08-5.27-12.87-9-1.78-1.76-3.47-3.4-1.38-6,3.08-2.22,6.79-1.79,10.23-2.48,3.39.66,6.87.26,10.27.82"/><path class="cls-51" d="M322.59,340.58c-4.44,5.48-10.38,4.35-16.27,3.81-4.33-.4-8-3.65-12.58-2.8-4-5-10.27-7.23-14.67-11.78-1.46-1.5-3.33-2.6-5.86-4.53,1.31,4,4.42,8.17,1.25,10.19-3.7,2.35-7.12-1.85-9.68-4.28-6-5.74-11.79-11.91-12.15-21.05a4,4,0,0,0-.12-1.61c-6.82-13.25-9.44-28.11-15.88-41.5-1.62-3.39-1.56-7.07-1.86-10.63-.27-3.25,5.15-6.42,8.69-5.36a89,89,0,0,1,30.39,16.43,183.08,183.08,0,0,0,25.06,17.13c1.36.77,3.72,1,2.74,3.61-12.5-5.31-22.4-14.56-33.31-22.25a106.89,106.89,0,0,0-21.8-12c-3.47-1.4-6.53-.29-9.2,1.24-2.43,1.4-.49,4.13,0,6a282.48,282.48,0,0,0,13.27,36.64c1,2.34-1.89,5.47,1.8,6.73,2.09.55,3.65,1.57,3.6,4-.22,10.7,7.51,16.24,14.47,22.36.54-3.13-1.51-5.2-3-7.44s-3.08-4.06-4.49-6.18c-1.13-1.69-2.47-3.75-.29-5.27,1.85-1.28,3.43.47,4.55,1.89,4.76,6.06,10.6,11,16.66,15.61,4.92,3.77,10,7.27,15.86,9.45a33.1,33.1,0,0,0,21.37.83,2.61,2.61,0,0,1,1.4.73"/><path class="cls-10" d="M294.1,252.1c-.73,1.47-2.34,2.5-2.25,4.4-1.55,1.15-.87,2.84-1,4.33-1.87-2.38-1.31-5-.51-7.49.57-1.77,1.71-3.36,3.8-1.24"/><path class="cls-52" d="M358.47,288.05c-1.87.08-3.72.07-5.35-1a11.28,11.28,0,0,0-6.63-2.21,170,170,0,0,1-20.78-11.86l-5.35-3.4c2.08-1.9,4.33-1.09,6.6-.46,3.81,1.07,7.41.29,9.88-2.64,1.71-2,3-1.6,4.49-.48,6.25,4.58,13,8.56,18.45,14.15,3.18,3.23,2.92,5.92-1.31,7.94"/><path class="cls-53" d="M314.9,271.8c-4.85,1.73-5.9,1.59-10.85-1.82l8.55.63a2.47,2.47,0,0,0,2.3,1.19"/><path class="cls-54" d="M307.23,282.62c1.07.41,3.75-.76,2.18,2.23a3.33,3.33,0,0,1-2.18-2.23"/><path class="cls-55" d="M319.12,354.84c-.76-.38-2-1.14-1.49-1.69,1.23-1.4,2.69-.53,4,.36-.93.24-2,.3-2.47,1.33"/><path class="cls-56" d="M335.56,261.93c-4.81-9.83-14.24-11.44-23.55-13-2.93-.48-5.87.12-3.34-4.35,1.72-3-.73-4-2.94-4.29a69.65,69.65,0,0,0-8.43-.08c3.7-3,10.45-3.12,13.52-.25.51.47,1.3,1.35,1.16,1.72-2.68,6.79,3.28,5,6,5.87,7.16,2.17,14.28,4.22,18.6,11.08-1.26.79-1,2.08-1.07,3.27"/><path class="cls-57" d="M322.59,340.58l-1.45-.12a19.36,19.36,0,0,0-6.81-6c-10.23-5.72-18-14.49-26.69-22.08-2.69-2.35-4.91-4.07-8.54-2.12a7.89,7.89,0,0,1-6.86.16c-3.5-1.44-6.73-2.62-10.84-1.37-2.91.89-5.4-1.46-6.5-4.55,2.93-2.35,4.18,3.16,7.06,1.44.2-2.38-2.81-3.65-2.4-6.39,2.31-.39,3,1.72,4.42,2.58,2.61,1.62,5.14,3.41,7.86,4.82,4,2.1,7.49.26,10.36-2.44s2.57-5.81.91-9a40.71,40.71,0,0,0-20.69-19.19c-1.9-.82-4.22-1-5.11-3.4.47-.34.79-.74,1-.69,2.66.61,6.44,1.86,7.33-.92s-3.18-3.71-5.44-5.06c-4.19-2.5-9-3-14.47-3.93,6.21-2.24,19.23,2.4,22,7,1.89,3.14-1.43,3.81-2.54,5.78,8.41,4.78,15.6,10.68,19.69,19.64.75,1.64,2.12,3.46,1.42,5.12-2.44,5.73,1.9,6.59,5.42,8.06,7.86,3.27,15.66,6.72,24.25,7.7,2.12,2.19,5.36-.23,7.52,1.83l-10.92,0c-6.51.22-12.2-2.59-18.19-5,3,2.56,5.29,5.71,8.71,7.52-.48,4.45,3.66,5.36,6,7.33,3.41,2.83,7.57,4.74,11.15,7.39,1.78,1.32,4.7,2.76,2.32,5.94"/><path class="cls-13" d="M300.89,232.27l-9,.11c2.69-2.07,5.81-.55,8.69-1a2.49,2.49,0,0,1,.3.92"/><path class="cls-58" d="M192.56,197.48c0-1.12-.37-1.59-1.43-2.34-1.86-1.32,0-2.86.94-4s2.15-1,3.2.14c3,3.39,1.37,13.33-2.7,16.07-1-3.29-.27-6.59,0-9.89"/><path class="cls-59" d="M192.56,197.48c2.05,3.29,1.44,6.59,0,9.89-5.17-.82-2.66-5-3.28-7.71-.76-3.38,2.8-.52,3.27-2.18"/><path class="cls-60" d="M275.53,201.86V182.34c.35,6.52,2.32,13.07,0,19.52Z"/><path class="cls-61" d="M254.9,304.48c3,2.18,5.71,6.3,10,1.67.88-1,1.95.37,2.83.91,4.43,2.72,9,4.07,13.65.69,1.91-1.38,2.92-.28,4.16.84,10.71,9.71,20.6,20.44,33.63,27.3a3.59,3.59,0,0,1,2,4.57c-9.07,4.7-17.91,2.27-26-2a90.4,90.4,0,0,1-28.79-23.67c-.86-1.07-1.55-2.54-3.42-2.26-1.32,2.2.66,3.24,1.63,4.61,2.94,4.14,6.31,8,8.33,12.72.5,1.19,1,2.66-.08,3.56s-2.52-.19-3.34-1c-7.08-6.66-15.48-12.6-14.62-24,.16-2.1-1.22-2.81-2.4-3.86l2.46-.09"/><path class="cls-62" d="M303.09,319.92c-3.78,1.26-4.67-2.51-6.85-4-1.91-1.32-3.7-2.83-5.55-4.25l1-1.32,20.84,7.09c-2.85,2-6.49,1-9.48,2.49"/></g></g></svg>