<svg xmlns="http://www.w3.org/2000/svg" viewBox="0 0 1926 1077.59"><defs><style>.cls-1{opacity:0.5;}.cls-2{fill:#a3cb8f;}.cls-3{fill:#cff5ff;}.cls-4{fill:#df6654;}.cls-5{fill:#e0e0e0;}</style></defs><title>reviews-bg</title><g id="Слой_2" data-name="Слой 2"><g id="Слой_1-2" data-name="Слой 1"><g class="cls-1"><path class="cls-2" d="M40.63,1077.59q.1-135.12.2-270.25.11-146.21.22-292.43,0-73.83.11-147.68c0-4-12.11-4-12.11,0q-.11,146.22-.22,292.44L28.62,952.1l-.09,125.49Z"/><path class="cls-2" d="M92.23,947.36l2.19,130.23h12.11q-2.37-140.73-4.75-281.46-2.57-152.7-5.15-305.4L94,336.51c-.07-4.22-12.17-4.16-12.1.06Q84.51,489.27,87.08,642T92.23,947.36Z"/><path class="cls-2" d="M144.37,947.36q1.11,65.11,2.2,130.23h12.11q-2.38-140.73-4.75-281.46-2.58-152.7-5.15-305.4l-2.6-154.22c-.07-4.22-12.17-4.16-12.1.06q2.56,152.7,5.15,305.39T144.37,947.36Z"/><path class="cls-2" d="M196.52,947.36q1.09,65.11,2.2,130.23h12.1l-4.74-281.46q-2.58-152.7-5.15-305.4l-2.6-154.22c-.07-4.22-12.18-4.16-12.11.06q2.58,152.7,5.15,305.39T196.52,947.36Z"/><path class="cls-2" d="M248.07,913.47l2.79,164.12H263l-5.91-347.85-6.3-371-3.18-187.38c-.09-5.12-12.2-5.07-12.11.06l6.3,371Z"/><path class="cls-2" d="M300.22,913.52,303,1077.59h12.11L309.21,729.8l-6.3-371q-1.59-93.69-3.19-187.39c-.08-5.12-12.19-5.06-12.1.06l6.3,371.05Z"/><path class="cls-2" d="M352.92,913.53q.72,82,1.45,164.06h6.26l-3.06-347.77q-1.62-185.52-3.26-371-.82-93.67-1.64-187.37c-.05-5.12-6.31-5.07-6.27.06Q348,357,349.66,542.5T352.92,913.53Z"/><path class="cls-2" d="M356,1050.5v-7l-320.72,3.46L0,1047.3v12.1l345.6-3.73,10.36-.11C356,1053.87,356,1052.18,356,1050.5Z"/><path class="cls-2" d="M353.82,984q-68.46-.11-136.89,2.58-46.1,1.83-92.14,5c-30.09,2-60.19,5.39-90.36,5.75A265.72,265.72,0,0,1,0,995.59v12.1c23.9,2.61,48,1.64,72-.12,30.48-2.22,60.93-4.63,91.45-6.36Q255.6,996,347.93,996h5.65A86.89,86.89,0,0,1,353.82,984Z"/><path class="cls-2" d="M355,938.08a25.81,25.81,0,0,1,.81-5.23c-.24-2.24-.47-4.49-.7-6.73L35.25,929.57,0,930v12.11l345.6-3.73,9.37-.1C355,938.18,355,938.13,355,938.08Z"/><path class="cls-2" d="M351.22,866.59q-67.16,0-134.29,2.6-46.1,1.83-92.14,5c-30.09,2-60.19,5.38-90.36,5.75A264,264,0,0,1,0,878.24v12.1c23.9,2.62,48,1.64,72-.11,30.48-2.23,60.93-4.64,91.45-6.36q92.13-5.22,184.46-5.19h3.6C351.37,874.66,351.28,870.63,351.22,866.59Z"/><path class="cls-2" d="M356.7,808.76,35.25,812.23,0,812.61v12.1L345.6,821l11.3-.13Q356.84,814.82,356.7,808.76Z"/><path class="cls-2" d="M354.29,749.24q-68.7-.12-137.36,2.6-46.1,1.83-92.14,5c-30.09,2-60.19,5.39-90.36,5.75A265.72,265.72,0,0,1,0,760.9V773c23.9,2.61,48,1.64,72-.12,30.48-2.22,60.93-4.63,91.45-6.36q92.13-5.21,184.46-5.19h6.91Q354.55,755.29,354.29,749.24Z"/><path class="cls-2" d="M353.66,691.45,35.25,694.88,0,695.26v12.11l345.6-3.73,7.74-.08Q353.45,697.5,353.66,691.45Z"/><path class="cls-2" d="M356.89,641.89c-.08-3.33-.18-6.66-.27-10q-69.86-.18-139.69,2.59-46.1,1.83-92.14,5c-30.09,2-60.19,5.38-90.36,5.75A265.72,265.72,0,0,1,0,643.56v12.09c23.9,2.62,48,1.64,72-.11,30.48-2.23,60.93-4.63,91.45-6.36Q255.6,644,347.93,644h8.78Z"/><path class="cls-2" d="M354.91,574.09,35.25,577.54,0,577.92V590l345.6-3.72,9.69-.11Q355.1,580.15,354.91,574.09Z"/><path class="cls-2" d="M353.09,514.56q-68.1-.1-136.16,2.6-46.1,1.83-92.14,5c-30.09,2-60.19,5.38-90.36,5.75A265.73,265.73,0,0,1,0,526.21v12.1c23.9,2.62,48,1.64,72-.12,30.48-2.22,60.93-4.63,91.45-6.36q92.13-5.21,184.46-5.19h5.52Z"/><path class="cls-2" d="M351.68,456.78,35.25,460.19,0,460.57v12.11L345.6,469l6.33-.07Q351.79,462.84,351.68,456.78Z"/><path class="cls-2" d="M351,397.22q-67-.06-134.06,2.59-46.1,1.83-92.14,5c-30.09,2-60.19,5.38-90.36,5.75A265.72,265.72,0,0,1,0,408.87V421c23.9,2.62,48,1.64,72-.11,30.48-2.23,60.93-4.63,91.45-6.36q92.13-5.22,184.46-5.19h3.12Q351,403.26,351,397.22Z"/><path class="cls-2" d="M356.91,343.58l-.09-4.2L35.25,342.85,0,343.23v12.11l345.6-3.73,6.75-.08A23,23,0,0,1,356.91,343.58Z"/><path class="cls-2" d="M354,286.3q-.25-3.23-.53-6.43-68.26-.11-136.51,2.6-46.1,1.83-92.14,5c-30.09,2-60.19,5.38-90.36,5.75A265.73,265.73,0,0,1,0,291.52v12.1c23.9,2.62,48,1.64,72-.12,30.48-2.22,60.93-4.63,91.45-6.35q92.13-5.22,184.46-5.2l6.48,0C354.26,290.08,354.12,288.19,354,286.3Z"/><path class="cls-2" d="M348.1,222.13,35.25,225.51,0,225.89V238l345.6-3.73,3.64,0Z"/><path class="cls-2" d="M343.58,162.54q-63.34.09-126.65,2.58-46.1,1.83-92.14,5c-30.09,2-60.19,5.38-90.36,5.75A265.72,265.72,0,0,1,0,174.18v12.1c23.9,2.61,48,1.63,72-.12,30.48-2.23,60.93-4.63,91.45-6.36q90.3-5.12,180.79-5.18Q343.89,168.59,343.58,162.54Z"/><path class="cls-3" d="M1924.34,367.55a38.66,38.66,0,0,0-12.19-.18c-41.17,5.76-79.54,55-105.71,83.49-28.79,31.37-128.4,129.54-91.17,176.94,6.69,8.51,16.67,14,27,13-13.11,66.69-55.1,122.63-94,176.78-20.63,28.73-41.13,57.73-57.68,89.06a326.37,326.37,0,0,0-20.79,47.91,251.86,251.86,0,0,0-7,25.14c-2.08,9.25-2.74,18.62,3.84,26.18,10,11.44,29.27,6.54,40.94,1.18,7.66-3.51,14.37-9.14,20.91-14.35,7.2-5.74,14.07-11.88,20.78-18.18,26.68-25.07,50.44-53.61,80.19-75.26a166.54,166.54,0,0,1,32.95-18.9q-2.11,33.09-4.21,66.18c-.74,11.61-1.93,23.3-2.09,34.94-.13,9.31,2.5,18.67,11,23.66,7.78,4.59,17.33,1.69,24.65-2.3,9.06-5,15.87-12.84,22.77-20.3l50.3-54.31q25.14-27.15,50.29-54.31,4.63-5,9.32-10Z"/><path class="cls-2" d="M0,0V527.36a188.89,188.89,0,0,0,112.21,5.71c48.39-12.61,90.71-46.84,114.62-90.53,27.57-50.38,25.37-109.29,38.28-163.84,5.81-24.55,13.67-46.65,25.43-68A188,188,0,0,1,310,181.91a168.57,168.57,0,0,1,12-12.81c2.11-2,4.29-4,6.5-5.92,1.11-1,2.25-1.9,3.38-2.83,1.85-1.52,1.8-1.44,3.11-2.42,42.64-31.75,98.56-36.74,149.25-43.39,53.16-7,110.69-17,151.13-55.33A133.23,133.23,0,0,0,671.48,0Z"/><path class="cls-4" d="M1527.24,338.21c-3.2,2.5-6.83,5.35-9,7.11C1521.31,342.88,1524.29,340.53,1527.24,338.21Z"/><path class="cls-4" d="M1926,98.07c-3.73,1.77-8.31,4.17-12.59,6-5.9,2.54-11.25,4-13,1.24-.87-1.37,2.7-3.63,6.29-5.9-3.49-5.49.31-23.38,3.94-25.63,1.3-3.48,9.7-15.09,15.36-23.54V34.69a59.41,59.41,0,0,0-12.61-2,142.62,142.62,0,0,0-19.91.15c-3.29.25-6.47.61-9.35,1a60.61,60.61,0,0,0-7.62,1.66c-9,1.86-4.35-6.9-7-11-6.43,6-12.71,4.19-19.14,10.21-.43-.68-6.38,2-13.51,6s-15.54,8.82-21,12.34a21.32,21.32,0,0,1-2.74,2.74,98.3,98.3,0,0,1-10.86,8.09c-3.62,2.38-2.72,3.74-1.83,5.1l-1.79-2.72c-1.82,5.1-10.84,7.13-13.56,10.88l-1.8-2.72c-5.42,7.47-14.39,9.61-20.68,15.76l-1.82-2.71c-3.6,2.42-7.19,4.82-8.09,3.47l-1.83-2.71c-4.53,1-9.86,8.64-11.69,5.94l1.83,2.7c-14.31,9.78-26,15.7-37.59,21.82a209.84,209.84,0,0,0-24.36,13c-8.13,5.06-16.27,10.69-24.35,16.65-16.08,12-31.89,25.34-46.63,38.23-3.49,2.56-5.05,7.75.37,7.81L1598,202.12c-6.93,5.17-.55,6.52-7.48,11.68-25.38,23.85-52.78,44.88-80.32,65.79l-20.59,15.75c-6.86,5.27-13.62,10.65-20.37,16.05q-5,4.07-10,8.18c-3.34,2.75-6.62,5.57-9.89,8.39q-9.82,8.48-19.31,17.34c7.22-4.83,13.86-8.65,20.23-12.78,3.19-2.07,6.31-4.21,9.41-6.6a104.72,104.72,0,0,0,9.33-8c1,1.27,3,3.81,6.42,1.12,5.31-3.72,10.64-7.84,15.87-12s10.41-8.22,15.35-12a163,163,0,0,1,14-9.74,39.28,39.28,0,0,1,12-5.1c4.41-1.35,10.8-.11,21-8l-10.22,7.89,3,3.87c14.56-9.27,32.71-20.89,47.36-29.94l2.94,3.9,6.87-5.12c3.42,1,3.57,3.44,1.61,6.74s-6,7.47-11,12c-9.91,9.05-23.56,19.35-31.49,26.57,1,1.29,3,3.87,4,5.17l6.77-5.22,2,2.58c-10.12,7.83-19.44,15-28.68,22.18-6.4,5-12.82,10.05-19.5,15.31l4.41-3.46c1,1.27,2,2.56,5.37-.07-13.45,10.47-31.09,22.56-42.35,35.75-2.27,4,4.07,5,15.07-1.63L1523,358.18l6.33-5.06,7-5.5,2,2.56c-6.71,5.21-17.65,11.94-23.28,18.51-2.3,3.92,9.69-1.48,7.39,2.44-3.32,2.65-6.64,5.3-8.94,9.22,10-7.93,22.16-19.86,33.22-26.4,4.34-1.34,8.68-2.67,10.69-.11a98.79,98.79,0,0,1,11.83-9.34,84.77,84.77,0,0,1,12-6.6,71.77,71.77,0,0,1,23.29-6.13c4,0,13.87-7.85,22.83-15,7.19-4.31,14.39-8.7,21.54-13.2,7.71-4.83,15.33-9.86,23-14.81s15.3-10,22.9-15.09l22.9-15c7.59-5,15.26-9.84,22.89-14.63s15.26-9.48,23-13.91,15.36-8.78,23-12.87,15.47-7.87,23.22-11.43c4.39-1,13.16-3.07,17.58-4,30.53-14.76,64.73-39,91.3-59.81a30.38,30.38,0,0,0,7.29-8.45Z"/><path class="cls-4" d="M1766.94,113.35c-.64.45-.1,2.08.17,2.9l7.74-3.91c-1.08-1.58-4.34-2.6-3.34-4.34-1.58-1.55-2.83,1-2,3.48l-.7-2.87c-.18,4.2-4.57-1.73-4.36-4.26l-.13.11,1.23,15.2C1767.73,119.52,1764.82,114.57,1766.94,113.35Z"/><path class="cls-4" d="M1602.89,182.07a1.8,1.8,0,0,0,.19-2.32A7.64,7.64,0,0,0,1602.89,182.07Z"/><path class="cls-4" d="M1765.84,123.22l.37,4.76A18.29,18.29,0,0,0,1765.84,123.22Z"/><path class="cls-4" d="M1747,57.15a4.1,4.1,0,0,0-.36-.67l.3,2.38h0C1747,58.27,1747,57.71,1747,57.15Z"/><path class="cls-4" d="M1737.56,155.35c-.11.19-.24.3-.38.53A1.1,1.1,0,0,0,1737.56,155.35Z"/><path class="cls-4" d="M1756.68,24.13l-1.52,5.51c-.44-2-1.82-.68-2.14-3.16-.12.42-1,1.74-.19,2.51l.64-.45c.8,6.18,2.89,7.68,1.88,13.18,3.39,2.23,2.8-1,2.59-3.94a4.76,4.76,0,0,1,.54-1.17l-.8-8.8Z"/><path class="cls-4" d="M1637.64,129.45l-.16-.44A1.54,1.54,0,0,0,1637.64,129.45Z"/><path class="cls-4" d="M1636.84,127.22l.64,1.79C1637.27,128.07,1637.61,126.92,1636.84,127.22Z"/><path class="cls-4" d="M1764.74,119.5a19.68,19.68,0,0,1,1.1,3.72l-.3-3.56A2.81,2.81,0,0,1,1764.74,119.5Z"/><path class="cls-4" d="M1761.76,106.63l2.55-2.17-.27-3.28A45.58,45.58,0,0,0,1761.76,106.63Z"/><path class="cls-4" d="M1743.7,156.27c-5.69,3.73-1.5-7-5-7.16-1.34,1.55-.52,4.8-1.13,6.24,3.62-4.84,4,10.12,8.14,6.21,1.88,5.72-.71,7.55-3.07,6.88-4.34-4.3-.17-4.58-2.17-9.86-1.55,1.77-.76,2.55-.21,5.84-3.65.25-3.34,9.39-8.59,3.07-1.69,2.2-.36,4.61-.35,8,2.38,5.68,4.7,1.34,7.6,5.33a5.74,5.74,0,0,1-1.44-2l2.48.26c-2.75-1.07-2.38-5.68-1.61-6.58.66-.45,2-1.37,2.49.26l-.51,1.71c2.22,1.09,1.13-5.5,4-3.19.67,1.21.39,2.06.68,2.87-.17-4.57,1.52-5.09,2.66-8.94l1.22,6.18c-1-7,4.25-7.4,8.83-5.64-.79-.77-1.71-1.14-1.85-2.37,1.16-2.17,4.31.95,4.88,4.25-.45-5.41,8.49.64,8-6.43L1766.21,128a4.28,4.28,0,0,1-.56,2.14c-3.31-4.34-3.56-3.5-4-8.88-.47,3.37,2.05,6.93-.4,8.37-.17-2.92-2.59-8.57-5.31-8-3.79,7.75-1.25,23.42-3.62,33.19-2-3.62-6-.42-8.61-.24-1.07-4.4,0-6.32,1.3-7.93-1.17.25-3,1-4.48,1.49Z"/><path class="cls-4" d="M1752,136.93a2.69,2.69,0,0,0-.81-.47A1.22,1.22,0,0,0,1752,136.93Z"/><path class="cls-4" d="M1745.55,146.54a2.37,2.37,0,0,0-.17-.41c-.14.16-.26.36-.4.54A4.07,4.07,0,0,1,1745.55,146.54Z"/><path class="cls-4" d="M1759.25,111.82c-.15-1.24,0-1.67-.18-2.91a10,10,0,0,1-.3,1.34A2.09,2.09,0,0,0,1759.25,111.82Z"/><path class="cls-4" d="M1763.63,117.75l.55,1.62a2.93,2.93,0,0,0,.56.13A4.13,4.13,0,0,0,1763.63,117.75Z"/><path class="cls-4" d="M1704.47,133.59l-.2,1.08C1704.59,134.44,1704.58,134,1704.47,133.59Z"/><path class="cls-4" d="M1733.9,153.17c1.95-1.36-2.39-5.68.59-7.12l-1,.07c1-3.39,5.3-4.11,7.75-5.53.77,2.36,2.83,2,4.18,5.54,1.36-1.65,2.72-3.24,1.91-7.22,1.64.65,1.78-3.26,3.85-2.45-1.57-1.8-1.42-8-3.54-3.82.14-.41-.26-.81-.14-1.23-3.53-1.86-2,3.46-3.85,4.42-2.09-1.52.22-4.18-1.22-4.5-1.39,3-8.42,1-4.58,8.65-1.42,1.36-2.47-.24-3.64-1.41,1.26,9.51-11.57,1.16-6.54,11.68.77-.88,2.47-1.4,2.83-4.34Z"/><path class="cls-4" d="M1756,114.07c-.16,0-.31.13-.46.09A1.56,1.56,0,0,0,1756,114.07Z"/><path class="cls-4" d="M1797.33,131.52l2.47,7.28c-4.23,4.1-7,3-11.27,5.46a1.89,1.89,0,0,1-.42-2.06c-2.71,2.3-8,3.1-8.76,7.35-1,.42-4.65-.5-4.65-3-.18.84-.45,1.69-1.1,1.74-1.34-2.4.89-1.3-.06-3.34-.51,0-.92-.35-.64.48-.29-2.48-4.81-8-1.31-9.5,4.11,5.11-2,1.82,1.81,7.79,1.15-.51-.17-2.9-.45-3.73,1.52-.56,2.25,1.06,2.88,2.55-.4-2.24,2.75-.38,2.06-3.75,2.58-1.86,2.16,4.85,4,3.88l-2.07-7,3.65-.27c3.32-4.41-6-10.8-2.77-16.89,1,3.68,5.74,8.33,8.75,8.53-1.29.92-1.85,6.37-4.59,5.35,5,3.79-3.24,2.31.9,7.43-.06-3.34,1.87-4.73,4.23-4.06l-.25.85c2.09-.17.13-7.53,3.8-6.14,1.1-.79,1.76,1.13,2.29,2.74C1796.34,131.81,1796.63,130.1,1797.33,131.52Zm-2,2.63-1.91.14C1794.35,135.17,1794.94,134.84,1795.37,134.15Z"/><path class="cls-4" d="M1817.47,26.18l1-.25A1.46,1.46,0,0,0,1817.47,26.18Z"/><path class="cls-4" d="M1799.13,12.06a6,6,0,0,0-.27.92A1.47,1.47,0,0,0,1799.13,12.06Z"/><path class="cls-4" d="M1809.49,29.54a2.4,2.4,0,0,0-.25.92Z"/><path class="cls-4" d="M1771.74,32.78,1771,34.3A1.86,1.86,0,0,0,1771.74,32.78Z"/><path class="cls-4" d="M1804.14,27c.08.33.15.65.24,1A1.23,1.23,0,0,0,1804.14,27Z"/><path class="cls-4" d="M1917.76,46.78a1.72,1.72,0,0,0-.85-.72C1917.41,46.9,1917.64,47,1917.76,46.78Z"/><path class="cls-4" d="M1813.07,115.94l.38,1.75A3.45,3.45,0,0,0,1813.07,115.94Z"/><path class="cls-4" d="M1822.88,111.49c0,.11.09.24.13.37A2.64,2.64,0,0,0,1822.88,111.49Z"/><path class="cls-4" d="M1781.47,21.57a6,6,0,0,0-.34-.53A.38.38,0,0,0,1781.47,21.57Z"/><path class="cls-4" d="M1822.7,111.1a2.84,2.84,0,0,1,.18.39A2,2,0,0,0,1822.7,111.1Z"/><path class="cls-4" d="M1861.9,72.62a14.19,14.19,0,0,0-1.08-1.19A2,2,0,0,0,1861.9,72.62Z"/><path class="cls-4" d="M1849.64,71.19c-.14-.12-.24-.24-.4-.37Z"/><path class="cls-4" d="M1823,111.86a11.21,11.21,0,0,1,.25,1.67A8.61,8.61,0,0,0,1823,111.86Z"/><path class="cls-4" d="M1865.38,44.83c0,.21,0,.4-.06.59s.17.06.28.12Z"/><path class="cls-4" d="M1871.69,45.4a12.46,12.46,0,0,0,.36,1.54c.84-2.57,4.92-2.32,3.06-6.86-.52.41-4.82-.62-5.61-3.43-.63,1.7-4-.46-4.22.58,3.16,1.39,2.08,3.56,1.52,5.7-1.85-.66-1.56-3.61-3-3.89l-2.53,1.89,2.71-.65,1.4,4.55c0-.19,0-.31,0-.52C1868.51,40.28,1868.89,50.26,1871.69,45.4Z"/><path class="cls-4" d="M1872.05,46.94a3.43,3.43,0,0,0-.13,1.36C1872.28,48,1872.21,47.54,1872.05,46.94Z"/><path class="cls-4" d="M1892.27,45.28a4.17,4.17,0,0,0,.38-1C1892.6,44.48,1892.39,44.84,1892.27,45.28Z"/><path class="cls-4" d="M1766.45,100.87c.68,1.21,4.33,2.6,2.71-.62-.87,0-1.76,0-2.65,0Z"/><path class="cls-4" d="M1869.46,34.77a3.39,3.39,0,0,0,0,1.88A3.12,3.12,0,0,0,1869.46,34.77Z"/><path class="cls-4" d="M1834.26,0c-.1,3.15-3.81,2.59-4.21,5.93-.06-1.73-.51-4.1-.65-5.93h-1.93c-.13,1.65-.71,3-2.47,3.3l-.29-.82c1.45,7.79-7.65-1.42-7.63,2.32,2.58,7.27,4.67,1.27,7.08,3.57.12,3.32-3.08.25,0,3.74-1.25,4.7-4.69-5-4.73.83l2.23,1.05c.52,3.71-2.22,2.69-1.71,6.39,2.23,4.81,1.77-1,4.63-.41l.91,4.1,2.11-6c-1.79-6.53-2.93-6-2.48-11.45a40.41,40.41,0,0,1,6.64,9c-.9-4.06.79-6.68,3.57-7.77l-.15,2.54c2.56-.24,1.92-3.52,2-5.62a4.66,4.66,0,0,0,1.5,2c1.08-1.32.7-4.3-.52-6.7Z"/><path class="cls-4" d="M1922.71,3.68l.38,2.46c1.49,2.09,2,.15,2.91-1.43V0h-76.56A8.59,8.59,0,0,0,1848,5.45c5.5,2,.6,5.35,2.39,8.11-1.5.14-6.35-8.4-5.92-13.56H1840c1.13,3.51,2.22,7.11,3.84,11.63a29,29,0,0,1-12.06,4,33.83,33.83,0,0,1,2.22,4.8c-2.12-1.48-3.32,1.12-5.27-2.88.82,4.51-1,9.25,1.62,12.78-.08.15-.2.32-.3.48-3.56-3.58-7.36-5.89-11.58-4.88-.78.3.45,3,2.5,6.67-1.37-.74-2.64-1.4-3.47-1.17-.29-2-1-4.48,0-5.25l-6.53,1.63-.45-2-1,3.77c.79-1.67,3.35-1.6,4.83,2.58-1.15,4.27-4.75.8-4.43,7-3.58-7.2-4.89-7.93-6.2-12.41a.57.57,0,0,1,.45.24c-1.11-4.31-1.45-9.42-.54-11-6,.07-3.54,1.95-8.68,2.36-2.44-4,1.72-6.39-.67-8.69l5,0c-.54.63-.15,1.61-.14,2.44,1.26-4.37,4.15-1.1,3.83-6.92,2.28,1.27-.45,4.21,1.34,4.18-.83,1.39.31,6.67,1.34,10.19,4,.07-.85-6.18,1-9.25l3.82,2.6c.85-1.32-1.49-2-2.17-3.15,1-1.76,2.85.59,4,.09-.8-.78-2.11-1.5-2.69-3.13,3.43,2.22,4.22-.74,8.9,4.26-2.4-2.3-2.47-7.7-2.13-9L1813.23,0h-5.91c-2.89,1.69-6,1.86-8.57,5.91l-.86-2.42c-11.16-3.28-.8,14.2-7.25,17.63-3-5.58-2.63,2.29-5.12-3.34,2.16-.6.69-2.55-1.18-4.9-.18,2.51,1.12,7-2.12,6-.62-3.28-3.75-4.71-2.14-6.9-3.59.27-5,1.62-4,7.36-2.47,7.3-4.52-5.44-8-.2l-.34-2.49-2.63,2.28,2.39,2.33-1.92,5.12c-.65,4.22,2.66,3.14,3.51,5.57l-1.29-4.48c1.93.27,2.2-4.32,3.94-1.55-2,1.79.11,4.75,0,6.86l1.43-2.79,2.26,2.74c2.29-1,4.35-1.17,4-5.31-1.7-1.11,0,3.76-2,1.83-1.46-5.72,1.06-7.58,2.89-10.64.68,1.19,1.7,1.12,1.87,2.35.17.5-.32.69-.68.61,1.34,2.2.57,4.42,3.79,4.55.91,4.1,2,11.09,2.7,12.3-1,1.74-2.88,3.14-4.7,2.44l-.28-.81c-1.54.12-2.42,5.19-4.47,1.6-.34,1.28-2,3.48,1.29,4.48l-2.6,3.94c-2.65-6.88-6.75-6.55-5.79-13.72a46.25,46.25,0,0,1-2.54,3.88c-.07-.24-.13-.42-.22-.69a4.18,4.18,0,0,0-.28-1.3c.52,0,.63-.46,1.32.75-1-5.33-3.5-5.59-5.68-5l1.36,4c-2.75-1.26-5.4-4.08-6.89-1.34L1760,53.15l-1.15,1.64c-1.75-1.81-3.32,1-4.51-3.82-1.08-1.6-.72-2.87.71-2.56.39.39.27.81.67,1.2-.83-2.45-2.06-5.26-4.53-7.15,1.52-.13,1.91.26,2-1.83l-1.54.12c1.5-1.78,1.84-8.47.22-11.68,1.66,4.88-1.77,1-3.2.65.35-1.28.78-4.63-.75-4.53.44,2.06-1.76,6.38,1.59,7-.47,1.71-.77,4.66-2.6,3.94.31-2.93-1.38-4-2.49-7.3.08,3.31,1.7,6.52,2.25,8.15-5.44-2.11-10.89-9.64-13.33-4.49-.24.85,1.73-2.61,2.84.63-.37,6.69-6.51-3.7-8-.26l3.19,4.77a14,14,0,0,1-2.6,3.92c-1.07-1.6-5.48-3.79-4.25-6.36-5.79-.87,1.44,12.79-4.34,13.6,3,.22,3.08-.21,4.86-1.16-.56,3.78.81,2.43,2.31,6.08-2.75-2.72-5.1,2-4.57-3.43-1.66.53-5,1.57-4.68,4l2.21,1.11c-2.29,1-3,5.18-2.15,9.29,2.56-1.82-.66-8.27,3.19-9.35,5.56,1.71.84,4.1,5.8,7.92l.93-5.06-1.54.11c-2-5.26,4.47-1.55,1.14-7.57,5.07,3.41,4.49.12,9.7,3.08-.3-2.47-1.45-2-2.48-1.91,1.66-.53-1.17-6.57,2.61-3.92,1.42.31-1.77-4.46-3.54-3.5,1.65-.53,2.65-2.26,4.7-2.4L1735,39l1.77-1-2.6-1.48c3.15-2.31,7.51-3.42,11.84.84-1,5.48-6.79,6.29-5.34,13.68,1.58,1.56.12-5.83,3.71-.67l-.86-4.1c.48-1.7,2.21-4.32,4.23-.73-1.58,4.09-.76,7.7-.69,11.57.37.79.3,1.32,0,1.7V59l0-.1c-.68.77-2.27,1.07-2.64,2.36-1.41-.32-1.74-2.78-2-3.59-5.73-2.94-2.37,10.15-7.55,8.84-1.61-3.21-4.81-2.57-4.73-4.67-2.56.19-1.84,4.71-2.17,7.64-1.73-2.79-3.73.66-4.18-3l.37,5.8c-2.21-1.1-3.83,2.74-5.94-.44-1,1.73,2,5.27-.83,4.63-.27-.81-.66-1.2-.14-1.23-1.7-1.14-4-.17-3.83,2.74,1.93.29.79.79,2.85.65.92,2,.34,5.79-2.77,4.34.28-6.27-4.45-3.87-4.49-7.19-4.48,1.53-3.72,9.39-5.07,15.71-3.84,2.73-10,3.11-11.26,9l.52,0-.61,3.77c-1.16.49-2.51-5.25-3.64-3.11-1.59-4.89,2.69-2.24,2.9-6.42-5.19-3,.71-5.87-3.06-8.55,3.2,9.79-5.88,4.52-6.2,10.78-3.09.19-.68-4.53-2.22-4.45l.54,3.32c-1.42-.35-2.2-1.13-3.12-3.15-3.48-.23-5.91,2.82-6.39,7.84,2-3.44,1.08,4.93,4,3.51a6,6,0,0,1-3.44,4.77c1.14-2.15-5.46-5.52-.82-5.78-2.73-4.41-1.53,1.76-3.59,1.88.1-2.1.74-5.88.34-6.28.3,7.48-10.17.17-9.11,5.09,0,5-1.37,9.65-1.87,14.67-3.88-2.29-5.42,1.12-8.52,1.28l-.39-2c-1.94-.33-3.34,2.66-5.92,2.79l-2.08-3.22c-1,1.72-3.6,3.52-5.93,4.47.91,2,2.84.68,3,3.58,1.17-.47,1.93-1.35.52-3.34,1.16-.48,2.71,2.76,4.38,3.93l-3.35,4.32a1.11,1.11,0,0,1-.88-.59l1.4,3.89c-1.17.49-1.93-.3-2.45-1.93-1.82,2.58-.4,7.93-3.51,8.07-.36-3.71-.62-6.2,1.19-7.12l-3,1.39c-.25-4.15,5.3-5.68,1.82-10.92-2.19,3.87-5.43,9.44-6.22,15.29-3.49-3.59-3.37,2.65-6.73,2-.77-.78-2.06-1.56-2.43-3.6l.64-.46c-3.75.6-6.22,5.28-7.66,9.94l-3.46-3.6c-5.82.69,4.09,6.47-.59,10-3.33-4-7.37.72-9.28-2.93-.79.86-1.3.89-.15,3.75,1,0,2.59-1.78,2.94,2-1.18,2.13-3.1.13-4.4,1-.25-.83-.35-3.73-.62-2.88-2.62,3.43-9.1,6.21-8.94,15.36.91-1.3-.22-4.17,2.1-3.44.89,2-.14,2.1,0,3.33,1.9,3.68.55-3.36,3.51-1.38l-.85,5.86,3.2,2.76-2.1,13c6.62.13,2.78-15.11,9.48-12.07-.17,1.48,1,2.18,1.56,3,.58-2.5,2.27-3.25,2-6.12l2.28-.92c.9,2,2.27,7.4-.07,8.33,4.1-1.64,6.54-5.7,9.17-9.35s5.42-6.93,10.28-6.95c.78.8-.52,1.7.38,2.07.46-1.47,1.39-3.27,1.23-4.51a3.37,3.37,0,0,1,.12,2.19c3.26-3.55,8.14,1.37,9.44-2.79,1.29,2.43-1.32,2.57-.55,3.35,5.06.16,3.69-8.48,7.84-10.36.24,4.13,2.57,3.19,4.64,4.73,2-4.69,8.83-8.78,12.85-13.58,2.72,9.42,5.83-2.39,9.72,4.87,1.17-.47,2.33-2.62,1.16-5.47,0,1.67-2.6.13-3.1-1.5,1.41-1.32,3.86-2.71,2.43-6.38l3.77,2.7c-1.18-2.85-2.09-6.54-.93-7,5.84,5.91-2.6-4.84,2.82-2.66a59.54,59.54,0,0,0,1.59,8.24c2.08-.13,1-1.73,1.94-3,1.43,2,1.58,6.57.94,8.68l3.25,1.07c.11-5.42,1-13.38,5.12-13.62.66,2.88-.5,3.35,2.11,6.53,1-1.73.74-7.54,3.86-6.05-.13.42.26.82.13,1.24,1.65-5.53,3.11-.2,6.47-1.24.14.41.36.92.48,1.4l.67-3.56c1-8.39,6.49,2.09,10.14,3.52l-.25.85c3.53,3.53,6.46-2.91,8.68-1.8-3-1.89-1.84-2.39-5.25-6.32-1,1.73,2,6.94-1.37,6.33-1.73-4.48.71-7.55-.23-11.23,1.28-.93,5.5,5.47,6.82,7.9,3.23-2.29,6.35-.84,9.93-4.42.09-3.78-3.15-13.55,3.26-9.4l.32,1c-.36-1.65,2.26.29,2-1.94-3.42-3.93.08-3.75-3.47-7.26,1.93-1.37,5.25,4.65,7.25,8.26-1.53-7,5.72,1.27,7.21-3.84.69,2.88-2.53,5.17.36,7.47l.64-9.2-1.79.95c.81-6.29,4.37-1.15,7.12-.08,1.26,1.68.4,2.93-.52,3.3,1.09-.21,2.22-1.77,2.78-3.82,0-2.43,2.07-6.48,1.76-10.48.23,0,.47.09.71.12a2,2,0,0,1,.15.93,2.44,2.44,0,0,0,.43-.85c.72.08,1.43.13,2.14.18l.08,1a7.16,7.16,0,0,0,.31-1c.72,0,1.44.06,2.16.08l.15-1.91-.51,0c-2.16-4.85-1.87-9.46.83-10.07a16.6,16.6,0,0,0-4,.06l-.16-1.87c3.2-.32,6.2-.66,9-1-.42,1.36-1,2.52-2.25,2.61,5,3.81,5.18-5.8,9.58.12-1.12,7.61-4.54,5.35-7.7,9.34-4.49-3.85,1.2-4.26,0-7.09l-3-.19c1.75,2.78-3.67,4,.7,9.92a38.68,38.68,0,0,0,16.15-4.08l12,35.36a14.26,14.26,0,0,1,.81,2.41c4.26-2.42-4.17-13.87-3.69-15.59.77-.88.18-4.18,2.17-2.24l.43,2c1.9-3.06-1.54-5.3,1.18-5.92.57-3.81-2.07.16-2.15-3.18,3.12-.24-2.81-9.79,3.21-7.75.55,1.61,3.11,5.18,1.06,7l4,2.2c-1.89,3.07-.49,1.7-3,3.58,1,5.33,2.76,8.12,3.51,12.66.48-1.7-1.55-5.3.13-5.87,2.49.23.84,2.45,1.4,4.07-.14-6.67,5.15,3.35,4.88-2.89-3.1-5.19-2.58-5.22-5.89-7.87.73-2.56,4.55,0,6.74,4.87l-1.79-4.45c.9.87,2.2.31,2.82,1.36l-.49-2.37c-2.8-2.7-4.52-3.81-5.76-1.2-.59-3.29-4.7-6.72-2.54-9,1.15-.53,1.34,2.38,2,3.58,4.27-6.19,9.47,4.26,12.86-.62-.2,2.52-4.38,1.21-5.07,5.43,3.19,3.07,2.29-2.67,3.84-2.82-.19,2.53.37,4.15,2.6,5.22l-.72-2.87c.84-.37,2.15-1.42,2.88-.22a3.53,3.53,0,0,0-2.29-1.93c.28-4.61,3.31-8.2,7.87-8.17,2.48,5.63-3.62,5.75,1.13,8.66,1-1.73-.74-8.27,3.35-6.53.48,3.7,2.81,2.69,3.77,4.68l.3-8.36c2.07-.19,4.28-.79,5-3.35a1.9,1.9,0,0,1-1.91,1.41c-.87-7.84,5.59-.06,7.29-4.39l-.3,3c3,.13,3.82-2.85,4.64-5.85l2,4c-2.51-5.61.89-8.85,1-10.95-3.83,6.6-7.09-1.86-10.51,5.1-.72-6.62.27-8.37,0-14.61,1-.07,1.83.68,2.51,1.87-.33-2.48-1.87-6.08-1.29-8.22l1.49,1.95c5,.4-1.13-10.75,3.4-10.73,3.28,4.71.29,8.3-.35,12.54,4,3.79-2.43,4.16,2.91,9.77l-.51-3.71c1-.47,2.13,1.7,1.91,2.52.85-1.41,1-.43.27-3.14,5.49-3.41,2.69,6.85,9.45,6.25,0,1.67-1.63,2.23.16,5l-3.64.32,2,4c4-1.61,3.67-7.84,2.11-15.23-1.5,5.57-2.47-3.94-5.23-4.94-.33-2.3.85-1.54,1.8-.61-.34-1.29,1-2.89-.3-5,5.64,9.1,13.19,5.46,16.41,16,3.58,1.76,7.43-7,11.76-9.89l.12,3.34c9.08,5.83.85-8.85,2.4-12.74-.74,4.65,4.27,2.93,6.7,5.2.62-4.26-.29-10.43,3-11.59,2.62,3.5,6,9.85,8.19,9.22l-.43-4.13c2.19-.64,3.31-4.93,5.87-3.1l-.12.44c3.3.92.31-5.06-1.77-4.86l.9-3.43.71,1.2c1.52-3.9.94-11.37,4.81-14.69.85,4.5,7.14,5.53,3.78,8.81.14-2.52-2.62-3.49-3.73-5.05-1.9-.13-1,4.77-1.41,5.55,1.6,1.93,3.94,7.44,4.73,10.84-.2-3.33,1.65-4.94,3.51-6.5V14.17c-2.39-.59-7.13-1.3-7.7,2.9,3.48,2.14.57,3.7,2.38,6.44-1.89-4.41,2.22-2.72,3.21-.75-.88,1.64-3.74,4.2-5.21,4l3.9,1.14c.27,2.92-.87,9.3-.58,10.1-2.14-1.45-3.5,0-5.43-2.37l.18-4.61,2.33,2.68-.86-4.51c-2.06-.73-6.21-1.93-8.59-5,3.26-1.28,6.68-6.25,7.89-17.87a2.83,2.83,0,0,1,.2,1.24C1920.62,6,1920.73,5.55,1922.71,3.68ZM1776.5,85.12a1.37,1.37,0,0,1-1.4,0l1.53-.21A1.93,1.93,0,0,0,1776.5,85.12Zm3.3-.67,1.43-.21,1.25,3.65A11.2,11.2,0,0,1,1779.8,84.45Zm16.31,8.32c2.87.61-2.71-10.2,2.35-4.77-1.14-3.07-2.22-4-3.26-4.24a6.72,6.72,0,0,0-.54-2.17c.83-.21,1.6-.43,2.32-.65a2.1,2.1,0,0,1,2,1.61c2.19,4.84-.24,6.26,1,10.76C1800.05,95,1797.1,96.45,1796.11,92.77Zm5-12.47.28-1c9.43-4.47,2-9.62-8.28-16.24,3.38-1,7.27-1.29,10.83-2.19l-1.48-2c1.43.29.83-3,2.7-.64.6,1,1.52,15.86,1.56,20C1805.1,79.94,1802.92,80.85,1801.13,80.3Zm12.95-4.82a4.09,4.09,0,0,0-1.32-2.09l1.57-1.66C1815,73.74,1816.43,75.61,1814.08,75.48Zm26-4.27c.09,2.93-3.36,1.64-4.5-.1,2.14,5.21-2.76,4.66-2.79,8.23-3.57,2-6.28-6.55-8.38-2.62l2.8,2.68c-2.26,2.69-3.13,4-7.15,3.93-2.45-4,2,.26,1.63-2.21l-3.6-3.46c.63-.47.25-4.61,2.18-.6-1-2-1.46-5.72-2.68-3.11l0-3.76a5.42,5.42,0,0,0-.91-1c.36-.4.72-.82,1.09-1.22,1.24,1,2.2.39,4.65,3.08.68,1.19-.06,2.09-.32,2.94,2.25,1.06,3.12-.25,3.47-1.54-2.59.22-2.41-2.3-4.58-5.46.59-2.13,3.17-2.35,3.52-3.64a8.89,8.89,0,0,1,6.27,7.26c.36-2.21,2.4-1.2,1.83-5.44-.35,5.06-4.28-8.39-4.58-1.67-3.66-5.12.75-4.66,3.39-3.23-.35,1.29,1.25,2.82,1.82,4.43,1.33-3-1.77-6.52-4.11-7.14l1.16-4.29c-.12,0-.2,0-.32,0l2-2.62c2.54,4.2,4.07,7.07,2.8,6.38l2.92,2.25-1.61,2.23c2.69,3.1,2.7-.66,3.86-1.16C1842.46,62.23,1838.67,65.06,1840,71.21Zm63.8-44.75c-1,.11-2.73,2.77-4.83-.78,1.77-1,1.36-1.38-.66-3.26-.08,4.17-4.5,3.76-1.41,9.3-2.4,1.5-1.33-.7-4.09-1.68a8.53,8.53,0,0,1-1.25-4.89l-6.08,6c1.86,4.41,6.66,1.44,6.94,8.09.07,1.67,3.45,8,0,7.52a2,2,0,0,1-.23-1.5c-.72,1.37-1.69-.06-3.33-.24-2.5-3.94,0-3.76-.69-7-.34,1.28-.38,3.37-1.42,3.48l-.58-1.63-2.12,2.3c.55,3.71,2.19-.63,3.58,1.73l-.38,3.39c-1.47,1.83-6,5.57-10.75.6-3.28-1,.13,3.32.88,6.17.42,4.14-3.1.3-3.67,2.43,1.68,3.18,0,3.75,2,7.75l-2.59.24c1.8,6.51,3.11-.29,5,2,3.83,4.66-.69,2.57,1.63,5.29,1.38-1.4.11-4.18.46-5.48.74-.89,2,.23,2.93,2.24-3.8-.91.71,4.94-1.89,5.18l-.69-1.18c2,4-2.36,3.15-2.53,5.67-4.67-3.33-1.16-7-1.86-8.19L1874,72.75c-.11-3.32-2.65-5.18-2.25-8.56-1.1,2.19-3.17-1.38-3.57,2-1.16-7-4.66-3.32-6.74-6.9,1.12-2.39,7,1.08,7.79,2.34-.15-1,2.25-1.49,3.83-.5l-1.4-6.13c-1.66.58-2.57,4-4.31-.85l-.9,3.44c-1.51-8.34-1.47-8-1.12-12.17-7-3.78-4,10.07-10,6.5l.23-.85c-5.88,4.83-11.2-1.82-16.87-9.52l2.06-2.94,2,3.57c5.29-.87,3.71-12,9.37-12.51,1,3.66-1.71,2.66-.61,4.22,3.2-.7-1.93-9.83,3.24-6.55-3.22,3.1,2.82.75,1.7,5.09,2.44-7.24,11.27-2.58,13.94-5.26-2-1.91-.42-4.13-.72-4.94,1-.1,1.92,2.34,1.28,2.8,2.75,1.19,4.6,4.08,5.82,7.15l-3.24,2.2c1.64.43,3.52,2.6,4.69,2.64v0c.51,0,.9-.34,1-1.5-.06-1.57-.45-2-1.33-3.77-.12-3-.24-6.6-.32-11.1l.28.8,3.25-2.81.47,2,.59-4.22c2,4,1.62,1.5,2.9,4.3,4.94,6.21,3.4-5.32,8-3.69l.49,2.05c-.34-4.58,5.71-2.63,8.79-3l.31.82a6,6,0,0,0,1.79,6.26C1904.44,24.32,1903.86,25.29,1903.83,26.46Z"/><path class="cls-4" d="M1766.55,41.4l-.12,0a.17.17,0,0,0,.1,0Z"/><path class="cls-4" d="M1617.67,105.32l-11.09,8A124.47,124.47,0,0,0,1617.67,105.32Z"/><path class="cls-4" d="M1920.45,32.31l.54-2.14C1920.88,30.58,1918.12,29.63,1920.45,32.31Z"/><path class="cls-4" d="M1916.83,50.24c2.73,3.06-2.12,2.3,1.36,4.45C1919.56,53.3,1917.93,51.8,1916.83,50.24Z"/><path class="cls-4" d="M1885.36,36.2c-.22.11-.38.36-.39.86A3.64,3.64,0,0,0,1885.36,36.2Z"/><path class="cls-4" d="M1885.36,36.2c.68-.35,2.07.64,2-.62C1885.69,34.42,1885.69,35.19,1885.36,36.2Z"/><path class="cls-4" d="M1877.88,41.08l.75-.06c.26,2.07.43,1.65.28,0,.6-.46,0-1.56-.32-2.36-.1-.51-.19-1-.3-1.58,0,.56.08,1.1.12,1.56C1877.36,39.09,1876.82,39.58,1877.88,41.08Z"/><polygon class="cls-4" points="1902.51 66.28 1903.23 71.22 1903.46 70.36 1902.51 66.28"/><path class="cls-4" d="M1850.34,46.12c1.09,1.56,2.06-.2,3,.14C1852.29,46.35,1849,41.64,1850.34,46.12Z"/><path class="cls-4" d="M1813.34,11.37c.51,0,2.1,1.48,3,3.9C1816.24,13.61,1814.64,8.34,1813.34,11.37Z"/><polygon class="cls-4" points="1845.86 47.76 1846.66 48.52 1847.36 45.96 1845.86 47.76"/><path class="cls-4" d="M1872.08,85.47c.13-4.19-6.85-6.46-5.17-10.81-5.72-1.41,2.66,4.49-.55,5.44C1868.64,80.35,1871.59,84.06,1872.08,85.47Z"/><path class="cls-4" d="M1866.36,80.1a1.83,1.83,0,0,0-1,.13A3.83,3.83,0,0,0,1866.36,80.1Z"/><path class="cls-4" d="M1830.71,72a5.14,5.14,0,0,0,0-1.41A5.63,5.63,0,0,0,1830.71,72Z"/><path class="cls-4" d="M1858.35,87.55l.2-6.29c-.14,4.18-4.76,6.26-2,11,2,.26,3.07-1.94,2.73-4.42Z"/><path class="cls-4" d="M1783.08,13.81l.17-2.52-1.71.14C1782.31,12,1783.37,16,1783.08,13.81Z"/><path class="cls-4" d="M1781.21,11.47l.33,0A.21.21,0,0,0,1781.21,11.47Z"/><path class="cls-4" d="M1834.58,67.09a2.09,2.09,0,0,0,2-1.84C1835.8,64.48,1833.21,64.7,1834.58,67.09Z"/><polygon class="cls-4" points="1778.56 24.99 1780.03 23.2 1778.15 24.6 1778.56 24.99"/><polygon class="cls-4" points="1765.57 20.98 1764.79 20.21 1764.09 22.75 1764.88 23.52 1765.57 20.98"/><path class="cls-4" d="M1825.18,112.12c1.56-.12.39-5.05-.42-5.82l-2.43,1.45c2.56,3.55.64-.46,2.59-.21Z"/><path class="cls-4" d="M1703.27,60.23c-.68-2.87,2.78-2.68,4.11-.27.14,1.24-.85,3,.84,4.11l-.9-7.43c4.8,2.6,1.84,9.45,1.49,12.39,3.34-.58,2.2-5.2,5.34-6.68-1.2-.13-2.55-1.44-3.69-2.58-2.27-4.44,1.6-3.85,3.51-5.2-2.26-1.32-2.28-3.33-2.17-5.56a1.47,1.47,0,0,0,0-.87c0-.27,0-.53,0-.79l-.25.12a8.68,8.68,0,0,0-1.15-1.84c-1.12,2.15-4.25-1-5.4-.49,4.61,6.78-3,3.53-3.35,6.46l-1.28,1.5-.61.31a5.21,5.21,0,0,1-.58-3.73c-.08,1.82-2.91,2.55-1.55,4.78l-5.86,2.94a4.28,4.28,0,0,1-1.07-1,2.53,2.53,0,0,0,.36,1.31l-25.58,12.7c1.54,0,3.43,1.13,5.13,1.32.32,5.8,2.57-.15,4.16,4.73-.1,2.1-1.64,2.19-2.94,1.43.8,2.47,2.88,4,4.06,6.84,4.64,1.38-.11-10,3.87-9.8,1.2,2.84,1.36,5.75,3.27,4.38l-.25.85c1.87-4.7,5.59,5.06,4.08-3.57l1.85,4c.08-3.74,3-5.16,4.42-6.5l.27.82c2.48-6.81,2.16-2.21,6.47-6.63l-.17,5.83c2.73,1.08.7-4.21,2.25-4.31.28.82,2,3.62,1.1,4.93L1706,64.63C1706.11,60.88,1704.32,61.83,1703.27,60.23Z"/><path class="cls-4" d="M1714.15,62.35a1.45,1.45,0,0,0,1.24-.41A4.4,4.4,0,0,0,1714.15,62.35Z"/><path class="cls-4" d="M1663.73,71.33l1.81-.88A2.16,2.16,0,0,0,1663.73,71.33Z"/><path class="cls-4" d="M1719,49.24c-2.09-1.54-.57-3.29-1.12-4.92l-3.9,2c.77,1.54,1.21,3.45,2,4.82Z"/><path class="cls-4" d="M1711.46,43.91a9.89,9.89,0,0,1,.4,3.44l2.13-1.07A3.91,3.91,0,0,0,1711.46,43.91Z"/><polygon class="cls-4" points="1751.55 126.11 1750.91 126.59 1750.41 128.29 1751.55 126.11"/><path class="cls-4" d="M1737.26,124.61c2,1.94,2.71-.61,3-1.46C1738.41,124.11,1738.78,122.84,1737.26,124.61Z"/><polygon class="cls-4" points="1751.57 148.62 1750.42 150.8 1750.81 151.18 1751.57 148.62"/><path class="cls-4" d="M1657.72,93.48c-.25.22-.5.42-.74.66A1.36,1.36,0,0,0,1657.72,93.48Z"/><path class="cls-4" d="M1671,82.56c-6.33-2.55,1-5-3.06-10.21l-1.38,3-.53-1.64-2.55,1.81c1.82,2.39,2.33,2.36,3.51,5.21-4.23.65-2.73-2.77-7.11-5L1656,78.15l-.06-1c-.32.22-.31.65-.22,1.16l-13.2,8.29C1641,90,1646.29,91,1646.32,96c3-1.39,8.73-.48,6.38-6.17.27.82.79,2.45,1.69,2.83l-.43-5.39-2.31-.7c-.41-5.37,5.61-7,7.94-4.59-2.43,3,1.73,7.8-4.07,6.87.86,1.32,2.83,3.42,2.2,4.66C1662.12,89.44,1667.94,89.82,1671,82.56Z"/><path class="cls-4" d="M1620.49,109.33l-.2-.52C1620.32,109.12,1620.39,109.34,1620.49,109.33Z"/><path class="cls-4" d="M1622.54,109.22v-6.64l-3.72,2.26,1.47,4c-.1-1.14.39-3.72,1.61-2.47Z"/><path class="cls-4" d="M1623.94,97.92c-1.27,2.57.92,7,3,8.59-.9,3-3.22-4.41-2.3,1,1.54,3.24,3,.27,3.21-.58Z"/><polygon class="cls-4" points="1639.99 93.39 1640.29 95.52 1641.93 95.37 1639.99 93.39"/><path class="cls-4" d="M1640.29,95.52l-1.62.14a28,28,0,0,0,2.13,3.51Z"/><path class="cls-4" d="M1634.4,96.05a6.55,6.55,0,0,0-2.36.23Z"/><path class="cls-4" d="M1636.53,96.47l-.32-.57-1.81.15A16.38,16.38,0,0,1,1636.53,96.47Z"/><path class="cls-4" d="M1638.67,95.66c-1.7-3-3.5-6.25-5.11-4.44l2.65,4.68Z"/><polygon class="cls-4" points="1736.35 150.09 1735.59 152.64 1735.99 153.04 1736.75 150.5 1736.35 150.09"/><path class="cls-4" d="M1725.69,151.62a11.76,11.76,0,0,0-.16,2.2A3.49,3.49,0,0,0,1725.69,151.62Z"/><path class="cls-4" d="M1729,176.42c-3.4-2.27.64-5.44-3.54-5.17-1.71-2.81-1.86-7.39.49-6.71,1.18,2.84-.77,2.55,1.59,4.9-.43-3.74,1-1.75-1.34-5.75.62-3.49-.59-6.56-.63-9.87-1.36,2.9-8.07.82-8.37,7.53.82,5.78,5,12.2,8.43,19.47C1726.64,182.42,1731.09,181.3,1729,176.42Z"/><path class="cls-4" d="M1735.39,182.25c1-.06,1.18-.48,1.44-1.33C1735.5,178.5,1736.05,181.81,1735.39,182.25Z"/><path class="cls-4" d="M1689.4,137c.32,1.12-.66,3.14.51,4.77l1.79-2.43C1691.06,139.44,1690.27,138.27,1689.4,137Z"/><path class="cls-4" d="M1692.49,138.3l-.79,1C1692,139.32,1692.27,139,1692.49,138.3Z"/><path class="cls-4" d="M1689,136.42l.42.59A1,1,0,0,0,1689,136.42Z"/><path class="cls-4" d="M1627.79,96.91c-.89-2-1.4-.34-1.66.5C1626.64,97.38,1627.55,97.76,1627.79,96.91Z"/><path class="cls-4" d="M1591.37,123.11l-1.66-1.18C1590.47,122.74,1590.86,123.14,1591.37,123.11Z"/><path class="cls-4" d="M1601.56,184.62a4.77,4.77,0,0,1,.27,1.12A4,4,0,0,0,1601.56,184.62Z"/><path class="cls-4" d="M1601.83,185.74c.1,2-3.08.26-2.65,3.14l-.26-.82-.67,2.12C1599.41,189.39,1602.2,188.51,1601.83,185.74Z"/></g><polygon class="cls-5" points="282.01 88.83 283.63 110.16 302.13 120.91 282.35 129.05 277.84 149.97 263.98 133.66 242.7 135.84 253.92 117.62 245.28 98.06 266.07 103.1 282.01 88.83"/><polygon class="cls-5" points="1593.01 104.83 1594.63 126.16 1613.13 136.91 1593.35 145.05 1588.84 165.97 1574.98 149.66 1553.7 151.84 1564.92 133.62 1556.28 114.06 1577.07 119.1 1593.01 104.83"/><polygon class="cls-5" points="489.75 184.26 509.2 193.17 527.57 182.2 525.1 203.45 541.21 217.53 520.24 221.75 511.83 241.42 501.33 222.78 480.02 220.86 494.51 205.12 489.75 184.26"/><polygon class="cls-5" points="1727.73 317.73 1736.8 337.1 1757.91 340.61 1742.29 355.23 1745.48 376.38 1726.75 366.05 1707.62 375.62 1711.66 354.61 1696.64 339.37 1717.87 336.72 1727.73 317.73"/></g></g></svg>