<svg xmlns="http://www.w3.org/2000/svg" viewBox="0 0 358.25 306.73"><defs><style>.cls-1{fill:#cf9c52;}.cls-2{fill:#e5b563;}.cls-3{fill:#000018;}.cls-4{fill:#8b8e9f;}.cls-5{fill:#02061c;}.cls-6{fill:#9397a8;}.cls-7{fill:#c1bddd;}.cls-8{fill:#8b88a7;}.cls-9{fill:#9491ae;}.cls-10{fill:#8d8ba8;}.cls-11{fill:#090b20;}.cls-12{fill:#7e7b9a;}.cls-13{fill:#928fac;}.cls-14{fill:#a7a4c3;}.cls-15{fill:#07091f;}.cls-16{fill:#0e0e24;}.cls-17{fill:#0c0d22;}.cls-18{fill:#9195a6;}.cls-19{fill:#0d0e23;}.cls-20{fill:#8d8aa8;}.cls-21{fill:#908daa;}.cls-22{fill:#2c2d41;}.cls-23{fill:#908eac;}.cls-24{fill:#8481a0;}.cls-25{fill:#8986a5;}.cls-26{fill:#16172b;}.cls-27{fill:#8f8caa;}.cls-28{fill:#8d8ba9;}.cls-29{fill:#212235;}.cls-30{fill:#7f7e9b;}.cls-31{fill:#8e8ba9;}.cls-32{fill:#9794b1;}.cls-33{fill:#8a87a5;}.cls-34{fill:#121329;}.cls-35{fill:#9b99b4;}.cls-36{fill:#c0c0c5;}.cls-37{fill:#8c89a8;}.cls-38{fill:#9795b0;}.cls-39{fill:#83809f;}.cls-40{fill:#8683a1;}.cls-41{fill:#4c4d5c;}.cls-42{fill:#8f8da8;}.cls-43{fill:#dedee5;}.cls-44{fill:#8d8e98;}.cls-45{fill:#9997b1;}.cls-46{fill:#383a4c;}.cls-47{fill:#8683a4;}.cls-48{fill:#c6c6cb;}.cls-49{fill:#a3a4ab;}.cls-50{fill:#e0dfe6;}.cls-51{fill:#445;}.cls-52{fill:#e7e7e7;}.cls-53{fill:#9296a7;}.cls-54{fill:#07091e;}.cls-55{fill:#615f6c;}.cls-56{fill:#14162b;}.cls-57{fill:#a5a1c2;}.cls-58{fill:#222438;}.cls-59{fill:#d2d2d4;}.cls-60{fill:#7c7f8e;}.cls-61{fill:#2b2c41;}.cls-62{fill:#73708e;}.cls-63{fill:#232336;}.cls-64{fill:#7b7e8e;}.cls-65{fill:#191a2e;}.cls-66{fill:#1e1f34;}.cls-67{fill:#7f7e9a;}.cls-68{fill:#797795;}.cls-69{fill:#7f7f9a;}.cls-70{fill:#807f99;}.cls-71{fill:#767989;}.cls-72{fill:#e5e5e5;}.cls-73{fill:#5f5d6b;}.cls-74{fill:#a6a3c2;}.cls-75{fill:#0b0c21;}.cls-76{fill:#17182c;}.cls-77{fill:#7e8091;}.cls-78{fill:#81809d;}.cls-79{fill:#14152c;}.cls-80{fill:#7b7d8d;}.cls-81{fill:#14152a;}.cls-82{fill:#8c88aa;}.cls-83{fill:#8481a2;}.cls-84{fill:#807c9c;}.cls-85{fill:#a8a5c5;}.cls-86{fill:#a8a4c4;}.cls-87{fill:#8986a6;}.cls-88{fill:#ddddde;}.cls-89{fill:#8a87a8;}.cls-90{fill:#7b7897;}.cls-91{fill:#5b5b69;}.cls-92{fill:#353544;}.cls-93{fill:#c7c7ca;}.cls-94{fill:#aba8c8;}.cls-95{fill:#363644;}.cls-96{fill:#60606d;}.cls-97{fill:#c1bfa7;}.cls-98{fill:#595968;}.cls-99{fill:#82809f;}.cls-100{fill:#8985a7;}.cls-101{fill:#8581a2;}.cls-102{fill:#7d7a99;}.cls-103{fill:#8986a7;}.cls-104{fill:#7a7795;}.cls-105{fill:#45475b;}.cls-106{fill:#c1bddc;}.cls-107{fill:#02061b;}.cls-108{fill:#c4c2aa;}</style></defs><title>reviews-left-penguin</title><g id="Слой_2" data-name="Слой 2"><g id="Слой_1-2" data-name="Слой 1"><path class="cls-1" d="M301.25,131c-8.24-1.14-16.48-2.25-24.72-3.41-12.35-1.74-24.7-3.53-37-5.27-12.8-1.81-25.59-3.67-38.41-5.32-2-.26-2.74-1.24-3.52-2.76q-21.93-42.56-43.9-85.06c-.48-.94-1-1.85-1.74-3.24a1,1,0,0,0-.19.43c0-.14-.16-.28-.25-.43-.77,1.39-1.3,2.3-1.78,3.24q-22,42.53-43.92,85.06c-.78,1.52-1.55,2.5-3.53,2.76-12.82,1.65-25.61,3.51-38.41,5.32-12.36,1.74-24.71,3.53-37.06,5.27-8.23,1.16-16.48,2.27-24.72,3.41-.51.07-1,.23-2,.47,1,1.1,1.67,2,2.48,2.71Q37.68,166.83,73,199.43a5.62,5.62,0,0,1,1.93,5.92c-3.64,19.83-7.09,39.69-10.62,59.54q-3.06,17.22-6.16,34.43a20.18,20.18,0,0,0-.11,2.05c1.37-.61,2.41-1,3.42-1.54q43.77-21.94,87.51-44a7.73,7.73,0,0,1,2.78-.78,7.53,7.53,0,0,1,2.72.78q43.71,22.06,87.43,44c1,.51,2,.93,3.42,1.54a20.18,20.18,0,0,0-.11-2.05q-3.06-17.22-6.16-34.43c-3.53-19.85-7-39.71-10.62-59.54a5.62,5.62,0,0,1,1.93-5.92q35.31-32.56,70.5-65.29c.8-.74,1.48-1.61,2.47-2.71C302.26,131.19,301.76,131,301.25,131Z"/><path class="cls-2" d="M303.3,131.43c-1,1.1-1.67,2-2.47,2.71q-35.22,32.69-70.5,65.29a5.62,5.62,0,0,0-1.93,5.92C232,225.18,235.49,245,239,264.89q3.07,17.22,6.16,34.43a20.18,20.18,0,0,1,.11,2.05c-1.37-.61-2.41-1-3.42-1.54-29.18-14.63-58.29-29.17-87.43-43.88a6.82,6.82,0,0,0-2.69-.7h-.09V26.15c0,.06.07.12.07.18a.93.93,0,0,1,.18-.43c.76,1.39,1.26,2.3,1.74,3.24q22,42.53,43.9,85.06c.78,1.52,1.54,2.5,3.53,2.76,12.81,1.65,25.6,3.51,38.4,5.32,12.35,1.74,24.7,3.53,37,5.27,8.23,1.16,16.48,2.27,24.72,3.41C301.76,131,302.26,131.19,303.3,131.43Z"/><path class="cls-3" d="M252.74,192.63c-3-5.83-6.81-11.1-10.48-16.46-1.82-2.65-3.07-5.63-5.12-8.1-.47-.56-.67-1,.14-1.15s1.23-.68.62-1.36c-2.84-3.1-1.6-7.28-2.91-10.79-.81-2.17.6-4.24.85-6.38.67-5.66,1.46-11.31,2.2-17,2.43.06,3.2,1.94,3.3,3.74.35,6.05.67,12.17-1.75,18-1.2,2.86-.5,5.94.41,8.28a109,109,0,0,0,7.79,16.05,79.42,79.42,0,0,0,6.48,9.31,23.89,23.89,0,0,1,3.83,5.32,40.47,40.47,0,0,1,3.37-5.26c1.62-2.42.81-5.41-.14-7.6-1.54-3.55-2.7-7.27-4.67-10.71-2.36-4.12-6-7.29-8-11.62a50.17,50.17,0,0,1-4.08-12.37,123.9,123.9,0,0,1-1.44-18,5.71,5.71,0,0,0-1.22-4c-1.6.87-.89,3.54-3,3.81-1.37-.33-1.11-1.52-1.2-2.45-.14-1.45-1.25-2-2.2-2.8-4.54-3.61-7-8.47-8.34-14a8.4,8.4,0,0,0-1.09-4.61c-2.27-3.68-2.46-8-4.05-11.88-1.22-4.75,1-9.06,1.81-13.53a67.77,67.77,0,0,1,3-10.25c2.07-1.44-.57-3.51.66-5.07,2.42-3.95,4.08-8.61,9.64-10a3,3,0,0,1-2.5-1,6.68,6.68,0,0,1-.78-2.69,3.81,3.81,0,0,1,1.49-2.32,2.5,2.5,0,0,0,1.21-2.2,1.49,1.49,0,0,1,1.25-1.19c.73.39,1.28-.42,2-.31,1.64.65,2.91,1.91,2.56,3.6-.68,3.24,1.47,3.87,3.63,4.7,1.17.45,2.47.44,3.6,1,.6,1,0,1.92-.14,2.88-.53,1.74-1.79,2.26-3.47,2.09-3.69-.37-6.84,1.82-10.37,2.19a1.61,1.61,0,0,0-1.28,1.08c-1.18,3.66-3.59,6.87-4.15,10.72-.77,5.21-1,10.49-2.64,15.59a8.52,8.52,0,0,0,1,7.93c1.25,1.72,1.18,3.94,1.58,5.95.49,2.5.92,4.86,3,6.76,1.77,1.63.33,3.6-.09,5.41,2-2.8.21-6.2,1.35-9.13.41-1.08-.11-3.16,2.28-2.2a6.5,6.5,0,0,1,1.31,2.8,38.91,38.91,0,0,0,5.9,13.46c4.21,4.37,3.46,9.74,3,15a12.71,12.71,0,0,0,0,1.38c.3,3.89,1,7.74,1.4,11.62.51,4.47,2.89,8.15,5.48,11.72,1.34,1.85,2.18,1,3-.41a5.67,5.67,0,0,1,5-2c1,.33.79,1,.57,1.74-1.24,1.51-3.57,2-4.07,4.2-.38,1.13.74,1.25,1.22,1.8a1.13,1.13,0,0,1,.14.8c-.33,1.09.54,1.78.92,2.63,1,2.85,4.72,2.89,5.73,5.69a19.71,19.71,0,0,0,1.33,1.57c.31.32.69.92,1.07.7.55-.34.07-1,.1-1.57a17.56,17.56,0,0,1,3.21-7.12c.5-.62,1.23-1.16,1.05-2.07-.38-2,1.09-2.43,2.39-2.73,3-.7,4.68-2.69,5.85-5.35,2.32-5.26,4.78-10.47,4.2-16.5a8.35,8.35,0,0,0-2.72-5.42c-2.19-2.1-4.76-2.14-7.07-.11-4.78,4.17-7.12,9.76-8.95,15.62-.48,1.51-.32,3.24-1.58,4.48a1.72,1.72,0,0,1-1.48.18c-1.71-1.69-.6-3.94-1.18-5.86-.14-.87-.84-1.75-.42-2.6.74-1.47.1-2.25-1-3.05-.87-.61-2.33-1.06-1.9-2.43.37-1.19,1.69-1.32,2.86-1.33,1.38.14,2.44,1.23,3.82,1.36,2.87-3.06,6.12-5.9,5.61-10.71-.3-1-.61-2-.92-3A67.28,67.28,0,0,1,269,109.49c.1-2.11.08-4.38,1.76-6.08,1.16-.21,1.32.48,1.24,1.38,1,6.27,5.3,11.55,5.29,18.48,8.64-6.84,18.36-7.82,27.81-4.47A34.12,34.12,0,0,1,327,141.61c.49.54.83,1.25.07,1.64-1.69.86-1,1.84-.34,2.9.59,1.35,1.65,2.32-.55,3.79-1.11.74-.26,4-.91,5.9-1.88,5.56.25,9.74,4,13.62,1,1.08-.22,2.41-.13,3.59.1,1.42-2.45,2.93.22,4.33.67.35-.3,1.17-.67,1.63a57.5,57.5,0,0,0-7.55,13.49l-.36.28c-1.89-.1-3.06-2-5-2-2.57-.7-2.5-2.88-2.67-4.92-.08-.42-.46.32,0,.21.08,0,.07.1.09.33a1.92,1.92,0,0,1-.45,1.56c-1.85.38-2.28-1.21-3-2.27a14.86,14.86,0,0,0-3.86-4.31c-3.54-2.58-4.09-2.35-4.67,2.19-.17,1.38-1.23,1.19-2.07,1.06-2.36-.36-4.18-1.79-5.94-3.28-1.1-.94-2-1.31-2.2.66-.62,1.6-1.82,1.52-3,.9a40.78,40.78,0,0,0-5.72-2,19.63,19.63,0,0,0-4.15-1.81,3.85,3.85,0,0,0-2.57.08c-3.35,2.73-5-.68-7.19-1.9.83,4.21.69,8.12-2.52,11.71-2.34,2.62-3.45,6.2-6.22,8.64-3,2.63-5,2.14-6.15-1.7-.34-1.09-.08-2.3-.71-3.32"/><path class="cls-4" d="M290.81,182c-.4-1.06-1-2.11,0-3.35,3.15,1.81,5.45,5.26,10.13,5.53-2.92-2.33.9-3.49.4-5.57-.18-.71,1-.24,1.6.07,2.91,1.58,5.89,3,7.31,6.4a4.65,4.65,0,0,0,2.26,2.76c2.29,0,1.12,1.7,1.35,2.72a12,12,0,0,0-1.13,9c.63,2.4.67,4.42-1.3,6.27a5.59,5.59,0,0,0-1.36,3.47c-2,6.38-.94,12.7.39,19a5.57,5.57,0,0,1,.15,3.38c-3,.07-3.27-2.54-4.28-4.42-1.28-4.56-4-8.46-5.77-12.81-2-4.88-3.93-9.79-6.36-14.48-2.32-4.49-5-8.79-8.87-12.11-4.37-.27-4.8-.22-5.77,4-1.7,7.38-2.85,14.9-4.45,22.3-.83,3.85-1.21,7.79-2.52,11.56-2,5.8.44,11.11,2.47,16.33.71,1.82,1.89,1.12,2.53-.45.4-1,.35-2.64,1.79-2.51,1.24.11,1.34,1.7,1.88,2.68a23.65,23.65,0,0,1,2.64,7.08c.13,1.71-.42,2.24-2.22,1.66a6.18,6.18,0,0,0-8,7,10.47,10.47,0,0,0,5.31,7.64c2,1.17,4.06,2.13,6,3.36a2.09,2.09,0,0,1,1,1.68c-5,4.56-8.74,10.12-12.83,15.41-1.22,2-3.82,2-5.28,3.69-1.64-1-.88-2.65-1-4-.21-1.78.18-4-2.27-4.4s-4.07.89-5.32,2.92c-.9,1.47-.33,3.8-2.61,4.45-1.66.33-2.7-.51-3.49-1.83-4.07-5.11-5.11-11.31-6.61-17.42-1-4.14-.12-7.88.63-11.82,1.08-5.6.49-11.27-.34-16.83-1.56-10.39-1.51-20.6,1.78-30.68a84.27,84.27,0,0,0,2.22-10.79c.64-2.09,1.27-4.18,1.91-6.26,1.44,1.06,1.34,2.81,1.94,4.26.76,1.8,1.27,2.82,3.59.91,3.93-3.25,5.58-8,8.63-11.79,2.15-2.68,1.23-6.57.32-10.12,1.19,0,1.74.9,2.54,1.34,1.46.8,2.46,3.64,4.72,1.06.1-.11.8.31,1.22.49A108.15,108.15,0,0,0,289,183.35c1,.3,2.46.82,1.77-1.32"/><path class="cls-3" d="M249.74,51.47c-3.1.7-5.52-1-8-2.35-.67-.36-1.05-.9-.55-1.68,1.55-2.4-.14-3.81-1.61-5.3-.66-1.54.75-2.19,1.4-3.14s1.88-1.68,2.16-3a2.64,2.64,0,0,1,0-.93c1.41-1.86,3-3.6,4.2-5.58.49-.73.56-1.77,1.54-2.16l3.49-5c2.4-5.6,7-9,11.91-12.15a6.8,6.8,0,0,1,2.38-.69c16.26-6.13,32.35-.43,39.59,14,1.84,6.59,5.64,12.73,4.7,20-.16,1.25,1.08,2,.69,3.21-.77,1.62-.59,3.65-2.14,4.94-1.87,1.17-1.4,3.32-2.12,5A25.41,25.41,0,0,1,299,67.09a1.12,1.12,0,0,1-1.17-.8c.21-1.71,1.74-2.63,2.47-4a28.19,28.19,0,0,0,2-4.37c.68-2.15,1.24-4.53-.76-6.05s-4.37-.66-6.38.67a47.15,47.15,0,0,0-7,5.53c-2.33,2.29-4.45,4.63-4.07,8.28a1.83,1.83,0,0,1-1,2c-1.36-.26-1.7-1.43-2-2.48-.75-2.6-2.36-3.35-4.9-2.65a4.13,4.13,0,0,1-4.12-.85,2,2,0,0,1-.49-1.49c.18-.57.53-1.17,1.07-1.27,4.8-.91,5.83-5.08,7.39-8.67s.51-7-.76-10.38c-1.8-4.72-5.15-6.53-10.07-5.49-5.67,1.19-10.17,4-12.85,9.36a24.71,24.71,0,0,1-3.2,5.28c-.87,1-1.64,2.34-3.37,1.78"/><path class="cls-4" d="M270.92,103.61c-2.23,7.22-.27,14.36.44,21.53-.29,3.93-1.2,7.62-4,10.63a6.28,6.28,0,0,1-4.87,1.84c-5,2-9.57.58-13.94-2a12,12,0,0,1-2.7-2.17c.84-3-1.27-6.35,1-9.29.61-.78-.57-1.6-1-2.31-.93-1.39-2.48-2.39-2.67-4.25,2.61,0,3.67,2.16,4.71,3.85,1.31,2.11,2.74,2.9,5.11,2.34a4.93,4.93,0,0,0,4.13-4.5,29.19,29.19,0,0,0-.92-13,10.53,10.53,0,0,1,.61-9.24c1.89-3.38.35-6.66-3.36-8A35.72,35.72,0,0,0,245,87.55c-2.23-.22-3.6,1.13-4.69,2.93s-1.93,4-4.18,4.86c-1.68-.65-1.51-2.15-1.51-3.5a18.36,18.36,0,0,1,2-8.33,112.26,112.26,0,0,0,7.88-20.59c.88-3.1,1.62-3.33,4.32-1.53,3.82,2.54,7.23,5.74,11.75,7.12.7.31,2.07.76,1.61,1.38-1.89,2.49.66,2.36,1.64,2.93,2.62,1.51,5.62.61,8.43,1.07,3,1.19,3.39,4.44,5.21,6.57.95,1.11,1.57,2.68,3.49,1.65a1.41,1.41,0,0,1,1.29.41c.4,1.78,2.81,1.22,3.33,2.86.38.89-.11,1.39-.79,1.8-3.81,4.95-8.92,8.65-13,13.35-.88.86-.17,2.16-.85,3.08"/><path class="cls-4" d="M228,107a27.19,27.19,0,0,0,8.53,14,6.51,6.51,0,0,0-4.22,3.39c-.75,1.58-2.53,2.13-3.74,3.27-1.71,1.06-3.63,1-5.52,1.11a9.53,9.53,0,0,1-4.44-1.09c-2.17-.84-3.79-2.83-6.28-3-.66-1.28-1-2.64-2.6-3.35-2.1-1-2.06-3.37-2.92-5.16-1-1.13-.87-2.6-1.24-3.93a7.32,7.32,0,0,1-.1-1c0-2.61-1-5.28.42-7.82,1.26-8.1,4-15.72,7.33-23.17.5-1.14,1.31-2.23.53-3.56-.46-.43-.2-.78.12-1.13,1.67-.73,2.08-2.39,2.78-3.83C221,64.37,225.35,57,231.38,50.87A4.38,4.38,0,0,1,233,49.58a2.2,2.2,0,0,1,1.9.41c.92,2.11,3.64-.18,4.83,2.34-7-.31-8.65,5.38-11.52,9.76-1.66,1.34-.63,3-.64,4.62-1.63,6.53-3.28,13.05-4.88,19.58a5.66,5.66,0,0,0-.06,3.36c1,4.22,1.82,8.49,4,12.36A11.32,11.32,0,0,1,228,107"/><path class="cls-3" d="M238.67,126.16a3.29,3.29,0,0,0,1.37-3,2.22,2.22,0,0,1,1.88-2.47c1.09-.11,1.24,1.2,1.45,2.06.95,3.84,1.64,7.7.53,11.62a2.89,2.89,0,0,0,.07,2.35c2.42,3.92,1.16,8.56,2.64,12.76A48.23,48.23,0,0,0,254.69,164a32.8,32.8,0,0,1,5.79,10.49c.46,1.42.66,2.71,1.84,3.86,1.45,1.41.72,8.39-.82,9.87a6.07,6.07,0,0,0-2.08,3.48c-.09.6,0,1.51-.93,1.59s-1.26-.63-1.75-1.34c-2.74-4-5.47-8-8.48-11.8a10.57,10.57,0,0,1-1.84-3.59c-.38-1.21-.61-2.5-2.08-2.94-.32-.09-.87-.41-.85-.49,1-3.49-2.33-5.22-3.1-7.92-.4-1.4.09-3-1.84-3.59,1.68-2.91-2.07-5.9.13-8.83a5.31,5.31,0,0,0,1.27-2.39c.36-4.8.68-9.61.76-14.42a5.06,5.06,0,0,0-2.67-4.56v-5.08c.13-.33.33-.41.62-.19"/><path class="cls-4" d="M318.8,252.5c-1,.31-2.59.19-2.42,1.85.73,7.16-2.53,12.81-6.7,18.14a22.33,22.33,0,0,1-3.54,1.28c-1.76.34-3.42,1.46-5.32.68-1.37-1.64-3.09-3-3.77-5.15-.28-.85-.59-1.84.27-2.51s1.52-.08,2.22.27c1.11.55,2.23,1.09,3.36,1.61a4.28,4.28,0,0,0,2.4.65,13.64,13.64,0,0,0-1.79-3.09,8.87,8.87,0,0,1-1.78-3.53,2.43,2.43,0,0,1,.16-1,1.53,1.53,0,0,1,.8-.47c.78,0,.85-.21.57-1a59.56,59.56,0,0,0-5.13-10.45c-3.47-3.38-3.44-8.1-4.71-12.33A1.25,1.25,0,0,1,294,236c.87-.34,1.51.34,2,.93,2.32,2.69,4.29,5.68,7.07,8,2.83,3.38,6.8,4.9,10.73,6.49a3.75,3.75,0,0,0,3.29-.37,1.43,1.43,0,0,1,1.77.51,1.28,1.28,0,0,1,0,1"/><path class="cls-5" d="M256.64,288.26c1-.78,1-2,1.18-3.09.48-3.2,2.56-4.71,5.44-5.36,2.48-.56,4,.57,4.33,3,.26,2.14.21,4.31.29,6.47.22,2.53,1.76,4.41,3.11,6.39a8.81,8.81,0,0,1,.94,1.43c.73,1.74,2.48,3.89.93,5.33s-3.21-.78-4.71-1.69c-.27,0-.6-.44-.77-.15s.06.73.31,1c-.31,1.63,2.76,1.6,1.8,3.32-1.19,2.13-2.95,2.26-4.82.65-2.08-1.81-2.79-4.34-3.59-7-1,1-.69,2.24-.89,3.28-.25,1.23-.45,2.33-2,2.3a2.39,2.39,0,0,1-2.42-2.43,34.87,34.87,0,0,1,.72-10.87,15,15,0,0,0,.11-2.69"/><path class="cls-6" d="M250.83,198.89c.49,4-.45,7.76-1.59,11.48C246,221,246.5,231.8,248,242.67c.95,6.82,1.14,13.66-1.29,20.35-1.14,3.16.27,6.34.9,9.42a42.53,42.53,0,0,0,5.52,14c-2.09-1.15-3-3.25-3.59-5.28-3.16-11.27-7.19-22.42-7.91-34.16a88.3,88.3,0,0,1,5.41-35.22c1.51-4.23,1.75-8.81,3.77-12.87"/><path class="cls-7" d="M209.37,59.34c-.15-.55-.31-1.1-.46-1.64,0-1.7-1.24-3-1.46-4.69a86.57,86.57,0,0,1-4.92-13.87A15.14,15.14,0,0,1,202.7,31a5,5,0,0,1,3.66-3.8c1.84-.37,2.8,1.36,3.61,2.72,2.74,4.63,5.85,9,8.55,13.67,1.46,1.89,2.62,4,4.6,5.49a1.18,1.18,0,0,1-.09,1.78c-.54.45-1.74-1.36-1.86.54-1.45,0-1.95-1-2.47-2.08-.5-1.6-1.57-1.72-2.95-1.19a6.73,6.73,0,0,0-4.23,8.24c.31,1.31,1,2.58.55,4a1.22,1.22,0,0,1-.82.56,1.91,1.91,0,0,1-1.88-1.59"/><path class="cls-5" d="M306.28,272.83c1.16.13,2.13-1.6,3.4-.34a5.42,5.42,0,0,1-4.27,4.8c-3.48,1-5.44,4.15-7.69,6.65s-5.22,1-7.64,2c-.21.09-1.2-.93-1.16-1,2.21-3.41-3.9-3.48-2.56-6.38.75-1.63,2.74-2,3.9-3.26a1.84,1.84,0,0,1,1.41-.84c4.89-.38,10,.92,14.61-1.67"/><path class="cls-6" d="M291.54,275l-1.28.33c-6.17-.92-9.79,3.41-13.84,6.77a35.2,35.2,0,0,0-3.26,3.52c3.71-5.58,6.39-12,12.69-15.47.11-.92-.74-2.06.63-2.68a37,37,0,0,1,10.65,6.4c-1.56,1.9-3.66,1.06-5.59,1.13"/><path class="cls-8" d="M222.61,19.58A30,30,0,0,1,228,4.22,11.72,11.72,0,0,1,231.69.69c2.43-1.49,4.32-.52,4.39,2.37a66.15,66.15,0,0,1-.42,8.56,96.89,96.89,0,0,0,.63,24.3c-.9.49-1.28-.21-1.72-.77-2-5.88-1.85-12-1.47-18,.24-4,.65-8,.72-12,0-.75.3-1.77-.73-2.05-.7-.19-1.29.41-1.77.89a22.62,22.62,0,0,0-6,11.8c-.35,1.64-.2,3.5-1.75,4.71-.62.06-1.06-.09-1-.84"/><path class="cls-9" d="M321.09,192.5c10.9,7.4,19.38,17.44,28.75,26.5a5.08,5.08,0,0,1,.71,1.54,1.36,1.36,0,0,1-.77.62c-1.29.09-2.12-.75-2.92-1.56C343,215.67,339,212,335.13,208a110.55,110.55,0,0,0-13-11.66,5.06,5.06,0,0,1-2.23-2.53c-.06-.76,1-.76,1-1.5Z"/><path class="cls-10" d="M218.48,44.24c-2.91-4.11-5.67-8.3-8.21-12.65-.91-1.56-1.68-4.22-4-3.67s-3.26,2.71-3.46,5.1c-.53,6.17,1.88,11.64,4,17.17.37,1,.78,1.9,1.17,2.85-.6.9,1.32,2.07-.3,2.86-2.15-5.8-5-11.35-6.19-17.51-.68-3.56-.35-6.91,1.75-9.88s4.22-3.09,6.29-.1c3.19,4.62,6.06,9.47,9.07,14.22-.28.51.29,1.13-.21,1.61"/><path class="cls-11" d="M311.64,46.7c-.31-1-1.86-.9-1.65-2.66a19.49,19.49,0,0,0-1.81-11.56c-1.43-2.74-1.44-5.92-1.93-8.94l2.22,3.2a16.44,16.44,0,0,1,3.4,8.33c.62,3.89,1.38,7.79-.23,11.63"/><path class="cls-12" d="M323,230.23c-.85,3.13-.16,6.59-2.09,9.48l-.47-.22a2.25,2.25,0,0,1-.44-.89,86,86,0,0,0-.38-12c-.2-1.86-.85-3.31-2.71-4a4.14,4.14,0,0,1-1.18-.7c-1.23-1-3.17-2.14-2-3.78,1-1.48,2.23.88,3.52,1,1.56-.14-1.18-5.68,3.08-2.45.75,1.1.88,2.52,1.78,3.55.67,1,1.51,1.82,1.39,3.11-1.18.48-.68,1.32-.44,2.11a32.17,32.17,0,0,1,.23,3.39,4.78,4.78,0,0,1-.28,1.45"/><path class="cls-13" d="M357.71,237.94c.61,1.32,1,2.56-.34,3.77a3.75,3.75,0,0,1-4.17.68,12,12,0,0,1-5.76-3.62c-2.76-3.5-5.6-7-8.4-10.42a2.4,2.4,0,0,1-1.75-2.35,1.7,1.7,0,0,1,.85-1.21c1.77,0,2.5,1.39,3.42,2.5,2.18,2.62,4.13,5.43,6.27,8.09a16,16,0,0,0,3.44,3.29c2.1,1.43,4,1.57,5.49-.76a1.09,1.09,0,0,1,.95,0"/><path class="cls-14" d="M264.87,10.81c-5.09,2.84-9,7-12.5,11.54a14.22,14.22,0,0,1,3.95-8.18,69.66,69.66,0,0,1,5.35-6.64c1-1.11,2.38-2.24,3.79-.76s1,2.89-.59,4"/><path class="cls-15" d="M285.55,85.38c-.73,0-1.18-.75-2.14-.44-2.23.72-1.78-.72-1.37-2-.33-.28,1-1.77-.75-1a.83.83,0,0,1-.78-.35,6.45,6.45,0,0,1-.47-2.88,4,4,0,0,1,2.51-3.52c1.32-.1,1.88.86,2.11,1.84.72,3.06,2.27,2.85,4.28,1.23a2,2,0,0,1,1,0c.78.62.25,1.16-.12,1.7-1,2.13-3.35,3.24-4.24,5.47"/><path class="cls-16" d="M212.3,124.69c.3-.62.2-1.76,1.48-.8,1.56,1.15,3.25,2.12,4.89,3.17a1.52,1.52,0,0,1-.3,1.76c-.22.26-.55.48-.64.78-.57,1.82-1.85,3.27-3.63,2.83-2-.51-1.71-2.64-1.66-4.36,0-1.13-.09-2.26-.14-3.38"/><path class="cls-17" d="M222.6,128.08l6.11-1a1,1,0,0,1,.85.33,14.14,14.14,0,0,1,1,1.35c1,1.74,1.91,3.82,0,5.19s-3-.78-4.16-2.07c-.29-.33-.57-.69-.86-1a4.79,4.79,0,0,1-2.2-1.29c-.41-.41-.89-.79-.71-1.48"/><path class="cls-11" d="M222.6,128.08l1.11,1.19a8.65,8.65,0,0,1,1.48,5.2c-1.33,2-2.76,1.58-4.17.12s-2.05-3.72-2.65-5.77a2.07,2.07,0,0,1,.29-1.76l3.94,1"/><path class="cls-18" d="M229.56,127.42l-.85-.33c1.52-1.77,3.48-3.17,4.34-5.49.76-2.08,2.27-.54,3.45-.61,3.22.68,1.54,3.41,2.17,5.17l-.29.17-.33,0c-3-.65-5.85-.77-8.49,1.07"/><path class="cls-19" d="M290,78.37l-.74.19c-.67-1.62.35-2.83,1-4.14a7.39,7.39,0,0,0,3.55-3.93c.87-1.91,2.09-3.51,4.34-3.93l.8.53a15.47,15.47,0,0,0-4.09,8.59,6.36,6.36,0,0,1-2.24,4.48c-1,.76-1.77,1.11-2.31-.39,0-.49.48-1.08-.29-1.4"/><path class="cls-9" d="M357.71,237.94l-.62.18a2.27,2.27,0,0,1-1.28-1.53,44.84,44.84,0,0,0-5.74-13.15,2.58,2.58,0,0,1-.31-2.61l.79-.29c2.71.65,2.74,3.41,3.8,5.21,2.17,3.7,4.59,7.49,3.36,12.19"/><path class="cls-20" d="M342.15,245.55c-1.79,1.91-5.11,1.64-7.56-.74a21.47,21.47,0,0,1-5.14-7c-.05-.65-.14-1.31.44-1.81,2.73.84,3.87,3.37,5.5,5.33,1.47,1.76,3,3.2,5.46,2.88.7.22,1,.81,1.3,1.38"/><path class="cls-21" d="M222.67,50.71c.47-.39.37-.9.26-1.4-.39-.2-.45-.47-.18-.82,1.41-1.16.53-2.48.21-3.74-.8-3.16-1.93-6.26-1.4-9.61a2.6,2.6,0,0,1,1.7,1.26c.92,2.92,1.43,6,2.28,8.9a4,4,0,0,0,3.14,3.11,1.91,1.91,0,0,1,.62,1.27c-.35,1.45-2,.92-2.75,1.82-1.42.36-3,1.46-3.88-.79"/><path class="cls-11" d="M206.19,111.48a.45.45,0,0,1,.1.5,1.67,1.67,0,0,1-2.87.12c-2.58-.28-3.95-2.49-5.93-3.74-.35-.22-.68-.73.11-.88.27-.06.6.18.91.28a1.08,1.08,0,0,0,1,.06c4.68-2.11,5.83-1.48,6.72,3.66"/><path class="cls-22" d="M271.28,100.42c.15-1.4,1.23-2.07,2.18-2.88,3.43-3,6.93-5.86,9.5-9.67.41-.62.79-1.54,1.8-.69-2.89,6.07-8.72,9.43-13.05,14.18a.67.67,0,0,1-.43-.94"/><path class="cls-23" d="M264.87,10.81c.76-1.22,1.33-2.7.06-3.67-1.45-1.12-2.46.4-3.37,1.32-1.83,1.83-3,4.28-5.24,5.71,1-3.68,3.88-5.88,6.42-8.33a2.25,2.25,0,0,1,2.85-.33c1.37,1,1.38,2.49,1.07,4-.1,1.12-.85,1.34-1.79,1.3"/><path class="cls-24" d="M329.82,236.13a1.5,1.5,0,0,1-.37,1.64,4.67,4.67,0,0,1-2.42-3.6c-1-.83-.52-2.72-2.21-3-.23-.65-.45-1.31-.68-2a2.06,2.06,0,0,1-1.14-1.55c-.25-.73.21-1.68-.7-2.2-.14-.8-1-2,.87-1.74,1.45.35,2,1.54,2.5,2.74a12,12,0,0,0,1.48,3.39c.77,2.16,2.72,3.82,2.67,6.32"/><path class="cls-25" d="M320.91,239.71c1.32,2.49,4.2,2.87,6.17,4.51.66.54,1.32.81,1.22,1.76a1.67,1.67,0,0,1-1.19.86c-3.18-.48-5.43-2.42-7.41-4.77,0-1-.39-2.12,1-2.57Z"/><path class="cls-26" d="M206.19,111.48c-.65-5.19-4.46-3.83-7.68-3.72l7.35-4.38.33,8.1"/><path class="cls-27" d="M209.37,59.34l1.88,1.29a1.28,1.28,0,0,1-.63,1.21,3.27,3.27,0,0,1-2.83-.71c-2.18-1.62-3.51-.94-4.4,1.37-.56.14-.89-.23-1.24-.55a3.79,3.79,0,0,1,1.33-4.58c1.35-1,2.54.4,3.74.92.73.32,1.44.7,2.15,1.05"/><path class="cls-13" d="M214.12,75.73c-.13.31-.27.62-.4.92a20.25,20.25,0,0,1-9.5-8.13c.29-.54-.38-1.35.49-1.72a88.25,88.25,0,0,1,9.41,8.93"/><path class="cls-28" d="M243.34,35.35a1.48,1.48,0,0,1,.09.51c-.18.34-.42.4-.73.14-2.94-5.25.44-9.29,2.61-13.57.63-.4.9,0,1.16.5a2.14,2.14,0,0,1-.19,1.67,20.65,20.65,0,0,0-2.94,10.75"/><path class="cls-29" d="M203.42,112.1a4.85,4.85,0,0,0,2.87-.12,7.46,7.46,0,0,1,.49,4.2c-2.12-.08-3.86-1.11-5.61-2.05.14-1.58,2.39-.38,2.25-2"/><path class="cls-30" d="M342.15,245.55a1.53,1.53,0,0,1-1.24-1.18,2.35,2.35,0,0,1-.35-1.59,21.61,21.61,0,0,0-2.33-7.75c-.76-1.57-1.92-3.19-.46-5a.59.59,0,0,1,.72.65.86.86,0,0,0,.12.66,5.69,5.69,0,0,1,2,3.59c.71,2.8,1.92,5.46,2.25,8.36l-.72,2.27"/><path class="cls-31" d="M222.65,36.36c-.63-.17-.87-.69-1.09-1.22a25.23,25.23,0,0,1,.15-9.33c.62-.35,1,0,1.42.44.46,3.4,1.31,6.82-.48,10.11"/><path class="cls-32" d="M246.11,22.9l-.8-.47c1.08-2,2-2,2.91.15.67,1.55.3,3.19.66,4.75-.28.71-.56,1.42-.85,2.13-2.24-1.72-.91-4.48-1.92-6.56"/><path class="cls-33" d="M327,246.37l1.26-.39c1.5,4.1.93,5-3.83,6.07a1.06,1.06,0,0,1-.54-1.25c1.33-1.27,2.79-2.45,3.11-4.43"/><path class="cls-34" d="M242.71,36l.72-.14c.42,3.15-3.11,3.86-3.87,6.28-.44.25-.81,1-1.42.21-.36-1.93,1.4-2.84,2.06-4.28.55-.71,1.46-1,2.05-1.67a3.47,3.47,0,0,0,.46-.4"/><path class="cls-35" d="M222.67,26.33l-1-.52a15.72,15.72,0,0,1,.9-6.23l1,.6a4.81,4.81,0,0,1-1,6.15"/><path class="cls-36" d="M311.87,35.07c-1.13-2.77-2.27-5.55-3.4-8.33,3.3,1.89,3.13,5.2,3.4,8.33"/><path class="cls-37" d="M222.75,48.49l.18.82a11.57,11.57,0,0,1-4.45-5.07l.21-1.61c1.35,1.95,2.7,3.91,4.06,5.86"/><path class="cls-38" d="M324.11,250.86l.36,1.2a9.48,9.48,0,0,1-5.67.44l-.2-.76c1.57-1.93,3.46-1.88,5.51-.88"/><path class="cls-39" d="M204.44,67c-.07.51-.15,1-.22,1.53A9.26,9.26,0,0,1,202.15,62l.92.49A3.58,3.58,0,0,1,204.44,67"/><path class="cls-11" d="M307.38,56.62c-.84-1.77.32-3.33.61-5,.23-1.27,1,.15,1.51,0a8.48,8.48,0,0,1-2.12,5"/><path class="cls-40" d="M242.25,36.4a3.06,3.06,0,0,1-1.53,2,6.3,6.3,0,0,1-3.25-1.11.89.89,0,0,1-.3-.78c1.67-1.74,3.38-.41,5.08-.06"/><path class="cls-41" d="M326.72,146.15c-2.91-1.69-.63-3.08.27-4.54l1.07,1.2c.33.68,1.35,1.4-.09,2-.46-.23-1.14-.77-1.34-.63-.86.59.28,1.28.09,2"/><path class="cls-42" d="M342.87,243.28l-2.7-8.86c.21-.3.41-.29.61,0,.62,3,2.55,5.64,2.09,8.86"/><path class="cls-43" d="M338.49,230.67c-.14-.19-.27-.39-.4-.58a4.68,4.68,0,0,1-1.85-2.31,1.49,1.49,0,0,1,.33-1.86,1.24,1.24,0,0,1,1,0l1.49,2.42c-.19.77-.37,1.55-.55,2.32"/><path class="cls-44" d="M225.19,134.47l-1.48-5.2a2.76,2.76,0,0,1,1.8,1.58c-.84,1.14.81,2.51-.32,3.62"/><path class="cls-45" d="M237.17,36.46a4.31,4.31,0,0,1,.16.59l-.09.54c-.59.92-1.3,1.29-2.26.49-.63-1.14-1.44-2.3.16-3.34.23.54.49,1.06,1.15,1.18Z"/><path class="cls-46" d="M271.28,100.42c.15.31.29.62.43.94a6.78,6.78,0,0,1,.32,3.43l-1.11-1.18a4.82,4.82,0,0,1,.36-3.19"/><path class="cls-47" d="M207.77,55.9l.3-2.86c.4,1.53,1.62,2.91.84,4.66Z"/><path class="cls-43" d="M340.78,234.42c-.2,0-.4,0-.61,0l-1.56-3.09c2.15,0,1.66,1.91,2.17,3.09"/><path class="cls-20" d="M324.82,231.13c2.19,0,1.64,1.91,2.21,3l-2.21-3"/><path class="cls-48" d="M328,144.81c.5-.64.2-1.33.09-2a1.68,1.68,0,0,1,.88,2.3c-.2.46-.76.23-1-.3"/><path class="cls-49" d="M267.69,301.67c-1-.45-1.12-1.34-1.25-2.34,1,.07,1.27.88,1.71,1.45l-.46.89"/><path class="cls-50" d="M323.54,227.2l.6,2L323,230.23l-.33-1.31c.44-.5-.58-1.73.87-1.72"/><path class="cls-51" d="M290,78.37l1.06-.48c.37.89-.19,1.39-.77,1.88l-.24.16-.29,0,.24-1.54"/><path class="cls-52" d="M249.74,51.47c1.76-.22,2.33-1.74,3.11-2.95,1.54-2.41,2.91-4.93,4.48-7.33,3.71-5.67,9.55-7.06,15.73-7.38,2.42-.12,4.14,1.69,5.53,3.63,4.36,6.09,3.65,15.36-1.35,21-1.56,1.77-4.11.48-5.4,2.37-1.07,1-2.44,1.8-1,3.74,1,1.38-.87,2.58-1,4,0,1,.86,1.43,1.43,2a1.43,1.43,0,0,1,.28.87A1.67,1.67,0,0,1,270,72.55c-3.35-1-6.65-2.09-8.65-5.32-4.89-1-8.5-3.92-11.29-7.9-1.43-2-1.07-2.82,1.54-3.94a2.81,2.81,0,0,1-2.79-1.8c-.59-1.08.25-1.56.89-2.12"/><path class="cls-7" d="M235.14,34.74c-.65,1.28.15,2.39.43,3.56,1.39.94,1,2.46,1.21,3.76a8.58,8.58,0,0,0,0,1.52c.31,1.17-.37,1.9-1.15,2.59l-1.37,2.08a2,2,0,0,1-1.09,1.57,126.79,126.79,0,0,0-15.49,21.74c-.14.25-.58.34-.88.51l-.5-.15a4.11,4.11,0,0,1-1.8-2.49,2.21,2.21,0,0,1,1-2.68c1.4-.41,1.57-1,.49-2.11a13.37,13.37,0,0,1-3.58-5c-.41-1.32-.88-2.61-1.16-4-.69-3.38,2-7.44,5.4-8,1.08-.17,2.34-.28,2.66,1.3a3.75,3.75,0,0,0,2.13,2.18,24.91,24.91,0,0,1,3.42,2.52c.93-.71.64-2.05,1.67-2.52.64-1,1.26-2,2.54-.71.59-.26.53-.5-.36-1.46-2.54.6-3.31-.83-3.84-3-.79-3.2-1.9-6.33-2.14-9.65q0-5,0-10c.76-2,.74-4.08,1-6.15.77-4.52,1.43-9.09,4.05-13a29.42,29.42,0,0,1,2.18-3.08C231,2.77,232.31,1,234.05,1.65s.65,2.65.64,4c-.05,6.87-1.4,13.7-.8,20.59a37.19,37.19,0,0,0,1.25,8.46"/><path class="cls-53" d="M235.77,95.21a20,20,0,0,0,3.66-4.94c2-3.72,4.32-4.78,8.18-3.35,1.88.7,3.8.25,5.68.92,5.09,1.85,6.8,5.52,4.11,10.15a7.19,7.19,0,0,0-.64,6.82c1.86,4.7,1.78,9.65,1.41,14.57-.3,4-5.67,7.3-9,5.27-2.09-1.3-2.61-4.41-4.79-6a15.86,15.86,0,0,1-1.23-1.1c-4.41-4.94-5.35-11.33-7.26-17.32-1.2-1.64-1.83-3.3-.17-5"/><path class="cls-3" d="M235.77,95.21c-.61,1.71.58,3.35.17,5-.81,2.68-1.6,5.36-1.14,8.2.13.8.51,1.58.09,2.35-.63,1.14-1,3.14-2.71,2.42-1.48-.62,0-1.93.33-2.84.49-1.66,1.55-3-1.13-4-1.07-.42-1.61-2.81-1.9-4.38-.61-3.33-.78-6.64-2.84-9.67-1.35-2-.83-4.87,0-6.93,1.74-4.26,1.63-8.72,2.44-13.07.44-2.43-.29-5,2.25-7.1,1.47-1.21.53-4.2,2-6,.57-.68.81-2,1.79-1.89,4.12.55,7.53-3.25,11.82-1.76,1.16.41,1.71-.85,1.86-2L252,55c-2.65,2.15-2.34,4,1.32,7,2.57,2.06,5.27,4,8.66,4.69.27,1.3.51,2.58-1.51,2.51-4.2-.57-7-3.69-10.34-5.8-1.34-.85-2.58-1.87-4.19-3a83.14,83.14,0,0,1-4.43,14.13C240,77.9,238.34,81.31,237,84.83c-1.31,3.32-2.14,6.77-1.19,10.38"/><path class="cls-52" d="M265.69,171.58c-1.16-2.78-5.39-2.58-5.85-6,.3-1-1-2-.25-3h0c.33-1.88-2.31-.7-2.3-2.24.49-2.55,2.25-3.8,4.58-4.48,1.38-.92,2.87-1.76,3.19-3.62,1.32-7.31,3.77-14,9.1-19.53,2-2.07,4-3.37,6.92-2.35a7.63,7.63,0,0,1,5.11,6.42c1.14,8.18-2.22,15.3-6.5,21.93-1.26,2-4.25,1.47-6.38,2.67.86.8,2.9,1.44.48,2.78-3,1.65-3.14,4.95-4.23,7.69-1.36,1.19-2.61.34-3.87-.23"/><path class="cls-54" d="M261.85,145.94c-3.28-2-6.48-4.22-9.86-6.07-2.1-1.16-3.46-2.53-3.45-5,4.33,1.87,8.6,4.11,13.56,2.34.22.12.31.26.26.43s-.09.24-.15.26l-2.59.77c.2,1.44,1.72,1.25,2.11,2,.53,1,4.37,1.29.94,3.52-.67.45.68,1.29.67,2.08-.64.46-1.07.05-1.49-.37"/><path class="cls-55" d="M261.85,145.94l1.49.37c1,2-.47,4.25.46,6.28,1.17,2.06-.1,2.13-1.62,2-1.74.54-3.71.56-5,2.17-1.15-1.8.19-4.5-2.33-5.92-.58-.33.65-1.15,1.15-1.7,1.59-1.74,4.29-1.42,5.83-3.2"/><path class="cls-56" d="M290.81,182l2.22,1.91c-6.32-.16-12.26-1.27-17.33-5.16.73-.79,1.48-1.24,2.35-.19,1.44.42,2.6,1.49,4.13,1.71,2.07.37,4.2.61,6,1.88a1.79,1.79,0,0,0,2.65-.15"/><path class="cls-57" d="M236.54,43.89c-.16-.49-.31-1-.46-1.47.33-1.82.31-3.71,1.25-5.38h0c1.44-.38,2.42.45,3.39,1.3-.28,1.71-1.71,2.68-2.58,4-.52.26-1.07.49-1,1.22,0,.35-.23.44-.55.32"/><path class="cls-58" d="M228,107q-2.64-6.83-5.3-13.66a5.05,5.05,0,0,1-.09-3.65c1.58,5.84,4.56,11.24,5.39,17.31"/><path class="cls-54" d="M265.75,139.74a9.12,9.12,0,0,0,2.43-4.18c1.62-2.36,3.8-4.41,4.1-7.48a3,3,0,0,1,0,3.26c-1.68,2.73-3.34,5.47-5,8.19a.86.86,0,0,1-1.44.21"/><path class="cls-59" d="M265.69,171.58l3.87.23c.16.55.36,1.08.47,1.63s.83,1.34.06,1.82-1.41-.35-1.92-.89c-.85-.9-1.65-1.86-2.48-2.79"/><path class="cls-60" d="M313.34,190.52c.06-1,.64-2.12-.8-2.65.36-1.39-.51-2.91.37-4.48,1.26,2.42-.23,5.92,3.38,6.88l-.24.51c-1,.61-2,1.46-2.71-.26"/><path class="cls-61" d="M227.52,66.71c-2.14-1.87-1-3.28.64-4.62.92.25-2.33,2.56.93,1.92a4.21,4.21,0,0,1-1.57,2.7"/><path class="cls-62" d="M320.88,192.35c.19.75-.29,1.06-.85,1.31-2,.56-2.88-1-3.93-2.22a1.65,1.65,0,0,1,0-1l.19-.21c1.95-.23,2.95,1.63,4.59,2.08"/><path class="cls-63" d="M262.18,154.59c.89-.38,2.05-.55,1.62-2l1.26-.39c1.84,3.76-1.32,3.12-3.19,3.62.1-.41.2-.82.31-1.23"/><path class="cls-64" d="M244.81,53.73c-2.13,1.1-2.13,1.1-4.05-1,1.76-.59,2.69,1,4.05,1"/><path class="cls-65" d="M257.29,160.3c.93,1.16,1.9-.37,2.91.16a2.64,2.64,0,0,1-.62,2.08c-.65-.86-3.35.38-2.29-2.24"/><path class="cls-66" d="M282.18,180.3c-1.89.65-2.88-.84-4.13-1.71,1.7-.2,2.92.73,4.13,1.71"/><path class="cls-65" d="M259.59,162.53a4.31,4.31,0,0,1,.25,3c.78-1.08-3.9-1.71-.25-3"/><path class="cls-34" d="M233.13,49.82c0-.76.61-1.13,1.09-1.57.4.52,1.31.85.63,1.74-.58,0-1.21.5-1.72-.17"/><path class="cls-34" d="M236.54,43.89c.18-.11.36-.22.55-.32.64,1.52.1,2.36-1.5,2.6l.95-2.28"/><path class="cls-34" d="M237,47.32c.47-.12.84-.1.79.34a1.19,1.19,0,0,1-.53.74.42.42,0,0,1-.67-.4c0-.26.3-.5.41-.68"/><path class="cls-7" d="M324.11,250.86c-1.82.4-3.76.08-5.51.88a1.4,1.4,0,0,0-1.52-.25c-2.3,1-4.22-.29-6.14-1.15a30.56,30.56,0,0,1-8.8-5.86c-3.57-3.53-6.3-7.73-9.4-11.63-.81-1-1.18-2.26,0-3.36,1.82-1.36,2.28-3.28,2.23-5.41A29.68,29.68,0,0,0,291.74,211c-1.16-2.37-.79-3.55,1.27-4.66.45-1-.16-2-.37-2.92-.92-2.77-3-4.68-4.91-6.67,2.12,2,4.07,4.18,5,7.07.47,1.44.53,2.76-1.38,3.19a5.41,5.41,0,0,1-2.31-.61A32.88,32.88,0,0,1,295,224.72a5.66,5.66,0,0,1-2.61,5,4.65,4.65,0,0,1-3,1.11c-4.08.35-5.67-2.61-7.32-5.48a10.33,10.33,0,0,1-1-2.29c-.16-.28-.11-.71-.56-.76-.19.6-.13,1.28-.69,1.7a1.66,1.66,0,0,1-2.36-1.13c-.54-1.4-1.65-1.1-2.67-1.23-1.12-1.09-2.3-2.17-.46-3.61.76-.61.42-1.45.57-2.2,1.65-8.41,2.74-16.93,5-25.21.71-2.55,2.11-3.38,4.57-2.66,4.62,1.35,6,5.75,8.42,9.12,2.53,3.54,4,7.74,5.58,11.74a139.49,139.49,0,0,0,8.11,17,2.5,2.5,0,0,1,.38,1.31,22.39,22.39,0,0,0,3.55,4.78,1.78,1.78,0,0,1,1.4.85,18.6,18.6,0,0,0,7.49,8.07c.4.22.48.75.64,1.17,2.39,1.41,4.26,3.65,7.05,4.4,1.38,3-.78,3.76-2.93,4.49"/><path class="cls-3" d="M296.87,273.49c-3.95-1-7-3.53-10.29-5.7-1.09-.13-1.66-1-2.3-1.64,0,.25.25.28.33.45.47.83,1.84,1.58.2,2.56a37.5,37.5,0,0,1-8.88-5.23c-4.41-3.78-4.73-12.55,2.46-14.85a3.3,3.3,0,0,1,3.86.93c.94.83,1.44.82,1-.62,1.61-.63,2,.81,2.51,1.66,3.6,6.58,8.82,10.73,16.47,11.41l1.86,3.69c1.08,1.71.6,2.82-1.31,3.39-1.93-.39-3.45-1.68-5.22-2.51-.8,3.15,2.62,4.24,3,6.72a2.78,2.78,0,0,1-3.76-.26"/><path class="cls-67" d="M302.27,262.46c-5.33,1.85-11.56-2.85-15.5-8.11-1.21-1.62-1.69-3.75-3.48-5-.75-3.46-2.56-6.5-3.9-9.94-1.2,1.74-.6,5-3.07,4.91s-2.61-3.1-3.32-5.13c-2-5.66-1.7-10.94-.32-17,2-8.64,4.07-17.4,5-26.32a31.85,31.85,0,0,1,1.89-6.95c1-3,3.9-1.69,5.93-2.38.76,1.65.66,1.76-1.6,1.92-2.08-.63-2.76.45-3.32,2.3-2.48,8.16-3.18,16.67-5,25-.23,1.09.13,2.17-1.07,3-1.52,1,.37,1.67.47,2.54a1.7,1.7,0,0,1,.56.91c-2.92,6-2.28,11.92.54,18.2,1-1.78.56-3.36.49-4.85-.08-1.72-.36-3.43-.49-5.15-.09-1.2.09-2.5,1.5-2.7s1.76,1.17,2.14,2.24a6.21,6.21,0,0,1,.27,1.35c1,6.93,3.86,13.19,7,19.34a22.41,22.41,0,0,0,5.13,6.43c2.76,2.51,5.71,4.24,9.62,3.24a1.25,1.25,0,0,1,.42,1.48c0,.23.09.46.14.7"/><path class="cls-68" d="M320,242c-4.74-1.88-7.44-5.7-9.54-10.09-1.78-7.57-4-15.11-1-22.88.62-.34,1,0,1.37.45a3.76,3.76,0,0,1,.38,2.69c-1.62,6.23,1.25,12,2,17.93.54,4.14,4.22,6.35,7.26,8.79.07.21.13.43.18.64-.23.83-.47,1.65-.7,2.47"/><path class="cls-69" d="M283.87,188.48c.31-.83,2.28-.26,1.6-1.92,5.37,4.71,8.75,10.76,11.59,17.16,3.14,7.1,5.62,14.5,9.77,21.13a1.83,1.83,0,0,1,.08,2.25c-4.83-6.42-7.55-13.9-10.55-21.2a69.86,69.86,0,0,0-8.27-14.67,8.79,8.79,0,0,0-4.22-2.75"/><path class="cls-70" d="M310.37,209.51l-.91-.51a2.2,2.2,0,0,1,.44-2.26c3.22-2.88,2.22-6.43,1.67-9.9a7.69,7.69,0,0,1,1.77-6.32c.93.76,1.84.06,2.76,0,.08.25.16.49.23.74-2.75,2.53-2.85,5.8-1.84,8.92,1.48,4.57-1.26,6.91-4.12,9.37"/><path class="cls-71" d="M284.81,269.16c1.35-1.45-.83-1.7-.9-2.67-.39-.63-.15-.9.52-.91.72.73,1.43,1.47,2.15,2.21-.25.79-.49,1.58-.73,2.37l-1-1"/><path class="cls-72" d="M298.16,66.56a10.64,10.64,0,0,0-4.56,6.23c-.44,1.86-1.66,1.94-3.1,1.87-.41.56-.5,1.28-.87,1.85-.78,1.21-1.05,3.08-2.81,3.17-2.06.09-1.79-2-2.43-3.22-.35-.7-.6-1.6-1.71-1A7.67,7.67,0,0,0,280.79,79c-.39,1.47-1.27,1.35-2.3.69a4.08,4.08,0,0,1-.65-.79c-.71-1.47-2.12-2.83-.87-4.66.91-.77,2.12-.62,3.14-1.07s2.57-.75,2.64-2.44A6.4,6.4,0,0,1,283.2,68c.32-3-.77-6.15,2.26-8.55,4.41-3.5,7.69-8.56,14-9.31,2.76-.32,3.84.86,4.11,3.32.44,4-1.12,7.37-3.36,10.55-.63.9-1.86,1.3-2,2.53"/><path class="cls-73" d="M283.21,68a3.76,3.76,0,0,1,.23,2.85,1.27,1.27,0,0,1-.81.67,55.81,55.81,0,0,0-8,1.39,1.86,1.86,0,0,1-1.94-.93c-.43-2.65-.65-5.34-1.81-7.84-.52-1.13-.5-2.3,1.31-2.22a4.36,4.36,0,0,0,3.94.38c3.15-1.32,5-.33,5.68,3.08A3.34,3.34,0,0,0,283.21,68"/><path class="cls-74" d="M246.11,22.9c2.42,1.66.89,4.49,1.92,6.56-1.13,2.3-2.28,4.6-4.69,5.89-1.37-3.26-.46-6.2,1.18-9.08.61-1.07,1.07-2.24,1.59-3.37"/><path class="cls-75" d="M272.17,61.94c-1.87.88-.87,2-.21,3a7.66,7.66,0,0,1,1.12,6.79c-.9.33-1.33-.3-1.79-.87h0c-1-.49-1.31-1.64-2.17-2.25l-.59-.69c2.2-1.49,1.8-2.69.47-4.95-1.49-2.52,2.07-1.1,2.83-2.18l.33,1.1"/><path class="cls-15" d="M260.49,69.18c1.26-.39,1.22-1.55,1.5-2.52l1.48.43c-2.5,2.66.33,2,1.53,2.56,1.73.73,3.4,1.59,5.1,2.4,1,.47,2.43-.18,2.92,1.33,0,.52-.1,1-.8.92a15.32,15.32,0,0,1-12.62-2.8c-.93-1.43,3.52-.13.89-2.32"/><path class="cls-76" d="M272.22,74.3l.47-.86c1.44-.83,2.12.39,3,1.09a31.07,31.07,0,0,0,3,4.43.83.83,0,0,0,.33.54c.73.73,1.14,1.74,2,2.32l-.05,0c.25.12.35.26.28.41a.41.41,0,0,1-.22.24c-.93,2-1.68,2.64-3.23.25-1.83-2.8-3-6-5.56-8.37"/><path class="cls-77" d="M281,82.42a3.66,3.66,0,0,1-.06-.65l1.89-2.46c1,1.62.09,2.62-.8,3.63l-1-.52"/><path class="cls-7" d="M216.09,67.15c-1.32.46-1.16,1.43-.81,2.45-.62,1.47.83,1.72,1.46,2.46h0c-.19,1.71.1,3.79-2.64,3.66A34.68,34.68,0,0,1,204.44,67c-.45-1.52-.91-3-1.37-4.55.73-4.32.72-4.31,4.86-2.12.91.47,1.85.87,2.78,1.3,3.9,1,5.5,2.61,5.38,5.53"/><path class="cls-67" d="M302.13,261.76l-.55-1.47c-3.52-2.93-4.91-7.13-6.42-11.18s-2.58-8.34-3.79-12.54a11.56,11.56,0,0,0-2.74-5.11c-.29-.61-.45-1.17.51-1.29l3.18-1c.66-.44.92-.16,1,.52-.49.5-1,1-.44,1.77,3.13,4.33,6.1,8.79,9.81,12.67a1.09,1.09,0,0,1,.39,1.41c-4-1.9-5.53-6.17-8.86-8.86,1.64,4.36,1.05,9.52,5,13-.59,1.37.34,2.29.86,3.41,1.25,2.68,3.51,5.08,2.63,8.43l-.52.19"/><path class="cls-78" d="M303,245.57l-.39-1.41c4.33,3.39,8.78,6.53,14.43,7.33a1.51,1.51,0,0,1-1.25,1c-2.77.42-11.29-4.23-12.79-7"/><path class="cls-79" d="M302.65,261.57c-.41-3.15-2.27-5.69-3.54-8.48-.47-1-2.08-2.29.05-3.36a46.81,46.81,0,0,1,3.53,6.52c.81,2.2,1.51,4.4,3.18,6.24-1.59.71-2.31-.38-3.22-.92"/><path class="cls-80" d="M296.87,273.49l3.76.26c2.05.74,3.72-.88,5.65-.92A22.3,22.3,0,0,1,291.54,275c1.67-.9,4,.53,5.33-1.52"/><path class="cls-81" d="M302.82,269.54a3.45,3.45,0,0,0,1.31-3.39l3.11,4c-1.84.83-3.14.18-4.42-.59"/><path class="cls-82" d="M219.23,49a5.69,5.69,0,0,0-7.36,6.47,45.27,45.27,0,0,0,1.27,4.66,1,1,0,0,1-1.37.37c-.44-1.55-.94-3.07-1.29-4.64-.88-3.9,2.18-8.47,6.08-9,1.37-.17,3.07-.24,2.67,2.09"/><path class="cls-83" d="M211.77,60.5l1.37-.37c1.41,1.63,2.83,3.24,4.21,4.89.46.55,1.65,1,1,1.84-.34.42-1.46.21-2.22.28-.62-3-3.37-3.9-5.38-5.52l.53-1,.53-.13"/><path class="cls-84" d="M226.45,51.18c-.52,1.36.12,2.93-.88,4.46-1.58-1.37-3.3-2.5-4.21-4.46,0-.32-.16-.83,0-.92.56-.38.94.12,1.33.45,1.12,1.29,2.53.23,3.78.47"/><path class="cls-85" d="M310.37,209.51c1.32-1.4.81-4.06,3.55-4.63,1-.22.12-1.83,0-2.81-.38-3-1.7-5.93-.18-9a2.77,2.77,0,0,1,2.59-1.82l3.7,2.44c10,7.11,18.14,16.28,26.89,24.77.89.86,1.89,1.6,2.84,2.4,1.69,3.81,4.35,7.1,5.73,11.13.7,2,.58,4.25,1.6,6.16-.62,3.13-2.31,3.36-4.94,2.1-3.53-1.68-5.34-4.91-7.64-7.73-2.08-2.56-3.66-5.55-6.43-7.51a4.24,4.24,0,0,1-3.16-3.28c-1.08-4.78-4-8.32-7.38-11.6-1.77-1.16-2.74-2.26-1.59-4.74,1.4-3-1.62-3.74-2.6-4.37,2.62,1.51,2.65,1.52,1.34,5.75a1.6,1.6,0,0,0,.81,2,10.84,10.84,0,0,1,2.19,1.63,27.64,27.64,0,0,1,5.39,6.6,11.92,11.92,0,0,1,1.22,2.82c.56,2.09.57,4.29-1.16,5.69s-3.95.54-5.74-.59a25.4,25.4,0,0,1-7.67-8.14c-.66-.59-1.35-1.19-1.3.4,0,1.17,1.46,2.63,0,3.41s-2.26-1.07-3.28-1.89a1.29,1.29,0,0,0-1-.38c.39,2.38,2.29,3.31,4.17,4.05a2.61,2.61,0,0,1,2,2.68c.39,4.61,1.2,9.2.22,13.84-4.16-.71-8.17-5.55-8.69-10.41-.35-3.25-.62-6.48-2.07-9.54-.86-1.82.19-3.77.52-5.66a24.5,24.5,0,0,0,.1-3.74"/><path class="cls-86" d="M341.36,243.51l-.45.86c-1.87,1.79-3.34.61-4.6-.78-2.23-2.43-4.33-5-6.49-7.46a17.23,17.23,0,0,1-3.31-6.22c-1.06-.78-.57-2.37-1.63-3.16l-1.71-3.07-1.6-3.12c-.38-.52-.16-1,.38-.79a4.65,4.65,0,0,1,2,1.81c2.92,3.7,6.39,5.69,11.19,3.78,1.15,1.11,1.3,2.7,2,4,0,3.9,2.9,6.84,3.55,10.52.21,1.21,1,2.29.69,3.6"/><path class="cls-87" d="M334.53,225.39c-2.32,2.48-6.66,1.69-9.57-1.7-1-1.17-1.46-3-3.39-3.13-1.56-.82-1.25-2.53-1.84-3.81,2.41,2.27,4.74,4.65,7.27,6.79,1.67,1.41,4.09,3,5.83,1.21,1.47-1.49,1.41-4.16.17-6.43-1.62-2.94-3.91-5.35-5.87-8-.41-.62-.17-.89.49-.94,3.75,3.27,6.8,7,8,12,.31,1.33,1.62,2.42,2.47,3.62-.18.32-.36.63-.53,1a5.32,5.32,0,0,1-.69,0,2.63,2.63,0,0,1-1-.88c-.26-.37-.36-.83-.73-1.13-.28.45-.16,1-.58,1.43"/><path class="cls-85" d="M323.54,227.2l-.87,1.72c-.65-1.11-.14-2.35-.36-3.5.94.22,1,1,1.23,1.78"/><path class="cls-88" d="M282.68,75.45c1.38-1.38,1.86-.25,2.4.83s.17,2.65,1.56,2.79c1.75.17,1.79-1.79,2.6-2.81l1.26-1.6c.54,1.59-1,2.53-1.21,3.9-3.49,3.33-3.7,3.28-5.31-1.3-.26-.74-.39-1.54-1.3-1.81"/><path class="cls-88" d="M281,81.82c-1.55,0-1.71-1.23-2-2.31a1.48,1.48,0,0,0,1.82-.55l.21,2.86"/><path class="cls-89" d="M228.63,49a1.86,1.86,0,0,1,1.46,1.31c.16.42.3,1.18-.47,1.28-.16,0-.41-.73-.62-1.13s-.25-1-.37-1.46"/><path class="cls-20" d="M324.88,226.75c1.31.66,1.18,2.06,1.63,3.16-1.37-.62-1.17-2.06-1.63-3.16"/><path class="cls-42" d="M341.36,243.51c-.91-5-3.88-9.4-5-14.39.37-.48-.14-1.11.28-1.57,1.14.47,1.1,1.6,1.42,2.54-.69,1.82.4,3.22,1.07,4.76,1.21,2.75,2.69,5.47,2.2,8.66"/><path class="cls-90" d="M336.67,227.55a1.57,1.57,0,0,1-.28,1.56c-.48-1.31-.65-2.77-1.86-3.71-.12-.84-.78-2.26.22-2.32,1.56-.09,1.74,1.65,2.11,2.9-.54.46-.41,1-.19,1.57"/><path class="cls-40" d="M237.33,37c-.24,1.83,0,3.78-1.25,5.38l-.51-4.12L237.33,37"/><path class="cls-91" d="M266.5,54.93c-2.07-1.24-1.88-3-.73-4.62,1.4-2,2.68-4.75,5.58-4.29,2.64.41,3.31,2.45,1.84,4.87-1-.18-1.92-.71-3-.54a2.19,2.19,0,0,0-1.9,1c-1,1-1.17,2.39-1.82,3.54"/><path class="cls-92" d="M270,49.7c1.42-.54,2.64-.51,3.24,1.19-1.3,2.88-3.11,4.92-6.69,4-.74-1.93,0-3.22,1.76-4.1.28-.8,1.3-.49,1.69-1.13"/><path class="cls-93" d="M275.23,75c-1-.31-1.33-1.61-2.54-1.55l-2.59-1.39c.52-.26,1.07-.48,1.19-1.15l1.79.87a1,1,0,0,0,1.24.46A1.94,1.94,0,0,1,276,73.8a1.36,1.36,0,0,1-.72,1.19"/><path class="cls-93" d="M269.13,68.66c1.87-.36,1.47,1.47,2.17,2.25-1.33-.16-2.48-.5-2.17-2.25"/><path class="cls-94" d="M216.74,72.06c-1-.55-2.91-.49-1.46-2.46.48.82,1,1.64,1.46,2.46"/><path class="cls-95" d="M270,149.28c1.12-4.72,2.86-6.75,5.94-6.92.95.95.38,1.8-.15,2.65a5.37,5.37,0,0,0-.81,2.73c-2.06,3.27-3,3.57-5,1.54"/><path class="cls-96" d="M270,149.28c2.69,1.64,3.63-.25,4.54-2.23a1.39,1.39,0,0,1,1.89-.4,7.13,7.13,0,0,1-1.63,4.33c-.84,1.18-1.67,3.21-3.54,2.41-1.53-.67-1.76-2.44-1.26-4.11"/><path class="cls-97" d="M276.46,146.65l-1.89.4c-.6-1-.57-1.84.56-2.44.63-.18,1.37-.73,1.6.47l-.27,1.57"/><path class="cls-98" d="M276.73,145.08a1.45,1.45,0,0,0-1.6-.47c.42-.7,1.25-1.24.84-2.25,1.14.66,1.62,1.5.76,2.72"/><path class="cls-99" d="M294.56,225a37.27,37.27,0,0,0-7.28-20.37c1.84.22,2.61,1.83,4.16,1.94.75.3,1.29-.34,1.95-.45a1.47,1.47,0,0,1,.78.25c-2.69,1.46-2.45,3.09-1.24,5.78,1.76,3.9,3.34,8.1,2.51,12.63a.59.59,0,0,1-.88.22"/><path class="cls-100" d="M293.59,206.51c-.71.19-1.43.57-2.15,0,2.1-1.91.41-3.54-.55-5a20.85,20.85,0,0,0-6.09-6.32c4.49.78,6.66,4.09,8.44,7.82-.5,1.22.81,2.27.35,3.49"/><path class="cls-101" d="M289.14,230.17l-.51.94c-3.19,1.22-5.17,0-6.84-4.14a2.5,2.5,0,0,1,.7-2c1.82,2.24,3,5.27,6.65,5.23"/><path class="cls-101" d="M275.17,222.17c-.07-.3-.14-.6-.2-.9,1.24-.56,2.33-.65,2.95.89.33.84.64,1.76,1.89,1.35a1.26,1.26,0,0,1,1.3,1.35c-.91,2-2.19,1.48-3.51.49-1.11-.83-1.53-2.19-2.43-3.18"/><path class="cls-102" d="M281,224.76l-1.14-1.25c0-.93-.05-1.86-.06-2.79,1.7-.72,1,1.41,1.88,1.61.29.87.57,1.74.86,2.61a1.08,1.08,0,1,1-1.54-.18"/><path class="cls-103" d="M294.56,225l.88-.22c.08,2,0,3.93-2.16,5l-1-.52a10.71,10.71,0,0,0,2.24-4.24"/><path class="cls-101" d="M281.63,222.33l-1.89-1.61c1.23-.83,1.23-.83,1.89,1.61"/><path class="cls-104" d="M293.59,206.51c-.16-1.16-1.14-2.24-.35-3.49l.93,3.31-.58.18"/><path class="cls-105" d="M284.43,265.58l-.52.91a2.17,2.17,0,0,1-1.08-2.19,2.22,2.22,0,0,1,1.6,1.28"/><path class="cls-106" d="M281,224.76c.43.58.86,1.15,1.28,1.73,1.25,2.77,2.87,5,6.4,4.62,2.07-.08,2.56,1.36,3.08,3,2.12,6.62,3.34,13.55,6.58,19.81,1.11,2.12,2.2,4.25,3.29,6.38-1.58,2.4-3.65,1.48-5.49.6-5.92-2.83-9.47-7.87-11.93-13.69-2.31-5.48-4.76-10.95-5.26-17-.07-.77,0-2.21-1.28-2s-.83,1.42-.69,2.3a46.85,46.85,0,0,1,.71,9.23c0,1-.16,2.39-1.26,2.62-1.45.3-1.36-1.3-1.62-2.15a39.91,39.91,0,0,1-2.13-9,12,12,0,0,1,2.54-9c1.7-.42,1.55,1.25,2.21,2,1.06,1.2,2.09,2.09,3.57.6"/><path class="cls-91" d="M295.67,61.37c-.29,2.06-2,3.33-3.35,4.84a3.34,3.34,0,0,1-3.73,1c-1.27-.35-1.08-1.33-.94-2.22.34-2,4.07-4.94,6.16-5a1.66,1.66,0,0,1,1.86,1.38"/><path class="cls-107" d="M275.77,73.93l-1.45-1.7c2.75-.88,5.45-2,8.43-1.17-.26,1.25-1.91,1.5-2,2.84-1.14.31-2.25.94-3.44.18a1.25,1.25,0,0,1-1.5-.15"/><path class="cls-88" d="M275.77,73.93l1.5.15c-.85,2,1.1,3.2,1.37,4.88a13.41,13.41,0,0,1-3.41-4l.54-1.06"/><path class="cls-88" d="M280.71,73.9c-.26-1.62.6-2.44,2-2.84l.69-.19c.59,2.35-1.8,2-2.73,3"/><path class="cls-89" d="M327.62,209.37c-.16.31-.33.62-.5.93a26.14,26.14,0,0,1-3.27-1.84c-.78-.59-1.67-1.38-.08-2.33,2.73-1.62,1.55-3-.39-4.32-1.2-.81-2.82-1-4-3.26,3.43,1,6,2.1,7.72,4.58a1.85,1.85,0,0,1-.15,2.54c-2,1.71-.61,2.67.68,3.7"/><path class="cls-108" d="M270,49.7c0,1.26-.86,1.15-1.69,1.13-.64-2.18.69-1.4,1.69-1.13"/><path class="cls-92" d="M291,62.16c1.27-.48,2.36-.46,2.9,1.06-1.16,2.58-2.78,4.41-6,3.62-.66-1.73,0-2.89,1.58-3.67.25-.72,1.16-.44,1.51-1"/><path class="cls-108" d="M292.3,61.71c0,1.26-.87,1.15-1.7,1.13-.63-2.18.7-1.4,1.7-1.13"/></g></g></svg>