<svg xmlns="http://www.w3.org/2000/svg" viewBox="0 0 112.34 92.93"><defs><style>.cls-1{fill:#c6d8e9;}.cls-2{fill:#a9c9dd;}.cls-3{fill:#edf6fb;}</style></defs><title>telegram</title><g id="Слой_2" data-name="Слой 2"><g id="Слой_1-2" data-name="Слой 1"><polygon class="cls-1" points="29.56 55.18 38.25 84.82 41.97 88.17 97.97 16.18 94.19 13.24 24.94 40.93 29.56 55.18"/><path class="cls-2" d="M56.17,57.14c-.67,0-12.45,4.47-12.45,4.47l-2.19,25.7a.92.92,0,0,0,1.52.77L62.65,71Z"/><path class="cls-3" d="M93.92,88.33c4.31-18.81,14.07-63,18.3-82.14A5.1,5.1,0,0,0,105.43.34L2.81,38.94a4.33,4.33,0,0,0,.27,8.2l26.48,8L90,16.32c1.6-1,3.14.71,1.82,1.95L43.72,61.61,84.61,91.76A5.94,5.94,0,0,0,93.92,88.33Z"/></g></g></svg>