<?xml version="1.0" encoding="utf-8"?>
<!-- Generator: Adobe Illustrator 22.1.0, SVG Export Plug-In . SVG Version: 6.00 Build 0)  -->
<svg version="1.1" id="Слой_1" xmlns="http://www.w3.org/2000/svg" xmlns:xlink="http://www.w3.org/1999/xlink" x="0px" y="0px"
	 viewBox="0 0 283.5 283.5" style="enable-background:new 0 0 283.5 283.5;" xml:space="preserve">
<style type="text/css">
	.st0{fill:#0E0F0F;}
</style>
<g>
	<g>
		<g>
			<g>
				<g>
					<path class="st0" d="M141.4,258.5c-0.3,0-0.5-0.1-0.8-0.2l-4-2.3c-0.7-0.4-1-1.3-0.6-2.1c0.4-0.7,1.3-1,2.1-0.6l3.2,1.8
						l3.2-1.8c0.7-0.4,1.7-0.2,2.1,0.6c0.4,0.7,0.2,1.7-0.6,2.1l-4,2.3C142,258.4,141.7,258.5,141.4,258.5z"/>
				</g>
				<g>
					<path class="st0" d="M129.2,251.5c-0.3,0-0.5-0.1-0.8-0.2l-8.3-4.7c-0.7-0.4-1-1.3-0.6-2.1c0.4-0.7,1.3-1,2.1-0.6l8.3,4.7
						c0.7,0.4,1,1.3,0.6,2.1C130.2,251.2,129.7,251.5,129.2,251.5z M112.6,242c-0.3,0-0.5-0.1-0.8-0.2l-8.3-4.7
						c-0.7-0.4-1-1.3-0.6-2.1c0.4-0.7,1.3-1,2.1-0.6l8.3,4.7c0.7,0.4,1,1.3,0.6,2.1C113.7,241.7,113.2,242,112.6,242z M96.1,232.5
						c-0.3,0-0.5-0.1-0.8-0.2l-8.3-4.7c-0.7-0.4-1-1.3-0.6-2.1c0.4-0.7,1.3-1,2.1-0.6l8.3,4.7c0.7,0.4,1,1.3,0.6,2.1
						C97.1,232.3,96.6,232.5,96.1,232.5z M79.5,223.1c-0.3,0-0.5-0.1-0.8-0.2l-8.3-4.7c-0.7-0.4-1-1.3-0.6-2.1
						c0.4-0.7,1.3-1,2.1-0.6l8.3,4.7c0.7,0.4,1,1.3,0.6,2.1C80.6,222.8,80.1,223.1,79.5,223.1z M63,213.6c-0.3,0-0.5-0.1-0.8-0.2
						l-8.3-4.7c-0.7-0.4-1-1.3-0.6-2.1c0.4-0.7,1.3-1,2.1-0.6l8.3,4.7c0.7,0.4,1,1.3,0.6,2.1C64,213.3,63.5,213.6,63,213.6z
						 M46.5,204.2c-0.3,0-0.5-0.1-0.8-0.2l-8.3-4.7c-0.7-0.4-1-1.3-0.6-2.1c0.4-0.7,1.3-1,2.1-0.6l8.3,4.7c0.7,0.4,1,1.3,0.6,2.1
						C47.5,203.9,47,204.2,46.5,204.2z"/>
				</g>
				<g>
					<path class="st0" d="M153.7,251.5c-0.5,0-1-0.3-1.3-0.8c-0.4-0.7-0.2-1.7,0.6-2.1l8.3-4.7c0.7-0.4,1.7-0.2,2.1,0.6
						c0.4,0.7,0.2,1.7-0.6,2.1l-8.3,4.7C154.2,251.4,153.9,251.5,153.7,251.5z M170.2,242c-0.5,0-1-0.3-1.3-0.8
						c-0.4-0.7-0.2-1.7,0.6-2.1l8.3-4.7c0.7-0.4,1.7-0.2,2.1,0.6c0.4,0.7,0.2,1.7-0.6,2.1l-8.3,4.7C170.7,241.9,170.5,242,170.2,242
						z M186.8,232.5c-0.5,0-1-0.3-1.3-0.8c-0.4-0.7-0.2-1.7,0.6-2.1l8.3-4.7c0.7-0.4,1.7-0.2,2.1,0.6c0.4,0.7,0.2,1.7-0.6,2.1
						l-8.3,4.7C187.3,232.5,187,232.5,186.8,232.5z M203.3,223.1c-0.5,0-1-0.3-1.3-0.8c-0.4-0.7-0.2-1.7,0.6-2.1l8.3-4.7
						c0.7-0.4,1.7-0.2,2.1,0.6c0.4,0.7,0.2,1.7-0.6,2.1l-8.3,4.7C203.8,223,203.6,223.1,203.3,223.1z M219.9,213.6
						c-0.5,0-1-0.3-1.3-0.8c-0.4-0.7-0.2-1.7,0.6-2.1l8.3-4.7c0.7-0.4,1.7-0.2,2.1,0.6c0.4,0.7,0.2,1.7-0.6,2.1l-8.3,4.7
						C220.4,213.6,220.1,213.6,219.9,213.6z M236.4,204.2c-0.5,0-1-0.3-1.3-0.8c-0.4-0.7-0.2-1.7,0.6-2.1l8.3-4.7
						c0.7-0.4,1.7-0.2,2.1,0.6c0.4,0.7,0.2,1.7-0.6,2.1l-8.3,4.7C236.9,204.1,236.7,204.2,236.4,204.2z"/>
				</g>
				<g>
					<path class="st0" d="M29.9,191.1c-0.5-0.3-0.8-0.8-0.8-1.3c0-0.8,0.7-1.5,1.5-1.5l9.5,0c0.8,0,1.5,0.7,1.5,1.5
						c0,0.8-0.7,1.5-1.5,1.5l-9.5,0C30.4,191.3,30.1,191.2,29.9,191.1z M49,191.1c-0.5-0.3-0.8-0.8-0.8-1.3c0-0.8,0.7-1.5,1.5-1.5
						l9.5,0c0.8,0,1.5,0.7,1.5,1.5c0,0.8-0.7,1.5-1.5,1.5l-9.5,0C49.4,191.3,49.2,191.3,49,191.1z M68,191.2
						c-0.5-0.3-0.8-0.8-0.8-1.3c0-0.8,0.7-1.5,1.5-1.5l9.5,0c0.8,0,1.5,0.7,1.5,1.5c0,0.8-0.7,1.5-1.5,1.5l-9.5,0
						C68.5,191.4,68.2,191.3,68,191.2z M87.1,191.3c-0.5-0.3-0.8-0.8-0.8-1.3c0-0.8,0.7-1.5,1.5-1.5l9.5,0c0.8,0,1.5,0.7,1.5,1.5
						c0,0.8-0.7,1.5-1.5,1.5l-9.5,0C87.6,191.5,87.3,191.4,87.1,191.3z M106.1,191.3c-0.5-0.3-0.8-0.8-0.8-1.3
						c0-0.8,0.7-1.5,1.5-1.5l9.5,0c0.8,0,1.5,0.7,1.5,1.5c0,0.8-0.7,1.5-1.5,1.5l-9.5,0C106.6,191.5,106.4,191.5,106.1,191.3z
						 M125.2,191.4c-0.5-0.3-0.8-0.8-0.8-1.3c0-0.8,0.7-1.5,1.5-1.5l9.5,0c0.8,0,1.5,0.7,1.5,1.5c0,0.8-0.7,1.5-1.5,1.5l-9.5,0
						C125.7,191.6,125.4,191.5,125.2,191.4z"/>
				</g>
				<g>
					<path class="st0" d="M145.4,191.4c-0.5-0.3-0.8-0.8-0.8-1.3c0-0.8,0.7-1.5,1.5-1.5l9.5,0c0.8,0,1.5,0.7,1.5,1.5
						c0,0.8-0.7,1.5-1.5,1.5l-9.5,0C145.9,191.6,145.6,191.5,145.4,191.4z M164.5,191.4c-0.5-0.3-0.8-0.8-0.8-1.3
						c0-0.8,0.7-1.5,1.5-1.5l9.5,0c0.8,0,1.5,0.7,1.5,1.5c0,0.8-0.7,1.5-1.5,1.5l-9.5,0C164.9,191.6,164.7,191.6,164.5,191.4z
						 M183.5,191.5c-0.5-0.3-0.8-0.8-0.8-1.3c0-0.8,0.7-1.5,1.5-1.5l9.5,0c0.8,0,1.5,0.7,1.5,1.5c0,0.8-0.7,1.5-1.5,1.5l-9.5,0
						C184,191.7,183.7,191.6,183.5,191.5z M202.6,191.6c-0.5-0.3-0.8-0.8-0.8-1.3c0-0.8,0.7-1.5,1.5-1.5l9.5,0
						c0.8,0,1.5,0.7,1.5,1.5c0,0.8-0.7,1.5-1.5,1.5l-9.5,0C203.1,191.8,202.8,191.7,202.6,191.6z M221.6,191.6
						c-0.5-0.3-0.8-0.8-0.8-1.3c0-0.8,0.7-1.5,1.5-1.5l9.5,0c0.8,0,1.5,0.7,1.5,1.5c0,0.8-0.7,1.5-1.5,1.5l-9.5,0
						C222.1,191.8,221.9,191.8,221.6,191.6z M240.7,191.7c-0.5-0.3-0.8-0.8-0.8-1.3c0-0.8,0.7-1.5,1.5-1.5l9.5,0
						c0.8,0,1.5,0.7,1.5,1.5c0,0.8-0.7,1.5-1.5,1.5l-9.5,0C241.2,191.9,240.9,191.8,240.7,191.7z"/>
				</g>
			</g>
			<g>
				<path class="st0" d="M141.4,258.5c-0.3,0-0.5-0.1-0.8-0.2l-115.5-66c-0.4-0.2-0.6-0.6-0.7-1c-0.1-0.4,0-0.9,0.2-1.2L140.2,28.5
					c0.6-0.8,1.9-0.8,2.5,0L258.2,190c0.3,0.4,0.3,0.8,0.2,1.2c-0.1,0.4-0.4,0.8-0.7,1l-115.5,66C142,258.4,141.7,258.5,141.4,258.5
					z M28.2,190.4l113.3,64.8l113.3-64.8L141.4,32L28.2,190.4z"/>
			</g>
		</g>
		<g>
			<path class="st0" d="M141.4,258.5c-0.3,0-0.5-0.1-0.8-0.2l-115.5-66c-0.4-0.2-0.6-0.6-0.7-1c-0.1-0.4,0-0.9,0.2-1.2L140.2,28.5
				c0.4-0.5,1.1-0.8,1.7-0.6c0.6,0.2,1.1,0.8,1.1,1.5v227.5c0,0.5-0.3,1-0.8,1.3C142,258.4,141.7,258.5,141.4,258.5z M28.2,190.4
				l111.7,63.9V34.2L28.2,190.4z"/>
		</g>
	</g>
</g>
</svg>
