<svg xmlns="http://www.w3.org/2000/svg" viewBox="0 0 112.18 111.87"><defs><style>.cls-1{fill:#edf5f9;fill-rule:evenodd;}</style></defs><title>whatsapp</title><g id="Слой_2" data-name="Слой 2"><g id="Слой_1-2" data-name="Слой 1"><path class="cls-1" d="M112.18,54.5c0,30.09-24.65,54.49-55.07,54.49a55.29,55.29,0,0,1-26.62-6.78L0,111.87,9.94,82.64A53.8,53.8,0,0,1,2,54.5C2,24.4,26.7,0,57.11,0s55.07,24.4,55.07,54.5ZM57.11,8.68c-25.53,0-46.3,20.55-46.3,45.82a45.2,45.2,0,0,0,8.82,26.86l-5.78,17,17.79-5.63a46.39,46.39,0,0,0,25.47,7.57c25.53,0,46.3-20.55,46.3-45.81S82.64,8.68,57.11,8.68ZM84.92,67.05c-.34-.56-1.24-.89-2.58-1.56s-8-3.9-9.23-4.34-2.14-.67-3,.66-3.49,4.35-4.28,5.24-1.57,1-2.92.33A36.93,36.93,0,0,1,52,60.76a40.83,40.83,0,0,1-7.51-9.25c-.78-1.34-.07-2.06.59-2.73s1.36-1.56,2-2.34a9,9,0,0,0,1.35-2.23,2.43,2.43,0,0,0-.11-2.34c-.34-.66-3-7.24-4.17-9.91s-2.24-2.57-3-2.57a19.8,19.8,0,0,0-2.25.23S36.21,30,35,31.29a14.93,14.93,0,0,0-4.72,11.14c0,6.57,4.83,12.92,5.51,13.81s9.33,14.82,23.06,20.17S72.54,80,75,79.75s8-3.23,9.11-6.35,1.13-5.8.79-6.35Z"/></g></g></svg>