<?xml version="1.0" encoding="utf-8"?>
<!-- Generator: Adobe Illustrator 22.1.0, SVG Export Plug-In . SVG Version: 6.00 Build 0)  -->
<svg version="1.1" id="Слой_1" xmlns="http://www.w3.org/2000/svg" xmlns:xlink="http://www.w3.org/1999/xlink" x="0px" y="0px"
	 viewBox="0 0 283.5 283.5" style="enable-background:new 0 0 283.5 283.5;" xml:space="preserve">
<style type="text/css">
	.st0{fill:#0E0F0F;}
</style>
<g>
	<g>
		<g>
			<path class="st0" d="M141.4,259.4c-46.9,0-86.7-20.2-92.6-47.1c-0.5-2.2-0.8-4.5-0.8-6.9c0-4.7,1-9.4,3.1-13.9
				c15.6-46.4,88.3-168,89-169.2c0.5-0.9,1.9-0.9,2.5,0c0.7,1.2,73.5,122.8,89.1,169.3c2,4.4,3,9,3,13.8c0,2.4-0.3,4.7-0.8,6.9
				C228.1,239.2,188.3,259.4,141.4,259.4z M141.4,25.9c-9.7,16.2-73.2,123.8-87.6,166.7c-1.9,4.3-2.9,8.5-2.9,12.9
				c0,2.2,0.2,4.3,0.7,6.3c5.6,25.6,44.2,44.8,89.8,44.8s84.2-19.3,89.8-44.8c0.5-2,0.7-4.1,0.7-6.3c0-4.3-1-8.6-2.8-12.7
				C214.6,149.7,151.1,42.1,141.4,25.9z"/>
		</g>
	</g>
	<g>
		<path class="st0" d="M145.7,259.8c-0.8,0-1.4-0.6-1.4-1.4c0-0.8,0.6-1.4,1.4-1.4c2.8-0.1,5.7-0.2,8.4-0.5c0.8-0.1,1.4,0.5,1.5,1.3
			c0.1,0.8-0.5,1.4-1.3,1.5C151.6,259.6,148.7,259.8,145.7,259.8C145.8,259.8,145.8,259.8,145.7,259.8z M137.2,259.8
			C137.2,259.8,137.2,259.8,137.2,259.8c-2.9-0.1-5.8-0.2-8.6-0.5c-0.8-0.1-1.3-0.7-1.3-1.5c0.1-0.8,0.8-1.4,1.5-1.3
			c2.8,0.2,5.6,0.4,8.4,0.4c0.8,0,1.4,0.7,1.4,1.4C138.6,259.2,138,259.8,137.2,259.8z M120.2,258.5c-0.1,0-0.1,0-0.2,0
			c-2.8-0.4-5.7-0.9-8.5-1.4c-0.8-0.1-1.3-0.9-1.1-1.6c0.1-0.8,0.9-1.3,1.6-1.1c2.7,0.5,5.5,1,8.3,1.4c0.8,0.1,1.3,0.8,1.2,1.6
			C121.5,258,120.9,258.5,120.2,258.5z M162.8,258.5c-0.7,0-1.3-0.5-1.4-1.2c-0.1-0.8,0.4-1.5,1.2-1.6c2.8-0.4,5.6-0.8,8.3-1.4
			c0.8-0.2,1.5,0.3,1.6,1.1c0.1,0.8-0.3,1.5-1.1,1.6c-2.8,0.5-5.6,1-8.5,1.4C162.9,258.5,162.8,258.5,162.8,258.5z M103.5,255.2
			c-0.1,0-0.2,0-0.4,0c-2.8-0.7-5.6-1.6-8.3-2.4c-0.7-0.2-1.1-1-0.9-1.8c0.2-0.7,1-1.1,1.8-0.9c2.6,0.9,5.4,1.7,8.1,2.4
			c0.7,0.2,1.2,1,1,1.7C104.7,254.8,104.1,255.2,103.5,255.2z M179.5,255.2c-0.6,0-1.2-0.4-1.4-1.1c-0.2-0.7,0.3-1.5,1-1.7
			c2.7-0.7,5.5-1.5,8.1-2.4c0.7-0.2,1.5,0.2,1.8,0.9c0.2,0.7-0.2,1.5-0.9,1.8c-2.7,0.9-5.5,1.7-8.3,2.5
			C179.7,255.2,179.6,255.2,179.5,255.2z M87.3,249.8c-0.2,0-0.4,0-0.5-0.1c-1.5-0.6-3-1.3-4.5-2c-1.1-0.5-2.2-1.1-3.3-1.7
			c-0.7-0.4-1-1.2-0.6-1.9c0.4-0.7,1.2-1,1.9-0.6c1.1,0.6,2.1,1.1,3.2,1.6c1.4,0.7,2.9,1.3,4.4,2c0.7,0.3,1.1,1.1,0.8,1.8
			C88.4,249.5,87.9,249.8,87.3,249.8z M195.6,249.8c-0.5,0-1.1-0.3-1.3-0.9c-0.3-0.7,0-1.5,0.8-1.8c1.5-0.6,2.9-1.3,4.3-1.9
			c1.1-0.5,2.2-1.1,3.3-1.7c0.7-0.4,1.5-0.1,1.9,0.6c0.4,0.7,0.1,1.5-0.6,1.9c-1.1,0.6-2.3,1.2-3.4,1.7c-1.4,0.7-2.9,1.3-4.4,2
			C196,249.7,195.8,249.8,195.6,249.8z M72.2,241.9c-0.3,0-0.5-0.1-0.8-0.2c-2.5-1.6-4.8-3.4-7-5.2c-0.6-0.5-0.7-1.4-0.2-2
			c0.5-0.6,1.4-0.7,2-0.2c2,1.7,4.3,3.4,6.7,5c0.6,0.4,0.8,1.3,0.4,1.9C73.1,241.6,72.7,241.9,72.2,241.9z M210.7,241.8
			c-0.5,0-0.9-0.2-1.2-0.6c-0.4-0.6-0.2-1.5,0.4-1.9c2.4-1.6,4.6-3.3,6.7-5c0.6-0.5,1.5-0.4,2,0.2c0.5,0.6,0.4,1.5-0.2,2
			c-2.1,1.8-4.5,3.6-7,5.2C211.2,241.7,211,241.8,210.7,241.8z M59.3,230.8c-0.4,0-0.8-0.2-1.1-0.5c-2-2.3-3.7-4.7-5.1-7.1
			c-0.4-0.7-0.2-1.5,0.5-1.9c0.7-0.4,1.5-0.2,1.9,0.5c1.3,2.3,2.9,4.5,4.8,6.7c0.5,0.6,0.4,1.5-0.1,2
			C60,230.7,59.7,230.8,59.3,230.8z M223.6,230.7c-0.3,0-0.7-0.1-0.9-0.3c-0.6-0.5-0.7-1.4-0.1-2c1.9-2.2,3.5-4.4,4.8-6.7
			c0.4-0.7,1.2-0.9,1.9-0.5c0.7,0.4,0.9,1.2,0.5,1.9c-1.4,2.4-3.1,4.9-5.1,7.2C224.4,230.5,224,230.7,223.6,230.7z M51,216
			c-0.6,0-1.2-0.4-1.3-1c-0.8-2.9-1.3-5.8-1.3-8.8c0-0.8,0.7-1.3,1.4-1.4c0.8,0,1.4,0.6,1.4,1.4c0,2.7,0.4,5.4,1.2,8
			c0.2,0.7-0.2,1.5-1,1.7C51.3,216,51.1,216,51,216z M231.9,215.9c-0.1,0-0.3,0-0.4-0.1c-0.7-0.2-1.2-1-1-1.7c0.7-2.6,1.1-5.3,1.1-8
			c0-0.8,0.6-1.5,1.4-1.5c0.8,0,1.4,0.5,1.4,1.3v0.3c0,2.9-0.4,5.9-1.2,8.8C233,215.5,232.5,215.9,231.9,215.9z M51,199.2
			c-0.1,0-0.3,0-0.4-0.1c-0.7-0.2-1.2-1-1-1.7c0.8-2.8,1.9-5.5,3.4-8.2c0.4-0.7,1.2-0.9,1.9-0.5c0.7,0.4,0.9,1.2,0.5,1.9
			c-1.4,2.5-2.4,5-3.2,7.5C52.1,198.8,51.6,199.2,51,199.2z M231.8,198.9c-0.6,0-1.2-0.4-1.3-1c-0.7-2.5-1.8-5.1-3.2-7.5
			c-0.4-0.7-0.2-1.5,0.5-1.9c0.7-0.4,1.5-0.2,1.9,0.5c1.5,2.6,2.7,5.4,3.5,8.1c0.2,0.7-0.2,1.5-1,1.7
			C232.1,198.9,231.9,198.9,231.8,198.9z M59.2,184.4c-0.3,0-0.7-0.1-0.9-0.3c-0.6-0.5-0.7-1.4-0.1-2c1.8-2.1,3.9-4.2,6.2-6.1
			c0.6-0.5,1.5-0.4,2,0.2c0.5,0.6,0.4,1.5-0.2,2c-2.2,1.9-4.2,3.8-5.9,5.8C60,184.3,59.6,184.4,59.2,184.4z M223.5,184.2
			c-0.4,0-0.8-0.2-1.1-0.5c-1.7-2-3.7-3.9-5.9-5.8c-0.6-0.5-0.7-1.4-0.2-2c0.5-0.6,1.4-0.7,2-0.2c2.3,2,4.4,4,6.2,6.1
			c0.5,0.6,0.4,1.5-0.1,2C224.1,184.1,223.8,184.2,223.5,184.2z M72,173.3c-0.5,0-0.9-0.2-1.2-0.6c-0.4-0.6-0.3-1.5,0.4-1.9
			c2.3-1.5,4.8-3,7.5-4.4c0.7-0.4,1.5-0.1,1.9,0.6c0.4,0.7,0.1,1.5-0.6,1.9c-2.5,1.3-5,2.8-7.2,4.3C72.6,173.2,72.3,173.3,72,173.3z
			 M210.5,173.1c-0.3,0-0.5-0.1-0.8-0.2c-2.3-1.5-4.7-2.9-7.2-4.2c-0.7-0.4-1-1.2-0.6-1.9c0.4-0.7,1.2-1,1.9-0.6
			c2.6,1.4,5.1,2.8,7.5,4.4c0.6,0.4,0.8,1.3,0.4,1.9C211.4,172.9,211,173.1,210.5,173.1z M87.1,165.3c-0.5,0-1.1-0.3-1.3-0.9
			c-0.3-0.7,0-1.5,0.7-1.8c2.6-1.1,5.3-2.1,8.1-3c0.7-0.2,1.5,0.1,1.8,0.9c0.2,0.7-0.1,1.5-0.9,1.8c-2.7,0.9-5.4,1.9-7.9,3
			C87.5,165.3,87.3,165.3,87.1,165.3z M195.4,165.2c-0.2,0-0.4,0-0.5-0.1c-2.5-1.1-5.2-2-7.9-3c-0.7-0.2-1.1-1-0.9-1.8
			c0.2-0.7,1-1.1,1.8-0.9c2.8,0.9,5.5,1.9,8.1,3c0.7,0.3,1.1,1.1,0.8,1.8C196.5,164.9,196,165.2,195.4,165.2z M103.3,159.9
			c-0.6,0-1.2-0.4-1.4-1c-0.2-0.7,0.3-1.5,1-1.7c2.7-0.7,5.6-1.4,8.4-1.9c0.7-0.1,1.5,0.3,1.6,1.1c0.1,0.8-0.3,1.5-1.1,1.6
			c-2.8,0.5-5.6,1.2-8.2,1.9C103.5,159.9,103.4,159.9,103.3,159.9z M179.3,159.8c-0.1,0-0.2,0-0.4,0c-2.7-0.7-5.4-1.3-8.2-1.9
			c-0.8-0.1-1.3-0.9-1.1-1.6c0.1-0.8,0.9-1.3,1.6-1.1c2.8,0.6,5.7,1.2,8.4,1.9c0.7,0.2,1.2,1,1,1.7
			C180.5,159.4,179.9,159.8,179.3,159.8z M120,156.6c-0.7,0-1.3-0.5-1.4-1.2c-0.1-0.8,0.4-1.5,1.2-1.6c2.8-0.4,5.7-0.7,8.6-0.9
			c0.8,0,1.4,0.5,1.5,1.3c0.1,0.8-0.5,1.5-1.3,1.5c-2.8,0.2-5.6,0.5-8.4,0.9C120.1,156.6,120,156.6,120,156.6z M162.5,156.5
			c-0.1,0-0.1,0-0.2,0c-2.8-0.4-5.6-0.7-8.4-0.9c-0.8-0.1-1.3-0.7-1.3-1.5c0.1-0.8,0.7-1.4,1.5-1.3c2.9,0.2,5.7,0.5,8.6,0.9
			c0.8,0.1,1.3,0.8,1.2,1.6C163.8,156,163.2,156.5,162.5,156.5z M137,155.2c-0.8,0-1.4-0.6-1.4-1.4c0-0.8,0.6-1.4,1.4-1.4
			c1.5,0,2.9-0.1,4.5-0.1c1.4,0,2.8,0,4.1,0.1c0.8,0,1.4,0.7,1.4,1.4c0,0.8-0.6,1.4-1.4,1.4c-1.4,0-2.8-0.1-4.2-0.1
			C139.9,155.1,138.4,155.2,137,155.2C137,155.2,137,155.2,137,155.2z"/>
	</g>
</g>
</svg>
