<svg xmlns="http://www.w3.org/2000/svg" viewBox="0 0 99.59 99.37"><defs><style>.cls-1{fill:#edf5f9;}</style></defs><title>Ресурс 4</title><g id="Слой_2" data-name="Слой 2"><g id="Слой_1-2" data-name="Слой 1"><path class="cls-1" d="M97.36,78.59,82,63.21a8,8,0,0,0-11.31.21l-7.75,7.75-1.53-.85A77.05,77.05,0,0,1,42.76,56.84,77.5,77.5,0,0,1,29.25,38.17c-.29-.52-.56-1-.83-1.49l5.2-5.2,2.55-2.56a8,8,0,0,0,.21-11.31L21,2.23a8,8,0,0,0-11.31.21L5.36,6.8l.12.12a25.29,25.29,0,0,0-3.58,6.3A26.44,26.44,0,0,0,.31,19.61C-1.72,36.45,6,51.84,26.86,72.72,55.72,101.58,79,99.4,80,99.29a25.76,25.76,0,0,0,6.41-1.61,24.8,24.8,0,0,0,6.28-3.56l.09.09,4.39-4.3A8,8,0,0,0,97.36,78.59Z"/></g></g></svg>