<?xml version="1.0" encoding="utf-8"?>
<!-- Generator: Adobe Illustrator 23.1.0, SVG Export Plug-In . SVG Version: 6.00 Build 0)  -->
<svg version="1.1" id="Слой_1" xmlns="http://www.w3.org/2000/svg" xmlns:xlink="http://www.w3.org/1999/xlink" x="0px" y="0px"
	 viewBox="0 0 950 830" style="enable-background:new 0 0 950 830;" xml:space="preserve">
<style type="text/css">
	.st0{opacity:0.31;}
	.st1{fill:url(#SVGID_1_);}
	.st2{opacity:0.63;}
	.st3{fill:url(#SVGID_2_);}
	.st4{fill:url(#SVGID_3_);}
	.st5{opacity:0.63;fill:url(#SVGID_4_);}
	.st6{opacity:0.63;fill:url(#SVGID_5_);}
	.st7{fill:url(#SVGID_6_);}
	.st8{fill:#7058A5;}
	.st9{fill:url(#SVGID_7_);}
	.st10{opacity:0.47;fill:#FFFFFF;}
	.st11{opacity:0.75;fill:url(#SVGID_8_);}
	.st12{opacity:0.85;fill:url(#SVGID_9_);}
	.st13{fill:url(#SVGID_10_);}
	.st14{fill:#FFFFFF;}
	.st15{fill:url(#SVGID_11_);}
	.st16{fill:url(#SVGID_12_);}
	.st17{fill:url(#SVGID_13_);}
	.st18{fill:url(#SVGID_14_);}
	.st19{fill:url(#SVGID_15_);}
	.st20{fill:url(#SVGID_16_);}
	.st21{fill:#593D96;}
	.st22{fill:url(#SVGID_17_);}
	.st23{fill:#EBE4DA;}
	.st24{fill:url(#SVGID_18_);}
	.st25{fill:url(#SVGID_19_);}
	.st26{fill:url(#SVGID_20_);}
	.st27{fill:url(#SVGID_21_);}
	.st28{fill:url(#SVGID_22_);}
	.st29{fill:url(#SVGID_23_);}
	.st30{fill:url(#SVGID_24_);}
	.st31{fill:#2A2F56;}
	.st32{fill:url(#SVGID_25_);}
	.st33{opacity:0.1;fill:#2A2F56;}
	.st34{font-family:'Ponder-Medium';}
	.st35{font-size:64.5332px;}
	.st36{fill:url(#SVGID_26_);}
	.st37{fill:url(#SVGID_27_);}
	.st38{fill:url(#SVGID_28_);}
	.st39{fill:url(#SVGID_29_);}
	.st40{fill:#A8B4EF;}
	.st41{fill:#93A2DE;}
	.st42{fill:#EBE9D2;}
	.st43{fill:#CA792B;}
	.st44{fill:#E5C843;}
	.st45{fill:url(#SVGID_30_);}
	.st46{fill:#BB257B;}
	.st47{fill:#502F88;}
	.st48{fill:url(#SVGID_31_);}
	.st49{fill:url(#SVGID_32_);}
	.st50{fill:url(#SVGID_33_);}
	.st51{fill:url(#SVGID_34_);}
	.st52{opacity:0.1;fill:#6D6E70;}
	.st53{fill:#303458;}
	.st54{fill:url(#SVGID_35_);}
	.st55{fill:url(#SVGID_36_);}
	.st56{opacity:0.25;}
	.st57{fill:#3E426D;}
	.st58{opacity:0.27;fill:#442E40;}
	.st59{fill:#8B8E9E;}
	.st60{fill:#0F1013;}
	.st61{fill:#6D639E;}
	.st62{fill:#C0BEDB;}
	.st63{fill:#A09EBB;}
	.st64{fill:#0F1114;}
	.st65{fill:#928EAC;}
	.st66{fill:#6D659E;}
	.st67{fill:#3A3C4D;}
	.st68{fill:#E7E7E8;}
	.st69{fill:#686675;}
	.st70{fill:#D1B669;}
	.st71{fill:#E2C671;}
	.st72{fill:#A69071;}
	.st73{fill:#BDAC74;}
	.st74{fill:#D5C17F;}
	.st75{fill:#DEC372;}
	.st76{fill:#CCBA88;}
	.st77{fill:#B6AF8F;}
	.st78{fill:#B09B71;}
	.st79{fill:#A89D90;}
	.st80{fill:#32323E;}
	.st81{fill:#363541;}
	.st82{fill:#5F5D68;}
	.st83{fill:#C8B895;}
	.st84{fill:#D9C28C;}
	.st85{fill:#D8D7C8;}
	.st86{fill:#C9AE6C;}
</style>
<g>
	<g class="st0">
		
			<linearGradient id="SVGID_1_" gradientUnits="userSpaceOnUse" x1="476.7084" y1="29.8337" x2="476.7084" y2="1071.4847" gradientTransform="matrix(1 -1.533114e-03 1.533114e-03 1 -2.6952 0.6708)">
			<stop  offset="0" style="stop-color:#ADADFB"/>
			<stop  offset="1" style="stop-color:#FFFFFF"/>
		</linearGradient>
		<path class="st1" d="M899.29,472.96c-34.44-42.02-82.15-71.32-109.17-119.32c-31.65-56.21-29.21-127.81-54.19-187.85
			C706.54,95.18,640.64,47.63,570.9,31.23c-69.74-16.4-142.87-4.91-211.08,17.81c-57.59,19.18-115.58,48.59-150.75,101.68
			c-47.03,70.98-46.45,173.79-105.09,233.73c-20.51,20.97-46.73,34.69-66.41,56.58C-6.18,489.67-7.28,571.75,24.72,630.2
			c32,58.46,90.64,95.08,151.34,111.82c60.7,16.74,124.17,15.94,186.78,15.04l7.57,15.31c123.88,12.24,248.7,13.19,372.71,2.85
			c62.52-5.22,130.93-16.6,172.18-67.88C967.18,642.86,951.74,536.94,899.29,472.96z"/>
	</g>
	<g class="st2">
		
			<linearGradient id="SVGID_2_" gradientUnits="userSpaceOnUse" x1="477.0162" y1="29.8337" x2="477.0162" y2="1071.4847" gradientTransform="matrix(-1 1.533114e-03 1.533114e-03 1 951.0294 -0.7914)">
			<stop  offset="0" style="stop-color:#ADADFB"/>
			<stop  offset="1" style="stop-color:#FFFFFF"/>
		</linearGradient>
		<path class="st3" d="M50.18,474.26c34.32-42.13,81.93-71.57,108.81-119.65c31.47-56.31,28.82-127.9,53.62-188.01
			c29.17-70.7,94.92-118.46,164.62-135.07c69.69-16.61,142.85-5.35,211.13,17.17C646,67.7,704.08,96.93,739.42,149.92
			c47.25,70.84,46.99,173.65,105.81,233.41c20.58,20.91,46.83,34.55,66.59,56.37c43.9,48.5,45.25,130.57,13.43,189.13
			c-31.82,58.55-90.35,95.36-151,112.29c-60.65,16.93-124.12,16.32-186.74,15.62l-7.52,15.34c-123.84,12.62-248.65,13.95-372.7,3.99
			c-62.53-5.02-130.98-16.2-172.39-67.35C-17.18,644.37-2.06,538.4,50.18,474.26z"/>
	</g>
</g>
<radialGradient id="SVGID_3_" cx="470.8494" cy="778.5032" r="405.3981" gradientTransform="matrix(1 -1.533114e-03 3.824260e-04 0.2494 -1.7994 584.9811)" gradientUnits="userSpaceOnUse">
	<stop  offset="0" style="stop-color:#8663CE"/>
	<stop  offset="1" style="stop-color:#7680F6"/>
</radialGradient>
<path class="st4" d="M847.55,777.87c0.04,26.81-169.25,48.8-378.13,49.12S91.18,805.84,91.14,779.03
	c-0.04-26.81,169.25-48.8,378.13-49.12C678.15,729.59,847.51,751.06,847.55,777.87z"/>
<g>
	
		<linearGradient id="SVGID_4_" gradientUnits="userSpaceOnUse" x1="470.8494" y1="731.3121" x2="470.8494" y2="175.8014" gradientTransform="matrix(1 -1.533114e-03 1.533114e-03 1 -2.6952 0.6708)">
		<stop  offset="0" style="stop-color:#ADADFB"/>
		<stop  offset="1" style="stop-color:#FFFFFF"/>
	</linearGradient>
	<polygon class="st5" points="633.42,495.34 633.62,623.89 303.98,218.2 303.78,89.71 	"/>
	
		<linearGradient id="SVGID_5_" gradientUnits="userSpaceOnUse" x1="470.8494" y1="731.3118" x2="470.8494" y2="175.7994" gradientTransform="matrix(1 -1.533114e-03 1.533114e-03 1 -2.6952 0.6708)">
		<stop  offset="0" style="stop-color:#ADADFB"/>
		<stop  offset="1" style="stop-color:#FFFFFF"/>
	</linearGradient>
	<polygon class="st6" points="633.64,638.83 633.71,683.82 304.07,278.2 304,233.21 	"/>
</g>
<g>
	<g>
		
			<linearGradient id="SVGID_6_" gradientUnits="userSpaceOnUse" x1="285.2296" y1="453.5562" x2="308.6007" y2="453.5562" gradientTransform="matrix(1 -1.533114e-03 1.533114e-03 1 -2.6952 0.6708)">
			<stop  offset="0" style="stop-color:#502F88"/>
			<stop  offset="1" style="stop-color:#402679"/>
		</linearGradient>
		<polygon class="st7" points="307.06,753.98 283.69,754.02 282.77,153.56 306.14,153.53 		"/>
		
			<rect x="283.23" y="153.55" transform="matrix(1 -1.533114e-03 1.533114e-03 1 -0.6954 0.443)" class="st8" width="10.79" height="600.46"/>
	</g>
	<g>
		
			<linearGradient id="SVGID_7_" gradientUnits="userSpaceOnUse" x1="404.1022" y1="453.5562" x2="427.4733" y2="453.5562" gradientTransform="matrix(-1 1.533114e-03 1.533114e-03 1 1057.8762 -0.9552)">
			<stop  offset="0" style="stop-color:#502F88"/>
			<stop  offset="1" style="stop-color:#402679"/>
		</linearGradient>
		<polygon class="st9" points="631.56,753.48 654.93,753.45 654.01,152.99 630.64,153.03 		"/>
		
			<rect x="643.68" y="153" transform="matrix(-1 1.533114e-03 -1.533114e-03 -1 1298.8462 905.462)" class="st8" width="10.79" height="600.46"/>
	</g>
</g>
<polygon class="st10" points="855.62,498.32 858.89,508.31 869.39,508.29 860.9,514.48 864.16,524.46 855.66,518.3 847.17,524.49 
	850.4,514.49 841.89,508.33 852.39,508.32 "/>
<polygon class="st10" points="189.52,497.55 193.41,509.47 205.94,509.45 195.81,516.83 199.71,528.75 189.55,521.4 179.42,528.78 
	183.28,516.85 173.12,509.5 185.66,509.48 "/>
<polygon class="st10" points="234.52,252.53 237.78,262.52 248.29,262.5 239.8,268.69 243.06,278.67 234.55,272.51 226.07,278.7 
	229.3,268.7 220.79,262.54 231.29,262.53 "/>
<polygon class="st10" points="771.63,529.02 774.14,536.71 782.24,536.7 775.69,541.47 778.21,549.17 771.65,544.42 765.1,549.19 
	767.6,541.49 761.04,536.73 769.13,536.72 "/>
<path class="st10" d="M781.61,386.53c-0.01,6.19-5.04,11.21-11.23,11.2c-6.2-0.01-11.21-5.04-11.2-11.23
	c0.01-6.19,5.04-11.21,11.23-11.2C776.61,375.3,781.62,380.33,781.61,386.53z"/>
<path class="st10" d="M704.98,395.04c-0.01,4.88-3.97,8.84-8.86,8.83c-4.88-0.01-8.84-3.97-8.83-8.86c0.01-4.88,3.97-8.84,8.86-8.83
	C701.03,386.19,704.98,390.16,704.98,395.04z"/>
<path class="st10" d="M222.94,414.78c-0.01,6.19-5.04,11.21-11.23,11.2c-6.2-0.01-11.21-5.04-11.2-11.23
	c0.01-6.19,5.04-11.21,11.23-11.2C217.94,403.56,222.95,408.59,222.94,414.78z"/>
<path class="st10" d="M185.72,447.86c-0.01,3.85-3.13,6.97-6.99,6.97c-3.85-0.01-6.97-3.13-6.97-6.99c0.01-3.85,3.13-6.97,6.99-6.97
	C182.61,440.88,185.73,444.01,185.72,447.86z"/>
<path class="st10" d="M250.02,462.16c-0.01,7.58-6.17,13.72-13.74,13.7c-7.58-0.01-13.72-6.17-13.7-13.74
	c0.01-7.58,6.16-13.72,13.74-13.7C243.89,448.43,250.03,454.58,250.02,462.16z"/>
<g>
	
		<linearGradient id="SVGID_8_" gradientUnits="userSpaceOnUse" x1="277.3783" y1="846.4762" x2="646.7149" y2="663.3231" gradientTransform="matrix(1 -1.533114e-03 1.533114e-03 1 -2.6952 0.6708)">
		<stop  offset="0" style="stop-color:#8663CE"/>
		<stop  offset="1" style="stop-color:#2B4B83"/>
	</linearGradient>
	<path class="st11" d="M244.18,782.84l453.04-0.69c0,0-24.46-124.01-132.36-148.11c-107.9-24.1-64.58,89.09-194.07,56.93
		C241.29,658.8,244.18,782.84,244.18,782.84z"/>
	
		<linearGradient id="SVGID_9_" gradientUnits="userSpaceOnUse" x1="182.3239" y1="526.8221" x2="649.6163" y2="881.8597" gradientTransform="matrix(1 -1.533114e-03 1.533114e-03 1 -2.6952 0.6708)">
		<stop  offset="0" style="stop-color:#8663CE"/>
		<stop  offset="1" style="stop-color:#2B4B83"/>
	</linearGradient>
	<path class="st12" d="M689.13,782.16l-427.86,0.66c0,0,22.71-135.9,124.54-162.63c101.83-26.74,61.27,97.37,183.47,61.74
		S689.13,782.16,689.13,782.16z"/>
	<g>
		
			<linearGradient id="SVGID_10_" gradientUnits="userSpaceOnUse" x1="56.4415" y1="619.032" x2="284.4752" y2="672.4017" gradientTransform="matrix(0.9979 -0.0642 0.0642 0.9979 -33.0131 27.1333)">
			<stop  offset="0" style="stop-color:#8663CE"/>
			<stop  offset="1" style="stop-color:#88B6F7"/>
		</linearGradient>
		<path class="st13" d="M363.74,745.8c-15.55,18.67-51.36,47.25-75.63,48.36c-19.91,0.91-49.59-12.67-49.66-50.28
			c-0.06-29.6-4.28-39.1-38.28-46.9c-34-7.8-68.83-28.48-48.38-66.81c20.45-38.34-38.99-51.06-16.21-78.29
			c21.83-26.09,31.68-0.86,64.03,8.8c32.36,9.67,39.1-17.28,69.66,4.92c28.98,21.05,11.94,66.81,57.19,66.83
			c32.01,0.02,61.29,8.53,68.9,29.65C403.04,683.38,378.23,728.4,363.74,745.8z"/>
		<path class="st14" d="M280.44,621.72c0.08-2.33-3.54-2.08-3.62,0.23c-0.6,16.89-0.55,33.8,0.08,50.68
			c-23.33-18.09-46.02-37-68.06-56.65c-0.01-0.05,0.01-0.09,0-0.15c-2.16-11.77-1.25-24.01,2.83-35.27
			c0.79-2.17-2.47-3.79-3.26-1.59c-3.85,10.63-5.17,22.04-3.76,33.24c-3.47-3.12-6.97-6.22-10.41-9.38
			c-14.53-13.36-28.86-27-41.78-41.95c-1.51-1.74-4.56,0.23-3.03,1.99c19.97,23.1,42.83,43.83,65.95,63.84
			c-9.71,1.25-19.1,4.22-27.77,8.79c-2.07,1.09-0.06,4.11,1.99,3.03c8.69-4.58,18.24-7.45,28.02-8.46c0.47-0.05,0.8-0.26,1.07-0.52
			c2.3,1.98,4.59,3.96,6.89,5.93c12.32,10.56,24.87,20.86,37.58,30.95c-12.23,3.66-24.35,7.65-36.34,12.04
			c-2.19,0.8-1.05,4.25,1.14,3.44c12.71-4.65,25.56-8.89,38.54-12.72c0.02-0.01,0.03-0.02,0.05-0.02
			c14.03,11.06,28.28,21.83,42.76,32.3c0.02,0.01,0.04,0.03,0.06,0.04c-12.24,3.66-24.37,7.65-36.36,12.04
			c-2.19,0.8-1.05,4.25,1.14,3.44c12.71-4.65,25.56-8.89,38.54-12.72c0.13-0.04,0.21-0.11,0.31-0.17
			c14.79,10.62,29.81,20.93,45.03,30.93c1.94,1.28,3.52-2,1.59-3.26c-9.18-6.03-18.26-12.22-27.29-18.49
			c0.02-0.16,0.05-0.31,0.01-0.51c-2.16-11.77-1.25-24.01,2.83-35.27c0.79-2.17-2.47-3.79-3.26-1.59c-4,11.05-5.25,22.95-3.56,34.57
			c-16.19-11.32-32.12-23.01-47.77-35.06c0.01-0.11,0.05-0.19,0.05-0.31C279.87,657.33,279.81,639.52,280.44,621.72z"/>
	</g>
	<g>
		
			<linearGradient id="SVGID_11_" gradientUnits="userSpaceOnUse" x1="646.3663" y1="787.4775" x2="912.7922" y2="508.4311" gradientTransform="matrix(0.9966 0.0821 -0.0821 0.9966 34.5413 -60.441)">
			<stop  offset="0" style="stop-color:#8663CE"/>
			<stop  offset="1" style="stop-color:#79B6F7"/>
		</linearGradient>
		<path class="st15" d="M818.73,574c0,0,20.59,38.88-15.36,57.3c-35.95,18.42-1.32,41.26-37.29,81.51
			c-35.97,40.25-66.57,84.68-113.29,77.27c-46.71-7.41-83.99-25.95-60.05-55.47c23.94-29.52,47.7-45.22,73.42-79.05
			C691.88,621.73,780.23,548.37,818.73,574z"/>
		<path class="st14" d="M803.58,584.62c-13.8,8.59-25.76,19.04-36.49,30.56c0.84-4.91,1.22-10,1.1-15.3
			c-0.06-2.57-4.68-4.36-4.62-1.76c0.2,8.27-0.75,16.15-2.97,23.48c-0.09,0.29-0.09,0.6-0.03,0.9
			c-20.9,24.35-37.37,52.05-57.04,77.34c-1.3-6.88-2.34-13.72-3.1-20.5c-0.3-2.66-4.88-3.38-4.59-0.73
			c0.95,8.52,2.33,17.1,4.13,25.76c-4.45,5.62-9.03,11.2-14.43,16.01c-6.31,5.61-14.52,8.52-22.18,12.59
			c-14.87,7.89-21.73,23.1-34.95,32.59c-1.94,1.4,1.82,4.85,3.75,3.47c7.7-5.53,13.18-12.95,19.35-19.83
			c5.01-5.59,10.75-9.78,17.43-13.35c0.59,0.3,1.25,0.41,1.87,0.21c8.07-2.69,17.34-2.77,27.28-0.37c2.99,0.72,2.24-3.46-0.72-4.18
			c-5.79-1.4-11.37-1.96-16.65-1.74c11.98-7.32,20.21-18.17,28.49-28.96c10.08-13.15,19.37-26.88,28.9-40.43
			c0.24-0.34,0.48-0.68,0.72-1.01c0.13,0,0.26-0.01,0.39-0.04c8.91-1.79,18.03-3.14,27.38-4.07c2.73-0.27,0.86-4.49-1.86-4.22
			c-7.54,0.75-14.93,1.79-22.19,3.1c17.95-25.05,37.58-49.1,64.77-66.03C809.38,586.81,805.61,583.36,803.58,584.62z"/>
	</g>
	
		<linearGradient id="SVGID_12_" gradientUnits="userSpaceOnUse" x1="605.4398" y1="815.5508" x2="765.0423" y2="559.374" gradientTransform="matrix(1 -1.533114e-03 1.533114e-03 1 -2.6952 0.6708)">
		<stop  offset="0" style="stop-color:#333C8B"/>
		<stop  offset="1" style="stop-color:#4674B7"/>
	</linearGradient>
	<path class="st16" d="M822.97,664.92c-0.33-0.91-0.68-1.76-1.05-2.57l-0.11-0.26l-0.02,0c-8.35-18.01-25.78-11.11-30.2-8.99
		c3.44-5.69,6.76-11.43,10.06-17.13c0.27-0.44,0.29-0.85,0.17-1.22c3.43-2.69,18.08-15.65,5.16-31.31l0-0.03l-0.22-0.25
		c-0.57-0.67-1.16-1.33-1.83-2.01c0,0-0.44,0.33-1.12,1l-0.07,0.06c-3.63,3.47-13.71,15.27-3.72,31.36
		c-0.64-0.01-1.28,0.26-1.67,0.93c-1.74,3.01-3.5,6.02-5.26,9.04c0.94-7.06-0.61-16.24-12.49-21.23l-0.01-0.03l-0.26-0.09
		c-0.82-0.34-1.68-0.66-2.6-0.95c0,0-0.22,0.5-0.52,1.38l-0.04,0.11l0.01,0.01c-1.59,4.72-5.01,19.64,10.86,29.26
		c-3.21,5.3-6.53,10.53-10.03,15.64c0.3-4.26-1-9.06-5.2-14.14l0-0.02l-0.22-0.25c-0.57-0.67-1.17-1.33-1.83-2.01
		c0,0-0.44,0.33-1.1,0.97l-0.1,0.09l0.01,0.01c-3.63,3.49-13.74,15.32-3.65,31.45c-5.39,6.46-11.24,12.5-17.73,17.92
		c-0.63,0.55-1.29,1.01-1.93,1.53c3.17-7.2,4.74-17.94-7.14-26.7l0.01,0l-0.06-0.04c-0.83-0.6-1.71-1.21-2.67-1.8
		c0,0-13.55,17.32,2.28,33.98c-9.69,6.21-20.16,10.31-31.07,12.53c6.56-4.51,14.17-13.19,7.98-27.28l0.01-0.02l-0.12-0.24
		c-0.4-0.88-0.82-1.77-1.33-2.7c0,0-0.51,0.2-1.32,0.62l-0.22,0.12c-4.72,2.51-18.41,11.59-13.21,30.81
		c-10.37,1.18-21.07,0.74-31.87-1.17c-0.02,0-0.04-0.01-0.05-0.01c7.21-3.21,15.74-10.19,12.67-24.77l0.02-0.01l-0.05-0.2
		c-0.21-0.96-0.45-1.94-0.76-2.96c0,0-21.25,3.81-20.97,26.18c-18.24-3.78-36.39-8.6-54.89-7.89c7.48-6.26,17.1-18.61,6.46-35.77
		l0-0.03l-0.24-0.35c-0.62-0.97-1.29-1.97-2.04-2.97c0,0-23.4,13.61-12.76,39.87c-2.02,0.27-4.04,0.6-6.07,1.05
		c-7.95,1.72-15.35,4.86-22.32,8.88c6.17-8.21,11.39-21.43-1.14-36.09l0.01-0.02l-0.24-0.26c-0.83-0.95-1.71-1.91-2.68-2.86
		c0,0-0.65,0.51-1.64,1.49l-0.01,0c-4.99,4.95-18.75,21.66-4.52,43.91c1.48,0.8,2.57,2.2,2.59,3.92
		c14.69,22.31,35.68,16.35,42.24,13.75l0.04-0.01c1.28-0.51,2-0.89,2-0.89c-0.48-1.27-1-2.45-1.54-3.6l-0.15-0.35l-0.03-0.01
		c-8.67-17.86-23.48-17.86-33.5-15.26c8.76-5.07,18.18-8.76,28.5-10.24c0.09,0.18,0.16,0.32,0.25,0.5c0,0,0.48-0.25,1.29-0.74
		c0.54-0.07,1.09-0.1,1.64-0.15c12.11,29.77,40.13,20.22,40.13,20.22c-0.27-1.27-0.59-2.46-0.93-3.59l-0.08-0.3l-0.03-0.01
		c-2.16-7.03-5.61-11.62-9.58-14.54c9.88,1.73,19.66,4.18,29.51,6.2c0.02,0.16,0.03,0.33,0.05,0.49c0,0,0.48-0.06,1.3-0.22
		c0.4,0.08,0.79,0.16,1.18,0.24c0.78,22.07,17.93,25.99,23.48,26.68l-0.01,0l0.02,0c1.07,0.13,1.69,0.15,1.69,0.15
		c0.14-1.04,0.23-2.03,0.29-3l0.02-0.27l-0.01-0.01c0.66-13.16-6.7-19.02-13.68-21.62c4.74,0.63,9.5,1.04,14.32,1.06
		c4.23,0.03,8.34-0.23,12.39-0.7c2.17,19.41,17.96,23,23.23,23.65c0,0.01,0,0.01,0,0.01l0.01-0.01c1.06,0.14,1.69,0.15,1.69,0.15
		c0.15-1.04,0.24-2.03,0.29-3l0.03-0.27l-0.01-0.01c0.7-14.23-7.96-19.93-15.38-22.18c11.35-2.55,21.93-7.09,31.7-13.48
		c0.02,0.02,0.04,0.03,0.05,0.05c4.86,18.25,20.64,19.74,25.88,19.72l0.16-0.01c0.98-0.01,1.55-0.06,1.55-0.06
		c0.01-1.07-0.03-2.09-0.1-3.06l-0.01-0.22l-0.02-0.01c-1.29-16.62-13.82-19.99-21.77-20.45c3.68-2.76,7.24-5.77,10.67-9.07
		c4.24-4.06,8.17-8.4,11.9-12.89c12.2,20.22,31.87,10.4,31.87,10.4c-0.33-0.91-0.68-1.75-1.05-2.56l-0.1-0.27l-0.03-0.01
		c-7.8-16.81-23.46-11.94-29.13-9.49c7.32-9.11,13.76-18.92,19.85-28.93C803.1,674.84,822.97,664.92,822.97,664.92z"/>
	<g>
		
			<linearGradient id="SVGID_13_" gradientUnits="userSpaceOnUse" x1="84.6291" y1="878.5735" x2="259.9624" y2="597.1472" gradientTransform="matrix(-0.9068 0.4217 0.4217 0.9068 137.4548 -15.5156)">
			<stop  offset="0" style="stop-color:#333C8B"/>
			<stop  offset="1" style="stop-color:#4674B7"/>
		</linearGradient>
		<path class="st17" d="M209.78,682.04l0.13-0.17l0.02,0.01c15.25-18.5,33.93-0.31,33.93-0.31c-15.1,15.53-30.09,7.02-34.54,3.87
			l-0.12-0.1c-0.78-0.56-1.2-0.92-1.2-0.92C208.58,683.57,209.19,682.78,209.78,682.04z"/>
		
			<linearGradient id="SVGID_14_" gradientUnits="userSpaceOnUse" x1="47.2155" y1="855.2555" x2="222.5419" y2="573.8404" gradientTransform="matrix(-0.9068 0.4217 0.4217 0.9068 137.4548 -15.5156)">
			<stop  offset="0" style="stop-color:#333C8B"/>
			<stop  offset="1" style="stop-color:#4674B7"/>
		</linearGradient>
		<path class="st18" d="M240.9,718l0.01,0c5.83-12.62,15.89-13.62,23.32-12.22c-8.66-7.33-15.75-16.04-21.31-25.99
			c-0.07,0.01-0.11,0.04-0.16,0.04c0,0-0.06-0.19-0.12-0.53c-3.15-5.7-5.81-11.8-7.97-18.27c-1.83-5.43-3.27-10.95-4.46-16.53
			c-19.69,11.96-32.25-5.41-32.25-5.41c0.7-0.64,1.38-1.21,2.07-1.73l0.21-0.18l0.03,0c14.34-11,25.68,0.29,29.47,4.97
			c-2.21-11.18-3.34-22.58-4.08-33.98c-19.86,12.32-32.55-5.24-32.55-5.24c0.7-0.64,1.38-1.21,2.07-1.75l0.21-0.18l0.02,0.01
			c15.36-11.79,27.31,2.05,30.17,5.88c-0.4-6.47-0.68-12.94-0.95-19.36c-0.04-0.51,0.14-0.87,0.4-1.13
			c-1.75-3.88-8.56-21.71,9.7-29.4l0.01-0.03l0.31-0.11c0.79-0.32,1.6-0.63,2.49-0.91c0,0,0.23,0.49,0.52,1.37l0.03,0.09
			c1.57,4.64,4.94,19.4-10.96,28.79c0.56,0.28,0.99,0.8,1.03,1.56c0.15,3.39,0.3,6.79,0.46,10.2c2.38-6.53,7.87-13.76,20.4-12.7
			l0.02-0.02l0.27,0.04c0.86,0.08,1.75,0.19,2.68,0.35c0,0-0.04,0.53-0.17,1.43l-0.01,0.11l-0.01,0.01
			c-0.76,4.8-4.54,19.24-22.62,20.38c0.38,6.03,0.88,12.06,1.6,18.05c1.66-3.82,4.96-7.38,10.89-9.87l0.01-0.02l0.3-0.12
			c0.79-0.32,1.61-0.62,2.49-0.9c0,0,0.23,0.48,0.52,1.33l0.05,0.12l-0.01,0.01c1.56,4.65,4.95,19.46-11.07,28.84
			c1.74,8.02,4.06,15.89,7.22,23.51c0.3,0.76,0.66,1.46,0.97,2.19c0.52-7.66,4.02-17.65,18.25-19.85l0-0.01l0.07-0.01
			c0.99-0.14,2.02-0.28,3.12-0.34c0,0,3.88,21.1-17.33,28.34c5.57,9.75,12.76,18.02,21.2,24.88c-3.63-6.86-6.29-17.81,5.43-27.19
			l0-0.03l0.21-0.15c0.74-0.58,1.51-1.16,2.37-1.73c0,0,0.35,0.41,0.86,1.14l0.13,0.2c2.95,4.31,10.68,18.34-2.51,32.6
			c8.43,5.71,17.88,10.17,28.08,13.39c0.02,0,0.03,0.01,0.05,0.02c-4.78-6.03-9-15.92,0.25-27.14l-0.01-0.02l0.14-0.15
			c0.61-0.73,1.27-1.47,2-2.22c0,0,16.64,12.9,6.29,32.12c17.48,4.98,35.34,9.02,51.02,18c-3.64-8.8-6.37-23.82,10.59-33.84
			l0.01-0.03l0.36-0.19c0.97-0.56,2-1.12,3.1-1.64c0,0,14.08,22.34-7,40.23c1.63,1.15,3.22,2.35,4.77,3.65
			c6.1,5.08,11.07,11.14,15.28,17.77c-1.63-9.89-0.16-23.67,17.3-30.68l0-0.02l0.33-0.12c1.15-0.45,2.35-0.88,3.61-1.26
			c0,0,0.33,0.74,0.74,2.03l0,0.01c2.08,6.53,6.41,27.2-15.95,40c-1.64,0.02-3.22,0.74-4.01,2.22c-22.79,12.65-38.23-2-42.73-7.21
			l-0.03-0.03c-0.88-1.02-1.32-1.67-1.32-1.67c0.99-0.88,1.97-1.67,2.96-2.41l0.29-0.23l0.03,0.01
			c15.57-11.52,28.38-4.82,35.85,1.96c-5.28-8.34-11.76-15.8-20-21.74c-0.16,0.11-0.28,0.21-0.44,0.32c0,0-0.3-0.44-0.78-1.22
			c-0.44-0.3-0.9-0.58-1.35-0.87c-23.93,20.26-43.83-0.67-43.83-0.67c0.81-0.97,1.62-1.86,2.42-2.68l0.2-0.22l0.03,0
			c5.05-5.1,10.1-7.51,14.86-8.24c-9.32-2.97-18.88-5.27-28.31-7.98c-0.09,0.13-0.17,0.27-0.27,0.4c0,0-0.39-0.27-1.02-0.78
			c-0.38-0.11-0.76-0.22-1.13-0.32c-10.66,18.73-27.25,14.36-32.36,12.45l0,0.01l-0.02-0.01c-0.98-0.37-1.53-0.64-1.53-0.64
			c0.35-0.96,0.72-1.86,1.11-2.72l0.11-0.24l0.01,0c5.38-11.67,14.39-13.42,21.6-12.5c-4.38-1.59-8.68-3.39-12.86-5.55
			c-3.66-1.89-7.11-3.97-10.39-6.2c-10.65,15.8-25.92,11.76-30.78,9.94c-0.01,0.01-0.01,0.01-0.01,0.01l-0.01-0.01
			c-0.98-0.36-1.53-0.64-1.53-0.64c0.35-0.97,0.72-1.86,1.11-2.72L240.9,718z"/>
	</g>
	<g>
		
			<linearGradient id="SVGID_15_" gradientUnits="userSpaceOnUse" x1="232.3727" y1="633.6703" x2="430.7577" y2="633.6703" gradientTransform="matrix(0.9856 -0.1686 0.1686 0.9856 -75.5064 77.0253)">
			<stop  offset="0" style="stop-color:#8663CE"/>
			<stop  offset="1" style="stop-color:#7680F6"/>
		</linearGradient>
		<path class="st19" d="M391.09,800.95c-25.25,5.02-73.79,4.69-94.52-10.58c-17-12.52-32.4-43.49-7.39-74.51
			c19.68-24.42,22.53-35.05-0.27-64.14c-22.8-29.08-37.71-69.32,4.69-87.27c42.39-17.95,1.92-68.04,38.83-75.28
			c35.36-6.94,26.67,20.4,46.87,49.93c20.2,29.53,43.72,11.82,54.1,50.47c9.83,36.65-34.69,62.98,2.56,93.16
			c26.35,21.35,44.8,47.88,36.99,70.34C465.06,775.74,414.62,796.28,391.09,800.95z"/>
		<path class="st14" d="M405.17,643.25c1.62-1.87-1.53-4.07-3.14-2.22c-11.75,13.51-22.98,27.46-33.71,41.8
			c-7.15-30.45-13.24-61.14-18.3-92.01c0.03-0.05,0.07-0.07,0.1-0.12c6.06-11.14,14.97-20.61,25.84-27.17
			c2.09-1.26,0.49-4.76-1.63-3.48c-10.26,6.19-18.95,14.71-25.25,24.87c-0.78-4.89-1.6-9.77-2.32-14.66
			c-3.06-20.69-5.78-41.47-6.46-62.39c-0.08-2.44-3.91-2.85-3.83-0.38c1.06,32.33,6.06,64.64,11.77,96.53
			c-8.84-5.44-18.54-9.25-28.74-11.27c-2.43-0.48-2.79,3.35-0.38,3.83c10.21,2.02,19.99,6.03,28.71,11.7
			c0.42,0.27,0.83,0.32,1.23,0.28c0.57,3.16,1.14,6.32,1.72,9.48c3.11,16.91,6.58,33.76,10.33,50.54
			c-12.51-5.14-25.15-9.93-37.95-14.3c-2.34-0.8-3.7,2.8-1.35,3.6c13.57,4.64,26.98,9.71,40.22,15.21c0.02,0.01,0.03,0,0.05,0.01
			c4.18,18.46,8.75,36.83,13.69,55.09c0.01,0.02,0.01,0.05,0.02,0.07c-12.51-5.14-25.17-9.94-37.97-14.31
			c-2.34-0.8-3.7,2.8-1.35,3.6c13.57,4.64,26.98,9.71,40.22,15.21c0.13,0.05,0.24,0.05,0.37,0.07c5.11,18.61,10.6,37.1,16.47,55.48
			c0.75,2.35,4.23,0.7,3.48-1.63c-3.54-11.09-6.89-22.24-10.15-33.41c0.12-0.12,0.25-0.23,0.35-0.41
			c6.06-11.14,14.97-20.61,25.84-27.17c2.09-1.26,0.49-4.76-1.63-3.48c-10.67,6.44-19.62,15.4-25.97,26.1
			c-5.79-20.11-11.12-40.36-15.98-60.71c0.08-0.08,0.17-0.12,0.25-0.22C380.97,672.19,392.8,657.48,405.17,643.25z"/>
	</g>
	<g>
		
			<linearGradient id="SVGID_16_" gradientUnits="userSpaceOnUse" x1="552.6352" y1="632.0367" x2="726.4748" y2="632.0367" gradientTransform="matrix(0.9668 0.2554 -0.2554 0.9668 140.6417 -120.6938)">
			<stop  offset="0" style="stop-color:#8663CE"/>
			<stop  offset="1" style="stop-color:#7680F6"/>
		</linearGradient>
		<path class="st20" d="M567.37,789.48c-21.95-5.18-60.54-23.08-71.52-42.78c-9.01-16.16-10.03-46.45,21.18-62.1
			c24.57-12.32,30.7-19.76,23.09-51.24c-7.61-31.48-4.87-68.98,35.45-67.88c40.32,1.1,26.26-53.55,58.32-45.92
			c30.72,7.32,13.85,25.96,19.23,56.84c5.38,30.89,30.57,25.32,24.79,59.9c-5.48,32.8-50.55,37.61-31.81,75.21
			c13.26,26.6,18.32,54.45,3.93,69.53C635.51,796.25,587.83,794.3,567.37,789.48z"/>
		<path class="st14" d="M635.91,668.85c1.97-0.9,0.26-3.8-1.69-2.91c-14.28,6.51-28.3,13.55-42.07,21.08
			c5.36-26.88,11.66-53.57,18.85-80.02c0.04-0.03,0.08-0.03,0.13-0.06c8.88-6.68,19.43-10.99,30.48-12.27
			c2.13-0.25,2.12-3.62-0.04-3.37c-10.43,1.21-20.45,4.84-29.17,10.65c1.16-4.18,2.28-8.37,3.48-12.54
			c5.08-17.61,10.47-35.17,17.52-52.1c0.82-1.98-2.08-3.69-2.91-1.7c-10.91,26.17-18.65,53.74-25.69,81.25
			c-5.07-7.55-11.42-14.11-18.82-19.43c-1.76-1.27-3.44,1.66-1.7,2.91c7.41,5.32,13.75,12.07,18.64,19.76
			c0.23,0.37,0.55,0.56,0.88,0.67c-0.69,2.73-1.39,5.46-2.07,8.18c-3.67,14.62-7.02,29.31-10.13,44.05
			c-8.11-8.64-16.45-17.06-25.06-25.2c-1.58-1.49-3.96,0.89-2.39,2.38c9.13,8.63,17.98,17.55,26.55,26.74
			c0.01,0.01,0.03,0.02,0.04,0.03c-3.37,16.24-6.41,32.54-9.11,48.91c0,0.02-0.01,0.04-0.01,0.07
			c-8.11-8.65-16.46-17.07-25.08-25.21c-1.58-1.49-3.96,0.89-2.39,2.38c9.13,8.63,17.98,17.55,26.55,26.74
			c0.08,0.09,0.18,0.12,0.27,0.19c-2.69,16.69-5.03,33.44-7.03,50.23c-0.26,2.14,3.12,2.09,3.37-0.04
			c1.2-10.13,2.59-20.24,4.05-30.33c0.14-0.05,0.28-0.09,0.42-0.2c8.88-6.68,19.43-10.99,30.48-12.27c2.13-0.25,2.12-3.62-0.04-3.37
			c-10.84,1.26-21.24,5.15-30.19,11.37c2.7-18.14,5.8-36.22,9.32-54.22c0.09-0.03,0.18-0.04,0.28-0.09
			C606.09,683.13,620.87,675.7,635.91,668.85z"/>
	</g>
</g>
<g>
	<g>
		<g>
			<g>
				<polygon class="st21" points="578.88,162.61 505.33,162.73 483.6,124.11 541.41,124.02 				"/>
				<polygon class="st21" points="339.96,124.33 284.15,163.06 210.57,163.18 272.37,124.43 				"/>
				<polygon class="st21" points="455.37,124.15 431.56,162.84 357.86,162.95 397.34,124.24 				"/>
				<polygon class="st14" points="397.67,124.24 357.87,162.95 284.13,163.06 339.73,124.33 				"/>
				<polygon class="st14" points="652.68,162.5 578.82,162.61 541.26,124.02 599.01,123.93 				"/>
				<polygon class="st21" points="726.23,162.39 652.58,162.5 598.71,123.93 665.94,123.83 				"/>
				<polygon class="st14" points="483.71,124.11 505.4,162.73 431.56,162.84 455.37,124.15 				"/>
				
					<linearGradient id="SVGID_17_" gradientUnits="userSpaceOnUse" x1="249.7749" y1="205.3899" x2="249.7749" y2="172.5771" gradientTransform="matrix(1 -1.533114e-03 1.533114e-03 1 -2.6952 0.6708)">
					<stop  offset="0" style="stop-color:#502F88"/>
					<stop  offset="1" style="stop-color:#402679"/>
				</linearGradient>
				<path class="st22" d="M284.18,163.06l0.04,24.42c0,0.4,0,0.78-0.03,1.19c-0.51,22.42-16.75,40.43-36.74,40.46
					c-20,0.03-36.31-17.93-36.88-40.34c-0.03-0.4-0.04-0.78-0.04-1.19l-0.04-24.42L284.18,163.06z"/>
				<path class="st23" d="M357.86,162.95l0.04,24.42c0,0.4,0,0.78-0.03,1.19c-0.5,22.42-16.74,40.43-36.74,40.46
					c-20,0.03-36.31-17.93-36.88-40.34c-0.03-0.4-0.03-0.78-0.03-1.19l-0.04-24.42L357.86,162.95z"/>
				
					<linearGradient id="SVGID_18_" gradientUnits="userSpaceOnUse" x1="397.1576" y1="205.3899" x2="397.1576" y2="172.5771" gradientTransform="matrix(1 -1.533114e-03 1.533114e-03 1 -2.6952 0.6708)">
					<stop  offset="0" style="stop-color:#502F88"/>
					<stop  offset="1" style="stop-color:#502F88"/>
				</linearGradient>
				<path class="st24" d="M431.56,162.84l0.04,24.42c0,0.4,0,0.78-0.03,1.19c-0.51,22.42-16.74,40.43-36.74,40.46
					c-19.99,0.03-36.31-17.93-36.89-40.34c-0.03-0.4-0.03-0.78-0.03-1.19l-0.04-24.42L431.56,162.84z"/>
				<path class="st23" d="M505.25,162.73l0.04,24.42c0,0.4,0,0.78-0.02,1.19c-0.51,22.42-16.75,40.43-36.75,40.46
					c-19.99,0.03-36.3-17.93-36.88-40.34c-0.03-0.4-0.03-0.78-0.03-1.19l-0.04-24.42L505.25,162.73z"/>
				
					<linearGradient id="SVGID_19_" gradientUnits="userSpaceOnUse" x1="544.5409" y1="205.3899" x2="544.5409" y2="172.5771" gradientTransform="matrix(1 -1.533114e-03 1.533114e-03 1 -2.6952 0.6708)">
					<stop  offset="0" style="stop-color:#502F88"/>
					<stop  offset="1" style="stop-color:#502F88"/>
				</linearGradient>
				<path class="st25" d="M578.94,162.61l0.04,24.42c0,0.4,0,0.78-0.03,1.19c-0.51,22.42-16.75,40.43-36.74,40.46
					c-20,0.03-36.31-17.93-36.88-40.34c-0.04-0.4-0.04-0.78-0.04-1.19l-0.04-24.42L578.94,162.61z"/>
				
					<linearGradient id="SVGID_20_" gradientUnits="userSpaceOnUse" x1="691.928" y1="205.3899" x2="691.928" y2="172.5771" gradientTransform="matrix(1 -1.533114e-03 1.533114e-03 1 -2.6952 0.6708)">
					<stop  offset="0" style="stop-color:#502F88"/>
					<stop  offset="1" style="stop-color:#502F88"/>
				</linearGradient>
				<path class="st26" d="M726.33,162.39l0.04,24.42c0,0.4,0,0.78-0.03,1.19c-0.51,22.42-16.74,40.43-36.74,40.46
					c-20,0.03-36.31-17.93-36.89-40.34c-0.02-0.4-0.02-0.78-0.02-1.19l-0.04-24.42L726.33,162.39z"/>
				<path class="st23" d="M652.64,162.5l0.04,24.42c0,0.4,0,0.78-0.03,1.19c-0.51,22.42-16.75,40.43-36.75,40.46
					c-19.99,0.03-36.31-17.93-36.88-40.34c-0.03-0.4-0.03-0.78-0.03-1.19l-0.04-24.42L652.64,162.5z"/>
				<path class="st14" d="M210.56,188.78l-0.03,0l0-1.19C210.52,188,210.52,188.38,210.56,188.78z"/>
				<path class="st14" d="M284.21,187.48l0,1.19l-0.03,0C284.22,188.26,284.21,187.88,284.21,187.48z"/>
			</g>
		</g>
		
			<linearGradient id="SVGID_21_" gradientUnits="userSpaceOnUse" x1="308.5961" y1="67.563" x2="308.5961" y2="142.0156" gradientTransform="matrix(1 -1.533114e-03 1.533114e-03 1 -2.6952 0.6708)">
			<stop  offset="0" style="stop-color:#502F88"/>
			<stop  offset="1" style="stop-color:#502F88"/>
		</linearGradient>
		<path class="st27" d="M285.07,87.47c-7.25,0.01-13.11,8.66-13.09,19.32l0.03,18.18l68.18-0.1l-0.06-37.48L285.07,87.47z"/>
		
			<rect x="340.15" y="87.34" transform="matrix(1 -1.533114e-03 1.533114e-03 1 -0.1622 0.5656)" class="st23" width="57.35" height="37.48"/>
		
			<rect x="541.59" y="87.03" transform="matrix(1 -1.533114e-03 1.533114e-03 1 -0.1615 0.8744)" class="st23" width="57.35" height="37.48"/>
		
			<linearGradient id="SVGID_22_" gradientUnits="userSpaceOnUse" x1="515.1283" y1="67.5638" x2="515.1283" y2="142.0133" gradientTransform="matrix(1 -1.533114e-03 1.533114e-03 1 -2.6952 0.6708)">
			<stop  offset="0" style="stop-color:#502F88"/>
			<stop  offset="1" style="stop-color:#502F88"/>
		</linearGradient>
		<polygon class="st28" points="541.3,124.56 483.95,124.65 483.89,87.17 541.24,87.08 		"/>
		
			<linearGradient id="SVGID_23_" gradientUnits="userSpaceOnUse" x1="399.7952" y1="105.9804" x2="457.1435" y2="105.9804" gradientTransform="matrix(1 -1.533114e-03 1.533114e-03 1 -2.6952 0.6708)">
			<stop  offset="0" style="stop-color:#502F88"/>
			<stop  offset="1" style="stop-color:#502F88"/>
		</linearGradient>
		<polygon class="st29" points="454.64,124.69 397.29,124.78 397.23,87.3 454.58,87.21 		"/>
		
			<rect x="454.85" y="87.19" transform="matrix(1 -1.533114e-03 1.533114e-03 1 -0.1618 0.7199)" class="st23" width="29.31" height="37.48"/>
		
			<linearGradient id="SVGID_24_" gradientUnits="userSpaceOnUse" x1="635.4797" y1="67.563" x2="635.4797" y2="142.0156" gradientTransform="matrix(1 -1.533114e-03 1.533114e-03 1 -2.6952 0.6708)">
			<stop  offset="0" style="stop-color:#502F88"/>
			<stop  offset="1" style="stop-color:#502F88"/>
		</linearGradient>
		<path class="st30" d="M655.21,86.9l-56.38,0.09l0.06,37.48l68.18-0.1l-0.03-20.13C667.02,94.65,661.72,86.89,655.21,86.9z"/>
	</g>
	<path class="st31" d="M656.2,3.7L280.12,4.27c-5.38,0.01-9.74,4.38-9.73,9.76l0.11,69.55c0.01,5.38,4.38,9.74,9.76,9.73
		l376.08-0.58c5.38-0.01,9.74-4.38,9.73-9.76l-0.11-69.55C665.95,8.04,661.58,3.69,656.2,3.7z"/>
	
		<linearGradient id="SVGID_25_" gradientUnits="userSpaceOnUse" x1="211.7183" y1="-85.2772" x2="702.5109" y2="168.209" gradientTransform="matrix(1 -1.533114e-03 1.533114e-03 1 -2.6952 0.6708)">
		<stop  offset="0" style="stop-color:#E5C843"/>
		<stop  offset="1" style="stop-color:#FFFFFF"/>
	</linearGradient>
	<path class="st32" d="M660.23,13.43L660.33,83c0,2.18-1.8,4-4.02,4l-376.06,0.58c-2.21,0-4.02-1.8-4.03-3.99l-0.11-69.57
		c0-2.21,1.8-4,4.02-4L656.2,9.45C658.41,9.44,660.22,11.22,660.23,13.43z"/>
	<path class="st33" d="M660.23,13.43L660.33,83c0,2.18-1.8,4-4.02,4l-57.33,0.09c56.6-15.99,59.2-64.46,10.37-58.7
		C355.4,58.32,280.14,10.02,280.14,10.02L656.2,9.45C658.41,9.44,660.22,11.22,660.23,13.43z"/>
	
		<text transform="matrix(1 -1.533114e-03 1.533114e-03 1 367.1277 68.2864)" class="st21 st34 st35" style="text-decoration: underline;">ШТЕРН</text>
</g>
<linearGradient id="SVGID_26_" gradientUnits="userSpaceOnUse" x1="551.395" y1="800.6929" x2="593.0023" y2="800.6929" gradientTransform="matrix(1 -1.533114e-03 1.533114e-03 1 -2.6952 0.6708)">
	<stop  offset="0" style="stop-color:#333C8B"/>
	<stop  offset="1" style="stop-color:#7E71E1"/>
</linearGradient>
<path class="st36" d="M591.53,800.45c0,2.27-9.31,4.12-20.8,4.13c-11.49,0.02-20.81-1.8-20.81-4.07s9.31-4.12,20.8-4.13
	C582.21,796.37,591.53,798.19,591.53,800.45z"/>
<linearGradient id="SVGID_27_" gradientUnits="userSpaceOnUse" x1="644.4297" y1="787.8839" x2="686.037" y2="787.8839" gradientTransform="matrix(1 -1.533114e-03 1.533114e-03 1 -2.6952 0.6708)">
	<stop  offset="0" style="stop-color:#333C8B"/>
	<stop  offset="1" style="stop-color:#7E71E1"/>
</linearGradient>
<path class="st37" d="M684.55,787.5c0,2.27-9.31,4.12-20.8,4.13s-20.81-1.81-20.81-4.07c0-2.27,9.31-4.12,20.8-4.13
	S684.55,785.24,684.55,787.5z"/>
<linearGradient id="SVGID_28_" gradientUnits="userSpaceOnUse" x1="739.4868" y1="800.3559" x2="781.094" y2="800.3559" gradientTransform="matrix(1 -1.533114e-03 1.533114e-03 1 -2.6952 0.6708)">
	<stop  offset="0" style="stop-color:#333C8B"/>
	<stop  offset="1" style="stop-color:#7E71E1"/>
</linearGradient>
<path class="st38" d="M779.63,799.83c0,2.27-9.31,4.12-20.8,4.13c-11.49,0.02-20.81-1.8-20.81-4.07c0-2.27,9.31-4.12,20.8-4.13
	C770.31,795.74,779.62,797.56,779.63,799.83z"/>
<g>
	
		<linearGradient id="SVGID_29_" gradientUnits="userSpaceOnUse" x1="305.904" y1="806.0863" x2="425.4557" y2="806.0863" gradientTransform="matrix(1 -1.533114e-03 1.533114e-03 1 -2.6952 0.6708)">
		<stop  offset="0" style="stop-color:#333C8B"/>
		<stop  offset="1" style="stop-color:#7E71E1"/>
	</linearGradient>
	<path class="st39" d="M424,806.1c0.01,5.37-26.75,9.76-59.76,9.81c-33.01,0.05-59.78-4.26-59.79-9.63s26.75-9.76,59.76-9.81
		C397.22,796.43,423.99,800.74,424,806.1z"/>
	<g>
		<g>
			<path class="st40" d="M307.9,718.38l6.87,85.61c0.01,3.82,14.74,6.89,32.91,6.86c18.17-0.03,32.89-3.14,32.89-6.96l6.61-85.63
				L307.9,718.38z"/>
			<path class="st40" d="M387.17,718.26c0.01,4.59-17.73,8.35-39.63,8.38c-12.76,0.02-24.12-1.24-31.38-3.21
				c-5.18-1.38-8.27-3.15-8.28-5.06c-0.01-4.61,17.74-8.35,39.63-8.38C369.42,709.97,387.17,713.66,387.17,718.26z"/>
			<path class="st41" d="M347.55,724.79c-23.72,0.04-37.41-4.22-37.8-6.42c0.38-2.19,14.06-6.49,37.78-6.52
				c23.72-0.04,37.41,4.22,37.8,6.42C384.95,720.45,371.27,724.75,347.55,724.79z"/>
			<g>
				<g>
					<path class="st42" d="M383.74,692.46l7.57-8.16l3.72-4.01l-0.42,5.24l-0.9,11.31C385.48,697.59,383.74,692.46,383.74,692.46z"
						/>
					<path class="st43" d="M391.32,684.3l3.72-4.01l-0.42,5.24C393.24,685.28,392.16,684.83,391.32,684.3z"/>
					<path class="st43" d="M387.61,697.21c-2.76-1.21-4.49-3.33-3.87-4.74c2.94,4.4,9.97,4.38,9.97,4.38
						C393.1,698.25,390.37,698.41,387.61,697.21z"/>
					<path class="st43" d="M343.46,784.21l6.81-15.51c-0.6,1.41,1.13,3.52,3.87,4.72c2.76,1.21,5.49,1.05,6.11-0.36l-6.82,15.53
						c-0.62,1.41-3.35,1.57-6.11,0.36C344.57,787.74,342.84,785.62,343.46,784.21z"/>
					<path class="st44" d="M350.27,768.7c0-0.01,0-0.01,0.01-0.02l33.47-76.22c-0.62,1.41,1.11,3.53,3.87,4.74
						c2.75,1.21,5.49,1.05,6.11-0.36l-33.47,76.22c-0.62,1.41-3.35,1.57-6.11,0.36C351.4,772.22,349.67,770.11,350.27,768.7z"/>
				</g>
			</g>
			<g>
				
					<linearGradient id="SVGID_30_" gradientUnits="userSpaceOnUse" x1="985.6517" y1="760.057" x2="1056.5133" y2="691.0479" gradientTransform="matrix(-1 1.533114e-03 1.533114e-03 1 1368.519 -1.4314)">
					<stop  offset="0" style="stop-color:#65A7DD"/>
					<stop  offset="1" style="stop-color:#502F88"/>
				</linearGradient>
				<path class="st45" d="M349.78,705.01l-4.28-1.81c-0.45-0.19-0.92-0.28-1.41-0.28l-6.97,0.01c-1.99,0-3.6,1.62-3.6,3.61
					l0.04,25.27c0,1.02,0.44,2,1.2,2.68l1.98,1.77c1.9,1.7,4.91,0.94,5.79-1.45l9.24-25.25
					C352.42,707.77,351.55,705.76,349.78,705.01z"/>
				<path class="st42" d="M342.92,737.95l3.34-0.01c2.47,0,4.47-2.01,4.47-4.48l-0.04-24.48c0-2.47-2.01-4.47-4.48-4.47l-3.34,0.01
					c-2.47,0-4.47,2.01-4.47,4.48l0.04,24.48C338.44,735.95,340.45,737.96,342.92,737.95z"/>
			</g>
			<g>
				<g>
					<path class="st42" d="M350.96,682.86l5.41-9.73l2.66-4.78l0.84,5.19l1.82,11.2C353.88,687.42,350.96,682.86,350.96,682.86z"/>
					<path class="st46" d="M356.37,673.12l2.66-4.78l0.84,5.19C358.47,673.62,357.31,673.43,356.37,673.12z"/>
					<path class="st46" d="M355.85,686.54c-2.97-0.52-5.15-2.17-4.89-3.68c3.9,3.57,10.73,1.87,10.73,1.87
						C361.43,686.25,358.81,687.06,355.85,686.54z"/>
					<path class="st43" d="M333.72,781.56l2.92-16.69c-0.25,1.51,1.94,3.15,4.89,3.66c2.96,0.52,5.58-0.29,5.84-1.81l-2.92,16.71
						c-0.27,1.52-2.88,2.32-5.84,1.81C335.64,784.72,333.46,783.08,333.72,781.56z"/>
					<path class="st46" d="M336.64,764.87c0-0.01,0-0.01,0-0.02l14.32-82c-0.26,1.51,1.92,3.16,4.89,3.68
						c2.96,0.52,5.58-0.29,5.84-1.81l-14.32,82c-0.27,1.52-2.88,2.32-5.84,1.81C338.58,768.02,336.39,766.38,336.64,764.87z"/>
				</g>
			</g>
			<g>
				<g>
					<path class="st42" d="M315.44,701.38l2.24-10.91l1.1-5.36l2.36,4.7l5.1,10.14C319.59,704.85,315.44,701.38,315.44,701.38z"/>
					<path class="st47" d="M317.68,690.47l1.1-5.36l2.36,4.7C319.83,690.31,318.67,690.48,317.68,690.47z"/>
					<path class="st47" d="M321.21,703.42c-2.98,0.4-5.56-0.52-5.77-2.05c4.79,2.23,10.8-1.43,10.8-1.43
						C326.44,701.47,324.19,703.03,321.21,703.42z"/>
					<path class="st47" d="M328.6,800.71l-2.22-16.8c0.22,1.51,2.79,2.42,5.76,2.03c2.98-0.4,5.23-1.95,5.03-3.48l2.23,16.81
						c0.2,1.52-2.05,3.08-5.03,3.48C331.38,803.15,328.8,802.23,328.6,800.71z"/>
					
						<linearGradient id="SVGID_31_" gradientUnits="userSpaceOnUse" x1="317.0624" y1="742.8245" x2="338.6774" y2="742.8245" gradientTransform="matrix(1 -1.533114e-03 1.533114e-03 1 -2.6952 0.6708)">
						<stop  offset="0" style="stop-color:#502F88"/>
						<stop  offset="1" style="stop-color:#502F88"/>
					</linearGradient>
					<path class="st48" d="M326.37,783.91c0-0.01,0-0.01,0-0.02l-10.93-82.52c0.2,1.52,2.78,2.44,5.77,2.05
						c2.98-0.4,5.23-1.95,5.03-3.48l10.93,82.52c0.2,1.53-2.05,3.08-5.03,3.48C329.16,786.33,326.59,785.43,326.37,783.91z"/>
				</g>
			</g>
			<g>
				
					<linearGradient id="SVGID_32_" gradientUnits="userSpaceOnUse" x1="325.7366" y1="769.5557" x2="396.2501" y2="700.8857" gradientTransform="matrix(1 -1.533114e-03 1.533114e-03 1 -2.6952 0.6708)">
					<stop  offset="0" style="stop-color:#65A7DD"/>
					<stop  offset="1" style="stop-color:#502F88"/>
				</linearGradient>
				<path class="st49" d="M359.02,715.04l2.9-1.93c0.56-0.37,1.21-0.57,1.89-0.57l6.87-0.01c1.88,0,3.41,1.52,3.41,3.4l0.04,25.56
					c0,0.97-0.41,1.89-1.13,2.54l-2.02,1.82c-1.85,1.66-4.8,0.85-5.53-1.53l-10.38-25.87C354.63,717,357.77,715.88,359.02,715.04z"
					/>
				
					<linearGradient id="SVGID_33_" gradientUnits="userSpaceOnUse" x1="356.2668" y1="732.5861" x2="368.5597" y2="732.5861" gradientTransform="matrix(1 -1.533114e-03 1.533114e-03 1 -2.6952 0.6708)">
					<stop  offset="0" style="stop-color:#502F88"/>
					<stop  offset="1" style="stop-color:#502F88"/>
				</linearGradient>
				<path class="st50" d="M362.7,749.42l-3.67,0.01c-2.38,0-4.32-1.92-4.32-4.31l-0.04-24.81c0-2.38,1.92-4.32,4.31-4.32l3.67-0.01
					c2.38,0,4.32,1.92,4.32,4.31l0.04,24.81C367.01,747.48,365.08,749.41,362.7,749.42z"/>
			</g>
			
				<linearGradient id="SVGID_34_" gradientUnits="userSpaceOnUse" x1="234.663" y1="670.6901" x2="434.2155" y2="824.3994" gradientTransform="matrix(1 -1.533114e-03 1.533114e-03 1 -2.6952 0.6708)">
				<stop  offset="0" style="stop-color:#E5C843"/>
				<stop  offset="1" style="stop-color:#FFFFFF"/>
			</linearGradient>
			<path class="st51" d="M387.17,718.26l-6.6,85.62c0.01,3.81-14.71,6.94-32.9,6.97c-7.33,0.01-14.11-0.48-19.57-1.34
				c-8.09-1.25-13.32-3.25-13.33-5.53l-6.86-85.6l1.85,0c0.19,0.89,2.59,2.14,7.02,3.32c6.35,1.66,16.82,3.12,30.77,3.1
				c23.73-0.04,37.41-4.35,37.78-6.53L387.17,718.26z"/>
		</g>
		<path class="st52" d="M387.17,718.26l-6.6,85.62c0.01,3.81-14.71,6.94-32.9,6.97c-7.33,0.01-14.11-0.48-19.57-1.34
			c-12.05-14.06,12.41-24.68,29.56-33.73c20.07-10.61,40.13-33.36,11.05-32.79c-24.32,0.48-46.1-14.6-52.55-19.55
			c7.25,1.97,18.61,3.23,31.38,3.21C369.45,726.61,387.18,722.85,387.17,718.26z"/>
	</g>
</g>
<g>
	<g>
		
			<rect x="648.03" y="562.93" transform="matrix(1 -1.533114e-03 1.533114e-03 1 -1.035 1.0036)" class="st53" width="12.19" height="225.29"/>
		<g>
			<polygon class="st53" points="639.62,602.54 565.06,801.22 550.98,801.24 629.05,593.23 			"/>
			<polygon class="st53" points="757.65,800.93 743.57,800.95 668.41,602.5 678.95,593.16 			"/>
		</g>
	</g>
	<g>
		
			<linearGradient id="SVGID_35_" gradientUnits="userSpaceOnUse" x1="382.2555" y1="395.6219" x2="849.6753" y2="692.2532" gradientTransform="matrix(1 -1.533114e-03 1.533114e-03 1 -2.6952 0.6708)">
			<stop  offset="0" style="stop-color:#502F88"/>
			<stop  offset="1" style="stop-color:#502F88"/>
		</linearGradient>
		<path class="st54" d="M762.42,471.97l-217.21,0.33c-7.42,0.01-13.42,6.54-13.41,14.59l0.25,164.33
			c0.01,8.05,6.03,14.56,13.45,14.55l217.21-0.33c7.42-0.01,13.42-6.54,13.41-14.59l-0.25-164.33
			C775.86,478.47,769.84,471.96,762.42,471.97z"/>
		
			<linearGradient id="SVGID_36_" gradientUnits="userSpaceOnUse" x1="879.7791" y1="924.2902" x2="359.7771" y2="94.0585" gradientTransform="matrix(1 -1.533114e-03 1.533114e-03 1 -2.6952 0.6708)">
			<stop  offset="0" style="stop-color:#E5C843"/>
			<stop  offset="0.0333" style="stop-color:#E6CB4C"/>
			<stop  offset="0.2904" style="stop-color:#EFDD8B"/>
			<stop  offset="0.5246" style="stop-color:#F6ECBD"/>
			<stop  offset="0.7284" style="stop-color:#FBF6E1"/>
			<stop  offset="0.8938" style="stop-color:#FEFDF7"/>
			<stop  offset="1" style="stop-color:#FFFFFF"/>
		</linearGradient>
		<polygon class="st55" points="757.6,645.93 550.56,646.25 550.32,486.72 757.36,486.41 		"/>
		<path class="st53" d="M758.02,664.6l-73.14,0.11l-0.04-28.86c-0.01-5.2,4.2-9.41,9.39-9.42l54.33-0.08
			c5.2-0.01,9.41,4.2,9.42,9.39L758.02,664.6z"/>
		<path class="st8" d="M764.67,664.59l-73.14,0.11l-0.04-28.86c-0.01-5.2,4.2-9.41,9.39-9.42l54.33-0.08
			c5.2-0.01,9.41,4.2,9.42,9.39L764.67,664.59z"/>
		<g class="st56">
			<g>
				
					<rect x="556.13" y="491.38" transform="matrix(1 -1.533114e-03 1.533114e-03 1 -0.7618 0.8541)" class="st53" width="1.17" height="11.88"/>
				
					<rect x="562.59" y="491.37" transform="matrix(1 -1.533114e-03 1.533114e-03 1 -0.7618 0.864)" class="st53" width="1.17" height="11.88"/>
				
					<rect x="569.04" y="491.36" transform="matrix(1 -1.533114e-03 1.533114e-03 1 -0.7617 0.8739)" class="st53" width="1.17" height="11.88"/>
				
					<rect x="575.49" y="491.35" transform="matrix(1 -1.533114e-03 1.533114e-03 1 -0.7617 0.8838)" class="st53" width="1.17" height="11.88"/>
				
					<rect x="581.95" y="491.34" transform="matrix(1 -1.533114e-03 1.533114e-03 1 -0.7679 0.8937)" class="st53" width="1.17" height="20.02"/>
			</g>
			<g>
				
					<rect x="588.99" y="491.33" transform="matrix(1 -1.533114e-03 1.533114e-03 1 -0.7617 0.9045)" class="st53" width="1.17" height="11.88"/>
				
					<rect x="595.44" y="491.32" transform="matrix(1 -1.533114e-03 1.533114e-03 1 -0.7617 0.9144)" class="st53" width="1.17" height="11.88"/>
				
					<rect x="601.9" y="491.31" transform="matrix(1 -1.533114e-03 1.533114e-03 1 -0.7616 0.9243)" class="st53" width="1.17" height="11.88"/>
				
					<rect x="608.35" y="491.3" transform="matrix(1 -1.533114e-03 1.533114e-03 1 -0.7616 0.9342)" class="st53" width="1.17" height="11.88"/>
				
					<rect x="614.81" y="491.29" transform="matrix(1 -1.533114e-03 1.533114e-03 1 -0.7678 0.9441)" class="st53" width="1.17" height="20.02"/>
			</g>
			<g>
				
					<rect x="621.84" y="491.28" transform="matrix(1 -1.533114e-03 1.533114e-03 1 -0.7616 0.9548)" class="st53" width="1.17" height="11.88"/>
				
					<rect x="628.3" y="491.27" transform="matrix(1 -1.533114e-03 1.533114e-03 1 -0.7615 0.9647)" class="st53" width="1.17" height="11.88"/>
				
					<rect x="634.75" y="491.26" transform="matrix(1 -1.533114e-03 1.533114e-03 1 -0.7615 0.9746)" class="st53" width="1.17" height="11.88"/>
				
					<rect x="641.21" y="491.25" transform="matrix(1 -1.533114e-03 1.533114e-03 1 -0.7615 0.9845)" class="st53" width="1.17" height="11.88"/>
				
					<rect x="647.67" y="491.24" transform="matrix(1 -1.533114e-03 1.533114e-03 1 -0.7677 0.9944)" class="st53" width="1.17" height="20.02"/>
			</g>
			<g>
				
					<rect x="654.7" y="491.23" transform="matrix(1 -1.533114e-03 1.533114e-03 1 -0.7614 1.0052)" class="st53" width="1.17" height="11.88"/>
				
					<rect x="661.15" y="491.22" transform="matrix(1 -1.533114e-03 1.533114e-03 1 -0.7614 1.0151)" class="st53" width="1.17" height="11.88"/>
				
					<rect x="667.61" y="491.21" transform="matrix(1 -1.533114e-03 1.533114e-03 1 -0.7614 1.025)" class="st53" width="1.17" height="11.88"/>
				
					<rect x="674.06" y="491.2" transform="matrix(1 -1.533114e-03 1.533114e-03 1 -0.7614 1.0349)" class="st53" width="1.17" height="11.88"/>
				
					<rect x="680.52" y="491.19" transform="matrix(1 -1.533114e-03 1.533114e-03 1 -0.7676 1.0448)" class="st53" width="1.17" height="20.02"/>
			</g>
			<g>
				
					<rect x="687.55" y="491.18" transform="matrix(1 -1.533114e-03 1.533114e-03 1 -0.7613 1.0556)" class="st53" width="1.17" height="11.88"/>
				
					<rect x="694.01" y="491.17" transform="matrix(1 -1.533114e-03 1.533114e-03 1 -0.7613 1.0655)" class="st53" width="1.17" height="11.88"/>
				
					<rect x="700.46" y="491.16" transform="matrix(1 -1.533114e-03 1.533114e-03 1 -0.7613 1.0754)" class="st53" width="1.17" height="11.88"/>
				
					<rect x="706.92" y="491.15" transform="matrix(1 -1.533114e-03 1.533114e-03 1 -0.7613 1.0853)" class="st53" width="1.17" height="11.88"/>
				
					<rect x="713.38" y="491.14" transform="matrix(1 -1.533114e-03 1.533114e-03 1 -0.7675 1.0952)" class="st53" width="1.17" height="20.02"/>
			</g>
			<g>
				
					<rect x="720.41" y="491.13" transform="matrix(1 -1.533114e-03 1.533114e-03 1 -0.7612 1.106)" class="st53" width="1.17" height="11.88"/>
				
					<rect x="726.86" y="491.12" transform="matrix(1 -1.533114e-03 1.533114e-03 1 -0.7612 1.1158)" class="st53" width="1.17" height="11.88"/>
				
					<rect x="733.32" y="491.11" transform="matrix(1 -1.533114e-03 1.533114e-03 1 -0.7612 1.1257)" class="st53" width="1.17" height="11.88"/>
				
					<rect x="739.77" y="491.1" transform="matrix(1 -1.533114e-03 1.533114e-03 1 -0.7611 1.1356)" class="st53" width="1.17" height="11.88"/>
				
					<rect x="746.23" y="491.09" transform="matrix(1 -1.533114e-03 1.533114e-03 1 -0.7674 1.1455)" class="st53" width="1.17" height="20.02"/>
			</g>
		</g>
		<g class="st56">
			<path class="st57" d="M722.01,533.67c-1.45,0-2.76,0.84-3.49,2.11l-58.26,0.09l0-2.1l-8.53,0.01l0,2.1l-58.26,0.09
				c-0.74-1.27-2.05-2.1-3.5-2.1c-2.28,0-4.12,2-4.12,4.46c0,2.45,1.86,4.45,4.13,4.44c1.45,0,2.76-0.84,3.49-2.11l35.19-0.05
				c-7.78,3.09-14.29,7.68-19.46,13.74c-8.76,10.26-11.5,22.28-12.35,29.52l-2.07,0l0.01,8.9l8.25-0.01l-0.01-8.9l-1.59,0
				c0.84-6.66,3.42-17.32,11.18-26.42c8.77-10.28,21.92-15.91,39.1-16.74l0,1.98l8.53-0.01l0-1.98
				c17.18,0.78,30.34,6.37,39.15,16.62c7.79,9.07,10.4,19.72,11.26,26.38l-1.59,0l0.01,8.9l8.25-0.01l-0.01-8.9l-2.07,0
				c-0.87-7.24-3.65-19.24-12.44-29.48c-5.19-6.04-11.71-10.61-19.5-13.68l35.19-0.05c0.74,1.27,2.05,2.1,3.5,2.1
				c2.28,0,4.12-2,4.12-4.46C726.14,535.65,724.29,533.66,722.01,533.67z"/>
			
				<ellipse transform="matrix(1 -1.405889e-03 1.405889e-03 1 -0.817 0.9235)" class="st57" cx="656.49" cy="581.57" rx="23.07" ry="23.3"/>
		</g>
	</g>
</g>
<path class="st58" d="M605.96,471.27c0,0-11.65,24.29-37.69,39.61c0,0-2.6,61.13-37.59,107.92l13.27-139.35l39.54-7.25
	L605.96,471.27z"/>
<g>
	<path class="st59" d="M533.65,799.43c-0.46-1.79-2.13-2.34-3.47-2.91c-7.06-3.04-12.83-7.68-17.68-13.57
		c-0.3-0.37-0.7-0.66-1.16-1.08c-0.47,1.53,0.78,2.83,0.02,4.17c-6.61-6.43-14.09-11.73-21.87-16.65c-1.74-1.1-3.59-1.68-5.52-1.9
		c-10-1.15-20-2.01-30.09-0.73c-3.31,0.42-6.71,0.12-10.07,0.1c-0.67,0-1.74,0.23-1.11-1.21c0.35-0.81-0.51-0.66-0.86-0.58
		c-4.45,1.02-8.2-1.47-12.25-2.42c-0.58-0.14-1.14-0.32-1.71-0.49c-0.73,0.59-1.49,0.3-2.23,0.04c-4.64-1.61-9.27-3.26-13.82-5.12
		c-4.03-1.65-6.87-4.38-7.45-8.75c-0.31-2.31-2.39-2.86-3.28-4.49c2.63,0.3,2.99-0.66,2.22-3.1c-0.62-1.97-0.41-4.21-0.6-6.83
		c-0.67,2.23-1.2,3.98-1.82,6.02c-2.55-5.94-0.86-11.47,0.94-16.72c4.01-11.67,5.93-23.97,10.8-35.37c0.23-0.53,0.24-1.15,0.35-1.73
		c1.45-6.28,4.35-12.04,6.44-18.1c0.29-0.85,1.19-1.45-0.51-2.32c-1.22-0.62-0.12-2.56,0.58-3.71c1.5-2.44,3.25-4.72,4.7-7.2
		c3.48-5.98,5.44-12.1,3.65-19.22c-1.36-5.42-2.09-11.03-2.26-16.74c-0.03,1.18-0.36,2.01-1.61,0.95c-0.71-0.6-1.05-1.45-1.22-2.33
		c-0.89-4.79-1.2-9.58,0.11-14.35c0.9-1.39,1.85-0.47,2.77-0.04c3.46,1.61,6.6,3.79,10.03,5.45c7.8,3.83,15.86,7.11,23.68,10.91
		c7.67,3.72,15.24,7.52,22.2,12.47c0.48,0.34,1.01,0.63,1.52,0.92c2.86,1.66,3.7,1.47,5.03-1.47c1.39-3.06,2.89-6.08,4.12-9.2
		c5.76-14.54,10.44-29.45,14.16-44.63c1.03-4.2,1.62-8.53,2.34-12.82c2.46-10.12,5.37-20.11,8.66-29.99
		c0.56-1.68,1.01-3.39,1.6-5.06c0.54-1.54,0.79-3.3,2.48-4.19c1.06-0.23,1.67,0.47,2.18,1.18c2.11,2.95,4.41,5.73,6,9.06
		c3.32,7.02,7.16,13.74,12.6,19.37c0.97-1.2,0.23-3.88,3.01-3.48c0.86,0.39,1.41,1.1,1.79,1.91c0.75,1.63,1.52,2.68,2.96,0.54
		c1.38-2.06,2.41-0.87,3.34,0.45c2.21,3.15,4.48,6.23,7.84,8.34c-1.42-2.96,1.3-5,1.77-7.56c0.2-1.11,1.43-0.53,2.04,0.28
		c1.12,1.49,2.25,2.97,3.1,4.75c0.1-4.95,2.16-9.17,4.4-13.37c0.85-1.59,2.23-3.24,0.37-5.29c-0.81-0.9,1.59-6.94,2.67-7.57
		c0.94,2.63,1.49,5.42,3.04,7.81c1.09,1.86,0.96,4.05,1.65,6.02c2.68,6.03,4.65,12.36,7.65,18.27c5.37,10.58,12.3,11.16,21.06,9.73
		c1.75-0.29,2.78-1.81,3.79-3.14c2.52-3.3,3.91-7.02,4.13-11.2c0.05-1.04-0.38-2.47,1.34-2.77c1.8,3.19,1.49,6.61,0.32,9.75
		c-3.65,9.79-12.98,16.56-23.98,14.06c-0.18-0.04-0.39,0.03-0.8,0.06c0.06,5.1,3.01,9.55,3.69,14.81c-2.33-0.67-2.99-2.69-4.76-3.98
		c0.63,5.46,2.32,10.3,3.35,15.28c2.82,13.71,7.32,27.07,8.78,41.06c0.57,5.48,0.91,10.96,0.81,16.52
		c-0.09,5.68,0.57,11.41,1.04,17.1c0.61,7.45,0.26,14.75-0.66,22.12c-1.12,8.9-1.52,17.89-3.01,26.75
		c-1.44,8.56-2.81,17.13-5.03,25.55c-3.38,12.83-10.51,23.07-20.83,31.22c-1.03,0.82-2.03,1.58-1.89,3.09
		c-1.95,0.99-3.58,2.42-5.28,3.75c-0.54,0.43-1.03,0.92-1.62,1.28c-1.12,0.69-2.52,1.5-3.51,0.43c-1.06-1.16,0.52-2.02,1.12-2.93
		c0.32-0.48,0.78-0.88,0.83-0.92c-1.98,2.33-4.35,5-7.52,6.83c-1.95,1.12-3.79,1.72-6.13,1.41c-3.9-0.52-7.85-0.57-11.49-2.36
		c-0.28-0.14-0.67-0.65-0.97-0.18C538.25,803.23,535.97,800.07,533.65,799.43"/>
	<path class="st60" d="M542.18,555.92c-5.42-4.94-8.91-11.27-12.11-17.67c-2.27-4.55-5.07-8.64-8.09-12.65
		c-2.1-0.49-3.06-2.08-3.65-3.92c-2-6.25-3.49-12.57-2.19-19.21c0.25-1.26,0.21-2.57,0.03-3.84c-0.96-6.43,0.15-12.78,0.61-19.16
		c0.14-1.97,0.79-3.52,2.73-4.3c1.35-5.61,2.35-11.24,2.03-17.03c-0.08-1.49,0.01-2.97,0.84-4.3c1.82-11.12,3.73-22.13-1.15-33.15
		c-2.1-4.73-2.97-10-5.78-14.52c-0.22-0.35-2.37-2.63,0.8-2.66c0.35,0,0.02-0.88-0.24-1.27c-0.82-1.24-1.74-2.41-2.48-3.68
		c-0.37-0.63-1.65-1.47,0.37-2.03c0.88-0.24,0.05-1.56-0.22-2.31c-2.36-6.6-5.45-12.93-7.05-19.8c-0.45-1.94-0.75-3.86-0.82-5.85
		c-0.05-1.55,0.46-2.74,1.82-3.44c1.44-0.74,2.91-0.67,4.14,0.46c1.82,1.67,3.58,3.41,5.37,5.11c12.74,12.09,22.7,26.21,31.5,41.36
		c5.96,10.27,8.48,21.35,10.37,32.76c0.09,0.56,0.21,1.12,0.33,1.76c1.86-0.67,0.89-3.03,2.84-3.96l0.02,15.33
		c0.03,3.82,1.48,7.44,1.61,11.25c0.12,0.31,0.2,0.63,0.26,0.95c0.38,2.06-0.16,4.19,0.52,6.23c1,10.1,2.61,20.11,4.34,30.11
		c0.93,5.37,2.86,10.44,4.28,15.67c0.63,2.32,0.92,4.62,0.14,6.83c-0.33,0.44,0.4,0.37,0.02,0.25c-0.07-0.02-0.01-0.1,0.07-0.28
		c0.3-0.65,0.66-1.22,1.51-1.19c2.01,1.68,1.26,3.73,0.77,5.75c-0.13,0.12-0.26,0.24-0.39,0.36c-0.54,1.87-1.2,3.73-1.48,5.64
		c-0.04,0.3-2.97,2.92,0.81,2.11c0.03-0.01,0.25,0.51,0.23,0.76c-0.04,0.49-0.15,0.98-0.32,1.44c-2.29,6.02-6.29,11.43-6.29,18.37
		c-0.99-2.86-3.11-4.71-4.45-7.09c-1.09,0.54-0.69,1.56-0.96,2.32c-0.31,0.86,1.05,2.56-1.3,2.55c-0.52,0-0.33,1.24-0.06,1.86
		c0.38,0.86,0.89,1.66,1.12,2.66c-4.86-2.66-8.12-6.87-11.23-11.47c-0.49,0.83-0.81,1.53-1.27,2.13c-1.49,2-2.21,1.93-3.1-0.34
		c-0.45-1.14-1.14-2.05-1.99-2.88c-1.65-0.72-1.93,0.16-2.04,1.57C542.93,554.31,543.81,555.59,542.18,555.92"/>
	<path class="st60" d="M413.82,569.19c-3.53-4.27-5.98-9.21-8.59-14.28c-0.17,0.66-0.29,1.12-0.47,1.8
		c-0.99-0.62-1.59-1.47-1.68-2.49c-0.68-7.83-6.28-12.88-10.52-18.69c-4.87-6.68-8.96-13.72-10.24-22.07
		c-0.96-1.7,0.26-2.56,1.36-3.39c8.09-6.13,16.3-12.08,25.48-16.55c0.26-0.14,0.53-0.25,0.8-0.35c5.26-2.03,10.48-4.15,15.92-5.69
		c2.06-0.58,3.37-1.82,4.3-3.74c2.49-5.16,4.39-10.57,7.5-15.46c3.7-5.85,7.6-11.56,11.3-17.42c0.59-0.71,1.36-1.19,2.11-1.69
		c3.18-1.65,6.55-2.77,10.01-3.7c3.21-0.48,6.41-1.01,9.56-1.84c6.09-1.61,12.24-1.84,18.44-0.71c3.85,1.81,6.68,4.84,9.48,7.92
		c0.67,0.73,1.51,1.71,1.36,2.56c-0.36,2.02,1.16,2.67,2.17,3.73c5.88,4.45,9.17,10.93,13.21,16.83c0.67,0.98,1.04,2.11,1.26,3.29
		c-0.01,4.28-2.16,7.97-3.41,11.89c-1.89,5.94-4.24,11.71-6.95,17.34c-0.56,1.17-1.02,2.38-2.41,2.81
		c-1.47-0.21-2.09-1.37-2.72-2.49c-1.01-1.81-2-3.64-2.91-5.51c-1.22-2.51-3.23-4.16-5.62-5.52c-2.15-1.22-2.07-1.76,0.14-3.04
		c-1.92-1.73-4-3.23-5.98-4.86c-2.41-1.99-5.03-3.58-6.41-6.77c-1.04-2.41-3.79-3.65-6-5.17c-5.94-4.1-12.4-6.5-19.72-6.23
		c-0.3,0.01-0.64,0.11-0.88-0.03c-5.17-3.06-8.73,0.4-11.58,3.59c-8.27,9.26-9.09,19.03-3.18,29.92c0.71,1.31,1.23,2.7,1.79,4.07
		c1.19,2.95,3.25,4.64,6.5,4.77c6.76,0.28,11.54,4.34,16.06,8.68c2.56,2.46,2.21,4.56-0.73,8.13c-0.57,0.69-1.2,1.35-1.98,1.78
		c-1.31,0.73-2.82,1.24-1.41,3.21c0.36,0.51-0.21,1.1-0.68,1.5c-0.46,0.38-0.94,0.77-1.48,0.98c-4.64,1.89-8.65,4.59-11.72,8.64
		c-0.71,0.93-1.79,1.71-3,0.45c-0.2-0.21-0.55-0.38-0.81-0.29c-3.44,1.24-5.9-1.73-8.97-2.08c-1.51-0.18-2.14-1.3-2.37-2.67
		c-0.86-5.15-3.27-10.01-2.81-15.4c0.1-1.21-0.38-2.35-1.05-3.35c-4.11-6.12-9.8-10.28-16.63-12.81
		c-3.41-1.27-11.13,2.55-13.26,6.23c-0.59,1.03-1.18,2.08-1.56,3.2c-0.46,1.38-1.9,2.87,0.38,4.09c0.43,0.23,0.38,1.09,0.37,1.69
		c-0.16,5.7,2.54,10.29,5.83,14.58c1.87,2.43,3.71,4.88,5.35,7.51c0.46-0.56-0.15-1.78,1.03-1.8c0.77-0.01,1.18,0.65,1.52,1.26
		c0.68,1.22,1.02,2.58,1.31,3.93c0.57,2.65,1.62,5.11,3.14,7.32c0.54,0.79,0.7,3.1,2.8,1.21c0.64-0.58,1.49,0.69,1.88,1.46
		c0.99,1.95,2.12,3.81,3.6,5.42c1.1,1.2,1.74,3.37,4.15,1.88c0.43-0.27,1.13,0.29,1.53,0.73c0.94,1.03,1.78,1.48,3.44,1.44
		c2.74-0.07,1.1,2.24,1.2,3.59c-0.15,0.47-0.39,0.88-0.81,1.16c-4.5,1.14-8.95,0.09-13.35-0.55
		C416.18,572.85,414.55,571.32,413.82,569.19"/>
	<path class="st60" d="M423.42,603.06c-1.38,5.37-0.6,14.1,1.65,16.99c0.1-1,0.18-1.82,0.27-2.65c0.12-0.01,0.24-0.02,0.36-0.04
		c1.31,8.15,3.16,16.26,3.74,24.46c0.4,5.58-2.86,10.55-5.73,15.32c-1.66,2.75-4.04,5.09-4.94,8.75c1.1-0.64,1.87-1.08,3.2-1.86
		c-3.42,7.62-5.54,15.11-9,22.07c-0.27-0.46,0.1-2.23-1.18-0.69c-1.94,2.33-3.73,4.78-5.6,7.18c-0.44,0.57-0.68,1.5-1.66,0.28
		c-0.73-0.91-1.2,0.39-1.66,0.78c-15.31,13.01-33.1,20.92-52.47,25.57c-1.93,0.46-4.05,1.01-5.68-1.16c-1.5-1.99-0.8-3.23,0.75-4.79
		c6.51-6.5,14.11-11.83,20.3-18.64c12.87-14.17,24.69-29.07,31.67-47.22c0.78-2.02,1.87-3.91,2.81-5.87
		c0.03-0.06-0.07-0.18-0.14-0.36c-0.78,0.86-1.54,1.7-2.29,2.54c2.81-9.11,8.6-16.89,10.76-26.48c-0.79,0.31-1.43,0.57-2.08,0.83
		c4.16-6.2,7.39-12.68,9.12-19.86C418.32,598.11,422.29,600.57,423.42,603.06"/>
	<path class="st61" d="M394,431.43c3.14-2.06,6.17-4.31,9.6-5.91c5.6-0.26,11.18-0.8,16.62,1.41c2.49,1.01,4.89,2.2,7.04,3.69
		c6.55,4.53,13.13,9.06,18.89,14.62c1.13,1.09,2.34,2.17,2.37,3.93c-0.24,1.14-1.21,1.46-2.1,1.89c-9.9,4.77-20.24,8.42-30.52,12.22
		c-0.93,0.34-1.96,0.55-2.7,1.19c-4.03,3.46-9.17,4.03-13.98,5.32c-2.79,0.75-5.71,0.55-7.96-2.63c0.52,1.21,0.74,2.1,0.52,3
		c-0.3,1.2-0.99,1.87-2.08,0.86c-0.96-0.88-3.12-0.57-2.77-2.91c0.07-0.5-2.14,0.29-2.19-1.36c0.45-2,0.55-3.67-1.79-4.88
		c-1.44-0.75-2.07-2.57-2.13-4.35c0.67-3.88,2.4-7.53,2.56-11.53c0.05-1.23,0.71-2.17,1.48-3.14c2.86-3.64,5.71-7.28,8.97-10.59
		C394.02,432.06,394.03,431.73,394,431.43"/>
	<path class="st62" d="M580.62,437.15c2.55-5.75,5.09-11.51,7.64-17.26c2.31-2.24,2.78-5.54,4.71-8.03
		c1.48-1.91,2.91-3.76,5.36-4.43c5.01-1.37,9.52,1.35,10.6,6.71c2.12,10.61,2.46,21.17-1.36,31.56
		c-2.67,7.26-6.83,13.56-11.91,19.31c-1.18,1.33-2.53,2.52-3.53,4c-2.04,3-5.32,3.96-8.41,5.25c-0.98,0.41-1.95,0.19-2.69-0.67
		c-0.72-1.15-0.48-2.46-0.62-3.72c-0.31-2.77-1.29-5.14-3.97-6.43c-2.63-1.27-4.62,0.11-6.75,1.48c-2.28,1.46-3.67,4.01-6.33,4.93
		l0-0.01c-0.76-1.84,0.09-3.26,1.29-4.51c6.91-7.27,11.1-16.17,15.15-25.16C580.24,439.22,580.97,438.33,580.62,437.15"/>
	<path class="st61" d="M385.23,466.4c0.16,0.51,0.11,1.4,1.02,0.85c0.71-0.43,1.19-1.31,2.21-1.01c0.42,0.78-0.27,1.1-0.53,1.57
		c-0.68,1.23-0.89,2.16,1.06,1.54c1.63-0.52,0.55,1.51,1.77,1.47c1.89-1.69-1.28-3.31-0.54-5.03c1.02-0.23,1.53,0.52,1.77,0.99
		c1.62,3.14,4.36,2.76,7.07,2.34c6.58-1,12.14-4.7,18.22-7.03c9.9-3.8,19.83-7.51,29.48-11.9c0.52-0.24,0.96-0.65,1.44-0.99
		c1.43-0.04,1.7,0.69,1.24,1.89c-2.15,4.44-5.18,8.33-7.91,12.4c-4.37,6.5-7.72,13.49-10.73,20.67c-0.87,2.07-2.23,3.27-4.39,3.97
		c-5.6,1.81-11.14,3.82-16.71,5.74c-0.9-1.45,0.41-1.9,1.2-2.48c0.87-0.64,2.04-0.73,2.89-1.29c-0.27,0.09-0.59,0.28-0.94,0.4
		c-1.25,0.43-2.65,0.83-3.41-0.61c-0.68-1.3,0.36-2.22,1.29-2.99c0.91-0.76,1.85-1.48,2.88-2.09c0.34-0.2,0.75-0.33,1.03-0.59
		c3.86-3.55,7.24-7.52,9.38-12.34c0.78-1.76,0.32-3.79-1.12-5.25c-1.36-1.38-2.92-0.48-4.46-0.16c-8.05,1.67-13.95,7.25-20.69,11.28
		c-1.54,0.92-2.37,2.65-3.79,3.75c-0.73,0.56-0.85,1.37-0.33,2.11c1.36,1.93,1.05,3.69-0.38,5.41c-0.7,0.84-0.41,1.65,0.21,2.41
		c1.28,1.58,2,3.36,2.22,5.4c0.19,1.77,1.19,2.12,2.7,1.21c2.44-1.49,5.24-2.32,7.56-4.08c1.14-0.87,2.49-1.28,3.78-0.1
		c-8.46,4.46-16.35,9.81-24,15.51c-1.42,1.06-3.4,1.8-3.41,4.1c-1.18-0.95-1.75,0.22-2.44,0.75c-4.3,3.3-7.51,7.48-9.96,12.28
		c-1.94,0.16-2.1-0.86-1.71-2.42c1.07-4.28,3.47-7.78,6.68-10.64c3.9-3.47,6.78-7.41,7.44-12.72c0.09-0.69,0.35-1.44-0.1-2.01
		c-1.64-2.13-1.05-4.24-0.21-6.45c0.72-1.92-0.77-6.92-2.56-7.9c-3.47-1.9-3.45-5.38-4.25-8.52c-0.27-1.08,0.54-2.37-0.65-3.27
		c-0.93-11.03,0.11-21.66,7.15-30.78c3.31-4.29,7.73-7.46,12.3-10.35c0.58,0.12,1.32,0.19,0.6,1.02c-2.13,2.47-4.51,4.76-6.38,7.41
		c-1.77,2.52-4.43,4.4-4.39,8.28c0.03,3.16-1.61,6.33-2.5,9.5c-1.56-0.14-1.28-1.81-2.11-2.63c-3.75,7.12-3.78,13.56,3.38,18.83
		c0.34-1.35,0.06-3.03,0.61-4.53C383.64,468.16,383.57,466.68,385.23,466.4"/>
	<path class="st62" d="M563.36,469.85c1.69-2.32,3.93-4.05,6.16-5.79c2.32-1.8,4.83-2.76,7.6-1.28c2.75,1.46,3.82,4.07,4.08,7.04
		c0.1,1.17,0.04,2.35,0.05,3.53c0.42,1.46,1.15,2,2.81,1.54c3.5-0.96,7.07-0.85,10.56,0.1c2.37,0.65,4.18,0.09,5.92-1.61
		c12.67-12.37,18.77-27.49,18.31-45.06c-0.25-9.5-4.51-17.49-11.53-23.96c-1.47-1.35-3.12-1.31-4.98-1.14
		c-1.3,0.12-3.02,1.61-4.05-0.59c5.34-3.41,10.35-2.19,14.51,1.77c6.39,6.08,9.68,13.43,10.14,22.55
		c0.59,11.59-0.98,22.62-5.54,33.16c-3.21,7.42-6.98,14.63-12.12,20.97c-1.89,2.33-0.7,4.71-0.2,7.04c0.21,0.98,1.34,0.6,2.07,0.6
		c3.06-0.01,6.05-0.74,9.14-0.61c4.53,0.18,8.87,1.43,11.83,4.63c3.04,3.29,4.07,7.84,3.36,12.45
		c-2.57,16.54-12.9,26.21-28.08,31.56c-0.46,0.16-0.92,0.32-1.38,0.5c-0.07,0.03-0.1,0.16-0.21,0.34
		c4.43,4.51,9.57,8.43,12.78,14.08c-0.17,1.32-0.94,0.59-1.38,0.32c-1.28-0.77-2.33-1.86-3.26-3c-2.15-2.66-5.11-3.97-8.13-5.21
		c-1.35-0.56-2.75-0.82-3.84,0.43c-4.69,5.36-10.46,6.25-16.98,4.23c-0.46-0.14-0.96-0.23-1.46-0.26c-1.12-1.83-0.28-4.25-1.79-5.96
		c1.54-0.9,2.84,0.23,4.23,0.52c4.64,0.95,9.02,1.16,12.4-3.12c1.36-1.73,1.76-3.43,1.08-5.5c-1.61-4.93-4.62-8.66-9.21-11.1
		c-0.52-0.28-1.07-0.52-1.57-0.84c-2.7-1.73-2.63-3.47,0.24-4.99c8.19-4.35,13.32-11.21,16.18-19.88c0.95-2.87,1.1-5.86,0.35-8.78
		c-1.54-5.97-8.53-9.6-15.4-8.14c-2.04,0.43-3.91,1.38-5.9,1.97c-1.22,0.36-2.54,0.99-3.65-0.05c-1.1-1.02-0.68-2.39-0.34-3.63
		c0.75-2.69,1.23-5.39,0.67-8.19c-0.34-1.74-0.93-3.3-2.8-3.83c-1.79-0.5-3.27,0.24-4.57,1.47c-1.82,1.73-3.06,3.86-4.22,6.05
		c-0.41,0.77-0.52,1.72-1.32,2.27C563.47,474.26,563.17,472.08,563.36,469.85"/>
	<path class="st61" d="M460.64,446.25c-3.17,1.1-6.4,2.08-9.39,3.63c-1.29,0.61-1.77-0.51-2.37-1.2
		c-7.47-8.49-16.57-14.89-26.3-20.44c-4.28-2.44-9.12-3.01-14.03-2.83c-1.13,0.04-2.38,0.53-3.31-0.61
		c7.23-4.58,15.03-7.84,23.33-9.92c3.83,0.14,7.57-0.88,11.43-0.77c4.47,0.13,8.86,0.66,13.22,1.56c5.47,1.13,8.95,5.26,12.81,8.71
		c3.04,2.72,4.93,6.36,6.78,10.01c2.41,4.74-0.71,8.32-5.39,10.21C465.32,445.46,462.91,445.7,460.64,446.25"/>
	<path class="st60" d="M401.08,743.84c2.76,0.25,3.77,1.93,4.06,4.52c0.43,3.79,2.87,6.03,6.22,7.56
		c5.36,2.46,10.93,4.35,16.51,6.23c-1.97,2.45-3.64,4.91-4.44,8.15c-1.2,4.84-5.21,5.59-9.36,1.94c-6.7-5.9-14.76-8.98-23.12-11.5
		c-4.16-1.26-8.19-0.41-12.27,0.53c-5.38,1.25-6.07,0.95-9.18-3.7c-0.67-1.01-1.44-0.77-2.3-0.72c-2.71,0.16-5.22-0.34-6.58-2.98
		c-1.46-2.84-0.42-5.46,1.39-7.69c4.76-5.89,11.37-7.68,18.53-7.43C387.69,739,394.56,740.82,401.08,743.84"/>
	<path class="st63" d="M501.64,457.43c-1.64-1.17-1.44-1.23-2.06-3.3c-0.75-2.52-2.78-4.28-4.61-6.04
		c-1.63-1.56-3.51-2.85-5.28-4.26c-2.16-1.68-3.27-4.19-4.88-6.29c-3.02-3.96-6.36-7.53-10.28-10.59c-0.86-0.67-2.2-1.12-2.03-2.65
		c-0.53-4.13-2.24-8.07-1.79-12.35c0.14-1.36,0.04-2.74,1.13-3.8c0.3-0.02,0.69,0.01,0.85-0.19c2.55-3.36,5.77-2.82,9.34-2.04
		c5.16,1.12,9.77,2.96,13.33,7.03c1.36,1.56,3.24,2.57,4.66,4.1c1.15,1.24,2.33,2.52,2.91,4.07c3.14,8.48,6.9,16.81,6.66,26.17
		c-0.07,2.6-0.52,5.09-1.1,7.58C507.4,459.48,505.54,460.18,501.64,457.43"/>
	<path class="st64" d="M533.65,799.43c1.36-0.31,2.47,0.4,3.67,0.83c2.61,0.94,3.05,0.54,2.51-2.42c4.77,3.18,10.21,3.38,15.46,3.57
		c3.05,0.11,5.46-2.58,7.77-4.54c2.04-1.74,3.74-3.89,5.84-5.63c-0.62,2.61-3.23,3.78-4.35,6.36c3.66,0.06,5.22-2.95,7.68-4.36
		c0.92-0.53,1.48-2.1,2.97-1.04c1.17,3.8,2.7,7.38,5.32,10.48c2.2,2.6,2.1,5.89,0.09,8.13c-1.97,2.18-5.15,2.46-8.13,0.85
		c-2.63-1.42-5-3.12-7-5.39c-0.96-1.09-2.08-2.09-3.8-2.78c-0.57,2.14-0.17,4.14,0.3,6.08c0.68,2.78,1.72,5.48,2.3,8.27
		c0.54,2.6,1.01,5.33-1.71,7.27c-2.75,1.96-5.45,2.04-8.56,0.15c-3.63-2.2-5.29-5.75-6.58-9.54c-0.47-1.38-0.74-2.82-1.2-4.61
		c-2.24,2.4-3.54,4.96-4.68,7.65c-2.16,5.11-7.41,5.9-10.63,1.31C524.95,811.56,526.57,807.55,533.65,799.43"/>
	<path class="st62" d="M579.56,548.16c0.81-0.89,1.83-0.7,2.74-0.38c5.98,2.08,10.98,0.64,15.07-4.1c1-1.16,1.97-1.65,3.57-1
		c3.04,1.24,6.16,2.13,8.55,4.7c1.49,1.6,2.61,3.82,5.11,4.28c1.5,2.21,2.78,4.54,3.56,7.12c-1.02,0.86-0.56,2.03-0.58,3.06
		c-0.07,4.51-1.83,8.41-4.57,11.82c-1.55,1.93-3.48,2.85-6.33,3.37c-9.45,1.73-16.67-3.86-19.86-11.15
		C584.26,560.04,582.03,554.05,579.56,548.16"/>
	<path class="st61" d="M423.42,603.06c-2.32-2.05-5.02-3.51-7.79-4.84c-2.11-1.3-2.34-3.28-0.89-4.89c1.35-1.5,0.18-4.13,2.57-4.93
		c0.04-0.01,0.08-0.23,0.03-0.27c-2.41-2.5-1.31-4.89,0.02-7.43c0.26-0.51-1.18-1.26-2.02-1.35c-3.16-0.35-3.92-2.09-3.16-4.93
		c0.48-1.77-0.47-3.97,1.64-5.23c5.1,5.22,11.69,3.84,17.92,4.06c1.36-0.98,2.81-0.88,4.3-0.4c0.22,1.5,0.1,1.82-1.53,1.9
		c-4.93,0.24-9.83,1.35-14.79,0.44c-0.9,0.8-2.87,1.21-1.91,2.84c0.97,1.62,2.69,1.25,4.19,0.35c2.91,1.29,5.92,2.27,9.08,2.76
		c4.92,1.22,9.51,3.63,14.85,3.35c4.05-0.21,7.76-1.17,11.25-3.11c2.49-1.38,5.02-2.65,7.65-3.8c3.74-1.64,6.24-4.79,7.89-8.54
		c-0.01-0.75,0.11-1.45,0.61-2.05c2.96-4.33,7.05-7.72,10.07-12c1.14-0.8,1.75-2.06,2.67-3.05c1.49-1.83,2.85-3.69,3.49-6.04
		c0.36-1.32,1.12-2.53,2.78-2.64c0.48,0.13,0.75,0.45,0.85,0.93c-0.35,2.52-1.7,4.62-3,6.68c-4.4,7-9.5,13.57-13.33,20.94
		c-0.69,1.33-1.72,2.47-2.98,3.24c-6.04,3.71-11.51,8.26-17.89,11.51c-4.08,2.08-8.26,2.34-12.61,2.35c-0.69,0-1.38,0.03-2.07-0.01
		c-2.52-0.28-5.05-0.3-7.57-0.32c-0.5-0.05-0.9-0.29-1.3-0.59c-0.57-0.44-0.77-1.98-1.93-0.8c-0.82,0.84-1.7,1.82-0.67,3.05
		c0.67,0.8,1.45,1.78,2.65,0.65c0.98-0.93,1.71-0.7,2.29,0.44c1.13,1.97,2.93,2.94,5.1,3.09c2.88,0.19,5.65,0.91,8.46,1.47
		c4.16,0.83,8.31,1.41,12.59,1.7c7.59,0.51,11.92-3.39,15.35-9.31c0.78-1.35,1.11-3,2.53-3.94c0.3-0.11,0.61-0.11,0.91-0.02
		c0.27,0.17,0.46,0.41,0.55,0.72c0.24,1.61-0.78,2.89-1.12,4.36c-3.58,5.35-6.73,11.21-14.2,11.92c-5.68,0.08-11.37,0.21-17.21-0.1
		c1.6,1.52,3.04,2.57,5.32,2.86c2.65,0.34,5.35,1.35,7.43,3.35c1.46,1.41,1.95,2.74-0.02,4.1c-2.94,0.77-5.06-1.48-7.64-2.04
		c-0.55-0.17-1.09-0.37-1.64-0.56c-7.99-3.08-14.87-8.13-22.17-12.43c-1.87-1.1-3.76-2.17-5.64-3.25c-1.38-0.79-2.9-1.29-4.53-1.1
		c-0.61,0.07-1.11,0.43-1.24,1.1c-0.09,0.47,0.25,0.69,0.59,0.91c5.79,3.79,10.44,9.09,16.6,12.39c0.69,0.37,1.44,0.84,1.66,1.62
		c0.28,1-0.19,1.29-1.1,0.76c-3.84-1.4-7.1-3.91-10.75-5.66C424.22,603.08,423.93,602.53,423.42,603.06"/>
	<path class="st62" d="M598.29,402.63c1.54,0.75,3.14,0.19,4.48-0.27c2.32-0.79,3.96,0.19,5.36,1.54
		c10.35,10.04,13.54,22.42,10.83,36.25c-1.78,9.1-4.85,17.88-10.5,25.46c-2.48,3.32-5.25,6.41-8.31,9.23
		c-1.42,1.3-2.91,1.73-4.88,1.13c-3.83-1.16-7.75-1.34-11.65-0.18c-0.83,0.25-1.72,0.93-2.52,0.28c-1.04-0.85,0.19-1.8,0.14-2.72
		c3.98,0.39,7.16-1.32,9.67-4.14c4.7-5.29,9.42-10.55,12.82-16.88c3.42-6.36,5.27-13.1,5.91-20.22c0.52-5.84-0.56-11.58-1.28-17.33
		c-0.42-3.3-3.75-6.92-6.31-7.19c-3.33-0.34-6.68,1.76-8.5,4.8c-1.52,2.54-2.86,5.13-4.01,7.84c-0.18,0.42-0.28,1.34-1.12,0.79
		c-0.21-0.14-0.12-0.74-0.16-1.12c1.5-5.63,3.91-10.83,7.47-15.46C596.37,403.6,597.03,402.65,598.29,402.63"/>
	<path class="st65" d="M501.64,457.43c4.49,1.78,4.88,1.46,6.09-3.14c2.1-7.98,0.87-15.6-2.05-23.08c-1.53-3.91-1.9-8.34-4.7-11.69
		c-6.07-7.25-13.21-12.78-23.07-13.66c-1.47-0.13-2.73,0.36-3.59,1.62c-0.65,0.96-1.25,1.95-2.49,0.68
		c3.61-4.33,7.38-4.96,12.8-3.77c13.08,2.89,18.76,13.06,24.01,23.63c4.43,8.92,5.41,18.68,5.97,28.47
		c0.05,0.95-0.43,2.23,0.66,2.69c1.09,0.47,1.63-0.84,2.34-1.42c1.6-1.29,2.94-2.91,4.76-3.93c0.2,7.43,0.16,14.84-2.31,22
		c-1.91-1.52-2.53,1.58-4.13,1.15C512.24,469.69,507.6,463.08,501.64,457.43"/>
	<path class="st61" d="M472.49,424.31c4.95,4.05,9.77,8.22,13.5,13.53c1.36,1.94,2.65,3.89,3.69,6.01
		c-6.36-1.52-12.66-0.82-18.92,0.64c-3.35,0.78-6.69,1.54-10.12,1.77c2.17-0.93,4.36-1.76,6.72-2.09c3.53-0.49,6.35-5.67,4.91-9.04
		c-2.48-5.82-6.52-10.37-11.4-14.33c-8.12-6.59-17.59-6.26-27.15-5.63c-1.74,0.12-3.48,0.69-5.16-0.27
		C444.61,411.51,459.38,414.05,472.49,424.31"/>
	<path class="st66" d="M374.54,472.55c0.24-0.62,0.5-1.68,1.12-0.35c0.35,0.74-0.02,1.77,0.13,2.64c0.62,3.41,0.75,7.02,4.45,9.03
		c1.04,0.56,2.52,1.52,1.62,3.32c-0.08,0.16-0.11,0.49-0.02,0.57c2.9,2.35,0.68,4.72,0.07,7.1c-0.17,0.64-0.32,1.66,0.02,2
		c3.24,3.16,0.49,6.38-0.28,9.2c-0.81,2.91-3.19,5.42-5.65,7.45c-3.53,2.9-5.77,6.53-7.19,10.85c-0.51,1.54,0.61,1.51,1.11,2.14
		c-0.65,1.54-1.38,0.94-2.18,0.1c-1.69-1.76-1.37-3.8-0.82-5.84c1.92-7.15,4.28-14.15,7.32-20.9c1.71-3.81,2.01-7.58,1.24-11.73
		C374.54,483.02,374.16,477.79,374.54,472.55"/>
	<path class="st62" d="M580.62,437.15c0.57-0.21,1.28-0.55,0.81,0.59c-4.18,10.25-8.75,20.29-16.55,28.42
		c-1.07,1.11-1.42,2.29-1.51,3.68c-0.83-3.92-1.44-7.87-1.17-11.9c1.28,1.48-0.13,3.45,1.08,5.36
		C570.16,455.16,576.36,446.81,580.62,437.15"/>
	<path class="st61" d="M405.24,424.81c5.82-0.01,11.65,0.02,17.02,2.67c6.3,3.11,11.77,7.46,17.33,11.68
		c3.86,2.94,7.2,6.41,10.42,10.01c0.3,0.34,0.82,0.48,1.24,0.71c-0.61,0.4-1.21,0.8-1.82,1.2c-0.08-0.85-0.4-1.54-1.24-1.89
		c-1.82-3.67-5.11-5.96-8.21-8.3c-5.07-3.84-10-7.85-15.55-11.05c-5.13-2.96-10.49-4.13-16.31-3.82c-1.51,0.08-3.13,0.64-4.53-0.5
		C404.03,425.03,404.61,424.86,405.24,424.81"/>
	<path class="st62" d="M563.95,476.43c0.74-4.06,2.89-7.33,6.07-9.79c3.22-2.49,6.96-0.66,7.64,3.41c0.54,3.19,0.16,6.24-0.87,9.25
		c-0.29,0.84-0.68,1.77,0.01,2.52c0.74,0.8,1.63,0.22,2.48,0c2.85-0.75,5.44-2.45,8.46-2.5c12.05-0.19,17.33,7.32,13.99,18.82
		c-2.09,7.22-6.88,12.7-12.5,17.49c-1.08,0.92-2.27,1.6-3.57,2.07c-1.05,0.38-2.28,0.68-2.32,1.93c-0.04,1.25,1.23,1.69,2.2,2.13
		c2.37,1.08,4.43,2.52,6.22,4.44c1.49,1.61,2.71,3.31,3.56,5.36c2.9,7.02-0.67,12.28-8.34,12.51c-3.29,0.1-6.18-1.02-9.2-1.86
		c-1.35-2.63-2.65-5.27-2.46-8.34l-0.01,0.02c0.72-3.25,0.58-4.78-0.55-6.01c-0.4,0.67-0.8,1.35-1.22,2.01
		c-0.42,0.66-0.86,1.3-1.55,1.94c2.68-4.96,0.46-9.53-0.96-14.1C566.85,504.27,565.38,490.35,563.95,476.43"/>
	<path class="st61" d="M452.6,608.88c2.78,0.09,4.89,2.35,7.69,2.39c0.83-0.62,1.71-0.31,2.56-0.12c6.39,1.41,12.23,3.94,16.94,8.59
		c1.58,1.56,2.71,1.89,3.77-0.4c0.5-1.09,1.4-1.63,2.61-1.63c0.79-0.05,1.48,0.56,2.23,0.43c0.78-0.13,0.71-1.04,1.02-1.6
		c0.36-0.66-0.07-1.05-0.59-1.38c-0.79-0.5-1.76-0.83-2.05-1.89c1.56-4.35,3.55-8.53,5.51-12.7c1.43-3.05,2.42-6.25,3.51-9.4
		c3.01-8.74,6.8-17.25,8.36-26.45c0.07-0.4,0.29-0.73,0.57-1.01c2.19-0.18-0.16-1.31,0.37-1.84c1.59-7.77,1.8-15.7,2.96-23.52
		c0.73-4.94,2.36-9.59,4.55-14.04c0.71-1.45,1.62-2.95,3.55-2.52c2.01,0.45,2.37,2.18,2.41,3.95c0.11,5.1-1.2,9.96-2.8,14.72
		c-2.48,7.37-4.53,14.85-6.38,22.39c-0.16,0.67-0.35,1.35,0.11,1.99c-1.58,10.21-3.95,20.23-7.04,30.1
		c-3.88,12.39-7.98,24.69-13.5,36.48c-1.9,4.05-2.6,4.54-6.24,1.98c-11.59-8.14-24.57-13.61-37.24-19.67
		c-3.36-1.61-7.05-2.51-10.09-4.8c0.88-0.11,1.08-0.54,0.28-1c-4.81-2.72-9.28-5.85-12.93-10.05c-0.16-0.18-0.51-0.34-0.74-0.31
		c-2.07,0.26-2.26,0.29-2.44-1.42c-0.1-0.97-0.32-1.06-1.14-1.18c-1-0.14-2.48-0.27-1.9-1.87c0.49-1.35,1.58-2.15,3.24-1.9
		c3.12,0.47,5.65,2.24,8.24,3.78c7.74,4.61,15.14,9.81,23.46,13.4c0.12,1.26-2.2,1.74-0.89,3.32
		C452,611.44,452.84,610.58,452.6,608.88"/>
	<path class="st61" d="M509.49,564.85c-1.01-1-0.75-2.31-0.45-3.35c1.89-6.69,3.3-13.54,5.8-20.05c1.98-5.15,2.65-10.51,2.94-15.95
		c0.07-1.4-0.2-2.73-1.62-3.16c-1.62-0.48-2.19,0.95-2.77,2.09c-3.91,7.7-4.99,16.03-5.73,24.5c-0.4,4.56-0.38,9.23-2.19,13.58
		c0.25,0.48,0.2,0.9-0.27,1.23c-0.83,5.34-2.28,10.57-4.2,15.57c-4.4,11.49-7.84,23.4-13.97,34.19c0.26,0.67-0.08,0.81-0.65,0.78
		c-1.01-1.82-0.1-3.5,0.6-5.06c1.37-3.07,2.39-6.28,3.94-9.26c0.57-1.09,0.63-2.27,0.79-3.44c0.19-0.91,0.47-1.79,0.87-2.62
		c2.47-3.88,3.81-8.13,4.19-12.68c0.05-0.59-0.02-1.24,0.29-1.73c2.43-3.89,3.19-8.4,4.76-12.6c0.53-0.2,0.78-0.48,0.29-0.99
		c-0.18-1.13,0.88-1.67,1.21-2.55c0.53-1.41,0.34-2.44-1.49-1.98c-1.04,0.26-2.09,0.4-3.14,0.58c-3.9,4.77-8.26,9.18-10.73,15
		c-1.12,2.62-3.25,4.65-5.05,6.85c-0.77,0.94-1.71,1.71-3.03,0.8l-0.61-0.08c-0.81-1.22-0.08-2.1,0.76-2.79
		c3.09-2.55,4.73-5.98,5.86-9.66c1.02-3.34,2.58-6.37,4.45-9.29c5.77-9.04,11.16-18.29,14.2-28.68c0.87-2.98,2.55-5.53,3.79-8.32
		c0.34-0.62,0.76-1.19,1.22-1.73c1.6-2.75,4.38-4.8,4.99-8.6c-1.87,1.25-2.77,2.94-4.11,4.19c-1.44,1.89-3.01,3.67-4.75,5.28
		c-2.23,2.05-3.86,4.5-4.81,7.36c-1.39,4.2-4.51,7.4-6.48,11.26c-0.26,0.51-0.8,0.88-1.5,0.64c-0.2-0.21-0.41-0.41-0.61-0.62
		c-0.54-1.1-0.27-2.28,0.32-3.11c4.51-6.38,5.46-14.27,9.01-21.06c1.16-2.22,1.76-4.76,3.2-6.91c1.12-1.67-1.54-1.46-1.46-2.67
		c-0.05-0.3,0.04-0.55,0.24-0.76c2.79-3.7,4.29-8.05,5.95-12.29c2.22-5.65,4.17-11.4,6.17-17.14c0.28-0.8,0.17-1.74,0.24-2.62
		c1.36-0.43,1.84-4.02,4.13-1.16l0,2.13c-0.68-0.75-1.1-1.22-1.53-1.7c-0.8,0.83-0.83,1.82-0.89,2.78
		c-0.44,6.57-1.36,13.11-0.69,19.76c0.36,3.59-0.57,7.31-0.27,10.92c0.48,5.65,1.14,11.39,5.29,15.88c-1.68,0.93-1.81,2.82-2.28,4.3
		c-2.97,9.34-5.76,18.73-8.55,28.13C510.49,560.26,510.04,562.57,509.49,564.85"/>
	<path class="st67" d="M542.18,555.92c1.07-0.95,0.58-2.12,0.38-3.21c-0.13-0.7-0.38-1.28,0.58-1.56c0.87-0.26,1.72-0.6,1.89,0.78
		c-2.54,0.37-1.31,2.35-1.6,3.7c-0.09,0.42,0.49,1.08-0.26,1.21C542.71,556.91,542.33,556.43,542.18,555.92"/>
	<path class="st59" d="M574.76,527.88c0.36-0.47,1.04-0.56,1.06-0.03c0.08,2.02,0.91,4.14-0.52,6.04
		C574.99,531.89,576.24,529.76,574.76,527.88"/>
	<path class="st68" d="M503.57,509.03c-0.02,0.22-0.04,0.44-0.05,0.66c-1.1,4.3-3.57,7.98-5.74,11.73c-1.12,1.94-1.5,4.53-3.76,5.79
		c-1.7,0.26-3.31,0.2-4.46,2.19c-0.86,1.51-3.14,1.46-4.88,1.72c-1.95,0.3-3.94,0.12-6.16,0.11c2.21,0.36,2.06,2.68,3.63,3.67
		c0.87,0.55-0.42,1.43-1.32,1.58c-2.1,0.36-4.14-0.08-6.13-0.67c-1.84-0.54-3.36-0.76-3.35,1.94c0,1.04-0.71,1.4-1.79,1.51
		c-1.6,0.17-3.02,1.16-4.7,1.16c-0.39,0-0.81,0.34-0.82,0.75c-0.01,2.02-1.7,3.29-2.16,5.12c-0.23,0.92-0.4,2.12-1.6,2.24
		c-1.21,0.13-1.39-1.15-1.87-1.87c-2.31,2.55-3.45,6.05-6.82,7.58c-0.44,0.2-0.55,0.79-0.8,1.22c-1.82,3.1-1.84,3.1-4.34,0.5
		c-1.17,1.63-1.44,3.7-2.66,5.25c-0.86,1.09-1.68,2.57-2.87,2.91c-3.35,0.96-4.21,3.99-5.98,6.29c-0.77,1.01-1.36,2.61-3.21,1.77
		c0.13-0.95,0.25-1.89,0.38-2.84c-1.45-0.57-1.84,0.95-3.09,1.37c-0.21-1.74-1.61-2.57-2.97-3.6c-0.54,0.59,0.17,1.54-0.69,2.14
		c-3.69-3.09-6.84-6.64-8.37-11.48c-1.35,0.96,0.35,2.04-0.97,3.03c-2.43-2.01-3.86-4.76-5.15-7.65c-1.24-2.8-0.87-6.22-3.21-8.77
		c-0.78,1.38,0.66,2.45-0.16,4.03c-5.06-8.52-13.87-14.85-12.59-26.2c-1.15-0.21-1.22,1.13-2.08,1.05
		c0.84-7.45,5.07-13.3,12.75-14.82c7.12-1.4,11.26,3.01,15.69,6.43c4.38,3.38,7.56,7.82,7,14.44c-0.34,3.95,1.9,8.1,2.92,12.18
		c0.19,0.75,0.8,0.36,0.97,0.52c1.42,1.35,4.46-0.49,4.95,2.54c1.26-0.36,2.6,0.64,3.86-0.27c0.42-0.3,1.26-0.96,1.51-0.24
		c1.3,3.72,2.5,0.28,2.8-0.24c3.08-5.36,9.26-6.24,13.96-9.72c-0.93-0.67-1.67-1.2-2.58-1.85c0.66-1.06,1.76-1.22,2.61-1.76
		c1.65-1.06,3.83-1.8,3.35-4.56c-0.26-1.49,1.66-1.1,2.28-2.25c-5.13-5.69-10.49-10.82-18.95-10.96c-3.44-0.06-5.03-2.85-6.2-5.59
		c-0.85-2-1.88-3.89-2.8-5.85c-3.4-7.19-3.56-14.76-0.44-21.82c2.88-6.52,8.14-11.02,15.69-12.06c2.13-0.3,2.27,0.28,0.83,1.92
		c10.18-1.39,18.8,2.42,25.36,8.98c5.23,5.24,10.43,10.49,16.78,15.53c-1.86,0.25-2.98-0.51-4.59,0.43
		c6.79,1.86,8.61,7.68,11.4,12.71C502.4,507.69,503.04,508.33,503.57,509.03"/>
	<path class="st60" d="M431.73,572.17c2.9-1.25,3.73-4.13,5.28-6.48c0.27-0.4-0.17-4.06,2.09-1c0.34,0.45,0.8-0.29,1.11-0.58
		c2.14-2.06,4.18-4.17,4.85-7.26c0.2-0.91,0.3-2.33,1.28-2.46c1.4-0.19,1.35,1.41,1.83,2.32c0.13,0.25,0.3,0.49,0.58,0.95
		c1.85-5.22,7.85-7.14,9.27-12.82c0.79,1.24,1.48,2.31,2.16,3.38c0.27-2.9,3.36-4.65,2.84-7.69c-0.11-0.65,0.29-0.8,0.85-0.88
		c1.94-0.27,3.87-0.72,5.82-0.82c1.1-0.06,1.52-0.3,1.12-1.31c-0.49-1.22,0.23-2.23,0.23-3.41c3.74,0.78,7.22,2.31,11.08,1.26
		c-2.58-0.63-2.52-4.2-5.41-4.49c3.33-0.72,6.74,0.21,9.86-1.03c0.86-0.34,3.63,0.84,2.3-2.08c1.67-0.54,3.16-2.19,5.13-0.82
		c-1.27,4.33-3.67,7.94-6.96,10.99c-0.25,0.13-0.52,0.23-0.79,0.3c-2.61,2.05-5.96,0.06-8.8,1.42c0.41,0.98,1.92,0.81,1.68,1.89
		c-0.22,0.99-1.28,1.14-2.12,1.34c-1.77,0.43-3.54,0.19-5.28-0.23c-2.16-0.52-3.64-0.2-3.93,2.44c-0.17,1.57-1,2.99-1.72,4.4
		c-0.6,1.17-0.6,1.16-2.64,1.53c-0.48,0.09-0.17,0.51-0.25,0.77c-0.76,2.43-2.1,4.46-4.24,5.88c-0.65,0.43-1.44,0.79-2.2,0.21
		c-0.66-0.51-0.49-1.27-0.28-1.92c0.5-1.6,0.51-3.31,1.1-4.89c-0.6,1.83-1.2,3.68-2.16,5.36c-0.69,1.2-1.56,2.23-3,2.71
		c-0.31,0.1-1.06-1.89-0.94,0.18c0.11,1.99-0.33,3.95-1.03,5.8c-0.54,1.42-1.49,2.6-2.99,0.83c-0.92-1.08-1.37-0.67-1.91,0.32
		c-1.05,1.9-2.27,3.71-3.15,5.7c-0.75,1.43-1.72,2.46-3.33,1.14c-0.98-0.81-1.75-0.29-2.62,0.05c-1.56,0.03-3.12,0.06-4.69,0.09
		C431.74,572.89,431.74,572.53,431.73,572.17"/>
	<path class="st69" d="M434.04,535.44c-0.46-0.25-1.65-0.1-1.3-0.71c1.6-2.79-0.58-5.13-0.73-7.69c-0.23-3.77,1.57-6.75,5.35-7.18
		c3.99-0.45,7.99-0.77,12-0.97c2.19-0.11,0.92,1.29,0.72,2.17c-0.54,1.04-0.65,2.31-1.64,3.08c-2.87,2.22-3.13,5.28-2.79,8.55
		c0.33,3.22-0.94,4.56-4.04,3.76C439.09,535.8,436.57,535.68,434.04,535.44"/>
	<path class="st70" d="M385.23,466.4c-2.16,2.75-1.44,6.16-2.09,9.97c-2.68-2.99-4.79-5.8-6.73-8.57c-2.18-3.11,0.2-6.63,0.78-9.94
		c0.28-1.6,0.94-3.13,1.45-4.74c2.27,0.91,1.35,3.35,2.7,4.51c0.38,1.56,0.89,3.33,2.31,3.94
		C386.27,462.69,386.54,464.19,385.23,466.4"/>
	<path class="st66" d="M409.72,493.85c-1.53-0.2-2.74,0.22-4.09,1.14c-2.57,1.75-5.4,3.14-8.2,4.54c-1.62,0.81-2.22-0.54-2.34-1.72
		c-0.28-2.75-1.06-5.17-3.24-7.01c-1-0.84-0.02-1.43,0.49-1.9c1.83-1.69,2.3-3.39,0.28-5.27c-1.24-1.15-0.22-1.77,0.51-2.63
		c2.93-3.42,7.05-5.23,10.45-7.99c4.55-3.69,9.8-5.78,15.25-7.52c1.78-0.57,3.82-1.2,5.06,0.83c1.32,2.16,1.82,4.54,0.53,7
		c-1.72,3.28-4.73,5.64-6.41,8.91c-1.36,2.63-4.46,2.8-6.24,4.8c-0.74,0.83-2.5,1.23-1.83,2.59c0.65,1.33,2.07,0.43,3.18,0.15
		c0.37-0.09,0.77-0.08,1.3-0.13c-0.91,2.3-4.31,1.61-4.7,4.23C409.7,493.87,409.72,493.85,409.72,493.85"/>
	<path class="st62" d="M628.74,502.53c0.1,5.34-2.41,10.95-6.82,15.99c-4.53,5.18-9.87,8.97-16.37,11.14
		c-4.63,1.55-6.24,0.92-9.23-2.9c-1.39-1.78-3.08-3.36-4.79-4.85c-1.26-1.11-1.14-1.91,0.1-2.76c6.95-4.74,10.13-11.86,12.41-19.56
		c0.11-0.38,0.26-0.75,0.33-1.13c0.9-5.39,1.66-6.06,7.11-6.75c2.14-0.27,4.23-1.02,6.37-1.13
		C625.32,490.22,628.78,493.66,628.74,502.53"/>
	<path class="st61" d="M486.3,537.66c0.2-0.03,0.39-0.07,0.59-0.1c2.25-0.92,3.59-2.71,4.39-4.88c0.59-1.6,1.69-2.46,3.11-1.65
		c1.42,0.8,0.38,2.06-0.22,3.06c-3.25,5.39-6.89,10.58-8.75,16.71c-0.17,0.56-0.61,1.01-0.88,1.53c-0.75,1.38-1.92,1.96-3.45,1.99
		c-0.58,0.22-0.91-0.19-1.3-0.46c-0.39-0.27-0.82-0.64-1.28-0.13c-0.19,0.21-0.35,0.68-0.25,0.8c0.37,0.49,0.81-0.06,1.23-0.05
		c0.75,0.02,1.32,0.27,1.7,0.93c0.09,1.54-0.97,2.53-1.8,3.59c-2.06,2.63-3.72,5.51-5.49,8.32c-0.69,0.43-0.56,1.13-0.59,1.79
		c-2.72,3.96-5.26,8.13-10.73,8.71c-0.49,0.05-0.96,0.23-1.39,0.48c-6.56,3.72-13.63,4.61-21.06,4.33
		c-3.04-0.11-6.02-0.14-8.95-0.98c-3.51,0.04-6.7-0.92-9.56-2.98c-0.88-1.37-3.21-1.94-2.34-4.27c3.21,0.7,6.45,0.28,9.65,0.01
		c2.52-0.21,5.22,0.42,7.52-1.24c0.67-1.44,1.14-3.46,2.89-0.69c1.04,1.65,1.73,0.34,2.42-0.45c5.12,0.09,9.99-0.82,14.14-4.02
		c3.83-2.95,7.76-5.75,11.49-8.84c3.92-3.25,7.1-7.11,10.11-11.15C480.2,544.37,483.15,540.93,486.3,537.66"/>
	<path class="st61" d="M492.86,544.16c2.45-3.69,5.42-7.15,6.94-11.33c1.43-3.92,3.72-7.03,6.67-9.82c1.27-1.2,2.38-2.55,3.57-3.84
		c2.12-0.34,1.96,0.97,1.41,2.2c-0.46,1.04-0.92,2.09-1.44,3.11c-0.38,0.41-0.77,0.81-1.15,1.22c-0.57,0.82-1.24,1.57-2.08,2.07
		c-1.97,1.18-2.79,3-3,5.16c-0.22,2.27-1.16,4.39-1.42,6.64c-0.03,0.29-0.03,0.65-0.22,0.85c-3.21,3.36-4.43,7.78-6.45,11.79
		c-2.08,4.14-4.66,8.04-6.62,12.22c-3.41,7.28-9.03,12.85-13.84,19.05c-1.09,1.41-2.01,2.93-2.8,4.52c-0.53,1.06-1.1,2.09-1.89,2.99
		c-1.28,1.48-2.99,2.29-4.78,2.82c-2.84,0.85-1.99-2.37-3.34-3.2c-0.32-0.37-0.52-0.81-0.73-1.26c-0.23-0.48-0.01-1.3-0.79-1.37
		c-0.51-0.05-0.9,0.36-1.05,0.86c-0.27,0.89,0.33,1.22,1.02,1.47c0.78,0.4,1.88,0.73,1.74,1.74c-0.13,0.88-1.22,0.81-1.98,0.91
		c-1.44,0.2-2.09,1.4-2.91,2.33c-1.1,1.25-2.23,1.55-3.9,1.13c-3.71-0.92-7.55-1.21-11.33-1.8c-1.97-0.31-3.85-0.85-5.4-2.16
		c-0.87-0.74-1.31-1.74-0.85-2.9c0.43-1.09,1.31-0.88,2.23-0.77c0.97,0.11,1.96-0.04,2.81-0.63c2.93-0.22,5.85,0,8.82-0.38
		c3.49-0.44,6.31-2.2,9.12-3.82c4.83-2.79,9.37-6.07,13.96-9.25c1.28-0.88,2.47-1.98,3.19-3.44c3.63-7.34,8.73-13.74,13.11-20.59
		C490.79,548.65,491.74,546.35,492.86,544.16"/>
	<path class="st61" d="M479.87,584.58c1.33,0.05,2.06-0.77,2.92-1.68c3.89-4.05,5.59-9.49,8.96-13.85c2.14-2.78,4.74-5.2,6.49-8.29
		c1.42,1.76,2.74,3.6,4.2,5.34c0.06,0.15,0.14,0.29,0.17,0.45c0.01,0.04-0.14,0.11-0.22,0.16c-0.66,0.4-1.44,0.68-1.57,1.61
		c-0.83,5.86-4.18,10.94-5.2,16.74c-0.54,3.1-1.2,6.15-2.7,8.96c0.09,0.86-0.18,1.64-0.59,2.38c-1.38,4.03-3.64,7.59-5.88,11.17
		c-1.18,1.88-2.45,2.36-4.36,1.02c-1.6-1.13-3.31-2.03-4.74-3.46c-1.8-1.81-3.96-2.81-6.68-1.88c-1.69,0.57-3.5,0.69-5.2-0.11
		c-1.29-0.61-2.05-1.39-0.45-2.54c7.04-0.71,9.82-6.49,13.44-11.28c2.11-0.52,4.08,0.18,6.08,0.86c0.22-0.93,0.45-1.76,0.84-2.54
		c-1.77-0.91-3.64-1.51-5.41-2.35C479.94,585.05,479.91,584.82,479.87,584.58"/>
	<path class="st61" d="M465.04,600.6c-0.52,0.92-0.53,1.44,0.7,1.94c1.92,0.78,3.75,0.39,5.45-0.23c3.29-1.2,5.55,0.61,7.2,2.73
		c1.43,1.86,3.78,1.89,5.2,3.62c0.61,0.74,1.54-0.21,1.99-1.07c1.73-3.28,4.17-6.16,5.44-9.7c0.24-0.67,0.64-1.22,1.32-1.5
		c-0.19,4.55-2.86,8.23-4.4,12.3c-0.7,1.85-1.35,3.66-1.46,5.64c0.56,1.33-0.33,2.68,0.05,4.01c-1.32-0.02-2.06,0.4-2.56,1.85
		c-0.53,1.54-1.74,3.32-3.61,1.25c-4.81-5.32-10.97-8.02-17.78-9.58c-0.77-0.17-1.52-0.39-2.29-0.6c2.51-2.55-0.55-3.86-1.63-4.28
		c-2.3-0.88-4.46-3.12-7.36-1.8c-0.24,0.11-0.84-0.13-0.99-0.37c-1.08-1.87-3.14-2.62-5.35-4.66
		C452.19,600.83,458.61,600.53,465.04,600.6"/>
	<path class="st61" d="M441.28,588.18c-0.6,1.01-1.49,1.68-2.64,1.51c-0.77-0.11-1.66-1.27-1.99,0.31c-0.21,1.01,0.39,1.79,1.4,2.34
		c1.57,0.86,3.23,1.44,4.97,1.71c4.03,0.64,8.19,0.52,12.07,2.08c1.05,0.42,1.26-0.55,1.78-1.11c1.37-1.49,2.41-3.64,5.27-3.04
		c-0.62-0.45-1.24-0.9-1.85-1.34c0.75-0.92,1.56-0.73,2.4-0.14c1.32-0.71,1.32,0.5,1.34,1.11c0.06,2.29,0.71,1.83,2.48,1.14
		c2.77-1.07,4.35-2.9,5.43-5.42c1.71-3.98,4.69-7.14,7.51-10.18c4.17-4.49,7.06-9.68,9.94-14.9c2.71-4.9,5.86-9.61,7.51-15.05
		c0.26-0.85,0.81-1.3,1.43-1.79c0.84-0.66,1.51-1.63,0.83-2.56c-1.29-1.76-0.21-2.16,1.14-2.05c1.08,0.09,1.53-0.11,1.45-1.14
		c-0.2-2.63,1.28-4.92,1.37-7.53c0.12-3.59,3-5.04,5.75-6.45c-1.77,4.35-3.56,8.69-5.31,13.04c-1.52,3.81-2.57,7.77-4.87,11.3
		c-3.29,5.06-6.14,10.42-9.26,15.6c-0.87,1.45-1.78,2.89-2.11,4.54c-0.76,3.85-3.03,7-4.69,10.42c-0.76,1.57-3.59,1.42-3.37,3.9
		c-1.7,3.65-4.34,6.71-6.45,10.1c-2,3.2-5.34,3.11-8.27,3.53c-7.34,1.06-14.41-1.01-21.49-2.56c-2.52-0.55-5.18-0.08-7.55-1.89
		c-1.08-0.82-1.34-1.43-1.35-2.51c0.81-1.19-1.32-1.83-0.55-3C436.16,587.1,438.72,588.27,441.28,588.18"/>
	<path class="st61" d="M473.89,567.32c1.17-3.22,3.05-6.04,4.97-8.84c0.71-1.05,1.39-2.12,2.08-3.18c-0.24-0.35-0.31-0.7,0.04-1.04
		l0-1.76c0.61,1.78,1.31,1.49,2.31,0.36c1.67-1.88,2.29-4.29,3.07-6.51c1.58-4.56,4.96-8.03,6.91-12.34
		c0.37-0.83,1.69-1.25,1.12-2.47c-0.21-0.45-0.67-0.15-1.05-0.12c-1.34,0.12-1.26,1.04-1.43,2.05c-0.3,1.77-3.46,4.2-5,4.09
		c2.8-3.25,4.75-7.07,7.11-10.61c0.66-1.58,1.61-2.94,1.93-4.8c0.24-1.4,1.95-2.8,2.9-4.22c1.8-2.66,2.23-6.05,4.69-8.24
		c2.47,0.93,3.22,1.67,1.33,4.54c-3.13,4.76-5.14,10.26-6.54,15.83c-0.65,2.59-2.04,4.81-3.06,7.18c-0.91,2.1-2.41,3.99-2.99,6.3
		c-1.24,0.59-2.06,1.67-2.21,2.91c-0.33,2.63-2.08,4.25-3.7,6.01c-1.46,0.46-1.81,1.8-2.37,2.97L473.89,567.32z"/>
	<path class="st61" d="M431.16,581.64c7.69,0.31,15.4,0.82,22.97-1.21c2.09-0.56,4.15-1.23,5.96-2.49c0.48-0.34,1.03-0.84,1.54-0.83
		c5.31,0.06,7.92-3.75,10.72-7.32c0.23-0.3,0.63-0.46,0.95-0.69c0.86,0.61,0.4,1.4-0.04,1.76c-3.34,2.73-5.05,7.31-10.07,8.22
		c-2.11,0.38-3.97,2.08-5.96,3.15c-6.46,3.48-13.18,4.26-20.05,1.46C435.19,582.88,432.78,583.42,431.16,581.64"/>
	<path class="st71" d="M479.98,585.29c2.68-1.17,4.09,2.18,7.02,1.46c-1.3,1.58-2.51,2.68-0.8,4.65c-2.96-0.8-5.34-1.44-7.73-2.08
		C478.98,587.98,479.48,586.63,479.98,585.29"/>
	<path class="st72" d="M433.59,588.17c-0.13,1.06,2.86,1.54,0.55,3c-0.24-0.13-0.54-0.41-0.7-0.35c-0.91,0.33-0.5,2.62-2.07,1.71
		c-1.19-0.69-2.9-1.54-3.03-2.92c-0.16-1.71,1.52-2.88,2.64-4.09c0.48-0.52,1.15-0.17,1.27,0.56
		C432.4,587,432.59,587.83,433.59,588.17"/>
	<path class="st73" d="M419.26,574.4c0.52,1.01,0.38,2.4,2.16,2.57c1.47,0.14,0.32,1.09,0.19,1.7c-0.37,1.54-1.03,1.95-2.61,1.13
		c-3.59-1.88-3.64-1.83-0.6-4.6L419.26,574.4z"/>
	<path class="st74" d="M452.6,608.88c0.47,0.71,0.94,1.42,1.42,2.15c-0.79,0.27-1.56,0.42-2.19,0.8c-0.64,0.38-1.13,0.99-2.01,1.79
		c-0.1-2.27-1.17-4.33,1.64-5.22C451.84,608.56,452.22,608.72,452.6,608.88"/>
	<path class="st61" d="M483.97,555.44c-0.11-1.71,0.13-3.14,2.37-2.97C485.53,553.44,485.19,554.79,483.97,555.44"/>
	<path class="st62" d="M614.34,442.73c-0.02,4.14-1.35,7.94-3.39,11.42c-3.41,5.82-6.84,11.7-12.81,15.41
		c-0.69,0.43-1.57,1.26-2.37,0.35c-0.68-0.79-0.08-1.58,0.42-2.38c5.2-8.3,10.67-16.45,14.52-25.52c0.47-1.1,0.67-2.37,2.21-2.29
		C613.61,439.76,614.41,441.55,614.34,442.73"/>
	<path class="st75" d="M486.53,618.34c-2.21-1.31-0.08-2.67-0.05-4.01c0.18-0.28,0.36-0.56,0.54-0.84c0.53,0.24,1.18,0.36,1.57,0.74
		c0.69,0.67,2.53,0.43,2.19,1.47c-0.39,1.2-0.68,2.68-1.34,3.57C488.51,620.56,487.76,618.06,486.53,618.34"/>
	<path class="st76" d="M512.81,537.28c-0.07-1.39-3.58,0.81-2.02-1.93c0.35-0.62-0.43-2.11,1.51-1.5
		C514.93,534.68,512.18,536.18,512.81,537.28"/>
	<path class="st77" d="M505.19,563.73c0.09-0.41,0.18-0.82,0.27-1.22c1.04,0.05,1.56,0.65,1.63,1.63c0.01,0.2-0.27,0.55-0.48,0.62
		C505.75,565.02,505.44,564.39,505.19,563.73"/>
	<path class="st61" d="M492.94,594.02c1.36-5.78,2.03-11.72,4.77-17.18c1.24-2.47,1.62-5.41,2.13-8.19c0.3-1.66,1.06-2.16,2.58-1.94
		c-0.5,1.78-1.11,3.54-1.46,5.36c-0.4,2.05-1.05,3.85-2.35,5.59c-0.85,1.13-0.83,2.88-1.09,4.39
		C496.76,586.26,496.22,590.71,492.94,594.02"/>
	<path class="st78" d="M502.45,566.1c-2.14-1.2-3.89-2.7-4.2-5.34c1.04,0.09,2.06,0.6,3.14-0.05c0.81-0.49,1.84-1.16,2.61-0.05
		c0.73,1.06,0.39,2.28-0.08,3.39C503.59,564.83,502.32,564.97,502.45,566.1"/>
	<path class="st61" d="M510.02,524.49c-0.08-1.15,0.56-2.07,0.94-3.08c0.37-0.97,0.6-1.99-0.92-2.23c1.27-1.46,2.19-3.25,3.89-4.31
		c0.5-0.31,1.1-0.63,1.63-0.15c0.58,0.52,0.02,0.97-0.17,1.51C514.32,519.47,511.83,521.75,510.02,524.49"/>
	<path class="st61" d="M508.71,516.31c-0.53,0.73-0.77,1.92-1.94,2.15c-0.55,0.11-0.86-0.43-0.58-0.97
		c0.47-0.92,0.09-2.48,1.68-2.55C508.42,514.91,508.87,515.46,508.71,516.31"/>
	<path class="st79" d="M509,510.68c0.3,1.23,1.11,2.5-0.12,3.48c-0.19,0.16-1.17-0.18-1.27-0.45
		C507.19,512.42,508.41,511.71,509,510.68"/>
	<path class="st80" d="M450.62,491.36c0.29-1.28,1.23-1.93,2.35-2.39c2.26-0.47,4.44-1.54,6.81-0.03c3.11,1.99,4.36,5.27,2.9,8.37
		c-1.54,3.28-4.85,4.43-8.78,3.06c-0.96-0.64-0.52-2.62-2.34-2.46C449.2,496.02,450.11,493.66,450.62,491.36"/>
	<path class="st81" d="M410.84,524.01c1.03-1.7,2.58-2.25,4.8-2.1c-0.63,0.94-2.1,1.34-1.05,2.7c0.74,0.97,1.19-0.04,1.78,0.01
		c0.29,0.02,0.68,0.12,0.78-0.51c0.35-2.05,0.64-2.12,2.21-0.75c1.84,1.6,2.83,3.53,2.27,6.04c-2.44,3.65-4.42,3.82-7.86,1.03
		C411.64,528.72,409.34,527.29,410.84,524.01"/>
	<path class="st82" d="M450.62,491.36c0.18,2.27-0.77,4.84,1.72,6.5c0.74,0.38,0.52,1.41,1.23,1.81c4.09,1.35,7.2,0.32,8.54-2.83
		c1.3-3.05-0.23-6.31-3.64-8.02c-1.91-0.96-3.65,0.65-5.5,0.15c3.02-1.53,6.04-1.99,8.77,0.51c3.22,2.94,3.75,6.57,1.58,9.45
		c-2.46,3.25-7.4,4.71-10.28,3.05C449.42,499.87,448.53,495.97,450.62,491.36"/>
	<path class="st82" d="M410.84,524.01c0.1,2.65,3.26,6.85,5.67,7.59c2.34,0.72,3.48-1.29,5.12-2.18c0.15,2.62-1.26,4.24-3.44,5.34
		c-2.19,1.1-3.8-0.23-5.37-1.41C409.64,530.96,408.87,527.16,410.84,524.01"/>
	<path class="st59" d="M486.3,537.66c-0.13,0.57-0.06,1.35-0.41,1.67c-5.87,5.33-9.57,12.5-15.3,17.95
		c-5.01,4.77-10.69,8.7-16.22,12.78c-3.1,2.29-7.47,2.23-11.28,3.16c-0.86,0.21-1.21-0.46-1.37-1.2c0.56-3.33,3.47-5.44,4.41-8.89
		c0.99,1.31,1.79,2.38,2.78,3.68c2.19-3.27,1.06-7.43,3.15-10.58c1.01,0.84-0.45,1.72,0.3,2.58c3.07-2.12,3.48-5.79,5.25-8.91
		c0.65,2.77-0.1,5.23-0.97,8.17c4.16-1.83,5.51-5.22,6.73-8.72c0.9,0.52,0.07,1.55,0.76,2.26c1.66-2.53,2.76-5.23,3.26-8.16
		c0.27-1.57,0.57-2.33,2.6-1.82c2.83,0.7,5.82,1.27,8.87,0.04c-0.44-0.8-1.41-0.76-1.99-1.23c-0.57-0.46,0.65-0.9,0.27-1.71
		c-0.35-0.74,0.54-0.53,0.94-0.52C480.83,538.28,483.65,539.31,486.3,537.66"/>
	<path class="st83" d="M480.97,554.26c-0.01,0.35-0.02,0.69-0.03,1.04c-0.56-0.08-1.14-0.29-1.69-0.23
		c-1.64,0.18-1.83-0.07-1.76-0.12c1.14-0.76-1.48-1.87,0.17-2.33c0.87-0.24,2.15-0.86,2.77,0.63
		C480.58,553.61,480.79,553.93,480.97,554.26"/>
	<path class="st84" d="M462.68,590.52c-0.8,0.05-1.6,0.09-2.4,0.14c-1.99,0.39-1.39-1.59-1.43-2.11c-0.15-1.86,2.19-0.52,2.76-2.6
		C462.09,587.99,462.38,589.25,462.68,590.52"/>
	<path class="st85" d="M453.88,489.75c2.63-0.95,4.36-0.09,4.89,2.99C457.05,491.85,454.26,492.93,453.88,489.75"/>
	<path class="st82" d="M453.57,499.67c-2.27,0.66-0.67-1.31-1.23-1.81c0.39-0.46,0.5-1.47,1.38-1.08c0.74,0.32,0.17,0.96,0.05,1.48
		C453.66,498.71,453.63,499.2,453.57,499.67"/>
	<path class="st86" d="M376.2,452.27c0.37-0.12,0.75-0.22,1.14-0.29c1.21-0.21,2.43-0.2,3.65,0.1c0.37,0.09,0.74,0.21,1.1,0.34
		c0.3,0.1,0.58,0.22,0.87,0.37c0.95,0.44,1.84,1.06,2.68,1.85c0.29,0.28,0.28,0.28,0.53-0.02c0.01,0,0.01-0.01,0.02-0.02
		c0.37-0.51,0.37-0.63-0.09-0.91l-0.02-0.02c-0.86-0.81-1.8-1.43-2.8-1.91c-0.2-0.09-0.4-0.18-0.6-0.27
		c-0.09-0.04-0.19-0.08-0.28-0.11c-1.46-0.56-2.94-0.75-4.35-0.63c-0.36,0.05-0.61,0.09-0.87,0.14c-0.18,0.03-0.37,0.07-0.55,0.12
		L376.2,452.27z"/>
	<path class="st86" d="M390.88,463.5c0.31,3.64-0.33,6.88-2.03,9.75c-0.39,0.67-0.85,1.27-1.33,1.84c-0.11,0.14-0.19,0.16-0.23-0.08
		c0-0.03,0-0.06-0.02-0.08c-0.32-0.63-0.03-1.1,0.27-1.53c1.19-1.71,1.98-3.66,2.31-5.89c0.14-0.93,0.19-1.86,0.16-2.82
		c-0.14-3.44-1.24-6.39-3.27-8.89c-0.21-0.26-0.24-0.62-0.09-0.98c0.04-0.09,0.09-0.16,0.13-0.25c0.06-0.16,0.12-0.13,0.21-0.02
		c1.49,1.66,2.58,3.62,3.26,5.91c0.23,0.78,0.43,1.58,0.52,2.4C390.8,463.1,390.88,463.33,390.88,463.5"/>
	<path class="st86" d="M380.91,478.68c-1.83,0.23-3.5-0.07-5.14-0.78c-0.21-0.09-0.41-0.19-0.61-0.29
		c-0.17-0.08-0.24-0.22-0.27-0.41c-0.03-0.2-0.05-0.4-0.06-0.59c-0.02-0.3,0.06-0.36,0.28-0.23c0.97,0.57,1.99,0.93,3.04,1.13
		c0.59,0.11,1.18,0.16,1.78,0.14c0.27-0.01,0.55-0.01,0.82-0.04c1.36-0.16,2.65-0.61,3.85-1.38c0.54-0.35,1.07-0.74,1.55-1.22
		c0.01-0.01,0.01-0.01,0.02-0.02c0.24-0.22,0.49-0.28,0.58-0.16c0.23,0.33,0.21,0.89-0.04,1.11c-1.11,1-2.32,1.79-3.67,2.26
		c-0.2,0.07-0.41,0.16-0.61,0.21C381.89,478.55,381.35,478.68,380.91,478.68"/>
</g>
</svg>
