<?xml version="1.0" encoding="utf-8"?>
<!-- Generator: Adobe Illustrator 23.1.0, SVG Export Plug-In . SVG Version: 6.00 Build 0)  -->
<svg version="1.1" id="Слой_1" xmlns="http://www.w3.org/2000/svg" xmlns:xlink="http://www.w3.org/1999/xlink" x="0px" y="0px"
	 viewBox="0 0 1300 650" style="enable-background:new 0 0 1300 650;" xml:space="preserve">
<style type="text/css">
	.st0{fill:#E0E0E0;}
	.st1{fill:#EBEBEB;}
	.st2{fill:#F5F5F5;}
	.st3{fill:#FAFAFA;}
	.st4{fill:#263238;}
	.st5{fill:#B95253;}
	.st6{fill:#E8505B;}
	.st7{opacity:0.2;}
</style>
<g>
	<g>
		<path class="st0" d="M191.64,382.34c-0.07-0.1,1.36-0.2,2.93-1.98c0.73-0.9,1.42-2.26,1.43-3.98c0.02-0.85-0.22-1.74-0.47-2.72
			c-0.24-0.98-0.5-2.01-0.78-3.11c-2.18-8.87-5.31-21.59-9.18-37.28c-0.96-3.94-1.97-8.06-3.02-12.36c-0.52-2.15-1.06-4.34-1.6-6.57
			c-0.3-1.11-0.47-2.29-0.93-3.24c-0.47-0.97-1.22-1.81-2.15-2.39c-0.93-0.57-2.03-0.86-3.13-0.78c-1.05,0.09-2.28,0.53-3.45,0.8
			c-2.37,0.62-4.78,1.25-7.22,1.89c-4.89,1.28-9.91,2.59-15.07,3.93c-20.64,5.37-43.31,11.26-67.12,17.45
			c-2.75,0.66-4.54,3.69-4.03,6.44c0.7,2.96,1.4,5.89,2.1,8.81c1.41,5.86,2.8,11.63,4.16,17.3c2.72,11.34,5.35,22.28,7.85,32.7
			c0.31,1.3,0.62,2.6,0.93,3.88c0.25,1.25,0.82,2.32,1.68,3.16c0.86,0.82,1.96,1.37,3.12,1.49c1.15,0.19,2.3-0.24,3.55-0.55
			c4.89-1.26,9.64-2.48,14.23-3.66c9.18-2.35,17.73-4.55,25.54-6.55c15.58-3.96,28.21-7.17,37.01-9.4c4.33-1.07,7.71-1.91,10.08-2.5
			c1.11-0.26,1.98-0.47,2.63-0.62C191.33,382.38,191.64,382.32,191.64,382.34c0.01,0.02-0.29,0.12-0.88,0.29
			c-0.64,0.18-1.5,0.42-2.6,0.73c-2.35,0.64-5.72,1.55-10.02,2.71c-8.78,2.32-21.37,5.66-36.91,9.77
			c-7.8,2.05-16.34,4.29-25.51,6.69c-4.59,1.2-9.33,2.44-14.21,3.72c-1.17,0.28-2.5,0.79-3.93,0.59c-1.39-0.14-2.72-0.8-3.74-1.77
			c-1.02-0.97-1.72-2.33-1.99-3.68c-0.31-1.29-0.63-2.58-0.94-3.88c-2.52-10.42-5.17-21.35-7.91-32.69
			c-1.37-5.67-2.76-11.44-4.18-17.29c-0.7-2.94-1.41-5.91-2.12-8.89c-0.61-3.3,1.52-6.96,4.9-7.78
			c23.81-6.16,46.5-12.02,67.14-17.36c5.16-1.33,10.19-2.63,15.08-3.89c2.44-0.63,4.85-1.25,7.23-1.86
			c1.21-0.27,2.29-0.69,3.64-0.82c1.31-0.09,2.62,0.27,3.71,0.94c1.09,0.68,1.96,1.67,2.5,2.81c0.55,1.18,0.68,2.33,0.98,3.44
			c0.53,2.24,1.06,4.43,1.57,6.58c1.02,4.3,2.01,8.43,2.94,12.38c3.71,15.73,6.72,28.48,8.81,37.37c0.26,1.1,0.5,2.14,0.73,3.13
			c0.23,0.96,0.47,1.92,0.43,2.82c-0.05,1.81-0.81,3.22-1.6,4.13c-0.82,0.9-1.65,1.35-2.22,1.57
			C191.96,382.32,191.64,382.34,191.64,382.34z"/>
	</g>
</g>
<g>
	<polygon class="st0" points="138.96,349.55 153.35,353.92 142.56,364.72 131.77,375.52 128.17,360.35 124.57,345.18 	"/>
</g>
<g>
	<g>
		<g>
			<g>
				<polygon class="st1" points="1223.23,497.94 1243.37,613.71 1099.44,639.06 1079.3,523.28 				"/>
			</g>
		</g>
	</g>
	<g>
		<polygon class="st2" points="1103.13,630.9 1236.95,607.33 1219.34,506.13 1085.53,529.7 		"/>
	</g>
	<g>
		<polygon class="st0" points="1103.13,630.9 1138.93,559.76 1174.73,594.02 1190.7,569.52 1236.95,607.33 		"/>
	</g>
	<g>
		<g>
			<g>
				<path class="st0" d="M1178.83,544.79c1.02,5.86-2.87,11.43-8.69,12.46c-5.82,1.02-11.36-2.89-12.38-8.75
					c-1.02-5.86,2.87-11.43,8.69-12.46C1172.27,535.02,1177.81,538.94,1178.83,544.79z"/>
			</g>
		</g>
	</g>
</g>
<g>
	<g>
		<ellipse class="st0" cx="1086.43" cy="75.88" rx="65.47" ry="65.87"/>
	</g>
	<g>
		<g>
			<path class="st3" d="M1116.16,77.9c0,0.05-0.82,0.11-2.31,0.15c-1.64,0.03-3.77,0.08-6.36,0.13c-5.4,0.08-12.92,0.13-21.41,0.14
				l-0.42,0l0-0.42c0-1.37,0-2.81,0-4.27c0-9.54,0.05-18.18,0.12-24.43c0.05-3.01,0.1-5.51,0.13-7.4c0.05-1.75,0.11-2.71,0.17-2.71
				c0.06,0,0.11,0.97,0.16,2.71c0.03,1.89,0.08,4.39,0.13,7.4c0.08,6.25,0.12,14.89,0.12,24.43c0,1.46,0,2.9,0,4.27l-0.42-0.42
				c8.49,0.01,16.01,0.06,21.41,0.14c2.59,0.05,4.73,0.1,6.36,0.13C1115.34,77.8,1116.16,77.85,1116.16,77.9z"/>
		</g>
	</g>
	<g>
		<g>
			<path class="st3" d="M1086.27,20.82c0.23,0,0.42,2.48,0.42,5.53c0,3.06-0.19,5.53-0.42,5.53c-0.23,0-0.42-2.48-0.42-5.53
				C1085.85,23.3,1086.04,20.82,1086.27,20.82z"/>
		</g>
	</g>
	<g>
		<g>
			<path class="st3" d="M1116.1,29.71c0.17,0.17-1.42,2.03-3.53,4.16c-2.12,2.13-3.97,3.72-4.13,3.56
				c-0.17-0.17,1.42-2.03,3.53-4.16C1114.09,31.14,1115.94,29.54,1116.1,29.71z"/>
		</g>
	</g>
	<g>
		<g>
			<path class="st3" d="M1133.54,48.88c0.11,0.22-1.97,1.47-4.51,3.03c-2.55,1.55-4.61,2.83-4.75,2.63
				c-0.14-0.19,1.73-1.79,4.31-3.36C1131.17,49.6,1133.44,48.67,1133.54,48.88z"/>
		</g>
	</g>
	<g>
		<g>
			<path class="st3" d="M1143.77,77.33c0,0.24-3.36,0.43-7.5,0.43c-4.14,0-7.5-0.19-7.5-0.43c0-0.24,3.36-0.43,7.5-0.43
				C1140.41,76.9,1143.77,77.1,1143.77,77.33z"/>
		</g>
	</g>
	<g>
		<g>
			<path class="st3" d="M1039.77,76.32c0,0.24-3.17,0.43-7.08,0.43c-3.91,0-7.08-0.19-7.08-0.43c0-0.24,3.17-0.43,7.08-0.43
				C1036.6,75.9,1039.77,76.09,1039.77,76.32z"/>
		</g>
	</g>
	<g>
		<g>
			<path class="st3" d="M1047.13,97.51c0.15,0.18-2.24,2.36-5.35,4.88c-3.11,2.52-5.74,4.41-5.88,4.22
				c-0.14-0.19,2.26-2.38,5.35-4.89C1044.34,99.22,1046.98,97.33,1047.13,97.51z"/>
		</g>
	</g>
	<g>
		<g>
			<path class="st3" d="M1065.27,113.89c0.2,0.14-1.58,2.89-3.64,6.35c-2.07,3.46-3.65,6.32-3.87,6.22c-0.2-0.1,1.05-3.16,3.14-6.66
				C1062.99,116.3,1065.09,113.75,1065.27,113.89z"/>
		</g>
	</g>
	<g>
		<g>
			<path class="st3" d="M1086.27,135.01c-0.23,0-0.42-3.38-0.42-7.55c0-4.17,0.19-7.55,0.42-7.55c0.23,0,0.42,3.38,0.42,7.55
				C1086.69,131.63,1086.5,135.01,1086.27,135.01z"/>
		</g>
	</g>
	<g>
		<g>
			<path class="st3" d="M1118.6,124.96c-0.12,0.19-3.05-1.51-6.18-4.26c-3.14-2.74-5.21-5.44-5.04-5.58
				c0.18-0.16,2.51,2.24,5.6,4.94C1116.05,122.77,1118.73,124.75,1118.6,124.96z"/>
		</g>
	</g>
	<g>
		<g>
			<path class="st3" d="M1133.77,108.52c-0.17,0.17-2.39-1.8-4.97-4.39c-2.58-2.59-4.53-4.83-4.37-5c0.17-0.17,2.39,1.8,4.97,4.39
				C1131.98,106.12,1133.93,108.35,1133.77,108.52z"/>
		</g>
	</g>
	<g>
		<g>
			<path class="st3" d="M1046.44,56.04c-0.17,0.17-2.13-1.54-4.38-3.81c-2.26-2.27-3.95-4.24-3.78-4.41
				c0.17-0.17,2.13,1.54,4.38,3.81C1044.91,53.89,1046.61,55.87,1046.44,56.04z"/>
		</g>
	</g>
	<g>
		<g>
			<path class="st3" d="M1065.16,36.19c-0.17,0.17-2.09-1.5-4.31-3.71c-2.21-2.22-3.88-4.15-3.71-4.32c0.17-0.17,2.09,1.5,4.31,3.71
				C1063.67,34.09,1065.33,36.02,1065.16,36.19z"/>
		</g>
	</g>
</g>
<g>
	<g>
		<g>
			<g>
				<g>
					<polygon class="st1" points="217.61,89.32 202.02,205.81 57.21,186.18 72.8,69.7 					"/>
				</g>
				<g>
					<g>
						<path class="st4" d="M217.61,89.32c0,0-0.25-0.02-0.71-0.07c-0.48-0.06-1.15-0.14-2.03-0.25c-1.81-0.23-4.45-0.58-7.87-1.02
							c-6.89-0.91-16.93-2.24-29.66-3.92c-25.44-3.4-61.6-8.23-104.59-13.98l0.43-0.33c-4.63,34.67-9.93,74.42-15.54,116.48l0,0.01
							l-0.36-0.48c53.61,7.29,103.42,14.07,144.8,19.69l-0.4,0.3c4.77-35.06,8.72-64.13,11.49-84.46c1.4-10.16,2.5-18.14,3.25-23.6
							c0.38-2.71,0.67-4.79,0.87-6.22C217.48,90.07,217.61,89.32,217.61,89.32s-0.07,0.7-0.24,2.09c-0.18,1.42-0.44,3.48-0.78,6.17
							c-0.71,5.45-1.74,13.4-3.06,23.54c-2.69,20.39-6.52,49.55-11.16,84.73l-0.05,0.35l-0.35-0.05
							c-41.38-5.59-91.2-12.31-144.82-19.55l-0.42-0.06l0.06-0.42l0-0.01c5.64-42.05,10.98-81.8,15.63-116.46l0.05-0.38l0.38,0.05
							c43.06,5.91,79.29,10.89,104.78,14.39c12.68,1.76,22.69,3.15,29.55,4.11c3.39,0.48,6,0.85,7.79,1.1
							c0.86,0.13,1.52,0.22,1.99,0.29C217.39,89.28,217.61,89.32,217.61,89.32z"/>
					</g>
				</g>
			</g>
		</g>
	</g>
	<g>
		<polygon class="st5" points="63.18,179.53 197.82,197.77 211.44,95.95 76.81,77.71 		"/>
	</g>
	<g>
		<polygon class="st6" points="63.18,179.53 118.68,122.61 142.51,166.15 165.1,147.66 197.82,197.77 		"/>
	</g>
	<g>
		<g>
			<g>
				<path class="st6" d="M161.21,120.48c-0.79,5.89-6.17,10.02-12.03,9.23c-5.85-0.79-9.96-6.21-9.17-12.1s6.17-10.02,12.03-9.23
					C157.89,109.17,162,114.59,161.21,120.48z"/>
			</g>
		</g>
	</g>
	<g class="st7">
		<polygon points="63.18,179.53 118.68,122.61 142.51,166.15 165.1,147.66 197.82,197.77 		"/>
	</g>
	<g class="st7">
		<g>
			<g>
				<path d="M161.21,120.48c-0.79,5.89-6.17,10.02-12.03,9.23c-5.85-0.79-9.96-6.21-9.17-12.1s6.17-10.02,12.03-9.23
					C157.89,109.17,162,114.59,161.21,120.48z"/>
			</g>
		</g>
	</g>
</g>
</svg>
