<?xml version="1.0" encoding="utf-8"?>
<!-- Generator: Adobe Illustrator 23.1.0, SVG Export Plug-In . SVG Version: 6.00 Build 0)  -->
<svg version="1.1" id="Слой_1" xmlns="http://www.w3.org/2000/svg" xmlns:xlink="http://www.w3.org/1999/xlink" x="0px" y="0px"
	 viewBox="0 0 85 82" style="enable-background:new 0 0 85 82;" xml:space="preserve">
<style type="text/css">
	.st0{fill:#EBEBEB;}
	.st1{fill:#B95253;}
	.st2{fill:#FFFFFF;}
</style>
<g>
	<g>
		<path class="st0" d="M5.66,1.96c0,0-7.99,49.41,0.11,80.91l78.08-1.68c0,0-15.98-50.31-5.86-75.46L5.66,1.96z"/>
	</g>
	<g>
		<g>
			<path class="st1" d="M5.97,0.11c0,0,0.53,62.13,3.69,81.08l77.93-3.69c0,0-6.84-61.08-4.21-77.4H5.97z"/>
		</g>
		<g>
			<g>
				<path class="st2" d="M71.62,26.21c0.02,0.29-11.68,1.22-26.11,2.09c-14.44,0.87-26.16,1.34-26.18,1.05
					c-0.02-0.29,11.67-1.22,26.12-2.09C59.89,26.4,71.61,25.92,71.62,26.21z"/>
			</g>
		</g>
		<g>
			<g>
				<path class="st2" d="M71.65,39.37c0.02,0.29-11.68,1.22-26.11,2.09c-14.44,0.87-26.16,1.34-26.18,1.05
					c-0.02-0.29,11.67-1.22,26.12-2.09C59.91,39.56,71.63,39.08,71.65,39.37z"/>
			</g>
		</g>
		<g>
			<g>
				<path class="st2" d="M58.4,52.29c0.01,0.14-1.65,0.37-4.34,0.63c-2.69,0.26-6.41,0.54-10.52,0.79
					c-4.11,0.25-7.84,0.41-10.54,0.48c-2.7,0.07-4.38,0.04-4.38-0.1c-0.01-0.14,1.65-0.37,4.34-0.63c2.69-0.26,6.41-0.54,10.53-0.79
					c4.11-0.25,7.84-0.41,10.54-0.48C56.72,52.12,58.39,52.15,58.4,52.29z"/>
			</g>
		</g>
	</g>
</g>
</svg>
