<?xml version="1.0" encoding="utf-8"?>
<!-- Generator: Adobe Illustrator 23.1.0, SVG Export Plug-In . SVG Version: 6.00 Build 0)  -->
<svg version="1.1" id="Слой_1" xmlns="http://www.w3.org/2000/svg" xmlns:xlink="http://www.w3.org/1999/xlink" x="0px" y="0px"
	 viewBox="0 0 215 252" style="enable-background:new 0 0 215 252;" xml:space="preserve">
<style type="text/css">
	.st0{fill:#B95253;}
	.st1{fill:#E8505B;}
	.st2{fill:#263238;}
	.st3{fill:#455A64;}
	.st4{fill:#FAFAFA;}
</style>
<g>
	<g>
		<g>
			<g>
				<path class="st0" d="M117.08,134.64c13.12,4.57,30.23,0.49,41.45-7.68c11.22-8.17,19.3-19.87,26.45-31.74
					c3.05-5.07,6.04-10.35,7-16.18c0.97-5.83-0.46-12.39-4.99-16.2c-7.05-5.91-17.85-2.91-25.86,1.63
					C136.07,78.7,118.96,105.96,117.08,134.64"/>
			</g>
		</g>
		<g>
			<g>
				<path class="st1" d="M131.16,165.94c7.88,10.36,21.41,14.97,34.44,15.57c13.03,0.6,25.9-2.99,38.08-7.65
					c4.42-1.69,9.25-4.01,10.77-8.47c1.15-3.38-0.03-7.24-2.31-10c-2.27-2.76-5.5-4.57-8.79-5.97c-11.99-5.09-25.72-5.33-38.32-2.07
					C152.41,150.62,141.39,157.9,131.16,165.94"/>
			</g>
		</g>
		<g>
			<g>
				<path class="st1" d="M116.89,78.62c10.86,0.22,19.08-9.27,23.99-18.92c6.81-13.37,9.11-28.97,6.47-43.73
					c-0.99-5.53-3.09-11.5-8.06-14.16c-5.05-2.7-11.61-0.92-15.84,2.93c-4.23,3.85-6.55,9.34-8.24,14.8
					C109.38,38.35,110.64,59.96,116.89,78.62"/>
			</g>
		</g>
		<g>
			<g>
				<path class="st1" d="M81.22,138.5c18.51-31.41,21.6-69.84,10.66-104.6c-1.77-5.64-5.12-12.09-11.04-12.47
					c-6.55-0.41-10.66,6.87-12.47,13.16c-6.35,22.07-5,45.52-3.59,68.44C65.65,117.14,70.51,129.21,81.22,138.5"/>
			</g>
		</g>
		<g>
			<g>
				<path class="st0" d="M61.96,151.41c-6.71-21.51-23.78-39.55-44.93-47.49c-4.92-1.85-11.17-2.9-14.83,0.85
					c-3.6,3.68-2.49,9.83-0.18,14.42c3.73,7.42,9.78,13.38,15.81,19.1c5.48,5.2,11.18,10.43,18.12,13.45
					C42.89,154.76,55.62,155.53,61.96,151.41"/>
			</g>
		</g>
		<g>
			<g>
				<g>
					<path class="st2" d="M176.75,70.72c0.01,0.01-0.1,0.11-0.32,0.29c-0.27,0.2-0.59,0.46-1,0.77c-0.94,0.7-2.24,1.67-3.88,2.89
						c-0.85,0.63-1.79,1.32-2.82,2.07c-1.01,0.78-2.07,1.68-3.23,2.62c-2.29,1.91-5,3.96-7.73,6.55c-1.39,1.26-2.85,2.58-4.36,3.95
						c-1.51,1.38-2.96,2.94-4.53,4.49c-3.19,3.05-6.27,6.62-9.59,10.3c-6.42,7.55-13.02,16.25-19.09,25.94
						c-5.98,9.75-10.85,19.53-14.75,28.63c-1.82,4.61-3.64,8.95-4.95,13.16c-0.69,2.09-1.44,4.09-2,6.05
						c-0.56,1.97-1.09,3.86-1.6,5.66c-1.1,3.59-1.73,6.92-2.42,9.82c-0.32,1.45-0.66,2.8-0.91,4.05c-0.22,1.25-0.42,2.4-0.6,3.44
						c-0.36,2.01-0.65,3.6-0.86,4.75c-0.1,0.5-0.18,0.91-0.25,1.23c-0.06,0.28-0.1,0.42-0.11,0.42c-0.01,0-0.01-0.15,0.02-0.43
						c0.04-0.33,0.1-0.74,0.16-1.25c0.17-1.16,0.4-2.76,0.7-4.78c0.16-1.05,0.34-2.2,0.53-3.46c0.22-1.26,0.54-2.61,0.84-4.07
						c0.64-2.91,1.24-6.27,2.3-9.87c0.49-1.82,1.01-3.72,1.55-5.69c0.55-1.98,1.29-3.98,1.96-6.09c1.29-4.23,3.09-8.6,4.9-13.24
						c3.88-9.16,8.74-18.98,14.75-28.78c6.1-9.74,12.74-18.46,19.23-26.01c3.35-3.68,6.47-7.24,9.69-10.28
						c1.59-1.54,3.06-3.1,4.59-4.47c1.53-1.36,3.01-2.67,4.42-3.93c2.76-2.56,5.5-4.59,7.83-6.47c1.18-0.92,2.25-1.81,3.28-2.57
						c1.04-0.73,2-1.41,2.87-2.02c1.68-1.17,3.01-2.09,3.98-2.76c0.42-0.28,0.77-0.51,1.05-0.7
						C176.61,70.78,176.74,70.71,176.75,70.72z"/>
				</g>
			</g>
		</g>
		<g>
			<g>
				<g>
					<path class="st2" d="M201.27,157.79c-0.01,0.03-0.45-0.04-1.27-0.21c-0.83-0.15-2.03-0.47-3.61-0.73
						c-3.13-0.61-7.71-1.3-13.4-1.63c-11.33-0.72-27.42,0.62-43.53,7.3c-16.12,6.68-28.41,17.12-35.88,25.64
						c-3.77,4.26-6.51,7.98-8.28,10.63c-0.93,1.3-1.54,2.37-2.02,3.06c-0.46,0.7-0.72,1.06-0.75,1.05
						c-0.03-0.02,0.18-0.41,0.59-1.14c0.43-0.72,1-1.83,1.89-3.16c1.69-2.71,4.36-6.51,8.1-10.85c7.4-8.67,19.74-19.3,36.01-26.04
						c16.26-6.75,32.52-7.99,43.91-7.11c5.72,0.41,10.31,1.2,13.43,1.92c1.57,0.31,2.76,0.69,3.58,0.89
						C200.85,157.63,201.27,157.76,201.27,157.79z"/>
				</g>
			</g>
		</g>
		<g>
			<g>
				<g>
					<path class="st2" d="M132.89,14.36c0.01,0-0.01,0.17-0.07,0.49c-0.08,0.37-0.17,0.83-0.3,1.41c-0.29,1.3-0.7,3.11-1.22,5.41
						c-1.07,4.69-2.69,11.47-4.74,19.82c-4.08,16.72-10.01,39.75-16.18,65.26c-3.07,12.77-5.85,24.96-8.24,36.08
						c-2.35,11.13-4.35,21.17-5.84,29.64c-0.8,4.23-1.4,8.07-1.97,11.44c-0.58,3.37-1.03,6.27-1.38,8.65
						c-0.36,2.33-0.65,4.16-0.85,5.47c-0.1,0.58-0.18,1.05-0.24,1.42c-0.06,0.32-0.1,0.48-0.11,0.48c-0.01,0-0.01-0.17,0.02-0.49
						c0.04-0.37,0.09-0.84,0.16-1.43c0.17-1.32,0.4-3.16,0.69-5.5c0.3-2.39,0.7-5.31,1.23-8.68c0.52-3.38,1.08-7.23,1.84-11.47
						c1.41-8.49,3.36-18.56,5.66-29.7c2.35-11.14,5.11-23.34,8.18-36.12c6.18-25.53,12.2-48.53,16.43-65.2
						c2.1-8.29,3.81-15.03,5.01-19.76c0.59-2.28,1.05-4.08,1.38-5.37c0.16-0.57,0.28-1.03,0.38-1.39
						C132.82,14.52,132.88,14.36,132.89,14.36z"/>
				</g>
			</g>
		</g>
		<g>
			<g>
				<g>
					<path class="st2" d="M90.38,197.41c-0.01,0-0.05-0.13-0.12-0.38c-0.07-0.31-0.15-0.68-0.26-1.13
						c-0.22-1.07-0.53-2.53-0.91-4.37c-0.78-3.8-1.82-9.32-3.01-16.15c-2.37-13.67-5.19-32.64-6.92-53.75
						c-0.84-10.56-1.31-20.64-1.51-29.81c-0.15-9.17-0.07-17.44,0.21-24.37c0.09-3.47,0.31-6.6,0.47-9.35
						c0.14-2.75,0.34-5.12,0.52-7.05c0.17-1.87,0.31-3.36,0.41-4.45c0.05-0.46,0.09-0.84,0.13-1.15c0.03-0.26,0.06-0.39,0.07-0.39
						c0.02,0,0.02,0.14,0.02,0.4c-0.01,0.31-0.03,0.69-0.04,1.16c-0.06,1.09-0.14,2.58-0.25,4.46c-0.13,1.93-0.27,4.3-0.37,7.05
						c-0.11,2.75-0.29,5.88-0.34,9.34c-0.21,6.93-0.22,15.18-0.03,24.33c0.25,9.16,0.74,19.22,1.58,29.76
						c1.73,21.07,4.44,40.04,6.66,53.72c1.11,6.84,2.05,12.37,2.74,16.19c0.32,1.85,0.57,3.32,0.75,4.4
						c0.07,0.46,0.13,0.84,0.17,1.15C90.38,197.28,90.39,197.41,90.38,197.41z"/>
				</g>
			</g>
		</g>
		<g>
			<g>
				<g>
					<path class="st2" d="M91.75,201.4c-0.03,0.01-0.19-0.36-0.48-1.08c-0.31-0.8-0.72-1.85-1.22-3.16
						c-0.26-0.7-0.55-1.46-0.87-2.28c-0.37-0.82-0.76-1.71-1.19-2.65c-0.43-0.96-0.88-1.98-1.36-3.05c-0.48-1.08-1.1-2.17-1.69-3.34
						c-0.6-1.17-1.23-2.39-1.89-3.66c-0.72-1.24-1.47-2.53-2.25-3.86c-1.49-2.71-3.41-5.4-5.26-8.33
						c-3.97-5.7-8.63-11.75-13.94-17.77c-5.37-5.97-10.84-11.31-16-15.97c-2.66-2.24-5.1-4.47-7.56-6.35
						c-1.21-0.96-2.38-1.89-3.5-2.78c-1.16-0.85-2.27-1.67-3.33-2.45c-2.1-1.59-4.07-2.92-5.81-4.08c-1.72-1.19-3.23-2.18-4.49-2.93
						c-1.19-0.75-2.14-1.35-2.87-1.81c-0.65-0.42-0.99-0.66-0.97-0.68c0.01-0.03,0.38,0.16,1.06,0.53c0.75,0.43,1.73,0.98,2.96,1.68
						c1.29,0.71,2.83,1.66,4.58,2.82c1.77,1.13,3.78,2.42,5.91,3.98c1.08,0.77,2.2,1.57,3.37,2.41c1.14,0.89,2.32,1.8,3.55,2.76
						c2.49,1.86,4.96,4.08,7.64,6.31c5.21,4.65,10.73,10,16.12,15.99c5.34,6.04,10.01,12.14,13.96,17.89
						c1.85,2.96,3.76,5.68,5.22,8.42c0.77,1.35,1.51,2.65,2.22,3.9c0.64,1.29,1.26,2.52,1.85,3.71c0.57,1.19,1.18,2.29,1.64,3.39
						c0.46,1.09,0.89,2.12,1.3,3.09c0.4,0.96,0.78,1.86,1.13,2.69c0.29,0.84,0.56,1.61,0.8,2.32c0.44,1.33,0.8,2.4,1.07,3.22
						C91.67,201,91.78,201.39,91.75,201.4z"/>
				</g>
			</g>
		</g>
		<g>
			<g>
				<g>
					<path class="st2" d="M169.88,107.15c0,0.14-2.24,0.14-5.85,0.34c-3.6,0.2-8.57,0.67-13.98,1.69
						c-5.41,1.03-10.2,2.41-13.62,3.54c-3.43,1.13-5.51,1.95-5.57,1.82c-0.02-0.06,0.47-0.32,1.39-0.75
						c0.92-0.44,2.27-1.01,3.97-1.65c3.39-1.29,8.21-2.78,13.67-3.81c5.46-1.03,10.48-1.41,14.12-1.45c1.82-0.02,3.29,0.01,4.3,0.08
						C169.33,107.02,169.88,107.09,169.88,107.15z"/>
				</g>
			</g>
		</g>
		<g>
			<g>
				<g>
					<path class="st2" d="M183.85,175.15c-0.26,0.14-2.36-5.88-7.62-11.46c-5.19-5.65-11.06-8.17-10.9-8.42
						c0.04-0.09,1.54,0.41,3.76,1.66c2.22,1.24,5.11,3.32,7.78,6.17c2.65,2.86,4.52,5.89,5.6,8.19
						C183.55,173.59,183.94,175.12,183.85,175.15z"/>
				</g>
			</g>
		</g>
		<g>
			<g>
				<g>
					<path class="st2" d="M136.22,39.86c0.18,0.19-3.23,3.56-6.95,8.12c-3.74,4.55-6.36,8.56-6.58,8.42
						c-0.19-0.11,2.12-4.36,5.91-8.97C132.36,42.81,136.08,39.69,136.22,39.86z"/>
				</g>
			</g>
		</g>
		<g>
			<g>
				<g>
					<path class="st2" d="M125.04,20.61c0.24-0.04,0.99,3.22,1.69,7.28c0.69,4.06,1.06,7.39,0.83,7.43
						c-0.24,0.04-0.99-3.22-1.69-7.28C125.17,23.97,124.8,20.65,125.04,20.61z"/>
				</g>
			</g>
		</g>
		<g>
			<g>
				<g>
					<path class="st2" d="M90.4,81.03c0.21,0.11-2.21,5.2-5.42,11.37c-3.21,6.17-5.98,11.08-6.19,10.97
						c-0.21-0.11,2.21-5.2,5.42-11.37C87.41,85.83,90.19,80.92,90.4,81.03z"/>
				</g>
			</g>
		</g>
		<g>
			<g>
				<g>
					<path class="st2" d="M69.79,60.52c0.22-0.11,2.27,3.58,4.59,8.22c2.32,4.65,4.03,8.51,3.81,8.61
						c-0.22,0.11-2.27-3.57-4.59-8.22C71.28,64.48,69.57,60.63,69.79,60.52z"/>
				</g>
			</g>
		</g>
		<g>
			<g>
				<g>
					<path class="st2" d="M39.49,130.68c-0.06,0.25-3.73-0.46-8.32-0.78c-4.58-0.33-8.32-0.15-8.34-0.4
						c-0.03-0.22,3.74-0.81,8.41-0.47C35.9,129.36,39.55,130.46,39.49,130.68z"/>
				</g>
			</g>
		</g>
	</g>
	<g>
		<g>
			<g>
				<path class="st2" d="M60.18,192.71l10.31,54.03c0.68,3.57,3.82,6.16,7.46,6.16h30.45c3.72,0,6.89-2.68,7.5-6.34l8.96-53.86
					H60.18z"/>
			</g>
		</g>
		<g>
			<g>
				<polygon class="st3" points="63.53,210.27 121.76,210.27 124.86,192.71 60.18,192.71 				"/>
			</g>
		</g>
		<g>
			<g>
				<polygon class="st4" points="63.53,210.27 64.75,216.67 120.87,216.67 121.76,210.27 				"/>
			</g>
		</g>
	</g>
</g>
</svg>
