<?xml version="1.0" encoding="utf-8"?>
<!-- Generator: Adobe Illustrator 23.1.0, SVG Export Plug-In . SVG Version: 6.00 Build 0)  -->
<svg version="1.1" id="Слой_1" xmlns="http://www.w3.org/2000/svg" xmlns:xlink="http://www.w3.org/1999/xlink" x="0px" y="0px"
	 viewBox="0 0 95 670" style="enable-background:new 0 0 95 670;" xml:space="preserve">
<style type="text/css">
	.st0{fill:none;stroke:#FFFFFF;stroke-width:6.8;stroke-linecap:round;stroke-linejoin:round;stroke-miterlimit:10;}
	.st1{opacity:0.3;}
	.st2{opacity:0.15;fill:none;stroke:#FFFFFF;stroke-width:23.8;stroke-linecap:round;stroke-linejoin:round;stroke-miterlimit:10;}
</style>
<g>
	<path class="st0" d="M14.47,661.44c1.2,5.3,7.08,8.15,11.88,6.76c4.8-1.39,8.39-5.98,10.34-11c1.71-4.39,2.39-9.27,1.97-14.02
		c-0.52-5.88-2.68-11.42-4.81-16.85c-2.8-7.12-5.59-14.24-8.39-21.36"/>
	<path class="st0" d="M40.41,597.83c8.12,18.54,13.58,38.33,19.01,58.03c0.66,2.39,1.3,5.03,0.34,7.29"/>
	<path class="st0" d="M8.33,621.24c-2.02-3.11-2.82-7.16-2.14-10.91c1.42-7.9,8.62-12.95,15.65-15.16
		c7.04-2.22,14.57-2.61,21.24-5.93c6.67-3.32,12.47-11.05,10.71-18.87"/>
	<path class="st0" d="M72.95,606.09c6.5-3,13-5.99,19.49-8.99"/>
	<path class="st0" d="M79.64,621.37c3.38-4.55,8.17-7.79,13.38-9.09"/>
</g>
<g class="st1">
	<path class="st0" d="M47.45,486.5c4.08,8.33,7.18,17.25,9.18,26.45c0.41-10.41,0.82-20.82,1.22-31.24
		c0.21-3.87-1.63-9.93,2.05-10.94c10.1-5.05,22.03-3.03,33.23-3.09"/>
	<path class="st0" d="M84.47,531.95c5.1-10.22,10.03-21.52,8.45-33.04c-0.53-3.86-1.98-7.86-4.98-9.95c-3-2.09-7.74-1.28-9.11,2.33
		c-1.67,4.44,2.69,9.08,7,9.86c2.4,0.43,5.47-0.33,6.06-2.92"/>
</g>
<g>
	<path class="st0" d="M93.27,386.7c-4.74,9.7-7.7,20.75-9.68,31.52c-1.96,10.67-2.55,22.82,3.48,32.13"/>
</g>
<g>
	<path class="st0" d="M47.68,18.74c-0.16,0.46-0.66-0.47-0.23-0.59c0.43-0.13,0.77,0.39,0.98,0.82c1.07,2.24,2.28,4.49,4.07,6.07
		c1.8,1.58,4.31,2.39,6.45,1.46c2.88-1.25,4.1-5.23,3.54-8.57c-0.57-3.35-2.47-6.2-4.33-8.92c6.21,9.17,12.41,18.35,18.62,27.52
		c1.48,2.19,2.99,4.44,3.79,7.03c0.56,1.83,0.76,3.79,0.56,5.71c-0.28,2.8-1.71,5.78-4.19,6.48c-2.28,0.65-4.67-0.87-6.15-2.89
		c-2.64-3.6-3.14-8.54-3.16-13.17c-0.03-10.03,1.74-20.07,5.18-29.35"/>
	<path class="st0" d="M9.77,23.34c-1.53-1.64-1.63-4.47-0.6-6.53c1.03-2.06,2.97-3.41,5-4.13c1.7-0.6,3.61-0.79,5.21,0.08
		c1.77,0.96,2.83,3.09,3.18,5.23c0.36,2.14,0.12,4.34-0.05,6.51c-0.81,9.91-0.42,19.93,1.15,29.72
		c8.16-6.41,16.31-12.83,24.47-19.24"/>
</g>
<g>
	<path class="st0" d="M15.06,151.6c0.62,82.83,3.65,165.62,6.68,248.39c0.96,26.25,1.92,52.5,2.88,78.76"/>
	<path class="st0" d="M6.49,174.71c2.75-7.02,5.5-14.04,8.25-21.06"/>
	<path class="st0" d="M14.59,154.17c3.25,6.16,6.1,12.58,8.53,19.19"/>
</g>
<g>
	<path class="st0" d="M93.09,311c-11.77-7.04-23.16-16.24-31.59-27.79C52.91,271.45,48.42,256.9,46.98,242
		c-2.58-26.62,3.81-54.3,17.48-76.42c7.49-12.12,17.25-22.57,28.78-29.96"/>
</g>
<g>
	<path class="st0" d="M1,100.45c5.91,0.11,11.82-0.3,17.68-1.21"/>
	<path class="st0" d="M33.75,97.93c5.05,0.46,10.14,0.31,15.15-0.45"/>
	<path class="st0" d="M62.3,96.12c4.25,0.6,8.63,0.02,12.62-1.68"/>
	<path class="st0" d="M89.15,94.37c1.24,0.01,2.49,0,3.73-0.05"/>
</g>
<path class="st2" d="M51.69,70.13C60.82,44.27,75.51,22.03,93.11,3"/>
</svg>
