<?xml version="1.0" encoding="utf-8"?>
<!-- Generator: Adobe Illustrator 23.1.0, SVG Export Plug-In . SVG Version: 6.00 Build 0)  -->
<svg version="1.1" id="Слой_1" xmlns="http://www.w3.org/2000/svg" xmlns:xlink="http://www.w3.org/1999/xlink" x="0px" y="0px"
	 viewBox="0 0 1920 252" style="enable-background:new 0 0 1920 252;" xml:space="preserve">
<style type="text/css">
	.st0{fill:#C6E8F1;}
	.st1{fill:none;stroke:#FFFFFF;stroke-width:6.0056;stroke-linecap:round;stroke-linejoin:round;stroke-miterlimit:10;}
	.st2{fill:none;stroke:#FFFFFF;stroke-width:6.8;stroke-linecap:round;stroke-linejoin:round;stroke-miterlimit:10;}
	.st3{fill:none;stroke:#FFFFFF;stroke-width:9.3738;stroke-linecap:round;stroke-linejoin:round;stroke-miterlimit:10;}
	.st4{fill:none;stroke:#FFFFFF;stroke-width:4.8771;stroke-linecap:round;stroke-linejoin:round;stroke-miterlimit:10;}
	.st5{fill:none;stroke:#FFFFFF;stroke-width:13.3775;stroke-linecap:round;stroke-linejoin:round;stroke-miterlimit:10;}
	.st6{opacity:0.3;}
	.st7{fill:none;stroke:#FFFFFF;stroke-width:9.9676;stroke-linecap:round;stroke-linejoin:round;stroke-miterlimit:10;}
	
		.st8{opacity:0.15;fill:none;stroke:#FFFFFF;stroke-width:42.433;stroke-linecap:round;stroke-linejoin:round;stroke-miterlimit:10;}
	.st9{opacity:0.15;fill:none;stroke:#FFFFFF;stroke-width:30.6;stroke-linecap:round;stroke-linejoin:round;stroke-miterlimit:10;}
</style>
<rect x="-18" y="-15" class="st0" width="1937" height="281"/>
<g>
	<path class="st1" d="M1770.26,204.21c7.63-2.6,16.18-2.4,23.56-5.7c5.92-2.64,11.67-8.54,9.94-14.96"/>
	<path class="st1" d="M1860.36,185.71c2.4-3.1,5.46-5.77,8.95-7.84c2.35-1.39,8.35-5.06,11.09-3.19c2.6,1.76,2.48,7.57,2.17,10.12
		c-0.45,3.7-2.09,7.28-4.78,10.1c1.72-4.86,8.55-6.61,13.43-4.91c6.03,2.1,8.69,8.53,8.49,14"/>
</g>
<g>
	<path class="st2" d="M623.19,204.26c11.81-16.04,38.09-0.66,53.63-9.78c3.9-2.29,7.05-5.87,7.28-10.23"/>
	<path class="st2" d="M744.72,203.32c4.93-3.53,10.87-5.88,17.06-6.81c2.18-0.33,6.51-1.28,8.29,0.36c1.67,1.54,0.99,5.23,0.64,7.13
		"/>
	<path class="st2" d="M829.19,193.31c1.74,3.33,2.89,6.9,3.56,10.54"/>
	<path class="st2" d="M862.38,192.62c3.09,3.34-1.04,8.32-2.8,11.33"/>
	<path class="st2" d="M863.24,194.36c1.06,3.15,1.76,6.38,2.23,9.64"/>
</g>
<g>
	<path class="st3" d="M343.24,197.95c-3.3-26.62-4.82-53.42-4.54-80.21"/>
	<path class="st3" d="M339.79,120.12c4.72,6.16,13.18,8.87,19.48,13.72c4.6,3.54,7.98,8.17,11.31,12.73
		c7.52,10.33,15.03,20.66,22.55,30.98"/>
	<path class="st3" d="M339.17,165.74c12.51-2.23,24.93-4.91,37.21-8.03"/>
	<path class="st3" d="M395.87,137.86c16.47-2.72,32.71-6.64,48.49-11.71c0.67-0.22,1.47-0.58,1.47-1.23c0-0.65-1.48-0.58-1.13-0.02"
		/>
	<path class="st3" d="M412.71,113.16c5.6,13.77,11.79,27.33,18.56,40.65"/>
	<path class="st3" d="M460.36,91.05c9.42,8.79,12.81,21.4,15.82,33.37c2.93,11.64,5.86,23.28,8.79,34.91"/>
	<path class="st3" d="M463.57,93.52c10.34-7.14,25.96-7.08,36.23,0.16c1.54,1.09,3.01,2.36,3.8,3.98c1.65,3.39,0,7.35-2.2,10.47
		c-5.55,7.85-14.79,13.45-24.88,15.09"/>
	<path class="st3" d="M478.31,123.24c8.05-3.97,16.92-7.47,26.04-6.73c9.12,0.74,18.27,7.09,18.51,15.42
		c0.2,6.86-5.41,12.75-11.54,16.75c-8.19,5.36-17.93,8.73-27.96,9.68"/>
	<path class="st3" d="M544.59,93.97c7.36-1.9,14.71-3.81,22.07-5.71"/>
	<path class="st3" d="M549.84,111.18c9.18-3.42,18.76-5.93,28.53-7.48"/>
	<path class="st3" d="M618.57,58.05c-8.34-4.55-19.94,0.13-24.67,7.85c-4.74,7.73-4.14,17.25-1.98,25.88
		c1.21,4.85,2.93,9.71,6.16,13.73c5.32,6.62,14.73,10.31,23.67,9.28c8.94-1.03,17.05-6.74,20.39-14.35"/>
	<path class="st3" d="M628.44,38.85c-1.85-2.36-1.64-5.88,0.47-8.05c2.12-2.17,5.93-2.78,8.73-1.39c4.76,2.36,4.99,8.64,3.07,13.26
		c-1.91,4.62-5.32,8.84-5.77,13.76c7.65-2.6,15.3-5.2,22.95-7.81c1.53-0.52,3.17-2.54,1.64-3.07"/>
	<path class="st3" d="M505.5,64.39c-1.85-2.36-1.64-5.88,0.47-8.05c2.12-2.17,5.93-2.78,8.73-1.39c4.76,2.36,4.99,8.64,3.07,13.26
		c-1.91,4.62-5.32,8.84-5.77,13.76c7.65-2.6,15.3-5.2,22.95-7.81c1.53-0.52,3.17-2.54,1.64-3.07"/>
</g>
<g>
	<path class="st2" d="M1088.14,204.26c6.59-15.23,14.04-30.15,22.31-44.68"/>
	<path class="st2" d="M1110.31,161.45c1.1,6.85,7.32,11.99,9.1,18.72c2.07,7.81,2.42,16.18,3.44,24.15"/>
	<path class="st2" d="M1093.49,190.79c8.9,2.28,17.9,4.25,26.97,5.89"/>
	<path class="st2" d="M1140.23,189.64c11.64,3.15,23.56,5.44,35.61,6.87c0.51,0.06,1.16,0.06,1.39-0.36
		c0.24-0.42-0.75-0.82-0.72-0.35"/>
	<path class="st2" d="M1160.02,178.67c-1.06,8.46-1.84,16.96-2.32,25.46"/>
	<path class="st2" d="M1198.83,178.55c2.91,8.43,0.65,17.42-1.61,25.73"/>
	<path class="st2" d="M1200.01,181.11c9.26-1.54,19.35,3.15,23.4,10.89c0.61,1.16,1.1,2.42,1.02,3.71c-0.15,2.69-2.65,4.76-5.2,6.12
		c-6.42,3.43-14.41,4.3-21.54,2.35"/>
</g>
<g>
	<path class="st2" d="M1568.9,7.72c0.76,8.77-1.27,17.96,0.93,27.17"/>
	<path class="st2" d="M1552.54,51.82c14.09,0,28.18,0,42.28,0"/>
	<path class="st2" d="M1561.32,69.64c7.86,8.9,20.25,14.35,32.81,14.43"/>
	<path class="st2" d="M1578.06,66.93c1.26,5.76-1.31,11.78-5.36,16.36c-4.05,4.58-9.45,7.98-14.77,11.31"/>
</g>
<g>
	<path class="st4" d="M35.89,247.64c3.15,0.23,6.33,0.07,9.43-0.47"/>
	<path class="st4" d="M31.93,239.86c4.81,0.5,9.7,0.37,14.48-0.38"/>
	<path class="st4" d="M57.76,243.6c11.28-0.04,21.38-0.04,32.66,0"/>
	<g>
		<path class="st4" d="M2.43,240.1c5.64,6.39,14.52,10.29,23.53,10.35"/>
		<path class="st4" d="M14.43,238.15c0.9,4.13-0.94,8.45-3.84,11.73C7.69,253.17,3.82,255.61,0,258"/>
	</g>
	<path class="st4" d="M69.18,230.45c3.71-0.93,7.61-1.21,11.44-0.82"/>
	<path class="st4" d="M90.64,213.62c-0.55,4.73-0.95,9.56,0,14.27"/>
	<path class="st4" d="M147.97,204.26c45.37-2.99,90.84-2.07,136.46-4.3"/>
</g>
<g>
	<path class="st2" d="M1903.05,67.66c4.5,7.58,7.9,15.69,10.11,24.06c0.38-8,0.76-16,1.14-23.99c0.21-4.52-1.85-15.88,5.52-15.57"/>
</g>
<g>
	<path class="st5" d="M11.97,45.64c-0.75,0.55-0.77-1.38,0.16-1.14c0.93,0.23,1.07,1.36,1.03,2.24c-0.22,4.53-0.18,9.19,1.62,13.42
		c1.8,4.23,5.71,7.97,10.63,8.65c6.62,0.91,12.85-4.02,15.1-9.76c2.25-5.73,1.51-12.04,0.73-18.09c2.53,20.34,5.07,40.68,7.6,61.01
		c0.61,4.87,1.21,9.83,0.14,14.63c-0.75,3.38-2.33,6.61-4.59,9.38c-3.31,4.05-8.91,7.24-14.26,5.87c-4.91-1.27-7.88-5.98-8.66-10.57
		c-1.38-8.19,2.57-16.32,7.13-23.5c9.87-15.54,23.11-29.31,38.74-40.26"/>
	<path class="st5" d="M67.24,21.47c-1.75-3.82-0.23-8.66,3.47-11.07C74.41,8,79.93,8.26,83.34,11c5.8,4.66,3.92,13.46-0.36,19.33
		c-4.28,5.87-10.49,10.77-12.83,17.48c11.55-1.41,23.1-2.82,34.65-4.23c2.32-0.28,5.3-2.61,3.36-3.8"/>
</g>
<g>
	<path class="st2" d="M1673.8,29.51c2.77,13.29,3.93,26.86,3.45,40.39"/>
	<path class="st2" d="M1697.38,47.89c1.43-1.47,3.88-1.58,6.04-1.57c10.69,0.02,21.39,0.04,32.08,0.06"/>
	<path class="st2" d="M1711.37,32.1c3.64,9.73,5.82,19.92,6.45,30.19"/>
	<g>
		<path class="st2" d="M1749.83,36.85c7.86,8.9,20.25,14.35,32.81,14.43"/>
		<path class="st2" d="M1766.57,34.14c1.26,5.76-1.31,11.78-5.36,16.36c-4.05,4.58-9.45,7.98-14.77,11.31"/>
	</g>
	<path class="st2" d="M1657.43,12.98c-9.27,11.11-10.48,26.03-10.31,39.98c0.16,12.52,1.97,26.56,12.69,34.41"/>
	<path class="st2" d="M1778.97,13.6c10.12,11.52,16.22,25.92,17.18,40.64c0.59,8.92-1.14,18.79-8.52,24.69"/>
	<path class="st2" d="M1809.72,7.45c0.85,6.46-6.51,9.95-8.5,15.5c3.95-0.48,7.9-0.96,11.86-1.45c1.1-0.13,9.2-0.5,7.47-2.63"/>
</g>
<g class="st6">
	<path class="st2" d="M1582.66,163.21c6.57,12.14,11.67,24.94,15.16,38.09"/>
	<path class="st2" d="M1610.78,175.21c0.95-1.77,3.27-2.46,5.36-2.98c10.31-2.58,20.62-5.15,30.94-7.73"/>
	<path class="st2" d="M1619.63,156.59c6.37,8.5,11.45,17.79,15.06,27.53"/>
	<g>
		<path class="st2" d="M1658.09,151.85c10.19,6.67,23.73,8.92,35.85,5.95"/>
		<path class="st2" d="M1673.43,145.17c2.9,5.25,2.19,11.67-0.37,17.07c-2.56,5.4-6.76,9.98-10.91,14.49"/>
	</g>
	<path class="st2" d="M1562.04,151.26c-7.18,16.42-1.12,37.38,6.39,52.93"/>
	<path class="st2" d="M1679.36,122.36c13.13,8.64,23.23,21.05,28.48,35c3.18,8.46,4.41,18.39-0.98,25.87"/>
	<path class="st2" d="M1698.2,113.43c-1.43-1.66-1.4-4.21,0.05-5.85c1.45-1.64,4.2-2.19,6.28-1.27c3.54,1.57,3.93,6.11,2.71,9.51
		c-1.22,3.4-3.54,6.57-3.68,10.15c5.45-2.12,10.9-4.23,16.35-6.35c1.09-0.42,2.21-1.93,1.08-2.27"/>
</g>
<g class="st6">
	<path class="st2" d="M1345.18,182.49c-13.49,5.69-27.67,10.03-42.21,12.9"/>
	<path class="st2" d="M1358.8,164.01c-14.11-5.47-30.3-2.89-45.13,0.67c-13.31,3.2-27.84,8.22-33.58,19.6"/>
</g>
<g>
	<path class="st7" d="M1005.87,204.09c0.19-9.22,7.37-18.19,13.25-25.26c6.06-7.28,13.18-13.82,21.12-19.39"/>
	<path class="st7" d="M998.97,150.59c-0.26,0.12-0.26-0.8-0.26-0.8c2.02,7.35,2.02,19.31,13.14,17.47
		c10.11-0.92,9.09-12.87,8.94-20.15c1.19,9.58,0.93,7.13,0,0c0.16,19.23,7.23,37.62,5.64,56.9"/>
	<path class="st7" d="M942.72,127.88c-0.92-3.02,1.02-6.36,3.98-7.97c2.96-1.61,6.66-1.74,10.02-1.06c2.81,0.56,5.62,1.75,7.21,3.93
		c1.76,2.42,1.67,5.64,0.59,8.37c-1.08,2.73-3.03,5.09-4.87,7.46c-8.43,10.82-15.28,22.65-20.31,35.1c16.1-1.37,32.2-2.74,48.31-4.1
		"/>
</g>
<g>
	<path class="st2" d="M1320.57,7.22c0.65,4.72,6.58,5.01,9.84,7.78c3.51,2.98,5.26,7.45,4.39,11.76
		c-1.34,6.63-13.45,15.58-19.11,7.15"/>
</g>
<g class="st6">
	<g>
		<path class="st2" d="M162.66,90.46c10.86,5.72,24.58,6.74,36.32,2.69"/>
		<path class="st2" d="M177.2,82.44c3.46,4.96,3.45,11.42,1.49,17.02c-1.96,5.6-5.65,10.54-9.29,15.4"/>
	</g>
	<g>
		<path class="st2" d="M52.49,131.94c10.86,5.72,24.58,6.74,36.32,2.69"/>
		<path class="st2" d="M67.03,123.91c3.46,4.96,3.45,11.42,1.49,17.02c-1.96,5.6-5.65,10.54-9.29,15.4"/>
	</g>
	<path class="st2" d="M118.28,97.72c-1.4-1.72-1.07-4.27,0.38-5.96c1.44-1.69,3.77-2.6,6.09-2.92c1.94-0.27,4.05-0.14,5.65,0.89
		c1.77,1.15,2.59,3.22,2.64,5.2c0.05,1.98-0.55,3.92-1.08,5.84c-2.44,8.77-3.6,17.84-3.43,26.88c9.88-4.48,19.75-8.95,29.63-13.43"
		/>
	<path class="st2" d="M138.21,204.27c6.3-2.86,12.61-5.71,18.91-8.57"/>
	<path class="st2" d="M117.25,179.2c-5.52-6.98,12.73-14.04,14.64-3.94c0.83,4.41-1.75,9.58-2.61,13.91
		c-0.98,4.96-1.57,9.98-1.74,15.02"/>
	<path class="st2" d="M93.21,121.66c7.62-3.69,15.56-6.84,23.72-9.4"/>
	<path class="st2" d="M15.26,187.75c59.6-20.23,155.59-57.61,211.51-85.19"/>
	<g>
		<path class="st2" d="M14.81,128.27c4.42,3.06,3.02,10.67,8.06,12.8c1.69,0.72,3.65,0.54,5.51,0.69c4.96,0.39,9.58,3.32,11.69,7.42
			c2.11,4.1,1.62,9.21-1.23,12.91c-2.81,3.65-8.83,5.73-12.71,3.01"/>
		<path class="st2" d="M12.68,130.32c7.55-2.43,15.09-4.86,22.64-7.28"/>
	</g>
	<path class="st2" d="M94.57,183.12c3.46,0.22,4.78,6.59,5.75,8.88c1.71,4.04,3.42,8.07,5.14,12.11"/>
</g>
<g>
	<path class="st2" d="M1375.49,204.09c-41.29-28.56-57.45-83.72-30.17-126.01c8.08-11.95,20.21-21.14,33.35-28.5
		c9.09-4.6,18.19-8.27,27.28-11.03c15.16-3.68,30.32-5.52,45.18-1.31"/>
	<path class="st2" d="M1456.53,45.79c26.94,9.18,52.65,24.92,66.37,48.55c13.21,22.75,11.98,51.47-0.11,74.4
		c-7.96,15.1-21.05,27.28-37.11,35.38"/>
	<path class="st2" d="M1426.78,128.9c-0.07,0.68,0.54,1.36,1.29,1.42c0.72,0.06,1.54-0.36,2.12,0.04c0.58,0.4-0.93,0.94-0.49,0.42"
		/>
	<path class="st2" d="M1440.51,138.43c4.47,2.06,8.48,4.95,11.72,8.43"/>
	<path class="st2" d="M1461.37,151.09c3.8,2.43,7.61,4.86,11.41,7.29"/>
	<path class="st2" d="M1483.38,164.98c5.16,2.03,9.93,4.88,14.03,8.38"/>
	<path class="st2" d="M1503.2,180.22c5.6,3.51,11.21,7.02,16.81,10.53"/>
</g>
<g>
	<path class="st2" d="M1156.08,71.58c0.99-0.54,1.83,0.89,1.91,1.93c0.9,12.64-3.12,25.52-11.17,35.84"/>
	<path class="st2" d="M1142.82,80.36c8.19,8.23,19.61,13.76,31.69,15.35"/>
	<path class="st2" d="M1188.35,74.59c8.22-2.23,16.33-4.79,24.3-7.69"/>
	<path class="st2" d="M1191.92,61.6c4.32,7.56,8.64,15.13,12.95,22.69"/>
	<path class="st2" d="M1221.88,49.12c2.14,2.88,4.53,5.94,8.14,7.06c4.07,1.26,9.02-0.66,10.85-4.2c1.82-3.55,0.27-8.23-3.41-10.27"
		/>
	<path class="st2" d="M1238.46,41.24c10,13.18,19.1,26.93,27.23,41.14c1.46,2.54,2.91,5.19,3.11,8.05c0.2,2.86-1.16,6.01-4.02,7.22
		c-3.62,1.52-8.06-0.74-9.93-3.95c-1.86-3.2-1.82-7.01-1.7-10.64c0.52-15.61,1.67-31.2,3.44-46.73"/>
</g>
<g>
	<path class="st2" d="M357.89,17.08c1.12-0.23,1.43,1.37,1.14,2.38c-3.51,12.25-11.77,23.33-22.98,30.84"/>
	<path class="st2" d="M342.27,21.62c4.94,10.16,13.86,18.67,24.79,23.63"/>
	<path class="st2" d="M387.49,29.16c8.58,0.24,17.16,0.12,25.73-0.35"/>
	<path class="st2" d="M395.36,17.85c1.49,8.41,2.97,16.83,4.46,25.24"/>
	<path class="st2" d="M428.12,14.56c1.03,3.35,2.25,6.93,5.29,9.03c3.43,2.36,8.79,1.96,11.75-0.89c2.95-2.85,3.1-7.74,0.31-10.72"
		/>
	<path class="st2" d="M446.58,11.82c4.94,15.37,8.83,31.02,11.64,46.84c0.5,2.83,0.97,5.76,0.17,8.54c-0.8,2.77-3.18,5.37-6.31,5.7
		c-3.96,0.41-7.4-3.01-8.06-6.59c-0.66-3.57,0.69-7.18,2.06-10.58c5.88-14.67,12.36-29.14,19.4-43.38"/>
</g>
<g>
	<path class="st2" d="M728.62,58.92c-0.58-3.3,2.13-6.79,5.74-7.4c3.61-0.61,7.51,1.75,8.29,5.01c0.77,3.26-1.72,6.88-5.28,7.67"/>
	<path class="st2" d="M736.59,63.56c3.96-0.91,8.11-1.78,12.08-0.92c3.97,0.86,7.66,4,7.45,7.71c-0.17,2.89-2.65,5.34-5.54,6.56
		c-2.89,1.23-6.14,1.47-9.32,1.69"/>
	<path class="st2" d="M733.84,91.78c14.17-2.51,28.34-5.03,42.51-7.54"/>
	<path class="st2" d="M753.11,105.32c3.25,3.18,5.34,7.32,5.88,11.63"/>
	<path class="st2" d="M758.62,118.64c0.45-1.4,2.15-2.09,3.69-2.5c4.84-1.3,10.24-1.55,14.77,0.47c4.53,2.02,7.8,6.74,6.69,11.21
		c-0.89,3.6-4.45,6.37-8.39,7.24c-3.95,0.87-8.17,0.06-11.8-1.58"/>
	<path class="st2" d="M750.39,106.57c8.35-1.83,16.7-3.66,25.05-5.5"/>
	<path class="st2" d="M797.53,76.48c5.95-2.31,11.9-4.63,17.85-6.94"/>
	<path class="st2" d="M831.18,23.74c-1.9,7.63-3.8,15.26-5.7,22.89c-0.17,0.69-0.34,1.42-0.07,2.08c0.74,1.83,3.67,1.47,5.67,0.77
		c9.72-3.42,19.44-6.85,29.16-10.27"/>
	<path class="st2" d="M828.05,24.23c1.7,0.21,2.95,1.51,4.03,2.72c7.57,8.44,15.15,16.88,22.72,25.32"/>
	<path class="st2" d="M841.94,72.38c13.07-2.6,25.85-6.41,38.08-11.35"/>
	<path class="st2" d="M860.37,84c7.59-1.96,14.89-4.85,21.65-8.55"/>
	<path class="st2" d="M880.06,76.62c-0.31,15.96,2.41,31.97,7.99,47.1"/>
	<path class="st2" d="M873.19,100.38c5.91-1.37,11.52-3.83,16.39-7.18"/>
</g>
<g>
	<path class="st2" d="M195.53,118.65c31.44-14.92,64.23-27.48,97.92-37.53"/>
	<path class="st2" d="M293.45,84.07c-8.16-26.21-19.27-51.95-31.35-76.54"/>
	<path class="st2" d="M196.07,121.93C206.68,79.73,247.29,48.44,261.1,7"/>
	<path class="st2" d="M269.95,89.95c-3.16-6.03-6-12.19-8.51-18.46c-0.25-0.63-0.5-1.32-0.24-1.94c0.26-0.65,0.99-1.02,1.66-1.35
		c6.31-3.05,12.62-6.1,18.92-9.15"/>
</g>
<g>
	<path class="st2" d="M510.21,16.62c6.5,0.1,13.02-0.27,19.46-1.1"/>
	<path class="st2" d="M546.26,14.33c5.55,0.42,11.16,0.28,16.68-0.41"/>
	<path class="st2" d="M577.68,12.68c4.68,0.55,9.5,0.01,13.9-1.53"/>
	<path class="st2" d="M607.24,11.09c5.25,0.05,10.5-0.3,15.68-1.04"/>
	<path class="st2" d="M641.43,10.2c7.23-0.13,14.44-1.13,21.38-2.96"/>
</g>
<g>
	<path class="st2" d="M1785.39,140.2c6.5,0.1,13.02-0.27,19.46-1.1"/>
	<path class="st2" d="M1821.45,137.91c5.55,0.42,11.16,0.28,16.68-0.41"/>
	<path class="st2" d="M1852.86,136.26c4.68,0.55,9.5,0.01,13.9-1.53"/>
	<path class="st2" d="M1882.42,134.67c5.25,0.05,10.5-0.3,15.68-1.04"/>
	<path class="st2" d="M1916.61,133.78c1.13-0.02,2.26-0.06,3.39-0.12"/>
</g>
<g>
	<path class="st2" d="M582.28,165.42c6.5,0.1,13.02-0.27,19.46-1.1"/>
	<path class="st2" d="M618.34,163.13c5.55,0.42,11.16,0.28,16.68-0.41"/>
	<path class="st2" d="M649.76,161.48c4.68,0.55,9.5,0.01,13.9-1.53"/>
	<path class="st2" d="M679.32,159.89c5.25,0.05,10.5-0.3,15.68-1.04"/>
	<path class="st2" d="M713.51,159c7.23-0.13,14.44-1.13,21.38-2.96"/>
</g>
<g>
	<path class="st2" d="M1022.46,53.17c4.39-13.07,17.63-22.64,32.13-26.22c14.49-3.58,30.03-1.85,44.41,2.1"/>
	<path class="st2" d="M1080.51,37.63c4.28-4.82,10.74-7.99,17.51-8.6"/>
	<path class="st2" d="M1080.69,14.97c9.97,1.75,18.63,8.7,21.78,17.48"/>
</g>
<path class="st8" d="M876.5,186.92c-6.12-7.72-6.12-16.91-8.14-26.1c-1.01-8.27,0-17.47,3.03-25.74c1.01-1.84,2.02-3.68,5.05-2.76
	c3.03,1.84,4.04,5.52,6.06,9.19c3.03,7.35,2.02,16.55,5.05,23.9c5.05,11.95,12.13,24.82,24.25,32.18
	c14.15-2.76,14.15-18.39,11.12-28.5c-6.06-14.71-12.13-29.42-10.11-45.97c2.02-11.03,2.02-23.9,11.12-31.26
	c3.03-1.84,7.07-0.92,10.11,1.84c3.03,2.76,4.04,5.52,5.05,9.19c0,2.76,1.01,4.6,2.02,6.44c7.07,33.1,10.11,64.35,24.07,94.76"/>
<path class="st9" d="M1752.83,143.37c0.87-13.57,8.05-26.71,19.41-35.53c5,3.95,1.67,11.22-0.91,16.77
	c-5.42,11.7-5.62,25.32-0.55,37.14c6.09,1.52,12.39-2.65,15.26-7.76c2.87-5.12,3.3-11.02,4.55-16.65
	c2.96-13.32,10.84-25.69,22.08-34.63c2.38-1.89,5.43-3.74,8.47-2.97c5.19,1.32,4.88,8.08,3.29,12.76
	c-7.88,23.21-19.29,45.66-22.66,69.75c-0.52,3.73,0.35,8.87,4.47,9.15c16.7-9.24,21.28-28.85,27.91-45.59
	c9.62-24.31,26.64-46.16,48.66-62.47"/>
<path class="st9" d="M259.77,181.78c-1.13-20.99,4.71-42.25,16.55-60.29c-1.44,15.22-2.88,30.45-4.32,45.67
	c-0.74,7.78-0.24,17.58,7.61,20.73c2.6-14.35,5.2-28.7,7.79-43.05c0.58-3.18,1.76-6.99,5.19-7.76c4.38-0.99,7.59,4.08,7.33,8.18
	c-0.26,4.09-2.25,8.21-1.09,12.17c2.09,7.12,12.18,8.78,20.27,9.08"/>
</svg>
