<svg xmlns="http://www.w3.org/2000/svg" viewBox="0 0 123.35 123.35"><defs><style>.cls-1{fill:#edf5f9;}</style></defs><title>Ресурс 6</title><g id="Слой_2" data-name="Слой 2"><g id="Слой_1-2" data-name="Слой 1"><path class="cls-1" d="M88.24,123.35H35.11A35.15,35.15,0,0,1,0,88.25V35.11A35.15,35.15,0,0,1,35.11,0H88.24a35.15,35.15,0,0,1,35.11,35.11V88.25A35.15,35.15,0,0,1,88.24,123.35ZM35.11,10.57A24.57,24.57,0,0,0,10.57,35.11V88.25a24.57,24.57,0,0,0,24.54,24.53H88.24a24.57,24.57,0,0,0,24.54-24.53V35.11A24.57,24.57,0,0,0,88.24,10.57Z"/><path class="cls-1" d="M61.68,93.26A31.59,31.59,0,1,1,93.26,61.68,31.62,31.62,0,0,1,61.68,93.26Zm0-52.59a21,21,0,1,0,21,21A21,21,0,0,0,61.68,40.67Z"/><path class="cls-1" d="M102.21,28.29a7.59,7.59,0,1,1-7.59-7.6A7.59,7.59,0,0,1,102.21,28.29Z"/></g></g></svg>