<svg xmlns="http://www.w3.org/2000/svg" viewBox="0 0 110.28 110.16"><defs><style>.cls-1{fill:#edf5f9;}</style></defs><title>Ресурс 5</title><g id="Слой_2" data-name="Слой 2"><g id="Слой_1-2" data-name="Слой 1"><path class="cls-1" d="M106.3,27a42.28,42.28,0,0,0-11-14.62A49.46,49.46,0,0,0,78.76,3.2,64.69,64.69,0,0,0,58.1,0,61.51,61.51,0,0,0,35.87,4,56.56,56.56,0,0,0,17.39,15.58,55.43,55.43,0,0,0,4.71,33.7,58.15,58.15,0,0,0,0,57.5,58.93,58.93,0,0,0,4.1,80.27,45.79,45.79,0,0,0,15.52,96.76a48.41,48.41,0,0,0,17.27,10,67.24,67.24,0,0,0,21.69,3.38,64.54,64.54,0,0,0,11.77-1,40.1,40.1,0,0,0,10.09-3.38,8.4,8.4,0,0,0,1-7,7.32,7.32,0,0,0-4.74-4.56,34.79,34.79,0,0,1-8.1,2.54,43.7,43.7,0,0,1-8,.84A55.27,55.27,0,0,1,38.1,94.76a36.59,36.59,0,0,1-13.46-8.09,34.55,34.55,0,0,1-8.28-12.74A47.54,47.54,0,0,1,13.53,57a45.59,45.59,0,0,1,3.38-17.69,42.32,42.32,0,0,1,9.36-14.08,44,44,0,0,1,14.07-9.3,45.1,45.1,0,0,1,17.52-3.38A58.38,58.38,0,0,1,73.2,14.5a33.79,33.79,0,0,1,12.38,6.1,29.14,29.14,0,0,1,8.28,10.57,36.18,36.18,0,0,1,3,15.46A35.09,35.09,0,0,1,95.37,57.5a24.2,24.2,0,0,1-3.93,7.61A15.8,15.8,0,0,1,86,69.58,14.19,14.19,0,0,1,79.84,71q-3.14,0-4-2.54t.07-8.21l5.8-32.74H73.2l-3.74,3.87a21.11,21.11,0,0,0-5.32-3.32A17.7,17.7,0,0,0,57,26.82a22.22,22.22,0,0,0-11.65,3.32,34.93,34.93,0,0,0-9.66,8.75A43.58,43.58,0,0,0,29.11,51.4,44.68,44.68,0,0,0,26.7,66a21.58,21.58,0,0,0,1.15,7.25,17.42,17.42,0,0,0,3.08,5.56,13.37,13.37,0,0,0,4.59,3.56,12.66,12.66,0,0,0,5.55,1.27,19.65,19.65,0,0,0,6.65-1.09,21.45,21.45,0,0,0,5.55-3,29.08,29.08,0,0,0,4.66-4.29q2.1-2.41,3.92-5h.48a15.24,15.24,0,0,0,.49,6.28,9.27,9.27,0,0,0,2.59,4.11,10.12,10.12,0,0,0,4.35,2.23,22.26,22.26,0,0,0,5.62.67A32.35,32.35,0,0,0,89,80.69a35.77,35.77,0,0,0,18.6-19.57,38.53,38.53,0,0,0,2.71-14.49A46.45,46.45,0,0,0,106.3,27ZM62.57,58.83a34.94,34.94,0,0,1-3,4.59,33.11,33.11,0,0,1-3.5,3.86A17.86,17.86,0,0,1,52.3,70a7.83,7.83,0,0,1-3.62,1c-2.66,0-4.53-.85-5.62-2.53A11.88,11.88,0,0,1,41.43,62a27.58,27.58,0,0,1,1.21-7.92,25.82,25.82,0,0,1,3.44-7.3,19.34,19.34,0,0,1,5.32-5.31,11.81,11.81,0,0,1,6.7-2.06,10.66,10.66,0,0,1,4.23.73,12.92,12.92,0,0,1,3.26,2Z"/></g></g></svg>