<svg xmlns="http://www.w3.org/2000/svg" viewBox="0 0 32.42 43.94"><defs><style>.cls-1{fill:#c3e6fb;}.cls-2{fill:#e8ab3b;}.cls-3{fill:#a5d2ed;}</style></defs><title>Ресурс 3</title><g id="Слой_2" data-name="Слой 2"><g id="Слой_1-2" data-name="Слой 1"><path class="cls-1" d="M32.42,1.57v40.8a1.57,1.57,0,0,1-1.57,1.57H1.57A1.57,1.57,0,0,1,0,42.37V9.46l5.9-6,2-2.07L9.27,0H30.85A1.57,1.57,0,0,1,32.42,1.57Z"/><path class="cls-2" d="M28.84,16v.06a.15.15,0,0,1-.14.15h-.09Z"/><polygon class="cls-3" points="26.52 1.43 26.52 4.14 5.83 4.14 5.83 3.51 7.86 1.43 26.52 1.43"/><rect class="cls-3" x="3.8" y="9.69" width="25.08" height="1.22" rx="0.04"/><rect class="cls-3" x="3.88" y="15.15" width="25.08" height="1.22" rx="0.04"/><rect class="cls-3" x="3.82" y="20.68" width="25.08" height="1.22" rx="0.04"/><rect class="cls-3" x="3.77" y="26.21" width="25.08" height="1.22" rx="0.04"/><rect class="cls-3" x="3.77" y="31.74" width="25.08" height="1.22" rx="0.04"/><rect class="cls-3" x="3.71" y="37.27" width="25.08" height="1.22" rx="0.04"/><path class="cls-3" d="M0,9.46,9.27,0V7.89A1.57,1.57,0,0,1,7.69,9.46Z"/></g></g></svg>