<svg xmlns="http://www.w3.org/2000/svg" viewBox="0 0 1676.15 928.24"><defs><style>.cls-1{isolation:isolate;}.cls-2{fill:#54b3be;}.cls-3{fill:#ffc34d;}.cls-4{opacity:0.5;}.cls-4,.cls-9{mix-blend-mode:soft-light;}.cls-5{fill:#fff;}.cls-6{fill:#e0e0e0;}.cls-7{fill:#ccc;}.cls-8{fill:#ff8c66;}.cls-9{opacity:0.25;}</style></defs><title>news-bg</title><g class="cls-1"><g id="Слой_2" data-name="Слой 2"><g id="Слой_1-2" data-name="Слой 1"><g id="news"><polygon class="cls-2" points="533.62 525.87 131.81 928.24 130.04 928.24 532.73 524.97 533.62 525.87"/><polygon class="cls-2" points="524.89 517.12 114.33 928.24 112.56 928.24 523.99 516.23 524.89 517.12"/><polygon class="cls-2" points="516.15 508.37 96.86 928.24 95.09 928.24 515.26 507.48 516.15 508.37"/><polygon class="cls-2" points="507.41 499.61 79.38 928.24 77.61 928.24 506.52 498.72 507.41 499.61"/><polygon class="cls-2" points="498.67 490.88 61.91 928.24 60.14 928.24 497.78 489.97 498.67 490.88"/><polygon class="cls-2" points="489.94 482.12 44.43 928.24 42.65 928.24 489.04 481.23 489.94 482.12"/><polygon class="cls-2" points="481.2 473.37 26.96 928.24 25.19 928.24 480.31 472.48 481.2 473.37"/><polygon class="cls-2" points="472.46 464.61 9.48 928.24 7.7 928.24 471.57 463.72 472.46 464.61"/><polygon class="cls-2" points="463.71 455.88 0 920.24 0 918.46 462.83 454.97 463.71 455.88"/><polygon class="cls-2" points="454.99 447.12 0 902.73 0 900.95 454.09 446.23 454.99 447.12"/><polygon class="cls-2" points="446.25 438.37 0 885.24 0 883.46 445.36 437.48 446.25 438.37"/><polygon class="cls-2" points="437.51 429.63 0 867.75 0 865.97 436.62 428.72 437.51 429.63"/><polygon class="cls-2" points="428.76 420.88 0 850.24 0 848.46 427.88 419.97 428.76 420.88"/><polygon class="cls-2" points="420.04 412.12 0 832.75 0 830.97 419.15 411.24 420.04 412.12"/><polygon class="cls-2" points="411.3 403.37 0 815.24 0 813.46 410.41 402.48 411.3 403.37"/><polygon class="cls-2" points="402.56 394.63 0 797.75 0 795.97 401.67 393.73 402.56 394.63"/><polygon class="cls-2" points="393.81 385.88 0 780.24 0 778.47 392.93 384.97 393.81 385.88"/><polygon class="cls-2" points="385.09 377.12 0 762.75 0 760.97 384.2 376.24 385.09 377.12"/><polygon class="cls-2" points="376.35 368.37 0 745.24 0 743.46 375.46 367.48 376.35 368.37"/><polygon class="cls-2" points="367.61 359.63 0 727.75 0 725.97 366.72 358.73 367.61 359.63"/><polygon class="cls-2" points="358.88 350.88 0 710.24 0 708.47 357.98 349.97 358.88 350.88"/><polygon class="cls-2" points="350.14 342.13 0 692.75 0 690.98 349.25 341.24 350.14 342.13"/><polygon class="cls-2" points="341.4 333.37 0 675.24 0 673.47 340.51 332.48 341.4 333.37"/><polygon class="cls-2" points="332.66 324.63 0 657.75 0 655.98 331.77 323.73 332.66 324.63"/><polygon class="cls-2" points="323.93 315.88 0 640.25 0 638.47 323.03 314.98 323.93 315.88"/><polygon class="cls-2" points="315.19 307.13 0 622.75 0 620.98 314.3 306.24 315.19 307.13"/><polygon class="cls-2" points="306.45 298.37 0 605.25 0 603.47 305.56 297.48 306.45 298.37"/><polygon class="cls-2" points="297.71 289.63 0 587.75 0 585.98 296.82 288.73 297.71 289.63"/><polygon class="cls-2" points="288.98 280.88 0 570.25 0 568.47 288.07 279.99 288.98 280.88"/><polygon class="cls-2" points="280.24 272.13 0 552.76 0 550.98 279.33 271.24 280.24 272.13"/><polygon class="cls-2" points="271.5 263.39 0 535.25 0 533.47 270.61 262.48 271.5 263.39"/><polygon class="cls-2" points="262.76 254.64 0 517.76 0 515.98 261.87 253.75 262.76 254.64"/><polygon class="cls-2" points="254.01 245.88 0 500.25 0 498.47 253.13 244.99 254.01 245.88"/><polygon class="cls-2" points="245.29 237.13 0 482.76 0 480.98 244.38 236.24 245.29 237.13"/><polygon class="cls-2" points="236.55 228.39 0 465.27 0 463.49 235.66 227.5 236.55 228.39"/><polygon class="cls-2" points="227.81 219.64 0 447.76 0 445.98 226.92 218.75 227.81 219.64"/><polygon class="cls-2" points="219.08 210.88 0 430.27 0 428.49 218.18 210 219.08 210.88"/><polygon class="cls-2" points="210.34 202.13 0 412.76 0 410.98 209.44 201.24 210.34 202.13"/><polygon class="cls-2" points="201.6 193.39 0 395.27 0 393.49 200.71 192.5 201.6 193.39"/><polygon class="cls-2" points="192.86 184.64 0 377.76 0 375.98 191.97 183.75 192.86 184.64"/><polygon class="cls-2" points="184.13 175.88 0 360.27 0 358.49 183.22 174.99 184.13 175.88"/><polygon class="cls-2" points="175.39 167.13 0 342.76 0 340.98 174.48 166.24 175.39 167.13"/><polygon class="cls-2" points="166.65 158.39 0 325.27 0 323.49 165.76 157.5 166.65 158.39"/><polygon class="cls-2" points="157.9 149.64 0 307.76 0 305.98 157.02 148.75 157.9 149.64"/><polygon class="cls-2" points="149.18 140.88 0 290.27 0 288.5 148.28 140 149.18 140.88"/><polygon class="cls-2" points="140.44 132.13 0 272.76 0 270.99 139.53 131.24 140.44 132.13"/><polygon class="cls-2" points="131.7 123.39 0 255.27 0 253.5 130.81 122.5 131.7 123.39"/><polygon class="cls-2" points="122.95 114.64 0 237.76 0 235.99 122.07 113.75 122.95 114.64"/><polygon class="cls-2" points="114.23 105.89 0 220.27 0 218.5 113.34 105 114.23 105.89"/><polygon class="cls-2" points="105.49 97.13 0 202.76 0 200.99 104.6 96.24 105.49 97.13"/><polygon class="cls-2" points="96.75 88.39 0 185.27 0 183.5 95.86 87.51 96.75 88.39"/><polygon class="cls-2" points="88 79.64 0 167.77 0 165.99 87.12 78.75 88 79.64"/><polygon class="cls-2" points="79.28 70.89 0 150.28 0 148.5 78.39 70 79.28 70.89"/><polygon class="cls-2" points="70.54 62.15 0 132.78 0 130.99 69.65 61.24 70.54 62.15"/><polygon class="cls-2" points="61.8 53.4 0 115.28 0 113.5 60.91 52.51 61.8 53.4"/><polygon class="cls-2" points="53.05 44.64 0 97.77 0 95.99 52.17 43.75 53.05 44.64"/><polygon class="cls-2" points="44.33 35.89 0 80.28 0 78.5 43.44 35 44.33 35.89"/><polygon class="cls-2" points="35.59 27.15 0 62.79 0 60.99 34.7 26.25 35.59 27.15"/><polygon class="cls-2" points="26.84 18.4 0 45.28 0 43.5 25.96 17.51 26.84 18.4"/><polygon class="cls-2" points="18.12 9.64 0 27.79 0 25.99 17.22 8.75 18.12 9.64"/><polygon class="cls-2" points="9.38 0.89 0 10.28 0 8.5 8.49 0 9.38 0.89"/><path class="cls-3" d="M1363.64,432.42A68,68,0,0,0,1365,441a64.76,64.76,0,0,0,3.71,11.8c.14.37.31.74.47,1.1.8,1.79,1.66,3.53,2.6,5.18.63,1.16,1.31,2.28,2,3.37a59,59,0,0,0,6.44,8.27,67.33,67.33,0,0,0,11.36,9.86c27.88,19.11,63.88,11.36,86-9.59,11.94-11.29,19.86-26.4,20.27-43.22a60.39,60.39,0,0,0-4.95-25.15c-.3-.75-.64-1.48-1-2.23-1-2.13-2.09-4.24-3.34-6.39-.09-.15-.18-.31-.29-.47-.28-.46-.55-.92-.83-1.37A65.22,65.22,0,0,0,1474.52,377c-24.34-20.79-60-18.23-84.3-.8C1373,388.49,1361.49,408.24,1363.64,432.42Z"/><path class="cls-4" d="M1363.64,432.42A68,68,0,0,0,1365,441a65.39,65.39,0,0,0,4.18,12.9,62.37,62.37,0,0,0,4.62,8.55,59,59,0,0,0,6.44,8.27,67.33,67.33,0,0,0,11.36,9.86c27.88,19.11,63.88,11.36,86-9.59-17.24,5-36.4,7.08-54,2.48-12.66-3.33-25.17-12.72-33.19-23.68a53.49,53.49,0,0,1-3.46-6.68c-8.67-20-5.74-45.36,3.27-66.94C1373,388.49,1361.49,408.24,1363.64,432.42Z"/><path class="cls-4" d="M1453.38,375.08c30.33,0,30.38,47.2,0,47.2S1423,375.08,1453.38,375.08Z"/><path class="cls-4" d="M1432.81,472.27a4.43,4.43,0,0,1,3-1.25,4.36,4.36,0,0,1,3,1.25,4.26,4.26,0,0,1,0,6,4.27,4.27,0,0,1-7.28-3A4.3,4.3,0,0,1,1432.81,472.27Z"/><path class="cls-4" d="M1410.29,482.48a4.2,4.2,0,0,1,1.1-1.89l.86-.67a4.25,4.25,0,0,1,2.15-.58,4.76,4.76,0,0,1,3,1.25,3.29,3.29,0,0,1,.89,1.38,3.16,3.16,0,0,1,.36,1.64l-.15,1.13a4.2,4.2,0,0,1-1.1,1.89l-.86.67a4.25,4.25,0,0,1-2.15.58,4.4,4.4,0,0,1-4.26-4.27Z"/><path class="cls-4" d="M1401.79,380.93a11.57,11.57,0,0,1,2.94-5.05l2.32-1.79a11.43,11.43,0,0,1,5.77-1.56,12.79,12.79,0,0,1,8.08,3.35,12.7,12.7,0,0,1,3.35,8.1c-.14,1-.27,2-.41,3a11.33,11.33,0,0,1-2.94,5.05l-2.31,1.79a11.39,11.39,0,0,1-5.77,1.57A11.78,11.78,0,0,1,1401.38,384C1401.52,383,1401.66,382,1401.79,380.93Z"/><path class="cls-4" d="M1381.36,449.63a14.05,14.05,0,0,1,3.61-6.2l2.84-2.2a14,14,0,0,1,7.09-1.92,14.44,14.44,0,0,1,14,14.06c-.17,1.24-.34,2.49-.5,3.74a14.05,14.05,0,0,1-3.61,6.2l-2.85,2.2a14,14,0,0,1-7.08,1.92,15.59,15.59,0,0,1-9.93-4.12,15.65,15.65,0,0,1-4.11-9.94C1381,452.12,1381.19,450.88,1381.36,449.63Z"/><path class="cls-4" d="M1404.49,401.29c4.14,0,4.15,6.45,0,6.45S1400.34,401.29,1404.49,401.29Z"/><path class="cls-4" d="M1421.78,450.14c4.14,0,4.15,6.45,0,6.45S1417.63,450.14,1421.78,450.14Z"/><path class="cls-4" d="M1404.38,424.67a6,6,0,0,1,1.54-2.64l1.2-.93a6,6,0,0,1,3-.82,4.41,4.41,0,0,1,2.29.52,4.56,4.56,0,0,1,1.93,1.23,6.68,6.68,0,0,1,1.74,4.23l-.21,1.59a5.89,5.89,0,0,1-1.53,2.63l-1.21.94a5.91,5.91,0,0,1-3,.81,5.79,5.79,0,0,1-5.46-3.67,4.54,4.54,0,0,1-.51-2.3Z"/><path class="cls-4" d="M1369.81,412.68a11.53,11.53,0,0,1,3-5.06l2.31-1.79a11.4,11.4,0,0,1,5.78-1.57,11.76,11.76,0,0,1,11.44,11.46c-.13,1-.27,2-.41,3a11.41,11.41,0,0,1-2.94,5.06l-2.32,1.79a11.36,11.36,0,0,1-5.77,1.56,12.65,12.65,0,0,1-8.09-3.35,12.7,12.7,0,0,1-3.35-8.11C1369.54,414.71,1369.68,413.69,1369.81,412.68Z"/><path class="cls-4" d="M1466.53,428.7a11.53,11.53,0,0,1,3-5.06l2.31-1.79a11.29,11.29,0,0,1,5.78-1.56,8.71,8.71,0,0,1,4.41,1,8.54,8.54,0,0,1,3.68,2.37,12.7,12.7,0,0,1,3.35,8.1c-.13,1-.27,2-.41,3.05a11.41,11.41,0,0,1-2.94,5.06l-2.32,1.79a11.26,11.26,0,0,1-5.77,1.56,8.66,8.66,0,0,1-4.41-1,8.48,8.48,0,0,1-3.68-2.37,8.57,8.57,0,0,1-2.37-3.69,8.73,8.73,0,0,1-1-4.42C1466.26,430.73,1466.4,429.71,1466.53,428.7Z"/><path class="cls-4" d="M1432,438.86a11.36,11.36,0,0,1,2.94-5.06l2.31-1.79a11.4,11.4,0,0,1,5.78-1.57,8.57,8.57,0,0,1,4.41,1,8.48,8.48,0,0,1,3.68,2.37,8.57,8.57,0,0,1,2.37,3.69,8.66,8.66,0,0,1,1,4.41c-.13,1-.27,2-.41,3.05a11.41,11.41,0,0,1-2.94,5.06l-2.31,1.79a11.39,11.39,0,0,1-5.78,1.56,11,11,0,0,1-10.46-7,8.72,8.72,0,0,1-1-4.42C1431.7,440.89,1431.84,439.87,1432,438.86Z"/><path class="cls-4" d="M1473.81,449.19c5.36,0,5.37,8.35,0,8.35S1468.44,449.19,1473.81,449.19Z"/><path class="cls-4" d="M1486.69,407.74c5.36,0,5.37,8.35,0,8.35S1481.32,407.74,1486.69,407.74Z"/><path class="cls-5" d="M1466.68,380.59a13.84,13.84,0,0,0-1.42-2.19,26.12,26.12,0,0,0-8.85-6.81c-11-5.57-34.33-9.38-40.12,5.76-2.42,6.3.22,13.74,4.33,18.7,5.72,6.89,15.56,10,24.71,9.22C1457.62,404.21,1473.82,394.26,1466.68,380.59Z"/><rect class="cls-5" x="189.09" y="595.31" width="73.59" height="49.66" transform="translate(-176.18 96.75) rotate(-17.52)"/><path class="cls-6" d="M268.43,632.75s-.11-.3-.3-.87l-.81-2.5c-.7-2.2-1.73-5.41-3.05-9.52-2.61-8.23-6.37-20-10.94-34.42l.25.13-70.16,22.19h0l.16-.31c5.31,16.88,10.36,32.94,14.89,47.37l-.28-.15,50.57-15.84,14.47-4.5,3.86-1.19,1-.3.35-.1-.32.11-1,.32-3.8,1.23L249,639l-50.64,16.1-.22.07L198,655c-4.55-14.43-9.61-30.48-14.93-47.37l-.07-.23.23-.08h0l70.19-22.1.19-.06.06.19c4.5,14.46,8.2,26.33,10.78,34.6l2.94,9.51c.33,1.08.58,1.9.75,2.48S268.43,632.75,268.43,632.75Z"/><path class="cls-6" d="M253.52,585.38s0,.08-.1.22l-.32.61c-.31.56-.74,1.33-1.28,2.32-1.16,2-2.79,4.94-4.81,8.52l-16.15,28.26-.1.18-.2-.08-2.17-.8-31.89-12-9.65-3.69-2.61-1-.68-.28a.7.7,0,0,1-.22-.11l.24.06.69.24,2.65.93,9.7,3.54,31.95,11.84,2.16.81-.3.11c6.39-11.06,12.13-21,16.28-28.18l4.95-8.45,1.36-2.27.36-.59A.71.71,0,0,1,253.52,585.38Z"/><path class="cls-7" d="M1640.79,60c-1.81-3.42-6.71-1.28-4.9,2.19a66.21,66.21,0,0,1,5.89,17.58c1.17,5.56.43,11.16,1.57,16.42a.67.67,0,0,0,1.18.31c3.1-4.3,2.93-11.62,2.59-17.06C1646.71,73,1644,66.08,1640.79,60Z"/><path class="cls-7" d="M1675.26,77.91c-13.59,2.51-16.39-14.35-22.15-24.08-1.82-3.07-6.72,0-5,3.18,4.12,7.71,5.79,17.3,12.48,22.74,4.33,3.53,12,4.75,15.45-.52A.84.84,0,0,0,1675.26,77.91Z"/><path class="cls-7" d="M1656.48,42.08c-2.06,11.69-17.13,10.62-24.73,15-4.79,2.77-10.58,10.18-6.48,16.49a1,1,0,0,0,1.79-.25c1.07-4.32,1.9-7.36,5.49-10.09,4.07-3.09,9.47-3.68,14.27-5,7.1-2,14.11-6.33,15.13-15.15C1662.41,39.08,1657.14,38.33,1656.48,42.08Z"/><path class="cls-7" d="M1591.14,517.76a10.12,10.12,0,0,0-12.36,4.2c-3.68,5.93.72,14.57,7.52,15.52a9.9,9.9,0,0,0,8.89-3.32A10.6,10.6,0,0,0,1591.14,517.76Z"/><path class="cls-7" d="M1550.94,558.38a5.38,5.38,0,0,0,1.22-2.47l.1-1.37a5.4,5.4,0,0,0-.88-2.67,4.09,4.09,0,0,0-1.53-1.48,4.15,4.15,0,0,0-1.88-.83,4,4,0,0,0-2.06,0,3.93,3.93,0,0,0-2,.76l-1.09.95a5.28,5.28,0,0,0-1.21,2.46l-.1,1.37a5.3,5.3,0,0,0,.88,2.67,4,4,0,0,0,1.53,1.48,4.82,4.82,0,0,0,3.94.8,4,4,0,0,0,2-.75Z"/><path class="cls-7" d="M1628.33,520.48c3.73-6,5.93-13.51,2.84-20.29s-10-8.41-16.8-7.81c-16.73,1.45-33.26,7.95-47,17.56-7.67,5.37-15.2,11.89-19.75,20.21-3.8,7-5.6,15.55-2.34,23a.5.5,0,0,0,.94-.31c-3.25-15.84,6.36-28.69,18.18-38a98.4,98.4,0,0,1,40.83-19.06c6.44-1.33,15.61-3.54,21.18,1.23,6.15,5.26,4.63,14.42,1.22,20.7S1619,529.86,1613.8,535a101.77,101.77,0,0,1-18.92,14.57,88.86,88.86,0,0,1-23.15,10.05c-7.94,2-17,1.73-23-4.57-.92-1-2.28.6-1.36,1.56,11.44,11.93,30.41,4.16,42.66-2.1C1605.08,546.77,1619.36,535,1628.33,520.48Z"/><path class="cls-7" d="M1634.83,535.7a5.43,5.43,0,0,0-2.68.63l-1.12.8a5.39,5.39,0,0,0-1.49,2.39,6,6,0,0,0,.4,4.1,6.12,6.12,0,0,0,3.18,2.61l1.43.23a5.42,5.42,0,0,0,2.67-.63l1.12-.8a5.39,5.39,0,0,0,1.49-2.39,6,6,0,0,0-.4-4.1,6.12,6.12,0,0,0-3.18-2.61Z"/><path class="cls-7" d="M1556.32,500.18c-7,1-14.17,4-17.42,10.75s-.12,13,4.71,17.94c11.79,12,27.33,20.58,43.46,25,9,2.48,18.85,4.14,28.15,2.34,7.78-1.51,15.53-5.59,19.2-12.88a.5.5,0,0,0-.84-.53c-10.11,12.61-26.12,13.39-40.85,10.23A98.37,98.37,0,0,1,1552,533.73c-5.14-4.12-12.68-9.78-12.57-17.12.13-8.1,8.14-12.77,15.15-14.14,7.17-1.41,14.86-1.08,22.09-.31a101,101,0,0,1,23.28,5.3,88.91,88.91,0,0,1,22.5,11.45c6.63,4.82,12.16,12,11.14,20.63-.16,1.32,1.92,1.38,2.07.06,1.87-16.43-16.2-26.11-28.83-31.56C1591.37,501.34,1573.17,497.87,1556.32,500.18Z"/><path class="cls-7" d="M1578.84,479.09a5.33,5.33,0,0,0,1.53,2.29l1.14.77a5.32,5.32,0,0,0,2.75.56,6,6,0,0,0,3.69-1.8,4,4,0,0,0,1-1.8,4.16,4.16,0,0,0,.33-2.1c-.09-.47-.19-.94-.28-1.42a5.36,5.36,0,0,0-1.53-2.28l-1.13-.77a5.29,5.29,0,0,0-2.76-.57,4.07,4.07,0,0,0-2,.59,4.83,4.83,0,0,0-2.66,3,4,4,0,0,0-.34,2.09C1578.65,478.15,1578.75,478.62,1578.84,479.09Z"/><path class="cls-7" d="M1573,565.16c3.35,6.24,8.73,11.89,16.14,12.59s12.24-4.44,15.14-10.68c7.09-15.25,9.72-32.84,8.24-49.53-.83-9.34-2.7-19.13-7.64-27.23-4.13-6.77-10.66-12.62-18.76-13.52a.5.5,0,0,0-.2,1c15.33,5.09,21.66,19.84,23.84,34.76a98.54,98.54,0,0,1-3.88,44.94c-2.06,6.26-4.72,15.32-11.62,17.77-7.63,2.71-14.79-3.18-18.53-9.27-3.82-6.24-6.19-13.57-8-20.63a101.73,101.73,0,0,1-3.16-23.69,88.92,88.92,0,0,1,2.85-25.11c2.19-7.91,7-15.6,15.42-17.66,1.29-.31.61-2.28-.68-2-16,4-18.77,24.32-19.46,38.07C1561.87,531.86,1565,550.16,1573,565.16Z"/><path class="cls-8" d="M168.61,251.93a28.47,28.47,0,0,1-3,3.9,31.74,31.74,0,0,1-5.37,4.66c-13.15,9-30.15,5.36-40.61-4.53a29.17,29.17,0,0,1-9.56-20.4,28.45,28.45,0,0,1,2.34-11.88c.78.6,1.57,1.18,2.38,1.75a118.2,118.2,0,0,0,14,8.37q5.73,3.31,11.69,6.21,2.1,1,4.23,2c4.75,2.2,9.53,4.36,14.39,6.34,2.8,1.15,5.62,2.22,8.49,3.22Z"/><path class="cls-4" d="M170.79,247.89a29.42,29.42,0,0,1-2.18,4,28.47,28.47,0,0,1-3,3.9,31.74,31.74,0,0,1-5.37,4.66c-13.15,9-30.15,5.36-40.61-4.53,9.31,2.73,20.61,3.59,29.67-.24q-4.74-2.16-9.45-4.4-2.58-1.22-5.13-2.47c-4.82-2.38-9.57-4.88-14.24-7.54q-5.3-2.72-10.41-5.75a28.45,28.45,0,0,1,2.34-11.88,32,32,0,0,1,2-4.06,1.59,1.59,0,0,1,.13-.22c7.23,2.94,14.33,6.23,21.38,9.56,1.72.82,3.43,1.64,5.14,2.48,4.81,2.38,9.57,4.88,14.24,7.54q3.59,1.83,7.09,3.82Q166.65,245.21,170.79,247.89Z"/><path class="cls-9" d="M123.75,237.54c-8.8,0-8.82,13.7,0,13.7S132.57,237.54,123.75,237.54Z"/><path class="cls-9" d="M140.73,256.57a2.12,2.12,0,0,0-1.43-.59,2,2,0,0,0-2,2,2,2,0,0,0,.59,1.43,2.09,2.09,0,0,0,1.42.59,2.12,2.12,0,0,0,1.43-.59,2,2,0,0,0,0-2.85Z"/><path class="cls-9" d="M151.36,261.39a2.06,2.06,0,0,0-.52-.89l-.41-.32a2,2,0,0,0-1-.27,1.59,1.59,0,0,0-.78.17,1.79,1.79,0,0,0-1.06,1.07,1.38,1.38,0,0,0-.17.77l.07.54a2,2,0,0,0,.51.89l.41.31a1.94,1.94,0,0,0,1,.28,1.58,1.58,0,0,0,.77-.17,1.56,1.56,0,0,0,.65-.42,1.46,1.46,0,0,0,.42-.65,1.59,1.59,0,0,0,.17-.78Z"/><path class="cls-3" d="M193.5,266.24a3.65,3.65,0,0,1-2.48,1.07c-3.45.38-7.44-1.05-10.77-1.94-3.58-1-7.21-2.15-10.62-3.43-9.41-3.52-18.56-7.72-27.66-12-1.72-.82-3.43-1.64-5.13-2.48-4.82-2.38-9.58-4.88-14.25-7.54a174.72,174.72,0,0,1-17.14-10,196.61,196.61,0,0,1-17-13.32,7.31,7.31,0,0,1-2.28-3,2.36,2.36,0,0,1,.39-2.33A3.56,3.56,0,0,1,89,210.17c3.45-.38,7.44,1.05,10.77,1.94,3.58,1,7.22,2.15,10.62,3.42,9.41,3.52,18.57,7.73,27.66,12q2.58,1.22,5.14,2.48c4.81,2.37,9.57,4.88,14.24,7.53a176.14,176.14,0,0,1,17.15,10,163.28,163.28,0,0,1,14.09,10.88l2.92,2.44C193,262.07,195,264.38,193.5,266.24Z"/><path class="cls-4" d="M193.5,266.24a3.65,3.65,0,0,1-2.48,1.07c-3.45.38-7.44-1.05-10.77-1.94-3.58-1-7.21-2.15-10.62-3.43-9.41-3.52-18.56-7.72-27.66-12-1.72-.82-3.43-1.64-5.13-2.48-4.82-2.38-9.58-4.88-14.25-7.54a174.72,174.72,0,0,1-17.14-10,196.61,196.61,0,0,1-17-13.32,7.31,7.31,0,0,1-2.28-3,115.64,115.64,0,0,0,14.08,10.85,173.8,173.8,0,0,0,17.15,10c4.67,2.65,9.43,5.15,14.24,7.53q2.55,1.26,5.13,2.48c9.1,4.3,18.25,8.51,27.67,12,3.4,1.27,7,2.46,10.61,3.42,3.33.89,7.32,2.32,10.78,1.94a3.6,3.6,0,0,0,2.47-1.07,2.36,2.36,0,0,0,.4-2.3l2.92,2.44C193,262.07,195,264.38,193.5,266.24Z"/><path class="cls-8" d="M173.38,237.75a32.53,32.53,0,0,1-.61,4.05,31,31,0,0,1-1.76,5.57c-.06.18-.15.35-.22.52a26.68,26.68,0,0,1-1.23,2.45c-.3.55-.62,1.07-.95,1.59l-1.06-.34c-2.87-1-5.69-2.07-8.49-3.22-4.86-2-9.64-4.14-14.39-6.34q-2.13-1-4.23-2-6-2.89-11.69-6.21a118.2,118.2,0,0,1-14-8.37c-.81-.57-1.6-1.15-2.38-1.75q.21-.52.45-1.05a33.48,33.48,0,0,1,1.58-3,1.59,1.59,0,0,1,.13-.22l.4-.65a30.39,30.39,0,0,1,6.11-7.17c11.49-9.82,28.31-8.61,39.79-.38C169,217,174.4,226.34,173.38,237.75Z"/><path class="cls-4" d="M173.38,237.75a32.53,32.53,0,0,1-.61,4.05,31,31,0,0,1-2,6.09,29.42,29.42,0,0,1-2.18,4l-1.06-.34c-2.87-1-5.69-2.07-8.49-3.22l.43-.56a25.34,25.34,0,0,0,2.89-5c4.09-9.44,2.71-21.42-1.55-31.6C169,217,174.4,226.34,173.38,237.75Z"/><path class="cls-9" d="M143.85,221.54a5.42,5.42,0,0,0-1.39-2.38l-1.1-.85a5.31,5.31,0,0,0-2.72-.73,6,6,0,0,0-3.82,1.58,4.13,4.13,0,0,0-1.11,1.74,4,4,0,0,0-.47,2.08c.07.48.13,1,.2,1.44a5.31,5.31,0,0,0,1.38,2.38l1.1.85a5.42,5.42,0,0,0,2.72.74,4.13,4.13,0,0,0,2.08-.47A5.59,5.59,0,0,0,144,223C144,222.5,143.91,222,143.85,221.54Z"/><path class="cls-9" d="M154.1,223.06a1.53,1.53,0,0,0,0,3.05A1.53,1.53,0,0,0,154.1,223.06Z"/><path class="cls-9" d="M156.81,237.59a2.73,2.73,0,0,0-.72-1.24l-.57-.44a2.74,2.74,0,0,0-1.42-.39,2.26,2.26,0,0,0-1.09.24,2.64,2.64,0,0,0-1.49,1.49,2.26,2.26,0,0,0-.24,1.09l.1.75a2.84,2.84,0,0,0,.73,1.25l.57.44a2.82,2.82,0,0,0,1.42.38,2,2,0,0,0,1.08-.24,2.5,2.5,0,0,0,1.49-1.49,2.05,2.05,0,0,0,.24-1.09C156.88,238.09,156.85,237.84,156.81,237.59Z"/><path class="cls-9" d="M170.47,228.44a5.45,5.45,0,0,0-1.39-2.39l-1.1-.85a5.31,5.31,0,0,0-2.72-.73,4,4,0,0,0-2.08.46,4.88,4.88,0,0,0-2.86,2.86,4.17,4.17,0,0,0-.47,2.09c.07.47.13,1,.2,1.43a5.31,5.31,0,0,0,1.39,2.39l1.09.85a5.43,5.43,0,0,0,2.73.74,4.16,4.16,0,0,0,2.08-.47,5.59,5.59,0,0,0,3.32-4.94C170.6,229.4,170.53,228.92,170.47,228.44Z"/><path class="cls-9" d="M127.76,221.62a5.42,5.42,0,0,0-1.39-2.38l-1.09-.85a5.46,5.46,0,0,0-2.73-.74,5.55,5.55,0,0,0-5.4,5.41c.06.48.13,1,.19,1.44a5.45,5.45,0,0,0,1.39,2.39l1.09.84a5.38,5.38,0,0,0,2.73.74,6,6,0,0,0,3.82-1.58,6,6,0,0,0,1.58-3.83C127.89,222.58,127.82,222.1,127.76,221.62Z"/><path class="cls-9" d="M140.81,233.5c-2.53,0-2.53,3.94,0,3.94S143.35,233.5,140.81,233.5Z"/><path class="cls-5" d="M150.52,210.27a8.66,8.66,0,0,0-1-.7c-4.35-3.78-15.36-2.45-20.28-.16-7.59,3.54-5.59,11.38,2.27,13.55,6.46,1.79,16.86.27,20.28-4.83A5.71,5.71,0,0,0,150.52,210.27Z"/><path class="cls-7" d="M423.82,771.25c-11.8-5.78-22.06,13.21-9.51,19.3a11.06,11.06,0,0,0,10.6-.75C431.73,785.49,431,774.78,423.82,771.25Z"/><path class="cls-7" d="M406.3,798.89c-2.15-1.68-4.93-2.45-7.65-1a7.42,7.42,0,0,0-1.81,11.76,6.77,6.77,0,0,0,9.92-.84c2.15-2.54,2.65-7,.29-9.28A9.06,9.06,0,0,0,406.3,798.89Z"/><path class="cls-7" d="M455.43,816.79a6.16,6.16,0,0,0-.2-3.1l-.68-1.4a6,6,0,0,0-2.37-2.1,4.58,4.58,0,0,0-2.33-.58,6.22,6.22,0,0,0-5.8,3.31c-.18.51-.35,1-.53,1.54a6.05,6.05,0,0,0,.21,3.1c.22.46.45.93.67,1.4a6.15,6.15,0,0,0,2.37,2.1,5.85,5.85,0,0,0,6.63-.87,4.66,4.66,0,0,0,1.51-1.86Z"/><path class="cls-7" d="M447.11,772.67A29.15,29.15,0,0,0,392.3,770c-4.81,11.67-1.84,28.25,10.25,34.3.05,0,.11,0,.07-.08-6.61-8.34-11.93-17.33-9.51-28.4a26.69,26.69,0,0,1,49.39-7.51,26.36,26.36,0,0,1-4.06,30.78c-8.71,9.12-21.94,9.49-32.64,3.91-1-.52-2.11,1-1.14,1.7,9.36,6.59,22.91,6.06,32.06-.73A29.08,29.08,0,0,0,447.11,772.67Z"/><path class="cls-7" d="M447.51,816.92a53.53,53.53,0,0,1-49.3,1,39.06,39.06,0,0,1-20.51-43.84c3.73-16.8,19.23-34.32,37-36.42,17.06-2,34.62,9.27,42.95,23.69a41.56,41.56,0,0,1,5.15,26.88c-1.44,9.77-6.24,17.41-12.36,24.88a.23.23,0,0,0,.3.34c15.12-9.25,18.12-32,12.2-47.36-6.52-16.93-23.61-30.35-41.84-31.74-19.32-1.46-37.25,14.74-44,31.84s-2.67,37.88,12.25,49.39c17,13.09,41.2,13.61,59.64,3.42C450.37,818.21,448.92,816.15,447.51,816.92Z"/><path class="cls-7" d="M1319,851.52a2.34,2.34,0,0,0-1.49-1.71c-4-1.44-9-3.69-13.5-4.31a86.39,86.39,0,0,0,4.25-9.29c.28-.69.55-1.38.82-2.08a17,17,0,0,0,3.1,1.85c1.45.63,2.9,1.43,4.48,1.16a1.82,1.82,0,0,0,1.13-3c-.86-1.28-2.62-1.81-4-2.39a16.25,16.25,0,0,0-3.4-.92l1.62-4.12a25.21,25.21,0,0,0,1.73-5.05c.7.27,1.42.52,2.13.77,3.19,1.16,6.33,2.25,9.42,3.67a2.41,2.41,0,0,0,2.35-.31,1.76,1.76,0,0,0,.84-1.55,2.5,2.5,0,0,0-1.6-2.38l-.27-.13c-2-.91-3.87-1.87-5.86-2.67a31.34,31.34,0,0,0-3.38-1.16c-1.17-.32-2.29-.87-3.48-1.08a4.18,4.18,0,0,0-2.68.3,5.79,5.79,0,0,0-2.15,2.53c-.5.9-1,1.83-1.39,2.77-1.09,2.39-2,4.83-3,7.28s-2,5.11-2.88,7.7c-.82,2.35-1.76,4.68-2.44,7.07a4.27,4.27,0,0,0-.2,2.23,2.43,2.43,0,0,0,1.28,1.52c.73.4,1.4.9,2.16,1.25a46.8,46.8,0,0,0,5.06,1.81c2.76,1,5.53,1.77,8.34,2.57a2.32,2.32,0,0,0,2.24-.3C1319,852.81,1319.14,852.6,1319,851.52Z"/><path class="cls-7" d="M1338.93,836.56c-3.93-2.68-9.1-4.23-13.72-5.07a1.4,1.4,0,0,0-1,2.5c4,2.52,8.83,4.87,13.54,5.57A1.67,1.67,0,0,0,1338.93,836.56Z"/><path class="cls-7" d="M1336.07,844.16c-3.93-2.67-9.1-4.22-13.72-5.07a1.4,1.4,0,0,0-.95,2.51c4,2.52,8.83,4.87,13.54,5.57A1.68,1.68,0,0,0,1336.07,844.16Z"/><path class="cls-7" d="M1366.27,855.47c1.75-5.12,3.87-10.24,5-15.53.38-1.77-1.25-2.57-2.78-2.54-1.91,0-3.41,1.48-4.9,2.52a74.47,74.47,0,0,0-9.12,7.72,75.89,75.89,0,0,0-1.77-11.83c-.44-1.77-.61-3.84-2-5.13-1.12-1-2.88-1.51-3.76.08-2.63,4.72-4.41,10-6.46,15s-4.57,9.88-4.94,15.28a1.26,1.26,0,0,0,2.25.85c3.34-3.89,4.93-8.83,6.85-13.52,1.21-3,2.57-5.91,3.79-8.92a115.24,115.24,0,0,0,2,13.4,2.14,2.14,0,0,0,.17.66,1.3,1.3,0,0,0,.08.17.25.25,0,0,0,0,.07,2,2,0,0,0,2.53,1l.09,0,.16-.08a2.18,2.18,0,0,0,.57-.38,115.32,115.32,0,0,0,10.35-8.72c-1.06,3.06-2,6.19-3,9.21-1.64,4.79-3.7,9.55-3.76,14.68a1.26,1.26,0,0,0,2.26.85C1363.19,865.92,1364.54,860.52,1366.27,855.47Z"/><path class="cls-7" d="M1383.8,870.11c-4,2-7.87,1.36-10.06-2.64-2.07-3.76-1.13-8.23.65-12,1.54-3.28,4-7.74,8-8.53,2.65-.52,5.22.94,7.11,2.52.82.69,1.49,1.82,2.72,1.74a1.79,1.79,0,0,0,1.76-2c-1.06-4.72-7.6-7.89-12.27-7.08-6.61,1.15-10.75,8.25-12.71,13.86s-1.79,12.18,2.55,16.55c3.63,3.65,10.13,4.72,14.37,1.12C1387.67,872.13,1386.11,869,1383.8,870.11Z"/><path class="cls-7" d="M1403.16,848.68c-.79-.29-1.92-.7-2.72-1,2.15-1.1,4.76-2.94,4.12-5.16a3.35,3.35,0,0,0-3-2.33,3,3,0,0,0-2.39.68,1,1,0,0,0-.29.84.89.89,0,0,0,.63.67c.72.23,1.4-.34,2.1.08a1,1,0,0,1,.41,1.17c-.57,1.5-3.65,2.31-5,2.65s-1.71,2.13-.42,2.6l5.76,2.12A1.25,1.25,0,1,0,1403.16,848.68Z"/><path class="cls-7" d="M209.84,95.73c-4.54.87-8-3.94-8.89-7.62a15.08,15.08,0,0,1-.32-1.92c9.11-6.41,17.7-15.43,17.32-24.07a.46.46,0,0,0-.55-.46c-6.16,1.19-11.62,6.53-16.71,11.26a31.24,31.24,0,0,0-.37-4.83c-1-6-4-11.94-9.68-14.71-13.79-6.81-26.85,10.71-28.45,22.75C160.28,90.49,173.61,98.66,186.45,94a51.29,51.29,0,0,0,6.47-3,18.94,18.94,0,0,0,2.15,5.36,15.16,15.16,0,0,0,16.63,7.37C216.87,102.63,215,94.74,209.84,95.73ZM187.67,83a16.61,16.61,0,0,1-5.34,2,8.8,8.8,0,0,1-6.87-1.29c-2.62-2-3.39-5.7-2.72-8.92.85-4.05,3.25-8.51,6.81-10.75a9,9,0,0,1,7-1.26,7.24,7.24,0,0,1,5.21,7.25,54.15,54.15,0,0,1,.4,9.87A50.64,50.64,0,0,1,187.67,83Z"/></g></g></g></g></svg>