<?xml version="1.0" encoding="utf-8"?>
<!-- Generator: Adobe Illustrator 23.1.0, SVG Export Plug-In . SVG Version: 6.00 Build 0)  -->
<svg version="1.1" id="Слой_1" xmlns="http://www.w3.org/2000/svg" xmlns:xlink="http://www.w3.org/1999/xlink" x="0px" y="0px"
	 viewBox="0 0 260 370" style="enable-background:new 0 0 260 370;" xml:space="preserve">
<style type="text/css">
	.st0{fill:#263238;}
	.st1{fill:#A3CB8F;}
	.st2{opacity:0.2;}
	.st3{fill:#455A64;}
</style>
<g>
	<g>
		<g>
			<g>
				<g>
					<rect x="66.6" y="254.94" class="st0" width="135.45" height="18.56"/>
				</g>
			</g>
		</g>
		<g>
			<g>
				<g>
					<path class="st0" d="M202.28,273.73H66.37v-19.02h135.91V273.73z M66.83,273.27h134.99v-18.1H66.83V273.27z"/>
				</g>
			</g>
		</g>
	</g>
	<g>
		<g>
			<g>
				<g>
					<polygon class="st0" points="79.16,267.32 98.65,363.25 170.79,363.25 189.64,273.5 					"/>
				</g>
			</g>
		</g>
	</g>
	<g>
		<g>
			<g>
				<g>
					<polygon class="st0" points="79.16,354.17 89.55,368.43 177.24,368.43 189.64,354.17 					"/>
				</g>
			</g>
		</g>
	</g>
	<g>
		<g>
			<g>
				<g>
					<g>
						<path class="st0" d="M129.24,270.12c-0.27,0-0.61-44.44-0.76-99.25c-0.15-54.83-0.06-99.26,0.2-99.26s0.61,44.43,0.76,99.26
							C129.59,225.68,129.5,270.12,129.24,270.12z"/>
					</g>
				</g>
			</g>
		</g>
	</g>
	<g>
		<g>
			<g>
				<g>
					<g>
						<path class="st0" d="M159.41,158.91c0.03,0.01-0.1,0.37-0.36,1.03c-0.32,0.75-0.72,1.71-1.21,2.88
							c-0.27,0.63-0.56,1.32-0.88,2.07c-0.28,0.78-0.58,1.62-0.9,2.52c-0.33,0.91-0.68,1.87-1.04,2.89c-0.36,1.03-0.65,2.14-1,3.3
							c-1.48,4.6-2.66,10.25-3.79,16.54c-0.99,6.32-1.73,13.31-2.1,20.68c-0.66,14.76,0.18,28.14,1.07,37.78
							c0.44,4.82,0.87,8.72,1.2,11.41c0.14,1.26,0.25,2.29,0.34,3.1c0.07,0.71,0.09,1.09,0.05,1.09c-0.03,0-0.12-0.36-0.25-1.06
							c-0.14-0.81-0.31-1.83-0.52-3.08c-0.44-2.68-0.98-6.57-1.5-11.39c-1.07-9.64-2.02-23.07-1.36-37.9
							c0.37-7.41,1.14-14.44,2.18-20.78c1.19-6.32,2.44-11.98,4.01-16.59c0.38-1.16,0.69-2.27,1.07-3.3
							c0.39-1.02,0.77-1.98,1.12-2.89c0.35-0.89,0.68-1.73,0.98-2.51c0.33-0.76,0.68-1.43,0.97-2.05c0.56-1.14,1.02-2.07,1.38-2.81
							C159.19,159.22,159.38,158.9,159.41,158.91z"/>
					</g>
				</g>
			</g>
		</g>
	</g>
	<g>
		<g>
			<g>
				<g>
					<g>
						<path class="st0" d="M155.95,122.97c0.03,0.01-0.12,0.52-0.43,1.47c-0.35,1.03-0.82,2.4-1.41,4.13
							c-0.31,0.9-0.66,1.9-1.04,2.98c-0.34,1.11-0.7,2.31-1.09,3.59c-0.79,2.57-1.71,5.49-2.53,8.78c-0.43,1.64-0.89,3.35-1.36,5.14
							c-0.41,1.8-0.83,3.68-1.27,5.62c-0.95,3.87-1.63,8.07-2.5,12.46c-1.49,8.83-2.81,18.58-3.71,28.88
							c-0.86,10.3-1.23,20.14-1.36,29.1c-0.03,8.95,0.09,17.02,0.46,23.79c0.12,3.39,0.34,6.44,0.51,9.13c0.16,2.69,0.32,5,0.5,6.89
							c0.14,1.82,0.25,3.27,0.33,4.35c0.07,1,0.08,1.52,0.05,1.53c-0.03,0-0.12-0.51-0.24-1.51c-0.13-1.08-0.3-2.52-0.51-4.34
							c-0.23-1.88-0.45-4.19-0.66-6.88c-0.23-2.69-0.49-5.74-0.66-9.13c-0.46-6.77-0.64-14.86-0.66-23.83
							c0.08-8.97,0.43-18.84,1.29-29.17c0.91-10.32,2.26-20.11,3.8-28.95c0.9-4.4,1.61-8.61,2.6-12.48c0.46-1.94,0.9-3.82,1.33-5.62
							c0.49-1.78,0.97-3.5,1.42-5.14c0.86-3.29,1.83-6.2,2.67-8.77c0.42-1.28,0.81-2.47,1.17-3.57c0.41-1.07,0.78-2.06,1.12-2.96
							c0.66-1.7,1.19-3.06,1.58-4.08C155.7,123.44,155.91,122.96,155.95,122.97z"/>
					</g>
				</g>
			</g>
		</g>
	</g>
	<g>
		<g>
			<g>
				<g>
					<g>
						<path class="st0" d="M120.67,277.98c-0.02,0-0.04-0.18-0.08-0.52c-0.03-0.4-0.08-0.9-0.13-1.53c-0.1-1.42-0.23-3.38-0.4-5.88
							c-0.33-5.18-0.79-12.56-1.36-21.65c-1.18-18.27-2.88-43.52-5.96-71.28c-1.58-13.88-3.4-27.06-5.3-39.02
							c-1.01-5.97-1.93-11.64-2.97-16.93c-0.95-5.3-1.98-10.2-2.92-14.68c-0.89-4.49-1.88-8.51-2.68-12.06
							c-0.78-3.55-1.54-6.59-2.18-9.07c-0.6-2.43-1.07-4.35-1.41-5.73c-0.14-0.61-0.25-1.11-0.34-1.5c-0.07-0.34-0.1-0.51-0.08-0.52
							c0.02,0,0.08,0.16,0.18,0.49c0.11,0.38,0.26,0.87,0.43,1.47c0.38,1.37,0.91,3.27,1.58,5.68c0.69,2.47,1.5,5.5,2.34,9.04
							c0.85,3.54,1.89,7.55,2.82,12.04c0.99,4.47,2.06,9.38,3.04,14.68c1.07,5.28,2.02,10.96,3.06,16.93
							c1.95,11.96,3.81,25.16,5.38,39.05c3.09,27.79,4.68,53.06,5.68,71.35c0.5,9.15,0.84,16.55,1.05,21.67
							c0.09,2.5,0.17,4.48,0.22,5.89c0.01,0.63,0.02,1.13,0.03,1.53C120.69,277.81,120.69,277.98,120.67,277.98z"/>
					</g>
				</g>
			</g>
		</g>
	</g>
	<g>
		<g>
			<g>
				<g>
					<path class="st1" d="M128.13,92.98c-0.59-6.3-6.97-11.05-13.31-11.11c-6.34-0.07-12.25,3.73-16.13,8.73
						c-3.88,5-6.02,11.11-7.76,17.19c-4.27,14.83-6.6,30.42-4.78,45.74c1.83,15.32,8.06,30.41,19.09,41.24
						c1.79,1.76,4.11,3.52,6.57,3c1.35-0.29,2.45-1.22,3.47-2.14c21.66-19.51,34.17-48.74,33.31-77.84
						c-0.17-5.83-0.94-11.89-4.17-16.75C141.18,96.18,133.64,91.03,128.13,92.98"/>
				</g>
			</g>
		</g>
	</g>
	<g>
		<g>
			<g>
				<g>
					<g>
						<path class="st1" d="M80.79,42.55c-2.98,5.38-5.95,10.75-8.93,16.13c-0.21,0.38-0.48,0.8-0.91,0.83
							c-0.47,0.04-0.82-0.4-1.08-0.8C62,46.67,54.13,34.63,46.26,22.58l5.44-3.07L80.79,42.55z"/>
					</g>
				</g>
			</g>
		</g>
		<g class="st2">
			<g>
				<g>
					<g>
						<g>
							<path d="M80.79,42.55c-2.98,5.38-5.95,10.75-8.93,16.13c-0.21,0.38-0.48,0.8-0.91,0.83c-0.47,0.04-0.82-0.4-1.08-0.8
								C62,46.67,54.13,34.63,46.26,22.58l5.44-3.07L80.79,42.55z"/>
						</g>
					</g>
				</g>
			</g>
		</g>
		<g>
			<g>
				<g>
					<g>
						<path class="st1" d="M128.68,71.61c-26.84-15.8-53.69-31.59-80.53-47.39c-0.82-0.48-1.71-1.05-1.96-1.97
							c-0.32-1.19,0.57-2.33,1.43-3.22c11.08-11.4,27.16-18,43.04-16.86c15.87,1.14,31.14,10.28,38.91,24.13
							C137.33,40.15,137.59,58.47,128.68,71.61"/>
					</g>
				</g>
			</g>
		</g>
		<g>
			<g>
				<g>
					<g>
						<g>
							<path class="st0" d="M59.75,9.09c0-0.03,0.36-0.08,1.05-0.13c0.69-0.03,1.72-0.16,3.04-0.15c2.65-0.06,6.49,0.11,11.17,0.88
								c4.68,0.77,10.17,2.27,15.91,4.82c5.74,2.54,11.67,6.22,17.08,11.05c5.36,4.89,9.63,10.41,12.73,15.85
								c3.12,5.44,5.16,10.75,6.4,15.31c1.24,4.57,1.8,8.37,2,11c0.15,1.31,0.12,2.34,0.16,3.03c0.02,0.69,0.01,1.06-0.03,1.06
								c-0.09,0-0.19-1.45-0.51-4.05c-0.31-2.6-0.97-6.36-2.28-10.85c-2.55-8.94-8.46-21-19.12-30.64
								C96.7,16.67,84.08,12.01,74.9,10.37c-4.62-0.85-8.43-1.13-11.06-1.18C61.22,9.13,59.76,9.18,59.75,9.09z"/>
						</g>
					</g>
				</g>
			</g>
		</g>
		<g>
			<g>
				<g>
					<g>
						<g>
							<path class="st0" d="M117.78,38.9c0.05,0.12-1.5,0.84-4.07,1.85c-2.57,1.01-6.15,2.3-10.16,3.57
								c-4.01,1.27-7.69,2.28-10.37,2.93c-2.68,0.65-4.36,0.96-4.39,0.83c-0.03-0.13,1.58-0.67,4.21-1.49
								c2.97-0.92,6.43-2,10.26-3.2c3.81-1.23,7.26-2.34,10.22-3.29C116.09,39.27,117.73,38.78,117.78,38.9z"/>
						</g>
					</g>
				</g>
			</g>
		</g>
		<g>
			<g>
				<g>
					<g>
						<g>
							<path class="st0" d="M105.1,4.93c0.26-0.02,0.83,3.98,0.95,8.96c0.13,4.98-0.24,9.01-0.5,9c-0.27-0.01-0.34-4.03-0.47-8.97
								C104.96,8.97,104.82,4.95,105.1,4.93z"/>
						</g>
					</g>
				</g>
			</g>
		</g>
		<g>
			<g>
				<g>
					<g>
						<g>
							<path class="st0" d="M47.44,23.32c-0.04-0.12,2.19-0.93,5.85-2.05c3.66-1.13,8.75-2.55,14.43-3.91
								c5.68-1.36,10.87-2.41,14.64-3.07c3.77-0.66,6.12-0.96,6.15-0.83c0.02,0.14-2.28,0.67-6.01,1.5
								c-3.73,0.83-8.88,1.98-14.55,3.34c-5.66,1.36-10.77,2.68-14.47,3.63C49.78,22.88,47.48,23.46,47.44,23.32z"/>
						</g>
					</g>
				</g>
			</g>
		</g>
	</g>
	<g>
		<g>
			<g>
				<g>
					<g>
						<path class="st1" d="M91.54,78.08c-6.93-5.24-14.25-6.27-22.93-5.93c-8.69,0.34-17.14,2.98-25.1,6.46
							c-13.58,5.93-26.34,14.67-34.46,27.05c-8.11,12.37-10.94,28.75-4.86,42.24c0.61,1.34,1.39,2.75,2.75,3.33
							c1.43,0.61,3.07,0.13,4.54-0.35c15.44-5.02,31-10.1,45.2-17.97c14.2-7.87,27.13-18.81,34.75-33.12
							c1.83-3.43,3.36-7.11,3.66-10.99C95.39,84.93,94.31,80.81,91.54,78.08"/>
					</g>
				</g>
			</g>
		</g>
		<g>
			<g>
				<g>
					<g>
						<g>
							<path class="st0" d="M91.68,76.45c0.01,0.03-0.37,0.19-1.11,0.45c-0.84,0.29-1.91,0.65-3.24,1.11
								c-0.71,0.24-1.5,0.5-2.34,0.78c-0.85,0.3-1.75,0.68-2.74,1.06c-1.95,0.79-4.22,1.58-6.61,2.73
								c-1.21,0.55-2.47,1.12-3.79,1.72c-1.31,0.6-2.62,1.35-4.01,2.05c-2.8,1.37-5.63,3.12-8.65,4.9
								c-5.92,3.73-12.19,8.23-18.29,13.53c-6.05,5.36-11.32,10.99-15.78,16.37c-2.15,2.76-4.25,5.34-5.98,7.93
								c-0.88,1.28-1.78,2.49-2.55,3.71c-0.76,1.22-1.49,2.4-2.19,3.53c-1.45,2.22-2.53,4.36-3.56,6.19c-0.5,0.92-1,1.77-1.41,2.57
								c-0.39,0.8-0.75,1.54-1.07,2.22c-0.62,1.26-1.12,2.27-1.52,3.06c-0.36,0.7-0.56,1.06-0.59,1.04
								c-0.03-0.01,0.11-0.4,0.41-1.12c0.35-0.81,0.8-1.85,1.35-3.14c0.31-0.69,0.64-1.44,1-2.26c0.39-0.82,0.86-1.68,1.34-2.62
								c0.99-1.86,2.03-4.04,3.45-6.29c0.69-1.14,1.41-2.34,2.15-3.58c0.76-1.24,1.65-2.46,2.52-3.76c1.7-2.63,3.8-5.24,5.94-8.03
								c4.46-5.45,9.75-11.14,15.84-16.53c6.14-5.34,12.47-9.84,18.46-13.56c3.05-1.77,5.91-3.5,8.75-4.85
								c1.4-0.69,2.73-1.42,4.06-2.02c1.33-0.58,2.61-1.14,3.83-1.67c2.42-1.12,4.72-1.87,6.7-2.61c1-0.36,1.91-0.71,2.78-0.99
								c0.86-0.25,1.65-0.49,2.38-0.7c1.35-0.39,2.45-0.7,3.3-0.94C91.27,76.51,91.67,76.42,91.68,76.45z"/>
						</g>
					</g>
				</g>
			</g>
		</g>
		<g>
			<g>
				<g>
					<g>
						<g>
							<path class="st0" d="M37.57,105.67c0.07,0.26-7.47,2.68-16.85,5.41c-9.38,2.74-17.04,4.75-17.12,4.49
								c-0.07-0.26,7.47-2.68,16.85-5.41C29.83,107.43,37.5,105.42,37.57,105.67z"/>
						</g>
					</g>
				</g>
			</g>
		</g>
		<g>
			<g>
				<g>
					<g>
						<g>
							<path class="st0" d="M36.88,142.75c-0.13,0-0.28-2-0.37-5.24c-0.09-3.24-0.1-7.71,0.03-12.65c0.14-4.94,0.4-9.41,0.67-12.63
								c0.27-3.23,0.53-5.21,0.66-5.21c0.14,0.01,0.11,2.01,0.02,5.24c-0.11,3.55-0.24,7.86-0.39,12.62
								c-0.12,4.77-0.23,9.08-0.32,12.62C37.11,140.75,37.02,142.75,36.88,142.75z"/>
						</g>
					</g>
				</g>
			</g>
		</g>
		<g>
			<g>
				<g>
					<g>
						<g>
							<path class="st0" d="M68.73,126.57c-0.27,0.02-1.11-9.07-1.89-20.3c-0.78-11.23-1.19-20.35-0.93-20.37
								c0.27-0.02,1.11,9.07,1.89,20.31C68.58,117.43,68.99,126.55,68.73,126.57z"/>
						</g>
					</g>
				</g>
			</g>
		</g>
		<g>
			<g>
				<g>
					<g>
						<g>
							<path class="st0" d="M29.08,85.01c0.01-0.13,2.07-0.19,5.4-0.16c3.33,0.02,7.93,0.12,13,0.29c5.08,0.17,9.67,0.37,12.99,0.57
								c3.32,0.2,5.38,0.38,5.38,0.52c0,0.13-2.06,0.19-5.39,0.16c-3.33-0.02-7.93-0.12-13.01-0.29c-5.08-0.17-9.67-0.37-13-0.57
								C31.13,85.33,29.08,85.14,29.08,85.01z"/>
						</g>
					</g>
				</g>
			</g>
		</g>
	</g>
	<g>
		<g>
			<g>
				<g>
					<g>
						<path class="st0" d="M108.69,199.09c-0.03,0-0.07-0.38-0.12-1.1c-0.04-0.83-0.08-1.87-0.14-3.15
							c-0.12-2.74-0.15-6.71-0.05-11.62c0.09-4.91,0.41-10.74,0.99-17.21c0.63-6.46,1.53-13.54,2.83-20.92
							c1.33-7.37,2.94-14.33,4.58-20.61c1.69-6.27,3.41-11.86,5.02-16.49c1.6-4.64,3-8.36,4.06-10.89c0.5-1.19,0.9-2.15,1.23-2.91
							c0.29-0.66,0.46-1,0.49-0.99c0.03,0.01-0.08,0.38-0.31,1.06c-0.28,0.78-0.63,1.76-1.06,2.97c-0.95,2.57-2.25,6.31-3.77,10.97
							c-1.53,4.65-3.17,10.24-4.81,16.5c-1.6,6.27-3.16,13.21-4.49,20.56c-1.3,7.35-2.23,14.4-2.9,20.83
							c-0.63,6.44-1.02,12.25-1.2,17.14c-0.19,4.89-0.27,8.85-0.26,11.59c-0.02,1.28-0.03,2.33-0.04,3.15
							C108.75,198.71,108.73,199.09,108.69,199.09z"/>
					</g>
				</g>
			</g>
		</g>
	</g>
	<g>
		<g>
			<g>
				<g>
					<g>
						<path class="st0" d="M112.94,144.29c0.09,0.09-1.13,1.44-3.21,3.52c-2.08,2.07-5.04,4.85-8.42,7.81
							c-3.38,2.95-6.53,5.51-8.86,7.3c-2.33,1.79-3.83,2.82-3.92,2.72c-0.08-0.11,1.27-1.32,3.48-3.24c2.47-2.14,5.41-4.69,8.66-7.5
							c3.22-2.84,6.13-5.41,8.59-7.58C111.46,145.37,112.85,144.19,112.94,144.29z"/>
					</g>
				</g>
			</g>
		</g>
	</g>
	<g>
		<g>
			<g>
				<g>
					<g>
						<path class="st0" d="M138.43,164.77c-0.12,0.07-1.39-1.75-3.42-4.73c-2.2-3.2-4.93-7.18-7.96-11.58
							c-3.09-4.36-5.88-8.3-8.12-11.47c-2.09-2.93-3.36-4.76-3.25-4.84c0.1-0.08,1.57,1.6,3.8,4.43c2.23,2.83,5.22,6.82,8.37,11.33
							c3.15,4.51,5.85,8.69,7.74,11.76C137.47,162.75,138.54,164.7,138.43,164.77z"/>
					</g>
				</g>
			</g>
		</g>
	</g>
	<g>
		<g>
			<g>
				<g>
					<g>
						<path class="st0" d="M125.08,100.37c0.14,0.22-8.32,5.91-18.91,12.7c-10.59,6.79-19.29,12.11-19.43,11.89
							c-0.14-0.22,8.32-5.91,18.91-12.7C116.23,105.47,124.93,100.15,125.08,100.37z"/>
					</g>
				</g>
			</g>
		</g>
	</g>
	<g>
		<g>
			<g>
				<g>
					<g>
						<path class="st0" d="M148.95,126.07c-0.19,0.19-5.92-5.09-12.81-11.8c-6.89-6.71-12.32-12.3-12.13-12.49
							c0.19-0.19,5.92,5.09,12.81,11.8C143.71,120.29,149.14,125.88,148.95,126.07z"/>
					</g>
				</g>
			</g>
		</g>
	</g>
	<g>
		<g>
			<g>
				<g>
					<g>
						<path class="st1" d="M154.96,125.55l7.27-0.6c5.16-0.43,10.17-1.95,14.68-4.48c2.23-1.25,4.47-2.48,6.84-3.43
							c8.99-3.6,19.01-2.95,28.68-3.44c15.79-0.79,31.4-4.77,45.63-11.64c0.82-0.4,1.55-1,1.99-1.8c1.49-2.71-1.28-5.13-3.67-6.59
							c-12.25-7.53-24.71-15.15-38.6-18.88c-13.89-3.74-29.65-3.1-41.5,5.03C162.38,89.27,157.31,108.88,154.96,125.55"/>
					</g>
				</g>
			</g>
		</g>
		<g>
			<g>
				<g>
					<g>
						<g>
							<path class="st0" d="M260.21,99.28c-0.02,0.03-0.44-0.17-1.23-0.57c-0.87-0.46-2.02-1.05-3.45-1.8
								c-2.99-1.57-7.29-3.88-12.72-6.48c-5.44-2.57-12.03-5.47-19.7-7.57c-7.64-2.12-16.45-3.22-25.53-2.06
								c-9.05,1.19-17.38,4.7-23.27,9.97c-5.93,5.25-9.56,11.59-12.12,16.98c-2.55,5.43-4.13,10.06-5.27,13.22
								c-0.54,1.52-0.97,2.73-1.29,3.66c-0.3,0.83-0.48,1.27-0.51,1.26c-0.03-0.01,0.08-0.46,0.32-1.32
								c0.28-0.94,0.66-2.17,1.12-3.72c1.04-3.2,2.52-7.87,5.01-13.38c2.5-5.46,6.11-11.94,12.15-17.35
								c6.01-5.43,14.53-9.05,23.74-10.26c9.24-1.18,18.19-0.02,25.89,2.16c7.74,2.17,14.34,5.15,19.76,7.81
								c5.42,2.69,9.67,5.09,12.61,6.76c1.39,0.81,2.51,1.46,3.36,1.96C259.84,99,260.23,99.25,260.21,99.28z"/>
						</g>
					</g>
				</g>
			</g>
		</g>
		<g>
			<g>
				<g>
					<g>
						<g>
							<path class="st0" d="M242.76,108.63c-0.15,0.22-9.66-5.91-21.23-13.7c-11.58-7.79-20.84-14.28-20.69-14.5
								c0.15-0.22,9.65,5.91,21.23,13.7C233.64,101.92,242.91,108.41,242.76,108.63z"/>
						</g>
					</g>
				</g>
			</g>
		</g>
		<g>
			<g>
				<g>
					<g>
						<g>
							<path class="st0" d="M233.62,79.53c0.05,0.25-3.25,1.11-7.42,1.48c-4.17,0.39-7.57,0.15-7.57-0.11
								c0-0.27,3.36-0.47,7.48-0.85C230.24,79.69,233.57,79.26,233.62,79.53z"/>
						</g>
					</g>
				</g>
			</g>
		</g>
		<g>
			<g>
				<g>
					<g>
						<g>
							<path class="st0" d="M191,71.92c0.23,0.13-1.17,2.92-3.12,6.22c-1.95,3.3-3.72,5.87-3.95,5.73
								c-0.23-0.14,1.17-2.92,3.12-6.22C189,74.35,190.77,71.78,191,71.92z"/>
						</g>
					</g>
				</g>
			</g>
		</g>
		<g>
			<g>
				<g>
					<g>
						<g>
							<path class="st0" d="M199.52,114.22c-0.07,0.11-1.83-0.81-4.58-2.47c-2.75-1.66-6.46-4.1-10.42-6.97
								c-3.97-2.87-7.46-5.59-9.97-7.58c-2.51-1.99-4.03-3.27-3.95-3.38c0.08-0.11,1.74,0.98,4.36,2.83
								c2.85,2.07,6.31,4.57,10.13,7.34c3.95,2.86,7.58,5.37,10.23,7.18C197.96,112.97,199.59,114.1,199.52,114.22z"/>
						</g>
					</g>
				</g>
			</g>
		</g>
	</g>
	<g>
		<g>
			<g>
				<g>
					<g>
						<path class="st1" d="M165.66,156.35c-6.93-1.83-15.2,4.9-16.63,11.91c-1.43,7.01,1.21,14.18,4.29,20.63
							c6.83,14.29,16.26,27.55,28.67,37.41c12.41,9.87,27.96,16.18,43.84,16.1c-2.93-13.58,0.78-27.76-0.86-41.55
							c-1.43-12.04-7.05-23.54-15.69-32.07c-8.64-8.53-20.23-14.03-32.31-15.33C172.55,152.97,167.42,152.28,165.66,156.35"/>
					</g>
				</g>
			</g>
		</g>
		<g>
			<g>
				<g>
					<g>
						<g>
							<path class="st0" d="M225.83,242.4c-0.02,0.03-0.35-0.13-0.99-0.46c-0.63-0.34-1.53-0.89-2.59-1.74
								c-2.18-1.65-4.67-4.82-6.85-9.13c-1.11-2.14-2.34-4.46-3.55-7.04c-1.17-2.58-2.42-5.33-3.73-8.22
								c-1.32-2.88-2.78-5.87-4.58-8.79c-1.8-2.92-3.94-5.78-6.31-8.56c-4.75-5.56-9.84-10.37-14.25-14.97
								c-4.44-4.58-8.17-8.99-10.87-13c-2.72-4-4.37-7.59-5.31-10.12c-0.45-1.28-0.77-2.27-0.93-2.97
								c-0.18-0.69-0.25-1.05-0.22-1.06c0.09-0.03,0.48,1.41,1.5,3.89c1.04,2.46,2.76,5.96,5.52,9.87
								c2.74,3.93,6.49,8.25,10.94,12.77c4.43,4.55,9.56,9.34,14.35,14.96c2.39,2.81,4.56,5.71,6.38,8.69
								c1.83,2.98,3.28,6.01,4.59,8.91c1.28,2.9,2.5,5.66,3.65,8.25c1.16,2.56,2.37,4.91,3.43,7.06c2.09,4.32,4.42,7.45,6.48,9.16
								C224.52,241.66,225.89,242.3,225.83,242.4z"/>
						</g>
					</g>
				</g>
			</g>
		</g>
		<g>
			<g>
				<g>
					<g>
						<g>
							<path class="st0" d="M189.98,231.11c-0.13-0.02,0.09-1.81,0.64-4.65c0.54-2.85,1.43-6.76,2.63-11.01
								c1.2-4.26,2.49-8.06,3.52-10.77c1.03-2.71,1.77-4.35,1.89-4.3c0.13,0.05-0.39,1.76-1.25,4.52
								c-0.86,2.76-2.04,6.57-3.23,10.81c-1.2,4.24-2.19,8.1-2.9,10.9C190.57,229.41,190.12,231.14,189.98,231.11z"/>
						</g>
					</g>
				</g>
			</g>
		</g>
		<g>
			<g>
				<g>
					<g>
						<g>
							<path class="st0" d="M224.52,197.79c-0.04,0.13-1.9-0.34-4.88-1.12c-2.99-0.78-7.11-1.84-11.7-2.88
								c-4.59-1.03-8.78-1.83-11.81-2.41c-3.03-0.57-4.91-0.94-4.89-1.08c0.02-0.13,1.93,0,5,0.4c3.07,0.4,7.3,1.1,11.91,2.14
								c4.61,1.04,8.73,2.21,11.68,3.16C222.77,196.96,224.56,197.67,224.52,197.79z"/>
						</g>
					</g>
				</g>
			</g>
		</g>
		<g>
			<g>
				<g>
					<g>
						<g>
							<path class="st0" d="M164.25,207.47c-0.13-0.02,0.14-2.09,0.75-5.39c0.61-3.3,1.58-7.84,2.88-12.8
								c1.3-4.96,2.68-9.39,3.76-12.57c1.09-3.18,1.86-5.1,1.99-5.06c0.13,0.04-0.42,2.05-1.33,5.27
								c-0.92,3.22-2.19,7.67-3.48,12.61c-1.29,4.94-2.36,9.44-3.14,12.69C164.89,205.48,164.39,207.5,164.25,207.47z"/>
						</g>
					</g>
				</g>
			</g>
		</g>
		<g>
			<g>
				<g>
					<g>
						<g>
							<path class="st0" d="M208.61,168.74c-0.03,0.26-8.68-0.43-19.33-1.56c-10.65-1.13-19.26-2.25-19.23-2.52
								c0.03-0.26,8.68,0.43,19.33,1.56C200.03,167.35,208.64,168.48,208.61,168.74z"/>
						</g>
					</g>
				</g>
			</g>
		</g>
	</g>
	<g>
		<g>
			<g>
				<g>
					<g>
						<path class="st3" d="M202.27,273.42c0,0.27-30.42,0.48-67.95,0.48c-37.53,0-67.95-0.22-67.95-0.48
							c0-0.27,30.42-0.48,67.95-0.48C171.85,272.94,202.27,273.16,202.27,273.42z"/>
					</g>
				</g>
			</g>
		</g>
	</g>
	<g>
		<g>
			<g>
				<g>
					<g>
						<path class="st3" d="M181.1,312.47c0,0.27-20.5,0.48-45.78,0.48c-25.29,0-45.78-0.22-45.78-0.48c0-0.27,20.49-0.48,45.78-0.48
							C160.61,311.99,181.1,312.2,181.1,312.47z"/>
					</g>
				</g>
			</g>
		</g>
	</g>
	<g>
		<g>
			<g>
				<g>
					<g>
						<path class="st3" d="M181.9,318.05c0,0.27-20.5,0.48-45.78,0.48c-25.29,0-45.78-0.22-45.78-0.48s20.49-0.48,45.78-0.48
							C161.41,317.57,181.9,317.79,181.9,318.05z"/>
					</g>
				</g>
			</g>
		</g>
	</g>
	<g>
		<g>
			<g>
				<g>
					<g>
						<path class="st3" d="M181.9,307.87c0,0.27-21.2,0.48-47.35,0.48c-26.16,0-47.36-0.22-47.36-0.48c0-0.27,21.2-0.48,47.36-0.48
							C160.7,307.39,181.9,307.6,181.9,307.87z"/>
					</g>
				</g>
			</g>
		</g>
	</g>
</g>
</svg>
