<?xml version="1.0" encoding="utf-8"?>
<!-- Generator: Adobe Illustrator 23.1.0, SVG Export Plug-In . SVG Version: 6.00 Build 0)  -->
<svg version="1.1" id="Слой_1" xmlns="http://www.w3.org/2000/svg" xmlns:xlink="http://www.w3.org/1999/xlink" x="0px" y="0px"
	 viewBox="0 0 395 450" style="enable-background:new 0 0 395 450;" xml:space="preserve">
<style type="text/css">
	.st0{fill:#B4B2CF;}
	.st1{fill:#E0E0E0;}
	.st2{fill:#EBEBEB;}
	.st3{clip-path:url(#SVGID_2_);fill:url(#SVGID_3_);}
	.st4{fill:#455A64;}
	.st5{fill:none;stroke:#263238;stroke-linecap:round;stroke-miterlimit:10;}
	.st6{fill:#263238;}
	.st7{fill:#F7E85C;}
	.st8{clip-path:url(#SVGID_5_);fill:#263238;}
	.st9{fill:none;stroke:#263238;stroke-width:0.25;stroke-miterlimit:10;}
	.st10{clip-path:url(#SVGID_7_);fill:url(#SVGID_8_);}
</style>
<g>
	<g>
		<path class="st0" d="M269.72,187.71c-4.62-9.99,5.24-27.1,6.34-28.96c19.11-32.44,25.21-30.68,33.04-48.2
			c6.72-15.02,12.11-38.4,21.64-51.64c1.33-1.85,4.16-5.46,8.81-6.75c6.74-1.87,12.71,2.41,13.37,2.9c1.48,1.1,5.2,4.24,7.3,12.18
			c2.37,8.94,1.3,18.71-4.78,35.07c-8.01,21.52-18.3,37.25-17.85,37.53c0.27,0.17,3.98-5.34,3.89-5.42
			c-0.13-0.1-8.02,9.05-6.79,10.56c1.33,1.64,13.8-5.12,24.06-13.07c5.53-4.3,7.82-6.93,12.75-7.82c0.8-0.15,9.15-1.53,14.62,3.65
			c8.2,7.78,2.91,23.69,2.27,25.53c-6.22,17.95-31.57,21.1-30.59,24.66c0.59,2.15,9.07-0.3,21.43,3.87
			c5.84,1.97,10.76,3.7,13.29,8.49c3.34,6.31,0.66,14.45-2.5,19.2c-4.54,6.82-11.65,8.68-18.41,10.45c-9.47,2.48-17,1.72-29.39,0.36
			c-6.47-0.71-14.18-1.59-24.26-4.3c-10.85-2.92-18.65-6.83-34.25-14.66c-2.49-1.25-6.72-3.43-10.47-8.05
			C273.25,193.29,271.05,190.58,269.72,187.71"/>
		<path d="M267.61,437.96c0.56,1.16,2.66,5.45,1.11,9.16c-2.68,6.4-14.43,6.69-27.66,6.87c-24.14,0.33-26.12-4.92-38.72-1.14
			c-4.59,1.37-9.2,3.54-12.17,1.14c-2.95-2.38-3.42-8.57-1.11-12.59c3.22-5.61,11.35-6.15,22.13-6.87c11.76-0.78,11.92,1.42,19.92,0
			c11.3-2,12.82-6.49,21.02-5.72C254.22,429,263.83,430.21,267.61,437.96"/>
		<path d="M272.03,160.17c-0.32-1.97-1.06-5.79-3.72-9.35c-0.85-1.14-4.08-5.39-8.3-5.67c-3.59-0.24-7.19,2.67-11.46,9.21
			c-7.09,10.85-7.87,19.19-11.89,33.29c-9.3,32.64-19.95,40.63-23.69,43.1c-1.05,0.7-2.44,1.44-5.23,2.92
			c-15.58,8.29-28.93,12.04-34.34,13.36c-21.98,5.34-40.05,4.36-45.15,4.01c-20.45-1.42-31.77-6.67-32.86-3.97
			c-1.26,3.13,12.53,13.53,26.42,20.54c0,0,29.41,14.84,70.8,11.72c1.1-0.08,9.91-0.81,19.77-4.66c5.67-2.21,9.3-3.68,12.25-7.51
			c1.48-1.92,2.81-4.44,3.6-4.16c1.18,0.43-0.37,6.51,0.76,6.91c0.94,0.33,3.04-3.48,3.94-5.13c2.6-4.73,3.68-8.5,4.04-8.41
			c0.48,0.13-1.7,6.9-0.53,7.53c1.38,0.73,6.86-7.34,18.17-25.2c5.42-8.55,9.91-15.77,13.16-21.02
			C267.8,217.69,277.74,195.05,272.03,160.17"/>
		<path class="st1" d="M278.05,106.69c0,0,6.74,6.47,11.92,14.84c34.48,55.64,42.79,114.5,42.79,114.5
			c6.46,45.55,0.19,70.02,10.21,97.28c8.24,22.41,12.36,33.61,20.29,43.02c2.21,2.62,7.81,8.91,6.61,10.69
			c-1.64,2.43-14.71-5.27-15.57-3.7c-0.82,1.51,11.63,7.91,10.8,12.7c-1.11,6.46-24.87,0.73-52.97,11.15
			c-12.8,4.74-11.08,7.42-36.19,19.18c-20.67,9.68-27.99,10.89-35.58,9.27c-3.13-0.67-16.3-3.47-22.18-14.39
			c-4.33-8.05-2.01-15.5-8.09-21.6c-3.46-3.48-7.73-4.6-10.48-5.02c-4.88-1.94-11.82-5.32-18.96-11.23
			c-14.96-12.38-21.48-27.87-24.07-35.17c-12.31-34.7,0.72-53.56,1.8-129.66c0.28-19.77-0.26-42.17,9.43-69.6
			c3.51-9.93,6.45-18.03,13.26-26.95c19.5-25.51,50.45-30.24,65.58-29.28c4.2,0.27,12.24,0.78,20.79,5.66
			C272.2,101.11,275.57,104.31,278.05,106.69"/>
		<path d="M186.74-5.08c-4.55,0.35-0.99,0.26-22.42,3.25c-3.86,0.54-10.68,1.47-10.67,2.61c0.01,1.06,6.01,1.46,6.03,2.72
			c0.02,1.44-7.77,2.52-7.68,3.46c0.08,0.79,5.59,0.24,5.98,1.71c0.33,1.24-3.31,2.89-6.6,5.44c-4.09,3.16-6.13,6.55-9.23,11.67
			c0,0-13.68,23.68-6.67,62.32c0.18,0.97,0.39,1.92,0.39,1.92c0.57,2.46,1.35,4.36,5.74,22.13c6.08,24.62,5.77,25.84,8.01,29.24
			c9.03,13.7,28.21,15.22,42.18,16.67c7.23,0.75,24.24,1.38,44.35-5.85c0,0,18.38-6.6,48.23-31.54c2.92-2.44,2.92-3.63,6.11-5.86
			c0.56-0.39,1.66-1.14,1.56-1.81c-0.09-0.6-1.27-0.52-3.38-1.54c-0.95-0.46-1.63-0.92-1.86-1.08c-1.51-1.05-1.45-1.52-3.09-2.88
			c-1.4-1.16-2.01-1.3-2.06-1.92c-0.05-0.6,0.48-1.15,1.86-2.13c2.12-1.52,3.98-2.43,5.72-3.36c3.37-1.79,3.66-2.22,3.69-2.64
			c0.08-1.15-1.86-1.7-3.47-3.26c-2.71-2.62-3.28-6.14-3.73-8.41c-2.06-10.36-6.27-20.18-8.16-30.57
			c-0.28-1.56-6.64-34.12-30.64-50.03c-12.08-8-24.95-9.34-33.59-10.24c-0.43-0.04-1.1-0.09-1.74-0.14
			C207.59-5.49,198.47-6,186.74-5.08"/>
		<path class="st2" d="M176.39,122.82c-1.22-0.58-3.01-1.45-5.17-2.52c-7.64-3.81-11.51-5.76-13.56-7.77
			c-2.9-2.84-3.95-5.76-6.05-11.61c-1.08-3.01-2.39-7.43-3.61-16.96c-1.66-12.95-2.55-20.55,0.1-29.57
			c1.57-5.34,4.01-9.95,4.97-9.69c0.68,0.18,0.43,2.73,1.27,2.93c0.86,0.21,2.04-2.31,2.63-3.33c2.52-4.35,8.26-5.49,13.17-6.46
			c8.02-1.59,22.36-0.94,35.31,8.58c8.4,6.17,13.04,13.67,15.51,17.76c8.98,14.85,8.46,26.91,17.85,31.79
			c0.98,0.51,6.86,3.43,6.44,5.45c-0.04,0.17-0.12,0.36-1.76,2.22c-1.61,1.84-1.8,1.97-1.76,2.22c0.27,1.52,7.85,0.78,8.1,2.22
			c0.08,0.49-0.73,1.01-0.88,1.11c-3.79,2.48-7.21,10.63-11.32,15.44c-6.06,7.1-16.55,10.37-24.68,9.69
			c-5.89-0.49-10.47-3.06-11.02-1.92c-0.48,0.99,2.51,3.85,5.46,5.55c3.56,2.06,6.14,1.91,6.15,2.42c0,0.69-5.73,1.34-25.46,1.62
			c-12.72,0.17-20.53,0.04-20.88-1.92c-0.12-0.7,0.78-1.15,2.63-3.33c2.17-2.56,3.52-4.98,4.29-6.56"/>
	</g>
	<g>
		<defs>
			<path id="SVGID_1_" d="M188.89,183.31c-2.31,0.06-6.28,0.38-10.79,2.03c-2.04,0.75-3.09,1.15-3.92,2.03c-2.83,3-2.78,9,0,12.17
				c1.22,1.39,2.7,1.94,2.94,2.03c2.17,0.78,4.15,0.2,4.9,0c5.12-1.36,11.08-0.42,13.73,0c1.68,0.27,7.39,1.17,11.76,5.07
				c7.04,6.28,6.94,17.05,6.86,26.37c-0.08,9.35-2.21,16.09-2.94,18.26c-1.03,3.05-3.36,9.75-8.82,16.23
				c-2.61,3.09-4.5,5.34-7.84,7.1c-2.79,1.47-4.08,1.26-5.88,3.04c-0.26,0.25-4.37,4.44-2.94,9.13c1.06,3.47,4.44,4.88,4.9,5.07
				c4.57,1.84,9.36-0.98,12.75-3.04c1.5-0.91,7.43-4.64,13.72-14.2c5.23-7.93,7.72-15.52,8.83-19.27
				c3.35-11.43,3.14-20.7,2.94-27.39c-0.4-13.24-0.64-20.83-5.88-28.4c-5.43-7.83-13.38-11.57-14.71-12.17
				c-4.02-1.83-7.96-2.66-9.8-3.04c-2.19-0.45-5.08-1.03-8.84-1.03C189.54,183.3,189.22,183.3,188.89,183.31"/>
		</defs>
		<clipPath id="SVGID_2_">
			<use xlink:href="#SVGID_1_"  style="overflow:visible;"/>
		</clipPath>
		
			<linearGradient id="SVGID_3_" gradientUnits="userSpaceOnUse" x1="-763.2634" y1="4484.6128" x2="-762.3663" y2="4484.6128" gradientTransform="matrix(63.6475 0 0 -63.6475 48751.8945 285672.875)">
			<stop  offset="0" style="stop-color:#263238"/>
			<stop  offset="0.4553" style="stop-color:#28343B"/>
			<stop  offset="0.9888" style="stop-color:#455A64"/>
			<stop  offset="1" style="stop-color:#455A64"/>
		</linearGradient>
		<rect x="171.35" y="183.3" class="st3" width="58.14" height="110.39"/>
	</g>
	<g>
		<path class="st4" d="M188,85.83c2.25,6.31,0.84,12.66-3.14,14.18c-3.99,1.52-9.04-2.36-11.29-8.68
			c-2.25-6.31-0.84-12.66,3.14-14.18C180.7,75.63,185.75,79.52,188,85.83"/>
		<path class="st5" d="M188,85.83c2.25,6.31,0.84,12.66-3.14,14.18c-3.99,1.52-9.04-2.36-11.29-8.68
			c-2.25-6.31-0.84-12.66,3.14-14.18C180.7,75.63,185.75,79.52,188,85.83z"/>
		<path class="st6" d="M184.43,89.05c1.81,5.07,1.1,10-1.57,11.02c-2.68,1.02-6.31-2.26-8.12-7.32c-1.81-5.07-1.1-10,1.57-11.02
			C178.99,80.71,182.62,83.99,184.43,89.05"/>
		<path class="st5" d="M184.43,89.05c1.81,5.07,1.1,10-1.57,11.02c-2.68,1.02-6.31-2.26-8.12-7.32c-1.81-5.07-1.1-10,1.57-11.02
			C178.99,80.71,182.62,83.99,184.43,89.05z"/>
		<path class="st7" d="M181.71,82.36c-0.11-0.16-0.38-0.16-0.48,0.01"/>
		<path class="st7" d="M182.58,81.85c-0.05-0.08-0.11-0.16-0.18-0.23c-0.01-0.01-0.02-0.02-0.03-0.03
			c-0.07-0.06-0.15-0.13-0.23-0.18c-0.01-0.01-0.02-0.01-0.03-0.02c-0.09-0.04-0.18-0.08-0.27-0.11c-0.01,0-0.03-0.01-0.04-0.01
			c-0.11-0.02-0.23-0.04-0.34-0.04c-0.25,0-0.43,0.06-0.64,0.17c-0.01,0.01-0.02,0.01-0.03,0.02c-0.08,0.05-0.16,0.11-0.23,0.18
			c-0.01,0.01-0.02,0.02-0.03,0.03c-0.05,0.06-0.12,0.15-0.17,0.21c0,0.01-0.01,0.01-0.01,0.02c-0.07,0.12-0.11,0.24-0.12,0.37
			c-0.03,0.13-0.03,0.27,0.02,0.4c0.03,0.13,0.09,0.24,0.18,0.34c0.07,0.11,0.17,0.2,0.28,0.26c0.08,0.03,0.16,0.07,0.24,0.1
			c0.18,0.05,0.36,0.05,0.54,0c0.08-0.03,0.16-0.07,0.24-0.1c0.15-0.09,0.27-0.21,0.36-0.36c0.01-0.01,0.01-0.02,0.02-0.02
			c-0.05,0.07-0.1,0.14-0.16,0.2c0.01-0.02,0.03-0.03,0.04-0.04c-0.07,0.05-0.14,0.1-0.2,0.16c0.02-0.02,0.04-0.03,0.06-0.04
			c-0.08,0.03-0.16,0.07-0.24,0.1c0.03-0.01,0.05-0.02,0.08-0.02l-0.27,0.04c0.03,0,0.06,0,0.08,0l-0.27-0.04
			c0.03,0,0.05,0.01,0.08,0.02c-0.08-0.03-0.16-0.07-0.24-0.1c0.02,0.01,0.04,0.02,0.06,0.03l-0.2-0.16
			c0.02,0.01,0.03,0.03,0.05,0.05c-0.05-0.07-0.11-0.14-0.16-0.2c0,0,0.01,0.01,0.01,0.01c0.06,0.12,0.15,0.21,0.26,0.28
			c0.1,0.09,0.21,0.15,0.34,0.18c0.13,0.04,0.27,0.05,0.4,0.02c0.13-0.01,0.26-0.05,0.38-0.12c0.07-0.05,0.14-0.1,0.2-0.16
			c0.13-0.13,0.21-0.27,0.26-0.45c0.01-0.09,0.02-0.18,0.04-0.27C182.72,82.17,182.67,82,182.58,81.85"/>
		<path class="st1" d="M166.56,127.19c0.05-0.21,0.13-0.58,0.05-1.01c-0.34-1.86-3.07-2.44-7.65-4.44c-3.25-1.42-2.72-1.5-4.8-2.27
			c-3.52-1.31-5.75-2.22-7.79-1.4c-2.41,0.97-3.42,3.4-5.27,7.86c-2.46,5.92-2.56,10.19-2.52,12.06c0.02,0.7,0.16,5.85,1.68,6.18
			c0.3,0.06,0.45-0.14,3.03-1.88c1.06-0.72,1.45-0.96,2-0.92c0.58,0.05,0.83,0.39,1.91,1.11c0,0,0.45,0.3,1.91,1.11
			c0.43,0.24,4.03,2.24,6.81,1.35c1.06-0.34,2.06-1.13,4.15-4.87c1.31-2.35,2.95-5.67,4.39-9.94"/>
	</g>
	<g>
		<defs>
			<path id="SVGID_4_" d="M156.54,161.01l-58.18,3.46c-8.39,0.5-15.57,7.27-16.04,15.42l-7.78,132.89
				c-0.88,15.1,8.23,27.39,20.4,26.66l84.39-5.02c12.17-0.72,19.86-14.02,17.31-28.91l-22.45-131.09
				c-1.32-7.72-8.64-13.44-16.65-13.44C157.2,160.98,156.87,160.99,156.54,161.01"/>
		</defs>
		<clipPath id="SVGID_5_">
			<use xlink:href="#SVGID_4_"  style="overflow:visible;"/>
		</clipPath>
		<rect x="73.65" y="160.98" class="st8" width="125.54" height="179.19"/>
	</g>
	<g>
		<path d="M279.74,166.55c-0.34-2.02-1.11-5.95-3.64-9.5c-0.81-1.13-3.88-5.37-7.78-5.42c-3.32-0.04-6.57,3.17-10.36,10.19
			c-6.3,11.65-6.83,20.34-10.22,35.2c-7.85,34.38-17.49,43.27-20.88,46.03c-0.95,0.78-2.22,1.63-4.76,3.32
			c-14.18,9.47-26.4,14.1-31.37,15.76c-20.15,6.76-36.83,6.75-41.55,6.66c-18.89-0.34-29.45-5.16-30.39-2.3
			c-1.09,3.32,11.86,13.34,24.82,19.85c0,0,27.45,13.77,65.56,8.24c1.01-0.15,9.12-1.39,18.13-5.93c5.18-2.61,8.49-4.33,11.13-8.47
			c1.32-2.07,2.49-4.77,3.23-4.51c1.1,0.38-0.2,6.77,0.85,7.13c0.87,0.29,2.72-3.78,3.52-5.54c2.29-5.05,3.2-9.03,3.53-8.94
			c0.44,0.11-1.41,7.26-0.32,7.84c1.29,0.68,6.16-8,16.19-27.15c4.81-9.18,8.79-16.91,11.66-22.54
			C277.13,226.46,285.79,202.42,279.74,166.55"/>
		<path class="st4" d="M160.29,184.63l-64.11,4.05c-6.3,0.4-11.72-4.56-12.11-11.09c-0.38-6.52,4.41-12.13,10.71-12.53l64.11-4.05
			c6.3-0.4,11.72,4.56,12.11,11.08C171.39,178.63,166.59,184.24,160.29,184.63"/>
		<path class="st9" d="M160.29,184.63l-64.11,4.05c-6.3,0.4-11.72-4.56-12.11-11.09c-0.38-6.52,4.41-12.13,10.71-12.53l64.11-4.05
			c6.3-0.4,11.72,4.56,12.11,11.08C171.39,178.63,166.59,184.24,160.29,184.63z"/>
		<path class="st6" d="M115.4,174.13c0.16,2.77-3.62,5.27-8.45,5.58c-4.83,0.31-8.88-1.7-9.04-4.47c-0.16-2.77,3.62-5.27,8.45-5.58
			C111.19,169.35,115.24,171.35,115.4,174.13"/>
		<path class="st5" d="M115.4,174.13c0.16,2.77-3.62,5.27-8.45,5.58c-4.83,0.31-8.88-1.7-9.04-4.47c-0.16-2.77,3.62-5.27,8.45-5.58
			C111.19,169.35,115.24,171.35,115.4,174.13z"/>
	</g>
	<g>
		<defs>
			<path id="SVGID_6_" d="M6.68,200.02c-1.1,2.33-0.78,4.59-0.78,4.59c0.23,0.61,0.62,1.66,1.09,2.97
				c6.36,17.46,12.78,38.78,16.76,50.17c0.7,2,2.29,6.21,5.29,11.4c0.34,0.59,0.69,1.15,1.09,1.75c6.55,9.99,14.66,15.3,18.75,17.92
				c4.99,3.19,11.83,6.76,20.32,8.73c6.94,1.61,10.66,1.15,13.09-0.95c1.2-1.04,1.81-2.29,2.97-4.75c1.16-2.46,3.1-6.58,3.6-11.6
				c0.52-5.2-0.03-16.09-5.66-18.87c-2.2-1.08-4.04-0.37-6.4,0.34c-2.03,0.61-4.44,1.22-7.78,0.69c-4.62-0.72-7.8-3.09-10.2-4.93
				c-14.77-11.29-28.74-41.22-33.43-56.54c-0.29-0.94-1.15-3.83-3.65-5.4c-1.31-0.83-2.93-1.2-4.63-1.2
				C12.91,194.32,8.28,196.61,6.68,200.02"/>
		</defs>
		<clipPath id="SVGID_7_">
			<use xlink:href="#SVGID_6_"  style="overflow:visible;"/>
		</clipPath>
		
			<linearGradient id="SVGID_8_" gradientUnits="userSpaceOnUse" x1="-763.7529" y1="4490.165" x2="-762.8557" y2="4490.165" gradientTransform="matrix(86.6483 -6.0796 -6.0796 -86.6483 93485.25 384671.25)">
			<stop  offset="0" style="stop-color:#455A64"/>
			<stop  offset="0.7654" style="stop-color:#263238"/>
			<stop  offset="1" style="stop-color:#263238"/>
		</linearGradient>
		<polygon class="st10" points="-1.74,194.84 88.94,188.48 96.67,298.64 5.99,305 		"/>
	</g>
	<g>
		<path class="st6" d="M13.19,196.13c3.77-1.16,7.32-0.42,7.92,1.67c0.6,2.09-1.97,4.72-5.74,5.89c-3.77,1.16-7.32,0.42-7.92-1.67
			C6.85,199.93,9.42,197.3,13.19,196.13"/>
	</g>
</g>
</svg>
