<?xml version="1.0" encoding="utf-8"?>
<!-- Generator: Adobe Illustrator 23.1.0, SVG Export Plug-In . SVG Version: 6.00 Build 0)  -->
<svg version="1.1" id="Слой_1" xmlns="http://www.w3.org/2000/svg" xmlns:xlink="http://www.w3.org/1999/xlink" x="0px" y="0px"
	 viewBox="0 0 1300 900" style="enable-background:new 0 0 1300 900;" xml:space="preserve">
<style type="text/css">
	.st0{fill:#E0E0E0;}
	.st1{fill:#F5F5F5;}
	.st2{fill:#EBEBEB;}
	.st3{fill:#263238;}
	.st4{display:none;}
	.st5{display:inline;}
	.st6{fill:#A3CB8F;}
	.st7{opacity:0.2;}
	.st8{fill:#455A64;}
	.st9{fill:#143449;}
	.st10{font-family:'Ponder-Medium';}
	.st11{font-size:23.0918px;}
	.st12{font-size:42.6201px;}
	.st13{display:inline;fill:#A3CB8F;}
</style>
<g id="Отзывы">
	<polygon class="st0" points="1135.97,363.72 1146.03,384.02 1168.51,387.27 1152.24,403.06 1156.08,425.37 1135.97,414.84 
		1115.86,425.37 1119.7,403.06 1103.43,387.27 1125.92,384.02 	"/>
	<polygon class="st1" points="1135.97,176.31 1142.62,189.73 1157.48,191.88 1146.73,202.32 1149.27,217.07 1135.97,210.11 
		1122.68,217.07 1125.21,202.32 1114.46,191.88 1129.32,189.73 	"/>
	<g>
		<g>
			<g>
				<g>
					<g>
						<g>
							<path class="st2" d="M544.8,205.77l-6.62,1.07l-17.71-17.73l-2.14-13.17c0,0-10.34,1.02-6.33,18.07
								c4.01,17.05,1.99,12.87,1.99,12.87s-21.72,3.59-23.22,5.76c-1.09,1.58,1.81,23.18,3.48,34.88
								c0.84,5.89,5.34,10.77,11.05,11.27c0.81,0.07,1.62,0.06,2.39-0.06c5.42-0.87,32.4-9.73,32.4-9.73l11.44-1.84L544.8,205.77z"
								/>
						</g>
					</g>
				</g>
			</g>
			<g>
				<g>
					<g>
						<g>
							<polygon class="st2" points="563.17,199.1 566.43,244.87 555.09,246.7 547.9,202.49 							"/>
						</g>
					</g>
				</g>
			</g>
		</g>
	</g>
	<g>
		<g>
			<g>
				<g>
					<g>
						<g>
							
								<rect x="1117.41" y="56.58" transform="matrix(1 -5.335435e-03 5.335435e-03 1 -0.5329 6.0132)" class="st0" width="18.69" height="92.61"/>
						</g>
					</g>
				</g>
			</g>
		</g>
		<g>
			<g>
				<g>
					<g>
						<g>
							<g>
								
									<rect x="955.41" y="56.9" transform="matrix(1 -5.326932e-03 5.326932e-03 1 -0.4254 5.2195)" class="st2" width="48.39" height="51.13"/>
							</g>
						</g>
					</g>
				</g>
			</g>
			<g>
				<g>
					<g>
						<g>
							<g>
								
									<rect x="1003.57" y="56.65" transform="matrix(1 -5.331732e-03 5.331732e-03 1 -0.4237 5.4809)" class="st1" width="48.39" height="51.13"/>
							</g>
						</g>
					</g>
				</g>
			</g>
			<g>
				<g>
					<g>
						<g>
							<g>
								<g>
									<path class="st0" d="M955.35,71.15c32.16,0.26,64.4,0.08,96.55-0.44c0.66-0.01,0.66-1.02-0.01-1.02
										c-32.16-0.18-64.4-0.02-96.55,0.59C954.78,70.29,954.78,71.15,955.35,71.15L955.35,71.15z"/>
								</g>
							</g>
						</g>
					</g>
				</g>
			</g>
		</g>
		<g>
			<g>
				<g>
					<g>
						<g>
							<g>
								
									<rect x="925.21" y="107.28" transform="matrix(1 -5.335440e-03 5.335440e-03 1 -0.6698 5.1728)" class="st2" width="87.92" height="41.66"/>
							</g>
						</g>
					</g>
				</g>
			</g>
			<g>
				<g>
					<g>
						<g>
							<g>
								
									<rect x="1012.72" y="106.82" transform="matrix(1 -5.335440e-03 5.335440e-03 1 -0.666 5.6396)" class="st1" width="87.92" height="41.66"/>
							</g>
						</g>
					</g>
				</g>
			</g>
			<g>
				<g>
					<g>
						<g>
							<g>
								<g>
									<path class="st0" d="M925.16,119.11c58.41,0.66,117.02,0.07,175.42-0.86c0.66-0.01,0.66-1.02-0.01-1.02
										c-58.41-0.31-117.02-0.27-175.42,1.01C924.59,118.24,924.6,119.1,925.16,119.11L925.16,119.11z"/>
								</g>
							</g>
						</g>
					</g>
				</g>
			</g>
		</g>
		<g>
			<g>
				<g>
					<g>
						<g>
							<rect x="892.29" y="149.18" class="st0" width="340.62" height="14.93"/>
						</g>
					</g>
				</g>
			</g>
			<g>
				<g>
					<g>
						<g>
							<rect x="948.05" y="156.36" class="st0" width="13.83" height="50.93"/>
						</g>
					</g>
				</g>
			</g>
			<g>
				<g>
					<g>
						<g>
							<rect x="1154.47" y="156.36" class="st0" width="13.83" height="50.93"/>
						</g>
					</g>
				</g>
			</g>
		</g>
		<g>
			<g>
				<g>
					<g>
						<g>
							
								<rect x="1135.74" y="22.05" transform="matrix(1 -5.335369e-03 5.335369e-03 1 -0.4411 6.1106)" class="st2" width="18.69" height="127.37"/>
						</g>
					</g>
				</g>
			</g>
		</g>
		<g>
			<g>
				<g>
					<g>
						<g>
							<g>
								
									<rect x="1154.52" y="45.79" transform="matrix(1 -5.347539e-03 5.347539e-03 1 -0.5041 6.2529)" class="st1" width="29.04" height="103.22"/>
							</g>
						</g>
					</g>
				</g>
			</g>
			<g>
				<g>
					<g>
						<g>
							<g>
								<path class="st0" d="M1183.08,65.6c0,0.28-6.5,0.5-14.52,0.5c-8.02,0-14.52-0.22-14.52-0.5s6.5-0.5,14.52-0.5
									C1176.58,65.09,1183.08,65.32,1183.08,65.6z"/>
							</g>
						</g>
					</g>
				</g>
			</g>
			<g>
				<g>
					<g>
						<g>
							<g>
								<path class="st0" d="M1183.08,61.26c0,0.28-6.5,0.5-14.52,0.5c-8.02,0-14.52-0.22-14.52-0.5c0-0.28,6.5-0.5,14.52-0.5
									C1176.58,60.76,1183.08,60.98,1183.08,61.26z"/>
							</g>
						</g>
					</g>
				</g>
			</g>
			<g>
				<g>
					<g>
						<g>
							<g>
								<path class="st0" d="M1183.08,133.4c0,0.28-6.5,0.5-14.52,0.5c-8.02,0-14.52-0.22-14.52-0.5s6.5-0.5,14.52-0.5
									C1176.58,132.9,1183.08,133.12,1183.08,133.4z"/>
							</g>
						</g>
					</g>
				</g>
			</g>
			<g>
				<g>
					<g>
						<g>
							<g>
								<path class="st0" d="M1183.08,129.06c0,0.28-6.5,0.5-14.52,0.5c-8.02,0-14.52-0.22-14.52-0.5s6.5-0.5,14.52-0.5
									C1176.58,128.56,1183.08,128.79,1183.08,129.06z"/>
							</g>
						</g>
					</g>
				</g>
			</g>
			<g>
				<g>
					<g>
						<g>
							<g>
								<path class="st0" d="M1169.03,119.6c-0.28,0-0.5-10.41-0.5-23.26c0-12.85,0.23-23.26,0.5-23.26c0.28,0,0.5,10.41,0.5,23.26
									C1169.53,109.19,1169.31,119.6,1169.03,119.6z"/>
							</g>
						</g>
					</g>
				</g>
			</g>
		</g>
		<g>
			<g>
				<g>
					<g>
						<g>
							<rect x="1183.4" y="71.06" class="st2" width="31.61" height="77.91"/>
						</g>
					</g>
				</g>
			</g>
		</g>
		<g>
			<g>
				<g>
					<g>
						<path class="st0" d="M1149.83,43.75c0,2.95-2.4,5.35-5.37,5.35c-2.97,0-5.37-2.39-5.37-5.35c0-2.95,2.4-5.35,5.37-5.35
							C1147.43,38.4,1149.83,40.79,1149.83,43.75z"/>
					</g>
				</g>
			</g>
		</g>
		<g>
			<g>
				<g>
					<g>
						<rect x="1142.8" y="58.46" class="st0" width="3.32" height="75.77"/>
					</g>
				</g>
			</g>
		</g>
	</g>
	<polygon class="st2" points="795.3,196.9 801.95,210.31 816.81,212.46 806.06,222.91 808.6,237.65 795.3,230.69 782,237.65 
		784.54,222.91 773.79,212.46 788.65,210.31 	"/>
	<g>
		<path class="st3" d="M1190.71,918.39c0,0.34-230.3,0.61-514.32,0.61c-284.12,0-514.37-0.27-514.37-0.61
			c0-0.34,230.25-0.61,514.37-0.61C960.41,917.78,1190.71,918.06,1190.71,918.39z"/>
	</g>
	<g class="st4">
		<g class="st5">
			<g>
				<rect x="357.37" y="294.35" class="st1" width="587.52" height="230.68"/>
				<g>
					<path class="st3" d="M944.89,525.02c0,0-0.03-1.4-0.05-4.09c-0.01-2.71-0.03-6.69-0.05-11.92
						c-0.03-10.48-0.07-25.91-0.12-45.81c-0.06-39.77-0.16-97.38-0.27-168.85l0.5,0.5c-148.06,0.06-356.63,0.13-587.48,0.22h-0.04
						l0.72-0.72c-0.01,80.69-0.02,158.64-0.03,230.67l-0.69-0.69c170.1,0.13,316.89,0.24,421.18,0.32
						c52.18,0.08,93.73,0.15,122.26,0.19c14.26,0.04,25.26,0.07,32.72,0.09c3.71,0.02,6.54,0.03,8.47,0.04
						C943.9,524.99,944.89,525.02,944.89,525.02s-0.94,0.03-2.82,0.04c-1.91,0.01-4.71,0.02-8.38,0.04
						c-7.43,0.02-18.38,0.05-32.58,0.09c-28.49,0.04-69.98,0.11-122.1,0.19c-104.41,0.08-251.36,0.19-421.65,0.32l-0.69,0l0-0.69
						c-0.01-72.03-0.02-149.98-0.03-230.67v-0.72h0.72h0.04c230.86,0.09,439.42,0.16,587.48,0.22l0.5,0l0,0.5
						c-0.12,71.6-0.21,129.32-0.27,169.15c-0.05,19.85-0.1,35.24-0.12,45.7c-0.02,5.19-0.04,9.14-0.05,11.83
						C944.93,523.69,944.89,525.02,944.89,525.02z"/>
				</g>
			</g>
			<g>
				<path class="st0" d="M509.61,482.41c0,0.4-21.71,0.72-48.48,0.72c-26.78,0-48.49-0.32-48.49-0.72s21.7-0.72,48.49-0.72
					C487.9,481.69,509.61,482.02,509.61,482.41z"/>
			</g>
		</g>
	</g>
	<g class="st4">
		<g class="st5">
			<g>
				<g>
					<g>
						<rect x="322.82" y="804.9" class="st3" width="135.63" height="18.56"/>
					</g>
				</g>
			</g>
			<g>
				<g>
					<g>
						<path class="st3" d="M458.68,823.69H322.59v-19.02h136.09V823.69z M323.05,823.23h135.17v-18.1H323.05V823.23z"/>
					</g>
				</g>
			</g>
		</g>
		<g class="st5">
			<g>
				<g>
					<g>
						<polygon class="st3" points="335.4,817.28 354.92,913.21 427.15,913.21 446.03,823.46 						"/>
					</g>
				</g>
			</g>
		</g>
		<g class="st5">
			<g>
				<g>
					<g>
						<polygon class="st3" points="335.4,904.13 345.81,918.39 433.61,918.39 446.03,904.13 						"/>
					</g>
				</g>
			</g>
		</g>
		<g class="st5">
			<g>
				<g>
					<g>
						<g>
							<path class="st3" d="M385.54,820.08c-0.27,0-0.61-44.44-0.76-99.25c-0.15-54.83-0.06-99.26,0.2-99.26
								c0.27,0,0.61,44.43,0.76,99.26C385.9,775.64,385.81,820.08,385.54,820.08z"/>
						</g>
					</g>
				</g>
			</g>
		</g>
		<g class="st5">
			<g>
				<g>
					<g>
						<g>
							<path class="st3" d="M415.76,708.87c0.03,0.01-0.1,0.37-0.36,1.03c-0.32,0.75-0.72,1.71-1.21,2.88
								c-0.27,0.63-0.57,1.32-0.88,2.07c-0.28,0.78-0.58,1.62-0.9,2.52c-0.33,0.91-0.68,1.87-1.05,2.89c-0.36,1.03-0.65,2.14-1,3.3
								c-1.48,4.6-2.66,10.25-3.79,16.54c-0.99,6.32-1.73,13.31-2.1,20.68c-0.66,14.76,0.18,28.14,1.07,37.78
								c0.44,4.82,0.88,8.72,1.2,11.41c0.14,1.26,0.25,2.29,0.34,3.1c0.07,0.71,0.09,1.09,0.05,1.09c-0.03,0-0.12-0.36-0.25-1.06
								c-0.14-0.81-0.31-1.83-0.52-3.08c-0.44-2.68-0.98-6.57-1.51-11.39c-1.07-9.64-2.02-23.07-1.36-37.9
								c0.37-7.41,1.15-14.44,2.19-20.78c1.19-6.32,2.44-11.98,4.02-16.59c0.38-1.16,0.69-2.27,1.08-3.3
								c0.4-1.02,0.77-1.98,1.12-2.89c0.35-0.89,0.68-1.73,0.98-2.51c0.33-0.76,0.68-1.43,0.97-2.05c0.56-1.14,1.02-2.07,1.38-2.81
								C415.54,709.18,415.73,708.85,415.76,708.87z"/>
						</g>
					</g>
				</g>
			</g>
		</g>
		<g class="st5">
			<g>
				<g>
					<g>
						<g>
							<path class="st3" d="M412.29,672.93c0.03,0.01-0.12,0.52-0.43,1.47c-0.35,1.03-0.82,2.4-1.41,4.13
								c-0.31,0.9-0.66,1.9-1.04,2.98c-0.34,1.11-0.7,2.31-1.09,3.59c-0.79,2.57-1.71,5.49-2.53,8.78
								c-0.43,1.64-0.89,3.35-1.36,5.14c-0.41,1.8-0.83,3.68-1.27,5.62c-0.95,3.87-1.63,8.07-2.51,12.46
								c-1.49,8.83-2.81,18.58-3.72,28.88c-0.86,10.3-1.23,20.14-1.36,29.1c-0.03,8.95,0.09,17.02,0.46,23.79
								c0.12,3.39,0.34,6.44,0.51,9.13c0.16,2.69,0.33,5,0.5,6.89c0.14,1.82,0.25,3.27,0.33,4.35c0.07,1,0.08,1.52,0.05,1.53
								c-0.03,0-0.12-0.51-0.24-1.51c-0.13-1.08-0.3-2.52-0.51-4.34c-0.23-1.88-0.45-4.19-0.66-6.88c-0.23-2.69-0.49-5.74-0.66-9.13
								c-0.46-6.77-0.64-14.86-0.66-23.83c0.08-8.97,0.43-18.84,1.29-29.17c0.91-10.32,2.26-20.11,3.81-28.95
								c0.9-4.4,1.62-8.61,2.6-12.48c0.46-1.94,0.9-3.82,1.33-5.62c0.5-1.78,0.97-3.5,1.43-5.14c0.86-3.29,1.83-6.2,2.67-8.77
								c0.42-1.28,0.81-2.47,1.17-3.57c0.41-1.07,0.78-2.06,1.12-2.96c0.66-1.7,1.19-3.06,1.58-4.08
								C412.05,673.4,412.26,672.91,412.29,672.93z"/>
						</g>
					</g>
				</g>
			</g>
		</g>
		<g class="st5">
			<g>
				<g>
					<g>
						<g>
							<path class="st3" d="M376.96,827.94c-0.02,0-0.04-0.18-0.08-0.52c-0.03-0.4-0.08-0.9-0.13-1.53c-0.1-1.42-0.23-3.38-0.4-5.88
								c-0.33-5.18-0.79-12.56-1.36-21.65c-1.18-18.27-2.88-43.52-5.97-71.28c-1.58-13.88-3.41-27.06-5.31-39.02
								c-1.01-5.97-1.93-11.64-2.97-16.93c-0.95-5.3-1.98-10.2-2.93-14.68c-0.89-4.49-1.89-8.51-2.68-12.06
								c-0.79-3.55-1.55-6.59-2.18-9.07c-0.6-2.43-1.07-4.35-1.41-5.73c-0.14-0.61-0.25-1.11-0.34-1.5
								c-0.07-0.34-0.1-0.51-0.09-0.52c0.02,0,0.08,0.16,0.18,0.49c0.11,0.38,0.26,0.87,0.44,1.47c0.38,1.37,0.91,3.27,1.58,5.68
								c0.69,2.47,1.51,5.5,2.34,9.04c0.85,3.54,1.89,7.55,2.83,12.04c0.99,4.47,2.06,9.38,3.05,14.68
								c1.08,5.28,2.02,10.96,3.06,16.93c1.95,11.96,3.81,25.16,5.39,39.05c3.09,27.79,4.69,53.06,5.69,71.35
								c0.5,9.15,0.85,16.55,1.05,21.67c0.09,2.5,0.17,4.48,0.22,5.89c0.01,0.63,0.02,1.13,0.03,1.53
								C376.99,827.76,376.98,827.94,376.96,827.94z"/>
						</g>
					</g>
				</g>
			</g>
		</g>
		<g class="st5">
			<g>
				<g>
					<g>
						<path class="st6" d="M384.44,642.94c-0.59-6.3-6.98-11.05-13.33-11.11c-6.35-0.07-12.27,3.73-16.15,8.73
							c-3.88,5-6.02,11.11-7.78,17.19c-4.28,14.83-6.61,30.42-4.78,45.74c1.83,15.32,8.07,30.41,19.11,41.24
							c1.79,1.76,4.12,3.52,6.58,3c1.35-0.29,2.45-1.22,3.47-2.14c21.69-19.51,34.21-48.74,33.35-77.84
							c-0.17-5.83-0.94-11.89-4.18-16.75C397.5,646.14,389.95,640.99,384.44,642.94"/>
					</g>
				</g>
			</g>
		</g>
		<g class="st5">
			<g>
				<g>
					<g>
						<g>
							<path class="st6" d="M337.03,592.51c-2.98,5.38-5.96,10.75-8.94,16.13c-0.21,0.38-0.48,0.8-0.91,0.83
								c-0.47,0.04-0.82-0.4-1.08-0.8c-7.88-12.04-15.76-24.09-23.64-36.13l5.45-3.07L337.03,592.51z"/>
						</g>
					</g>
				</g>
			</g>
			<g class="st7">
				<g>
					<g>
						<g>
							<g>
								<path d="M337.03,592.51c-2.98,5.38-5.96,10.75-8.94,16.13c-0.21,0.38-0.48,0.8-0.91,0.83c-0.47,0.04-0.82-0.4-1.08-0.8
									c-7.88-12.04-15.76-24.09-23.64-36.13l5.45-3.07L337.03,592.51z"/>
							</g>
						</g>
					</g>
				</g>
			</g>
			<g>
				<g>
					<g>
						<g>
							<path class="st6" d="M384.98,621.57c-26.88-15.8-53.76-31.59-80.64-47.39c-0.82-0.48-1.71-1.05-1.96-1.97
								c-0.32-1.19,0.57-2.33,1.43-3.22c11.09-11.4,27.2-18,43.09-16.86c15.89,1.14,31.18,10.28,38.96,24.13
								C393.65,590.11,393.91,608.43,384.98,621.57"/>
						</g>
					</g>
				</g>
			</g>
			<g>
				<g>
					<g>
						<g>
							<g>
								<path class="st3" d="M315.97,559.05c0-0.03,0.36-0.08,1.06-0.13c0.7-0.03,1.72-0.16,3.05-0.15
									c2.65-0.06,6.5,0.11,11.19,0.88c4.68,0.77,10.19,2.27,15.93,4.82c5.74,2.54,11.69,6.22,17.1,11.05
									c5.37,4.89,9.64,10.41,12.75,15.85c3.12,5.44,5.17,10.75,6.4,15.31c1.24,4.57,1.8,8.37,2,11c0.15,1.31,0.12,2.34,0.16,3.03
									c0.02,0.69,0.01,1.06-0.03,1.06c-0.09,0-0.19-1.45-0.51-4.05c-0.31-2.6-0.97-6.36-2.28-10.85
									c-2.55-8.94-8.47-21-19.15-30.64c-10.68-9.62-23.32-14.28-32.51-15.92c-4.62-0.85-8.44-1.13-11.07-1.18
									C317.43,559.09,315.97,559.14,315.97,559.05z"/>
							</g>
						</g>
					</g>
				</g>
			</g>
			<g>
				<g>
					<g>
						<g>
							<g>
								<path class="st3" d="M374.07,588.86c0.05,0.12-1.51,0.84-4.08,1.85c-2.57,1.01-6.16,2.3-10.17,3.57
									c-4.02,1.27-7.7,2.28-10.38,2.93c-2.68,0.65-4.37,0.96-4.4,0.84c-0.03-0.13,1.59-0.67,4.21-1.49c2.97-0.92,6.44-2,10.27-3.2
									c3.82-1.23,7.27-2.34,10.24-3.29C372.38,589.22,374.02,588.73,374.07,588.86z"/>
							</g>
						</g>
					</g>
				</g>
			</g>
			<g>
				<g>
					<g>
						<g>
							<g>
								<path class="st3" d="M361.37,554.89c0.26-0.02,0.83,3.98,0.95,8.96c0.13,4.98-0.24,9.01-0.5,9
									c-0.27-0.01-0.34-4.03-0.47-8.97C361.24,558.93,361.1,554.91,361.37,554.89z"/>
							</g>
						</g>
					</g>
				</g>
			</g>
			<g>
				<g>
					<g>
						<g>
							<g>
								<path class="st3" d="M303.64,573.28c-0.04-0.12,2.19-0.93,5.86-2.05c3.66-1.13,8.77-2.55,14.45-3.91
									c5.69-1.36,10.88-2.41,14.66-3.07c3.78-0.66,6.13-0.96,6.15-0.83c0.02,0.14-2.28,0.67-6.02,1.5
									c-3.74,0.83-8.89,1.98-14.57,3.34c-5.67,1.36-10.79,2.68-14.49,3.63C305.98,572.84,303.68,573.41,303.64,573.28z"/>
							</g>
						</g>
					</g>
				</g>
			</g>
		</g>
		<g class="st5">
			<g>
				<g>
					<g>
						<g>
							<path class="st6" d="M347.8,628.04c-6.93-5.24-14.27-6.27-22.97-5.93c-8.7,0.34-17.16,2.98-25.13,6.46
								c-13.6,5.93-26.38,14.67-34.5,27.05c-8.12,12.37-10.95,28.75-4.87,42.24c0.61,1.34,1.39,2.75,2.75,3.33
								c1.43,0.61,3.07,0.13,4.55-0.35c15.46-5.02,31.04-10.1,45.26-17.97c14.22-7.87,27.16-18.81,34.79-33.12
								c1.83-3.43,3.36-7.11,3.66-10.99C351.65,634.89,350.57,630.77,347.8,628.04"/>
						</g>
					</g>
				</g>
			</g>
			<g>
				<g>
					<g>
						<g>
							<g>
								<path class="st3" d="M347.94,626.41c0.01,0.03-0.37,0.19-1.11,0.45c-0.84,0.29-1.91,0.65-3.24,1.11
									c-0.72,0.24-1.5,0.5-2.35,0.78c-0.85,0.3-1.76,0.68-2.74,1.06c-1.96,0.79-4.23,1.58-6.62,2.73
									c-1.21,0.55-2.48,1.12-3.79,1.72c-1.32,0.6-2.63,1.35-4.02,2.05c-2.8,1.37-5.64,3.12-8.66,4.9
									c-5.93,3.73-12.2,8.23-18.31,13.53c-6.06,5.36-11.33,10.99-15.81,16.37c-2.15,2.76-4.26,5.34-5.98,7.93
									c-0.88,1.28-1.79,2.49-2.56,3.71c-0.76,1.22-1.49,2.4-2.2,3.53c-1.46,2.22-2.53,4.36-3.56,6.19c-0.5,0.92-1,1.77-1.41,2.57
									c-0.39,0.8-0.75,1.54-1.07,2.22c-0.62,1.26-1.13,2.27-1.52,3.06c-0.36,0.7-0.56,1.06-0.59,1.04
									c-0.03-0.01,0.11-0.4,0.41-1.12c0.35-0.81,0.8-1.85,1.36-3.14c0.31-0.69,0.64-1.44,1-2.26c0.39-0.82,0.86-1.68,1.34-2.62
									c0.99-1.86,2.03-4.04,3.46-6.29c0.69-1.14,1.41-2.34,2.16-3.58c0.76-1.24,1.65-2.46,2.53-3.76c1.71-2.63,3.8-5.24,5.95-8.03
									c4.46-5.45,9.76-11.14,15.86-16.53c6.15-5.34,12.49-9.84,18.48-13.56c3.05-1.77,5.92-3.5,8.76-4.85
									c1.41-0.69,2.74-1.42,4.07-2.02c1.33-0.58,2.61-1.14,3.84-1.67c2.42-1.12,4.72-1.87,6.7-2.61c1-0.36,1.92-0.71,2.78-0.99
									c0.86-0.25,1.65-0.49,2.38-0.7c1.35-0.39,2.45-0.7,3.3-0.94C347.53,626.47,347.93,626.38,347.94,626.41z"/>
							</g>
						</g>
					</g>
				</g>
			</g>
			<g>
				<g>
					<g>
						<g>
							<g>
								<path class="st3" d="M293.76,655.63c0.07,0.26-7.48,2.68-16.87,5.41c-9.39,2.74-17.07,4.75-17.14,4.49
									c-0.07-0.26,7.48-2.68,16.87-5.41C286.01,657.39,293.68,655.38,293.76,655.63z"/>
							</g>
						</g>
					</g>
				</g>
			</g>
			<g>
				<g>
					<g>
						<g>
							<g>
								<path class="st3" d="M293.06,692.71c-0.13,0-0.28-2-0.37-5.24c-0.09-3.24-0.1-7.71,0.03-12.65
									c0.14-4.94,0.4-9.41,0.67-12.63c0.27-3.23,0.53-5.21,0.66-5.21c0.14,0.01,0.11,2.01,0.02,5.24
									c-0.11,3.55-0.24,7.86-0.39,12.62c-0.12,4.77-0.23,9.08-0.32,12.62C293.29,690.71,293.2,692.71,293.06,692.71z"/>
							</g>
						</g>
					</g>
				</g>
			</g>
			<g>
				<g>
					<g>
						<g>
							<g>
								<path class="st3" d="M324.95,676.53c-0.27,0.02-1.11-9.07-1.89-20.3c-0.78-11.23-1.2-20.35-0.93-20.37
									c0.27-0.02,1.11,9.07,1.89,20.31C324.8,667.39,325.22,676.51,324.95,676.53z"/>
							</g>
						</g>
					</g>
				</g>
			</g>
			<g>
				<g>
					<g>
						<g>
							<g>
								<path class="st3" d="M285.26,634.97c0.01-0.13,2.07-0.19,5.41-0.16c3.33,0.02,7.94,0.12,13.02,0.29
									c5.08,0.17,9.68,0.37,13.01,0.57c3.33,0.2,5.39,0.38,5.38,0.52c0,0.13-2.06,0.19-5.4,0.16c-3.33-0.02-7.94-0.12-13.03-0.29
									c-5.09-0.17-9.69-0.37-13.02-0.57C287.31,635.29,285.25,635.1,285.26,634.97z"/>
							</g>
						</g>
					</g>
				</g>
			</g>
		</g>
		<g class="st5">
			<g>
				<g>
					<g>
						<g>
							<path class="st3" d="M364.97,749.05c-0.03,0-0.07-0.38-0.12-1.1c-0.04-0.83-0.08-1.87-0.14-3.15
								c-0.12-2.74-0.15-6.71-0.05-11.62c0.09-4.91,0.42-10.74,1-17.21c0.63-6.46,1.54-13.54,2.84-20.92
								c1.34-7.37,2.94-14.33,4.59-20.61c1.7-6.27,3.41-11.86,5.03-16.49c1.6-4.64,3.01-8.36,4.07-10.89
								c0.5-1.19,0.91-2.15,1.23-2.91c0.29-0.66,0.46-1,0.49-0.99c0.03,0.01-0.08,0.38-0.31,1.06c-0.28,0.78-0.63,1.76-1.06,2.97
								c-0.95,2.57-2.26,6.31-3.77,10.97c-1.53,4.65-3.18,10.24-4.82,16.5c-1.6,6.27-3.17,13.21-4.5,20.56
								c-1.3,7.35-2.23,14.4-2.9,20.83c-0.63,6.44-1.02,12.25-1.2,17.14c-0.19,4.89-0.27,8.85-0.26,11.59
								c-0.02,1.28-0.03,2.33-0.04,3.15C365.03,748.67,365.01,749.05,364.97,749.05z"/>
						</g>
					</g>
				</g>
			</g>
		</g>
		<g class="st5">
			<g>
				<g>
					<g>
						<g>
							<path class="st3" d="M369.23,694.25c0.09,0.09-1.13,1.44-3.22,3.52c-2.09,2.07-5.05,4.85-8.43,7.81
								c-3.38,2.95-6.54,5.51-8.87,7.3c-2.34,1.79-3.84,2.82-3.92,2.72c-0.08-0.11,1.27-1.32,3.49-3.24
								c2.48-2.14,5.42-4.69,8.67-7.5c3.22-2.84,6.14-5.41,8.6-7.58C367.74,695.33,369.13,694.15,369.23,694.25z"/>
						</g>
					</g>
				</g>
			</g>
		</g>
		<g class="st5">
			<g>
				<g>
					<g>
						<g>
							<path class="st3" d="M394.75,714.73c-0.12,0.07-1.4-1.75-3.43-4.73c-2.2-3.2-4.94-7.18-7.97-11.58
								c-3.09-4.36-5.88-8.3-8.14-11.47c-2.09-2.93-3.37-4.76-3.26-4.84c0.1-0.08,1.57,1.6,3.81,4.43
								c2.24,2.83,5.23,6.82,8.38,11.33c3.15,4.51,5.86,8.69,7.75,11.76C393.78,712.7,394.86,714.66,394.75,714.73z"/>
						</g>
					</g>
				</g>
			</g>
		</g>
		<g class="st5">
			<g>
				<g>
					<g>
						<g>
							<path class="st3" d="M381.38,650.33c0.14,0.22-8.33,5.91-18.94,12.7c-10.6,6.79-19.32,12.11-19.46,11.89
								c-0.14-0.22,8.33-5.91,18.94-12.7C372.52,655.43,381.23,650.1,381.38,650.33z"/>
						</g>
					</g>
				</g>
			</g>
		</g>
		<g class="st5">
			<g>
				<g>
					<g>
						<g>
							<path class="st3" d="M405.29,676.03c-0.19,0.19-5.93-5.09-12.82-11.8c-6.9-6.71-12.34-12.3-12.15-12.49
								c0.19-0.19,5.93,5.09,12.83,11.8C400.03,670.24,405.47,675.84,405.29,676.03z"/>
						</g>
					</g>
				</g>
			</g>
		</g>
		<g class="st5">
			<g>
				<g>
					<g>
						<g>
							<path class="st6" d="M411.3,675.51l7.28-0.6c5.17-0.43,10.18-1.95,14.7-4.48c2.23-1.25,4.48-2.48,6.85-3.43
								c9-3.6,19.04-2.95,28.72-3.44c15.81-0.79,31.45-4.77,45.69-11.64c0.82-0.4,1.55-1,1.99-1.8c1.5-2.71-1.28-5.13-3.67-6.59
								c-12.26-7.53-24.74-15.15-38.65-18.88c-13.91-3.74-29.69-3.1-41.56,5.03C418.73,639.23,413.65,658.84,411.3,675.51"/>
						</g>
					</g>
				</g>
			</g>
			<g>
				<g>
					<g>
						<g>
							<g>
								<path class="st3" d="M516.7,649.24c-0.02,0.03-0.44-0.17-1.23-0.57c-0.87-0.46-2.02-1.05-3.45-1.8
									c-2.99-1.57-7.3-3.88-12.74-6.48c-5.45-2.57-12.05-5.47-19.72-7.57c-7.65-2.12-16.47-3.22-25.56-2.06
									c-9.06,1.19-17.4,4.7-23.3,9.97c-5.94,5.25-9.57,11.59-12.13,16.98c-2.56,5.43-4.13,10.06-5.28,13.22
									c-0.54,1.52-0.97,2.73-1.3,3.66c-0.3,0.83-0.48,1.27-0.51,1.26c-0.03-0.01,0.08-0.46,0.32-1.32
									c0.28-0.94,0.66-2.17,1.12-3.72c1.04-3.2,2.52-7.87,5.02-13.38c2.5-5.46,6.12-11.94,12.16-17.35
									c6.02-5.43,14.55-9.05,23.77-10.26c9.25-1.18,18.22-0.02,25.93,2.16c7.75,2.17,14.36,5.15,19.78,7.81
									c5.42,2.69,9.69,5.09,12.62,6.76c1.39,0.81,2.51,1.46,3.36,1.96C516.32,648.95,516.71,649.21,516.7,649.24z"/>
							</g>
						</g>
					</g>
				</g>
			</g>
			<g>
				<g>
					<g>
						<g>
							<g>
								<path class="st3" d="M499.22,658.59c-0.15,0.22-9.67-5.91-21.26-13.7c-11.59-7.79-20.87-14.28-20.72-14.5
									c0.15-0.22,9.67,5.91,21.26,13.7C490.09,651.88,499.36,658.37,499.22,658.59z"/>
							</g>
						</g>
					</g>
				</g>
			</g>
			<g>
				<g>
					<g>
						<g>
							<g>
								<path class="st3" d="M490.07,629.49c0.05,0.25-3.25,1.11-7.43,1.48c-4.18,0.39-7.58,0.15-7.58-0.11
									c0-0.27,3.36-0.47,7.49-0.85C486.68,629.64,490.02,629.22,490.07,629.49z"/>
							</g>
						</g>
					</g>
				</g>
			</g>
			<g>
				<g>
					<g>
						<g>
							<g>
								<path class="st3" d="M447.39,621.87c0.23,0.13-1.17,2.92-3.12,6.22c-1.95,3.3-3.73,5.87-3.96,5.73
									c-0.23-0.14,1.17-2.92,3.12-6.22C445.39,624.3,447.16,621.74,447.39,621.87z"/>
							</g>
						</g>
					</g>
				</g>
			</g>
			<g>
				<g>
					<g>
						<g>
							<g>
								<path class="st3" d="M455.92,664.18c-0.07,0.11-1.83-0.81-4.58-2.47c-2.75-1.66-6.47-4.1-10.44-6.97
									c-3.97-2.87-7.47-5.59-9.99-7.58c-2.51-1.99-4.03-3.27-3.95-3.38c0.08-0.11,1.74,0.98,4.36,2.83
									c2.86,2.07,6.32,4.57,10.14,7.34c3.96,2.86,7.59,5.37,10.24,7.18C454.36,662.93,455.99,664.06,455.92,664.18z"/>
							</g>
						</g>
					</g>
				</g>
			</g>
		</g>
		<g class="st5">
			<g>
				<g>
					<g>
						<g>
							<path class="st6" d="M422.01,706.31c-6.94-1.83-15.22,4.9-16.65,11.91c-1.43,7.01,1.21,14.18,4.3,20.63
								c6.84,14.29,16.28,27.55,28.71,37.41c12.43,9.87,28,16.18,43.9,16.1c-2.93-13.58,0.78-27.76-0.86-41.55
								c-1.43-12.04-7.06-23.54-15.71-32.07c-8.65-8.53-20.25-14.03-32.35-15.33C428.91,702.93,423.78,702.23,422.01,706.31"/>
						</g>
					</g>
				</g>
			</g>
			<g>
				<g>
					<g>
						<g>
							<g>
								<path class="st3" d="M482.27,792.36c-0.02,0.03-0.35-0.13-0.99-0.46c-0.63-0.34-1.53-0.89-2.6-1.74
									c-2.18-1.65-4.68-4.82-6.85-9.13c-1.11-2.14-2.34-4.46-3.55-7.04c-1.17-2.58-2.42-5.33-3.73-8.22
									c-1.32-2.88-2.78-5.87-4.59-8.79c-1.8-2.92-3.94-5.78-6.32-8.56c-4.75-5.56-9.85-10.37-14.27-14.97
									c-4.44-4.58-8.18-8.99-10.88-13c-2.73-4-4.38-7.59-5.32-10.12c-0.45-1.28-0.77-2.27-0.93-2.97
									c-0.18-0.69-0.25-1.05-0.22-1.06c0.09-0.03,0.48,1.41,1.5,3.89c1.04,2.46,2.76,5.96,5.53,9.87
									c2.74,3.93,6.5,8.25,10.96,12.77c4.44,4.55,9.57,9.34,14.37,14.96c2.4,2.81,4.57,5.71,6.39,8.69
									c1.83,2.98,3.28,6.01,4.59,8.91c1.28,2.9,2.5,5.66,3.65,8.25c1.16,2.56,2.37,4.91,3.43,7.06c2.09,4.32,4.42,7.45,6.49,9.16
									C480.95,791.62,482.33,792.26,482.27,792.36z"/>
							</g>
						</g>
					</g>
				</g>
			</g>
			<g>
				<g>
					<g>
						<g>
							<g>
								<path class="st3" d="M446.37,781.07c-0.13-0.02,0.09-1.81,0.64-4.65c0.54-2.85,1.44-6.76,2.64-11.01
									c1.21-4.26,2.49-8.06,3.52-10.77c1.03-2.71,1.78-4.35,1.9-4.3c0.13,0.05-0.39,1.76-1.25,4.52
									c-0.86,2.76-2.04,6.57-3.24,10.81c-1.2,4.24-2.19,8.1-2.9,10.9C446.96,779.37,446.5,781.1,446.37,781.07z"/>
							</g>
						</g>
					</g>
				</g>
			</g>
			<g>
				<g>
					<g>
						<g>
							<g>
								<path class="st3" d="M480.95,747.75c-0.04,0.13-1.9-0.34-4.89-1.12c-2.99-0.78-7.12-1.84-11.72-2.88
									c-4.6-1.03-8.79-1.83-11.83-2.41c-3.04-0.57-4.92-0.94-4.9-1.08c0.02-0.13,1.93,0,5.01,0.4c3.07,0.4,7.31,1.1,11.93,2.14
									c4.62,1.04,8.74,2.21,11.7,3.16C479.2,746.92,480.99,747.62,480.95,747.75z"/>
							</g>
						</g>
					</g>
				</g>
			</g>
			<g>
				<g>
					<g>
						<g>
							<g>
								<path class="st3" d="M420.61,757.43c-0.13-0.02,0.14-2.09,0.75-5.39c0.61-3.3,1.58-7.84,2.88-12.8
									c1.3-4.96,2.68-9.39,3.77-12.57c1.09-3.18,1.87-5.1,1.99-5.06c0.13,0.04-0.42,2.05-1.34,5.27
									c-0.92,3.22-2.19,7.67-3.48,12.61c-1.29,4.94-2.37,9.44-3.15,12.69C421.25,755.44,420.74,757.45,420.61,757.43z"/>
							</g>
						</g>
					</g>
				</g>
			</g>
			<g>
				<g>
					<g>
						<g>
							<g>
								<path class="st3" d="M465.03,718.7c-0.03,0.26-8.69-0.43-19.35-1.56c-10.66-1.13-19.28-2.25-19.25-2.52
									c0.03-0.26,8.69,0.43,19.36,1.56C456.43,717.31,465.05,718.44,465.03,718.7z"/>
							</g>
						</g>
					</g>
				</g>
			</g>
		</g>
		<g class="st5">
			<g>
				<g>
					<g>
						<g>
							<path class="st8" d="M458.68,823.38c0,0.27-30.46,0.48-68.04,0.48c-37.58,0-68.04-0.22-68.04-0.48
								c0-0.27,30.46-0.48,68.04-0.48C428.21,822.9,458.68,823.11,458.68,823.38z"/>
						</g>
					</g>
				</g>
			</g>
		</g>
		<g class="st5">
			<g>
				<g>
					<g>
						<g>
							<path class="st8" d="M437.48,862.43c0,0.27-20.53,0.48-45.84,0.48c-25.32,0-45.85-0.22-45.85-0.48
								c0-0.27,20.52-0.48,45.85-0.48C416.95,861.95,437.48,862.16,437.48,862.43z"/>
						</g>
					</g>
				</g>
			</g>
		</g>
		<g class="st5">
			<g>
				<g>
					<g>
						<g>
							<path class="st8" d="M438.28,868.01c0,0.27-20.53,0.48-45.84,0.48c-25.32,0-45.85-0.22-45.85-0.48
								c0-0.27,20.52-0.48,45.85-0.48C417.75,867.53,438.28,867.74,438.28,868.01z"/>
						</g>
					</g>
				</g>
			</g>
		</g>
		<g class="st5">
			<g>
				<g>
					<g>
						<g>
							<path class="st8" d="M438.28,857.82c0,0.27-21.23,0.48-47.42,0.48c-26.19,0-47.42-0.22-47.42-0.48
								c0-0.27,21.23-0.48,47.42-0.48C417.05,857.34,438.28,857.56,438.28,857.82z"/>
						</g>
					</g>
				</g>
			</g>
		</g>
	</g>
	<g class="st4">
		<g class="st5">
			<g>
				<rect x="8.21" y="345.32" class="st1" width="319.19" height="125.32"/>
				<g>
					<path class="st3" d="M327.4,470.64c0,0-0.02-0.76-0.03-2.22c-0.01-1.47-0.02-3.64-0.03-6.48c-0.02-5.69-0.04-14.08-0.07-24.89
						c-0.03-21.6-0.09-52.9-0.15-91.74l0.27,0.27c-80.44,0.03-193.75,0.07-319.17,0.12H8.21l0.39-0.39
						c-0.01,43.84-0.01,86.19-0.02,125.32l-0.37-0.37c92.41,0.07,172.16,0.13,228.82,0.18c28.35,0.04,50.92,0.08,66.42,0.1
						c7.75,0.02,13.72,0.04,17.78,0.05c2.02,0.01,3.55,0.02,4.6,0.02C326.86,470.63,327.4,470.64,327.4,470.64s-0.51,0.02-1.53,0.02
						c-1.04,0.01-2.56,0.01-4.55,0.02c-4.04,0.01-9.99,0.03-17.7,0.05c-15.48,0.02-38.02,0.06-66.33,0.1
						c-56.72,0.04-136.56,0.1-229.08,0.18l-0.37,0l0-0.37c0-39.13-0.01-81.48-0.02-125.32v-0.39h0.39h0.02
						c125.42,0.05,238.73,0.09,319.17,0.12l0.27,0l0,0.27c-0.06,38.9-0.11,70.26-0.15,91.9c-0.03,10.78-0.05,19.15-0.07,24.83
						c-0.01,2.82-0.02,4.97-0.03,6.43C327.42,469.92,327.4,470.64,327.4,470.64z"/>
				</g>
			</g>
			<text transform="matrix(1.004 0 0 1 24.3547 367.3789)" class="st9 st10 st11">DIMAN228</text>
			<text transform="matrix(1.004 0 0 1 14.3415 404.46)"><tspan x="0" y="0" class="st9 st10 st11">ШКОЛА ПРОСТО ПУШКА</tspan><tspan x="0" y="27.71" class="st9 st10 st11">СОБАКА ЗАНИМАЕТСЯ</tspan></text>
			<text transform="matrix(1.004 0 0 1 982.3361 404.46)"><tspan x="0" y="0" class="st9 st10 st11">ШКОЛА ПРОСТО ПУШКА</tspan><tspan x="0" y="27.71" class="st9 st10 st11">СОБАКА ЗАНИМАЕТСЯ</tspan></text>
			<text transform="matrix(1.004 0 0 1 994.3615 371.3877)" class="st9 st10 st11">DIMAN228</text>
			<text transform="matrix(1.004 0 0 1 367.528 403.0205)"><tspan x="0" y="0" class="st9 st10 st12">ШКОЛА ПРОСТО ПУШКА</tspan><tspan x="0" y="51.14" class="st9 st10 st12">СОБАКА ЗАНИМАЕТСЯ</tspan></text>
			<g>
				<text transform="matrix(1.004 0 0 1 369.5412 338.3154)" class="st9 st10 st12">DIMAN228</text>
			</g>
		</g>
	</g>
	<g class="st4">
		<g class="st5">
			<g>
				<rect x="976.2" y="347.33" class="st1" width="319.19" height="125.32"/>
				<g>
					<path class="st3" d="M1295.4,472.65c0,0-0.02-0.76-0.03-2.22c-0.01-1.47-0.02-3.64-0.03-6.48c-0.02-5.69-0.04-14.08-0.07-24.89
						c-0.03-21.6-0.09-52.9-0.15-91.74l0.27,0.27c-80.44,0.03-193.75,0.07-319.17,0.12h-0.02l0.39-0.39
						c-0.01,43.84-0.01,86.19-0.02,125.32l-0.37-0.37c92.41,0.07,172.16,0.13,228.82,0.18c28.35,0.04,50.92,0.08,66.42,0.1
						c7.75,0.02,13.72,0.04,17.78,0.05c2.02,0.01,3.55,0.02,4.6,0.02C1294.86,472.63,1295.4,472.65,1295.4,472.65
						s-0.51,0.02-1.53,0.02c-1.04,0.01-2.56,0.01-4.55,0.02c-4.04,0.01-9.99,0.03-17.7,0.05c-15.48,0.02-38.02,0.06-66.33,0.1
						c-56.72,0.04-136.56,0.1-229.08,0.18l-0.38,0l0-0.37c0-39.13-0.01-81.48-0.02-125.32v-0.39h0.39h0.02
						c125.42,0.05,238.73,0.09,319.17,0.12l0.27,0l0,0.27c-0.06,38.9-0.11,70.26-0.15,91.9c-0.03,10.78-0.05,19.15-0.07,24.83
						c-0.01,2.82-0.02,4.97-0.03,6.43C1295.42,471.92,1295.4,472.65,1295.4,472.65z"/>
				</g>
			</g>
			<g>
				<path class="st0" d="M1058.91,449.5c0,0.22-11.79,0.39-26.34,0.39c-14.55,0-26.34-0.17-26.34-0.39s11.79-0.39,26.34-0.39
					C1047.12,449.11,1058.91,449.28,1058.91,449.5z"/>
			</g>
		</g>
	</g>
	<g>
		<path class="st0" d="M76.83,449.5c0,0.22-11.79,0.39-26.34,0.39c-14.55,0-26.34-0.17-26.34-0.39s11.79-0.39,26.34-0.39
			C65.04,449.11,76.83,449.28,76.83,449.5z"/>
	</g>
	<g class="st4">
		<polygon class="st13" points="1334.95,380.93 1328.23,380.93 1328.02,381.11 1352.31,408.41 1325.75,438.25 1332.84,438.25 
			1359.4,408.41 		"/>
		<polygon class="st13" points="1322.3,380.93 1315.57,380.93 1315.37,381.11 1339.66,408.41 1313.1,438.25 1320.19,438.25 
			1346.75,408.41 		"/>
	</g>
	<g class="st4">
		<polygon class="st13" points="-34.95,381.93 -28.23,381.93 -28.02,382.11 -52.31,409.41 -25.75,439.26 -32.84,439.26 
			-59.4,409.41 		"/>
		<polygon class="st13" points="-22.3,381.93 -15.57,381.93 -15.37,382.11 -39.66,409.41 -13.1,439.26 -20.19,439.26 -46.75,409.41 
					"/>
	</g>
</g>
</svg>
