<?xml version="1.0" encoding="utf-8"?>
<!-- Generator: Adobe Illustrator 23.1.0, SVG Export Plug-In . SVG Version: 6.00 Build 0)  -->
<svg version="1.1" id="Слой_1" xmlns="http://www.w3.org/2000/svg" xmlns:xlink="http://www.w3.org/1999/xlink" x="0px" y="0px"
	 viewBox="0 0 1330 720" style="enable-background:new 0 0 1330 720;" xml:space="preserve">
<style type="text/css">
	.st0{fill:#EAC8C6;}
	.st1{fill:#FFFFFF;}
	.st2{fill:#8E2D2D;}
	.st3{fill:#E7ECFD;}
	.st4{fill:#7D2424;}
	.st5{fill:#591B1B;}
	.st6{opacity:0.2;fill:#FFFFFF;}
	.st7{fill:#F0C94A;}
	.st8{fill:#F8E7AE;}
	.st9{fill:#969DFB;}
	.st10{fill:#D7577C;}
	.st11{fill:#E58FA9;}
	.st12{fill:#444CF0;}
	.st13{fill:#BEC3FC;}
	.st14{opacity:0.33;}
	.st15{opacity:0.31;}
	.st16{opacity:0.95;fill:#201600;}
	.st17{fill:#201600;}
	.st18{fill:#E8505B;}
	.st19{fill:#263238;}
	.st20{opacity:0.2;}
	.st21{clip-path:url(#SVGID_2_);fill:#FFFFFF;}
	.st22{opacity:0.7;}
	.st23{clip-path:url(#SVGID_4_);fill:#E8505B;}
	.st24{clip-path:url(#SVGID_6_);fill:#FFFFFF;}
	.st25{fill:#E0E0E0;}
	.st26{fill:none;stroke:#EBEBEB;stroke-width:0.25;stroke-linecap:round;stroke-miterlimit:10;}
	.st27{fill:#1A1A1A;}
	.st28{fill:none;stroke:#000000;stroke-width:0.25;stroke-linecap:round;stroke-miterlimit:10;}
	.st29{fill:#455A64;}
	.st30{fill:none;stroke:#263238;stroke-linecap:round;stroke-miterlimit:10;}
	.st31{fill:#F7E85C;}
</style>
<g>
	<g>
		<g>
			<path class="st0" d="M91.9,719.42c0,0-169.17-187.15-44.41-156.15c71.24,17.7-35.68-85.4,5.95-123.68
				c41.63-38.28,80.29,26.5,77.32,70.67c-2.97,44.17,8.92,67.73,26.76,53.01c17.84-14.72,20.82-35.34,44.61-20.61
				c23.79,14.72,17.84,38.28,5.95,58.89c-11.89,20.61-23.79,53.01-5.95,50.06c17.84-2.94,8.92-32.39,29.74-32.39
				c20.82,0,33.84,88.42-18.76,100.2H91.9z"/>
			<path class="st1" d="M128.57,719.42c2.58-14.9,1.94-35.96-1.89-62.65c-3.18-22.11-8.55-48.13-15.97-77.35
				c-12.89-50.77-27.41-93.3-27.54-93.7c-0.26-0.8,0.19-1.69,1.01-1.97c0.14-0.04,0.3-0.07,0.47-0.07c0.69,0,1.3,0.43,1.52,1.07
				l0.02,0.05c1.56,4.6,15.62,46.31,27.93,95.04c16.36,64.77,22.3,111.72,17.66,139.59H128.57z"/>
			<path class="st1" d="M130.71,706.74c-5.68,0-22.22-17.96-50.54-54.91c-21.83-28.47-42.68-57.94-42.89-58.23
				c-0.24-0.34-0.33-0.75-0.26-1.16c0.07-0.41,0.3-0.77,0.65-1c0.26-0.18,0.57-0.28,0.9-0.28c0.51,0,1,0.25,1.29,0.66
				c18.96,26.82,39.17,53.91,55.45,74.32c18.55,23.25,30.22,35.75,34.7,37.16l0.78,0.25l0.6-0.55
				c7.88-7.24,40.42-80.84,60.36-128.55c0.24-0.58,0.81-0.96,1.45-0.96c0.2,0,0.41,0.04,0.6,0.12c0.39,0.16,0.69,0.46,0.85,0.84
				c0.16,0.38,0.16,0.81,0,1.19c-4.91,11.74-17.74,42.17-30.9,71.17c-22.04,48.56-29.12,58.02-31.38,59.34
				C131.75,706.52,131.34,706.74,130.71,706.74z"/>
			<path class="st1" d="M186.32,719.42c19.64-17.83,39.94-62.03,43.97-71.09l0.12-0.26c0.25-0.58,0.82-0.96,1.45-0.96
				c0.2,0,0.4,0.04,0.59,0.12c0.41,0.17,0.72,0.49,0.87,0.89c0.15,0.38,0.14,0.78-0.02,1.14c-0.87,2.01-21.24,48.77-42.48,70.17
				H186.32z"/>
		</g>
		<g>
			<path class="st0" d="M1187.09,562.09c0,0-16.48-104.89-42.37-76.92c-25.89,27.97-16.48,153.84-16.48,153.84
				s-14.12-41.96-32.95-32.63c-18.83,9.32,0,81.58,0,81.58s-23.54-13.99-32.95,0c-9.42,13.99,26.82,30.3,26.82,30.3h167.66
				c0,0,38.55-4.66,52.67-27.97c14.12-23.31-47.08,0-47.08,0s82.38-107.22,63.55-139.85c-18.83-32.63-75.32,41.96-75.32,41.96
				s56.49-160.83,14.12-186.47S1187.09,508.47,1187.09,562.09z"/>
			<g>
				<path class="st0" d="M1180.92,719.42c-0.09,0-0.19-0.01-0.29-0.04c-0.63-0.16-1.01-0.79-0.85-1.41l63.84-250.57
					c0.16-0.62,0.79-1.01,1.43-0.84c0.63,0.16,1.01,0.79,0.85,1.41l-63.84,250.57C1181.93,719.07,1181.45,719.42,1180.92,719.42z"/>
			</g>
			<g>
				<path class="st0" d="M1200.49,632.48c-10.89,0-20.27-3.89-27.92-11.59c-11.1-11.17-18.47-29.98-21.9-55.91
					c-2.54-19.22-1.85-35.42-1.84-35.58c0.03-0.63,0.55-1.11,1.17-1.11c0.02,0,0.03,0,0.05,0c0.65,0.03,1.15,0.57,1.12,1.22
					c-0.03,0.64-2.59,63.93,23.07,89.76c7.48,7.53,16.78,11.16,27.5,10.87c0.62-0.03,1.19,0.49,1.21,1.13
					c0.02,0.64-0.49,1.18-1.14,1.2C1201.38,632.48,1200.93,632.48,1200.49,632.48z"/>
			</g>
			<g>
				<path class="st0" d="M1192.66,688.15c-1.31,0-2.59-0.08-3.86-0.23c-0.65-0.08-1.11-0.66-1.03-1.3c0.08-0.64,0.68-1.09,1.31-1.02
					c47.55,5.57,109.33-106.63,109.95-107.76c0.31-0.57,1.03-0.77,1.6-0.47c0.57,0.31,0.79,1.01,0.48,1.58
					c-0.16,0.29-15.84,28.94-37.32,56.52C1236.54,670.45,1212.64,688.15,1192.66,688.15z"/>
			</g>
		</g>
		<g>
			<g>
				<path id="XMLID_177_" class="st2" d="M1167.9,651.98H186.55V45.67c0-23.89,19.36-43.25,43.25-43.25h894.85
					c23.89,0,43.25,19.36,43.25,43.25V651.98z"/>
				
					<rect id="XMLID_175_" x="394.43" y="-128.2" transform="matrix(-1.836970e-16 1 -1 -1.836970e-16 1005.3171 -350.9123)" class="st3" width="567.38" height="910.81"/>
				<path id="XMLID_174_" class="st4" d="M1258.2,651.98H96.24c-2.33,0-4.21,1.89-4.21,4.21v28.65c0,18.26,14.81,33.07,33.07,33.07
					h1104.25c18.26,0,33.07-14.81,33.07-33.07V656.2C1262.42,653.87,1260.53,651.98,1258.2,651.98z"/>
				<path id="XMLID_48_" class="st5" d="M936.02,651.98H418.43v16.43c0,9.13,7.4,16.54,16.54,16.54h484.52
					c9.13,0,16.54-7.4,16.54-16.54V651.98z"/>
				<polygon class="st6" points="948.15,2.42 692.5,651.98 858.93,651.98 1066.43,4.07 1066.43,2.42 				"/>
				<polygon class="st6" points="566.78,651.98 668.51,651.98 876.54,2.42 822.44,2.42 				"/>
			</g>
		</g>
	</g>
	<g>
		<polygon class="st7" points="421.64,348.88 572.91,348.88 572.91,418.9 540.59,455.28 421.64,455.28 		"/>
		<polygon class="st8" points="540.59,455.28 572.91,418.9 540.59,418.9 		"/>
		<g>
			<path class="st8" d="M474.91,384.89h-25.76c-1.98,0-3.58-1.6-3.58-3.58l0,0c0-1.98,1.6-3.58,3.58-3.58h25.76
				c1.98,0,3.58,1.6,3.58,3.58l0,0C478.49,383.29,476.89,384.89,474.91,384.89z"/>
			<path class="st8" d="M533.93,400.8h-84.75c-2,0-3.61-1.6-3.61-3.58l0,0c0-1.98,1.62-3.58,3.61-3.58h84.75c2,0,3.61,1.6,3.61,3.58
				l0,0C537.54,399.19,535.93,400.8,533.93,400.8z"/>
			<path class="st8" d="M498.96,416.7h-49.78c-2,0-3.61-1.6-3.61-3.58l0,0c0-1.98,1.62-3.58,3.61-3.58h49.78c2,0,3.61,1.6,3.61,3.58
				l0,0C502.58,415.09,500.96,416.7,498.96,416.7z"/>
			<path class="st8" d="M525.94,384.89h-36.64c-1.98,0-3.58-1.6-3.58-3.58l0,0c0-1.98,1.6-3.58,3.58-3.58h36.64
				c1.98,0,3.58,1.6,3.58,3.58l0,0C529.52,383.29,527.91,384.89,525.94,384.89z"/>
		</g>
	</g>
	<g>
		<g>
			<path class="st9" d="M407.36,190.18H220.03V44.05h187.33V190.18z M225.2,185.06h176.98V49.18H225.2V185.06z"/>
		</g>
		<g>
			<path class="st9" d="M589.52,190.18H402.19V44.05h187.33V190.18z M407.36,185.06h176.98V49.18H407.36V185.06z"/>
		</g>
		<g>
			<path class="st9" d="M771.67,190.18H584.34V44.05h187.33V190.18z M589.52,185.06H766.5V49.18H589.52V185.06z"/>
		</g>
		<g>
			<path class="st9" d="M953.83,190.18H766.5V44.05h187.33V190.18z M771.67,185.06h176.98V49.18H771.67V185.06z"/>
		</g>
		<g>
			<path class="st9" d="M1135.99,190.18H948.66V44.05h187.33V190.18z M953.83,185.06h176.98V49.18H953.83V185.06z"/>
		</g>
		<g>
			<path class="st9" d="M407.36,472.19H220.03V326.06h187.33V472.19z M225.2,467.07h176.98V331.19H225.2V467.07z"/>
		</g>
		<g>
			<path class="st9" d="M589.52,472.19H402.19V326.06h187.33V472.19z M407.36,467.07h176.98V331.19H407.36V467.07z"/>
		</g>
		<g>
			<path class="st9" d="M771.67,472.19H584.34V326.06h187.33V472.19z M589.52,467.07H766.5V331.19H589.52V467.07z"/>
		</g>
		<g>
			<path class="st9" d="M953.83,472.19H766.5V326.06h187.33V472.19z M771.67,467.07h176.98V331.19H771.67V467.07z"/>
		</g>
		<g>
			<path class="st9" d="M1135.99,472.19H948.66V326.06h187.33V472.19z M953.83,467.07h176.98V331.19H953.83V467.07z"/>
		</g>
		<g>
			<path class="st9" d="M407.36,613.2H220.03V467.07h187.33V613.2z M225.2,608.08h176.98V472.19H225.2V608.08z"/>
		</g>
		<g>
			<path class="st9" d="M589.52,613.2H402.19V467.07h187.33V613.2z M407.36,608.08h176.98V472.19H407.36V608.08z"/>
		</g>
		<g>
			<path class="st9" d="M771.67,613.2H584.34V467.07h187.33V613.2z M589.52,608.08H766.5V472.19H589.52V608.08z"/>
		</g>
		<g>
			<path class="st9" d="M953.83,613.2H766.5V467.07h187.33V613.2z M771.67,608.08h176.98V472.19H771.67V608.08z"/>
		</g>
		<g>
			<path class="st9" d="M1135.99,613.2H948.66V467.07h187.33V613.2z M953.83,608.08h176.98V472.19H953.83V608.08z"/>
		</g>
	</g>
	<g>
		<polygon class="st7" points="882.58,296.6 1032.86,313.72 1024.78,383.28 988.48,415.76 870.31,402.3 		"/>
		<polygon class="st8" points="988.48,415.76 1024.78,383.28 992.68,379.63 		"/>
		<g>
			<path class="st8" d="M931.32,338.41l-25.52-2.91c-1.98-0.23-3.4-2-3.18-3.96l0,0c0.23-1.96,2.02-3.37,4-3.15l25.52,2.91
				c1.98,0.23,3.4,2,3.18,3.96l0,0C935.09,337.22,933.3,338.63,931.32,338.41z"/>
			<path class="st8" d="M988.15,360.89l-84.19-9.59c-1.98-0.23-3.4-2-3.18-3.96l0,0c0.23-1.96,2.02-3.37,4-3.15l84.19,9.59
				c1.98,0.23,3.4,2,3.18,3.96l0,0C991.92,359.7,990.13,361.11,988.15,360.89z"/>
			<path class="st8" d="M951.58,372.73l-49.45-5.63c-1.98-0.23-3.4-2-3.18-3.96l0,0c0.23-1.96,2.02-3.37,4-3.15l49.45,5.63
				c1.98,0.23,3.4,2,3.18,3.96v0C955.35,371.54,953.56,372.95,951.58,372.73z"/>
			<path class="st8" d="M982.01,344.18l-36.33-4.14c-1.98-0.23-3.4-2-3.18-3.96l0,0c0.23-1.96,2.02-3.37,4-3.15l36.33,4.14
				c1.98,0.23,3.4,2,3.18,3.96v0C985.78,343,983.99,344.41,982.01,344.18z"/>
		</g>
	</g>
	<g>
		<polygon class="st10" points="966.5,63.98 1117.77,63.98 1117.77,134.01 1085.46,170.38 966.5,170.38 		"/>
		<polygon class="st11" points="1085.46,170.38 1117.77,134.01 1085.46,134.01 		"/>
		<g>
			<path class="st11" d="M1019.77,100h-25.76c-1.98,0-3.58-1.6-3.58-3.58l0,0c0-1.98,1.6-3.58,3.58-3.58h25.76
				c1.98,0,3.58,1.6,3.58,3.58l0,0C1023.35,98.4,1021.75,100,1019.77,100z"/>
			<path class="st11" d="M1078.79,115.9h-84.75c-2,0-3.61-1.6-3.61-3.58l0,0c0-1.98,1.62-3.58,3.61-3.58h84.75
				c2,0,3.61,1.6,3.61,3.58l0,0C1082.41,114.3,1080.79,115.9,1078.79,115.9z"/>
			<path class="st11" d="M1043.83,131.8h-49.78c-2,0-3.61-1.6-3.61-3.58l0,0c0-1.98,1.62-3.58,3.61-3.58h49.78
				c2,0,3.61,1.6,3.61,3.58l0,0C1047.44,130.2,1045.82,131.8,1043.83,131.8z"/>
			<path class="st11" d="M1070.8,100h-36.64c-1.98,0-3.58-1.6-3.58-3.58l0,0c0-1.98,1.6-3.58,3.58-3.58h36.64
				c1.98,0,3.58,1.6,3.58,3.58l0,0C1074.38,98.4,1072.78,100,1070.8,100z"/>
		</g>
	</g>
	<g>
		<polygon class="st12" points="603.26,63.98 754.53,63.98 754.53,134.01 722.21,170.38 603.26,170.38 		"/>
		<polygon class="st9" points="722.21,170.38 754.53,134.01 722.21,134.01 		"/>
		<g>
			<path class="st9" d="M656.53,100h-25.76c-1.98,0-3.58-1.6-3.58-3.58l0,0c0-1.98,1.6-3.58,3.58-3.58h25.76
				c1.98,0,3.58,1.6,3.58,3.58l0,0C660.11,98.4,658.51,100,656.53,100z"/>
			<path class="st9" d="M715.55,115.9h-84.75c-2,0-3.61-1.6-3.61-3.58l0,0c0-1.98,1.62-3.58,3.61-3.58h84.75c2,0,3.61,1.6,3.61,3.58
				l0,0C719.17,114.3,717.55,115.9,715.55,115.9z"/>
			<path class="st9" d="M680.58,131.8h-49.78c-2,0-3.61-1.6-3.61-3.58l0,0c0-1.98,1.62-3.58,3.61-3.58h49.78c2,0,3.61,1.6,3.61,3.58
				l0,0C684.2,130.2,682.58,131.8,680.58,131.8z"/>
			<path class="st9" d="M707.56,100h-36.64c-1.98,0-3.58-1.6-3.58-3.58l0,0c0-1.98,1.6-3.58,3.58-3.58h36.64
				c1.98,0,3.58,1.6,3.58,3.58l0,0C711.14,98.4,709.53,100,707.56,100z"/>
		</g>
	</g>
	<g>
		<polygon class="st9" points="603.26,486.71 754.53,486.71 754.53,556.74 722.21,593.11 603.26,593.11 		"/>
		<polygon class="st13" points="722.21,593.11 754.53,556.74 722.21,556.74 		"/>
		<g>
			<path class="st13" d="M656.53,522.73h-25.76c-1.98,0-3.58-1.6-3.58-3.58l0,0c0-1.98,1.6-3.58,3.58-3.58h25.76
				c1.98,0,3.58,1.6,3.58,3.58l0,0C660.11,521.13,658.51,522.73,656.53,522.73z"/>
			<path class="st13" d="M715.55,538.63h-84.75c-2,0-3.61-1.6-3.61-3.58l0,0c0-1.98,1.62-3.58,3.61-3.58h84.75
				c2,0,3.61,1.6,3.61,3.58l0,0C719.17,537.03,717.55,538.63,715.55,538.63z"/>
			<path class="st13" d="M680.58,554.53h-49.78c-2,0-3.61-1.6-3.61-3.58l0,0c0-1.98,1.62-3.58,3.61-3.58h49.78
				c2,0,3.61,1.6,3.61,3.58l0,0C684.2,552.93,682.58,554.53,680.58,554.53z"/>
			<path class="st13" d="M707.56,522.73h-36.64c-1.98,0-3.58-1.6-3.58-3.58l0,0c0-1.98,1.6-3.58,3.58-3.58h36.64
				c1.98,0,3.58,1.6,3.58,3.58l0,0C711.14,521.13,709.53,522.73,707.56,522.73z"/>
		</g>
	</g>
</g>
<g class="st14">
	<g class="st15">
		<path class="st16" d="M1151.01,408.68l0.05,0.08h-0.05V408.68z M1207.02,380.52l-0.16-0.16v-8.94h-8.94l-0.39-0.39v-8.94h-8.95
			l-0.31-0.31v-9.02h-9.02l-0.48-0.48v-8.85h-8.85l-0.48-0.48v-8.85h-8.86l-0.48-0.48v-8.86h-8.86l-0.47-0.47v-8.86h-8.86
			l-0.47-0.47v-8.86h-8.87l-0.47-0.47v-8.87h-8.87l-0.14-0.14v-8.87h-9.32v-9.38h-8.64v158.44h8.64v-0.05h9.24v-9.33h-0.06
			l0.06-0.06v0.06h9.33v-9.33h-0.13l0.13-0.14v0.14h9.33v-9.33h-0.21l0.21-0.21v0.21h9.33v9.33v9.33h9.33v-0.41l0.2,0.41h-0.2v9.33
			v9.33h9.21l0.12,0.25v9.08h18.52v-9.29l0.13-0.05h9.2v-18.66h-9l-0.25-0.32v-9.01v-9.33h-9.18l-0.08-0.14v-8.95h9.18h0.07h9.26
			h9.33h9.33v-19.15H1207.02z"/>
	</g>
	<g>
		<polygon class="st1" points="1113.69,295.48 1113.69,428.02 1122.24,428.02 1147.36,402.69 1153.08,411.87 1163.4,433.22 
			1170.31,447.52 1174.15,450.97 1191.18,444.95 1192.58,432.47 1183.6,421.02 1181.74,413.3 1175.62,402.54 1177.73,393.53 
			1214.85,395.02 1212.4,385.77 1117.1,290.51 		"/>
		<rect x="1104.78" y="278.24" class="st17" width="8.99" height="158.44"/>
		<rect x="1113.76" y="287.62" class="st17" width="9.33" height="9.33"/>
		<rect x="1122.77" y="296.63" class="st17" width="9.33" height="9.33"/>
		<rect x="1132.1" y="305.97" class="st17" width="9.33" height="9.33"/>
		<rect x="1141.43" y="315.3" class="st17" width="9.33" height="9.33"/>
		<rect x="1150.76" y="324.63" class="st17" width="9.33" height="9.33"/>
		<rect x="1160.09" y="333.96" class="st17" width="9.33" height="9.33"/>
		<rect x="1169.43" y="343.29" class="st17" width="9.33" height="9.33"/>
		<rect x="1178.93" y="352.63" class="st17" width="9.33" height="9.33"/>
		<rect x="1141.68" y="399.3" class="st17" width="9.33" height="9.33"/>
		<rect x="1178.93" y="390.21" class="st17" width="9.33" height="9.33"/>
		<rect x="1188.19" y="390.21" class="st17" width="9.33" height="9.33"/>
		<rect x="1197.52" y="390.21" class="st17" width="9.33" height="9.33"/>
		<polygon class="st17" points="1151.01,408.63 1151.01,417.96 1151.01,427.3 1160.34,427.3 1160.34,417.96 1160.34,408.63 		"/>
		<polygon class="st17" points="1160.34,427.3 1160.34,436.63 1160.34,445.96 1169.67,445.96 1169.67,436.63 1169.67,427.3 		"/>
		<polygon class="st17" points="1188.19,427.3 1188.19,436.63 1188.19,445.96 1197.52,445.96 1197.52,436.63 1197.52,427.3 		"/>
		<polygon class="st17" points="1178.93,408.63 1178.93,417.96 1178.93,427.3 1188.26,427.3 1188.26,417.96 1188.26,408.63 		"/>
		<polygon class="st17" points="1169.67,390.21 1169.67,399.54 1169.67,408.87 1179.01,408.87 1179.01,399.54 1179.01,390.21 		"/>
		<rect x="1132.35" y="408.63" class="st17" width="9.33" height="9.33"/>
		<rect x="1123.01" y="417.96" class="st17" width="9.33" height="9.33"/>
		<rect x="1113.68" y="427.3" class="st17" width="9.33" height="9.33"/>
		<rect x="1188.19" y="361.96" class="st17" width="9.33" height="9.33"/>
		<rect x="1197.52" y="371.29" class="st17" width="9.33" height="9.33"/>
		<rect x="1206.85" y="380.39" class="st17" width="9.33" height="19.15"/>
		<rect x="1169.67" y="445.96" class="st17" width="18.52" height="9.33"/>
	</g>
</g>
<g>
	<path class="st18" d="M105.75,439.52c0,0,0.92-10.6,24.28-5.87c23.35,4.73,35.49,9.13,35.49,9.13s5.26,0.53,4.88-3.67
		c-0.38-4.2-4.23-12.61,0.16-15.75c4.56-3.26,10.37-0.91,16.65,5.39c6.28,6.3,20.54,19.59,21.84,20.79
		c1.27,1.18,3.88,1.98,4.08-0.92s-3.25-23.27,6.51-24.33c9.76-1.06,24.37,19.36,26.01,21.56c1.64,2.2,2.85,2.5,4.15,1.92
		c1.3-0.58-0.51-7.31-1.25-13.15s-0.59-12.73,5.1-12.87c5.68-0.14,20.59,10.21,32.91,42l4.74,15.11l-10.56,11.89
		c-24.16,24.06-41.98,27.47-47.12,25.04c-5.14-2.43-2.49-8.8,0.56-13.83c3.05-5.03,7.43-10.45,6.48-11.51
		c-0.95-1.06-2.18-1.27-4.57,0.07c-2.39,1.35-24.03,14.08-32.52,9.15c-8.49-4.93,2.93-22.14,3.92-24.88
		c0.99-2.73-1.72-3.05-3.35-2.5c-1.67,0.57-20.1,6.93-28.39,10.14c-8.29,3.21-14.56,3-17.4-1.83c-2.74-4.66,4.2-10.77,6.25-14.46
		c2.05-3.69-2.97-5.34-2.97-5.34s-12.88-0.9-36.14-6.05c-23.27-5.15-19.67-15.45-19.67-15.45"/>
	<path class="st19" d="M126.68,443.72c0,0,0.16,0.05,0.48,0.13c0.34,0.08,0.81,0.19,1.43,0.34c1.28,0.29,3.12,0.72,5.49,1.26
		c4.77,1.09,11.69,2.62,20.24,4.47c17.1,3.72,40.77,8.65,66.92,14.02c26.16,5.37,49.84,10.25,66.96,13.88
		c8.54,1.82,15.46,3.3,20.27,4.32c2.38,0.5,4.23,0.9,5.51,1.17c0.61,0.13,1.09,0.22,1.44,0.29c0.32,0.06,0.49,0.08,0.49,0.08
		s-0.16-0.05-0.48-0.13c-0.34-0.08-0.81-0.19-1.43-0.34c-1.28-0.29-3.12-0.72-5.49-1.26c-4.77-1.09-11.68-2.62-20.23-4.47
		c-17.1-3.72-40.77-8.66-66.93-14.03c-26.15-5.37-49.83-10.25-66.94-13.88c-8.54-1.82-15.46-3.3-20.27-4.32
		c-2.38-0.51-4.23-0.9-5.51-1.17c-0.62-0.13-1.09-0.22-1.44-0.29C126.85,443.74,126.68,443.72,126.68,443.72"/>
	<path class="st19" d="M176.44,434.9c-0.03,0.02,0.19,0.37,0.59,0.98c0.41,0.62,1.02,1.49,1.78,2.56c1.54,2.14,3.73,5.03,6.21,8.18
		c2.46,3.1,4.68,5.9,6.38,8.04c0.76,0.97,1.4,1.79,1.92,2.45c0.45,0.58,0.71,0.89,0.74,0.87c0.03-0.02-0.18-0.37-0.58-0.99
		c-0.41-0.61-1.02-1.49-1.8-2.55c-1.56-2.12-3.79-4.99-6.27-8.14c-2.44-3.11-4.64-5.93-6.32-8.09c-0.76-0.98-1.39-1.8-1.91-2.46
		C176.73,435.19,176.47,434.88,176.44,434.9"/>
	<path class="st19" d="M193.39,459.3c-0.08-0.11-6.25,4.16-13.78,9.53c-7.53,5.38-13.57,9.82-13.49,9.93
		c0.08,0.11,6.25-4.15,13.78-9.53C187.43,463.85,193.47,459.41,193.39,459.3"/>
	<path class="st18" d="M234.71,614.08c13.17-16.04,11.6-40.21,6.31-61.09c-0.88-3.49-1.36-7.26-3.53-10.02
		c-2.16-2.76-6.08-4.12-8.53-2.04c-2.03,1.72-2.37,4.97-3.1,7.76c-0.98,3.71-2.92,7.02-5.54,9.43c-1.72,1.59-4.01,2.82-6.23,2.03
		c-3.05-1.09-4.29-5.21-5.05-8.7c-1.41-6.51-2.82-13.02-4.22-19.54c-0.76-3.49-1.54-7.06-3.23-10.16c-1.7-3.1-4.5-5.72-7.65-6.02
		c-3.15-0.3-6.36,2.4-6.22,5.95c0.06,1.48,0.64,2.9,0.88,4.36c0.23,1.47-0.01,3.2-1.14,3.86c-1.14,0.68-2.6-0.05-3.75-0.87
		c-3.97-2.83-7.14-6.91-10.17-10.99c-3.02-4.08-6.01-8.28-9.76-11.49c-3.75-3.22-8.43-5.4-12.91-4.73
		c-4.49,0.67-8.52,4.77-8.55,9.92c-0.03,5.16,3.62,9.6,7.27,12.99c5.41,5.02,11.43,9.2,17.79,12.36c1.15,0.57,2.39,1.19,3.05,2.4
		c1.19,2.18-0.25,4.91-2.11,6.12c-2.11,1.36-4.67,1.63-7.01,2.47c-2.34,0.84-4.68,2.6-5.02,5.37c-0.47,3.84,3,7.01,6.14,8.9
		c6.29,3.78,13.1,6.37,20.02,7.63c2.48,0.45,5.06,0.76,7.29,2.17c2.23,1.41,4.04,4.31,3.47,7c-0.56,2.7-3.23,4.1-5.72,4.11
		c-2.49,0.02-4.95-0.98-7.43-1.46c-4.65-0.89-10.06,0.62-11.86,5.35c-1.18,3.11-0.5,6.94,1.13,9.99c1.62,3.05,4.08,5.45,6.6,7.61
		c8.81,7.55,19.13,12.93,29.84,14.66C216.46,621.16,225.82,620.24,234.71,614.08"/>
	<g class="st20">
		<g>
			<defs>
				<rect id="SVGID_1_" x="142.31" y="501.71" width="102.6" height="118.49"/>
			</defs>
			<clipPath id="SVGID_2_">
				<use xlink:href="#SVGID_1_"  style="overflow:visible;"/>
			</clipPath>
			<path class="st21" d="M234.71,614.08c13.17-16.04,11.6-40.21,6.31-61.09c-0.88-3.49-1.36-7.26-3.53-10.02
				c-2.16-2.76-6.08-4.12-8.53-2.04c-2.03,1.72-2.37,4.97-3.1,7.76c-0.98,3.71-2.92,7.02-5.54,9.43c-1.72,1.59-4.01,2.82-6.23,2.03
				c-3.05-1.09-4.29-5.21-5.05-8.7c-1.41-6.51-2.82-13.02-4.22-19.54c-0.76-3.49-1.54-7.06-3.23-10.16c-1.7-3.1-4.5-5.72-7.65-6.02
				c-3.15-0.3-6.36,2.4-6.22,5.95c0.06,1.48,0.64,2.9,0.88,4.36c0.23,1.47-0.01,3.2-1.14,3.86c-1.14,0.68-2.6-0.05-3.75-0.87
				c-3.97-2.83-7.14-6.91-10.17-10.99c-3.02-4.08-6.01-8.28-9.76-11.49c-3.75-3.22-8.43-5.4-12.91-4.73
				c-4.49,0.67-8.52,4.77-8.55,9.92c-0.03,5.16,3.62,9.6,7.27,12.99c5.41,5.02,11.43,9.2,17.79,12.36c1.15,0.57,2.39,1.19,3.05,2.4
				c1.19,2.18-0.25,4.91-2.11,6.12c-2.11,1.36-4.67,1.63-7.01,2.47c-2.34,0.84-4.68,2.6-5.02,5.37c-0.47,3.84,3,7.01,6.14,8.9
				c6.29,3.78,13.1,6.37,20.02,7.63c2.48,0.45,5.06,0.76,7.29,2.17c2.23,1.41,4.04,4.31,3.47,7c-0.56,2.7-3.23,4.1-5.72,4.11
				c-2.49,0.02-4.95-0.98-7.43-1.46c-4.65-0.89-10.06,0.62-11.86,5.35c-1.18,3.11-0.5,6.94,1.13,9.99c1.62,3.05,4.08,5.45,6.6,7.61
				c8.81,7.55,19.13,12.93,29.84,14.66C216.46,621.16,225.82,620.24,234.71,614.08"/>
		</g>
	</g>
	<path class="st19" d="M238.42,629.61c-2.52-8.18-6.32-17.67-11.43-27.67c-5.09-10.02-11.47-20.53-18.46-31.29
		c-1.76-2.68-3.49-5.34-5.2-7.95c-1.71-2.61-3.41-5.19-5.21-7.61c-3.57-4.86-7.33-9.25-11-13.3c-3.67-4.05-7.28-7.76-10.68-11.19
		c-3.41-3.43-6.63-6.56-9.67-9.29c-6.07-5.47-11.4-9.26-15.14-11.7c-1.87-1.23-3.34-2.13-4.35-2.72c-0.48-0.28-0.86-0.5-1.15-0.67
		c-0.26-0.15-0.39-0.22-0.4-0.21c-0.01,0.01,0.12,0.1,0.37,0.27c0.28,0.18,0.65,0.42,1.12,0.73c0.99,0.63,2.45,1.57,4.3,2.83
		c3.7,2.5,8.97,6.34,15,11.84c3.02,2.74,6.22,5.89,9.61,9.33c3.38,3.45,6.98,7.16,10.63,11.22c3.65,4.05,7.39,8.43,10.93,13.27
		c1.78,2.41,3.46,4.97,5.18,7.58c1.71,2.61,3.44,5.27,5.2,7.95c6.99,10.75,13.36,21.23,18.47,31.21
		c5.12,9.96,8.94,19.39,11.51,27.52"/>
	<path class="st19" d="M156.35,555.28c0.01,0.04,0.59,0,1.63-0.13c1.04-0.12,2.55-0.3,4.42-0.45c3.74-0.34,8.93-0.61,14.67-0.63
		c5.75-0.01,10.97,0.24,14.75,0.54c1.89,0.13,3.42,0.29,4.47,0.39c1.06,0.1,1.64,0.14,1.65,0.09c0-0.05-0.58-0.17-1.63-0.35
		c-1.05-0.18-2.58-0.4-4.48-0.6c-3.78-0.42-9.02-0.74-14.79-0.73c-5.77,0.02-10.97,0.36-14.7,0.82c-1.87,0.22-3.37,0.46-4.4,0.66
		C156.91,555.1,156.34,555.24,156.35,555.28"/>
	<path class="st19" d="M169.25,593.39c0,0.02,0.2,0.07,0.58,0.13c0.45,0.07,1,0.15,1.66,0.25c1.53,0.21,3.6,0.5,6.11,0.85
		c5.16,0.72,12.28,1.8,20.15,3.01c7.87,1.21,15.01,2.22,20.18,2.82c2.58,0.3,4.68,0.52,6.12,0.64c0.67,0.05,1.22,0.09,1.67,0.13
		c0.38,0.02,0.58,0.02,0.58,0c0-0.02-0.2-0.07-0.58-0.13c-0.45-0.07-0.99-0.15-1.66-0.25c-1.53-0.21-3.6-0.5-6.11-0.85
		c-5.16-0.72-12.28-1.8-20.16-3.01c-7.87-1.21-15.01-2.22-20.18-2.82c-2.58-0.3-4.68-0.52-6.13-0.64c-0.67-0.05-1.22-0.09-1.67-0.13
		C169.45,593.37,169.25,593.37,169.25,593.39"/>
	<g class="st22">
		<g>
			<defs>
				<rect id="SVGID_3_" x="34.2" y="345.27" width="159.34" height="100.14"/>
			</defs>
			<clipPath id="SVGID_4_">
				<use xlink:href="#SVGID_3_"  style="overflow:visible;"/>
			</clipPath>
			<path class="st23" d="M34.77,349.54c0,0,2.95-9.34,22.98-0.41c20.03,8.92,30.05,15.31,30.05,15.31s4.62,1.53,5.12-2.32
				c0.5-3.85-1.28-12.17,3.3-14.11c4.74-2.02,9.49,1.26,13.87,8.17c4.38,6.91,14.53,21.71,15.45,23.04
				c0.91,1.31,3.08,2.56,3.85-0.01c0.76-2.57,1.74-21.55,10.72-20.55c8.98,1,18.01,22.27,19.05,24.57c1.03,2.31,2.06,2.82,3.34,2.56
				c1.28-0.26,1.01-6.67,1.51-12.06c0.5-5.39,2.02-11.55,7.15-10.53c5.13,1.01,16.45,13.29,21.15,44.32l1.24,14.52l-11.87,8.56
				c-26.52,16.77-43.21,16.27-47.34,13.05c-4.13-3.21-0.47-8.4,3.27-12.31c3.74-3.91,8.77-7.9,8.12-9.04
				c-0.64-1.14-1.7-1.58-4.12-0.85c-2.42,0.73-24.4,7.84-31.04,1.71c-6.64-6.13,7.06-19.3,8.5-21.56c1.44-2.26-0.93-3.09-2.51-2.91
				c-1.61,0.18-19.44,2.2-27.53,3.42c-8.09,1.22-13.68-0.22-15.26-5.13c-1.53-4.73,5.93-8.84,8.51-11.74c2.58-2.9-1.6-5.39-1.6-5.39
				s-11.39-3.39-31.25-12.67c-19.86-9.29-14.57-17.82-14.57-17.82"/>
		</g>
	</g>
	<path class="st19" d="M52.72,357.5c0,0,0.14,0.08,0.41,0.22c0.29,0.14,0.69,0.34,1.21,0.59c1.09,0.52,2.66,1.27,4.68,2.23
		c4.07,1.93,9.97,4.69,17.28,8.07c14.61,6.76,34.88,15.94,57.3,25.99c22.42,10.06,42.71,19.19,57.36,25.87
		c7.31,3.35,13.23,6.06,17.34,7.94c2.03,0.93,3.62,1.65,4.72,2.15c0.53,0.24,0.94,0.42,1.23,0.55c0.28,0.12,0.43,0.17,0.43,0.17
		s-0.13-0.08-0.41-0.21c-0.29-0.14-0.69-0.34-1.21-0.59c-1.09-0.52-2.66-1.27-4.68-2.23c-4.07-1.93-9.97-4.69-17.28-8.07
		c-14.61-6.76-34.89-15.94-57.31-26c-22.42-10.06-42.7-19.18-57.35-25.87c-7.31-3.34-13.23-6.06-17.34-7.94
		c-2.03-0.93-3.62-1.65-4.72-2.16c-0.53-0.24-0.94-0.42-1.23-0.55C52.86,357.55,52.72,357.5,52.72,357.5"/>
	<path class="st19" d="M99.18,359.54c-0.03,0.01,0.09,0.37,0.34,1c0.24,0.63,0.62,1.54,1.09,2.65c0.95,2.23,2.35,5.27,3.94,8.59
		c1.59,3.28,3.03,6.24,4.12,8.5c0.49,1.02,0.9,1.89,1.23,2.58c0.29,0.61,0.46,0.94,0.49,0.93c0.03-0.01-0.09-0.37-0.33-1
		c-0.24-0.63-0.62-1.54-1.1-2.65c-0.97-2.22-2.41-5.24-4.01-8.56c-1.56-3.29-2.98-6.26-4.06-8.53c-0.49-1.03-0.89-1.9-1.22-2.59
		C99.38,359.86,99.21,359.53,99.18,359.54"/>
	<path class="st19" d="M109.52,384.85c-0.05-0.11-6.44,2.48-14.28,5.8c-7.84,3.32-14.16,6.1-14.11,6.22
		c0.05,0.12,6.44-2.48,14.29-5.8C103.25,387.75,109.57,384.97,109.52,384.85"/>
	<path class="st19" d="M144.64,398.75c-0.02-0.02-0.33,0.2-0.87,0.64c-0.61,0.5-1.37,1.11-2.27,1.85c-1.92,1.56-4.57,3.7-7.58,5.95
		c-3.01,2.26-5.81,4.21-7.84,5.6c-0.96,0.66-1.76,1.21-2.41,1.66c-0.57,0.4-0.87,0.63-0.86,0.65c0.02,0.03,0.35-0.15,0.95-0.5
		c0.6-0.35,1.45-0.87,2.49-1.54c2.08-1.33,4.92-3.24,7.94-5.51c3.02-2.26,5.65-4.44,7.52-6.07c0.93-0.81,1.67-1.48,2.18-1.96
		C144.4,399.04,144.66,398.77,144.64,398.75"/>
	<path class="st19" d="M140.33,373.8c-0.03,0.01,0,0.36,0.07,0.99c0.1,0.73,0.22,1.63,0.36,2.68c0.32,2.26,0.79,5.38,1.34,8.81
		c0.55,3.44,1.07,6.55,1.47,8.8c0.2,1.05,0.36,1.94,0.5,2.66c0.13,0.63,0.21,0.97,0.24,0.96c0.03,0,0-0.36-0.07-0.99
		c-0.1-0.73-0.21-1.62-0.35-2.68c-0.32-2.26-0.79-5.38-1.34-8.82c-0.55-3.44-1.07-6.55-1.47-8.79c-0.2-1.05-0.36-1.94-0.5-2.66
		C140.44,374.14,140.36,373.79,140.33,373.8"/>
	<path class="st19" d="M172.9,382.12c-0.03,0.01,0.01,0.46,0.1,1.27c0.11,0.89,0.26,2.05,0.44,3.44c0.39,2.9,0.97,6.9,1.63,11.31
		c0.66,4.42,1.29,8.41,1.76,11.29c0.24,1.38,0.43,2.53,0.58,3.42c0.15,0.8,0.24,1.25,0.28,1.24c0.03,0-0.01-0.46-0.1-1.27
		c-0.12-0.9-0.26-2.05-0.44-3.44c-0.39-2.9-0.97-6.9-1.63-11.31c-0.66-4.41-1.29-8.4-1.76-11.29c-0.24-1.38-0.43-2.52-0.59-3.42
		C173.02,382.56,172.93,382.12,172.9,382.12"/>
	<path class="st19" d="M177.36,413.36c-0.02-0.02-0.42,0.25-1.12,0.78c-0.76,0.58-1.76,1.33-2.96,2.24
		c-2.5,1.89-5.96,4.48-9.86,7.23c-3.9,2.76-7.5,5.17-10.11,6.89c-1.26,0.83-2.3,1.52-3.1,2.04c-0.73,0.49-1.13,0.77-1.11,0.79
		c0.02,0.03,0.44-0.2,1.2-0.64c0.76-0.44,1.85-1.09,3.18-1.92c2.66-1.66,6.29-4.02,10.2-6.79c3.91-2.76,7.35-5.4,9.8-7.35
		c1.22-0.98,2.21-1.78,2.87-2.35C177.02,413.71,177.38,413.38,177.36,413.36"/>
	<path class="st18" d="M216.66,139.44c-22.04,4.7-42.41-8.58-57.65-23.8c-2.55-2.54-5.58-4.84-6.72-8.24
		c-1.14-3.4,0.01-7.79,3.31-9.11c2.74-1.09,5.8,0.17,8.7,0.83c3.85,0.88,7.94,0.64,11.64-0.67c2.43-0.86,4.89-2.44,5.52-4.94
		c0.86-3.43-2.02-6.62-4.65-9.05c-4.9-4.52-9.8-9.03-14.7-13.55c-2.63-2.42-5.3-4.9-7.03-8.03c-1.72-3.13-2.35-7.07-0.73-10.21
		c1.63-3.14,5.93-4.87,8.98-3.01c1.27,0.78,2.17,2.02,3.32,2.96c1.15,0.94,2.82,1.55,4.09,0.81c1.28-0.76,1.52-2.5,1.48-3.99
		c-0.12-5.16-1.81-10.16-3.6-15.03c-1.78-4.87-3.69-9.76-4.29-14.89c-0.59-5.13,0.28-10.65,3.56-14.59
		c3.28-3.94,9.31-5.77,13.87-3.29c4.57,2.49,6.3,8.13,7.1,13.25c1.19,7.6,1.27,15.36,0.24,22.95c-0.18,1.37-0.39,2.85,0.29,4.07
		c1.21,2.19,4.48,2.16,6.66,0.97c2.47-1.34,4.24-3.65,6.38-5.46c2.14-1.81,5.1-3.18,7.75-2.16c3.67,1.42,4.39,6.27,4.17,10.18
		c-0.44,7.83-2.23,15.56-5.26,22.76c-1.09,2.58-2.36,5.18-2.46,7.99c-0.1,2.81,1.38,5.94,4.09,6.72c2.72,0.78,5.55-1.07,7.06-3.43
		c1.51-2.36,2.09-5.19,3.16-7.78c1.99-4.86,6.57-9.27,11.82-8.67c3.45,0.39,6.42,2.91,8.14,5.94c1.72,3.03,2.37,6.54,2.76,9.99
		c1.38,12.06-0.06,24.5-4.94,35.53C233.84,125.54,227.41,133.99,216.66,139.44"/>
	<g class="st20">
		<g>
			<defs>
				<rect id="SVGID_5_" x="151.86" y="0.52" width="92.31" height="139.88"/>
			</defs>
			<clipPath id="SVGID_6_">
				<use xlink:href="#SVGID_5_"  style="overflow:visible;"/>
			</clipPath>
			<path class="st24" d="M216.66,139.44c-22.04,4.7-42.41-8.58-57.65-23.8c-2.55-2.54-5.58-4.84-6.72-8.24
				c-1.14-3.4,0.01-7.79,3.31-9.11c2.74-1.09,5.8,0.17,8.7,0.83c3.85,0.88,7.94,0.64,11.64-0.67c2.43-0.86,4.89-2.44,5.52-4.94
				c0.86-3.43-2.02-6.62-4.65-9.05c-4.9-4.52-9.8-9.03-14.7-13.55c-2.63-2.42-5.3-4.9-7.03-8.03c-1.72-3.13-2.35-7.07-0.73-10.21
				c1.63-3.14,5.93-4.87,8.98-3.01c1.27,0.78,2.17,2.02,3.32,2.96c1.15,0.94,2.82,1.55,4.09,0.81c1.28-0.76,1.52-2.5,1.48-3.99
				c-0.12-5.16-1.81-10.16-3.6-15.03c-1.78-4.87-3.69-9.76-4.29-14.89c-0.59-5.13,0.28-10.65,3.56-14.59
				c3.28-3.94,9.31-5.77,13.87-3.29c4.57,2.49,6.3,8.13,7.1,13.25c1.19,7.6,1.27,15.36,0.24,22.95c-0.18,1.37-0.39,2.85,0.29,4.07
				c1.21,2.19,4.48,2.16,6.66,0.97c2.47-1.34,4.24-3.65,6.38-5.46c2.14-1.81,5.1-3.18,7.75-2.16c3.67,1.42,4.39,6.27,4.17,10.18
				c-0.44,7.83-2.23,15.56-5.26,22.76c-1.09,2.58-2.36,5.18-2.46,7.99c-0.1,2.81,1.38,5.94,4.09,6.72c2.72,0.78,5.55-1.07,7.06-3.43
				c1.51-2.36,2.09-5.19,3.16-7.78c1.99-4.86,6.57-9.27,11.82-8.67c3.45,0.39,6.42,2.91,8.14,5.94c1.72,3.03,2.37,6.54,2.76,9.99
				c1.38,12.06-0.06,24.5-4.94,35.53C233.84,125.54,227.41,133.99,216.66,139.44"/>
		</g>
	</g>
	<path class="st19" d="M228.14,150.54c-5.7-6.39-11.79-14.63-17.56-24.37c-5.78-9.73-11.24-20.92-16.54-32.83
		c-1.31-2.98-2.61-5.92-3.89-8.83c-1.27-2.9-2.53-5.78-3.59-8.67c-2.15-5.77-3.77-11.48-5.14-16.95
		c-1.37-5.47-2.48-10.71-3.47-15.62c-0.99-4.91-1.82-9.51-2.4-13.73c-1.19-8.44-1.34-15.35-1.25-20.1c0.04-2.38,0.13-4.22,0.21-5.47
		c0.04-0.6,0.07-1.07,0.1-1.42c0.03-0.32,0.05-0.48,0.06-0.48c0.01,0,0.02,0.17,0.01,0.49c-0.01,0.35-0.02,0.82-0.03,1.42
		c-0.03,1.25-0.08,3.09-0.08,5.47c-0.01,4.74,0.21,11.63,1.46,20.04c0.61,4.21,1.46,8.79,2.47,13.69c1.02,4.9,2.14,10.13,3.52,15.58
		c1.38,5.45,3.01,11.14,5.15,16.87c1.06,2.87,2.31,5.72,3.59,8.63c1.28,2.9,2.58,5.84,3.89,8.82c5.3,11.89,10.72,23.06,16.46,32.79
		c5.72,9.73,11.74,17.96,17.38,24.37"/>
	<path class="st19" d="M186.67,75.7c-0.02,0.04-0.5-0.24-1.35-0.78c-0.85-0.54-2.05-1.35-3.53-2.39c-2.95-2.06-6.92-5.04-11.29-8.35
		c-4.37-3.31-8.37-6.22-11.34-8.23c-1.48-1.01-2.69-1.81-3.53-2.36c-0.84-0.55-1.29-0.87-1.27-0.91c0.02-0.04,0.52,0.21,1.4,0.69
		c0.89,0.48,2.14,1.22,3.65,2.19c3.05,1.92,7.11,4.79,11.48,8.1c4.3,3.27,8.19,6.23,11.17,8.49c1.35,1.01,2.49,1.87,3.4,2.55
		C186.26,75.31,186.69,75.66,186.67,75.7"/>
	<path class="st19" d="M210.35,125.18c-0.01,0.02-0.22-0.03-0.63-0.15c-0.47-0.15-1.05-0.34-1.75-0.56
		c-1.52-0.49-3.7-1.26-6.38-2.25c-5.36-1.97-12.68-4.93-20.72-8.3c-8.04-3.37-15.32-6.39-20.64-8.47c-2.59-1.01-4.72-1.83-6.3-2.45
		c-0.69-0.27-1.25-0.49-1.71-0.67c-0.39-0.16-0.59-0.26-0.58-0.28c0.01-0.02,0.22,0.03,0.63,0.15c0.47,0.15,1.05,0.34,1.75,0.56
		c1.52,0.49,3.7,1.26,6.38,2.25c5.36,1.97,12.68,4.93,20.72,8.3c8.04,3.37,15.32,6.39,20.63,8.47c2.59,1,4.72,1.83,6.3,2.45
		c0.69,0.27,1.25,0.49,1.71,0.67C210.16,125.06,210.36,125.16,210.35,125.18"/>
	<path class="st18" d="M66.03,231.75c0,0,7.09-6.76,20.33,10.72c13.24,17.48,18.94,27.9,18.94,27.9s3.31,3.57,5.61,0.44
		c2.3-3.13,4.75-11.28,9.7-10.78c5.13,0.52,7.71,5.68,8.21,13.85c0.5,8.17,2.26,26.02,2.42,27.64c0.16,1.58,1.47,3.73,3.38,1.85
		s11.91-18.04,19.3-12.83c7.38,5.21,5.04,28.19,4.83,30.71c-0.21,2.52,0.45,3.46,1.69,3.85c1.25,0.39,4.1-5.36,7.14-9.84
		c3.04-4.48,7.34-9.14,11.35-5.78c4.01,3.36,8,19.58-2.84,49.02l-5.92,13.31l-14.53,1.78c-31.32,1.91-45.7-6.59-47.76-11.39
		c-2.07-4.81,3.64-7.59,8.8-9.2c5.16-1.62,11.49-2.69,11.47-4c-0.01-1.31-0.73-2.21-3.2-2.73c-2.47-0.53-25.16-4.9-28.02-13.47
		c-2.86-8.57,15.49-13.5,17.84-14.78c2.35-1.28,0.68-3.15-0.8-3.77c-1.5-0.62-18.09-7.44-25.77-10.28
		c-7.68-2.83-11.87-6.79-10.9-11.85c0.94-4.88,9.45-4.88,13.11-6.18c3.66-1.3,1.2-5.5,1.2-5.5s-8.34-8.46-21.27-26.17
		s-4.17-22.64-4.17-22.64"/>
	<path class="st19" d="M77.91,247.38c0,0,0.08,0.14,0.25,0.39c0.18,0.26,0.44,0.63,0.78,1.1c0.7,0.98,1.72,2.4,3.02,4.21
		c2.63,3.66,6.47,8.92,11.25,15.4c9.54,12.97,22.87,30.78,37.66,50.4c14.79,19.63,28.16,37.41,37.77,50.33
		c4.79,6.45,8.67,11.68,11.36,15.31c1.33,1.79,2.37,3.2,3.09,4.16c0.35,0.46,0.62,0.82,0.81,1.08c0.19,0.24,0.29,0.36,0.29,0.36
		s-0.08-0.13-0.25-0.38c-0.19-0.26-0.44-0.63-0.78-1.1c-0.7-0.98-1.72-2.4-3.02-4.21c-2.63-3.66-6.47-8.92-11.24-15.4
		c-9.54-12.97-22.88-30.78-37.67-50.41c-14.79-19.62-28.16-37.4-37.76-50.32c-4.79-6.46-8.67-11.68-11.36-15.32
		c-1.33-1.8-2.37-3.2-3.09-4.16c-0.35-0.46-0.62-0.82-0.81-1.08C78.02,247.5,77.91,247.38,77.91,247.38"/>
	<path class="st19" d="M117.63,271.58c-0.03,0-0.1,0.37-0.19,1.04c-0.1,0.67-0.2,1.65-0.33,2.85c-0.24,2.41-0.48,5.75-0.69,9.43
		c-0.19,3.64-0.36,6.92-0.49,9.44c-0.07,1.13-0.12,2.09-0.17,2.86c-0.04,0.67-0.05,1.05-0.02,1.05c0.03,0,0.1-0.36,0.2-1.04
		c0.09-0.67,0.2-1.65,0.31-2.85c0.22-2.41,0.42-5.75,0.62-9.44c0.22-3.63,0.41-6.92,0.56-9.43c0.07-1.13,0.13-2.09,0.18-2.86
		C117.65,271.96,117.66,271.58,117.63,271.58"/>
	<path class="st19" d="M114.48,298.74c0.01-0.12-6.84-0.93-15.31-1.81c-8.47-0.87-15.34-1.48-15.36-1.36
		c-0.01,0.12,6.84,0.93,15.31,1.81C107.59,298.25,114.47,298.86,114.48,298.74"/>
	<path class="st19" d="M138.55,327.85c-0.01-0.03-0.39,0.02-1.07,0.14c-0.77,0.14-1.73,0.32-2.88,0.52
		c-2.43,0.44-5.79,1.03-9.51,1.55c-3.73,0.53-7.12,0.89-9.57,1.13c-1.16,0.11-2.13,0.21-2.91,0.29c-0.69,0.07-1.07,0.13-1.06,0.16
		c0,0.03,0.39,0.04,1.08,0.02c0.69-0.02,1.69-0.06,2.92-0.15c2.47-0.16,5.87-0.47,9.61-1c3.74-0.52,7.1-1.17,9.51-1.69
		c1.21-0.26,2.18-0.49,2.85-0.67C138.19,327.99,138.56,327.88,138.55,327.85"/>
	<path class="st19" d="M146.8,303.91c-0.03-0.01-0.18,0.31-0.42,0.9c-0.27,0.69-0.59,1.53-0.98,2.52c-0.81,2.13-1.9,5.09-3.08,8.37
		c-1.18,3.28-2.22,6.25-2.95,8.42c-0.33,1.01-0.62,1.87-0.84,2.57c-0.19,0.61-0.28,0.95-0.25,0.96c0.03,0.01,0.17-0.31,0.42-0.9
		c0.27-0.69,0.59-1.53,0.98-2.52c0.81-2.13,1.9-5.09,3.08-8.37c1.18-3.28,2.22-6.25,2.95-8.41c0.33-1.01,0.62-1.87,0.85-2.57
		C146.74,304.27,146.83,303.92,146.8,303.91"/>
	<path class="st19" d="M171.32,326.91c-0.03-0.01-0.21,0.4-0.52,1.16c-0.33,0.84-0.76,1.92-1.27,3.22
		c-1.05,2.73-2.48,6.51-4.03,10.69c-1.55,4.19-2.93,7.99-3.91,10.74c-0.46,1.32-0.84,2.42-1.13,3.27c-0.26,0.78-0.39,1.21-0.36,1.22
		c0.03,0.01,0.21-0.4,0.52-1.16c0.33-0.84,0.76-1.92,1.27-3.22c1.05-2.73,2.48-6.51,4.03-10.7c1.55-4.19,2.93-7.98,3.9-10.74
		c0.46-1.32,0.84-2.42,1.14-3.27C171.22,327.36,171.35,326.92,171.32,326.91"/>
	<path class="st19" d="M160.17,356.43c-0.01-0.03-0.49,0.02-1.36,0.14c-0.95,0.14-2.18,0.32-3.67,0.53
		c-3.1,0.45-7.38,1.05-12.13,1.58c-4.75,0.54-9.06,0.91-12.18,1.16c-1.5,0.12-2.74,0.22-3.7,0.3c-0.87,0.07-1.36,0.13-1.35,0.16
		c0,0.03,0.49,0.03,1.36,0.02c0.88-0.02,2.14-0.07,3.71-0.15c3.13-0.17,7.45-0.49,12.21-1.03c4.76-0.53,9.04-1.18,12.13-1.71
		c1.54-0.27,2.79-0.5,3.65-0.68C159.7,356.57,160.17,356.46,160.17,356.43"/>
	<g>
		<path class="st25" d="M115.32,262.91l81.6-41.53v237.31c-5.94-16.61-9.32-32.77-11.4-46.47c-4.45-29.25-1.39-36.02-9.54-49.1
			c-1.75-2.81-7.87-9.5-20.1-22.88c-15.44-16.89-18.34-19.12-24.78-27.82c-6.48-8.76-12.99-17.56-15.58-28.82
			C114.52,279.23,113.55,272.14,115.32,262.91"/>
		<path class="st26" d="M115.32,262.91l81.6-41.53v237.31c-5.94-16.61-9.32-32.77-11.4-46.47c-4.45-29.25-1.39-36.02-9.54-49.1
			c-1.75-2.81-7.87-9.5-20.1-22.88c-15.44-16.89-18.34-19.12-24.78-27.82c-6.48-8.76-12.99-17.56-15.58-28.82
			C114.52,279.23,113.55,272.14,115.32,262.91z"/>
		<path class="st27" d="M49.46,160.63c1.15-3.93,2.81-7.69,2.81-7.69c0.55-1.25,1.28-2.86,2.42-4.86c2.57-4.49,5.22-7.35,4.84-7.7
			c-0.13-0.13-0.43,0.26-1.22,0.41c-1.59,0.3-3.53-0.72-4.06-2.01l-0.41-1.21c-0.27-0.81-0.41-1.21-0.41-1.21s2.23,0.2,4.06-0.01
			c2.72-0.32,4.88-1.59,4.86-1.63c-0.01-0.03-2.47,0.96-5.27,0.42c-0.59-0.11-2.17-1.07-1.63-0.8c0.56-0.16,1.42-0.42,2.43-0.82
			c1.33-0.53,3.48-1.4,5.67-3.25c0.51-0.43,1.24-1.1,2.02-2.03c2.98-2.56,7.34-6.07,12.95-9.75c6.14-4.03,17.52-11.35,34.02-15.48
			c5.7-1.42,13.88-3.4,24.73-2.91c12.63,0.57,21.87,4.17,26.39,5.98c13.81,5.52,24.83,14.11,33.25,22.7V254
			c-9.59,7.25-18.56,12.17-22.97,14.59c-7.61,4.17-7.33,2.94-62.4,19.62c0,0-6.07,1.84-6.49,0.83c-0.12-0.28,0.39-0.56,0.81-1.62
			c0.31-0.79,0.22-1.14,0.4-2.83c0.06-0.62,0.22-1.65,0.4-2.83c0.27-1.79,0.73-2.6,0.4-2.83c-0.26-0.18-0.76,0.13-1.22,0.41
			c-3.84,2.32-4.17,1.8-5.67,3.25c-1.34,1.3-1.48,2.1-2.02,2.03c-0.89-0.13-1.03-2.4-1.64-4.85c-0.72-2.89-1.98-5.02-4.49-9.29
			c-2.37-4.03-4.61-6.81-5.3-7.67c-11.76-14.72-23.77-29.75-31.16-46.1c0,0-8.7-19.26-8.48-39.09
			C47.1,176.24,47.24,168.23,49.46,160.63"/>
		<path class="st28" d="M49.46,160.63c1.15-3.93,2.81-7.69,2.81-7.69c0.55-1.25,1.28-2.86,2.42-4.86c2.57-4.49,5.22-7.35,4.84-7.7
			c-0.13-0.13-0.43,0.26-1.22,0.41c-1.59,0.3-3.53-0.72-4.06-2.01l-0.41-1.21c-0.27-0.81-0.41-1.21-0.41-1.21s2.23,0.2,4.06-0.01
			c2.72-0.32,4.88-1.59,4.86-1.63c-0.01-0.03-2.47,0.96-5.27,0.42c-0.59-0.11-2.17-1.07-1.63-0.8c0.56-0.16,1.42-0.42,2.43-0.82
			c1.33-0.53,3.48-1.4,5.67-3.25c0.51-0.43,1.24-1.1,2.02-2.03c2.98-2.56,7.34-6.07,12.95-9.75c6.14-4.03,17.52-11.35,34.02-15.48
			c5.7-1.42,13.88-3.4,24.73-2.91c12.63,0.57,21.87,4.17,26.39,5.98c13.81,5.52,24.83,14.11,33.25,22.7V254
			c-9.59,7.25-18.56,12.17-22.97,14.59c-7.61,4.17-7.33,2.94-62.4,19.62c0,0-6.07,1.84-6.49,0.83c-0.12-0.28,0.39-0.56,0.81-1.62
			c0.31-0.79,0.22-1.14,0.4-2.83c0.06-0.62,0.22-1.65,0.4-2.83c0.27-1.79,0.73-2.6,0.4-2.83c-0.26-0.18-0.76,0.13-1.22,0.41
			c-3.84,2.32-4.17,1.8-5.67,3.25c-1.34,1.3-1.48,2.1-2.02,2.03c-0.89-0.13-1.03-2.4-1.64-4.85c-0.72-2.89-1.98-5.02-4.49-9.29
			c-2.37-4.03-4.61-6.81-5.3-7.67c-11.76-14.72-23.77-29.75-31.16-46.1c0,0-8.7-19.26-8.48-39.09
			C47.1,176.24,47.24,168.23,49.46,160.63z"/>
		<path class="st1" d="M59.91,206.86c0.8-2.22,2.85-3.57,2.71-3.73c-0.1-0.12-0.97,0.63-1.2,0.45c-0.35-0.28,0.98-2.49,1.51-3.29
			c2.34-3.54,8.27-8.53,15.93-8.65c3.44-0.05,6.2,0.89,9,2.12c3.39,1.49,14.11,6.57,27.9,22.87c0,0,9.62,11.37,10.61,19.37
			c0.02,0.21,0.43,4.1-0.64,7.83c-0.48,1.68-0.72,2.52-1.51,3.29c-0.76,0.75-2.15,1.57-1.96,2.09c0,0.01,0.01,0.01,0.01,0.02
			c0.15,0.34,0.99,1.6,2.53,2.14c2.05,0.72,3.95-0.31,4.06-0.01c0.08,0.23-1.04,0.92-2.4,1.75c-0.9,0.55-1.87,1.1-1.95,1.98
			c-0.01,0.06-0.01,0.1-0.01,0.11c0.01,1.45,8.95,5.49,17.77,3.79c2.67-0.52,4.89-1.47,6.08-2.04c1.54-0.74,2.97-1.45,4.45-2.85
			c1.42-1.35,1.5-2.02,2.83-3.65c1.79-2.19,2.37-1.84,5.26-4.47c2.29-2.08,1.52-1.93,5.69-6.41c1.88-2.02,3.04-3.13,2.71-3.73
			c-0.22-0.41-0.95-0.32-2.85-0.31c-3.59,0.03-5.47,0.03-5.7-0.61c-0.19-0.54,0.93-1.12,2.71-3.74c0.73-1.06,0.82-1.4,0.78-1.57
			c0,0-0.01-0.04-0.02-0.07c-0.31-0.76-5.94,0.33-10.26-0.11c-1.71-0.18-5.1-0.53-7.72-2.8c-2.49-2.17-1.9-3.99-4.49-9.29
			c-2.01-4.08-2.89-4.08-5.71-8.88c-2.46-4.19-3.78-7.59-4.9-10.5c-2.74-7.07-4.73-12.22-4.93-18.58
			c-0.08-2.59-0.35-11.29,5.15-19.5c7.41-11.08,21.15-15.05,31.45-14.45c0.05,0,0.09,0,0.11,0.01c12.73,0.77,21.23,8.32,28.94,15.18
			c2.49,2.21,3.85,3.74,5.08,5.46v64.59c-0.41,0.22-0.62,0.41-0.59,0.59c0,0,0.02,0.07,0.59,0.19v7.16
			c-3.17,3.45-4.47,7.08-10.09,11.19c-2.69,1.97-4.87,2.94-7.97,4.32c0,0-9.88,4.41-14.12,2.51c-0.39-0.18-1.34-0.61-1.65-0.75
			c0,0,0.77,2.06,0.9,2.4c1.41,3.93-1.28,9.38-1.67,10.17c-0.56,1.12-1.14,2-1.96,2.09c-0.54,0.06-0.91-0.26-1.74-0.76
			c-1.97-1.18-2.1-0.69-3.21-1.5c0,0-1.86-1.35-2.99-4.35c-0.04-0.11-0.45-1.2-0.45-1.2s-0.71,1.54-0.75,1.64
			c-0.6,1.3-3.78,5.54-11.43,9.7c-0.44,0.24-3.29,1.78-3.61,1.34c-0.15-0.2,0.38-0.66,0.76-1.64c0.31-0.81,0.29-1.38,0.31-2.84
			c0.03-3.46,0.16-3.91-0.14-4.04c-0.49-0.22-1.2,0.78-3.16,2.54c0,0-1.13,1.01-3.16,2.54c-3.51,2.64-7.71,4.24-9.17,4.77
			c-6.99,2.51-15.25,3.29-15.77,1.76c-0.1-0.29,0.17-0.42,0.75-1.65c0.86-1.82,1.53-4.21,1.06-4.49c-0.39-0.22-1.04,1.27-3.16,2.54
			c-2.11,1.27-4.81,1.78-4.81,1.78c0,0,0,0-0.45-1.2c-1.34-3.6-1.34-3.59-1.34-3.6c-1.29-3.44-4.34-7.94-4.34-7.94
			c-4.26-6.3-10.18-12.59-10.18-12.59c0,0-10.64-11.32-20.05-28.03c0,0-3.15-5.59-3.72-13.63C59.5,208.26,59.71,207.41,59.91,206.86
			"/>
		<path class="st29" d="M106.66,225.04c-3.87-5.21-9.6-7.51-12.8-5.15c-3.2,2.36-2.65,8.5,1.23,13.71c3.87,5.21,9.6,7.51,12.8,5.15
			C111.08,236.38,110.53,230.24,106.66,225.04"/>
		<path class="st30" d="M106.66,225.04c-3.87-5.21-9.6-7.51-12.8-5.15c-3.2,2.36-2.65,8.5,1.23,13.71c3.87,5.21,9.6,7.51,12.8,5.15
			C111.08,236.38,110.53,230.24,106.66,225.04z"/>
		<path class="st29" d="M158.78,198.74c5.1,5.17,12.47,6.18,16.45,2.27c3.98-3.91,3.07-11.27-2.03-16.43
			c-5.1-5.17-12.47-6.18-16.45-2.27C152.77,186.22,153.68,193.58,158.78,198.74"/>
		<path class="st30" d="M158.78,198.74c5.1,5.17,12.47,6.18,16.45,2.27c3.98-3.91,3.07-11.27-2.03-16.43
			c-5.1-5.17-12.47-6.18-16.45-2.27C152.77,186.22,153.68,193.58,158.78,198.74z"/>
		<path class="st19" d="M105.44,225.45c-3.47-4.66-7.7-7.38-9.46-6.08c-1.76,1.3-0.37,6.13,3.1,10.79c3.46,4.66,7.7,7.38,9.45,6.08
			S108.91,230.11,105.44,225.45"/>
		<path class="st30" d="M105.44,225.45c-3.47-4.66-7.7-7.38-9.46-6.08c-1.76,1.3-0.37,6.13,3.1,10.79c3.46,4.66,7.7,7.38,9.45,6.08
			S108.91,230.11,105.44,225.45z"/>
		<path class="st19" d="M172.03,185.43c-4-4.67-9.59-6.45-12.49-3.99c-2.89,2.47-1.99,8.25,2.01,12.92c4,4.67,9.59,6.45,12.49,3.99
			C176.93,195.88,176.04,190.1,172.03,185.43"/>
		<path class="st30" d="M172.03,185.43c-4-4.67-9.59-6.45-12.49-3.99c-2.89,2.47-1.99,8.25,2.01,12.92c4,4.67,9.59,6.45,12.49,3.99
			C176.93,195.88,176.04,190.1,172.03,185.43z"/>
		<path class="st31" d="M157.84,190.6c0.01,0,0.05-0.03,0.07-0.05c0.08-0.06-0.06,0.04,0.01-0.01c0.07-0.06,0.06-0.08,0.01,0
			c0.02-0.04,0.04-0.08,0.07-0.12c0.06-0.09-0.1,0.14-0.03,0.07c0.03-0.09,0.06-0.18,0.11-0.26c0.05-0.07,0.1-0.13,0.15-0.2
			c0.12-0.12,0.27-0.19,0.41-0.28c0.64-0.44,1.59,0.29,1.33,1.02c-0.11,0.31-0.26,0.62-0.56,0.79c-0.28,0.17-0.62,0.15-0.93,0.1
			c-0.3-0.06-0.6-0.21-0.8-0.44C157.47,191,157.58,190.71,157.84,190.6"/>
		<path class="st31" d="M96.58,225.93c0.02,0.07,0.04,0.15,0.06,0.22c0.08,0.28,0.03,0.59-0.18,0.8c-0.21,0.21-0.51,0.25-0.79,0.19
			c-0.08-0.02-0.16-0.04-0.24-0.06c-0.68-0.18-0.9-1.06-0.41-1.55C95.52,225.02,96.39,225.26,96.58,225.93"/>
		<path class="st18" d="M102.22,244.25c-0.19,1.68-0.12,4.11-1.24,5.47c-0.16,0.19-0.5,0.08-0.55-0.15
			c-0.17-0.81,0.11-1.67,0.32-2.45c0.28-0.99,0.73-1.96,1.1-2.92C101.92,244.02,102.24,244.02,102.22,244.25"/>
		<path class="st18" d="M98.27,244.46c-0.13,0.88-0.25,1.77-0.38,2.65c-0.11,0.78-0.15,1.58-0.47,2.31
			c-0.12,0.27-0.52,0.12-0.53-0.14c-0.01-0.79,0.29-1.55,0.5-2.3c0.23-0.85,0.47-1.71,0.7-2.56
			C98.12,244.29,98.28,244.35,98.27,244.46"/>
		<path class="st18" d="M180.58,202.58c0.03,1.27,0.1,2.53-0.01,3.8c-0.09,1.03-0.07,1.96-0.76,2.77c-0.3,0.36-0.79,0.1-0.94-0.25
			c-0.4-0.96-0.03-1.98,0.18-2.97c0.25-1.16,0.69-2.28,1.07-3.41C180.2,202.27,180.57,202.31,180.58,202.58"/>
		<path class="st18" d="M183.64,197.37c-0.01,2.3,0.25,4.78-0.24,7.04c-0.07,0.33-0.53,0.22-0.55-0.08c-0.18-2.28,0.4-4.7,0.7-6.97
			C183.55,197.31,183.64,197.31,183.64,197.37"/>
		<path class="st25" d="M134.09,235.61c-0.91,0.89-1.51,1.74-1.72,2.29c-0.54,1.42-0.91,2.6-1.15,3.43
			c-0.58,2.01-0.58,2.51-1.15,3.43c-0.94,1.52-1.66,1.72-1.72,2.29c-0.08,0.7,0.99,1.06,2.53,2.27c2.25,1.77,2.01,2.59,4.07,4.03
			c1.09,0.76,1.99,1.11,3.25,1.61c2.22,0.87,4.46,1.75,5.68,0.79c0.36-0.28,0.25-0.43,0.81-1.62c1.17-2.51,3.05-4.86,3.31-5.8
			c0.01-0.06,0.11-0.4,0.27-0.86c0.04-0.12,0.09-0.24,0.17-0.43c1.35-3.28,3.47-5.69,4.01-6.29c0.46-0.51,1.98-2.12,3.44-4.58
			c0.55-0.93,0.77-1.43,0.57-1.72c-0.46-0.65-2.86,0.6-5.16,1.15c-2.09,0.49-5.08,0.64-9.11-0.87c0,0-4.52-1.17-5.68-0.79
			C135.46,234.28,134.73,234.99,134.09,235.61"/>
	</g>
	<g>
		<path class="st27" d="M115.92,286.44c-1.86-0.1-2.59,14.54-6,24c-1.15,3.2-1.15,6.71-2,10c-0.08,0.3-0.45,1.75,0,2
			c0.73,0.41,2.92-2.78,3.72-2.35c0.61,0.33-0.65,2.22,0.28,4.35c0.34,0.77,0.82,1.24,1.19,2.57c0.16,0.56,0.19,0.92,0.34,0.94
			c0.55,0.07,1-3.81,1.78-3.85c0.93-0.04,1.76,5.33,2.68,9.34c1.04,4.5,2.69,8.33,6,16c8.63,20.02,24.33,56.43,48.22,68.82
			c2.49,1.29,9.45,4.6,9.92,3.82c0.46-0.76-5.41-5.31-5.23-5.54c0.17-0.2,4.32,4.13,10.27,4.76c2.13,0.22,4.87,0.01,5.04-0.78
			c0.22-1.04-5.56-2.16-5.48-3.32c0.12-1.58,10.87-0.35,20.16-3.13c12.97-3.89,11.74-12.2,25.32-21
			c18.17-11.77,42.24-11.04,47.13-10.89c10.11,0.31,17.72,2.24,18.96-0.56c1.33-3.02-5.68-9.36-11.14-12.96
			c-12.08-7.95-25.01-8.04-44.53-8.17c-14.06-0.09-18.5,1.42-20.5,2.19c-7.48,2.89-8.83,6.22-17.74,9.7
			c-4.59,1.79-11.48,5.91-17.93,3.38c-3.54-1.38-6.68-4.54-8.45-6.32c-1.99-2-3.47-3.97-5-6c-1.72-2.28-2.88-3.83-4-6
			c-1.27-2.46-1.9-3.69-2-4c-0.51-1.63-0.8-1.64-1-2c-1.12-2.03-2.39-3.35-3-4c-4.33-4.58-2.07-2.94-10-11c-5.59-5.68-5.63-5.4-9-9
			c-1.15-1.24-3.8-4.11-7-8c-4.85-5.9-8.07-10.61-9-12c-1.25-1.87-3-4.48-8.16-14.03c-0.76-1.4-1.48-2.81-2.21-4.22
			C116.2,286.64,116.12,286.46,115.92,286.44"/>
		<path class="st28" d="M115.92,286.44c-1.86-0.1-2.59,14.54-6,24c-1.15,3.2-1.15,6.71-2,10c-0.08,0.3-0.45,1.75,0,2
			c0.73,0.41,2.92-2.78,3.72-2.35c0.61,0.33-0.65,2.22,0.28,4.35c0.34,0.77,0.82,1.24,1.19,2.57c0.16,0.56,0.19,0.92,0.34,0.94
			c0.55,0.07,1-3.81,1.78-3.85c0.93-0.04,1.76,5.33,2.68,9.34c1.04,4.5,2.69,8.33,6,16c8.63,20.02,24.33,56.43,48.22,68.82
			c2.49,1.29,9.45,4.6,9.92,3.82c0.46-0.76-5.41-5.31-5.23-5.54c0.17-0.2,4.32,4.13,10.27,4.76c2.13,0.22,4.87,0.01,5.04-0.78
			c0.22-1.04-5.56-2.16-5.48-3.32c0.12-1.58,10.87-0.35,20.16-3.13c12.97-3.89,11.74-12.2,25.32-21
			c18.17-11.77,42.24-11.04,47.13-10.89c10.11,0.31,17.72,2.24,18.96-0.56c1.33-3.02-5.68-9.36-11.14-12.96
			c-12.08-7.95-25.01-8.04-44.53-8.17c-14.06-0.09-18.5,1.42-20.5,2.19c-7.48,2.89-8.83,6.22-17.74,9.7
			c-4.59,1.79-11.48,5.91-17.93,3.38c-3.54-1.38-6.68-4.54-8.45-6.32c-1.99-2-3.47-3.97-5-6c-1.72-2.28-2.88-3.83-4-6
			c-1.27-2.46-1.9-3.69-2-4c-0.51-1.63-0.8-1.64-1-2c-1.12-2.03-2.39-3.35-3-4c-4.33-4.58-2.07-2.94-10-11c-5.59-5.68-5.63-5.4-9-9
			c-1.15-1.24-3.8-4.11-7-8c-4.85-5.9-8.07-10.61-9-12c-1.25-1.87-3-4.48-8.16-14.03c-0.76-1.4-1.48-2.81-2.21-4.22
			C116.2,286.64,116.12,286.46,115.92,286.44z"/>
		<path class="st27" d="M189.92,250.44c-0.18-4.77-0.35-9.28,1-15c1.8-7.63,5.53-14.17,6-14c0.08,0.03,0.04,0.23,0,1
			c0,0-0.03,0.59,0,4c0.05,5.18,6,13,6,13c6.46,8.48,12.86,14.03,14,15c2.52,2.16,7.3,6.07,15,11c15.6,9.99,23.4,11.49,23,14
			c-0.53,3.36-15.11,4.27-26,3c-2.21-0.26-13.73-1.73-26-9c-8.23-4.88-10.27-8.51-11-10C190.28,260.1,190.16,256.88,189.92,250.44"
			/>
		<path class="st28" d="M189.92,250.44c-0.18-4.77-0.35-9.28,1-15c1.8-7.63,5.53-14.17,6-14c0.08,0.03,0.04,0.23,0,1
			c0,0-0.03,0.59,0,4c0.05,5.18,6,13,6,13c6.46,8.48,12.86,14.03,14,15c2.52,2.16,7.3,6.07,15,11c15.6,9.99,23.4,11.49,23,14
			c-0.53,3.36-15.11,4.27-26,3c-2.21-0.26-13.73-1.73-26-9c-8.23-4.88-10.27-8.51-11-10C190.28,260.1,190.16,256.88,189.92,250.44z"
			/>
	</g>
</g>
</svg>
