<?xml version="1.0" encoding="utf-8"?>
<!-- Generator: Adobe Illustrator 23.1.0, SVG Export Plug-In . SVG Version: 6.00 Build 0)  -->
<svg version="1.1" id="Слой_1" xmlns="http://www.w3.org/2000/svg" xmlns:xlink="http://www.w3.org/1999/xlink" x="0px" y="0px"
	 viewBox="0 0 1920 1080" style="enable-background:new 0 0 1920 1080;" xml:space="preserve">
<style type="text/css">
	.st0{opacity:0.35;}
	.st1{opacity:0.15;fill:none;stroke:#FFFFFF;stroke-width:125.8;stroke-linecap:round;stroke-linejoin:round;stroke-miterlimit:10;}
	
		.st2{opacity:0.15;fill:none;stroke:#FFFFFF;stroke-width:85.7004;stroke-linecap:round;stroke-linejoin:round;stroke-miterlimit:10;}
	.st3{fill:none;stroke:#FFFFFF;stroke-width:6.0056;stroke-linecap:round;stroke-linejoin:round;stroke-miterlimit:10;}
	.st4{fill:none;stroke:#FFFFFF;stroke-width:6.8;stroke-linecap:round;stroke-linejoin:round;stroke-miterlimit:10;}
	.st5{fill:none;stroke:#FFFFFF;stroke-width:4.5225;stroke-linecap:round;stroke-linejoin:round;stroke-miterlimit:10;}
	.st6{fill:none;stroke:#FFFFFF;stroke-width:8.6515;stroke-linecap:round;stroke-linejoin:round;stroke-miterlimit:10;}
	.st7{fill:none;stroke:#FFFFFF;stroke-width:9.3738;stroke-linecap:round;stroke-linejoin:round;stroke-miterlimit:10;}
	.st8{fill:none;stroke:#FFFFFF;stroke-width:5.7647;stroke-linecap:round;stroke-linejoin:round;stroke-miterlimit:10;}
	.st9{fill:none;stroke:#FFFFFF;stroke-width:4.8771;stroke-linecap:round;stroke-linejoin:round;stroke-miterlimit:10;}
	.st10{fill:none;stroke:#FFFFFF;stroke-width:5.7035;stroke-linecap:round;stroke-linejoin:round;stroke-miterlimit:10;}
	.st11{opacity:0.3;}
	.st12{fill:none;stroke:#FFFFFF;stroke-width:12.5324;stroke-linecap:round;stroke-linejoin:round;stroke-miterlimit:10;}
	.st13{fill:none;stroke:#FFFFFF;stroke-width:13.3775;stroke-linecap:round;stroke-linejoin:round;stroke-miterlimit:10;}
	.st14{fill:none;stroke:#FFFFFF;stroke-width:12.191;stroke-linecap:round;stroke-linejoin:round;stroke-miterlimit:10;}
	.st15{fill:none;stroke:#FFFFFF;stroke-width:9.9676;stroke-linecap:round;stroke-linejoin:round;stroke-miterlimit:10;}
	.st16{fill:none;stroke:#FFFFFF;stroke-width:5.4029;stroke-linecap:round;stroke-linejoin:round;stroke-miterlimit:10;}
	.st17{fill:none;stroke:#FFFFFF;stroke-width:12.1359;stroke-linecap:round;stroke-linejoin:round;stroke-miterlimit:10;}
	
		.st18{opacity:0.15;fill:none;stroke:#FFFFFF;stroke-width:42.433;stroke-linecap:round;stroke-linejoin:round;stroke-miterlimit:10;}
	.st19{opacity:0.15;fill:none;stroke:#FFFFFF;stroke-width:30.6;stroke-linecap:round;stroke-linejoin:round;stroke-miterlimit:10;}
	.st20{opacity:0.15;fill:none;stroke:#FFFFFF;stroke-width:23.8;stroke-linecap:round;stroke-linejoin:round;stroke-miterlimit:10;}
	.st21{display:none;}
	.st22{display:inline;}
	.st23{fill:#FFFFFF;}
	.st24{font-family:'MyriadPro-Regular';}
	.st25{font-size:64.4117px;}
	.st26{fill:none;stroke:#000000;stroke-miterlimit:10;}
	.st27{fill:#4C4C4C;}
	.st28{font-size:46.2139px;}
	.st29{fill:#494949;}
	.st30{font-size:35.2616px;}
	.st31{fill:#333333;}
	.st32{font-size:49.6923px;}
	.st33{display:inline;fill:#890000;}
	.st34{font-size:20.2391px;}
	.st35{display:inline;fill:none;stroke:#FFFFFF;stroke-miterlimit:10;}
	.st36{font-size:17.0576px;}
	.st37{display:inline;fill:#FFFFFF;}
	.st38{fill:#BC0000;}
	.st39{display:inline;fill:none;stroke:#000000;stroke-miterlimit:10;}
	.st40{font-size:40.391px;}
	.st41{display:inline;fill:none;stroke:#000000;stroke-width:2.8346;stroke-miterlimit:10;}
	.st42{fill:#F7E85C;}
	.st43{fill:#660000;}
	.st44{font-size:24.7227px;}
	.st45{fill:none;}
</style>
<g>
	<g class="st0">
		<path class="st1" d="M688.32,1071.77c27.56-13.16,55.42-25.68,83.56-37.54c28.14-11.86,56.56-23.05,85.23-33.57
			c16.09-5.9,32.25-11.59,48.49-17.07"/>
		<path class="st1" d="M359.39,651.79c31.43-12.32,62.98-24.31,94.66-35.96s63.48-22.99,95.39-33.98
			c17.96-6.19,35.95-12.27,53.98-18.25c-2.27,19.85-19.89,32.4-36.5,40.5c-10.25,5-21.04,8.74-31.72,12.69
			c-13.31,4.93-26.61,9.86-39.92,14.79c-26.11,9.67-52.28,19.21-78.34,29.03c-18.92,7.13-37.81,15.15-54.58,26.57
			c-15.68,10.68-29.53,24.86-35.73,43.15c-0.76,2.25-1.41,4.55-1.93,6.87c25.82-6.94,51.46-14.53,76.9-22.76
			s50.67-17.08,75.67-26.56c24.9-9.44,49.56-19.5,73.95-30.17c23.99-10.49,47.33-22.41,71.32-32.85c21.12-9.2,46.16-17.65,68.97-9.5
			c2.72,0.97,5.36,2.17,7.88,3.58c-15.57,27.95-43.78,45.44-71.54,59.52c-34.86,17.69-70.57,33.83-105.87,50.64
			c-36.56,17.41-73.19,34.65-109.66,52.25c-16.85,8.13-33.58,16.55-49.64,26.16c-8,4.79-15.84,9.87-23.4,15.33
			c-6.28,4.54-14.45,9.63-17.14,17.34c-5.3,15.18,14.82,19.83,25.55,19.98c16.59,0.23,33.24-1.33,49.58-4.08
			c32.87-5.53,64.64-16.23,95.41-28.86c31.46-12.91,62.03-27.86,92.85-42.22c30.8-14.36,61.92-28.24,94.24-38.84
			c13.73-4.5,33-13.1,47.17-6.12c1.72,0.85,3.17,1.48,3.46,3.23c0.27,1.63-0.56,4.17-0.88,5.77c-0.68,3.42-1.62,6.78-2.82,10.06
			c-2.37,6.49-5.73,12.59-9.74,18.21c-17.12,23.98-44.3,39.33-69.93,52.61c-36.29,18.81-72.66,37.49-108.98,56.23
			c-36.45,18.81-72.9,37.61-109.35,56.42c-12.98,6.7-29.69,14.88-34.43,30.04c-5.66,18.07,16.61,23.43,29.65,25.27
			c38.02,5.37,75.65-8.9,110.09-23.36c37.57-15.78,74.99-31.95,112.47-47.93c37.61-16.04,75.13-32.34,112.85-48.11
			c14.38-6.01,32.52-10,42.22,5.6c7.36,11.83,5.79,26.84-1.41,38.29c-8.77,13.96-23.56,23.12-37.32,31.52
			c-14.79,9.03-30.15,17.12-45.83,24.5c-31.52,14.82-64.29,26.76-97.16,38.18c-33.01,11.47-66.22,22.43-98.73,35.29
			c-15.62,6.18-31.07,12.8-46.2,20.11"/>
		<path class="st2" d="M1193.34,540.89c20.84-55.12,43.15-109.69,66.9-163.62c11.67,13.25,5.72,33.77-0.84,50.17
			c-11.47,28.7-22.94,57.39-34.4,86.09c-10.86,27.18-21.2,59.98-4.34,83.91c31.09-60.88,56.47-124.67,75.68-190.28
			c6.25-21.34,14.64-45.98,35.7-53.12c8.45,24.88,0.93,52.04-6.59,77.21c-13.06,43.67-26.12,87.34-39.17,131.01
			c-7.09,23.71-14.22,47.64-16.18,72.3c-0.4,5.02-0.22,10.89,3.78,13.95c5.94,4.55,14.24-0.91,19.3-6.41
			c57.36-62.32,62.13-155.83,99.69-231.74c3.42-6.91,8.13-14.45,15.74-15.71c19.58,21.34,13.4,54.87,5.99,82.87
			c-14.78,55.87-29.55,111.73-44.33,167.6c-3.08,11.63-2.57,28.9,9.41,30.06c4.08,0.39,7.99-1.62,11.41-3.87
			c25.54-16.81,37.06-47.8,47.02-76.7c17.36-50.36,34.72-100.73,52.07-151.09c2.41-7.01,5.3-14.6,11.72-18.29
			c9.55-5.5,22.48,1.09,27.4,10.95c4.93,9.86,3.93,21.56,2.14,32.44c-13.19,80.2-62.24,150.57-79.11,230.08
			c-1.51,7.14-1.75,16.49,4.83,19.63c2.8,1.34,6.09,1.04,9.15,0.53c23.41-3.9,44.73-18.87,56.36-39.56
			c7.65-13.61,11.12-29.1,14.77-44.29c17.97-74.8,42.46-148.03,73.1-218.6"/>
		<g>
			<path class="st3" d="M1696.28,272.78c1.11,4.47,6.57,6.86,11.02,5.69c4.45-1.17,7.78-5.03,9.58-9.26
				c1.58-3.7,2.22-7.8,1.82-11.81c-0.49-4.96-2.49-9.62-4.46-14.19c-2.59-6-5.19-11.99-7.78-17.99"/>
			<path class="st3" d="M1720.32,219.2c7.53,15.61,12.59,32.28,17.62,48.87c0.61,2.01,1.21,4.24,0.31,6.14"/>
			<path class="st3" d="M1690.58,238.92c-1.87-2.62-2.61-6.03-1.99-9.19c1.32-6.66,7.99-10.9,14.51-12.77
				c6.52-1.87,13.51-2.2,19.69-4.99c6.18-2.8,11.56-9.31,9.93-15.89"/>
			<path class="st3" d="M1750.5,226.16c6.02-2.52,12.05-5.05,18.07-7.57"/>
			<path class="st3" d="M1756.7,239.02c3.62-4.43,9-7.38,14.69-8.05c0.78-0.09,1.65-0.18,2.17-0.77c0.52-0.59,0.19-1.82-0.59-1.72"
				/>
			<path class="st3" d="M1786.71,198.33c3.86-5.49,9.54-9.69,15.92-11.77c0.92-0.3,1.98-0.55,2.82-0.07
				c0.68,0.38,1.05,1.15,1.34,1.88c2.5,6.5,1.12,14.33-3.45,19.59c1.74-5.46,9.36-7.38,14.28-4.44c4.92,2.94,7.06,9.21,6.57,14.92
				c-0.42,4.87-2.71,9.82-6.93,12.29c-4.22,2.46-10.44,1.59-12.98-2.58"/>
			<path class="st3" d="M1840.4,222.27c2.52,1.73,3.53,5.37,2.25,8.15"/>
			<path class="st3" d="M1852.21,169.05c8.24,9.11,10.52,21.96,12.47,34.08c0.77,4.82,1.55,9.63,2.32,14.45"/>
			<path class="st3" d="M1878.8,160.42c2.46,1.59,1.97,5.24,1.32,8.09c-1.85,8.04-2.69,16.32-2.5,24.57
				c0.02,0.73,0.1,1.58,0.72,1.98c0.62,0.39,1.42,0.12,2.09-0.16c5.21-2.19,10.42-4.38,15.63-6.57c0.43-0.18,0.91-0.42,1-0.88
				c0.09-0.45-0.63-0.88-0.83-0.46"/>
			<path class="st3" d="M1879.96,161.75c9.12,13.65,10.17,31.98,21.15,44.18"/>
		</g>
		<g>
			<path class="st4" d="M16.14,973.75c1.26,5.06,7.44,7.77,12.48,6.45c5.04-1.32,8.8-5.7,10.85-10.49
				c1.79-4.19,2.51-8.84,2.07-13.37c-0.55-5.61-2.82-10.89-5.05-16.07c-2.94-6.79-5.87-13.58-8.81-20.37"/>
			<path class="st4" d="M43.36,913.09c8.53,17.68,14.26,36.55,19.95,55.34c0.69,2.27,1.37,4.8,0.36,6.95"/>
			<path class="st4" d="M9.69,935.42c-2.12-2.97-2.96-6.82-2.25-10.4c1.49-7.54,9.05-12.34,16.43-14.46
				c7.39-2.12,15.3-2.49,22.3-5.65c7-3.17,13.09-10.54,11.24-18"/>
			<path class="st4" d="M77.53,920.97c6.82-2.86,13.64-5.72,20.46-8.57"/>
			<path class="st4" d="M84.55,935.53c4.1-5.02,10.19-8.36,16.63-9.11c0.88-0.1,1.87-0.21,2.46-0.87c0.59-0.67,0.21-2.06-0.67-1.95"
				/>
			<path class="st4" d="M118.53,889.46c4.37-6.22,10.8-10.97,18.02-13.33c1.04-0.34,2.24-0.62,3.2-0.08
				c0.78,0.43,1.19,1.3,1.51,2.13c2.83,7.36,1.27,16.22-3.9,22.18c1.97-6.18,10.6-8.36,16.17-5.03c5.57,3.33,7.99,10.43,7.44,16.9
				c-0.47,5.51-3.07,11.12-7.85,13.91c-4.78,2.79-11.82,1.8-14.69-2.92"/>
			<path class="st4" d="M179.32,916.57c2.86,1.96,3.99,6.08,2.55,9.23"/>
			<path class="st4" d="M192.7,856.3c9.32,10.31,11.91,24.87,14.11,38.59c0.88,5.45,1.75,10.91,2.63,16.36"/>
			<path class="st4" d="M222.81,846.53c2.78,1.8,2.23,5.93,1.49,9.16c-2.09,9.11-3.04,18.48-2.83,27.82
				c0.02,0.83,0.12,1.79,0.82,2.24c0.7,0.45,1.61,0.13,2.37-0.19c5.9-2.48,11.8-4.96,17.7-7.44c0.48-0.2,1.03-0.48,1.13-0.99
				c0.11-0.51-0.71-1-0.94-0.52"/>
			<path class="st4" d="M224.11,848.04c10.33,15.45,11.52,36.21,23.95,50.02"/>
		</g>
		<g>
			<path class="st4" d="M600.43,268.17c-0.25,5.2,4.89,9.58,10.1,9.76c5.21,0.18,10.07-2.93,13.41-6.93
				c2.92-3.5,4.94-7.74,5.81-12.22c1.08-5.53,0.43-11.24-0.23-16.84c-0.86-7.35-1.73-14.69-2.59-22.04"/>
			<path class="st4" d="M643.92,217.87c3.1,19.38,3.17,39.11,3.24,58.73c0.01,2.38-0.07,4.99-1.65,6.76"/>
			<path class="st4" d="M605.25,229.59c-1.18-3.45-0.87-7.39,0.83-10.61c3.59-6.79,12.21-9.23,19.89-9.14
				c7.68,0.09,15.37,2.01,22.98,0.98c7.61-1.03,15.57-6.34,15.93-14.01"/>
			<path class="st4" d="M674.39,235.22c7.35-0.78,14.71-1.56,22.06-2.34"/>
			<path class="st4" d="M676.94,251.18c5.37-3.63,12.16-5.09,18.55-3.96c0.88,0.15,1.85,0.34,2.6-0.13
				c0.75-0.47,0.79-1.91-0.08-2.06"/>
			<path class="st4" d="M722.7,216.8c5.97-4.7,13.49-7.41,21.09-7.59c1.1-0.03,2.32,0.05,3.08,0.84c0.62,0.64,0.77,1.59,0.84,2.47
				c0.6,7.86-3.44,15.91-10.1,20.12c3.66-5.36,12.55-4.97,16.93-0.18c4.38,4.79,4.67,12.29,2.28,18.32
				c-2.03,5.15-6.13,9.77-11.51,11.07c-5.38,1.3-11.84-1.66-13.24-7.02"/>
			<path class="st4" d="M773.16,260.21c2.17,2.7,2.08,6.97-0.21,9.57"/>
			<path class="st4" d="M803.26,206.31c5.97,12.55,4.28,27.24,2.45,41.02c-0.73,5.48-1.45,10.95-2.18,16.43"/>
			<path class="st4" d="M834.91,205.59c2.15,2.52,0.44,6.33-1.2,9.2c-4.62,8.13-8.22,16.83-10.69,25.84
				c-0.22,0.8-0.4,1.75,0.14,2.38c0.54,0.63,1.5,0.59,2.33,0.5c6.36-0.68,12.73-1.37,19.09-2.05c0.52-0.06,1.12-0.16,1.37-0.62
				c0.25-0.46-0.4-1.16-0.75-0.77"/>
			<path class="st4" d="M835.73,207.41c5.46,17.77,0.65,37.99,8.59,54.79"/>
		</g>
		<g>
			<path class="st4" d="M1529.24,1071.66c-0.07-10.69-2.15-21.57-3.4-32.17"/>
			<path class="st4" d="M1542.82,1037.46c1.8,11.27,2.58,22.67,2.93,34.07"/>
			<path class="st4" d="M1504.16,1049.19c-1.18-3.45-0.87-7.39,0.83-10.61c3.59-6.79,12.21-9.23,19.89-9.14
				c7.68,0.09,15.37,2.01,22.98,0.98c7.61-1.03,15.57-6.34,15.93-14.01"/>
			<path class="st4" d="M1573.3,1054.81c7.35-0.78,14.71-1.56,22.06-2.34"/>
			<path class="st4" d="M1575.84,1070.78c5.37-3.63,12.16-5.09,18.55-3.96c0.88,0.15,1.85,0.34,2.6-0.13
				c0.75-0.47,0.79-1.91-0.08-2.06"/>
			<path class="st4" d="M1621.61,1036.39c6.61-4.4,14.61-9.4,22.61-7.4c5,2,3,7,1,11s-3,10-8.7,12.24c3.63-5.3,3.55-2.25,0,0
				c3.63-5.3,11.94-4.83,16.32-0.79c5.52,5.09,5.29,14.05,2.27,20.36"/>
			<path class="st4" d="M1702.17,1025.9c6.78,14.26,3.8,30.81,1.81,45.81"/>
			<path class="st4" d="M1733.82,1025.18c2.15,2.52,0.44,6.33-1.2,9.2c-4.62,8.13-8.22,16.83-10.69,25.84
				c-0.22,0.8-0.4,1.75,0.14,2.38c0.54,0.63,1.5,0.59,2.33,0.5c6.36-0.68,12.73-1.37,19.09-2.05c0.52-0.06,1.12-0.16,1.37-0.63
				c0.25-0.46-0.4-1.16-0.75-0.77"/>
			<path class="st4" d="M1734.64,1027c4.46,14.54,2.06,30.05,5.27,44.8"/>
		</g>
		<g>
			<path class="st5" d="M933.55,442.46c-0.17,3.46,3.26,6.37,6.72,6.49c3.46,0.12,6.7-1.95,8.92-4.61c1.94-2.33,3.28-5.15,3.87-8.13
				c0.72-3.68,0.28-7.48-0.15-11.2c-0.57-4.89-1.15-9.77-1.72-14.66"/>
			<path class="st5" d="M962.47,409.01c2.06,12.89,2.11,26.01,2.15,39.06c0.01,1.58-0.05,3.32-1.1,4.5"/>
			<path class="st5" d="M936.76,416.81c-0.79-2.3-0.58-4.91,0.55-7.06c2.39-4.52,8.12-6.14,13.23-6.08
				c5.11,0.06,10.22,1.34,15.29,0.65c5.06-0.68,10.35-4.22,10.6-9.32"/>
			<path class="st5" d="M982.74,420.55c4.89-0.52,9.78-1.04,14.67-1.56"/>
			<path class="st5" d="M984.43,431.17c3.57-2.42,8.09-3.38,12.34-2.63c0.58,0.1,1.23,0.23,1.73-0.09c0.5-0.31,0.53-1.27-0.06-1.37"
				/>
			<path class="st5" d="M1014.87,408.3c3.97-3.13,8.97-4.93,14.03-5.05c0.73-0.02,1.54,0.03,2.05,0.56
				c0.41,0.42,0.51,1.06,0.56,1.64c0.4,5.23-2.29,10.58-6.72,13.38c2.43-3.56,8.35-3.3,11.26-0.12c2.91,3.18,3.1,8.17,1.52,12.18
				c-1.35,3.42-4.08,6.5-7.65,7.37c-3.58,0.86-7.87-1.11-8.8-4.67"/>
			<path class="st5" d="M1048.43,437.17c1.45,1.8,1.38,4.63-0.14,6.36"/>
			<path class="st5" d="M1068.45,401.32c3.97,8.35,2.84,18.11,1.63,27.28c-0.48,3.64-0.97,7.28-1.45,10.93"/>
			<path class="st5" d="M1089.5,400.84c1.43,1.68,0.29,4.21-0.8,6.12c-3.07,5.4-5.46,11.19-7.11,17.18
				c-0.15,0.53-0.27,1.16,0.09,1.58c0.36,0.42,1,0.39,1.55,0.33c4.23-0.45,8.46-0.91,12.7-1.36c0.35-0.04,0.75-0.11,0.91-0.42
				c0.17-0.31-0.27-0.77-0.5-0.51"/>
			<path class="st5" d="M1090.04,402.05c3.63,11.82,0.43,25.26,5.72,36.44"/>
		</g>
		<g>
			<path class="st6" d="M1382.69,621.77c2.9-25.76,7.37-51.34,13.38-76.55"/>
			<path class="st6" d="M1396.49,547.68c2.73,6.74,9.4,10.94,13.76,16.76c3.18,4.24,5.09,9.27,6.96,14.23
				c4.23,11.22,8.45,22.43,12.68,33.65"/>
			<path class="st6" d="M1386.14,590.59c11.22,0.35,22.45,0.25,33.66-0.28"/>
			<path class="st6" d="M1440.8,575.4c14.72,0.66,29.5,0.14,44.14-1.55c0.62-0.07,1.38-0.26,1.53-0.87
				c0.14-0.61-1.14-0.84-0.96-0.24"/>
			<path class="st6" d="M1460.58,555.4c1.84,14.08,4.23,28.09,7.17,41.99"/>
			<path class="st6" d="M1506.23,543.88c6.19,10.13,6.38,22.7,6.39,34.57c0.01,11.55,0.01,23.1,0.02,34.65"/>
			<path class="st6" d="M1508.45,546.85c10.41-4.71,23.81-1.59,31.06,7.25c1.09,1.33,2.07,2.82,2.4,4.5
				c0.69,3.52-1.58,6.94-4.15,9.45c-6.45,6.31-15.59,9.79-24.6,9.36"/>
			<path class="st6" d="M1514.69,577.77c7.77-2.16,16.13-3.73,23.8-1.25c7.67,2.48,14.15,10.27,12.56,18.17
				c-1.31,6.51-7.39,10.96-13.51,13.54c-8.18,3.45-17.26,4.72-26.08,3.65"/>
			<path class="st6" d="M1577.88,563.14c6.72-0.35,13.45-0.71,20.17-1.06"/>
			<path class="st6" d="M1578.68,580.41c8.61-1.43,17.38-1.92,26.09-1.46"/>
			<path class="st6" d="M1649.11,543.76c-6.18-5.93-17.13-3.79-22.86,2.57c-5.73,6.36-7.26,15.46-7.27,24.02
				c0,4.82,0.42,9.73,2.33,14.16c3.14,7.29,10.42,12.62,18.32,13.4c7.9,0.78,16.08-3.01,20.59-9.55"/>
			<path class="st6" d="M1661.71,527.58c-1.08-2.59-0.14-5.87,2.14-7.5c2.28-1.63,5.69-1.46,7.79,0.4
				c3.58,3.16,2.42,9.13-0.22,13.11c-2.64,3.98-6.47,7.3-7.92,11.85c7.12-0.96,14.25-1.91,21.37-2.87c1.43-0.19,3.27-1.77,2.07-2.57
				"/>
			<path class="st6" d="M1550.71,527.58c-1.08-2.59-0.14-5.87,2.14-7.5c2.28-1.63,5.69-1.46,7.79,0.4
				c3.58,3.16,2.42,9.13-0.22,13.11c-2.64,3.98-6.47,7.3-7.92,11.85c7.12-0.96,14.25-1.91,21.37-2.87c1.43-0.19,3.27-1.77,2.07-2.57
				"/>
		</g>
		<g>
			<path class="st7" d="M339.79,211.18c-3.15-27.91-4.6-56.01-4.33-84.09"/>
			<path class="st7" d="M336.5,129.58c4.5,6.46,12.57,9.29,18.58,14.38c4.38,3.71,7.61,8.56,10.78,13.35
				c7.17,10.83,14.34,21.65,21.51,32.48"/>
			<path class="st7" d="M335.91,177.41c11.93-2.34,23.77-5.15,35.48-8.42"/>
			<path class="st7" d="M389.99,148.18c15.71-2.85,31.19-6.96,46.25-12.28c0.64-0.23,1.4-0.61,1.4-1.29c0-0.68-1.41-0.61-1.08-0.02"
				/>
			<path class="st7" d="M406.06,122.28c5.34,14.43,11.25,28.65,17.7,42.62"/>
			<path class="st7" d="M451.5,99.11c8.99,9.21,12.22,22.43,15.09,34.98c2.79,12.2,5.59,24.4,8.38,36.6"/>
			<path class="st7" d="M454.56,101.7c9.86-7.49,24.76-7.42,34.55,0.16c1.47,1.14,2.87,2.47,3.62,4.18c1.58,3.55,0,7.71-2.1,10.98
				c-5.29,8.22-14.1,14.1-23.73,15.82"/>
			<path class="st7" d="M468.61,132.85c7.68-4.16,16.13-7.83,24.83-7.06c8.7,0.77,17.43,7.43,17.65,16.17
				c0.19,7.19-5.16,13.36-11.01,17.56c-7.81,5.61-17.1,9.15-26.66,10.15"/>
			<path class="st7" d="M531.83,102.16c7.02-2,14.03-3.99,21.05-5.99"/>
			<path class="st7" d="M536.84,120.21c8.75-3.59,17.89-6.22,27.21-7.84"/>
			<path class="st7" d="M602.39,64.51c-7.95-4.77-19.01,0.13-23.53,8.23c-4.52,8.1-3.94,18.08-1.89,27.13
				c1.16,5.09,2.79,10.18,5.87,14.39c5.07,6.94,14.05,10.81,22.58,9.73c8.53-1.08,16.26-7.06,19.44-15.05"/>
			<path class="st7" d="M611.8,44.38c-1.76-2.48-1.57-6.16,0.45-8.44c2.02-2.28,5.66-2.91,8.33-1.45c4.54,2.48,4.76,9.06,2.93,13.9
				c-1.83,4.84-5.08,9.27-5.5,14.43c7.29-2.73,14.59-5.46,21.88-8.18c1.46-0.55,3.03-2.66,1.57-3.22"/>
			<path class="st7" d="M494.55,71.15c-1.76-2.48-1.57-6.16,0.45-8.44c2.02-2.28,5.66-2.91,8.33-1.45c4.54,2.48,4.76,9.06,2.93,13.9
				c-1.83,4.84-5.08,9.27-5.5,14.43c7.29-2.73,14.59-5.46,21.88-8.18c1.46-0.55,3.03-2.66,1.57-3.22"/>
		</g>
		<g>
			<path class="st4" d="M1046.78,226.8c7.1-19.1,15.36-37.76,24.73-55.85"/>
			<path class="st4" d="M1071.37,172.91c0.8,5.66,5.09,10.13,7.32,15.39c1.62,3.83,2.12,8.04,2.61,12.17
				c1.1,9.36,2.19,18.71,3.29,28.07"/>
			<path class="st4" d="M1055.33,203.67c8.49,2.39,17.07,4.45,25.73,6.17"/>
			<path class="st4" d="M1099.9,202.46c11.1,3.3,22.47,5.71,33.96,7.2c0.49,0.06,1.1,0.06,1.33-0.38c0.23-0.44-0.71-0.86-0.69-0.36"
				/>
			<path class="st4" d="M1118.78,190.95c-1.27,11.09-2.1,22.23-2.5,33.38"/>
			<path class="st4" d="M1155.79,190.83c2.8,8.91,0.56,18.52-1.69,27.58c-2.19,8.81-4.37,17.62-6.56,26.44"/>
			<path class="st4" d="M1156.92,193.51c8.84-1.62,18.46,3.31,22.31,11.42c0.58,1.22,1.05,2.54,0.98,3.89
				c-0.14,2.82-2.52,4.99-4.96,6.42c-6.12,3.59-13.75,4.51-20.54,2.47"/>
			<path class="st4" d="M1155.81,218.28c6.33-0.18,13.01,0.22,18.39,3.57c5.38,3.35,8.85,10.52,6.13,16.25
				c-2.23,4.72-7.72,6.96-12.88,7.76c-6.89,1.08-14.06,0.32-20.58-2.16"/>
		</g>
		<g>
			<path class="st4" d="M407.11,748.68c2.28-20.25,5.79-40.35,10.52-60.17"/>
			<path class="st4" d="M417.96,690.44c2.14,5.3,7.39,8.6,10.82,13.17c2.5,3.33,4,7.29,5.47,11.18c3.32,8.82,6.64,17.63,9.97,26.45"
				/>
			<path class="st4" d="M409.82,724.17c8.82,0.27,17.64,0.2,26.45-0.22"/>
			<path class="st4" d="M452.79,712.23c11.57,0.52,23.18,0.11,34.69-1.21c0.49-0.06,1.09-0.21,1.2-0.68
				c0.11-0.48-0.9-0.66-0.76-0.19"/>
			<path class="st4" d="M468.33,696.51c1.45,11.07,3.33,22.08,5.64,33"/>
			<path class="st4" d="M504.21,687.46c4.87,7.97,5.02,17.84,5.02,27.17c0.01,9.08,0.01,18.16,0.02,27.24"/>
			<path class="st4" d="M505.95,689.79c8.18-3.7,18.71-1.25,24.41,5.69c0.86,1.04,1.63,2.21,1.89,3.54
				c0.54,2.77-1.24,5.45-3.26,7.42c-5.07,4.96-12.25,7.69-19.34,7.35"/>
			<path class="st4" d="M510.86,714.09c6.1-1.7,12.68-2.93,18.7-0.98c6.03,1.95,11.12,8.07,9.87,14.28
				c-1.03,5.12-5.81,8.62-10.62,10.64c-6.43,2.71-13.57,3.71-20.5,2.87"/>
		</g>
		<g>
			<path class="st4" d="M1776.14,470.72c-0.36,0.29-0.37-0.73,0.08-0.61c0.45,0.12,0.52,0.73,0.5,1.19
				c-0.11,2.41-0.09,4.9,0.79,7.15c0.87,2.25,2.77,4.25,5.16,4.61c3.21,0.49,6.23-2.14,7.32-5.2c1.09-3.06,0.73-6.42,0.35-9.64
				c1.23,10.84,2.46,21.68,3.69,32.51c0.29,2.59,0.59,5.24,0.07,7.79c-0.36,1.8-1.13,3.52-2.23,5c-1.6,2.16-4.32,3.86-6.91,3.13
				c-2.38-0.67-3.82-3.19-4.2-5.63c-0.67-4.37,1.25-8.7,3.45-12.52c4.78-8.28,11.2-15.62,18.78-21.45"/>
			<path class="st4" d="M1815.69,476.33c4.19,0.33,8.42,0.1,12.54-0.69"/>
			<path class="st4" d="M1810.42,464.96c6.4,0.73,12.9,0.54,19.25-0.56"/>
			<path class="st4" d="M1860.86,415.58c-0.82,12.13-1.09,24.3-0.79,36.45c0.01,0.52,0.08,1.14,0.54,1.39
				c0.46,0.25,1.11-0.51,0.65-0.76"/>
			<path class="st4" d="M1844.77,470.42c13.44,0,26.88,0,40.32,0"/>
			<path class="st4" d="M1853.14,489.1c7.5,9.33,19.31,15.05,31.29,15.13"/>
			<path class="st4" d="M1869.11,486.26c1.2,6.04-1.25,12.35-5.11,17.15c-3.86,4.8-9.01,8.37-14.08,11.86"/>
		</g>
		<g>
			<path class="st4" d="M1509.22,3.14c-0.82,12.13-1.09,24.3-0.79,36.45c0.01,0.52,0.08,1.14,0.54,1.39
				c0.46,0.25,1.11-0.51,0.65-0.76"/>
			<path class="st4" d="M1493.14,57.98c13.44,0,26.88,0,40.32,0"/>
			<path class="st4" d="M1501.51,76.66c7.5,9.33,19.31,15.05,31.29,15.13"/>
			<path class="st4" d="M1517.48,73.81c1.2,6.04-1.25,12.35-5.11,17.15c-3.86,4.8-9.01,8.37-14.08,11.86"/>
		</g>
		<g>
			<path class="st4" d="M443.64,476.01c-0.36,0.29-0.37-0.73,0.08-0.61c0.45,0.12,0.52,0.73,0.5,1.19c-0.11,2.41-0.09,4.9,0.79,7.15
				c0.87,2.25,2.77,4.25,5.16,4.61c3.21,0.49,6.23-2.14,7.32-5.2c1.09-3.06,0.73-6.42,0.35-9.64c1.23,10.84,2.46,21.68,3.69,32.51
				c0.29,2.59,0.59,5.24,0.07,7.79c-0.36,1.8-1.13,3.52-2.23,5c-1.6,2.16-4.32,3.86-6.91,3.13c-2.38-0.67-3.82-3.19-4.2-5.63
				c-0.67-4.37,1.25-8.7,3.45-12.52c4.78-8.28,11.2-15.62,18.78-21.45"/>
			<path class="st4" d="M483.19,481.62c4.19,0.33,8.42,0.1,12.54-0.69"/>
			<path class="st4" d="M477.92,470.24c6.4,0.73,12.9,0.54,19.25-0.56"/>
			<path class="st4" d="M528.36,420.86c-0.82,12.13-1.09,24.3-0.79,36.45c0.01,0.52,0.08,1.14,0.54,1.39
				c0.46,0.25,1.11-0.51,0.65-0.76"/>
			<path class="st4" d="M512.27,475.71c13.44,0,26.88,0,40.32,0"/>
			<path class="st4" d="M520.64,494.39c7.5,9.33,19.31,15.05,31.29,15.13"/>
			<path class="st4" d="M536.61,491.54c1.2,6.04-1.25,12.35-5.11,17.15c-3.86,4.8-9.01,8.37-14.08,11.86"/>
		</g>
		<g>
			<path class="st4" d="M988.27,637.29c-0.36,0.29-0.37-0.73,0.08-0.61c0.45,0.12,0.52,0.73,0.5,1.19c-0.11,2.41-0.09,4.9,0.79,7.15
				c0.87,2.25,2.77,4.25,5.16,4.61c3.21,0.49,6.23-2.14,7.32-5.2c1.09-3.06,0.73-6.42,0.35-9.64c1.23,10.84,2.46,21.68,3.69,32.51
				c0.29,2.59,0.59,5.24,0.07,7.79c-0.36,1.8-1.13,3.52-2.23,5c-1.6,2.16-4.32,3.86-6.91,3.13c-2.38-0.67-3.82-3.19-4.2-5.63
				c-0.67-4.37,1.25-8.7,3.45-12.52c4.78-8.28,11.2-15.62,18.78-21.45"/>
			<path class="st4" d="M1027.82,642.89c4.19,0.33,8.42,0.1,12.54-0.69"/>
			<path class="st4" d="M1022.55,631.52c6.4,0.73,12.9,0.54,19.25-0.56"/>
			<path class="st4" d="M1072.99,582.14c-0.82,12.13-1.09,24.3-0.79,36.45c0.01,0.52,0.08,1.14,0.54,1.39
				c0.46,0.25,1.11-0.51,0.65-0.76"/>
			<path class="st4" d="M1056.9,636.98c13.44,0,26.88,0,40.32,0"/>
			<path class="st4" d="M1065.27,655.66c7.5,9.33,19.31,15.05,31.29,15.13"/>
			<path class="st4" d="M1081.24,652.82c1.2,6.04-1.25,12.35-5.11,17.15c-3.86,4.8-9.01,8.37-14.08,11.86"/>
		</g>
		<g>
			<path class="st8" d="M1180.82,756.54c3.55,0.28,7.14,0.08,10.63-0.58"/>
			<path class="st8" d="M1176.35,746.9c5.43,0.62,10.94,0.46,16.32-0.47"/>
			<path class="st8" d="M1205.47,751.53c11.39,0,256.44,0,267.84,0"/>
			<g>
				<path class="st8" d="M1143.09,747.19c6.36,7.91,16.37,12.76,26.52,12.82"/>
				<path class="st8" d="M1156.63,744.78c1.02,5.12-1.06,10.47-4.33,14.54c-3.27,4.07-7.64,7.09-11.94,10.05"/>
			</g>
			<path class="st8" d="M1218.34,735.23c4.18-1.15,8.58-1.5,12.89-1.01"/>
			<path class="st8" d="M1242,735.5c3.2-4.31,5.4-9.37,6.38-14.65c0.61-3.28,0.64-7-1.51-9.55c-0.91-1.08-2.74-1.79-3.62-0.69
				c-0.34,0.43-0.42,1.01-0.48,1.56c-0.85,7.84-1.69,15.93,0.62,23.47c1.32,4.3,4.49,8.8,8.98,8.79c0.57,0,1.18-0.09,1.62-0.47
				c0.53-0.46,0.68-1.21,0.78-1.9c0.34-2.49,0.33-5.19-1.02-7.31c-2.08-3.29-7.37-3.87-10.12-1.12"/>
			<path class="st8" d="M1318.2,735.5c3.2-4.31,5.4-9.37,6.38-14.65c0.61-3.28,0.64-7-1.51-9.55c-0.91-1.08-2.74-1.79-3.62-0.69
				c-0.34,0.43-0.42,1.01-0.48,1.56c-0.85,7.84-1.69,15.93,0.62,23.47c1.32,4.3,4.49,8.8,8.98,8.79c0.57,0,1.18-0.09,1.62-0.47
				c0.53-0.46,0.68-1.21,0.78-1.9c0.34-2.49,0.33-5.19-1.02-7.31c-2.08-3.29-7.37-3.87-10.12-1.12"/>
			<path class="st8" d="M1267.06,719.37c5.35-1.06,10.86-1.33,16.28-0.81"/>
			<path class="st8" d="M1274.18,709.53c0.65,5.97,1.31,11.93,1.96,17.9"/>
			<path class="st8" d="M1269.91,736.26c5.79,0.15,11.58,0.3,17.37,0.45"/>
			<path class="st8" d="M1296.11,716.3c3.63,6.73,6.39,13.94,8.17,21.38c0.44-10.1,0.87-20.2,1.31-30.3
				c0.07-1.67,0.25-3.56,1.57-4.59c0.94-0.74,2.23-0.83,3.43-0.88c42.11-1.96,108.3-2.49,150.41-4.45"/>
			<path class="st8" d="M1335.86,713.98c-0.72-1.73-0.1-3.91,1.43-5c1.52-1.09,3.79-0.97,5.19,0.27c2.38,2.11,1.61,6.08-0.15,8.73
				c-1.76,2.65-4.31,4.86-5.27,7.9c4.75-0.64,9.49-1.27,14.24-1.91c0.95-0.13,2.18-1.18,1.38-1.71"/>
			<path class="st8" d="M1366.32,727.99c0.35-1.47,2.28-1.78,3.79-1.76c6.64,0.1,13.26,0.73,19.8,1.89"/>
			<g>
				<path class="st8" d="M1407.29,707.75c1.43,1.67,0.29,4.2-0.8,6.11c-3.07,5.4-5.46,11.18-7.1,17.16
					c-0.15,0.53-0.27,1.16,0.09,1.58c0.36,0.42,1,0.39,1.54,0.33c4.23-0.45,8.45-0.91,12.68-1.36c0.35-0.04,0.75-0.11,0.91-0.42
					c0.16-0.31-0.26-0.77-0.5-0.51"/>
				<path class="st8" d="M1407.83,708.96c3.63,11.8,0.43,25.23,5.71,36.39"/>
			</g>
			<g>
				<path class="st8" d="M1433.35,729.65c-0.19-0.59-0.9-0.82-1.51-0.85c-1.8-0.07-3.53,0.91-4.65,2.31c-1.13,1.4-1.71,3.17-2,4.94
					c-0.34,2.09-0.08,4.63,1.76,5.68c1.77,1.01,4.14-0.04,5.28-1.73c1.14-1.69,1.37-3.81,1.56-5.84c0.16-1.66,0.11-3.72-1.37-4.5"/>
				<path class="st8" d="M1433.1,729.46c0.93,3.65,2.58,7.11,4.83,10.13c0.89,1.19,1.91,2.34,3.25,2.98
					c2.03,0.96,4.41,0.57,6.61,0.16"/>
			</g>
			<g>
				<path class="st8" d="M1341.45,781.2c-0.19-0.59-0.9-0.82-1.51-0.85c-1.8-0.07-3.53,0.91-4.65,2.31c-1.13,1.4-1.71,3.17-2,4.94
					c-0.34,2.09-0.08,4.63,1.75,5.68c1.77,1.01,4.14-0.04,5.28-1.73c1.14-1.69,1.37-3.81,1.56-5.84c0.16-1.66,0.11-3.72-1.37-4.5"/>
				<path class="st8" d="M1341.2,781c0.93,3.65,2.58,7.11,4.83,10.13c0.89,1.19,1.91,2.34,3.25,2.98c2.03,0.96,4.41,0.57,6.61,0.16"
					/>
			</g>
			<path class="st8" d="M1458.75,726.02c-1.16-0.74-2.7-0.73-3.97-0.18c-1.26,0.55-2.27,1.59-3,2.75c-1.43,2.26-1.91,5.13-1.14,7.68
				c0.77,2.56,2.84,4.72,5.42,5.44c2.57,0.72,5.56-0.11,7.26-2.17"/>
			<path class="st8" d="M1306.77,771.64c-0.51-1.83,0.57-3.85,2.19-4.83c1.63-0.98,3.67-1.05,5.53-0.64
				c1.55,0.34,3.1,1.06,3.97,2.39c0.97,1.47,0.92,3.42,0.32,5.08c-0.6,1.66-1.67,3.09-2.69,4.52c-4.65,6.56-8.43,13.74-11.2,21.28
				c8.88-0.83,17.76-1.66,26.64-2.49"/>
		</g>
		<g>
			<path class="st9" d="M46.67,263.26c3,0.24,6.04,0.07,9-0.49"/>
			<path class="st9" d="M42.89,255.11c4.59,0.52,9.25,0.39,13.81-0.4"/>
			<path class="st9" d="M67.53,259.02c9.64,0,216.96,0,226.6,0"/>
			<g>
				<path class="st9" d="M14.75,255.36c5.38,6.69,13.85,10.79,22.44,10.85"/>
				<path class="st9" d="M26.21,253.32c0.86,4.33-0.9,8.86-3.67,12.3c-2.77,3.44-6.46,6-10.1,8.51"/>
			</g>
			<path class="st9" d="M78.42,245.24c3.54-0.98,7.26-1.27,10.91-0.86"/>
			<path class="st9" d="M98.43,245.46c2.71-3.65,4.57-7.92,5.4-12.39c0.51-2.77,0.54-5.93-1.28-8.08c-0.77-0.91-2.32-1.51-3.06-0.58
				c-0.29,0.36-0.35,0.85-0.4,1.32c-0.72,6.63-1.43,13.48,0.53,19.85c1.11,3.64,3.79,7.45,7.6,7.44c0.49,0,1-0.08,1.37-0.4
				c0.45-0.39,0.58-1.02,0.66-1.61c0.28-2.11,0.28-4.39-0.86-6.18c-1.76-2.78-6.23-3.28-8.56-0.94"/>
			<path class="st9" d="M162.91,245.46c2.71-3.65,4.57-7.92,5.4-12.39c0.51-2.77,0.54-5.93-1.28-8.08
				c-0.77-0.91-2.32-1.51-3.06-0.58c-0.29,0.36-0.35,0.85-0.4,1.32c-0.72,6.63-1.43,13.48,0.53,19.85c1.12,3.64,3.79,7.45,7.6,7.44
				c0.49,0,1-0.08,1.37-0.4c0.45-0.39,0.58-1.02,0.66-1.61c0.28-2.11,0.28-4.39-0.86-6.18c-1.76-2.78-6.23-3.28-8.56-0.94"/>
			<path class="st9" d="M119.64,231.82c4.53-0.9,9.18-1.13,13.78-0.68"/>
			<path class="st9" d="M125.66,223.49c0.55,5.05,1.11,10.09,1.66,15.14"/>
			<path class="st9" d="M122.05,246.11c4.9,0.13,9.8,0.25,14.7,0.38"/>
			<path class="st9" d="M144.22,229.22c3.08,5.7,5.41,11.79,6.91,18.09c0.37-8.54,0.74-17.09,1.1-25.63
				c0.06-1.41,0.21-3.01,1.33-3.89c0.8-0.63,1.88-0.7,2.9-0.75c35.62-1.66,91.63-2.1,127.25-3.76"/>
			<path class="st9" d="M177.84,227.25c-0.61-1.46-0.08-3.31,1.21-4.23c1.29-0.92,3.21-0.82,4.39,0.23
				c2.02,1.78,1.36,5.14-0.12,7.39c-1.49,2.24-3.65,4.11-4.46,6.68c4.02-0.54,8.03-1.08,12.05-1.62c0.81-0.11,1.84-1,1.17-1.45"/>
			<path class="st9" d="M203.61,239.11c0.3-1.24,1.93-1.51,3.21-1.49c5.61,0.08,11.22,0.62,16.75,1.6"/>
			<g>
				<path class="st9" d="M238.27,221.99c1.21,1.42,0.25,3.55-0.67,5.17c-2.59,4.57-4.62,9.46-6.01,14.52
					c-0.12,0.45-0.22,0.98,0.08,1.34c0.3,0.35,0.84,0.33,1.31,0.28c3.58-0.38,7.15-0.77,10.73-1.15c0.29-0.03,0.63-0.09,0.77-0.35
					c0.14-0.26-0.22-0.65-0.42-0.43"/>
				<path class="st9" d="M238.73,223.01c3.07,9.98,0.36,21.34,4.83,30.79"/>
			</g>
			<g>
				<path class="st9" d="M260.32,240.52c-0.16-0.5-0.76-0.7-1.28-0.72c-1.52-0.06-2.98,0.77-3.94,1.95
					c-0.95,1.18-1.45,2.68-1.69,4.18c-0.29,1.76-0.07,3.92,1.48,4.8c1.5,0.85,3.5-0.03,4.47-1.46c0.96-1.43,1.16-3.23,1.32-4.94
					c0.13-1.4,0.09-3.15-1.16-3.8"/>
				<path class="st9" d="M260.11,240.35c0.79,3.09,2.19,6.01,4.09,8.57c0.75,1.01,1.61,1.98,2.75,2.52
					c1.72,0.81,3.73,0.48,5.59,0.13"/>
			</g>
			<g>
				<path class="st9" d="M182.58,284.13c-0.16-0.5-0.76-0.7-1.28-0.72c-1.52-0.06-2.98,0.77-3.94,1.95
					c-0.95,1.18-1.45,2.68-1.69,4.18c-0.29,1.76-0.07,3.92,1.48,4.8c1.5,0.85,3.5-0.03,4.47-1.46c0.96-1.43,1.16-3.23,1.32-4.94
					c0.13-1.4,0.1-3.15-1.16-3.8"/>
				<path class="st9" d="M182.37,283.96c0.79,3.09,2.19,6.01,4.09,8.57c0.75,1.01,1.61,1.98,2.75,2.52
					c1.72,0.81,3.73,0.48,5.59,0.13"/>
			</g>
			<path class="st9" d="M281.82,237.44c-0.98-0.63-2.29-0.62-3.36-0.15c-1.07,0.47-1.92,1.34-2.54,2.33
				c-1.21,1.91-1.62,4.34-0.97,6.5c0.65,2.16,2.41,4,4.58,4.61c2.18,0.61,4.7-0.1,6.14-1.84"/>
			<path class="st9" d="M153.23,276.04c-0.43-1.55,0.48-3.26,1.86-4.09c1.38-0.83,3.11-0.89,4.68-0.54c1.31,0.29,2.62,0.9,3.36,2.02
				c0.82,1.24,0.78,2.9,0.27,4.3c-0.5,1.4-1.41,2.61-2.27,3.83c-3.94,5.55-7.13,11.62-9.48,18.01c7.51-0.7,15.03-1.4,22.54-2.11"/>
		</g>
		<g>
			<path class="st10" d="M76.38,1068.85c4.14-1.14,8.49-1.48,12.76-1"/>
			<path class="st10" d="M112.51,1071.56c-0.66-5.17-7.09-8.25-11.1-4.3"/>
			<path class="st10" d="M99.79,1069.11c4.44-7.12,11.44-19.12,2.44-25.12c-5,9-3,19-0.15,27.6"/>
			<path class="st10" d="M187.91,1071.56c-0.66-5.17-7.09-8.25-11.1-4.3"/>
			<path class="st10" d="M175.18,1069.11c5.04-5.12,6.04-12.12,7.04-18.12c0-2-1-7-5-7c-4,9-2,19,0.25,27.6"/>
			<path class="st10" d="M124.58,1053.15c5.29-1.05,10.74-1.32,16.11-0.8"/>
			<path class="st10" d="M131.63,1043.42c0.65,5.9,1.29,11.81,1.94,17.71"/>
			<path class="st10" d="M127.4,1069.87c5.73,0.15,11.46,0.3,17.19,0.45"/>
			<path class="st10" d="M153.33,1050.12c3.6,6.66,6.32,13.79,8.08,21.16c0.43-9.99,0.86-19.99,1.29-29.98
				c0.07-1.65,0.25-3.52,1.55-4.55c0.93-0.73,2.2-0.82,3.39-0.87c41.66-1.94,107.15-2.46,148.81-4.4"/>
			<path class="st10" d="M192.65,1047.82c-0.71-1.71-0.09-3.87,1.41-4.95c1.51-1.08,3.75-0.96,5.14,0.26
				c2.36,2.08,1.59,6.02-0.14,8.64c-1.74,2.62-4.27,4.81-5.22,7.81c4.7-0.63,9.39-1.26,14.09-1.89c0.94-0.13,2.16-1.17,1.37-1.7"/>
			<path class="st10" d="M222.79,1061.68c0.35-1.45,2.26-1.76,3.75-1.74c6.57,0.1,13.12,0.72,19.59,1.87"/>
			<g>
				<path class="st10" d="M263.32,1041.66c1.41,1.66,0.29,4.16-0.79,6.05c-3.03,5.34-5.4,11.06-7.03,16.98
					c-0.14,0.53-0.26,1.15,0.09,1.56c0.35,0.41,0.99,0.39,1.53,0.33c4.18-0.45,8.36-0.9,12.55-1.35c0.34-0.04,0.74-0.11,0.9-0.41
					c0.16-0.3-0.26-0.76-0.49-0.51"/>
				<path class="st10" d="M263.86,1042.85c2.86,9.35,1.42,19.29,3.33,28.8"/>
			</g>
			<g>
				<path class="st10" d="M289.11,1063.33c-0.18-0.58-0.89-0.81-1.5-0.84c-1.78-0.07-3.49,0.9-4.6,2.29
					c-1.12,1.38-1.69,3.13-1.98,4.89c-0.34,2.06-0.08,4.58,1.74,5.62c1.75,1,4.1-0.04,5.23-1.71c1.13-1.67,1.35-3.77,1.54-5.78
					c0.16-1.64,0.11-3.69-1.35-4.45"/>
				<path class="st10" d="M288.86,1063.13c0.78,3.04,2.06,5.95,3.77,8.57"/>
			</g>
			<path class="st10" d="M314.24,1059.73c-1.15-0.73-2.68-0.72-3.92-0.18c-1.25,0.55-2.24,1.57-2.97,2.72
				c-1.41,2.23-1.89,5.07-1.13,7.6c0.76,2.53,2.81,4.67,5.36,5.39c2.54,0.71,5.5-0.11,7.18-2.15"/>
		</g>
		<g>
			<path class="st4" d="M929.9,286.77c3.12,1.31,6.42,2.2,9.78,2.63"/>
			<path class="st4" d="M928.72,276.73c4.72,2.17,9.75,3.66,14.88,4.42"/>
			<path class="st4" d="M953.66,289.57c10.29,3.39,231.67,76.22,241.96,79.61"/>
			<g>
				<path class="st4" d="M898.59,267.12c3.39,9.04,11,16.39,20.15,19.47"/>
				<path class="st4" d="M911.54,268.96c-0.6,4.93-4.07,9.14-8.24,11.85c-4.17,2.71-9.01,4.14-13.77,5.53"/>
			</g>
			<path class="st4" d="M970.13,278.68c4.12,0.2,8.2,1.2,11.95,2.92"/>
			<path class="st4" d="M991.42,285.95c4.17-2.95,7.66-6.86,10.12-11.34c1.52-2.78,2.66-6.14,1.47-9.08
				c-0.5-1.24-1.94-2.43-3.06-1.7c-0.44,0.29-0.68,0.79-0.89,1.26c-3.1,6.83-6.26,13.89-6.41,21.38c-0.09,4.27,1.44,9.28,5.5,10.61
				c0.52,0.17,1.1,0.27,1.6,0.06c0.62-0.25,0.98-0.89,1.27-1.49c1.04-2.15,1.84-4.59,1.25-6.91c-0.9-3.59-5.5-5.69-8.81-4.01"/>
			<path class="st4" d="M1060.26,308.6c4.17-2.95,7.66-6.86,10.12-11.34c1.52-2.78,2.66-6.14,1.47-9.08
				c-0.5-1.24-1.94-2.43-3.06-1.7c-0.44,0.29-0.68,0.79-0.89,1.26c-3.1,6.83-6.26,13.89-6.41,21.38c-0.09,4.27,1.44,9.28,5.5,10.61
				c0.52,0.17,1.1,0.27,1.6,0.06c0.62-0.25,0.98-0.89,1.27-1.49c1.04-2.15,1.84-4.59,1.25-6.91c-0.9-3.59-5.5-5.69-8.81-4.01"/>
			<path class="st4" d="M1018.86,278.83c5.15,0.63,10.2,2.02,14.95,4.11"/>
			<path class="st4" d="M1028.21,272.05c-1.18,5.58-2.37,11.17-3.55,16.75"/>
			<path class="st4" d="M1016.41,294.93c5.19,1.86,10.37,3.71,15.56,5.57"/>
			<path class="st4" d="M1046.01,284.69c1.28,7.16,1.63,14.49,1.03,21.75c3.4-9,6.79-17.99,10.19-26.99
				c0.56-1.49,1.29-3.14,2.78-3.68c1.07-0.39,2.26-0.08,3.36,0.22c38.62,10.74,98.58,29.94,137.2,40.69"/>
			<path class="st4" d="M1082.61,294.4c-0.14-1.77,1.08-3.56,2.77-4.09c1.7-0.53,3.71,0.25,4.61,1.78c1.53,2.61-0.35,5.97-2.73,7.85
				c-2.38,1.87-5.34,3.11-7.11,5.57c4.48,0.84,8.96,1.67,13.43,2.51c0.9,0.17,2.32-0.42,1.76-1.14"/>
			<path class="st4" d="M1105.96,316.12c0.76-1.22,2.59-0.93,3.95-0.46c5.97,2.06,11.77,4.6,17.32,7.6"/>
			<g>
				<path class="st4" d="M1148.99,310.01c0.79,1.94-0.99,3.88-2.54,5.29c-4.37,3.96-8.25,8.47-11.52,13.39
					c-0.29,0.44-0.59,0.97-0.38,1.45c0.2,0.48,0.79,0.65,1.3,0.76c3.95,0.85,7.91,1.69,11.86,2.54c0.32,0.07,0.71,0.12,0.95-0.1
					c0.24-0.23-0.01-0.77-0.3-0.61"/>
				<path class="st4" d="M1149.12,311.26c-0.23,11.74-7.11,22.92-5.66,34.57"/>
			</g>
			<g>
				<path class="st4" d="M1166.03,337.54c0.01-0.59-0.57-1.01-1.12-1.22c-1.6-0.6-3.46-0.22-4.89,0.7
					c-1.43,0.93-2.49,2.35-3.28,3.87c-0.93,1.78-1.45,4.16-0.1,5.65c1.3,1.44,3.75,1.2,5.29,0.01c1.53-1.19,2.37-3.04,3.15-4.82
					c0.64-1.45,1.21-3.33,0.1-4.47"/>
				<path class="st4" d="M1165.86,337.29c-0.24,3.57,0.22,7.19,1.36,10.58c0.45,1.34,1.03,2.68,2.05,3.65
					c1.55,1.47,3.81,1.82,5.93,2.11"/>
			</g>
			<g>
				<path class="st4" d="M1067.69,356.8c0.01-0.59-0.57-1.01-1.12-1.22c-1.6-0.6-3.46-0.22-4.89,0.7c-1.43,0.93-2.49,2.35-3.28,3.87
					c-0.93,1.78-1.45,4.16-0.1,5.65c1.3,1.44,3.75,1.2,5.29,0.01c1.53-1.19,2.37-3.04,3.15-4.82c0.64-1.45,1.21-3.33,0.1-4.47"/>
				<path class="st4" d="M1067.52,356.54c-0.24,3.57,0.22,7.19,1.36,10.58c0.45,1.34,1.03,2.68,2.05,3.65
					c1.55,1.47,3.81,1.82,5.93,2.11"/>
			</g>
			<path class="st4" d="M1190.06,341.81c-0.83-1.01-2.23-1.46-3.53-1.34c-1.3,0.12-2.52,0.76-3.53,1.59
				c-1.96,1.62-3.25,4.06-3.32,6.6c-0.06,2.54,1.17,5.11,3.27,6.53c2.11,1.42,5.05,1.55,7.2,0.19"/>
			<path class="st4" d="M1039.19,337.85c0.08-1.81,1.66-3.31,3.42-3.71c1.76-0.4,3.63,0.14,5.19,1.06c1.3,0.77,2.49,1.88,2.88,3.34
				c0.44,1.61-0.19,3.37-1.22,4.68c-1.03,1.32-2.43,2.29-3.77,3.29c-6.15,4.54-11.7,9.9-16.45,15.9c8.27,1.89,16.54,3.78,24.81,5.67
				"/>
		</g>
		<g>
			<path class="st4" d="M1827.43,74.59c4.29,7.94,7.54,16.45,9.64,25.22c0.51-11.91,1.03-23.83,1.54-35.74
				c0.09-1.97,0.3-4.2,1.85-5.42c1.11-0.87,4.08,0.37,4.04-1.04c0-0.04,77.16-2.36,77.17-2.31"/>
			<g>
				<path class="st4" d="M1904.71,87.69c-0.22-0.69-1.06-0.97-1.79-1c-2.12-0.09-4.16,1.08-5.49,2.73
					c-1.33,1.65-2.02,3.74-2.36,5.83c-0.4,2.46-0.09,5.47,2.07,6.7c2.09,1.19,4.89-0.04,6.23-2.04c1.35-1.99,1.61-4.5,1.84-6.89
					c0.19-1.96,0.13-4.39-1.61-5.3"/>
				<path class="st4" d="M1904.41,87.46c1.1,4.3,3.05,8.39,5.7,11.95c1.05,1.4,2.25,2.76,3.83,3.51c2.39,1.13,5.2,0.67,7.8,0.18"/>
			</g>
			<path class="st4" d="M1863.8,76.42c-0.6-2.16,0.67-4.55,2.59-5.7c1.92-1.15,4.33-1.24,6.52-0.76c1.83,0.4,3.66,1.25,4.69,2.81
				c1.14,1.73,1.08,4.04,0.38,5.99s-1.97,3.64-3.17,5.33c-5.49,7.74-9.94,16.2-13.21,25.11c10.48-0.98,20.95-1.96,31.43-2.94"/>
		</g>
		<g class="st11">
			<path class="st4" d="M428.23,679.62c7.55,4.94,14.46,10.87,20.49,17.59c-5.22-10.72-10.45-21.44-15.67-32.16
				c-0.86-1.77-1.74-3.84-0.96-5.65c0.56-1.3,3.77-1.62,3.06-2.84c-0.02-0.04,66.73-38.83,66.75-38.79"/>
			<g>
				<path class="st4" d="M502.43,654.34c-0.52-0.51-1.39-0.35-2.05-0.03c-1.9,0.93-3.15,2.93-3.53,5.01c-0.38,2.08,0,4.25,0.7,6.25
					c0.82,2.35,2.52,4.85,5.01,4.9c2.4,0.05,4.28-2.37,4.51-4.76c0.23-2.39-0.73-4.72-1.67-6.94c-0.77-1.81-1.98-3.93-3.94-3.9"/>
				<path class="st4" d="M502.05,654.27c3.02,3.26,6.67,5.92,10.7,7.79c1.59,0.74,3.29,1.36,5.04,1.26
					c2.64-0.15,4.89-1.89,6.94-3.55"/>
			</g>
			<path class="st4" d="M461.08,663.91c-1.56-1.61-1.58-4.31-0.44-6.24c1.14-1.93,3.22-3.15,5.37-3.77c1.8-0.52,3.81-0.64,5.46,0.24
				c1.83,0.98,2.88,3.03,3.19,5.08s0,4.14-0.25,6.2c-1.14,9.42-1.02,18.98,0.34,28.37c8.75-5.85,17.49-11.7,26.24-17.55"/>
		</g>
		<g>
			<path class="st4" d="M698.5,354.84c4.29,7.94,7.54,16.45,9.64,25.22c0.51-11.91,1.03-23.83,1.54-35.74
				c0.09-1.97,0.3-4.2,1.85-5.42c1.11-0.87,4.08,0.37,4.04-1.04c0-0.04,77.16-2.36,77.17-2.31"/>
			<path class="st4" d="M737.37,398.17c5.36-9.74,10.53-20.52,8.87-31.51c-0.56-3.69-2.08-7.5-5.23-9.49
				c-3.15-1.99-8.13-1.22-9.56,2.22c-1.76,4.23,2.83,8.66,7.35,9.4c2.52,0.41,5.74-0.31,6.36-2.79"/>
		</g>
		<g>
			<path class="st4" d="M1650.29,399.78c4.29,7.94,7.54,16.45,9.64,25.22c0.51-11.91,1.03-23.83,1.54-35.74
				c0.09-1.97,0.3-4.2,1.85-5.42c1.11-0.87,4.08,0.37,4.04-1.04c0-0.04,77.16-2.36,77.17-2.31"/>
			<path class="st4" d="M1689.15,443.12c5.36-9.74,10.53-20.52,8.87-31.51c-0.56-3.69-2.08-7.5-5.23-9.49
				c-3.15-1.99-8.13-1.22-9.56,2.22c-1.76,4.23,2.83,8.66,7.35,9.4c2.52,0.41,5.74-0.31,6.36-2.79"/>
		</g>
		<g>
			<path class="st12" d="M574.12,601.2c7.9,14.64,13.89,30.31,17.76,46.49c0.95-21.96,1.89-43.92,2.84-65.88
				c0.16-3.63,0.55-7.74,3.41-9.99c2.05-1.61,7.52,0.69,7.45-1.92c0-0.08,142.21-4.34,142.22-4.26"/>
			<path class="st12" d="M645.75,681.06c9.87-17.96,19.4-37.81,16.34-58.07c-1.02-6.79-3.83-13.82-9.63-17.49
				c-5.8-3.67-14.98-2.24-17.62,4.1c-3.24,7.8,5.21,15.96,13.54,17.32c4.64,0.76,10.59-0.58,11.73-5.14"/>
		</g>
		<g>
			<path class="st4" d="M1288.08,883.6c4.29,7.94,7.54,16.45,9.64,25.22c0.51-11.91,1.03-23.83,1.54-35.74
				c0.09-1.97,0.3-4.2,1.85-5.42c1.11-0.87,4.08,0.37,4.04-1.04c0-0.04,77.16-2.36,77.17-2.31"/>
			<path class="st4" d="M1326.95,926.94c5.36-9.74,10.53-20.52,8.87-31.51c-0.56-3.69-2.08-7.5-5.23-9.49
				c-3.15-1.99-8.13-1.22-9.56,2.22c-1.76,4.23,2.83,8.66,7.35,9.4c2.52,0.41,5.74-0.31,6.36-2.79"/>
		</g>
		<g class="st11">
			<path class="st4" d="M1541.89,294.03c4.29,7.94,7.54,16.45,9.64,25.22c0.51-11.91,1.03-23.83,1.54-35.74
				c0.09-1.97,0.3-4.2,1.85-5.42c1.11-0.87,4.08,0.37,4.04-1.04c0-0.04,77.16-2.36,77.17-2.31"/>
			<path class="st4" d="M1580.76,337.36c5.36-9.74,10.53-20.52,8.87-31.51c-0.56-3.69-2.08-7.5-5.23-9.49
				c-3.15-1.99-8.13-1.22-9.56,2.22c-1.76,4.23,2.83,8.66,7.35,9.4c2.52,0.41,5.74-0.31,6.36-2.79"/>
		</g>
		<g class="st11">
			<path class="st4" d="M50.76,806.93c4.29,7.94,7.54,16.45,9.64,25.22c0.51-11.91,1.03-23.83,1.54-35.74
				c0.09-1.97,0.3-4.2,1.85-5.42c1.11-0.87,4.08,0.37,4.04-1.04c0-0.04,77.16-2.36,77.17-2.31"/>
			<path class="st4" d="M89.63,850.27c5.36-9.74,10.53-20.52,8.87-31.51c-0.56-3.69-2.08-7.5-5.23-9.49
				c-3.15-1.99-8.13-1.22-9.56,2.22c-1.76,4.23,2.83,8.66,7.35,9.4c2.52,0.41,5.74-0.31,6.36-2.79"/>
		</g>
		<g>
			<path class="st4" d="M1345.52,1002.01c7.5,9.33,19.31,15.05,31.29,15.13"/>
			<path class="st4" d="M1361.49,999.16c1.2,6.04-1.25,12.35-5.11,17.15c-3.86,4.8-9.01,8.37-14.08,11.86"/>
		</g>
		<g>
			<path class="st4" d="M647.21,473.37c-0.36,0.29-0.37-0.73,0.08-0.61c0.45,0.12,0.52,0.73,0.5,1.19c-0.11,2.41-0.09,4.9,0.79,7.15
				c0.87,2.25,2.77,4.25,5.16,4.61c3.21,0.49,6.23-2.14,7.32-5.2c1.09-3.06,0.73-6.42,0.35-9.64c1.23,10.84,2.46,21.68,3.69,32.51
				c0.29,2.59,0.59,5.24,0.07,7.79c-0.36,1.8-1.13,3.52-2.23,5c-1.6,2.16-4.32,3.86-6.91,3.13c-2.38-0.67-3.82-3.19-4.2-5.63
				c-0.67-4.37,1.25-8.7,3.45-12.52c4.78-8.28,11.2-15.62,18.78-21.45"/>
			<path class="st4" d="M674.01,460.49c-0.85-2.04-0.11-4.61,1.68-5.9c1.79-1.28,4.47-1.15,6.12,0.32c2.81,2.49,1.9,7.17-0.17,10.3
				c-2.07,3.13-5.09,5.74-6.22,9.31c5.6-0.75,11.2-1.5,16.8-2.25c1.12-0.15,2.57-1.39,1.63-2.02"/>
		</g>
		<g>
			<path class="st13" d="M23.86,51.5c-0.72,0.58-0.73-1.44,0.16-1.2c0.89,0.24,1.02,1.43,0.98,2.35c-0.21,4.75-0.17,9.64,1.55,14.07
				c1.72,4.43,5.44,8.36,10.14,9.07c6.31,0.96,12.25-4.21,14.4-10.23c2.15-6.01,1.44-12.62,0.7-18.96
				c2.42,21.32,4.83,42.64,7.25,63.96c0.58,5.1,1.15,10.3,0.14,15.33c-0.72,3.55-2.22,6.93-4.38,9.84c-3.16,4.25-8.5,7.59-13.6,6.15
				c-4.69-1.33-7.52-6.27-8.25-11.08c-1.31-8.59,2.45-17.11,6.8-24.64c9.41-16.3,22.04-30.72,36.95-42.21"/>
			<path class="st13" d="M76.57,26.16c-1.67-4.01-0.22-9.08,3.31-11.6c3.53-2.52,8.79-2.25,12.05,0.62
				c5.53,4.89,3.74,14.11-0.34,20.27c-4.08,6.16-10.01,11.29-12.24,18.32c11.02-1.48,22.03-2.96,33.05-4.43
				c2.21-0.3,5.06-2.74,3.2-3.98"/>
		</g>
		<g>
			<path class="st14" d="M1806.78,294.89c-0.77,0.33-0.28-1.45,0.44-1.01c0.72,0.43,0.54,1.51,0.27,2.3
				c-1.37,4.11-2.56,8.4-2.17,12.71c0.4,4.31,2.68,8.69,6.61,10.49c5.29,2.42,11.79-0.62,15.18-5.35c3.39-4.73,4.42-10.7,5.36-16.44
				c-3.22,19.29-6.44,38.57-9.66,57.86c-0.77,4.61-1.57,9.31-3.72,13.47c-1.51,2.93-3.68,5.52-6.3,7.52
				c-3.83,2.93-9.35,4.52-13.45,1.98c-3.77-2.34-5.02-7.37-4.46-11.78c1-7.85,6.43-14.38,12.12-19.89
				c12.33-11.92,27.01-21.4,42.94-27.73"/>
			<path class="st14" d="M1859.31,285.89c-0.46-3.93,2.08-8.01,5.8-9.34c3.73-1.33,8.27,0.23,10.4,3.56
				c3.62,5.67-0.26,13.3-5.37,17.67c-5.11,4.37-11.59,7.38-15.31,12.99c10.02,1.46,20.05,2.93,30.07,4.39
				c2.01,0.29,5.11-1.13,3.8-2.68"/>
		</g>
		<g>
			<path class="st14" d="M273.35,921.49c-0.77,0.33-0.28-1.45,0.44-1.01c0.72,0.43,0.54,1.51,0.27,2.3
				c-1.37,4.11-2.56,8.4-2.17,12.71c0.4,4.31,2.68,8.69,6.61,10.49c5.29,2.42,11.79-0.62,15.18-5.35c3.39-4.73,4.42-10.7,5.36-16.44
				c-3.22,19.29-6.44,38.57-9.66,57.86c-0.77,4.61-1.57,9.31-3.72,13.47c-1.51,2.93-3.68,5.52-6.3,7.52
				c-3.83,2.93-9.35,4.52-13.45,1.98c-3.77-2.34-5.02-7.37-4.46-11.78c1-7.85,6.43-14.38,12.12-19.89
				c12.33-11.92,27.01-21.4,42.94-27.73"/>
			<path class="st14" d="M325.88,912.48c-0.46-3.93,2.08-8.01,5.8-9.34c3.73-1.33,8.27,0.23,10.4,3.56
				c3.62,5.67-0.26,13.3-5.37,17.67c-5.12,4.37-11.59,7.38-15.31,12.99c10.02,1.46,20.05,2.93,30.07,4.39
				c2.01,0.29,5.11-1.13,3.8-2.68"/>
		</g>
		<g>
			<path class="st4" d="M1608.79,34.59c2.65,13.93,3.75,28.16,3.29,42.34"/>
			<path class="st4" d="M1631.27,53.86c1.37-1.54,3.7-1.65,5.76-1.65c10.2,0.02,20.4,0.04,30.6,0.06"/>
			<path class="st4" d="M1644.62,37.3c3.48,10.2,5.55,20.89,6.15,31.65"/>
			<g>
				<path class="st4" d="M1681.29,42.29c7.5,9.33,19.31,15.05,31.29,15.13"/>
				<path class="st4" d="M1697.26,39.44c1.2,6.04-1.25,12.35-5.11,17.15c-3.86,4.8-9.01,8.37-14.08,11.86"/>
			</g>
			<path class="st4" d="M1593.17,17.26c-8.84,11.65-10,27.29-9.83,41.91c0.15,13.12,1.87,27.85,12.1,36.07"/>
			<path class="st4" d="M1709.09,17.91c9.66,12.07,15.47,27.17,16.39,42.61c0.56,9.35-1.09,19.7-8.13,25.89"/>
			<path class="st4" d="M1728.9,13.68c-0.85-2.04-0.11-4.61,1.68-5.9c1.79-1.28,4.47-1.15,6.12,0.32c2.81,2.49,1.9,7.17-0.17,10.3
				c-2.07,3.13-5.09,5.74-6.22,9.31c5.6-0.75,11.2-1.5,16.8-2.25c1.12-0.15,2.57-1.39,1.63-2.02"/>
		</g>
		<g>
			<path class="st4" d="M261.12,406.72c-4.03,13.6-9.56,26.76-16.46,39.15"/>
			<path class="st4" d="M272.29,434.15c1.92-0.75,4.04,0.22,5.88,1.17c9.06,4.69,18.12,9.37,27.17,14.06"/>
			<path class="st4" d="M291.73,425.54c-1.58,10.66-4.63,21.11-9.02,30.95"/>
			<g>
				<path class="st4" d="M322.05,446.76c2.39,11.73,10.28,22.22,20.89,27.77"/>
				<path class="st4" d="M337.55,451.54c-1.7,5.92-6.77,10.41-12.4,12.91c-5.63,2.5-11.84,3.31-17.95,4.1"/>
			</g>
			<path class="st4" d="M255.16,384.16c-13.2,6.31-21.38,19.68-27.93,32.76c-5.87,11.74-11.08,25.62-5.75,37.61"/>
			<path class="st4" d="M357.93,437.81c3.06,15.15,1.31,31.24-4.93,45.38c-3.78,8.57-9.99,17.01-19.08,19.29"/>
			<path class="st4" d="M377.48,443.12c0.18-2.2,2.01-4.15,4.19-4.47c2.18-0.32,4.5,1.03,5.3,3.08c1.36,3.5-1.59,7.25-4.87,9.08
				c-3.28,1.83-7.15,2.77-9.8,5.43c5.32,1.9,10.64,3.79,15.97,5.69c1.07,0.38,2.92-0.06,2.37-1.05"/>
		</g>
		<g class="st11">
			<path class="st4" d="M559.87,353.84c-4.03,13.6-9.56,26.76-16.46,39.15"/>
			<path class="st4" d="M571.04,381.27c1.92-0.75,4.04,0.22,5.88,1.17c9.06,4.69,18.12,9.37,27.17,14.06"/>
			<path class="st4" d="M590.49,372.66c-1.58,10.66-4.63,21.11-9.02,30.95"/>
			<g>
				<path class="st4" d="M620.81,393.88c2.39,11.73,10.28,22.22,20.89,27.77"/>
				<path class="st4" d="M636.31,398.66c-1.7,5.92-6.77,10.41-12.4,12.91c-5.63,2.5-11.84,3.31-17.95,4.1"/>
			</g>
			<path class="st4" d="M553.92,331.29c-13.2,6.31-21.38,19.68-27.93,32.76c-5.87,11.74-11.08,25.62-5.75,37.61"/>
			<path class="st4" d="M656.68,384.93c3.06,15.15,1.31,31.24-4.93,45.38c-3.78,8.57-9.99,17.01-19.08,19.29"/>
			<path class="st4" d="M676.24,390.24c0.18-2.2,2.01-4.15,4.19-4.47c2.18-0.32,4.5,1.03,5.3,3.08c1.36,3.5-1.59,7.25-4.87,9.08
				c-3.28,1.83-7.15,2.77-9.8,5.43c5.32,1.9,10.64,3.79,15.97,5.69c1.07,0.38,2.92-0.06,2.37-1.05"/>
		</g>
		<g class="st11">
			<path class="st4" d="M1553.59,946.76c6.27,12.72,11.13,26.14,14.46,39.93"/>
			<path class="st4" d="M1580.4,959.34c0.91-1.85,3.12-2.58,5.11-3.13c9.83-2.7,19.67-5.4,29.5-8.1"/>
			<path class="st4" d="M1588.85,939.82c6.07,8.91,10.92,18.65,14.37,28.86"/>
			<g>
				<path class="st4" d="M1625.52,934.84c9.72,7,22.63,9.35,34.19,6.23"/>
				<path class="st4" d="M1640.16,927.84c2.77,5.5,2.09,12.24-0.35,17.89c-2.44,5.66-6.45,10.47-10.41,15.19"/>
			</g>
			<path class="st4" d="M1533.92,934.22c-5.42,13.58-2.36,28.96,1.7,43.01c3.65,12.61,9.23,26.34,21.29,31.54"/>
			<path class="st4" d="M1645.81,903.94c12.53,9.06,22.15,22.07,27.16,36.69c3.03,8.87,4.2,19.28-0.93,27.12"/>
			<path class="st4" d="M1663.78,894.57c-1.36-1.74-1.34-4.42,0.05-6.13c1.39-1.72,4-2.3,5.99-1.33c3.37,1.65,3.74,6.41,2.58,9.97
				c-1.16,3.57-3.37,6.89-3.51,10.64c5.2-2.22,10.39-4.44,15.59-6.65c1.04-0.44,2.11-2.03,1.03-2.38"/>
		</g>
		<g class="st11">
			<path class="st4" d="M1521.87,174.75c6.27,12.72,11.13,26.14,14.46,39.93"/>
			<path class="st4" d="M1548.68,187.33c0.91-1.85,3.12-2.58,5.11-3.13c9.83-2.7,19.67-5.4,29.5-8.1"/>
			<path class="st4" d="M1557.12,167.81c6.07,8.91,10.92,18.65,14.37,28.86"/>
			<g>
				<path class="st4" d="M1593.8,162.84c9.72,7,22.63,9.35,34.19,6.23"/>
				<path class="st4" d="M1608.43,155.84c2.77,5.5,2.09,12.24-0.35,17.89c-2.44,5.66-6.45,10.47-10.41,15.19"/>
			</g>
			<path class="st4" d="M1502.19,162.22c-5.42,13.58-2.36,28.96,1.7,43.01c3.65,12.61,9.23,26.34,21.29,31.54"/>
			<path class="st4" d="M1614.09,131.93c12.53,9.06,22.15,22.07,27.16,36.69c3.03,8.87,4.2,19.28-0.93,27.12"/>
			<path class="st4" d="M1632.05,122.57c-1.36-1.74-1.34-4.42,0.05-6.13c1.39-1.72,4-2.3,5.99-1.33c3.37,1.65,3.74,6.41,2.58,9.97
				c-1.16,3.57-3.37,6.89-3.51,10.64c5.2-2.22,10.39-4.44,15.59-6.65c1.04-0.44,2.11-2.03,1.03-2.38"/>
		</g>
		<g class="st11">
			<path class="st4" d="M1295.37,194.97c-12.87,5.97-26.39,10.51-40.25,13.53"/>
			<path class="st4" d="M1282.17,221.48c1.83,0.95,2.51,3.18,3.01,5.18c2.47,9.9,4.94,19.79,7.41,29.69"/>
			<path class="st4" d="M1301.49,230.37c-9.05,5.86-18.9,10.48-29.19,13.69"/>
			<g>
				<path class="st4" d="M1305.61,267.16c-7.22,9.55-9.88,22.4-7.03,34.03"/>
				<path class="st4" d="M1312.27,281.95c-5.57,2.64-12.28,1.8-17.88-0.77c-5.6-2.57-10.31-6.69-14.94-10.76"/>
			</g>
			<path class="st4" d="M1308.36,175.59c-13.46-5.73-28.9-3.03-43.04,0.7c-12.69,3.35-26.55,8.62-32.03,20.54"/>
			<path class="st4" d="M1336.03,288.16c-9.35,12.31-22.57,21.63-37.31,26.3c-8.93,2.83-19.37,3.75-27.09-1.56"/>
			<path class="st4" d="M1344.98,306.34c1.77-1.32,4.45-1.24,6.13,0.19c1.68,1.43,2.2,4.06,1.19,6.01
				c-1.72,3.33-6.49,3.59-10.03,2.35c-3.54-1.25-6.81-3.53-10.55-3.76c2.1,5.25,4.19,10.49,6.29,15.74
				c0.42,1.05,1.98,2.15,2.36,1.09"/>
		</g>
		<g class="st11">
			<path class="st4" d="M776.3,589.84c6.27,12.72,11.13,26.14,14.46,39.93"/>
			<path class="st4" d="M803.11,602.42c0.91-1.85,3.12-2.58,5.11-3.13c9.83-2.7,19.67-5.4,29.5-8.1"/>
			<path class="st4" d="M811.56,582.9c6.07,8.91,10.92,18.65,14.37,28.86"/>
			<g>
				<path class="st4" d="M848.23,577.93c9.72,7,22.63,9.35,34.19,6.23"/>
				<path class="st4" d="M862.86,570.92c2.77,5.5,2.09,12.24-0.35,17.89c-2.44,5.66-6.45,10.47-10.41,15.19"/>
			</g>
			<path class="st4" d="M756.63,577.3c-5.42,13.58-2.36,28.96,1.7,43.01c3.65,12.61,9.23,26.34,21.29,31.54"/>
			<path class="st4" d="M868.52,547.02c12.53,9.06,22.15,22.07,27.16,36.69c3.03,8.87,4.2,19.28-0.93,27.12"/>
			<path class="st4" d="M886.49,537.65c-1.36-1.74-1.34-4.42,0.05-6.13c1.39-1.72,4-2.3,5.99-1.33c3.37,1.65,3.74,6.41,2.58,9.97
				c-1.16,3.57-3.37,6.89-3.51,10.64c5.2-2.22,10.39-4.44,15.59-6.65c1.04-0.44,2.11-2.03,1.03-2.38"/>
		</g>
		<g class="st11">
			<path class="st4" d="M937.94,1009.52c-4.03,13.6-9.56,26.76-16.46,39.15"/>
			<path class="st4" d="M949.11,1036.94c1.92-0.75,4.04,0.22,5.88,1.17c9.06,4.69,18.12,9.37,27.17,14.06"/>
			<path class="st4" d="M968.56,1028.33c-1.58,10.66-4.63,21.11-9.02,30.95"/>
			<g>
				<path class="st4" d="M998.88,1049.56c1.77,8.63,6.49,16.58,13.09,22.39"/>
				<path class="st4" d="M1014.38,1054.34c-1.7,5.92-6.77,10.41-12.4,12.91c-5.63,2.5-11.84,3.31-17.95,4.1"/>
			</g>
			<path class="st4" d="M931.99,986.96c-13.2,6.31-21.38,19.68-27.93,32.76c-5.87,11.74-11.08,25.62-5.75,37.61"/>
			<path class="st4" d="M1034.75,1040.61c2.06,10.24,1.94,20.91-0.29,31.11"/>
			<path class="st4" d="M1054.31,1045.91c0.18-2.2,2.01-4.15,4.19-4.47c2.18-0.32,4.5,1.03,5.3,3.08c1.36,3.5-1.59,7.25-4.87,9.08
				c-3.28,1.83-7.15,2.77-9.8,5.43c5.32,1.9,10.64,3.79,15.97,5.69c1.07,0.38,2.92-0.06,2.37-1.05"/>
		</g>
		<g class="st11">
			<path class="st4" d="M546.37,581.87c5.69,12.99,9.94,26.61,12.65,40.54"/>
			<path class="st4" d="M572.59,595.64c0.99-1.81,3.23-2.44,5.25-2.89c9.95-2.26,19.89-4.51,29.84-6.77"/>
			<path class="st4" d="M581.9,576.52c5.67,9.17,10.07,19.12,13.06,29.48"/>
			<g>
				<path class="st4" d="M618.77,573.2c9.39,7.43,22.19,10.36,33.87,7.76"/>
				<path class="st4" d="M633.7,566.86c2.52,5.62,1.54,12.32-1.15,17.86c-2.69,5.54-6.91,10.17-11.08,14.71"/>
			</g>
			<path class="st4" d="M527.28,568.47c-6.02,13.33-3.65,28.83-0.23,43.05c3.08,12.76,8.04,26.73,19.85,32.46"/>
			<path class="st4" d="M640.42,543.23c12.11,9.61,21.14,23.04,25.49,37.87c2.63,8.99,3.33,19.45-2.14,27.05"/>
			<path class="st4" d="M658.79,534.68c-1.28-1.8-1.14-4.47,0.32-6.12c1.46-1.65,4.1-2.11,6.04-1.06c3.3,1.79,3.45,6.57,2.13,10.08
				c-1.32,3.51-3.68,6.73-3.99,10.47c5.29-1.98,10.58-3.96,15.87-5.95c1.06-0.4,2.19-1.93,1.14-2.34"/>
		</g>
		<g>
			<path class="st4" d="M121.6,717.66c-1.22,14.13-4,28.13-8.28,41.65"/>
			<path class="st4" d="M138.04,742.3c1.73-1.12,4.01-0.59,5.99-0.03c9.81,2.78,19.63,5.55,29.44,8.33"/>
			<path class="st4" d="M155.37,729.96c0.59,10.76-0.3,21.61-2.63,32.13"/>
			<g>
				<path class="st4" d="M189.33,744.68c4.7,11.01,14.53,19.71,26.03,23.02"/>
				<path class="st4" d="M205.47,746.25c-0.48,6.14-4.54,11.55-9.56,15.13c-5.01,3.58-10.94,5.62-16.76,7.61"/>
			</g>
			<path class="st4" d="M111.25,696.76c-11.66,8.82-17,23.57-20.79,37.69c-3.4,12.68-5.72,27.32,1.9,38"/>
			<path class="st4" d="M222.68,728.72c6.03,14.23,7.54,30.34,4.26,45.45c-1.99,9.16-6.37,18.67-14.82,22.72"/>
			<path class="st4" d="M242.9,730c-0.27-2.19,1.14-4.47,3.21-5.22c2.07-0.75,4.61,0.11,5.81,1.96c2.04,3.15-0.11,7.42-2.95,9.87
				c-2.84,2.45-6.45,4.15-8.51,7.29c5.59,0.79,11.19,1.58,16.78,2.37c1.12,0.16,2.85-0.65,2.11-1.51"/>
		</g>
		<path class="st4" d="M671.42,732.09c-0.6-2.16,0.67-4.55,2.59-5.7c1.92-1.15,4.33-1.24,6.52-0.76c1.83,0.4,3.66,1.25,4.69,2.81
			c1.14,1.73,1.08,4.04,0.38,5.99c-0.7,1.95-1.97,3.64-3.17,5.33c-5.49,7.74-9.94,16.2-13.21,25.1c10.48-0.98,20.95-1.96,31.43-2.94
			"/>
		<g>
			<path class="st4" d="M1799.93,684.88c-0.36,0.29-0.37-0.73,0.08-0.61c0.45,0.12,0.52,0.73,0.5,1.19
				c-0.11,2.41-0.09,4.9,0.79,7.15c0.87,2.25,2.77,4.25,5.16,4.61c3.21,0.49,6.23-2.14,7.32-5.2c1.09-3.06,0.73-6.42,0.35-9.64
				c1.23,10.84,2.46,21.68,3.69,32.51c0.29,2.59,0.59,5.24,0.07,7.79c-0.36,1.8-1.13,3.52-2.23,5c-1.6,2.16-4.32,3.86-6.91,3.13
				c-2.38-0.67-3.82-3.19-4.2-5.63c-0.67-4.37,1.25-8.7,3.45-12.52c4.78-8.28,11.2-15.62,18.78-21.45"/>
			<path class="st4" d="M1763.33,668.64c-0.6-2.16,0.67-4.55,2.59-5.7c1.92-1.15,4.33-1.24,6.52-0.76c1.82,0.4,3.66,1.25,4.69,2.81
				c1.14,1.73,1.08,4.04,0.38,5.99c-0.7,1.95-1.97,3.64-3.17,5.33c-5.49,7.74-9.94,16.2-13.21,25.1
				c10.48-0.98,20.95-1.96,31.43-2.94"/>
		</g>
		<g>
			<path class="st15" d="M965.19,161.52c-0.53,0.43-0.55-1.07,0.12-0.89c0.66,0.18,0.76,1.07,0.73,1.75
				c-0.16,3.54-0.13,7.18,1.15,10.48c1.28,3.3,4.06,6.23,7.56,6.76c4.7,0.71,9.13-3.14,10.73-7.62c1.6-4.48,1.07-9.4,0.52-14.13
				c1.8,15.89,3.6,31.77,5.4,47.66c0.43,3.8,0.86,7.68,0.1,11.42c-0.53,2.64-1.66,5.16-3.26,7.33c-2.35,3.17-6.33,5.66-10.13,4.58
				c-3.49-0.99-5.6-4.67-6.15-8.26c-0.98-6.4,1.83-12.75,5.06-18.36c7.01-12.14,16.42-22.89,27.53-31.45"/>
			<path class="st15" d="M911.53,137.72c-0.88-3.17,0.98-6.66,3.8-8.35c2.82-1.69,6.35-1.82,9.56-1.11
				c2.68,0.59,5.36,1.84,6.87,4.12c1.68,2.54,1.59,5.92,0.56,8.78c-1.03,2.86-2.89,5.34-4.65,7.82
				c-8.04,11.34-14.58,23.75-19.37,36.8c15.36-1.43,30.71-2.87,46.07-4.3"/>
		</g>
		<g>
			<path class="st4" d="M1497.19,887.02c-0.17,0.44-0.69-0.45-0.24-0.57c0.45-0.12,0.81,0.37,1.03,0.78
				c1.12,2.14,2.39,4.28,4.28,5.78c1.89,1.51,4.53,2.28,6.78,1.39c3.02-1.19,4.31-4.99,3.71-8.18c-0.59-3.19-2.6-5.91-4.54-8.51
				c6.51,8.75,13.03,17.5,19.54,26.24c1.56,2.09,3.14,4.23,3.98,6.7c0.59,1.74,0.8,3.61,0.59,5.44c-0.3,2.67-1.79,5.51-4.4,6.18
				c-2.4,0.62-4.91-0.83-6.46-2.76c-2.77-3.44-3.3-8.14-3.32-12.56c-0.03-9.57,1.82-19.13,5.44-27.99"/>
			<path class="st4" d="M1457.38,891.4c-1.61-1.56-1.71-4.26-0.63-6.23c1.08-1.96,3.12-3.25,5.25-3.94
				c1.78-0.57,3.79-0.76,5.47,0.07c1.86,0.92,2.97,2.94,3.34,4.98c0.37,2.04,0.13,4.14-0.06,6.2c-0.85,9.45-0.44,19,1.21,28.34
				c8.56-6.12,17.12-12.23,25.68-18.35"/>
		</g>
		<g>
			<path class="st4" d="M1877.83,1071.61c0.48-8.03,2.27-15.98,5.31-23.43"/>
			<path class="st4" d="M1856.75,1056.22c-0.88-0.87,0.41-0.07,1.05,0.71c1.06,1.28,1.63,2.91,2.8,4.15
				c2.14,2.27,5.62,3.89,8.61,2.23c6.65-3.69,1.66-12.27-1.45-16.39c6.1,8.19,12.2,16.38,18.3,24.57"/>
			<path class="st4" d="M1816.95,1060.61c-5.46-5.46,4.8-12.73,10.09-10.09c3.21,1.6,3.64,5.53,3.5,8.7
				c-0.19,4.22-0.66,8.4-0.64,12.64"/>
		</g>
		<g>
			<path class="st4" d="M51,360.89c-0.17,0.44-0.69-0.45-0.24-0.57c0.45-0.12,0.81,0.37,1.03,0.78c1.12,2.14,2.39,4.28,4.28,5.78
				c1.89,1.51,4.53,2.28,6.78,1.39c3.02-1.19,4.3-4.99,3.71-8.18c-0.59-3.19-2.6-5.91-4.54-8.51c6.51,8.75,13.03,17.5,19.54,26.24
				c1.56,2.09,3.14,4.23,3.98,6.7c0.59,1.74,0.8,3.61,0.59,5.44c-0.3,2.67-1.79,5.51-4.4,6.18c-2.4,0.62-4.91-0.83-6.46-2.76
				c-2.77-3.44-3.3-8.14-3.32-12.56c-0.03-9.57,1.82-19.13,5.44-27.99"/>
			<path class="st4" d="M11.2,365.27c-1.61-1.56-1.71-4.26-0.63-6.23c1.08-1.96,3.12-3.25,5.25-3.94c1.78-0.57,3.79-0.76,5.47,0.07
				c1.86,0.92,2.97,2.94,3.34,4.98c0.37,2.04,0.13,4.14-0.06,6.2c-0.85,9.45-0.44,19,1.21,28.34c8.56-6.12,17.12-12.23,25.68-18.35"
				/>
		</g>
		<g>
			<path class="st4" d="M1572.49,779.24c2.78,4.51-1.35,11.47,2.33,15.29c1.24,1.28,3.04,1.79,4.65,2.57
				c4.26,2.08,7.26,6.54,7.59,11.27c0.33,4.73-2.04,9.56-5.97,12.2c-3.88,2.61-10.02,2.56-12.45-1.43"/>
			<path class="st4" d="M1569.82,780.51c7.63,0.22,15.26,0.45,22.89,0.67"/>
		</g>
		<g>
			<path class="st4" d="M1271.09-0.7c2.78,4.51-1.35,11.47,2.33,15.29c1.24,1.28,3.04,1.79,4.65,2.57
				c4.26,2.08,7.26,6.54,7.59,11.27c0.33,4.73-2.04,9.56-5.97,12.2c-3.88,2.61-10.02,2.56-12.45-1.43"/>
			<path class="st4" d="M1268.42,0.57c7.63,0.22,15.26,0.45,22.89,0.67"/>
		</g>
		<g>
			<g>
				<path class="st4" d="M1483,380.7c7.5,9.33,19.31,15.05,31.29,15.13"/>
				<path class="st4" d="M1498.97,377.86c1.2,6.04-1.25,12.35-5.11,17.15c-3.86,4.8-9.01,8.37-14.08,11.86"/>
			</g>
			<g>
				<path class="st4" d="M1369.32,383.35c7.5,9.33,19.31,15.05,31.29,15.13"/>
				<path class="st4" d="M1385.29,380.5c1.2,6.04-1.25,12.35-5.11,17.15c-3.86,4.8-9.01,8.37-14.08,11.86"/>
			</g>
			<path class="st4" d="M1440.78,372.53c-0.6-2.16,0.67-4.55,2.59-5.7c1.92-1.15,4.33-1.24,6.52-0.76c1.83,0.4,3.66,1.25,4.69,2.81
				c1.14,1.73,1.08,4.04,0.38,5.99c-0.7,1.95-1.97,3.64-3.17,5.33c-5.49,7.74-9.94,16.2-13.21,25.1
				c10.48-0.98,20.95-1.96,31.43-2.94"/>
			<path class="st4" d="M1409.05,451.84c-0.6-2.16,0.67-4.55,2.59-5.7c1.92-1.15,4.33-1.24,6.52-0.76c1.83,0.4,3.66,1.25,4.69,2.81
				c1.14,1.73,1.08,4.04,0.38,5.99c-0.7,1.95-1.97,3.64-3.17,5.33c-5.49,7.74-9.94,16.2-13.21,25.1
				c10.48-0.98,20.95-1.96,31.43-2.94"/>
			<path class="st4" d="M1409.43,387.31c8.17-0.99,16.43-1.33,24.65-1.03"/>
			<path class="st4" d="M1315.1,425.11c60.66,0.73,160.19-2.79,220.36-10.53"/>
			<g>
				<path class="st4" d="M1337.19,366.8c2.78,4.51-1.35,11.47,2.33,15.29c1.24,1.28,3.04,1.79,4.65,2.57
					c4.26,2.08,7.26,6.54,7.59,11.27c0.33,4.73-2.04,9.56-5.97,12.2c-3.88,2.61-10.02,2.56-12.45-1.43"/>
				<path class="st4" d="M1334.52,368.07c7.63,0.22,15.26,0.45,22.89,0.67"/>
			</g>
			<path class="st4" d="M1387.4,447.87c1.53,0.65,1.76,2.69,1.76,4.35c-0.01,10.62-0.02,21.24-0.03,31.86"/>
		</g>
		<g>
			<g>
				<path class="st4" d="M1213.33,951.78c7.5,9.33,19.31,15.05,31.29,15.13"/>
				<path class="st4" d="M1229.3,948.93c1.2,6.04-1.25,12.35-5.11,17.15c-3.86,4.8-9.01,8.37-14.08,11.86"/>
			</g>
			<g>
				<path class="st4" d="M1099.64,954.42c7.5,9.33,19.31,15.05,31.29,15.13"/>
				<path class="st4" d="M1115.61,951.57c1.2,6.04-1.25,12.35-5.11,17.15c-3.86,4.8-9.01,8.37-14.08,11.86"/>
			</g>
			<path class="st4" d="M1171.11,943.6c-0.6-2.16,0.67-4.55,2.59-5.7c1.92-1.15,4.33-1.24,6.52-0.76c1.83,0.4,3.66,1.25,4.69,2.81
				c1.14,1.73,1.08,4.04,0.38,5.99c-0.7,1.95-1.97,3.64-3.17,5.33c-5.49,7.74-9.94,16.2-13.21,25.1
				c10.48-0.98,20.95-1.96,31.43-2.94"/>
			<path class="st4" d="M1139.38,1022.91c-0.6-2.16,0.67-4.55,2.59-5.7c1.92-1.15,4.33-1.24,6.52-0.76c1.83,0.4,3.66,1.25,4.69,2.81
				c1.14,1.73,1.08,4.04,0.38,5.99c-0.7,1.95-1.97,3.64-3.17,5.33c-5.49,7.74-9.94,16.2-13.21,25.1
				c10.48-0.98,20.95-1.96,31.43-2.94"/>
			<path class="st4" d="M1139.76,958.38c8.17-0.99,16.43-1.33,24.65-1.03"/>
			<path class="st4" d="M1045.43,996.19c60.66,0.73,160.19-2.79,220.36-10.53"/>
			<g>
				<path class="st4" d="M1067.52,937.87c2.78,4.51-1.35,11.47,2.33,15.29c1.24,1.28,3.04,1.79,4.65,2.57
					c4.26,2.08,7.26,6.54,7.59,11.27c0.33,4.73-2.04,9.56-5.97,12.2c-3.88,2.61-10.02,2.56-12.45-1.43"/>
				<path class="st4" d="M1064.85,939.14c7.63,0.22,15.26,0.45,22.89,0.67"/>
			</g>
			<path class="st4" d="M1117.73,1018.94c1.53,0.65,1.76,2.69,1.76,4.35c-0.01,10.62-0.02,21.24-0.03,31.86"/>
		</g>
		<g class="st11">
			<g>
				<path class="st4" d="M540.35,987.55c3.83,11.34,12.96,20.77,24.18,24.96"/>
				<path class="st4" d="M556.33,990.37c-0.95,6.09-5.42,11.17-10.7,14.35c-5.27,3.18-11.34,4.76-17.3,6.3"/>
			</g>
			<g>
				<path class="st4" d="M432.69,950.95c3.83,11.34,12.96,20.77,24.18,24.96"/>
				<path class="st4" d="M448.66,953.77c-0.95,6.09-5.42,11.17-10.7,14.35c-5.27,3.18-11.34,4.76-17.3,6.3"/>
			</g>
			<path class="st4" d="M503.52,965.36c0.18-2.23,2.19-4.04,4.39-4.46c2.2-0.42,4.49,0.32,6.38,1.53c1.58,1.01,3,2.44,3.44,4.25
				c0.48,2.02-0.37,4.16-1.7,5.76c-1.33,1.59-3.1,2.74-4.81,3.92c-7.81,5.38-14.91,11.8-21.04,19.03
				c10.17,2.68,20.35,5.37,30.52,8.05"/>
			<path class="st4" d="M446.46,1028.93c0.18-2.23,2.19-4.04,4.39-4.46c2.2-0.42,4.49,0.32,6.38,1.53c1.58,1.01,3,2.44,3.44,4.25
				c0.48,2.02-0.37,4.16-1.7,5.76c-1.33,1.59-3.1,2.74-4.81,3.92c-7.81,5.38-14.91,11.8-21.04,19.03
				c10.17,2.68,20.35,5.37,30.52,8.05"/>
			<path class="st4" d="M469,968.46c8.02,1.88,15.88,4.4,23.51,7.51"/>
			<path class="st4" d="M367.42,971.54c56.71,21.54,151.38,52.45,210.54,65.87"/>
			<g>
				<path class="st4" d="M408.21,924.36c1.06,5.19-5.21,10.31-3.07,15.16c0.72,1.63,2.24,2.72,3.48,4.01
					c3.29,3.42,4.57,8.64,3.25,13.19c-1.32,4.56-5.2,8.28-9.81,9.41c-4.54,1.11-10.29-1.04-11.2-5.62"/>
				<path class="st4" d="M405.27,924.64c7.09,2.83,14.18,5.67,21.27,8.5"/>
			</g>
			<path class="st4" d="M427.49,1017.76c1.22,1.14,0.73,3.13,0.16,4.69c-3.66,9.97-7.32,19.94-10.98,29.91"/>
		</g>
		<g class="st11">
			<g>
				<path class="st4" d="M167.57,98.49c10.36,6,23.44,7.07,34.64,2.82"/>
				<path class="st4" d="M181.44,90.08c3.3,5.2,3.29,11.97,1.42,17.84c-1.87,5.87-5.38,11.05-8.86,16.14"/>
			</g>
			<g>
				<path class="st4" d="M62.5,141.97c10.36,6,23.44,7.07,34.64,2.82"/>
				<path class="st4" d="M76.36,133.55c3.3,5.2,3.29,11.97,1.42,17.84c-1.87,5.87-5.38,11.05-8.86,16.14"/>
			</g>
			<path class="st4" d="M125.24,106.1c-1.34-1.8-1.02-4.48,0.36-6.25c1.38-1.77,3.59-2.72,5.81-3.06c1.85-0.28,3.86-0.15,5.39,0.93
				c1.69,1.2,2.47,3.37,2.52,5.45c0.05,2.07-0.52,4.11-1.03,6.12c-2.33,9.19-3.43,18.7-3.27,28.18c9.42-4.69,18.84-9.38,28.25-14.08
				"/>
			<path class="st4" d="M124.27,191.52c-1.34-1.8-1.02-4.48,0.36-6.25c1.38-1.77,3.59-2.72,5.81-3.06c1.85-0.28,3.86-0.15,5.39,0.93
				c1.69,1.2,2.47,3.37,2.52,5.45c0.05,2.07-0.52,4.11-1.03,6.12c-2.33,9.19-3.43,18.7-3.27,28.18c9.42-4.69,18.84-9.38,28.25-14.08
				"/>
			<path class="st4" d="M101.34,131.19c7.27-3.87,14.84-7.17,22.62-9.86"/>
			<path class="st4" d="M27,200.48c56.84-21.2,148.39-60.39,201.72-89.31"/>
			<g>
				<path class="st4" d="M26.56,138.12c4.22,3.21,2.88,11.19,7.69,13.42c1.62,0.75,3.48,0.57,5.26,0.72
					c4.73,0.4,9.13,3.48,11.14,7.77c2.01,4.3,1.55,9.65-1.17,13.54c-2.68,3.83-8.42,6-12.12,3.16"/>
				<path class="st4" d="M24.53,140.27c7.2-2.54,14.4-5.09,21.59-7.63"/>
			</g>
			<path class="st4" d="M102.64,195.62c1.66,0.05,2.61,1.87,3.21,3.42c3.82,9.91,7.65,19.81,11.47,29.72"/>
		</g>
		<g class="st11">
			<g>
				<path class="st4" d="M467.8,282.34c8.01,8.9,20.13,13.93,32.09,13.34"/>
				<path class="st4" d="M483.59,278.59c1.54,5.97-0.55,12.4-4.14,17.41c-3.58,5.01-8.52,8.86-13.39,12.64"/>
			</g>
			<g>
				<path class="st4" d="M354.45,291.39c8.01,8.9,20.13,13.93,32.09,13.34"/>
				<path class="st4" d="M370.23,287.65c1.54,5.97-0.55,12.4-4.14,17.41c-3.58,5.01-8.52,8.86-13.39,12.64"/>
			</g>
			<path class="st4" d="M425.19,276.56c-0.72-2.12,0.41-4.58,2.26-5.84c1.85-1.26,4.25-1.48,6.47-1.13c1.85,0.3,3.72,1.05,4.84,2.54
				c1.24,1.66,1.31,3.97,0.72,5.96c-0.59,1.99-1.76,3.75-2.86,5.5c-5.04,8.03-9.01,16.74-11.78,25.81
				c10.4-1.57,20.81-3.14,31.21-4.7"/>
			<path class="st4" d="M397.99,357.54c-0.72-2.12,0.41-4.58,2.26-5.84c1.85-1.26,4.25-1.48,6.47-1.13c1.85,0.3,3.72,1.05,4.84,2.54
				c1.24,1.66,1.31,3.97,0.72,5.96c-0.59,1.99-1.76,3.75-2.86,5.5c-5.04,8.03-9.01,16.74-11.78,25.81
				c10.4-1.57,20.81-3.14,31.21-4.7"/>
			<path class="st4" d="M394.73,293.08c8.11-1.45,16.32-2.26,24.56-2.42"/>
			<path class="st4" d="M302.67,336.16c60.6-2.7,159.77-11.83,219.41-22.95"/>
			<g>
				<path class="st4" d="M321.44,276.68c3.03,4.35-0.7,11.53,3.19,15.13c1.31,1.21,3.14,1.61,4.78,2.3
					c4.37,1.84,7.62,6.12,8.21,10.83c0.59,4.71-1.49,9.66-5.28,12.52c-3.72,2.82-9.85,3.12-12.51-0.72"/>
				<path class="st4" d="M318.85,278.1c7.63-0.21,15.26-0.42,22.89-0.62"/>
			</g>
			<path class="st4" d="M376.14,354.79c1.57,0.56,1.91,2.58,2,4.24c0.59,10.6,1.18,21.21,1.77,31.81"/>
		</g>
		<g>
			<g>
				<path class="st4" d="M941.26,742.67c2.81,11.64,11.06,21.84,21.86,27.02"/>
				<path class="st4" d="M956.91,746.9c-1.49,5.98-6.4,10.64-11.93,13.34c-5.54,2.7-11.72,3.73-17.79,4.73"/>
			</g>
			<g>
				<path class="st4" d="M837.28,696.62c2.81,11.64,11.06,21.84,21.86,27.02"/>
				<path class="st4" d="M852.94,700.85c-1.49,5.98-6.4,10.64-11.93,13.34c-5.54,2.7-11.72,3.73-17.79,4.73"/>
			</g>
			<path class="st4" d="M906.54,717.28c0.38-2.21,2.54-3.83,4.77-4.05c2.23-0.22,4.45,0.72,6.22,2.09c1.48,1.14,2.77,2.69,3.04,4.54
				c0.3,2.05-0.74,4.11-2.21,5.58c-1.47,1.47-3.33,2.45-5.14,3.47c-8.26,4.66-15.9,10.42-22.65,17.08
				c9.89,3.58,19.79,7.16,29.68,10.74"/>
			<path class="st4" d="M844.04,775.51c0.38-2.21,2.54-3.83,4.77-4.05c2.23-0.22,4.45,0.72,6.22,2.09c1.48,1.14,2.77,2.69,3.04,4.54
				c0.3,2.05-0.74,4.11-2.21,5.58c-1.47,1.47-3.33,2.45-5.14,3.47c-8.26,4.66-15.9,10.42-22.65,17.08
				c9.89,3.58,19.79,7.16,29.68,10.74"/>
			<path class="st4" d="M871.89,717.3c7.82,2.59,15.43,5.8,22.74,9.57"/>
			<path class="st4" d="M770.43,711.3c54.57,26.51,146.1,65.73,203.83,84.38"/>
			<g>
				<path class="st4" d="M815.27,667.95c0.59,5.27-6.11,9.81-4.41,14.83c0.57,1.69,1.99,2.91,3.11,4.3
					c2.97,3.7,3.78,9.01,2.06,13.43c-1.72,4.42-5.92,7.78-10.61,8.5c-4.62,0.7-10.15-1.95-10.65-6.59"/>
				<path class="st4" d="M812.31,667.97c6.81,3.45,13.62,6.91,20.43,10.36"/>
			</g>
			<path class="st4" d="M826.14,762.69c1.11,1.24,0.45,3.18-0.26,4.69c-4.53,9.6-9.07,19.21-13.6,28.81"/>
		</g>
		<path class="st4" d="M1149.96,414.83c-0.6-2.16,0.67-4.55,2.59-5.7c1.92-1.15,4.33-1.24,6.52-0.76c1.82,0.4,3.66,1.25,4.69,2.81
			c1.14,1.73,1.08,4.04,0.38,5.99c-0.7,1.95-1.97,3.64-3.17,5.33c-5.49,7.74-9.94,16.2-13.21,25.1c10.48-0.98,20.95-1.96,31.43-2.94
			"/>
		<g>
			<path class="st16" d="M774,494.79c1.8-0.68,3.37,1.37,4.22,3.1c18.76,38.42,37.53,76.84,56.29,115.26"/>
			<path class="st16" d="M833.44,613.07c20.5-6.79,39.8-16.72,58.98-26.64c52.71-27.26,105.31-54.73,157.8-82.41"/>
			<path class="st16" d="M775.11,495.47c38.41-8.13,78.29,1.02,117.49-1.06c8.12-0.43,16.24-1.34,24.37-1.02
				c7.82,0.31,15.54,1.75,23.31,2.64c9.33,1.07,18.74,1.34,28.13,1.6c29.1,0.82,58.2,1.65,87.3,2.47"/>
			<path class="st16" d="M785.87,513.05c8.09-2.33,13.73-11.17,12.45-19.49"/>
			<path class="st16" d="M1017.73,521.59c-4.4-5.59-6.23-13.12-4.91-20.11c0.09-0.48,0.24-1.03,0.68-1.25
				c0.44-0.22,1.11,0.27,0.84,0.68"/>
			<path class="st16" d="M835.28,629.64c0.43-0.77,1.55,0.12,1.91,0.93c4.07,9.33,8.14,18.66,12.2,28"/>
			<path class="st16" d="M835.7,629.68c11.64,3.94,22.82,9.22,33.25,15.71"/>
			<path class="st16" d="M854.93,617.19c4.25,10.18,9.52,19.94,15.71,29.08"/>
			<path class="st16" d="M740.02,460.9c5.86,7.22,10.92,15.09,15.06,23.42"/>
			<path class="st16" d="M738.61,462.37c7.07,1.76,14,4.08,20.7,6.93"/>
			<path class="st16" d="M758.09,468.49c1.01-7.15,1.15-14.43,0.41-21.62"/>
			<path class="st16" d="M758.69,449.69c6.79,7.23,12.76,15.23,17.76,23.8"/>
			<path class="st16" d="M1066.5,504.42c-2.5,5.64-3.02,12.55,0.28,17.76c3.3,5.21,11.14,7.55,15.98,3.73
				c2.05-1.61,3.33-4.06,3.84-6.62c1.09-5.53-1.58-11.6-6.4-14.52c-4.82-2.92-11.44-2.49-15.84,1.04"/>
			<path class="st16" d="M804.3,510.18c2.89,4.85,5.45,9.88,7.68,15.06c0.61,1.41,1.2,2.96,0.8,4.44c-0.43,1.61-2.09,2.76-3.76,2.71
				c-1.66-0.05-3.21-1.23-3.8-2.79c-0.86-2.28,0.31-4.96,2.23-6.45c1.92-1.5,4.43-2.02,6.87-2.19c3.34-0.24,6.71,0.11,9.93,1"/>
			<path class="st16" d="M959.2,510.14c2.72,2.47,5.47,4.97,7.46,8.06c1.98,3.09,3.14,6.89,2.34,10.47c-0.8,3.56-3.6,6.61-7.08,7.7"
				/>
			<path class="st16" d="M960.7,514.49c0.76-2.25,1.98-4.48,4.01-5.72c2.03-1.24,5-1.14,6.49,0.71c1.49,1.85,0.4,5.3-1.97,5.45
				c2.13-1.47,4.41-3,7-3.14c2.59-0.14,5.46,1.74,5.38,4.33c-0.06,1.99-1.73,3.52-3.36,4.65c-3.15,2.19-6.65,3.87-10.33,4.94"/>
			<path class="st16" d="M905.11,463.79c-1.97-1.14-4.47,0.37-5.83,2.2c-1.18,1.6-1.98,3.59-1.68,5.55
				c0.29,1.96,1.91,3.79,3.89,3.87c2.43,0.1,4.33-2.39,4.5-4.81c0.17-2.43-0.9-4.75-1.94-6.95c1.41,3.9,4.39,7.57,8.47,8.37
				c4.07,0.8,8.85-2.51,8.41-6.64"/>
			<path class="st16" d="M957.42,584.12c-4.35,0.35-7.63,5.64-5.66,9.54c1.97,3.89,8.66,4.08,10.55,0.15"/>
			<path class="st16" d="M782.11,577.9c3.27-5.93,3.03-13.63-0.61-19.35c-1.28-2.01-3.98-3.89-5.81-2.37
				c-1.29,1.06-1.1,3.07-0.68,4.68c1.62,6.11,5.11,11.72,9.89,15.86c2.68,2.33,7.09,4.08,9.48,1.44c2.12-2.34,0.3-6.56-2.73-7.45
				c-3.03-0.89-6.32,0.79-8.36,3.2"/>
			<path class="st16" d="M827.38,599.38c4.87-1.96,9.65-4.13,14.33-6.5c2.81,5.23,5.63,10.47,8.44,15.7"/>
		</g>
		<g>
			<path class="st4" d="M16.75,487.59c0.65,78.99,3.83,157.93,7.01,236.85c1.01,25.03,2.02,50.07,3.03,75.1"/>
			<path class="st4" d="M7.76,509.62c2.89-6.7,5.77-13.39,8.66-20.08"/>
			<path class="st4" d="M16.26,490.03c3.42,5.88,6.41,12,8.95,18.3"/>
		</g>
		<g>
			<path class="st4" d="M583.07,427.29c78.99-0.65,157.93-3.83,236.85-7.01c25.03-1.01,50.07-2.02,75.1-3.03"/>
			<path class="st4" d="M605.11,436.28c-6.69-2.89-13.39-5.77-20.08-8.66"/>
			<path class="st4" d="M585.51,427.78c5.88-3.42,12-6.41,18.3-8.95"/>
		</g>
		<g>
			<g>
				<path class="st4" d="M593.11,741.39c0.65,78.99,3.83,157.93,7.01,236.85c1.01,25.03,2.02,50.07,3.03,75.1"/>
				<path class="st4" d="M584.12,763.43c2.89-6.7,5.77-13.39,8.66-20.08"/>
				<path class="st4" d="M592.62,743.84c3.42,5.88,6.41,12,8.95,18.3"/>
			</g>
			<g>
				<path class="st4" d="M749.61,896.85c-78.99,0.65-157.93,3.83-236.85,7.01c-25.03,1.01-50.07,2.02-75.1,3.03"/>
				<path class="st4" d="M727.58,887.86c6.7,2.89,13.39,5.77,20.08,8.66"/>
				<path class="st4" d="M747.17,896.36c-5.88,3.42-12,6.41-18.3,8.95"/>
			</g>
			<path class="st4" d="M594.28,855.73c11.68,1.17,23.16,5.78,31.71,13.82c8.55,8.04,13.96,19.62,13.6,31.35
				c-0.45,14.93-10,28.49-22.29,36.97c-3.6,2.48-7.48,4.63-11.68,5.83c-7.23,2.06-15.05,1.19-22.18-1.18
				c-15.85-5.27-29.23-18.77-32.32-35.18c-3.09-16.41,5.52-34.89,20.92-41.33"/>
			<path class="st4" d="M699.17,863.04c0.54,8.69,7,16.7,15.39,19.05"/>
			<path class="st4" d="M711.53,862.63c0.33,0.81,0.49,1.7,0.44,2.57c-0.09,1.74-0.92,3.35-1.84,4.83
				c-4.31,6.91-10.99,12.31-18.65,15.07"/>
			<path class="st4" d="M615.44,749.35c-0.31,3.46,0.1,6.98,1.19,10.28c0.61,1.86,1.98,3.97,3.92,3.69c0.71-0.1,1.34-0.53,1.86-1.03
				c4.02-3.76,3.11-10.3,1.48-15.55"/>
			<path class="st4" d="M622.49,747.44c2.53,7.74,5.07,15.48,7.6,23.22c1.69,5.15,3.24,11.26,0.01,15.62
				c-1.49,2.01-3.79,3.26-6.13,4.14c-1.47,0.55-3.15,0.97-4.55,0.27c-1.65-0.81-2.28-2.87-2.23-4.7c0.1-3.15,1.71-6.03,3.28-8.77
				c4.25-7.4,8.5-14.81,12.75-22.21"/>
		</g>
		<g>
			<path class="st4" d="M1401.57,51.66c47.18,17.67,67.36,48.94,71.14,74.23c3.78,25.29-2.61,52.37-19.04,71.96
				c-20.9,24.92-55.53,35.21-87.99,33.15c-9.5-0.6-19.03-2.17-27.83-5.8c-15.14-6.23-27.34-18.27-36.33-31.95
				c-19.98-30.4-24.66-71.53-7.8-103.76c16.86-32.23,67.66-56.56,102.7-46.79"/>
			<path class="st4" d="M1373.2,138.78c-0.07,0.71,0.52,1.42,1.23,1.49c0.69,0.06,1.47-0.38,2.02,0.04
				c0.55,0.42-0.89,0.99-0.47,0.44"/>
			<path class="st4" d="M1386.29,148.78c4.26,2.16,8.09,5.19,11.17,8.84"/>
			<path class="st4" d="M1406.18,162.05c3.63,2.55,7.26,5.09,10.88,7.64"/>
			<path class="st4" d="M1427.18,176.61c4.92,2.13,9.47,5.12,13.38,8.79"/>
			<path class="st4" d="M1446.08,192.59c5.34,3.68,10.69,7.36,16.03,11.03"/>
		</g>
		<g>
			<path class="st4" d="M211.65,499.78c29.34,40.96,28.68,78.17,17.73,101.27c-10.95,23.11-31.34,42.04-55.9,49.15
				c-31.24,9.05-65.74-1.69-91.54-21.49c-7.55-5.79-14.59-12.4-19.89-20.32c-9.1-13.61-12.53-30.4-12.37-46.77
				c0.34-36.38,19.36-73.14,51.32-90.52c31.96-17.38,87.7-9.28,111.35,18.35"/>
			<path class="st4" d="M139.56,556.33c-0.46,0.55-0.36,1.47,0.19,1.92c0.54,0.44,1.43,0.51,1.66,1.16
				c0.23,0.65-1.29,0.33-0.63,0.11"/>
			<path class="st4" d="M144.86,571.92c2.33,4.17,3.83,8.81,4.35,13.57"/>
			<path class="st4" d="M153.99,594.02c1.59,4.14,3.19,8.27,4.78,12.41"/>
			<path class="st4" d="M163.31,617.81c2.9,4.51,5.01,9.52,6.21,14.75"/>
			<path class="st4" d="M170.11,641.61c2.39,6.03,4.78,12.06,7.17,18.09"/>
		</g>
		<path class="st4" d="M885.42,382.31c5.36-9.74,10.53-20.52,8.87-31.51c-0.56-3.69-2.08-7.5-5.23-9.49
			c-3.15-1.99-8.13-1.22-9.56,2.22c-1.76,4.23,2.83,8.66,7.35,9.4c2.52,0.41,5.74-0.31,6.36-2.79"/>
		<g>
			<path class="st4" d="M1115.02,78.7c0.94-0.57,1.75,0.93,1.82,2.03c0.86,13.25-2.97,26.75-10.65,37.58"/>
			<path class="st4" d="M1102.38,87.9c7.82,8.63,18.7,14.43,30.22,16.09"/>
			<path class="st4" d="M1145.8,81.85c7.84-2.34,15.58-5.03,23.18-8.06"/>
			<path class="st4" d="M1149.2,68.23c4.12,7.93,8.24,15.86,12.35,23.79"/>
			<path class="st4" d="M1177.78,55.15c2.04,3.02,4.32,6.23,7.77,7.4c3.88,1.32,8.61-0.69,10.34-4.41
				c1.74-3.72,0.25-8.63-3.25-10.76"/>
			<path class="st4" d="M1193.59,46.89c9.54,13.82,18.22,28.23,25.97,43.12c1.39,2.67,2.77,5.44,2.97,8.44
				c0.19,3-1.11,6.3-3.84,7.56c-3.45,1.6-7.69-0.78-9.47-4.14c-1.78-3.36-1.74-7.35-1.62-11.15c0.49-16.36,1.59-32.71,3.28-48.99"/>
		</g>
		<g>
			<path class="st4" d="M353.77,21.56c1.07-0.25,1.37,1.43,1.09,2.5c-3.35,12.84-11.23,24.46-21.92,32.33"/>
			<path class="st4" d="M338.87,26.33c4.71,10.65,13.22,19.57,23.64,24.77"/>
			<path class="st4" d="M382,34.23c8.18,0.25,16.37,0.12,24.54-0.37"/>
			<path class="st4" d="M389.51,22.36c1.42,8.82,2.84,17.64,4.26,26.46"/>
			<path class="st4" d="M420.74,18.92c0.99,3.51,2.14,7.27,5.05,9.47c3.27,2.48,8.39,2.05,11.21-0.93
				c2.82-2.98,2.95-8.11,0.29-11.24"/>
			<path class="st4" d="M438.35,16.05c4.71,16.12,8.42,32.52,11.11,49.1c0.48,2.97,0.92,6.04,0.16,8.95
				c-0.76,2.91-3.03,5.63-6.02,5.98c-3.78,0.43-7.06-3.16-7.69-6.9c-0.63-3.75,0.66-7.53,1.96-11.1
				c5.61-15.38,11.78-30.55,18.51-45.48"/>
		</g>
		<g>
			<path class="st4" d="M658.14,1032.28c-1.99,11.61,0.54,23.93,6.93,33.81c1.87,2.89,4.22,5.7,7.46,6.87
				c3.24,1.17,7.49,0.08,8.84-3.09c0.65-1.52,0.55-3.26,0.19-4.87c-0.96-4.33-4.19-8.46-8.57-9.08c-4.39-0.62-9.14,3.67-7.9,7.92"/>
			<path class="st4" d="M688.13,1037.78c7.56,5.62,15.99,10.08,24.89,13.17c1.85,0.64,4.08,1.17,5.62-0.05"/>
			<path class="st4" d="M701.71,1028.52c1.7,0.04,2.49,2.11,2.78,3.79c2.01,11.73,1.21,23.94-2.32,35.31"/>
			<path class="st4" d="M727.01,1028.98c8.08-3.8,16.16-7.59,24.24-11.39"/>
			<path class="st4" d="M767.53,989.79c-2.45-3.93-0.52-9.73,3.61-11.83c4.13-2.1,9.6-0.57,12.46,3.08
				c2.86,3.65,3.15,8.95,1.21,13.16"/>
			<path class="st4" d="M785.49,992.61c4.03-5,12.45-6.06,17.06-1.58c4.58,4.44,3.96,12.57-0.33,17.29
				c-4.29,4.72-11.23,6.32-17.55,5.53"/>
			<path class="st4" d="M811.91,976.72c2.56,3.11,6.03,5.46,9.86,6.67c1.01,0.32,2.3,0.48,2.94-0.36c0.33-0.43,0.38-1.01,0.42-1.56
				c0.34-5.3-0.2-11.99-5.16-13.89c12.47,7.52,23.85,16.84,33.69,27.58c0.96,1.05,1.95,2.2,2.17,3.61c0.42,2.76-2.37,5.04-5.1,5.61
				c-7.77,1.6-14.87-5.91-16.41-13.69c-1.54-7.78,0.68-15.73,1.72-23.59"/>
			<path class="st4" d="M852.94,952.45c5.65-4.61,11.47-9,17.44-13.18"/>
			<path class="st4" d="M854.36,938.01c0.59-1.25,2.47-0.26,3.35,0.81c4.37,5.32,8.74,10.65,13.11,15.97"/>
			<path class="st4" d="M887.68,912.34c5.61-2.53,10.78-6.05,15.18-10.35c1.97,14.72,8.06,28.86,17.4,40.4"/>
			<path class="st4" d="M894.49,929.45c6.9-3.1,13.21-7.53,18.47-12.97"/>
		</g>
		<g>
			<path class="st4" d="M1525.32,683.29c-1.99,11.61,0.54,23.93,6.93,33.81c1.87,2.89,4.22,5.7,7.46,6.87
				c3.24,1.17,7.49,0.08,8.84-3.09c0.65-1.52,0.55-3.26,0.19-4.87c-0.96-4.33-4.19-8.46-8.57-9.08c-4.39-0.62-9.14,3.67-7.9,7.92"/>
			<path class="st4" d="M1555.31,688.8c7.56,5.62,15.99,10.08,24.89,13.17c1.85,0.64,4.08,1.17,5.62-0.05"/>
			<path class="st4" d="M1568.89,679.53c1.7,0.04,2.49,2.11,2.78,3.79c2.01,11.73,1.21,23.94-2.32,35.31"/>
			<path class="st4" d="M1594.19,679.99c8.08-3.8,16.16-7.59,24.24-11.39"/>
			<path class="st4" d="M1634.71,640.8c-2.45-3.93-0.52-9.73,3.61-11.83c4.13-2.1,9.6-0.57,12.46,3.08
				c2.86,3.65,3.15,8.95,1.21,13.16"/>
			<path class="st4" d="M1652.67,643.62c4.03-5,12.45-6.06,17.06-1.58c4.58,4.44,3.96,12.57-0.33,17.29
				c-4.29,4.72-11.23,6.32-17.55,5.53"/>
			<path class="st4" d="M1679.09,627.73c2.56,3.11,6.03,5.46,9.86,6.67c1.01,0.32,2.3,0.48,2.94-0.36c0.33-0.43,0.38-1.01,0.42-1.56
				c0.34-5.3-0.2-11.99-5.16-13.89c12.47,7.52,23.85,16.84,33.69,27.58c0.96,1.05,1.95,2.2,2.17,3.61c0.42,2.76-2.37,5.04-5.1,5.61
				c-7.77,1.6-14.87-5.91-16.41-13.69c-1.54-7.78,0.68-15.73,1.72-23.59"/>
			<path class="st4" d="M1720.12,603.47c5.65-4.61,11.47-9,17.44-13.18"/>
			<path class="st4" d="M1721.54,589.02c0.59-1.25,2.47-0.26,3.35,0.81c4.37,5.32,8.74,10.65,13.11,15.97"/>
			<path class="st4" d="M1754.86,563.35c5.61-2.53,10.78-6.05,15.18-10.35c1.97,14.72,8.06,28.86,17.4,40.4"/>
			<path class="st4" d="M1761.68,580.46c6.91-3.1,13.21-7.53,18.47-12.97"/>
		</g>
		<g>
			<path class="st4" d="M1141.13,574.83c2.98-2.7,6.08-5.46,9.9-6.74c3.81-1.27,8.57-0.65,11.02,2.54c2.45,3.19,0.97,8.93-3,9.57"/>
			<path class="st4" d="M1159.41,580.66c2.83-2.83,5.75-5.73,9.4-7.39c3.65-1.66,8.24-1.84,11.43,0.59
				c4.43,3.39,4.26,10.59,0.91,15.04c-3.36,4.45-8.91,6.65-14.34,7.94"/>
			<path class="st4" d="M1163.98,617.59c7.8-0.55,14.3-5.91,20.22-11.01c8.43-7.27,16.86-14.54,25.28-21.82"/>
			<path class="st4" d="M1196.34,617.14c0.3,7.17,0.59,14.34,0.89,21.51c0.04,0.96,0.1,1.99,0.69,2.76
				c1.01,1.31,3.02,1.21,4.61,0.74c4.23-1.23,7.97-4.09,10.25-7.87"/>
			<path class="st4" d="M1196.56,617.78c10.62,11.84,21.25,23.68,31.87,35.53c0.44,0.49,1.1,1.03,1.69,0.73
				c0.59-0.3-0.31-1.42-0.5-0.79"/>
			<path class="st4" d="M1211.65,562.83c10.36,6.86,23.3,9.74,35.59,7.92"/>
			<path class="st4" d="M1225.13,550.89c6.4,13.29,6.59,29.42,0.5,42.86"/>
			<path class="st4" d="M1256.27,549.46c3.31-2.92,7-5.41,10.95-7.4"/>
			<path class="st4" d="M1280.17,529.89c1.24-11.1-0.13-22.49-3.97-32.98"/>
			<path class="st4" d="M1278.16,498.7c3.71,2.81,6.85,6.3,9.96,9.76c11.72,13.06,23.44,26.12,35.16,39.17"/>
		</g>
		<g>
			<path class="st4" d="M258.08,622.42c2.98-2.7,6.08-5.46,9.9-6.74c3.81-1.27,8.57-0.65,11.02,2.54c2.45,3.19,0.97,8.93-3,9.57"/>
			<path class="st4" d="M276.36,628.25c2.83-2.83,5.75-5.73,9.4-7.39c3.65-1.66,8.24-1.84,11.43,0.59
				c4.43,3.39,4.26,10.59,0.91,15.04c-3.36,4.45-8.91,6.65-14.34,7.94"/>
			<path class="st4" d="M280.94,665.18c7.8-0.55,14.3-5.91,20.22-11.01c8.43-7.27,16.86-14.54,25.28-21.82"/>
			<path class="st4" d="M313.29,664.73c0.3,7.17,0.59,14.34,0.89,21.51c0.04,0.96,0.1,1.99,0.69,2.76c1.01,1.31,3.02,1.21,4.61,0.74
				c4.23-1.23,7.97-4.09,10.25-7.87"/>
			<path class="st4" d="M313.52,665.37c10.62,11.84,21.25,23.68,31.87,35.53c0.44,0.49,1.1,1.03,1.69,0.73
				c0.59-0.3-0.31-1.42-0.5-0.79"/>
			<path class="st4" d="M328.6,610.42c10.36,6.86,23.3,9.74,35.59,7.92"/>
			<path class="st4" d="M342.09,598.48c6.4,13.29,6.59,29.42,0.5,42.86"/>
			<path class="st4" d="M373.22,597.05c3.31-2.92,7-5.41,10.95-7.4"/>
			<path class="st4" d="M397.12,577.48c1.24-11.1-0.13-22.49-3.97-32.98"/>
			<path class="st4" d="M395.12,546.29c3.71,2.81,6.85,6.3,9.96,9.76c11.72,13.06,23.44,26.12,35.16,39.17"/>
		</g>
		<g>
			<path class="st4" d="M707.34,65.42c-0.55-3.46,2.03-7.11,5.47-7.76c3.44-0.64,7.17,1.83,7.9,5.26c0.74,3.42-1.64,7.21-5.04,8.04"
				/>
			<path class="st4" d="M714.94,70.29c3.78-0.96,7.73-1.87,11.52-0.97c3.79,0.9,7.31,4.19,7.1,8.08c-0.16,3.03-2.53,5.6-5.28,6.88
				c-2.75,1.29-5.86,1.54-8.89,1.77"/>
			<path class="st4" d="M712.33,99.87c13.51-2.64,27.03-5.27,40.54-7.91"/>
			<path class="st4" d="M730.7,114.06c3.1,3.33,5.1,7.67,5.61,12.2"/>
			<path class="st4" d="M735.96,128.03c0.43-1.47,2.06-2.19,3.52-2.63c4.61-1.36,9.77-1.63,14.08,0.49
				c4.32,2.12,7.44,7.06,6.38,11.76c-0.85,3.78-4.24,6.67-8,7.59c-3.76,0.91-7.79,0.07-11.26-1.66"/>
			<path class="st4" d="M728.1,115.38c7.96-1.92,15.93-3.84,23.89-5.76"/>
			<path class="st4" d="M773.06,83.83c5.67-2.43,11.35-4.85,17.02-7.28"/>
			<path class="st4" d="M805.16,28.55c-1.81,8-3.62,16-5.44,24c-0.16,0.72-0.32,1.49-0.07,2.18c0.7,1.92,3.5,1.54,5.41,0.81
				c9.27-3.59,18.54-7.18,27.81-10.77"/>
			<path class="st4" d="M802.17,29.06c1.62,0.23,2.81,1.58,3.85,2.85c7.22,8.85,14.45,17.69,21.67,26.54"/>
			<path class="st4" d="M815.42,79.53c12.47-2.73,24.66-6.72,36.32-11.89"/>
			<path class="st4" d="M833,91.71c7.24-2.06,14.2-5.08,20.65-8.97"/>
			<path class="st4" d="M851.78,83.98c-0.29,16.73,2.3,33.51,7.62,49.38"/>
			<path class="st4" d="M845.23,108.89c5.64-1.44,10.99-4.01,15.63-7.53"/>
		</g>
		<g>
			<path class="st4" d="M198.93,128.04c29.99-15.64,61.25-28.81,93.39-39.34"/>
			<path class="st4" d="M292.31,91.79c-8.26-29.13-19.01-57.56-32.09-84.87"/>
			<path class="st4" d="M199.44,131.48c10.12-44.25,48.85-77.05,62.02-120.49"/>
			<path class="st4" d="M269.9,97.95c-3.01-6.32-5.72-12.78-8.12-19.35c-0.24-0.66-0.48-1.38-0.23-2.04
				c0.25-0.68,0.94-1.07,1.58-1.41c6.02-3.2,12.03-6.4,18.05-9.59"/>
		</g>
		<g>
			<path class="st4" d="M337.59,794.64c22.02,25.67,41.93,53.14,59.46,82.06"/>
			<path class="st4" d="M394.03,877.39c26.5-14.64,51.76-31.55,75.4-50.47"/>
			<path class="st4" d="M334.35,795.92c45.39-0.16,86.11,30.14,131.4,33.13"/>
			<path class="st4" d="M382.96,856.96c5.47-4.36,11.15-8.46,17.01-12.29c0.59-0.38,1.24-0.78,1.93-0.69
				c0.72,0.09,1.26,0.67,1.73,1.22c4.48,5.14,8.95,10.27,13.43,15.41"/>
		</g>
		<g>
			<path class="st4" d="M1284.26,650.32c6.2,0.1,12.41-0.29,18.56-1.16"/>
			<path class="st4" d="M1318.65,647.91c5.3,0.44,10.64,0.29,15.91-0.42"/>
			<path class="st4" d="M1348.61,646.18c4.46,0.57,9.06,0.02,13.25-1.6"/>
			<path class="st4" d="M1376.81,644.52c5,0.05,10.01-0.31,14.96-1.09"/>
			<path class="st4" d="M1409.41,643.58c6.89-0.14,13.77-1.18,20.39-3.1"/>
		</g>
		<g>
			<path class="st4" d="M499.04,21.08c6.2,0.1,12.41-0.29,18.56-1.16"/>
			<path class="st4" d="M533.43,18.68c5.3,0.44,10.64,0.29,15.91-0.42"/>
			<path class="st4" d="M563.39,16.95c4.46,0.57,9.06,0.02,13.25-1.6"/>
			<path class="st4" d="M591.58,15.28c5,0.05,10.01-0.31,14.96-1.09"/>
			<path class="st4" d="M624.19,14.35c6.89-0.14,13.77-1.18,20.39-3.1"/>
		</g>
		<g>
			<path class="st4" d="M2,438.81c6.2,0.1,12.41-0.29,18.56-1.16"/>
			<path class="st4" d="M36.38,436.4c5.3,0.44,10.64,0.29,15.91-0.42"/>
			<path class="st4" d="M66.34,434.68c4.46,0.57,9.06,0.02,13.25-1.6"/>
			<path class="st4" d="M94.54,433.01c5,0.05,10.01-0.31,14.96-1.09"/>
			<path class="st4" d="M127.15,432.08c6.89-0.14,13.77-1.18,20.39-3.1"/>
		</g>
		<g>
			<path class="st4" d="M1715.21,150.63c6.2,0.1,12.41-0.29,18.56-1.16"/>
			<path class="st4" d="M1749.6,148.23c5.3,0.44,10.64,0.29,15.91-0.42"/>
			<path class="st4" d="M1779.56,146.5c4.46,0.57,9.06,0.02,13.25-1.6"/>
			<path class="st4" d="M1807.75,144.83c5,0.05,10.01-0.31,14.96-1.09"/>
			<path class="st4" d="M1840.36,143.9c6.89-0.14,13.77-1.18,20.39-3.1"/>
		</g>
		<g>
			<path class="st4" d="M660.31,946.43c6.2,0.1,12.41-0.29,18.56-1.16"/>
			<path class="st4" d="M694.7,944.02c5.3,0.44,10.64,0.29,15.91-0.42"/>
			<path class="st4" d="M724.66,942.29c4.46,0.57,9.06,0.02,13.25-1.6"/>
			<path class="st4" d="M752.86,940.63c5,0.05,10.01-0.31,14.96-1.09"/>
			<path class="st4" d="M785.46,939.7c6.89-0.14,13.77-1.18,20.39-3.1"/>
		</g>
		<g>
			<path class="st4" d="M567.78,177.07c6.2,0.1,12.41-0.29,18.56-1.16"/>
			<path class="st4" d="M602.17,174.66c5.3,0.44,10.64,0.29,15.91-0.42"/>
			<path class="st4" d="M632.13,172.93c4.46,0.57,9.06,0.02,13.25-1.6"/>
			<path class="st4" d="M660.32,171.27c5,0.05,10.01-0.31,14.96-1.09"/>
			<path class="st4" d="M692.93,170.34c6.89-0.14,13.77-1.18,20.39-3.1"/>
		</g>
		<g>
			<path class="st4" d="M963.37,850.86c14.16,2.18,25.9,13.24,31.59,26.39c5.69,13.14,6.02,28.07,3.9,42.23"/>
			<path class="st4" d="M987.43,903.31c5.58,3.32,9.75,8.93,11.32,15.24"/>
			<path class="st4" d="M1010.97,900.08c-0.45,9.67-6.48,18.89-15.16,23.18"/>
		</g>
		<g>
			<path class="st17" d="M1255.08,401.18c2.6,25.43-11.21,50.69-31.34,66.44s-45.76,23.04-71.18,25.74"/>
			<path class="st17" d="M1175.34,466.35c-3.22,11.14-11.04,20.87-21.22,26.4"/>
			<path class="st17" d="M1191.51,505.54c-16.91,3.58-35.54-2.68-46.86-15.74"/>
		</g>
		<g>
			<path class="st4" d="M987.59,59.4c4.19-13.7,16.82-23.74,30.64-27.49c13.82-3.75,28.64-1.94,42.35,2.2"/>
			<path class="st4" d="M1042.94,43.1c4.08-5.05,10.24-8.37,16.7-9.01"/>
			<path class="st4" d="M1043.12,19.35c9.51,1.83,17.77,9.12,20.77,18.33"/>
		</g>
		<g>
			<path class="st4" d="M478.58,324.49c-9.13-11.03-10.57-27.1-6.09-40.71c4.47-13.61,14.14-24.98,25.14-34.16"/>
			<path class="st4" d="M495.43,269.3c-1.97-6.19-1.36-13.16,1.66-18.91"/>
			<path class="st4" d="M475.69,256.09c6.76-6.93,17.39-9.82,26.73-7.26"/>
		</g>
		<g>
			<path class="st4" d="M1497.81,262.61c6.26,12.88,3.84,28.84-3.73,40.99c-7.57,12.16-19.66,20.92-32.51,27.23"/>
			<path class="st4" d="M1468.36,312.23c0.45,6.48-1.8,13.1-6.09,17.97"/>
			<path class="st4" d="M1484.4,329.75c-8.21,5.13-19.22,5.42-27.69,0.72"/>
		</g>
		<g>
			<path class="st4" d="M1891.74,638.04c6.26,12.88,3.84,28.84-3.73,40.99c-7.57,12.16-19.66,20.92-32.51,27.23"/>
			<path class="st4" d="M1862.29,687.66c0.45,6.48-1.8,13.1-6.09,17.97"/>
			<path class="st4" d="M1878.33,705.18c-8.21,5.13-19.22,5.42-27.69,0.72"/>
		</g>
		<g>
			<g>
				<path class="st4" d="M1132.9,837.28c0,0-2.76-0.99-7.83-1.56c-5.06-0.51-12.31-1.27-21.04-1.18c-8.65,0.13-19.13,1.25-28.75,6.6
					c-2.31,1.38-4.85,2.76-6.42,5.14c-1.63,2.37-1.27,5.66,0.29,8.03c1.52,2.47,4.13,4.04,6.79,5.1c2.7,1.05,5.53,1.76,8.35,2.45
					c11.34,2.67,23.11,3.04,33.96,2.12c5.43-0.46,10.66-1.21,15.57-2.12c2.45-0.47,4.84-0.95,7.13-1.47c2.29-0.5,4.52-1.04,6.5-1.97
					c4-1.67,6.55-6.08,5.14-9.52c-0.68-1.66-2-2.79-3.21-3.7c-1.24-0.9-2.44-1.65-3.54-2.28c-2.21-1.27-4.05-2.06-5.32-2.56
					c-1.27-0.5-1.96-0.72-1.96-0.72"/>
			</g>
			<g>
				<path class="st4" d="M1066.28,845.86c0,0,2.41-6.23,6.03-15.57c3.62-9.34,8.42-21.81,13.51-34.16
					c5.08-12.36,10.57-24.54,15.06-33.51c4.45-8.98,7.77-14.78,7.77-14.78"/>
			</g>
			<g>
				<path class="st4" d="M1112.5,748.51c0,0,3.99,5.69,8.3,15.13c4.39,9.39,10.24,21.91,16.1,34.43
					c5.91,12.48,11.81,25.04,14.05,35.22c1.48,4.97,2.38,9.2,3.16,12.12c0.74,2.93,1.16,4.61,1.16,4.61"/>
			</g>
			<g>
				<path class="st4" d="M1109.23,722.66c0,0-0.15,1.82,0.14,3.61c0.26,1.8,0.94,3.48,0.94,3.48"/>
			</g>
			<g>
				<path class="st4" d="M1109.75,736.52c0,0,0.43,3.01,0.39,6.04c-0.01,3.03-0.49,6.03-0.49,6.03"/>
			</g>
			<g>
				<path class="st4" d="M1109.51,762.18c0,0,0.42,2.46,0.4,4.95c0.02,2.49-0.39,4.95-0.39,4.95"/>
			</g>
			<g>
				<path class="st4" d="M1110.31,780.07c0,0,0.26,2.65,0.28,5.32c0.04,2.67-0.15,5.32-0.15,5.32"/>
			</g>
			<g>
				<line class="st4" x1="1110.19" y1="798.68" x2="1110.31" y2="808.58"/>
			</g>
			<g>
				<line class="st4" x1="1110.67" y1="817.6" x2="1110.98" y2="825.78"/>
			</g>
			<g>
				<path class="st4" d="M1111.73,844.75c0,0,0.38,1.58,0.39,3.2c0.04,1.62-0.3,3.21-0.3,3.21"/>
			</g>
			<g>
				<line class="st4" x1="1112.7" y1="859.28" x2="1112.98" y2="875.92"/>
			</g>
			<g>
				<line class="st4" x1="1113.92" y1="885.98" x2="1113.6" y2="896.56"/>
			</g>
			<g>
				<line class="st4" x1="1113.97" y1="906.06" x2="1114.43" y2="916.33"/>
			</g>
			<g>
				<path class="st4" d="M1107.76,701.2c0,0,1.42,2.9,1.81,6.09c0.48,3.18-0.12,6.35-0.12,6.35"/>
			</g>
		</g>
		<g>
			<g>
				<path class="st4" d="M1873.82,841.72c0,0-0.53-1.83-1.78-5.18c-1.27-3.33-3.33-8.18-6.8-13.89
					c-3.42-5.71-8.33-12.26-15.16-18.57c-6.83-6.28-15.68-12.2-26.32-16.43c-10.62-4.13-23.06-6.74-36.16-5.7
					c-13.2,0.89-25.98,7.61-37.13,16.41c-11.21,8.83-21.01,20.34-27.75,33.76c-6.78,13.37-10.18,28.83-8.81,44.04
					c0.64,7.6,2.25,15.08,4.15,22.42c1.96,7.31,3.81,14.72,7.29,21.4c3.43,6.69,8.96,12.14,15.39,15.68
					c6.42,3.62,13.52,5.62,20.54,6.87c7.05,1.21,14.08,1.66,20.95,1.83c6.86,0.19,13.66-0.27,19.96-2.16
					c6.31-1.79,12.13-4.48,17.6-7.28c5.47-2.84,10.7-5.69,15.53-8.75c9.71-6.02,17.6-13.27,22.63-21.11
					c5.05-7.8,8.52-15.15,11.57-21.08c2.94-5.99,4.79-10.91,5.79-14.34c0.99-3.44,1.29-5.32,1.29-5.32"/>
			</g>
			<g>
				<line class="st4" x1="1876.51" y1="856.69" x2="1808.62" y2="863.83"/>
			</g>
			<g>
				<path class="st4" d="M1810.4,861.45c0,0-3.24,0.88-6.56,1.38c-3.31,0.54-6.67,0.69-6.67,0.69"/>
			</g>
			<g>
				<line class="st4" x1="1795.45" y1="863.72" x2="1794.65" y2="941.51"/>
			</g>
			<g>
				<line class="st4" x1="1873.49" y1="869.23" x2="1851.46" y2="861.28"/>
			</g>
			<g>
				<path class="st4" d="M1870.29,881.91c0,0-8.91-6.42-18.55-11.68c-9.58-5.35-19.76-9.47-19.76-9.47"/>
			</g>
			<g>
				<path class="st4" d="M1860.79,892.59c0,0-15.42-6.33-30.85-12.65c-7.71-3.16-15.42-6.33-21.21-8.7
					c-2.9-1.17-5.27-2.26-6.84-3.18c-1.58-0.92-2.39-1.58-2.39-1.58"/>
			</g>
			<g>
				<path class="st4" d="M1855.96,903.55c0,0-3.62-1.26-9.06-3.14c-5.42-1.94-12.59-4.65-19.66-7.63
					c-14.18-5.87-27.81-12.94-27.81-12.94"/>
			</g>
			<g>
				<path class="st4" d="M1849.06,912.82c0,0-12.83-4.4-25.65-8.79c-6.41-2.2-12.83-4.4-17.64-6.04c-4.8-1.66-8.04-2.7-7.97-2.87"/>
			</g>
			<g>
				<path class="st4" d="M1836.47,922.49c0,0-9.24-5.44-19.07-9.72c-9.73-4.44-20.16-7.36-19.68-8.28"/>
			</g>
			<g>
				<path class="st4" d="M1823.52,930.38c0,0-7.19-3.67-13.98-8.03c-6.83-4.3-13.2-9.26-13.2-9.26"/>
			</g>
			<g>
				<polyline class="st4" points="1811.41,936.71 1794.11,926.26 1794.11,926.26 1795.05,926.27 				"/>
			</g>
		</g>
		<path class="st18" d="M848.38,199.61c-8.74-17.72-9.93-39.01-3.21-57.59c8.59,1.72,9.98,13.09,11,21.79
			c2.17,18.32,11.72,35.67,26.05,47.3c8.09-2.05,12.35-11.44,11.97-19.78c-0.38-8.34-4.12-16.09-6.73-24.02
			c-6.17-18.76-5.98-39.55,0.51-58.2c1.38-3.95,3.55-8.28,7.61-9.29c6.91-1.73,11.42,7.02,12.95,13.98
			c7.61,34.48,10.62,70.31,24.05,102.97c2.08,5.05,6.77,10.98,11.71,8.65c12.56-22.6,3.75-50.38-0.66-75.85
			c-6.4-37.01-2.53-75.74,11.08-110.75"/>
		<path class="st19" d="M1692.85,856.26c-7.22-12.28-9.19-27.54-5.34-41.25c6.27,0.78,7.86,8.89,9.06,15.09
			c2.52,13.06,10.31,25.04,21.23,32.64c5.71-1.9,8.28-8.88,7.56-14.86c-0.71-5.98-3.81-11.36-6.1-16.92
			c-5.42-13.17-6.39-28.13-2.7-41.89c0.78-2.91,2.12-6.14,4.98-7.08c4.88-1.61,8.58,4.45,10.05,9.37
			c7.29,24.4,11.34,50.01,22.72,72.79c1.76,3.52,5.45,7.54,8.88,5.6c7.84-16.91,0.04-36.43-4.47-54.52
			c-6.56-26.28-5.81-54.34,2.13-80.24"/>
		<path class="st19" d="M1684.16,153.95c0.83-14.22,7.68-28,18.51-37.25c4.77,4.14,1.59,11.76-0.86,17.58
			c-5.17,12.26-5.36,26.54-0.52,38.93c5.8,1.6,11.82-2.77,14.55-8.14c2.73-5.36,3.15-11.56,4.34-17.46
			c2.82-13.96,10.34-26.93,21.06-36.31c2.27-1.98,5.18-3.92,8.08-3.11c4.95,1.38,4.66,8.47,3.14,13.38
			c-7.51,24.33-18.4,47.87-21.62,73.13c-0.5,3.91,0.33,9.3,4.26,9.6c15.93-9.69,20.3-30.25,26.61-47.79
			c9.17-25.48,25.41-48.39,46.41-65.48"/>
		<path class="st19" d="M182.28,562.26c-8.45-11.47-11.99-26.44-9.57-40.48c6.31,0.13,8.74,8.03,10.57,14.07
			c3.86,12.73,12.84,23.84,24.48,30.27c5.48-2.48,7.31-9.69,5.99-15.56c-1.33-5.87-4.96-10.9-7.82-16.2
			c-6.76-12.54-9.26-27.32-7.01-41.39c0.48-2.98,1.47-6.33,4.22-7.56c4.69-2.1,8.99,3.54,10.97,8.28
			c9.77,23.51,16.45,48.57,30.12,70.05c2.11,3.32,6.2,6.94,9.41,4.66c6.05-17.63-3.72-36.24-10.08-53.77
			c-9.24-25.46-11.39-53.45-6.17-80.03"/>
		<path class="st19" d="M260.19,194.22c-1.08-22,4.49-44.29,15.78-63.2c-1.37,15.96-2.75,31.92-4.12,47.87
			c-0.7,8.15-0.23,18.43,7.26,21.73c2.48-15.04,4.96-30.09,7.43-45.13c0.55-3.33,1.68-7.32,4.95-8.14c4.17-1.04,7.24,4.28,6.99,8.57
			c-0.25,4.29-2.15,8.61-1.04,12.76c1.99,7.46,11.62,9.2,19.33,9.52"/>
		<path class="st20" d="M722.86,334.35c-1.08-22,4.49-44.29,15.78-63.2c-1.37,15.96-2.75,31.92-4.12,47.87
			c-0.7,8.15-0.23,18.43,7.25,21.73c2.48-15.04,4.96-30.09,7.43-45.13c0.55-3.33,1.68-7.32,4.95-8.14c4.17-1.04,7.24,4.28,6.99,8.57
			c-0.25,4.29-2.15,8.61-1.04,12.76c1.99,7.46,11.62,9.2,19.33,9.52"/>
		<path class="st20" d="M909.17,848.77c22.28-53.6,69.6-96.18,125.25-112.7c5.53,7.19,3.64,17.93-1.55,25.37
			c-5.19,7.44-12.98,12.56-20.01,18.29c-15.29,12.46-27.62,28.53-35.67,46.54c2.66,1.64,5.32,3.28,7.98,4.93
			c11.47-12.94,22.94-25.87,34.41-38.81c4.84-5.46,9.76-10.99,15.88-14.95c16.33-10.57,37.77-8.05,56.52-2.88"/>
		<path class="st20" d="M55.21,409.89c22.28-53.6,69.6-96.18,125.25-112.7c5.53,7.19,3.64,17.93-1.55,25.37
			c-5.19,7.44-12.98,12.56-20.01,18.29c-15.29,12.46-27.62,28.53-35.67,46.54c2.66,1.64,5.32,3.29,7.98,4.93
			c11.47-12.94,22.94-25.87,34.41-38.81c4.84-5.46,9.76-10.99,15.88-14.95c16.33-10.57,37.77-8.05,56.52-2.88"/>
		<path class="st20" d="M1752.39,1071.95c6.84-9.96,14.84-19.96,26.84-24.96c14-5,29-5,43.76-2.4"/>
		<path class="st20" d="M1686.75,1069.96c19.47-23.97,44.47-43.97,72.47-55.97c5-2,6,5,7,8c1,7-1,14-5,20c-7,8-13,16-22,23
			c-2,2-3,5-4.91,6.67"/>
	</g>
	<g id="LOGIN" class="st21">
		<g id="log_-_tick_off" class="st22">
			<rect x="805.22" y="572.99" width="14" height="14"/>
			<rect x="546.22" y="124.99" width="411" height="117"/>
			<text transform="matrix(1 0 0 1 667.3192 204.891)" class="st23 st24 st25">ВХОД</text>
			<line class="st26" x1="546.22" y1="330.99" x2="1370.22" y2="330.99"/>
			<g>
				<text transform="matrix(1 0 0 1 550.3309 322.3452)" class="st27 st24 st28">ЛОГИН</text>
			</g>
			<line class="st26" x1="546.72" y1="408.99" x2="1370.72" y2="408.99"/>
			<text transform="matrix(1 0 0 1 550.3309 401.3452)" class="st27 st24 st28">ПАРОЛЬ</text>
			<text transform="matrix(1 0 0 1 1130.3309 447.1782)" class="st29 st24 st30">ЗАБЫЛ ПАРОЛЬ</text>
			<text transform="matrix(1 0 0 1 968.3192 205.891)" class="st24 st25">РЕГИСТРАЦИЯ</text>
			<rect x="789.22" y="478.99" class="st31" width="338" height="76"/>
			<text transform="matrix(1 0 0 1 882.3192 532.5707)" class="st23 st24 st32">ВОЙТИ</text>
		</g>
		<g id="log_-_tick_on" class="st22">
			<rect x="546.22" y="124.99" width="411" height="117"/>
			<text transform="matrix(1 0 0 1 667.3192 204.891)" class="st23 st24 st25">ВХОД</text>
			<line class="st26" x1="546.22" y1="330.99" x2="1370.22" y2="330.99"/>
			<g>
				<text transform="matrix(1 0 0 1 550.3309 322.3452)" class="st27 st24 st28">ЛОГИН</text>
			</g>
			<line class="st26" x1="546.72" y1="408.99" x2="1370.72" y2="408.99"/>
			<text transform="matrix(1 0 0 1 550.3309 401.3452)" class="st27 st24 st28">ПАРОЛЬ</text>
			<text transform="matrix(1 0 0 1 1130.3309 447.1782)" class="st29 st24 st30">ЗАБЫЛ ПАРОЛЬ</text>
			<text transform="matrix(1 0 0 1 968.3192 205.891)" class="st24 st25">РЕГИСТРАЦИЯ</text>
			<rect x="789.22" y="478.99" width="338" height="76"/>
			<text transform="matrix(1 0 0 1 882.3192 532.5707)" class="st23 st24 st32">ВОЙТИ</text>
			<polygon class="st23" points="818.22,576.23 816.64,574.65 809.93,581.29 807.27,578.68 805.69,580.26 809.91,584.43 
				809.99,584.35 810.01,584.37 			"/>
		</g>
		<text transform="matrix(1 0 0 1 547.3304 428.9335)" class="st33 st24 st34">НЕПРАВИЛЬНЫЙ ЛОГИН ИЛИ ПАРОЛЬ</text>
		<line class="st35" x1="666.22" y1="220.49" x2="826.72" y2="220.49"/>
		<text transform="matrix(1 0 0 1 822.4637 585.2709)" class="st22"><tspan x="0" y="0" class="st24 st36">ДАЮ СОГЛАСИЕ НА ОБРАБОТКУ МОИХ</tspan><tspan x="45.85" y="20.47" class="st24 st36" style="text-decoration: underline;">ПЕРСОНАЛЬНЫХ ДАННЫХ</tspan></text>
	</g>
	<g id="Рега" class="st21">
		<rect x="960.22" y="124.99" class="st22" width="412" height="117"/>
		<text transform="matrix(1 0 0 1 969.3192 204.891)" class="st37 st24 st25">РЕГИСТРАЦИЯ</text>
		<text transform="matrix(1 0 0 1 669.3192 205.891)" class="st22 st24 st25">ВХОД</text>
		<line class="st26" x1="670.72" y1="221.99" x2="824.72" y2="221.99"/>
		<line class="st35" x1="970.22" y1="220.49" x2="1366.22" y2="220.49"/>
		<g class="st22">
			<text transform="matrix(1 0 0 1 545.3309 300.3452)"><tspan x="0" y="0" class="st27 st24 st28">РОДИТЕЛЬ</tspan><tspan x="214.29" y="0" class="st38 st24 st28">*</tspan><tspan x="233.47" y="0" class="st27 st24 st28">:</tspan></text>
		</g>
		<line class="st39" x1="550.22" y1="361.99" x2="1374.22" y2="361.99"/>
		<line class="st39" x1="547.22" y1="425.99" x2="943.72" y2="425.99"/>
		<line class="st39" x1="977.22" y1="425.99" x2="1373.72" y2="425.99"/>
		<g class="st22">
			<text transform="matrix(1 0 0 1 917.3309 350.3452)" class="st27 st24 st28">фио</text>
		</g>
		<g class="st22">
			<text transform="matrix(1 0 0 1 607.9979 407.8007)" class="st27 st24 st40">+7(___)___-____</text>
		</g>
		<g class="st22">
			<text transform="matrix(1 0 0 1 1112.3308 412.3452)" class="st27 st24 st28">почта</text>
		</g>
		<g class="st22">
			<text transform="matrix(1 0 0 1 545.3309 497.3452)"><tspan x="0" y="0" class="st27 st24 st28">УЧЕНИК</tspan><tspan x="159.99" y="0" class="st38 st24 st28">*</tspan><tspan x="179.17" y="0" class="st27 st24 st28">:</tspan></text>
		</g>
		<line class="st39" x1="550.22" y1="558.99" x2="1374.22" y2="558.99"/>
		<line class="st39" x1="547.22" y1="622.99" x2="943.72" y2="622.99"/>
		<line class="st39" x1="977.22" y1="622.99" x2="1373.72" y2="622.99"/>
		<g class="st22">
			<text transform="matrix(1 0 0 1 917.3309 547.3452)" class="st27 st24 st28">фио</text>
		</g>
		<g class="st22">
			<text transform="matrix(1 0 0 1 607.9979 604.8007)" class="st27 st24 st40">+7(___)___-____</text>
		</g>
		<g class="st22">
			<text transform="matrix(1 0 0 1 1102.3308 609.3452)" class="st27 st24 st28">школа</text>
		</g>
		<line class="st39" x1="549.22" y1="690.99" x2="1373.22" y2="690.99"/>
		<g class="st22">
			<text transform="matrix(1 0 0 1 806.3309 679.3452)" class="st27 st24 st28">дата рождения</text>
		</g>
		<line class="st39" x1="547.22" y1="775.99" x2="943.72" y2="775.99"/>
		<line class="st39" x1="977.22" y1="775.99" x2="1373.72" y2="775.99"/>
		<g class="st22">
			<text transform="matrix(1 0 0 1 665.9979 761.8007)" class="st27 st24 st28">пароль</text>
		</g>
		<g class="st22">
			<text transform="matrix(1 0 0 1 1036.3309 762.3452)" class="st27 st24 st28">повтор пароля</text>
		</g>
		<rect id="Прямоугольник_верхний" x="548.22" y="124.99" class="st41" width="824" height="117"/>
		<rect id="Галочка" x="808.22" y="919.99" class="st22" width="14" height="14"/>
		<rect id="Прямоугольник_подтверждения" x="792.22" y="825.99" class="st22" width="338" height="76"/>
		<g id="Анимация_кнопки" class="st22">
			<rect x="807.72" y="869.49" class="st42" width="310" height="17"/>
			<path d="M1117.22,869.99v16h-309v-16H1117.22 M1118.22,868.99h-311v18h311V868.99L1118.22,868.99z"/>
		</g>
		<text transform="matrix(1 0 0 1 806.3192 879.5707)" class="st37 st24 st32">ПОДТВЕРДИТЬ</text>
		<polygon class="st37" points="821.22,923.23 819.64,921.65 812.93,928.29 810.27,925.68 808.69,927.26 812.91,931.43 
			812.99,931.35 813.01,931.37 		"/>
		<text transform="matrix(1 0 0 1 825.4637 932.2709)" class="st22"><tspan x="0" y="0" class="st24 st36">ДАЮ СОГЛАСИЕ НА ОБРАБОТКУ МОИХ</tspan><tspan x="45.85" y="20.47" class="st24 st36" style="text-decoration: underline;">ПЕРСОНАЛЬНЫХ ДАННЫХ</tspan></text>
		<g class="st22">
			<text transform="matrix(1 0 0 1 742.9979 810.812)" class="st43 st24 st44">ПОЖАЛУЙСТА, ЗАПОЛНИТЕ ВСЕ ПУНКТЫ</text>
		</g>
	</g>
</g>
<rect x="546.22" y="118.24" class="st45" width="820" height="489.61"/>
</svg>
