<svg xmlns="http://www.w3.org/2000/svg" viewBox="0 0 112.34 93.19"><defs><style>.cls-1{fill:#c6d8e9;}.cls-2{fill:#a9c9dd;}.cls-3{fill:#edf6fb;}</style></defs><title>Ресурс 3</title><g id="Слой_2" data-name="Слой 2"><g id="Слой_1-2" data-name="Слой 1"><polygon class="cls-1" points="29.56 55.33 38.25 85.05 41.97 88.42 97.97 16.22 94.19 13.28 24.94 41.04 29.56 55.33"/><path class="cls-2" d="M56.17,57.3c-.67,0-12.45,4.48-12.45,4.48L41.53,87.56a.92.92,0,0,0,1.52.76l19.6-17.15Z"/><path class="cls-3" d="M93.92,88.57C98.23,69.71,108,25.44,112.22,6.21A5.1,5.1,0,0,0,105.43.34L2.81,39.05a4.34,4.34,0,0,0,.27,8.22l26.48,8.06L90,16.36c1.6-1,3.14.71,1.82,2L43.72,61.78,84.61,92A5.93,5.93,0,0,0,93.92,88.57Z"/></g></g></svg>