<?xml version="1.0" encoding="utf-8"?>
<!-- Generator: Adobe Illustrator 22.1.0, SVG Export Plug-In . SVG Version: 6.00 Build 0)  -->
<svg version="1.1" id="Слой_1" xmlns="http://www.w3.org/2000/svg" xmlns:xlink="http://www.w3.org/1999/xlink" x="0px" y="0px"
	 viewBox="0 0 283.5 283.5" style="enable-background:new 0 0 283.5 283.5;" xml:space="preserve">
<style type="text/css">
	.st0{fill:#0E0F0F;}
</style>
<g>
	<g>
		<g>
			<path class="st0" d="M142.1,142.4c-26.1,0-51.4-5.2-71.5-14.8c-26-12.4-40.9-30.7-40.9-50.2c0-35.8,50.4-65,112.4-65
				c62,0,112.4,29.1,112.4,65c0,19.5-14.9,37.8-40.9,50.2C193.5,137.1,168.1,142.4,142.1,142.4z M142.1,15.9
				c-60.1,0-109,27.6-109,61.6c0,18.2,14.2,35.3,39,47.1c19.6,9.3,44.4,14.4,70,14.4s50.4-5.1,70-14.4c24.8-11.8,39-29,39-47.1
				C251,43.5,202.2,15.9,142.1,15.9z"/>
		</g>
		<g>
			<path class="st0" d="M138.9,271.3C138.9,271.3,138.9,271.3,138.9,271.3c-3.4-0.1-6.9-0.2-10.3-0.4c-0.9-0.1-1.6-0.9-1.6-1.8
				c0.1-0.9,0.9-1.6,1.8-1.6c3.3,0.2,6.7,0.4,10.1,0.4c0.9,0,1.7,0.8,1.7,1.7C140.6,270.6,139.8,271.3,138.9,271.3z M149.1,271.2
				c-0.9,0-1.7-0.7-1.7-1.6c0-0.9,0.7-1.7,1.6-1.8c3.4-0.1,6.7-0.3,10.1-0.6c0.9-0.1,1.8,0.6,1.8,1.5c0.1,0.9-0.6,1.8-1.5,1.8
				C156,270.9,152.5,271.1,149.1,271.2C149.1,271.2,149.1,271.2,149.1,271.2z M118.6,269.9c-0.1,0-0.1,0-0.2,0
				c-3.4-0.4-6.8-0.9-10.1-1.5c-0.9-0.2-1.5-1-1.4-2c0.2-0.9,1.1-1.5,2-1.4c3.3,0.6,6.6,1.1,10,1.5c0.9,0.1,1.6,1,1.5,1.9
				C120.2,269.3,119.5,269.9,118.6,269.9z M169.3,269.4c-0.8,0-1.6-0.6-1.7-1.5c-0.1-0.9,0.5-1.8,1.4-1.9c3.3-0.5,6.7-1.1,9.9-1.7
				c0.9-0.2,1.8,0.4,2,1.3c0.2,0.9-0.4,1.8-1.3,2c-3.3,0.7-6.7,1.3-10.1,1.8C169.5,269.4,169.4,269.4,169.3,269.4z M98.6,266.3
				c-0.1,0-0.3,0-0.4,0c-3.4-0.8-6.7-1.8-9.9-2.8c-0.9-0.3-1.4-1.2-1.1-2.1c0.3-0.9,1.2-1.4,2.1-1.1c3.1,1,6.4,1.9,9.7,2.7
				c0.9,0.2,1.5,1.1,1.2,2C100.1,265.8,99.4,266.3,98.6,266.3z M189.2,265.3c-0.7,0-1.4-0.5-1.6-1.3c-0.2-0.9,0.3-1.8,1.2-2.1
				c3.3-0.9,6.5-1.9,9.6-2.9c0.9-0.3,1.8,0.2,2.2,1.1c0.3,0.9-0.2,1.8-1.1,2.2c-3.2,1.1-6.5,2.1-9.8,3
				C189.5,265.3,189.4,265.3,189.2,265.3z M79.2,260.2c-0.2,0-0.4,0-0.6-0.1c-2.8-1.1-5.4-2.3-8-3.5l-1.4-0.7
				c-0.8-0.4-1.2-1.4-0.8-2.3c0.4-0.8,1.4-1.2,2.3-0.8l1.4,0.7c2.5,1.2,5.1,2.3,7.8,3.4c0.9,0.3,1.3,1.3,1,2.2
				C80.6,259.8,79.9,260.2,79.2,260.2z M208.4,258.7c-0.7,0-1.3-0.4-1.6-1c-0.4-0.9,0-1.9,0.9-2.2c1.5-0.6,2.9-1.3,4.3-1.9
				c1.6-0.8,3.2-1.6,4.7-2.4c0.8-0.4,1.9-0.1,2.3,0.7c0.4,0.8,0.1,1.9-0.7,2.3c-1.6,0.8-3.2,1.7-4.9,2.5c-1.4,0.7-2.9,1.4-4.4,2
				C208.9,258.7,208.7,258.7,208.4,258.7z M61,251.1c-0.3,0-0.6-0.1-0.9-0.3c-3-1.9-5.9-3.8-8.5-5.9c-0.7-0.6-0.9-1.6-0.3-2.4
				c0.6-0.7,1.6-0.9,2.4-0.3c2.5,2,5.3,3.9,8.2,5.7c0.8,0.5,1,1.5,0.6,2.3C62.2,250.9,61.6,251.1,61,251.1z M226.3,249.1
				c-0.5,0-1.1-0.3-1.4-0.7c-0.5-0.8-0.3-1.8,0.5-2.4c2.9-1.9,5.5-3.9,7.9-6c0.7-0.6,1.8-0.5,2.4,0.2c0.6,0.7,0.5,1.8-0.2,2.4
				c-2.5,2.2-5.3,4.3-8.3,6.3C227,249,226.7,249.1,226.3,249.1z M45.1,238.6c-0.4,0-0.9-0.2-1.2-0.5c-2.5-2.6-4.7-5.3-6.6-8.1
				c-0.5-0.8-0.3-1.8,0.5-2.4c0.8-0.5,1.8-0.3,2.3,0.5c1.8,2.6,3.8,5.2,6.2,7.6c0.6,0.7,0.6,1.7,0,2.4
				C46,238.4,45.5,238.6,45.1,238.6z M241.6,235.8c-0.4,0-0.8-0.1-1.1-0.4c-0.7-0.6-0.8-1.7-0.2-2.4c2.2-2.6,4.1-5.3,5.7-8
				c0.5-0.8,1.5-1.1,2.3-0.6c0.8,0.5,1.1,1.5,0.6,2.3c-1.6,2.9-3.7,5.8-6,8.6C242.6,235.6,242.1,235.8,241.6,235.8z M34,221.7
				c-0.7,0-1.3-0.4-1.6-1.1c-1.3-3.4-2.1-6.8-2.5-10.3c-0.1-0.9,0.6-1.8,1.5-1.9c0.9-0.1,1.8,0.6,1.9,1.5c0.3,3.2,1.1,6.3,2.3,9.4
				c0.3,0.9-0.1,1.9-1,2.2C34.4,221.7,34.2,221.7,34,221.7z M251.4,218.1c-0.1,0-0.3,0-0.5-0.1c-0.9-0.2-1.4-1.2-1.2-2.1
				c0.9-3.1,1.3-6.4,1.3-9.6c0-2.4-0.3-4.8-0.8-7.2c-0.2-0.9,0.4-1.8,1.3-2c0.9-0.2,1.8,0.4,2,1.3c0.5,2.6,0.8,5.3,0.8,7.9
				c0,3.5-0.5,7-1.4,10.5C252.8,217.6,252.1,218.1,251.4,218.1z M32,201.8c-0.1,0-0.2,0-0.3,0c-0.9-0.2-1.5-1-1.4-2
				c0.6-3.4,1.6-6.8,3.1-10.1c0.4-0.9,1.4-1.2,2.2-0.8c0.9,0.4,1.2,1.4,0.8,2.2c-1.4,3-2.3,6.1-2.9,9.3
				C33.5,201.2,32.8,201.8,32,201.8z M248.6,190.9c-0.6,0-1.2-0.3-1.5-0.9c-1.4-2.8-3.1-5.6-5.2-8.3c-0.6-0.7-0.4-1.8,0.3-2.4
				c0.7-0.6,1.8-0.4,2.4,0.3c2.2,2.9,4.1,5.8,5.6,8.9c0.4,0.8,0.1,1.9-0.8,2.3C249.1,190.9,248.9,190.9,248.6,190.9z M40.2,183.4
				c-0.4,0-0.7-0.1-1-0.3c-0.8-0.6-0.9-1.6-0.4-2.4c2-2.7,4.3-5.3,6.9-7.8c0.7-0.6,1.8-0.6,2.4,0c0.6,0.7,0.6,1.7,0,2.4
				c-2.5,2.4-4.7,4.9-6.5,7.4C41.2,183.1,40.7,183.4,40.2,183.4z M236.3,174.9c-0.4,0-0.8-0.1-1.2-0.5c-2.3-2.2-4.9-4.3-7.7-6.3
				c-0.8-0.5-0.9-1.6-0.4-2.4c0.5-0.8,1.6-0.9,2.4-0.4c2.9,2.1,5.6,4.3,8.1,6.5c0.7,0.6,0.7,1.7,0.1,2.4
				C237.2,174.7,236.8,174.9,236.3,174.9z M54.7,169.3c-0.5,0-1-0.2-1.4-0.7c-0.6-0.8-0.4-1.8,0.4-2.4c2.7-2,5.6-3.9,8.7-5.7
				c0.8-0.5,1.8-0.2,2.3,0.6c0.5,0.8,0.2,1.8-0.6,2.3c-3,1.7-5.8,3.6-8.4,5.5C55.4,169.2,55,169.3,54.7,169.3z M219.8,163.1
				c-0.3,0-0.6-0.1-0.8-0.2c-2.8-1.6-5.8-3.1-8.9-4.5c-0.9-0.4-1.2-1.4-0.8-2.2c0.4-0.9,1.4-1.2,2.2-0.8c3.2,1.5,6.3,3,9.2,4.7
				c0.8,0.5,1.1,1.5,0.6,2.3C221,162.7,220.4,163.1,219.8,163.1z M72.2,159c-0.6,0-1.2-0.4-1.5-1c-0.4-0.8,0-1.9,0.8-2.3
				c3-1.4,6.2-2.7,9.5-4c0.9-0.3,1.9,0.1,2.2,1c0.3,0.9-0.1,1.9-1,2.2c-3.2,1.2-6.3,2.5-9.3,3.9C72.7,159,72.5,159,72.2,159z
				 M201.3,154.6c-0.2,0-0.4,0-0.6-0.1c-3.1-1.1-6.3-2.2-9.6-3.1c-0.9-0.3-1.4-1.2-1.2-2.1c0.3-0.9,1.2-1.4,2.1-1.2
				c3.3,1,6.6,2,9.8,3.2c0.9,0.3,1.3,1.3,1,2.2C202.7,154.2,202,154.6,201.3,154.6z M91.2,151.9c-0.7,0-1.4-0.5-1.6-1.2
				c-0.3-0.9,0.2-1.8,1.1-2.1c3.2-1,6.6-1.8,9.9-2.6c0.9-0.2,1.8,0.4,2,1.3c0.2,0.9-0.4,1.8-1.3,2c-3.3,0.8-6.6,1.6-9.7,2.5
				C91.6,151.8,91.4,151.9,91.2,151.9z M181.8,149c-0.1,0-0.2,0-0.4,0c-3.2-0.7-6.5-1.3-9.9-1.9c-0.9-0.1-1.6-1-1.4-1.9
				c0.1-0.9,1-1.6,1.9-1.4c3.4,0.5,6.8,1.2,10.1,1.9c0.9,0.2,1.5,1.1,1.3,2C183.3,148.5,182.6,149,181.8,149z M111.1,147.3
				c-0.8,0-1.5-0.6-1.7-1.4c-0.2-0.9,0.5-1.8,1.4-1.9c3.3-0.6,6.7-1,10.2-1.4c0.9-0.1,1.8,0.6,1.9,1.5c0.1,0.9-0.6,1.8-1.5,1.9
				c-3.4,0.4-6.7,0.8-10,1.4C111.2,147.3,111.2,147.3,111.1,147.3z M161.7,145.8c-0.1,0-0.1,0-0.2,0c-3.3-0.3-6.7-0.6-10.1-0.8
				c-0.9,0-1.7-0.8-1.6-1.8c0-0.9,0.8-1.7,1.8-1.6c3.4,0.2,6.9,0.4,10.2,0.8c0.9,0.1,1.6,0.9,1.5,1.9
				C163.3,145.2,162.6,145.8,161.7,145.8z M131.3,145.1c-0.9,0-1.6-0.7-1.7-1.6c-0.1-0.9,0.7-1.7,1.6-1.8c3.4-0.2,6.8-0.3,10.3-0.3
				c0,0,0,0,0,0c0.9,0,1.7,0.8,1.7,1.7c0,0.9-0.8,1.7-1.7,1.7C138.1,144.8,134.7,144.9,131.3,145.1
				C131.3,145.1,131.3,145.1,131.3,145.1z"/>
		</g>
		<g>
			<path class="st0" d="M142.1,271.3c-62,0-112.4-29.1-112.4-65v-129c0-0.9,0.8-1.7,1.7-1.7c0.9,0,1.7,0.8,1.7,1.7
				c0,18.2,14.2,35.3,39,47.1c19.6,9.3,44.4,14.4,70,14.4s50.4-5.1,70-14.4c24.8-11.8,39-29,39-47.1c0-0.9,0.8-1.7,1.7-1.7
				c0.9,0,1.7,0.8,1.7,1.7v129C254.4,242.2,204,271.3,142.1,271.3z M33.1,93.4v113c0,33.9,48.9,61.6,109,61.6
				c60.1,0,109-27.6,109-61.6v-113c-5.8,13.3-18.8,25.3-37.5,34.3c-20,9.5-45.4,14.8-71.5,14.8c-26.1,0-51.4-5.2-71.5-14.8
				C51.9,118.7,38.9,106.7,33.1,93.4z"/>
		</g>
	</g>
</g>
</svg>
