<?xml version="1.0" encoding="utf-8"?>
<!-- Generator: Adobe Illustrator 22.1.0, SVG Export Plug-In . SVG Version: 6.00 Build 0)  -->
<svg version="1.1" id="Слой_1" xmlns="http://www.w3.org/2000/svg" xmlns:xlink="http://www.w3.org/1999/xlink" x="0px" y="0px"
	 viewBox="0 0 283.5 283.5" style="enable-background:new 0 0 283.5 283.5;" xml:space="preserve">
<style type="text/css">
	.st0{fill:#0E0F0F;}
</style>
<g>
	<g>
		<g>
			<g>
				<path class="st0" d="M139.3,175.9c-0.1,0-0.2,0-0.3,0l-4.3-0.8c-0.8-0.1-1.3-0.9-1.2-1.7c0.1-0.8,0.9-1.3,1.7-1.2l4.3,0.8
					c0.8,0.1,1.3,0.9,1.2,1.7C140.6,175.4,140,175.9,139.3,175.9z"/>
			</g>
			<g>
				<path class="st0" d="M221.2,190.6c-0.1,0-0.2,0-0.3,0l-8.2-1.5c-0.8-0.1-1.3-0.9-1.2-1.7c0.1-0.8,0.9-1.3,1.7-1.2l8.2,1.5
					c0.8,0.1,1.3,0.9,1.2,1.7C222.5,190.1,221.9,190.6,221.2,190.6z M204.8,187.7c-0.1,0-0.2,0-0.3,0l-8.2-1.5
					c-0.8-0.1-1.3-0.9-1.2-1.7c0.1-0.8,0.9-1.3,1.7-1.2l8.2,1.5c0.8,0.1,1.3,0.9,1.2,1.7C206.1,187.2,205.5,187.7,204.8,187.7z
					 M188.4,184.7c-0.1,0-0.2,0-0.3,0l-8.2-1.5c-0.8-0.1-1.3-0.9-1.2-1.7c0.1-0.8,0.9-1.3,1.7-1.2l8.2,1.5c0.8,0.1,1.3,0.9,1.2,1.7
					C189.7,184.2,189.1,184.7,188.4,184.7z M172,181.8c-0.1,0-0.2,0-0.3,0l-8.2-1.5c-0.8-0.1-1.3-0.9-1.2-1.7
					c0.1-0.8,0.9-1.3,1.7-1.2l8.2,1.5c0.8,0.1,1.3,0.9,1.2,1.7C173.3,181.3,172.7,181.8,172,181.8z M155.7,178.8c-0.1,0-0.2,0-0.3,0
					l-8.2-1.5c-0.8-0.1-1.3-0.9-1.2-1.7c0.1-0.8,0.9-1.3,1.7-1.2l8.2,1.5c0.8,0.1,1.3,0.9,1.2,1.7
					C156.9,178.3,156.3,178.8,155.7,178.8z"/>
			</g>
			<g>
				<path class="st0" d="M231.8,196.8c-0.2,0-0.4,0-0.6-0.1c-0.7-0.3-1-1.2-0.7-1.9l1-2.2l-2.4-0.4c-0.8-0.1-1.3-0.9-1.2-1.7
					c0.1-0.8,0.9-1.3,1.7-1.2l4.3,0.8c0.4,0.1,0.8,0.4,1,0.8c0.2,0.4,0.2,0.9,0,1.3l-1.9,3.9C232.8,196.5,232.3,196.8,231.8,196.8z"
					/>
			</g>
			<g>
				<path class="st0" d="M215.2,231.6c-0.2,0-0.4,0-0.6-0.1c-0.7-0.3-1-1.2-0.7-1.9l4.1-8.7c0.3-0.7,1.2-1,1.9-0.7
					c0.7,0.3,1,1.2,0.7,1.9l-4.1,8.7C216.2,231.3,215.7,231.6,215.2,231.6z M223.5,214.2c-0.2,0-0.4,0-0.6-0.1
					c-0.7-0.3-1-1.2-0.7-1.9l4.1-8.7c0.3-0.7,1.2-1,1.9-0.7c0.7,0.3,1,1.2,0.7,1.9l-4.1,8.7C224.5,213.9,224,214.2,223.5,214.2z"/>
			</g>
			<g>
				<path class="st0" d="M204.9,244.9c-0.7,0-1.3-0.5-1.4-1.2c-0.1-0.8,0.4-1.5,1.2-1.7l3.5-0.6l1.5-3.2c0.3-0.7,1.2-1,1.9-0.7
					c0.7,0.3,1,1.2,0.7,1.9l-1.9,3.9c-0.2,0.4-0.6,0.7-1.1,0.8l-4.3,0.7C205.1,244.8,205,244.9,204.9,244.9z"/>
			</g>
			<g>
				<path class="st0" d="M120.6,258.6c-0.7,0-1.3-0.5-1.4-1.2c-0.1-0.8,0.4-1.5,1.2-1.7l8.4-1.4c0.8-0.1,1.5,0.4,1.7,1.2
					c0.1,0.8-0.4,1.5-1.2,1.7l-8.4,1.4C120.7,258.6,120.6,258.6,120.6,258.6z M112.7,257c-0.3,0-0.5-0.1-0.7-0.2l-7.3-4.5
					c-0.7-0.4-0.9-1.3-0.5-2c0.4-0.7,1.3-0.9,2-0.5l7.3,4.5c0.7,0.4,0.9,1.3,0.5,2C113.7,256.7,113.2,257,112.7,257z M137.4,255.9
					c-0.7,0-1.3-0.5-1.4-1.2c-0.1-0.8,0.4-1.5,1.2-1.7l8.4-1.4c0.8-0.1,1.5,0.4,1.7,1.2c0.1,0.8-0.4,1.5-1.2,1.7l-8.4,1.4
					C137.6,255.9,137.5,255.9,137.4,255.9z M154.3,253.1c-0.7,0-1.3-0.5-1.4-1.2c-0.1-0.8,0.4-1.5,1.2-1.7l8.4-1.4
					c0.8-0.1,1.5,0.4,1.7,1.2c0.1,0.8-0.4,1.5-1.2,1.7l-8.4,1.4C154.5,253.1,154.4,253.1,154.3,253.1z M171.2,250.4
					c-0.7,0-1.3-0.5-1.4-1.2c-0.1-0.8,0.4-1.5,1.2-1.7l8.4-1.4c0.8-0.1,1.5,0.4,1.7,1.2c0.1,0.8-0.4,1.5-1.2,1.7l-8.4,1.4
					C171.3,250.4,171.2,250.4,171.2,250.4z M98.1,248.1c-0.3,0-0.5-0.1-0.8-0.2l-7.3-4.5c-0.7-0.4-0.9-1.3-0.5-2
					c0.4-0.7,1.3-0.9,2-0.5l7.3,4.5c0.7,0.4,0.9,1.3,0.5,2C99.1,247.8,98.6,248.1,98.1,248.1z M188,247.6c-0.7,0-1.3-0.5-1.4-1.2
					c-0.1-0.8,0.4-1.5,1.2-1.7l8.4-1.4c0.8-0.1,1.5,0.4,1.7,1.2c0.1,0.8-0.4,1.5-1.2,1.7l-8.4,1.4
					C188.2,247.6,188.1,247.6,188,247.6z M83.5,239.2c-0.3,0-0.5-0.1-0.7-0.2l-7.3-4.5c-0.7-0.4-0.9-1.3-0.5-2
					c0.4-0.7,1.3-0.9,2-0.5l7.3,4.5c0.7,0.4,0.9,1.3,0.5,2C84.5,238.9,84,239.2,83.5,239.2z M69,230.3c-0.3,0-0.5-0.1-0.8-0.2
					l-7.3-4.5c-0.7-0.4-0.9-1.3-0.5-2c0.4-0.7,1.3-0.9,2-0.5l7.3,4.5c0.7,0.4,0.9,1.3,0.5,2C69.9,230,69.4,230.3,69,230.3z"/>
			</g>
			<g>
				<path class="st0" d="M54.4,221.4c-0.3,0-0.5-0.1-0.7-0.2l-3.7-2.3c-0.4-0.3-0.7-0.8-0.7-1.3c0-0.5,0.3-1,0.8-1.2l3.8-2
					c0.7-0.4,1.6-0.1,1.9,0.6c0.4,0.7,0.1,1.6-0.6,1.9l-1.6,0.8l1.5,0.9c0.7,0.4,0.9,1.3,0.5,2C55.3,221.1,54.9,221.4,54.4,221.4z"
					/>
			</g>
			<g>
				<path class="st0" d="M61.5,213.5c-0.5,0-1-0.3-1.3-0.8c-0.4-0.7-0.1-1.6,0.6-1.9l7-3.6c0.7-0.4,1.6-0.1,1.9,0.6
					c0.4,0.7,0.1,1.6-0.6,1.9l-7,3.6C61.9,213.4,61.7,213.5,61.5,213.5z M75.4,206.2c-0.5,0-1-0.3-1.3-0.8c-0.4-0.7-0.1-1.6,0.6-1.9
					l7-3.6c0.7-0.4,1.6-0.1,1.9,0.6c0.4,0.7,0.1,1.6-0.6,1.9l-7,3.6C75.9,206.1,75.6,206.2,75.4,206.2z M89.4,198.9
					c-0.5,0-1-0.3-1.3-0.8c-0.4-0.7-0.1-1.6,0.6-1.9l7-3.6c0.7-0.4,1.6-0.1,1.9,0.6c0.4,0.7,0.1,1.6-0.6,1.9l-7,3.6
					C89.8,198.9,89.6,198.9,89.4,198.9z M103.3,191.6c-0.5,0-1-0.3-1.3-0.8c-0.4-0.7-0.1-1.6,0.6-1.9l7-3.6c0.7-0.4,1.6-0.1,1.9,0.6
					c0.4,0.7,0.1,1.6-0.6,1.9l-7,3.6C103.8,191.6,103.5,191.6,103.3,191.6z M117.2,184.4c-0.5,0-1-0.3-1.3-0.8
					c-0.4-0.7-0.1-1.6,0.6-1.9l7-3.6c0.7-0.4,1.6-0.1,1.9,0.6c0.4,0.7,0.1,1.6-0.6,1.9l-7,3.6C117.7,184.3,117.5,184.4,117.2,184.4z
					"/>
			</g>
			<g>
				<path class="st0" d="M131.2,177.1c-0.5,0-1-0.3-1.3-0.8c-0.4-0.7-0.1-1.6,0.6-1.9l3.8-2c0.7-0.4,1.6-0.1,1.9,0.6
					c0.4,0.7,0.1,1.6-0.6,1.9l-3.8,2C131.6,177,131.4,177.1,131.2,177.1z"/>
			</g>
		</g>
		<g>
			<path class="st0" d="M116.5,259.3c-0.3,0-0.5-0.1-0.8-0.2l-65.8-40.2c-0.6-0.4-0.9-1.2-0.5-1.9l91.5-191.1c0.3-0.6,1-1,1.7-0.8
				c0.7,0.2,1.1,0.8,1,1.5L118,258c-0.1,0.5-0.4,0.9-0.8,1.1C117,259.3,116.7,259.3,116.5,259.3z M52.5,217.1l62.8,38.3l24.5-220.6
				L52.5,217.1z"/>
		</g>
		<g>
			<path class="st0" d="M209.2,244.2c0,0-0.1,0-0.1,0c-0.6,0-1.1-0.4-1.3-1L140.8,27c-0.2-0.7,0.1-1.5,0.8-1.8
				c0.7-0.3,1.5,0,1.8,0.6l91.5,164.9c0.2,0.4,0.2,0.9,0,1.3l-24.5,51.3C210.2,243.8,209.7,244.2,209.2,244.2z M147.7,39.4
				l61.8,199.3l22.6-47.3L147.7,39.4z"/>
		</g>
		<g>
			<path class="st0" d="M116.5,259.3c-0.4,0-0.7-0.1-1-0.4c-0.3-0.3-0.5-0.8-0.4-1.2l25.6-231.3c0.1-0.7,0.6-1.2,1.3-1.3
				c0.7,0,1.3,0.4,1.5,1l67,216.2c0.1,0.4,0.1,0.8-0.2,1.2c-0.2,0.4-0.6,0.6-1,0.7l-92.6,15.2C116.7,259.3,116.6,259.3,116.5,259.3z
				 M142.8,33.6l-24.7,222.6l89.1-14.6L142.8,33.6z"/>
		</g>
	</g>
	<g>
		<path class="st0" d="M135,175.1C135,175.1,135,175.1,135,175.1c-0.9,0-1.5-0.7-1.4-1.5l0.4-8.6c0-0.8,0.7-1.4,1.5-1.4
			c0.8,0,1.4,0.7,1.4,1.5l-0.4,8.6C136.4,174.5,135.8,175.1,135,175.1z M135.9,157.8C135.8,157.8,135.8,157.8,135.9,157.8
			c-0.9,0-1.5-0.7-1.4-1.5l0.4-8.6c0-0.8,0.7-1.4,1.5-1.4c0.8,0,1.4,0.7,1.4,1.5l-0.4,8.6C137.3,157.2,136.6,157.8,135.9,157.8z
			 M136.7,140.5C136.7,140.5,136.6,140.5,136.7,140.5c-0.9,0-1.5-0.7-1.4-1.5l0.4-8.6c0-0.8,0.7-1.5,1.5-1.4c0.8,0,1.4,0.7,1.4,1.5
			l-0.4,8.6C138.1,139.9,137.5,140.5,136.7,140.5z M137.5,123.3C137.5,123.3,137.5,123.3,137.5,123.3c-0.9,0-1.5-0.7-1.4-1.5
			l0.4-8.6c0-0.8,0.8-1.4,1.5-1.4c0.8,0,1.4,0.7,1.4,1.5l-0.4,8.6C138.9,122.7,138.3,123.3,137.5,123.3z M138.4,106
			C138.3,106,138.3,106,138.4,106c-0.9,0-1.5-0.7-1.4-1.5l0.4-8.6c0-0.8,0.8-1.5,1.5-1.4c0.8,0,1.4,0.7,1.4,1.5l-0.4,8.6
			C139.8,105.4,139.1,106,138.4,106z M139.2,88.7C139.2,88.7,139.2,88.7,139.2,88.7c-0.9,0-1.5-0.7-1.4-1.5l0.4-8.6
			c0-0.8,0.8-1.4,1.5-1.4c0.8,0,1.4,0.7,1.4,1.5l-0.4,8.6C140.6,88.1,140,88.7,139.2,88.7z M140,71.4C140,71.4,140,71.4,140,71.4
			c-0.9,0-1.5-0.7-1.4-1.5l0.4-8.6c0-0.8,0.7-1.4,1.5-1.4c0.8,0,1.4,0.7,1.4,1.5l-0.4,8.6C141.4,70.8,140.8,71.4,140,71.4z
			 M140.9,54.2C140.9,54.2,140.8,54.2,140.9,54.2c-0.9,0-1.5-0.7-1.4-1.5l0.4-8.6c0-0.8,0.7-1.5,1.5-1.4c0.8,0,1.4,0.7,1.4,1.5
			l-0.4,8.6C142.3,53.6,141.7,54.2,140.9,54.2z M141.7,36.9C141.7,36.9,141.7,36.9,141.7,36.9c-0.9,0-1.5-0.7-1.4-1.5l0.4-8.6
			c0-0.8,0.7-1.4,1.5-1.4c0.8,0,1.4,0.7,1.4,1.5l-0.4,8.6C143.1,36.3,142.5,36.9,141.7,36.9z"/>
	</g>
</g>
</svg>
