<?xml version="1.0" encoding="utf-8"?>
<!-- Generator: Adobe Illustrator 22.1.0, SVG Export Plug-In . SVG Version: 6.00 Build 0)  -->
<svg version="1.1" id="Слой_1" xmlns="http://www.w3.org/2000/svg" xmlns:xlink="http://www.w3.org/1999/xlink" x="0px" y="0px"
	 viewBox="0 0 283.5 283.5" style="enable-background:new 0 0 283.5 283.5;" xml:space="preserve">
<style type="text/css">
	.st0{fill:#0E0F0F;}
</style>
<g>
	<g>
		<g>
			<g>
				<path class="st0" d="M168.1,252.8c-0.8,0-1.5-0.6-1.5-1.4c0-0.3,0-0.7,0.2-1c1.5-3.2,33.3-85.7,50-129c0.2-0.5,0.7-0.9,1.3-1
					c0.6-0.1,1.1,0.2,1.5,0.6l50.8,71.3c0.3,0.4,0.3,0.8,0.3,1.2c-0.1,0.4-0.4,0.8-0.8,1c-38.9,21.9-97.5,55.2-100.6,57.6
					C169,252.6,168.5,252.8,168.1,252.8z M218.7,125.3c-6.4,16.7-38.9,101.1-47.2,122c17-10.3,78.4-44.9,95.3-54.4L218.7,125.3z"/>
			</g>
			<g>
				<g>
					<path class="st0" d="M63.4,38.8c-0.2,0-0.4,0-0.6-0.1c-0.8-0.3-1.2-1.2-0.9-2l1.7-4.4c0.2-0.5,0.7-0.9,1.3-1
						c0.6-0.1,1.1,0.2,1.5,0.6l2.7,3.8c0.5,0.7,0.3,1.7-0.4,2.2c-0.7,0.5-1.7,0.3-2.2-0.4l-1-1.5l-0.6,1.7
						C64.7,38.4,64.1,38.8,63.4,38.8z"/>
				</g>
				<g>
					<path class="st0" d="M17.3,162.1c-0.5,0-1-0.3-1.3-0.7c-0.5-0.7-0.2-1.7,0.5-2.1c1.8-1.1,4.5-2.7,7.9-4.7
						c0.7-0.4,1.7-0.2,2.1,0.6c0.4,0.7,0.2,1.7-0.6,2.1c-3.4,2-6.1,3.6-7.8,4.6C17.8,162,17.6,162.1,17.3,162.1z M17.4,157.7
						c-0.2,0-0.4,0-0.6-0.1c-0.8-0.3-1.2-1.2-0.9-2l3.3-8.5c0.3-0.8,1.2-1.2,2-0.9c0.8,0.3,1.2,1.2,0.9,2l-3.3,8.5
						C18.6,157.4,18,157.7,17.4,157.7z M33,152.9c-0.5,0-1.1-0.3-1.4-0.8c-0.4-0.7-0.2-1.7,0.6-2.1l7.9-4.5c0.7-0.4,1.7-0.2,2.1,0.6
						c0.4,0.7,0.2,1.7-0.6,2.1l-7.9,4.5C33.6,152.8,33.3,152.9,33,152.9z M48.8,143.8c-0.5,0-1.1-0.3-1.4-0.8
						c-0.4-0.7-0.2-1.7,0.6-2.1l7.9-4.5c0.7-0.4,1.7-0.2,2.1,0.6c0.4,0.8,0.2,1.7-0.6,2.1l-7.9,4.5
						C49.4,143.7,49.1,143.8,48.8,143.8z M24,140.8c-0.2,0-0.4,0-0.6-0.1c-0.8-0.3-1.2-1.2-0.9-2l3.3-8.5c0.3-0.8,1.2-1.2,2-0.9
						c0.8,0.3,1.2,1.2,0.9,2l-3.3,8.5C25.2,140.4,24.7,140.8,24,140.8z M64.7,134.8c-0.5,0-1.1-0.3-1.4-0.8
						c-0.4-0.8-0.2-1.7,0.6-2.1l7.9-4.5c0.7-0.4,1.7-0.2,2.1,0.6c0.4,0.8,0.2,1.7-0.6,2.1l-7.9,4.5
						C65.2,134.7,64.9,134.8,64.7,134.8z M80.5,125.8c-0.5,0-1.1-0.3-1.4-0.8c-0.4-0.8-0.2-1.7,0.6-2.1l7.9-4.5
						c0.7-0.4,1.7-0.2,2.1,0.6c0.4,0.8,0.2,1.7-0.6,2.1l-7.9,4.5C81,125.7,80.8,125.8,80.5,125.8z M30.6,123.8c-0.2,0-0.4,0-0.6-0.1
						c-0.8-0.3-1.2-1.2-0.9-2l3.3-8.5c0.3-0.8,1.2-1.2,2-0.9c0.8,0.3,1.2,1.2,0.9,2l-3.3,8.5C31.8,123.4,31.2,123.8,30.6,123.8z
						 M96.4,116.8c-0.5,0-1.1-0.3-1.4-0.8c-0.4-0.8-0.2-1.7,0.6-2.1l7.9-4.5c0.8-0.4,1.7-0.2,2.1,0.6c0.4,0.8,0.2,1.7-0.6,2.1
						l-7.9,4.5C96.9,116.7,96.6,116.8,96.4,116.8z M37.2,106.8c-0.2,0-0.4,0-0.6-0.1c-0.8-0.3-1.2-1.2-0.9-2l3.3-8.5
						c0.3-0.8,1.2-1.2,2-0.9c0.8,0.3,1.2,1.2,0.9,2l-3.3,8.5C38.4,106.4,37.8,106.8,37.2,106.8z M43.8,89.8c-0.2,0-0.4,0-0.6-0.1
						c-0.8-0.3-1.2-1.2-0.9-2l3.3-8.5c0.3-0.8,1.2-1.2,2-0.9c0.8,0.3,1.2,1.2,0.9,2l-3.3,8.5C45,89.4,44.4,89.8,43.8,89.8z
						 M50.3,72.8c-0.2,0-0.4,0-0.6-0.1c-0.8-0.3-1.2-1.2-0.9-2l3.3-8.5c0.3-0.8,1.2-1.2,2-0.9c0.8,0.3,1.2,1.2,0.9,2l-3.3,8.5
						C51.6,72.4,51,72.8,50.3,72.8z M56.9,55.8c-0.2,0-0.4,0-0.6-0.1c-0.8-0.3-1.2-1.2-0.9-2l3.3-8.5c0.3-0.8,1.2-1.2,2-0.9
						c0.8,0.3,1.2,1.2,0.9,2l-3.3,8.5C58.1,55.4,57.5,55.8,56.9,55.8z"/>
				</g>
				<g>
					<path class="st0" d="M111.8,108.1c-0.5,0-1.1-0.3-1.4-0.8c-0.4-0.8-0.2-1.7,0.6-2.1l2.6-1.4l-1.7-2.4c-0.5-0.7-0.3-1.7,0.4-2.2
						c0.7-0.5,1.7-0.3,2.2,0.4l2.7,3.8c0.3,0.4,0.3,0.8,0.3,1.2c-0.1,0.4-0.4,0.8-0.8,1l-4.1,2.3C112.4,108,112.1,108.1,111.8,108.1
						z"/>
				</g>
				<g>
					<path class="st0" d="M108.2,94.9c-0.5,0-1-0.2-1.3-0.7l-5-7.1c-0.5-0.7-0.3-1.7,0.4-2.2c0.7-0.5,1.7-0.3,2.2,0.4l5,7.1
						c0.5,0.7,0.3,1.7-0.4,2.2C108.8,94.8,108.5,94.9,108.2,94.9z M98.1,80.7c-0.5,0-1-0.2-1.3-0.7l-5-7.1c-0.5-0.7-0.3-1.7,0.4-2.2
						c0.7-0.5,1.7-0.3,2.2,0.4l5,7.1c0.5,0.7,0.3,1.7-0.4,2.2C98.7,80.6,98.4,80.7,98.1,80.7z M88,66.6c-0.5,0-1-0.2-1.3-0.7l-5-7.1
						c-0.5-0.7-0.3-1.7,0.4-2.2c0.7-0.5,1.7-0.3,2.2,0.4l5,7.1c0.5,0.7,0.3,1.7-0.4,2.2C88.6,66.5,88.3,66.6,88,66.6z M77.9,52.4
						c-0.5,0-1-0.2-1.3-0.7l-5-7.1C71.1,44,71.3,43,72,42.5c0.7-0.5,1.7-0.3,2.2,0.4l5,7.1c0.5,0.7,0.3,1.7-0.4,2.2
						C78.5,52.3,78.2,52.4,77.9,52.4z"/>
				</g>
			</g>
			<g>
				<path class="st0" d="M168.1,252.8c-0.3,0-0.5-0.1-0.8-0.2L14.2,163.4c-0.7-0.4-0.9-1.2-0.7-1.9L63.7,32.3
					c0.2-0.4,0.5-0.8,0.9-0.9c0.4-0.1,0.9-0.1,1.3,0.1L219,120.7c0.7,0.4,0.9,1.2,0.7,1.9l-50.1,129.2c-0.2,0.4-0.5,0.8-0.9,0.9
					C168.5,252.8,168.3,252.8,168.1,252.8z M16.9,161.4L167.3,249l49-126.2L65.9,35.1L16.9,161.4z"/>
			</g>
		</g>
	</g>
	<g>
		<path class="st0" d="M269.1,194.9c-0.3,0-0.5-0.1-0.8-0.2l-7.4-4.3c-0.7-0.4-1-1.4-0.6-2.1c0.4-0.7,1.4-1,2.1-0.6l7.4,4.3
			c0.7,0.4,1,1.4,0.6,2.1C270.1,194.7,269.6,194.9,269.1,194.9z M253.6,185.9c-0.3,0-0.5-0.1-0.8-0.2l-8.1-4.7
			c-0.7-0.4-1-1.4-0.6-2.1c0.4-0.7,1.4-1,2.1-0.6l8.1,4.7c0.7,0.4,1,1.4,0.6,2.1C254.7,185.7,254.1,185.9,253.6,185.9z M237.4,176.5
			c-0.3,0-0.5-0.1-0.8-0.2l-8.1-4.7c-0.7-0.4-1-1.4-0.6-2.1c0.4-0.7,1.4-1,2.1-0.6l8.1,4.7c0.7,0.4,1,1.4,0.6,2.1
			C238.5,176.2,237.9,176.5,237.4,176.5z M221.2,167.1c-0.3,0-0.5-0.1-0.8-0.2l-8.1-4.7c-0.7-0.4-1-1.4-0.6-2.1
			c0.4-0.7,1.4-1,2.1-0.6l8.1,4.7c0.7,0.4,1,1.4,0.6,2.1C222.3,166.8,221.7,167.1,221.2,167.1z M205,157.6c-0.3,0-0.5-0.1-0.8-0.2
			l-8.1-4.7c-0.7-0.4-1-1.4-0.6-2.1c0.4-0.7,1.4-1,2.1-0.6l8.1,4.7c0.7,0.4,1,1.4,0.6,2.1C206.1,157.4,205.5,157.6,205,157.6z
			 M188.8,148.2c-0.3,0-0.5-0.1-0.8-0.2l-8.1-4.7c-0.7-0.4-1-1.4-0.6-2.1c0.4-0.7,1.4-1,2.1-0.6l8.1,4.7c0.7,0.4,1,1.4,0.6,2.1
			C189.9,147.9,189.3,148.2,188.8,148.2z M172.6,138.8c-0.3,0-0.5-0.1-0.8-0.2l-8.1-4.7c-0.7-0.4-1-1.4-0.6-2.1
			c0.4-0.7,1.4-1,2.1-0.6l8.1,4.7c0.7,0.4,1,1.4,0.6,2.1C173.7,138.5,173.1,138.8,172.6,138.8z M156.4,129.3c-0.3,0-0.5-0.1-0.8-0.2
			l-8.1-4.7c-0.7-0.4-1-1.4-0.6-2.1c0.4-0.7,1.4-1,2.1-0.6l8.1,4.7c0.7,0.4,1,1.4,0.6,2.1C157.5,129.1,157,129.3,156.4,129.3z
			 M140.2,119.9c-0.3,0-0.5-0.1-0.8-0.2l-8.1-4.7c-0.7-0.4-1-1.4-0.6-2.1c0.4-0.7,1.4-1,2.1-0.6l8.1,4.7c0.7,0.4,1,1.4,0.6,2.1
			C141.3,119.6,140.8,119.9,140.2,119.9z M124,110.5c-0.3,0-0.5-0.1-0.8-0.2l-8.1-4.7c-0.7-0.4-1-1.4-0.6-2.1c0.4-0.7,1.4-1,2.1-0.6
			l8.1,4.7c0.7,0.4,1,1.4,0.6,2.1C125.1,110.2,124.6,110.5,124,110.5z"/>
	</g>
</g>
</svg>
