<?xml version="1.0" encoding="utf-8"?>
<!-- Generator: Adobe Illustrator 22.1.0, SVG Export Plug-In . SVG Version: 6.00 Build 0)  -->
<svg version="1.1" id="Слой_1" xmlns="http://www.w3.org/2000/svg" xmlns:xlink="http://www.w3.org/1999/xlink" x="0px" y="0px"
	 viewBox="0 0 283.5 283.5" style="enable-background:new 0 0 283.5 283.5;" xml:space="preserve">
<style type="text/css">
	.st0{fill-rule:evenodd;clip-rule:evenodd;}
</style>
<g>
	<path class="st0" d="M172.3,128.3c-4.4-3.3-8.7-6.6-14.3-8.8c-5.4-2.2-9.8-3.2-16.4-3.2c-5.4,0-11,1-16.4,3.2
		c-4.4,2.2-9.8,5.5-13.1,8.8c-4.4,4.4-7.7,8.7-9.8,14.2c-2.3,4.4-3.3,9.9-3.3,16.4c0,5.5,1,10.9,3.3,16.4c2.1,4.4,5.4,9.9,9.8,13.1
		c3.3,4.5,8.7,7.7,13.1,9.9c5.4,2.2,11,3.3,16.4,3.3c6.6,0,11-1.1,16.4-3.3c5.6-2.2,10-5.4,14.3-9.9c3.3-3.2,6.6-8.7,8.7-13.1
		c2.3-5.5,3.3-10.9,3.3-16.4c0-6.6-1-12.1-3.3-16.4C178.9,137,175.6,132.7,172.3,128.3L172.3,128.3z M41.7,85.6
		c6.6,0,11,5.5,11,12.1c0,6.6-4.4,12.1-11,12.1c-7.7,0-12.1-5.5-12.1-12.1C29.6,91.1,34,85.6,41.7,85.6L41.7,85.6z M141.5,95.4
		c8.9,0,16.4,2.3,24.1,5.5l0,0c7.7,2.2,15.4,7.7,21,13.1l0,0c5.4,5.5,10.8,13.2,13.1,20.9h1c2.3,6.6,4.4,15.3,4.4,24.1
		c0,7.6-2.1,16.4-4.4,24.1h-1c-2.3,7.7-7.7,14.2-13.1,19.8l0,0l0,0c-5.6,6.6-13.3,10.9-21,14.2l0,0c-7.7,3.3-15.2,4.5-24.1,4.5
		c-8.7,0-16.4-1.1-24.1-4.5l0,0c-7.7-3.2-14.2-7.6-20.8-14.2l0,0c-5.4-5.5-10-12.1-13.1-19.8l0,0c-3.3-7.7-4.4-16.5-4.4-24.1
		c0-8.8,1.1-17.6,4.4-24.1l0,0c3.1-7.7,7.7-15.4,13.1-20.9l0,0l0,0c6.6-5.4,13.1-10.9,20.8-13.1l0,0
		C125.1,97.6,132.8,95.4,141.5,95.4L141.5,95.4z M18.6,72.5c-8.7,0-16.4,7.6-16.4,16.3V228c0,9.9,7.7,17.4,17.7,17.4h243.5
		c9.8,0,17.7-7.5,17.7-17.4V88.8c0-8.7-6.6-16.3-15.6-16.3h-64.7l-4.4-23.1c-1-6.6-6.6-10.9-13.1-10.9h-41.8H99.9
		c-5.6,0-11,4.4-12.1,10.9l-5.6,23.1H18.6z"/>
</g>
</svg>
