<?xml version="1.0" encoding="utf-8"?>
<!-- Generator: Adobe Illustrator 22.1.0, SVG Export Plug-In . SVG Version: 6.00 Build 0)  -->
<svg version="1.1" id="Слой_1" xmlns="http://www.w3.org/2000/svg" xmlns:xlink="http://www.w3.org/1999/xlink" x="0px" y="0px"
	 viewBox="0 0 283.5 283.5" style="enable-background:new 0 0 283.5 283.5;" xml:space="preserve">
<style type="text/css">
	.st0{fill-rule:evenodd;clip-rule:evenodd;fill:#0D0E0F;}
	.st1{fill-rule:evenodd;clip-rule:evenodd;fill:#FFFFFF;}
	.st2{fill-rule:evenodd;clip-rule:evenodd;fill:#535353;}
	.st3{fill-rule:evenodd;clip-rule:evenodd;fill:#161718;}
	.st4{fill-rule:evenodd;clip-rule:evenodd;fill:#686768;}
</style>
<g>
	<path class="st0" d="M46.7,232.7l-21-12.1c-3.5-2.1-4.7-6.6-2.7-10.1l59.1-102.4l21,12.1L44,222.6
		C41.9,226.2,43.1,230.6,46.7,232.7L46.7,232.7z"/>
	<path class="st1" d="M89.6,112.4l3.8,2.2L34.2,217c-0.7,1.2-0.7,3.3-0.1,5.3c0.4,2,1.4,3.8,2.7,4.5l-0.1,0.1l-7-4
		c-0.6-2.9-0.4-6,0.9-8.1"/>
	<path class="st2" d="M151.3,3l21,12.1c-3.6-2.1-8.1-0.9-10.1,2.7l-59.1,102.4l-21-12.1L141.2,5.7C143.3,2.1,147.7,1,151.3,3
		L151.3,3z"/>
	<path class="st1" d="M93.4,114.6l-3.8-2.2L148.7,10c1.2-2.1,3.8-3.8,6.6-4.7l0,0l7,4l-0.1,0.1c-1.2-0.8-3.2-0.7-5.1-0.1
		c-2,0.6-3.9,1.6-4.6,2.9"/>
	<path class="st3" d="M199.9,176.1l-59.2,102.4c-2,3.6-6.6,4.8-10,2.7l-84-48.4c-3.6-2.1-4.8-6.6-2.7-10.1l59.1-102.4L199.9,176.1z"
		/>
	<path class="st4" d="M172.3,15.1l83.9,48.4c3.6,2.1,4.8,6.6,2.8,10.1l-59.1,102.4l-96.8-55.9l59.1-102.4
		C164.2,14.2,168.8,13,172.3,15.1L172.3,15.1z"/>
</g>
</svg>
