<?xml version="1.0" encoding="utf-8"?>
<!-- Generator: Adobe Illustrator 22.1.0, SVG Export Plug-In . SVG Version: 6.00 Build 0)  -->
<svg version="1.1" id="Слой_1" xmlns="http://www.w3.org/2000/svg" xmlns:xlink="http://www.w3.org/1999/xlink" x="0px" y="0px"
	 viewBox="0 0 283.5 283.5" style="enable-background:new 0 0 283.5 283.5;" xml:space="preserve">
<style type="text/css">
	.st0{fill:#0E0F0F;}
</style>
<g>
	<g>
		<g>
			<g>
				<g>
					<path class="st0" d="M36.1,216c-0.4,0-0.9-0.2-1.2-0.5l-3.7-3.7c-0.3-0.3-0.5-0.8-0.5-1.2c0-0.5,0.2-0.9,0.5-1.2l3.7-3.7
						c0.7-0.7,1.8-0.7,2.5,0c0.7,0.7,0.7,1.8,0,2.5l-2.5,2.4l2.5,2.5c0.7,0.7,0.7,1.8,0,2.5C37,215.8,36.6,216,36.1,216z"/>
				</g>
				<g>
					<path class="st0" d="M241,201.4c-0.4,0-0.9-0.2-1.2-0.5l-7.2-7.1c-0.7-0.7-0.7-1.8,0-2.5c0.7-0.7,1.8-0.7,2.5,0l7.2,7.1
						c0.7,0.7,0.7,1.8,0,2.5C241.9,201.3,241.5,201.4,241,201.4z M43.3,201.4c-0.5,0-0.9-0.2-1.2-0.5c-0.7-0.7-0.7-1.8,0-2.5
						l7.2-7.1c0.7-0.7,1.8-0.7,2.5,0c0.7,0.7,0.7,1.8,0,2.5l-7.2,7.1C44.2,201.3,43.8,201.4,43.3,201.4z M226.6,187.2
						c-0.4,0-0.9-0.2-1.2-0.5l-7.2-7.1c-0.7-0.7-0.7-1.8,0-2.5c0.7-0.7,1.8-0.7,2.5,0l7.2,7.1c0.7,0.7,0.7,1.8,0,2.5
						C227.5,187,227,187.2,226.6,187.2z M57.8,187.2c-0.5,0-0.9-0.2-1.2-0.5c-0.7-0.7-0.7-1.8,0-2.5l7.2-7.1c0.7-0.7,1.8-0.7,2.5,0
						c0.7,0.7,0.7,1.8,0,2.5l-7.2,7.1C58.7,187,58.2,187.2,57.8,187.2z M212.2,172.9c-0.4,0-0.9-0.2-1.2-0.5l-7.2-7.1
						c-0.7-0.7-0.7-1.8,0-2.5c0.7-0.7,1.8-0.7,2.5,0l7.2,7.1c0.7,0.7,0.7,1.8,0,2.5C213.1,172.7,212.6,172.9,212.2,172.9z
						 M72.2,172.9c-0.5,0-0.9-0.2-1.2-0.5c-0.7-0.7-0.7-1.8,0-2.5l7.2-7.1c0.7-0.7,1.8-0.7,2.5,0c0.7,0.7,0.7,1.8,0,2.5l-7.2,7.1
						C73.1,172.7,72.6,172.9,72.2,172.9z M197.7,158.6c-0.4,0-0.9-0.2-1.2-0.5l-0.2-0.2h-8.5c-1,0-1.8-0.8-1.8-1.8
						c0-1,0.8-1.8,1.8-1.8h9.2c0.5,0,0.9,0.2,1.2,0.5l0.7,0.7c0.7,0.7,0.7,1.8,0,2.5C198.6,158.4,198.2,158.6,197.7,158.6z
						 M86.6,158.6c-0.5,0-0.9-0.2-1.2-0.5c-0.7-0.7-0.7-1.8,0-2.5l0.7-0.7c0.3-0.3,0.8-0.5,1.2-0.5h9.2c1,0,1.8,0.8,1.8,1.8
						c0,1-0.8,1.8-1.8,1.8l-8.6,0.2C87.5,158.4,87.1,158.6,86.6,158.6z M177.7,157.9h-10.2c-1,0-1.8-0.8-1.8-1.8
						c0-1,0.8-1.8,1.8-1.8h10.2c1,0,1.8,0.8,1.8,1.8C179.5,157.1,178.7,157.9,177.7,157.9z M157.4,157.9h-10.2c-1,0-1.8-0.8-1.8-1.8
						c0-1,0.8-1.8,1.8-1.8h10.2c1,0,1.8,0.8,1.8,1.8C159.2,157.1,158.4,157.9,157.4,157.9z M137.1,157.9H127c-1,0-1.8-0.8-1.8-1.8
						c0-1,0.8-1.8,1.8-1.8h10.2c1,0,1.8,0.8,1.8,1.8C138.9,157.1,138.1,157.9,137.1,157.9z M116.8,157.9h-10.2c-1,0-1.8-0.8-1.8-1.8
						c0-1,0.8-1.8,1.8-1.8h10.2c1,0,1.8,0.8,1.8,1.8C118.6,157.1,117.8,157.9,116.8,157.9z"/>
				</g>
				<g>
					<path class="st0" d="M248.2,216c-0.5,0-0.9-0.2-1.2-0.5c-0.7-0.7-0.7-1.8,0-2.5l2.5-2.5l-2.5-2.4c-0.7-0.7-0.7-1.8,0-2.5
						c0.7-0.7,1.8-0.7,2.5,0l3.7,3.7c0.3,0.3,0.5,0.8,0.5,1.2s-0.2,0.9-0.5,1.2l-3.7,3.7C249.1,215.8,248.7,216,248.2,216z"/>
				</g>
				<g>
					<path class="st0" d="M197.1,266.6h-9.2c-1,0-1.8-0.8-1.8-1.8c0-1,0.8-1.8,1.8-1.8l8.6-0.2c0.7-0.7,1.8-0.7,2.5,0
						c0.7,0.7,0.7,1.8,0,2.5l-0.7,0.7C198,266.4,197.5,266.6,197.1,266.6z M177.7,266.6h-10.2c-1,0-1.8-0.8-1.8-1.8
						c0-1,0.8-1.8,1.8-1.8h10.2c1,0,1.8,0.8,1.8,1.8C179.5,265.8,178.7,266.6,177.7,266.6z M157.4,266.6h-10.1c-1,0-1.8-0.8-1.8-1.8
						c0-1,0.8-1.8,1.8-1.8h10.1c1,0,1.8,0.8,1.8,1.8C159.2,265.8,158.4,266.6,157.4,266.6z M137.1,266.6H127c-1,0-1.8-0.8-1.8-1.8
						c0-1,0.8-1.8,1.8-1.8h10.2c1,0,1.8,0.8,1.8,1.8C138.9,265.8,138.1,266.6,137.1,266.6z M116.8,266.6h-10.2c-1,0-1.8-0.8-1.8-1.8
						c0-1,0.8-1.8,1.8-1.8h10.2c1,0,1.8,0.8,1.8,1.8C118.6,265.8,117.8,266.6,116.8,266.6z M96.5,266.6h-9.2c-0.5,0-0.9-0.2-1.2-0.5
						l-0.7-0.7c-0.7-0.7-0.7-1.8,0-2.5c0.7-0.7,1.8-0.7,2.5,0l0.2,0.2h8.5c1,0,1.8,0.8,1.8,1.8C98.2,265.8,97.5,266.6,96.5,266.6z
						 M205,258.8c-0.5,0-0.9-0.2-1.2-0.5c-0.7-0.7-0.7-1.8,0-2.5l7.2-7.1c0.7-0.7,1.8-0.7,2.5,0c0.7,0.7,0.7,1.8,0,2.5l-7.2,7.1
						C205.8,258.7,205.4,258.8,205,258.8z M79.4,258.8c-0.4,0-0.9-0.2-1.2-0.5l-7.2-7.1c-0.7-0.7-0.7-1.8,0-2.5
						c0.7-0.7,1.8-0.7,2.5,0l7.2,7.1c0.7,0.7,0.7,1.8,0,2.5C80.3,258.7,79.9,258.8,79.4,258.8z M219.4,244.5c-0.5,0-0.9-0.2-1.2-0.5
						c-0.7-0.7-0.7-1.8,0-2.5l7.2-7.1c0.7-0.7,1.8-0.7,2.5,0c0.7,0.7,0.7,1.8,0,2.5l-7.2,7.1C220.3,244.4,219.8,244.5,219.4,244.5z
						 M65,244.5c-0.4,0-0.9-0.2-1.2-0.5l-7.2-7.1c-0.7-0.7-0.7-1.8,0-2.5c0.7-0.7,1.8-0.7,2.5,0l7.2,7.1c0.7,0.7,0.7,1.8,0,2.5
						C65.9,244.4,65.4,244.5,65,244.5z M233.8,230.3c-0.5,0-0.9-0.2-1.2-0.5c-0.7-0.7-0.7-1.8,0-2.5l7.2-7.1c0.7-0.7,1.8-0.7,2.5,0
						c0.7,0.7,0.7,1.8,0,2.5l-7.2,7.1C234.7,230.1,234.3,230.3,233.8,230.3z M50.6,230.3c-0.4,0-0.9-0.2-1.2-0.5l-7.2-7.1
						c-0.7-0.7-0.7-1.8,0-2.5c0.7-0.7,1.8-0.7,2.5,0l7.2,7.1c0.7,0.7,0.7,1.8,0,2.5C51.5,230.1,51,230.3,50.6,230.3z"/>
				</g>
			</g>
			<g>
				<path class="st0" d="M197.1,128.2H87.3c-0.5,0-0.9-0.2-1.2-0.5L31.2,73.4c-0.3-0.3-0.5-0.8-0.5-1.2c0-0.5,0.2-0.9,0.5-1.2
					l54.9-54.4c0.3-0.3,0.8-0.5,1.2-0.5h109.8c0.5,0,0.9,0.2,1.2,0.5l54.9,54.4c0.3,0.3,0.5,0.8,0.5,1.2c0,0.5-0.2,0.9-0.5,1.2
					l-54.9,54.4C198,128,197.5,128.2,197.1,128.2z M88,124.7h108.3l53.1-52.6l-53.1-52.6H88L34.9,72.1L88,124.7z"/>
			</g>
			<g>
				<path class="st0" d="M197.1,266.6H87.3c-1,0-1.8-0.8-1.8-1.8V127.3c0-1,0.8-1.8,1.8-1.8h109.8c1,0,1.8,0.8,1.8,1.8v137.5
					C198.8,265.8,198,266.6,197.1,266.6z M89,263.1h106.3v-134H89V263.1z"/>
			</g>
			<g>
				<path class="st0" d="M197.1,266.6c-0.2,0-0.5,0-0.7-0.1c-0.7-0.3-1.1-0.9-1.1-1.6V127.3c0-0.5,0.2-0.9,0.5-1.2l54.9-55.2
					c0.5-0.5,1.3-0.7,1.9-0.4c0.7,0.3,1.1,0.9,1.1,1.6v138.4c0,0.5-0.2,0.9-0.5,1.2l-54.9,54.4C198,266.5,197.5,266.6,197.1,266.6z
					 M198.8,128.1v132.6l51.4-50.9V76.3L198.8,128.1z"/>
			</g>
			<g>
				<path class="st0" d="M87.3,266.6c-0.5,0-0.9-0.2-1.2-0.5l-54.9-54.4c-0.3-0.3-0.5-0.8-0.5-1.2V72.1c0-0.7,0.4-1.3,1.1-1.6
					c0.7-0.3,1.4-0.1,1.9,0.4l54.9,55.2c0.3,0.3,0.5,0.8,0.5,1.2v137.5c0,0.7-0.4,1.3-1.1,1.6C87.7,266.6,87.5,266.6,87.3,266.6z
					 M34.1,209.8l51.4,50.9V128.1L34.1,76.3V209.8z"/>
			</g>
		</g>
	</g>
	<g>
		<path class="st0" d="M87.3,129.1c-1,0-1.8-0.8-1.8-1.8v-4.6c0-1,0.8-1.8,1.8-1.8c1,0,1.8,0.8,1.8,1.8v4.6
			C89,128.3,88.3,129.1,87.3,129.1z M87.3,114c-1,0-1.8-0.8-1.8-1.8v-10.5c0-1,0.8-1.8,1.8-1.8c1,0,1.8,0.8,1.8,1.8v10.5
			C89,113.2,88.3,114,87.3,114z M87.3,93c-1,0-1.8-0.8-1.8-1.8V80.8c0-1,0.8-1.8,1.8-1.8c1,0,1.8,0.8,1.8,1.8v10.5
			C89,92.2,88.3,93,87.3,93z M87.3,72c-1,0-1.8-0.8-1.8-1.8V59.8c0-1,0.8-1.8,1.8-1.8c1,0,1.8,0.8,1.8,1.8v10.5
			C89,71.2,88.3,72,87.3,72z M87.3,51c-1,0-1.8-0.8-1.8-1.8V38.8c0-1,0.8-1.8,1.8-1.8c1,0,1.8,0.8,1.8,1.8v10.5
			C89,50.2,88.3,51,87.3,51z M87.3,30c-1,0-1.8-0.8-1.8-1.8V17.8c0-1,0.8-1.8,1.8-1.8c1,0,1.8,0.8,1.8,1.8v10.5
			C89,29.2,88.3,30,87.3,30z"/>
	</g>
	<g>
		<path class="st0" d="M197.1,129.1c-1,0-1.8-0.8-1.8-1.8v-4.6c0-1,0.8-1.8,1.8-1.8c1,0,1.8,0.8,1.8,1.8v4.6
			C198.8,128.3,198,129.1,197.1,129.1z M197.1,114c-1,0-1.8-0.8-1.8-1.8v-10.5c0-1,0.8-1.8,1.8-1.8c1,0,1.8,0.8,1.8,1.8v10.5
			C198.8,113.2,198,114,197.1,114z M197.1,93c-1,0-1.8-0.8-1.8-1.8V80.8c0-1,0.8-1.8,1.8-1.8c1,0,1.8,0.8,1.8,1.8v10.5
			C198.8,92.2,198,93,197.1,93z M197.1,72c-1,0-1.8-0.8-1.8-1.8V59.8c0-1,0.8-1.8,1.8-1.8c1,0,1.8,0.8,1.8,1.8v10.5
			C198.8,71.2,198,72,197.1,72z M197.1,51c-1,0-1.8-0.8-1.8-1.8V38.8c0-1,0.8-1.8,1.8-1.8c1,0,1.8,0.8,1.8,1.8v10.5
			C198.8,50.2,198,51,197.1,51z M197.1,30c-1,0-1.8-0.8-1.8-1.8V17.8c0-1,0.8-1.8,1.8-1.8c1,0,1.8,0.8,1.8,1.8v10.5
			C198.8,29.2,198,30,197.1,30z"/>
	</g>
</g>
</svg>
