<?xml version="1.0" encoding="utf-8"?>
<!-- Generator: Adobe Illustrator 22.1.0, SVG Export Plug-In . SVG Version: 6.00 Build 0)  -->
<svg version="1.1" id="Слой_1" xmlns="http://www.w3.org/2000/svg" xmlns:xlink="http://www.w3.org/1999/xlink" x="0px" y="0px"
	 viewBox="0 0 283.5 283.5" style="enable-background:new 0 0 283.5 283.5;" xml:space="preserve">
<style type="text/css">
	.st0{fill:#0E0F0F;}
</style>
<g>
	<g>
		<g>
			<g>
				<g>
					<path class="st0" d="M140.5,215.6c-0.2,0-0.4,0-0.6-0.1l-3-1.7c-0.5-0.3-0.7-1-0.4-1.5c0.3-0.5,1-0.7,1.5-0.4l2.4,1.4l2.4-1.4
						c0.5-0.3,1.2-0.1,1.5,0.4c0.3,0.5,0.1,1.2-0.4,1.5l-3,1.7C140.9,215.6,140.7,215.6,140.5,215.6z"/>
				</g>
				<g>
					<path class="st0" d="M131.4,210.4c-0.2,0-0.4,0-0.6-0.1l-6.1-3.5c-0.5-0.3-0.7-1-0.4-1.5c0.3-0.5,1-0.7,1.5-0.4l6.1,3.5
						c0.5,0.3,0.7,1,0.4,1.5C132.2,210.2,131.8,210.4,131.4,210.4z M119.1,203.4c-0.2,0-0.4,0-0.6-0.1l-6.1-3.5
						c-0.5-0.3-0.7-1-0.4-1.5c0.3-0.5,1-0.7,1.5-0.4l6.1,3.5c0.5,0.3,0.7,1,0.4,1.5C119.9,203.2,119.5,203.4,119.1,203.4z
						 M106.8,196.4c-0.2,0-0.4,0-0.6-0.1l-6.1-3.5c-0.5-0.3-0.7-1-0.4-1.5c0.3-0.5,1-0.7,1.5-0.4l6.1,3.5c0.5,0.3,0.7,1,0.4,1.5
						C107.6,196.2,107.2,196.4,106.8,196.4z M94.5,189.3c-0.2,0-0.4,0-0.6-0.1l-6.1-3.5c-0.5-0.3-0.7-1-0.4-1.5
						c0.3-0.5,1-0.7,1.5-0.4l6.1,3.5c0.5,0.3,0.7,1,0.4,1.5C95.3,189.1,94.9,189.3,94.5,189.3z M82.2,182.3c-0.2,0-0.4,0-0.6-0.1
						l-6.1-3.5c-0.5-0.3-0.7-1-0.4-1.5c0.3-0.5,1-0.7,1.5-0.4l6.1,3.5c0.5,0.3,0.7,1,0.4,1.5C83,182.1,82.6,182.3,82.2,182.3z
						 M69.9,175.3c-0.2,0-0.4,0-0.6-0.1l-6.1-3.5c-0.5-0.3-0.7-1-0.4-1.5c0.3-0.5,1-0.7,1.5-0.4l6.1,3.5c0.5,0.3,0.7,1,0.4,1.5
						C70.7,175.1,70.3,175.3,69.9,175.3z"/>
				</g>
				<g>
					<path class="st0" d="M57.6,168.2c-0.2,0-0.4,0-0.6-0.1l-3-1.7c-0.4-0.2-0.6-0.6-0.6-1c0-0.4,0.2-0.8,0.6-1l3-1.7
						c0.5-0.3,1.2-0.1,1.5,0.4c0.3,0.5,0.1,1.2-0.4,1.5l-1.2,0.7l1.2,0.7c0.5,0.3,0.7,1,0.4,1.5C58.4,168,58,168.2,57.6,168.2z"/>
				</g>
				<g>
					<path class="st0" d="M63.8,161.3c-0.4,0-0.8-0.2-1-0.6c-0.3-0.5-0.1-1.2,0.4-1.5l6.1-3.5c0.5-0.3,1.2-0.1,1.5,0.4
						c0.3,0.5,0.1,1.2-0.4,1.5l-6.1,3.5C64.2,161.3,64,161.3,63.8,161.3z M76.1,154.3c-0.4,0-0.8-0.2-1-0.6
						c-0.3-0.5-0.1-1.2,0.4-1.5l6.1-3.5c0.5-0.3,1.2-0.1,1.5,0.4c0.3,0.5,0.1,1.2-0.4,1.5l-6.1,3.5
						C76.5,154.3,76.3,154.3,76.1,154.3z M88.4,147.3c-0.4,0-0.8-0.2-1-0.6c-0.3-0.5-0.1-1.2,0.4-1.5l6.1-3.5
						c0.5-0.3,1.2-0.1,1.5,0.4c0.3,0.5,0.1,1.2-0.4,1.5l-6.1,3.5C88.8,147.2,88.6,147.3,88.4,147.3z M100.7,140.3
						c-0.4,0-0.8-0.2-1-0.6c-0.3-0.5-0.1-1.2,0.4-1.5l6.1-3.5c0.5-0.3,1.2-0.1,1.5,0.4c0.3,0.5,0.1,1.2-0.4,1.5l-6.1,3.5
						C101.1,140.2,100.9,140.3,100.7,140.3z M113,133.2c-0.4,0-0.8-0.2-1-0.6c-0.3-0.5-0.1-1.2,0.4-1.5l6.1-3.5
						c0.5-0.3,1.2-0.1,1.5,0.4c0.3,0.5,0.1,1.2-0.4,1.5l-6.1,3.5C113.4,133.2,113.2,133.2,113,133.2z M125.3,126.2
						c-0.4,0-0.8-0.2-1-0.6c-0.3-0.5-0.1-1.2,0.4-1.5l6.1-3.5c0.5-0.3,1.2-0.1,1.5,0.4c0.3,0.5,0.1,1.2-0.4,1.5l-6.1,3.5
						C125.7,126.1,125.5,126.2,125.3,126.2z"/>
				</g>
				<g>
					<path class="st0" d="M143.5,119.2c-0.2,0-0.4,0-0.6-0.1l-2.4-1.4l-2.4,1.4c-0.5,0.3-1.2,0.1-1.5-0.4c-0.3-0.5-0.1-1.2,0.4-1.5
						l3-1.7c0.3-0.2,0.8-0.2,1.1,0l3,1.7c0.5,0.3,0.7,1,0.4,1.5C144.2,119,143.9,119.2,143.5,119.2z"/>
				</g>
				<g>
					<path class="st0" d="M217.3,161.3c-0.2,0-0.4,0-0.6-0.1l-6.1-3.5c-0.5-0.3-0.7-1-0.4-1.5c0.3-0.5,1-0.7,1.5-0.4l6.1,3.5
						c0.5,0.3,0.7,1,0.4,1.5C218,161.1,217.7,161.3,217.3,161.3z M205,154.3c-0.2,0-0.4,0-0.6-0.1l-6.1-3.5c-0.5-0.3-0.7-1-0.4-1.5
						c0.3-0.5,1-0.7,1.5-0.4l6.1,3.5c0.5,0.3,0.7,1,0.4,1.5C205.7,154.1,205.4,154.3,205,154.3z M192.7,147.3c-0.2,0-0.4,0-0.6-0.1
						l-6.1-3.5c-0.5-0.3-0.7-1-0.4-1.5c0.3-0.5,1-0.7,1.5-0.4l6.1,3.5c0.5,0.3,0.7,1,0.4,1.5C193.4,147.1,193.1,147.3,192.7,147.3z
						 M180.4,140.3c-0.2,0-0.4,0-0.6-0.1l-6.1-3.5c-0.5-0.3-0.7-1-0.4-1.5c0.3-0.5,1-0.7,1.5-0.4l6.1,3.5c0.5,0.3,0.7,1,0.4,1.5
						C181.1,140,180.8,140.3,180.4,140.3z M168.1,133.2c-0.2,0-0.4,0-0.6-0.1l-6.1-3.5c-0.5-0.3-0.7-1-0.4-1.5
						c0.3-0.5,1-0.7,1.5-0.4l6.1,3.5c0.5,0.3,0.7,1,0.4,1.5C168.8,133,168.5,133.2,168.1,133.2z M155.8,126.2c-0.2,0-0.4,0-0.6-0.1
						l-6.1-3.5c-0.5-0.3-0.7-1-0.4-1.5c0.3-0.5,1-0.7,1.5-0.4l6.1,3.5c0.5,0.3,0.7,1,0.4,1.5C156.5,126,156.2,126.2,155.8,126.2z"/>
				</g>
				<g>
					<path class="st0" d="M223.4,168.2c-0.4,0-0.8-0.2-1-0.6c-0.3-0.5-0.1-1.2,0.4-1.5l1.2-0.7l-1.2-0.7c-0.5-0.3-0.7-1-0.4-1.5
						c0.3-0.5,1-0.7,1.5-0.4l3,1.7c0.4,0.2,0.6,0.6,0.6,1c0,0.4-0.2,0.8-0.6,1l-3,1.7C223.8,168.2,223.6,168.2,223.4,168.2z"/>
				</g>
				<g>
					<path class="st0" d="M149.6,210.4c-0.4,0-0.8-0.2-1-0.6c-0.3-0.5-0.1-1.2,0.4-1.5l6.1-3.5c0.5-0.3,1.2-0.1,1.5,0.4
						c0.3,0.5,0.1,1.2-0.4,1.5l-6.1,3.5C150,210.4,149.8,210.4,149.6,210.4z M161.9,203.4c-0.4,0-0.8-0.2-1-0.6
						c-0.3-0.5-0.1-1.2,0.4-1.5l6.1-3.5c0.5-0.3,1.2-0.1,1.5,0.4c0.3,0.5,0.1,1.2-0.4,1.5l-6.1,3.5
						C162.3,203.3,162.1,203.4,161.9,203.4z M174.2,196.4c-0.4,0-0.8-0.2-1-0.6c-0.3-0.5-0.1-1.2,0.4-1.5l6.1-3.5
						c0.5-0.3,1.2-0.1,1.5,0.4c0.3,0.5,0.1,1.2-0.4,1.5l-6.1,3.5C174.6,196.3,174.4,196.4,174.2,196.4z M186.5,189.3
						c-0.4,0-0.8-0.2-1-0.6c-0.3-0.5-0.1-1.2,0.4-1.5l6.1-3.5c0.5-0.3,1.2-0.1,1.5,0.4c0.3,0.5,0.1,1.2-0.4,1.5l-6.1,3.5
						C186.9,189.3,186.7,189.3,186.5,189.3z M198.8,182.3c-0.4,0-0.8-0.2-1-0.6c-0.3-0.5-0.1-1.2,0.4-1.5l6.1-3.5
						c0.5-0.3,1.2-0.1,1.5,0.4c0.3,0.5,0.1,1.2-0.4,1.5l-6.1,3.5C199.2,182.3,199,182.3,198.8,182.3z M211.1,175.3
						c-0.4,0-0.8-0.2-1-0.6c-0.3-0.5-0.1-1.2,0.4-1.5l6.1-3.5c0.5-0.3,1.2-0.1,1.5,0.4c0.3,0.5,0.1,1.2-0.4,1.5l-6.1,3.5
						C211.5,175.2,211.3,175.3,211.1,175.3z"/>
				</g>
			</g>
			<g>
				<path class="st0" d="M140.5,215.6c-0.2,0-0.4,0-0.6-0.1l-85.8-49.1c-0.3-0.2-0.5-0.4-0.5-0.7c-0.1-0.3,0-0.6,0.2-0.9l85.8-120
					c0.4-0.6,1.4-0.6,1.8,0l85.8,120c0.2,0.3,0.3,0.6,0.2,0.9c-0.1,0.3-0.3,0.6-0.5,0.7l-85.8,49.1
					C140.9,215.6,140.7,215.6,140.5,215.6z M56.3,165.1l84.2,48.1l84.2-48.1L140.5,47.3L56.3,165.1z"/>
			</g>
		</g>
		<g>
			<path class="st0" d="M140.5,215.6c-0.2,0-0.4,0-0.6-0.1l-85.8-49.1c-0.3-0.2-0.5-0.4-0.5-0.7c-0.1-0.3,0-0.6,0.2-0.9l85.8-120
				c0.3-0.4,0.8-0.6,1.3-0.4c0.5,0.2,0.8,0.6,0.8,1.1v169.1c0,0.4-0.2,0.8-0.6,1C140.9,215.6,140.7,215.6,140.5,215.6z M56.3,165.1
				l83.1,47.5V48.9L56.3,165.1z"/>
		</g>
	</g>
</g>
</svg>
