<?xml version="1.0" encoding="utf-8"?>
<!-- Generator: Adobe Illustrator 22.1.0, SVG Export Plug-In . SVG Version: 6.00 Build 0)  -->
<svg version="1.1" id="Слой_1" xmlns="http://www.w3.org/2000/svg" xmlns:xlink="http://www.w3.org/1999/xlink" x="0px" y="0px"
	 viewBox="0 0 283.5 283.5" style="enable-background:new 0 0 283.5 283.5;" xml:space="preserve">
<style type="text/css">
	.st0{fill:#0E0F0F;}
</style>
<g>
	<g>
		<path class="st0" d="M142,252.2c-61,0-110.7-49.6-110.7-110.7C31.4,80.5,81,30.9,142,30.9c61,0,110.7,49.6,110.7,110.7
			C252.7,202.6,203.1,252.2,142,252.2z M142,33.8c-59.4,0-107.7,48.3-107.7,107.7c0,59.4,48.3,107.7,107.7,107.7
			c59.4,0,107.7-48.3,107.7-107.7C249.7,82.2,201.4,33.8,142,33.8z"/>
	</g>
	<g>
		<path class="st0" d="M142,199.5c-61,0-110.7-26-110.7-58c0-0.8,0.7-1.5,1.5-1.5c0.8,0,1.5,0.7,1.5,1.5c0,30.3,48.3,55,107.7,55
			c59.4,0,107.7-24.7,107.7-55c0-0.8,0.7-1.5,1.5-1.5c0.8,0,1.5,0.7,1.5,1.5C252.7,173.5,203.1,199.5,142,199.5z"/>
	</g>
	<g>
		<path class="st0" d="M32.9,143c-0.8,0-1.5-0.7-1.5-1.5c0-3.1,0.5-6.2,1.4-9.2c0.2-0.8,1.1-1.2,1.8-1c0.8,0.2,1.2,1.1,1,1.9
			c-0.8,2.7-1.2,5.5-1.2,8.3C34.4,142.4,33.7,143,32.9,143z M250,134.7c-0.6,0-1.2-0.4-1.4-1.1c-0.8-2.6-1.9-5.3-3.4-7.8
			c-0.4-0.7-0.2-1.6,0.5-2c0.7-0.4,1.6-0.2,2,0.5c1.6,2.8,2.9,5.6,3.7,8.5c0.2,0.8-0.2,1.6-1,1.8C250.3,134.6,250.2,134.7,250,134.7
			z M37.8,126.2c-0.3,0-0.5-0.1-0.8-0.2c-0.7-0.4-0.9-1.3-0.5-2c1.5-2.5,3.4-5,5.5-7.3c0.6-0.6,1.5-0.6,2.1-0.1
			c0.6,0.6,0.7,1.5,0.1,2.1c-2,2.2-3.8,4.5-5.2,6.9C38.8,125.9,38.3,126.2,37.8,126.2z M241.2,119.4c-0.4,0-0.8-0.2-1.1-0.5
			c-1.8-2.1-3.9-4.1-6.3-6c-0.6-0.5-0.7-1.5-0.2-2.1c0.5-0.6,1.5-0.7,2.1-0.2c2.4,2,4.6,4.1,6.6,6.3c0.5,0.6,0.5,1.6-0.1,2.1
			C241.9,119.2,241.6,119.4,241.2,119.4z M49.6,112.9c-0.4,0-0.9-0.2-1.1-0.5c-0.5-0.6-0.4-1.6,0.2-2.1c2.2-1.8,4.7-3.6,7.3-5.3
			c0.7-0.4,1.6-0.3,2.1,0.4c0.4,0.7,0.2,1.6-0.4,2.1c-2.5,1.6-4.9,3.4-7.1,5.1C50.3,112.8,49.9,112.9,49.6,112.9z M227.6,107.9
			c-0.3,0-0.6-0.1-0.8-0.2c-2.4-1.5-4.9-3-7.6-4.4c-0.7-0.4-1-1.3-0.6-2c0.4-0.7,1.3-1,2-0.6c2.7,1.4,5.4,3,7.8,4.6
			c0.7,0.4,0.9,1.4,0.4,2.1C228.6,107.7,228.1,107.9,227.6,107.9z M64.5,103.2c-0.5,0-1.1-0.3-1.3-0.8c-0.4-0.7-0.1-1.6,0.6-2
			c2.6-1.3,5.3-2.6,8.2-3.9c0.8-0.3,1.6,0,2,0.8c0.3,0.8,0,1.6-0.8,2c-2.8,1.2-5.4,2.4-8,3.8C65,103.2,64.8,103.2,64.5,103.2z
			 M211.9,99.6c-0.2,0-0.4,0-0.6-0.1c-2.6-1.1-5.4-2.2-8.2-3.2c-0.8-0.3-1.2-1.1-0.9-1.9c0.3-0.8,1.1-1.2,1.9-0.9
			c2.9,1,5.7,2.1,8.4,3.3c0.8,0.3,1.1,1.2,0.8,2C213,99.2,212.5,99.6,211.9,99.6z M80.9,96.2c-0.6,0-1.2-0.4-1.4-1
			c-0.3-0.8,0.1-1.6,0.9-1.9c2.8-1,5.6-1.9,8.6-2.7c0.8-0.2,1.6,0.2,1.8,1c0.2,0.8-0.2,1.6-1,1.8c-2.9,0.8-5.7,1.7-8.4,2.7
			C81.2,96.2,81.1,96.2,80.9,96.2z M195.1,93.6c-0.1,0-0.3,0-0.4-0.1c-2.8-0.8-5.6-1.5-8.6-2.2c-0.8-0.2-1.3-1-1.1-1.8
			c0.2-0.8,1-1.3,1.8-1.1c3,0.7,5.9,1.4,8.7,2.3c0.8,0.2,1.2,1.1,1,1.8C196.3,93.2,195.8,93.6,195.1,93.6z M98,91.3
			c-0.7,0-1.3-0.5-1.4-1.2c-0.2-0.8,0.3-1.6,1.1-1.8c2.9-0.7,5.8-1.3,8.8-1.8c0.8-0.1,1.6,0.4,1.7,1.2c0.1,0.8-0.4,1.6-1.2,1.7
			c-2.9,0.5-5.9,1.1-8.7,1.8C98.2,91.3,98.1,91.3,98,91.3z M177.7,89.6c-0.1,0-0.2,0-0.3,0c-2.9-0.5-5.8-1-8.7-1.4
			c-0.8-0.1-1.4-0.9-1.3-1.7c0.1-0.8,0.9-1.4,1.7-1.3c3,0.4,6,0.9,8.9,1.4c0.8,0.1,1.3,0.9,1.2,1.7
			C179.1,89.1,178.5,89.6,177.7,89.6z M115.6,88.2c-0.7,0-1.4-0.5-1.5-1.3c-0.1-0.8,0.5-1.6,1.3-1.7c2.9-0.4,5.9-0.7,8.9-0.9
			c0.8-0.1,1.5,0.5,1.6,1.4c0.1,0.8-0.5,1.5-1.4,1.6c-2.9,0.2-5.9,0.6-8.8,0.9C115.7,88.2,115.6,88.2,115.6,88.2z M160.1,87.3
			c0,0-0.1,0-0.1,0c-2.9-0.2-5.9-0.4-8.8-0.6c-0.8,0-1.5-0.7-1.4-1.5c0-0.8,0.7-1.5,1.5-1.4c3,0.1,6,0.3,9,0.6
			c0.8,0.1,1.4,0.8,1.4,1.6C161.5,86.7,160.8,87.3,160.1,87.3z M133.3,86.7c-0.8,0-1.5-0.6-1.5-1.4c0-0.8,0.6-1.5,1.4-1.5
			c2.9-0.1,5.8-0.2,8.8-0.2l0.2,1.5v1.5C139.1,86.5,136.3,86.6,133.3,86.7C133.4,86.7,133.4,86.7,133.3,86.7z"/>
	</g>
</g>
</svg>
