<?xml version="1.0" encoding="utf-8"?>
<!-- Generator: Adobe Illustrator 22.1.0, SVG Export Plug-In . SVG Version: 6.00 Build 0)  -->
<svg version="1.1" id="Слой_1" xmlns="http://www.w3.org/2000/svg" xmlns:xlink="http://www.w3.org/1999/xlink" x="0px" y="0px"
	 viewBox="0 0 283.5 283.5" style="enable-background:new 0 0 283.5 283.5;" xml:space="preserve">
<style type="text/css">
	.st0{fill:#0E0F0F;}
</style>
<g>
	<g>
		<g>
			<g>
				<g>
					<path class="st0" d="M141.6,271.4c-0.3,0-0.5-0.1-0.7-0.2L137,269c-0.7-0.4-1-1.3-0.6-2c0.4-0.7,1.3-1,2-0.5l3.1,1.8l3.1-1.8
						c0.7-0.4,1.6-0.2,2,0.6c0.4,0.7,0.2,1.6-0.6,2l-3.9,2.2C142.1,271.3,141.9,271.4,141.6,271.4z"/>
				</g>
				<g>
					<path class="st0" d="M129.7,264.6c-0.3,0-0.5-0.1-0.7-0.2l-8-4.6c-0.7-0.4-1-1.3-0.6-2c0.4-0.7,1.3-1,2-0.6l8,4.6
						c0.7,0.4,1,1.3,0.6,2C130.7,264.3,130.2,264.6,129.7,264.6z M113.6,255.4c-0.3,0-0.5-0.1-0.7-0.2l-8-4.6c-0.7-0.4-1-1.3-0.5-2
						c0.4-0.7,1.3-1,2-0.6l8,4.6c0.7,0.4,1,1.3,0.5,2C114.6,255.1,114.1,255.4,113.6,255.4z M97.5,246.2c-0.3,0-0.5-0.1-0.7-0.2
						l-8-4.6c-0.7-0.4-1-1.3-0.5-2c0.4-0.7,1.3-1,2-0.6l8,4.6c0.7,0.4,1,1.3,0.5,2C98.5,245.9,98,246.2,97.5,246.2z M81.4,237
						c-0.3,0-0.5-0.1-0.7-0.2l-8-4.6c-0.7-0.4-1-1.3-0.6-2c0.4-0.7,1.3-1,2-0.6l8,4.6c0.7,0.4,1,1.3,0.6,2
						C82.5,236.7,82,237,81.4,237z M65.4,227.8c-0.3,0-0.5-0.1-0.7-0.2l-8-4.6c-0.7-0.4-1-1.3-0.6-2c0.4-0.7,1.3-1,2-0.6l8,4.6
						c0.7,0.4,1,1.3,0.6,2C66.4,227.5,65.9,227.8,65.4,227.8z M49.3,218.6c-0.3,0-0.5-0.1-0.7-0.2l-8-4.6c-0.7-0.4-1-1.3-0.5-2
						c0.4-0.7,1.3-1,2-0.6l8,4.6c0.7,0.4,1,1.3,0.6,2C50.3,218.3,49.8,218.6,49.3,218.6z"/>
				</g>
				<g>
					<path class="st0" d="M33.2,209.4c-0.3,0-0.5-0.1-0.7-0.2l-3.9-2.2c-0.5-0.3-0.7-0.8-0.7-1.3s0.3-1,0.7-1.3l3.9-2.2
						c0.7-0.4,1.6-0.2,2,0.6c0.4,0.7,0.2,1.6-0.6,2l-1.6,0.9l1.6,0.9c0.7,0.4,1,1.3,0.6,2C34.2,209.1,33.7,209.4,33.2,209.4z"/>
				</g>
				<g>
					<path class="st0" d="M41.2,200.4c-0.5,0-1-0.3-1.3-0.7c-0.4-0.7-0.2-1.6,0.5-2l8-4.6c0.7-0.4,1.6-0.2,2,0.6
						c0.4,0.7,0.2,1.6-0.6,2l-8,4.6C41.7,200.3,41.5,200.4,41.2,200.4z M57.3,191.2c-0.5,0-1-0.3-1.3-0.7c-0.4-0.7-0.2-1.6,0.6-2
						l8-4.6c0.7-0.4,1.6-0.2,2,0.6c0.4,0.7,0.2,1.6-0.5,2l-8,4.6C57.8,191.1,57.6,191.2,57.3,191.2z M73.4,182c-0.5,0-1-0.3-1.3-0.7
						c-0.4-0.7-0.2-1.6,0.6-2l8-4.6c0.7-0.4,1.6-0.2,2,0.6c0.4,0.7,0.2,1.6-0.6,2l-8,4.6C73.9,181.9,73.7,182,73.4,182z M89.5,172.8
						c-0.5,0-1-0.3-1.3-0.7c-0.4-0.7-0.2-1.6,0.5-2l8-4.6c0.7-0.4,1.6-0.2,2,0.6c0.4,0.7,0.2,1.6-0.5,2l-8,4.6
						C90,172.7,89.7,172.8,89.5,172.8z M105.6,163.6c-0.5,0-1-0.3-1.3-0.7c-0.4-0.7-0.2-1.6,0.6-2l8-4.6c0.7-0.4,1.6-0.2,2,0.6
						c0.4,0.7,0.2,1.6-0.6,2l-8,4.6C106.1,163.5,105.8,163.6,105.6,163.6z M121.7,154.4c-0.5,0-1-0.3-1.3-0.7
						c-0.4-0.7-0.2-1.6,0.6-2l8-4.6c0.7-0.4,1.6-0.2,2,0.6c0.4,0.7,0.2,1.6-0.6,2l-8,4.6C122.2,154.3,121.9,154.4,121.7,154.4z"/>
				</g>
				<g>
					<path class="st0" d="M137.7,145.2c-0.5,0-1-0.3-1.3-0.7c-0.4-0.7-0.2-1.6,0.6-2l3.9-2.2c0.5-0.3,1-0.3,1.5,0l3.9,2.2
						c0.7,0.4,1,1.3,0.6,2c-0.4,0.7-1.3,1-2,0.6l-3.1-1.8l-3.1,1.8C138.2,145.1,138,145.2,137.7,145.2z"/>
				</g>
				<g>
					<path class="st0" d="M242,200.4c-0.3,0-0.5-0.1-0.7-0.2l-8-4.6c-0.7-0.4-1-1.3-0.6-2c0.4-0.7,1.3-1,2-0.6l8,4.6
						c0.7,0.4,1,1.3,0.6,2C243,200.1,242.5,200.4,242,200.4z M225.9,191.2c-0.3,0-0.5-0.1-0.7-0.2l-8-4.6c-0.7-0.4-1-1.3-0.6-2
						c0.4-0.7,1.3-1,2-0.6l8,4.6c0.7,0.4,1,1.3,0.6,2C226.9,190.9,226.4,191.2,225.9,191.2z M209.8,182c-0.3,0-0.5-0.1-0.7-0.2
						l-8-4.6c-0.7-0.4-1-1.3-0.5-2c0.4-0.7,1.3-1,2-0.6l8,4.6c0.7,0.4,1,1.3,0.5,2C210.8,181.7,210.3,182,209.8,182z M193.7,172.8
						c-0.3,0-0.5-0.1-0.7-0.2l-8-4.6c-0.7-0.4-1-1.3-0.6-2c0.4-0.7,1.3-1,2-0.6l8,4.6c0.7,0.4,1,1.3,0.6,2
						C194.7,172.5,194.2,172.8,193.7,172.8z M177.6,163.6c-0.3,0-0.5-0.1-0.7-0.2l-8-4.6c-0.7-0.4-1-1.3-0.6-2c0.4-0.7,1.3-1,2-0.6
						l8,4.6c0.7,0.4,1,1.3,0.5,2C178.7,163.3,178.1,163.6,177.6,163.6z M161.5,154.4c-0.3,0-0.5-0.1-0.7-0.2l-8-4.6
						c-0.7-0.4-1-1.3-0.5-2c0.4-0.7,1.3-1,2-0.6l8,4.6c0.7,0.4,1,1.3,0.6,2C162.6,154.1,162.1,154.4,161.5,154.4z"/>
				</g>
				<g>
					<path class="st0" d="M250,209.4c-0.5,0-1-0.3-1.3-0.7c-0.4-0.7-0.2-1.6,0.6-2l1.6-0.9l-1.6-0.9c-0.7-0.4-1-1.3-0.6-2
						c0.4-0.7,1.3-1,2-0.6l3.9,2.2c0.5,0.3,0.7,0.8,0.7,1.3c0,0.5-0.3,1-0.7,1.3l-3.9,2.2C250.5,209.3,250.3,209.4,250,209.4z"/>
				</g>
				<g>
					<path class="st0" d="M153.5,264.6c-0.5,0-1-0.3-1.3-0.7c-0.4-0.7-0.2-1.6,0.5-2l8-4.6c0.7-0.4,1.6-0.2,2,0.6
						c0.4,0.7,0.2,1.6-0.6,2l-8,4.6C154,264.5,153.8,264.6,153.5,264.6z M169.6,255.4c-0.5,0-1-0.3-1.3-0.7c-0.4-0.7-0.2-1.6,0.6-2
						l8-4.6c0.7-0.4,1.6-0.2,2,0.6c0.4,0.7,0.2,1.6-0.6,2l-8,4.6C170.1,255.3,169.8,255.4,169.6,255.4z M185.7,246.2
						c-0.5,0-1-0.3-1.3-0.7c-0.4-0.7-0.2-1.6,0.6-2l8-4.6c0.7-0.4,1.6-0.2,2,0.6c0.4,0.7,0.2,1.6-0.6,2l-8,4.6
						C186.2,246.1,185.9,246.2,185.7,246.2z M201.8,237c-0.5,0-1-0.3-1.3-0.7c-0.4-0.7-0.2-1.6,0.5-2l8-4.6c0.7-0.4,1.6-0.2,2,0.6
						c0.4,0.7,0.2,1.6-0.5,2l-8,4.6C202.3,236.9,202,237,201.8,237z M217.9,227.8c-0.5,0-1-0.3-1.3-0.7c-0.4-0.7-0.2-1.6,0.5-2
						l8-4.6c0.7-0.4,1.6-0.2,2,0.6c0.4,0.7,0.2,1.6-0.5,2l-8,4.6C218.4,227.7,218.1,227.8,217.9,227.8z M233.9,218.6
						c-0.5,0-1-0.3-1.3-0.7c-0.4-0.7-0.2-1.6,0.6-2l8-4.6c0.7-0.4,1.6-0.2,2,0.6c0.4,0.7,0.2,1.6-0.6,2l-8,4.6
						C234.4,218.5,234.2,218.6,233.9,218.6z"/>
				</g>
			</g>
			<g>
				<path class="st0" d="M141.6,143c-0.3,0-0.5-0.1-0.7-0.2L28.6,78.6c-0.5-0.3-0.7-0.8-0.7-1.3c0-0.5,0.3-1,0.7-1.3l112.3-64.2
					c0.5-0.3,1-0.3,1.5,0L254.6,76c0.5,0.3,0.7,0.8,0.7,1.3c0,0.5-0.3,1-0.7,1.3l-112.3,64.2C142.1,142.9,141.9,143,141.6,143z
					 M32.3,77.3l109.3,62.5l109.3-62.5L141.6,14.8L32.3,77.3z"/>
			</g>
			<g>
				<path class="st0" d="M141.6,271.4c-0.3,0-0.5-0.1-0.7-0.2L28.6,207c-0.5-0.3-0.7-0.8-0.7-1.3V77.3c0-0.5,0.3-1,0.7-1.3
					c0.5-0.3,1-0.3,1.5,0l112.3,64.2c0.5,0.3,0.7,0.8,0.7,1.3v128.4c0,0.5-0.3,1-0.7,1.3C142.1,271.3,141.9,271.4,141.6,271.4z
					 M30.8,204.9l109.3,62.5v-125L30.8,79.9V204.9z"/>
			</g>
			<g>
				<path class="st0" d="M141.6,271.4c-0.3,0-0.5-0.1-0.7-0.2c-0.5-0.3-0.7-0.8-0.7-1.3V141.5c0-0.5,0.3-1,0.7-1.3L253.2,76
					c0.5-0.3,1-0.3,1.5,0c0.5,0.3,0.7,0.8,0.7,1.3v128.4c0,0.5-0.3,1-0.7,1.3l-112.3,64.2C142.1,271.3,141.9,271.4,141.6,271.4z
					 M143.1,142.4v125l109.3-62.5v-125L143.1,142.4z"/>
			</g>
		</g>
	</g>
	<g>
		<g>
			<path class="st0" d="M141.6,19.1c-0.8,0-1.5-0.7-1.5-1.5v-4.4c0-0.8,0.7-1.5,1.5-1.5c0.8,0,1.5,0.7,1.5,1.5v4.4
				C143.1,18.4,142.4,19.1,141.6,19.1z"/>
		</g>
		<g>
			<path class="st0" d="M141.6,129.4c-0.8,0-1.5-0.7-1.5-1.5v-9.2c0-0.8,0.7-1.5,1.5-1.5c0.8,0,1.5,0.7,1.5,1.5v9.2
				C143.1,128.7,142.4,129.4,141.6,129.4z M141.6,111c-0.8,0-1.5-0.7-1.5-1.5v-9.2c0-0.8,0.7-1.5,1.5-1.5c0.8,0,1.5,0.7,1.5,1.5v9.2
				C143.1,110.3,142.4,111,141.6,111z M141.6,92.6c-0.8,0-1.5-0.7-1.5-1.5v-9.2c0-0.8,0.7-1.5,1.5-1.5c0.8,0,1.5,0.7,1.5,1.5v9.2
				C143.1,91.9,142.4,92.6,141.6,92.6z M141.6,74.2c-0.8,0-1.5-0.7-1.5-1.5v-9.2c0-0.8,0.7-1.5,1.5-1.5c0.8,0,1.5,0.7,1.5,1.5v9.2
				C143.1,73.6,142.4,74.2,141.6,74.2z M141.6,55.8c-0.8,0-1.5-0.7-1.5-1.5v-9.2c0-0.8,0.7-1.5,1.5-1.5c0.8,0,1.5,0.7,1.5,1.5v9.2
				C143.1,55.2,142.4,55.8,141.6,55.8z M141.6,37.4c-0.8,0-1.5-0.7-1.5-1.5v-9.2c0-0.8,0.7-1.5,1.5-1.5c0.8,0,1.5,0.7,1.5,1.5V36
				C143.1,36.8,142.4,37.4,141.6,37.4z"/>
		</g>
		<g>
			<path class="st0" d="M141.6,143c-0.8,0-1.5-0.7-1.5-1.5v-4.4c0-0.8,0.7-1.5,1.5-1.5c0.8,0,1.5,0.7,1.5,1.5v4.4
				C143.1,142.3,142.4,143,141.6,143z"/>
		</g>
	</g>
</g>
</svg>
